<?xml version="1.0" encoding="UTF-8"?>
<svg id="_图层_1" xmlns="http://www.w3.org/2000/svg" version="1.1" viewBox="0 0 604 593">
  <!-- Generator: Adobe Illustrator 30.0.0, SVG Export Plug-In . SVG Version: 2.1.1 Build 123)  -->
  <defs>
    <style>
      .st0 {
        fill: #0655bc;
      }
    </style>
  </defs>
  <g id="idTxm4.tif">
    <g>
      <g>
        <path class="st0" d="M518.03,491.48l-97.81.47c.44,19.49,11.3,38.42,29.64,45.96,26.24,10.8,56.57-7.43,65.72-32.74l2.46-8.54v-5.15ZM507.73,507.39c.37.42-2.35,3.83-2.82,4.43-11.18,14.28-30.99,20.62-48.43,15.23-10.46-3.23-19.75-11.2-25.5-20.37l10.81,9.79c17.81,13.32,38.64,12.07,56.27-.75,3.46-2.52,6.52-5.48,9.67-8.34Z"/>
        <path class="st0" d="M275.71,120.61c-.49-.28-1.7-2.14-3.06-2.79-7.19-3.41-10.53,3.15-6.61,8.96,1.16,1.72,6.56,6.14,8.57,6.35,2.83.3,3.38-2.34,4.74-3.98.38,3.01,1.46,6.58,1.45,9.59-.02,12.71-1.39,27.99-2.85,40.72-2.07,17.99-1.94,29.9-17.63,40.88-3.96,2.77-7.34,1.96-4.28,7.26,10.73,18.55,37.96,35.83,56.85,45.19,20,9.91,40.74,15.93,59.47,28.52,1.69,1.13,10.01,7.81,10.76,7.98.73.17,4.86-.75,4.82-2.02.24-8.73-.34-17.52-.02-26.24.13-3.51.23-10.25,1.19-13.32,2.32-7.37,9.93-10.13,14.28-2.59,2.71,4.7,2.92,17.99,3.26,23.89.34,5.88.32,11.83.54,17.72.09.42.34.56.72.69,2.25.75,5.82.54,8.49,1.34,12.76,3.86,24.38,32.09,25.36,44.39.31,3.94-.02,8.46-.26,12.41l35.37,2.8c-1.21-13.2-3.01-26.45-5.76-39.41-3.13-14.75-7.53-31.78-11.79-46.26-10.7-36.34-26.77-43.95-61.07-54.07-31.37-9.25-66.93-9.42-70.66-49.63-.14-1.52.38-8.02-.54-8.59-14.04-1.85-27.05-9.54-36.9-19.5.47-.77,1.03.16,1.4.47,6.93,5.72,14.69,10.18,23.4,12.64,5.79,1.64,18.33,3.73,23.71,1.25,4.72-2.17,9.86-14.67,11.74-19.62,1.19-3.14,2.95-11.2,4.11-13.21.64-1.11,2.72-1.46,3.28-3.27.97-3.14-.98-8.79-1.26-12.13-13.83-3.05-27.33-2.42-41.3-.94-9.97,1.06-20.08,3.2-30.01,4.15-1.43.14-8.82.74-9.48.36Z"/>
        <path class="st0" d="M362.65,355.72c-5.75-2.78-11.35-6.26-16.81-9.63-47.25-29.21-81.75-55.44-102.56-109.01-.57-1.46-.51-5.83-2.9-5.34-3.68.76-1.74,3.85.12,5.54-1.75.3-3.17-2.77-4.43-2.79-.32,0-4.21,1.78-4.35,1.97-.33.47-1.42,9.94-1.51,11.36-1.09,17.01.93,35.97,3.89,52.75,8,45.44,28.14,88.78,51.79,127.95l.94-.02,14.51-39.76c-.1-.78-7.97-1.05-9.46-1.31-10.01-1.77-16.88-9.67-14.28-20.1,1.39-5.59,4.66-7.31,9.52-9.21.48-.19.8.25.64-.74-25.23-30.26-42.89-66.28-48.66-105.57l5.02,17.21c7.42,23.4,18.23,45.3,31.47,65.89,2.75,4.27,13.06,20.63,16.06,23.02,1.55,1.24,4.38,1.15,6.67,3.4,2.17,2.13,2.01,4.39,3.17,5.96.15.21,3.68,3.25,3.93,3.33,2.25.66,13.63.22,16.77.12,1-.03,1.89-.44,2.79-.48,18.68-.82,37.27-2.92,55.92-4.22-1.15-2.6-2.36-3.97-1.64-7.02.2-.85,1.7-3.15,1.63-3.47-.14-.6-3.59-2.41-3.76-6.58-.15-3.6,2.76-6.65,2.75-7.03,0-.15-1.39-1.6-1.74-2.39-1.43-3.21-1.08-6.42.87-9.31-1.62-1.17-3.21-1.17-4.66-2.81-2.8-3.18-2.02-8.24.07-11.62l4.59-4.28c-17.84-12.94-39.31-20.28-59.12-29.81-20.64-9.92-42.27-21.43-57.88-38.54-4.55-4.99-8.63-10.34-11.29-16.57-4.38,1.2-7.43,2.04-6.16,7.34,5.26,21.93,30.55,51.96,46.94,67.27,21.9,20.44,47.41,36.45,71.14,54.52Z"/>
        <path class="st0" d="M418.11,568.72c.32-.08.59-.49.52-.97-.16-.97-1.36-3.56-1.8-4.76-6.32-17.18-17.02-35.26-27.39-50.31-13.34-19.35-29.45-37.54-45.74-54.43-.58.28-.05,1.31.1,1.77,2.99,9.38,7.74,18.71,10.66,28.19,1.17,1.41,6.56-1.34,7.26,5.37.78,7.49-4.22,19.63-8.23,25.94-18.35,28.89-59.21,37.1-82.55,9.15-6.26-7.49-12.68-21.68-13.53-31.41-.49-5.67-.26-8.79,6.44-8.19l5.13-14.16c-22.81-21.61-39.32-47.54-50.35-76.96-1.59-4.25-2.69-8.87-4.26-13.06-.25-.66-.18-1.62-1.24-1.57-.87,14.43.53,28.96,2.65,43.23,7.63,51.39,29.47,102.13,62.4,142.15h139.93Z"/>
        <path class="st0" d="M435.66,568.72c.05-5.21-.41-10.44-1-15.62-.6-5.27-2.65-21.6-4.97-25.45-1.65-2.73-4.09-5.11-5.81-8.23-3.57-6.46-8.42-20.42-7.36-27.66.71-4.85,5.1-2.11,5.52-3.83.19-.79-3.21-13.79-3.73-15.84-1.79-7.07-6.46-19.31-6.95-25.85-.11-1.48.46-3.83.45-5.52-.06-17.91-.12-35.82.92-53.63-.24-.24-6.07.32-6.69.46-.28.06-2.64,3.46-3.9,4.16-3.43,1.91-7.7,1.03-10.48-1.56-.75-.7-1.34-2.19-2.06-2.63-1.03-.62-13.19-1.31-15.46-1.39-18.87-.66-38.11.85-56.88,2.12,18.34,21.37,38.89,40.83,60.61,58.74,8.45,6.97,17.37,13.36,25.96,20.14-2.74-1.26-5.35-2.91-7.92-4.48-29.62-18.2-54.4-41.93-76.56-68.54l2.1,7.26,17.55,46.57c30.5,33.25,64.12,65.63,80.15,108.95,1.44,3.91,2.27,8.14,4.1,11.82h12.4Z"/>
        <path class="st0" d="M154.86,426.4c.42.59,9.94.48,11.49.5,7.79.06,16.47-.81,24.31-.02,3.21.33,4.6,1.41,6.09,4.2.6-.44.8-1.08,1.07-1.73,7.38-17.56,10.03-49.16,9.28-68.16-.21-5.4-1.93-11.52-2.57-16.99-2.93-24.93-.41-48.53,5.79-72.74,2.48-9.68,5.59-19.23,9.13-28.55-8.27,4.04-16.77,8.15-24.48,13.19-15.02,9.84-20.58,21.83-24.04,39.15-7.17,35.86-6.34,73.92-9.09,110.28l-6.98,20.87Z"/>
        <path class="st0" d="M225.66,239.76c-7.88,19.73-14.06,40.26-16.45,61.48-5.29,47.02,11.87,102.72,36.9,142.26,6.79,10.73,14.7,21.49,23.4,30.65l15.84-43.2c-26.51-39.44-47.28-83.02-55.01-130.37-1.56-9.56-3.01-20.62-3.43-30.27-.46-10.38.72-20.77.48-31.15l-1.74.6Z"/>
        <path class="st0" d="M408.52,324.36c1,.8-1.95,1.56-2.32,1.65-5.24,1.36-19.2,2.25-22.74,5.34-1.71,1.49-2,3.6-1.51,5.78.68,3.01,4.39,2.31,6.7,2.22,5.99-.22,12.27-1.43,18.25-.98,5.91.44-3.15,2.4-4.83,2.7-3.88.71-17.33,1.6-19.31,4.22-1.93,2.55-1.01,6.68,2.32,7.41l23.9.2c.17,1.03-.43,1.12-1.19,1.38-2.83.96-8.89,1.45-12.15,1.89-2.72.37-11.29-.14-11.92,3.06-1.33,6.79,4.89,5.81,8.88,7.95-1.66.99-3.43,2.4-3.75,4.44-1.06-.63.1-2.67-2.08-2.36-20.16,1.27-40.26,4.27-60.4,5.63-7.98.54-18.36,1.29-26.2.47-6.2-.65-2.97-1.69-3.56-6.27-1.21-9.33-16.6-7.95-14.89,4.6,1.49,10.97,16.25,9.32,24.03,10.13,5.16.54,10.51.28,15.96,0,11.35-.6,22.79-1.74,34.13-1.91,11.05-.16,22.01.71,33.02,1.43l.46-2.81c1.06,4,5.27,6.27,8.59,8.34,1.8-.16,6.48-5.09,7.66-5.44,1.22-.36,2.81.06,4.11-.1,3.05-.36,6.37-1.15,9.37-1.4,16.33-1.34,32.59.36,48.92.68l37.94,105.06,4.63.05-38.84-104.16c-.35-.89,1.56-1.03,2.15-1.11,8.97-1.13,25.55,0,24.21-13.56-1.05-10.6-16.06-9.44-15.16.63.17,1.94,1.75,2.24-.17,3.08-6.47,2.82-28.02-1.21-36.08-1.91-13.49-1.17-26.93-1.48-40.47-1.65l-2.34-2.09c10.02-1.22,20.36-2.14,30.41-.94,4.3-14.57-2.48-32.23-10.56-44.43-4.93-7.44-8.36-9.74-17.72-9.89-4.98-.08-17.46,2.11-20.84,5.87-2,2.22-2.5,6.59.47,7.95,1.38.63,10.01-1.03,12.4-1.16,3.49-.19,7.03.13,10.52,0Z"/>
        <path class="st0" d="M276.08,568.72c.34-.29-2-3.08-2.35-3.5-3.8-4.47-7.83-8.73-11.41-13.39-23.48-30.6-38.94-68.7-47.31-106.23l-1.76,4.32c-12.05,38.36-20.88,78.29-20,118.79h82.84Z"/>
        <path class="st0" d="M357.46,492.47l-95.84,1.16c2.4,30.5,27.04,55.38,59.01,45.94,17.23-5.09,31.7-19.86,36.17-37.32.83-3.25,1.78-6.44.65-9.78ZM347.54,511c-5.34,7.69-16.88,15.05-26.05,17.24-19.97,4.78-37.47-3.75-48.59-20.24-.43-.64-1.15-1.16-1.03-2.01,12.36,14.73,28.04,23.4,47.75,19.44,11.39-2.29,20.83-9.47,28.77-17.57.31.56-.59,2.76-.85,3.13Z"/>
        <polygon class="st0" points="341.59 488.67 320.42 431.44 305.57 411.9 277.03 488.44 341.59 488.67"/>
        <path class="st0" d="M417.41,386.62c.56,16.96-.73,34.37-.02,51.28.58,13.79,5.11,27.13,7.52,40.7.14.77-.3.81.91.71l36.04-92.22c-14.88-.45-29.6-2.12-44.46-.47Z"/>
        <path class="st0" d="M306.61,386.73l-37.98,102.36c.88.36,3.69,1.01,4.22.23l35.99-98.03c.66.05.74.69.95,1.15,2.67,5.83,4.77,13.8,7.12,20.03,9.03,23.94,17.65,50.1,27.74,73.36.2.46,1.1,2.67,1.23,2.75.65.41,3.15-.12,4.14.07l-37.68-102.07-4.15-.28-1.59.41Z"/>
        <path class="st0" d="M426.77,488.2c1.62-.19,4.03.74,4.78-1.06l37.08-94.45c1.78-3.5.71-5.1-.69-8.4l-41.18,103.92Z"/>
        <path class="st0" d="M392.14,310.78c2.05.48,2.3-2.13,3.47-2.84,3.45-2.08,7.25,2.47,7.75,1.9l-.94-35.34c-.5-2.23-.37-4.4-1.52-6.44-.36-.65-2.99-3.5-3.46-3.58-1.18-.2-3.8,2.93-4.24,4.07-.67,1.75-.99,6.18-1.1,8.26-.59,11.13.47,22.78.02,33.96Z"/>
        <path class="st0" d="M381.37,326.23c-.96-3.51-1.54-5.77.55-9.05.62-.97,3.52-2.87,1.68-3.7-2.94-1.33-7,1.84-7.38,5.02-.52,4.23.05,8.1,5.16,7.73Z"/>
        <g>
          <path class="st0" d="M291.41,34.48c-.18.17-3.58,1.5-3.9,1.52-1.04.07-3.45-1.22-5.12-1.4-6.11-.63-13.05,2.34-14.63,8.76-.47,1.91.62,3.5-1.83,4.77-1.35.7-2.63-.33-4.13-.42-10.2-.61-17.36,6.8-16.09,17.03.34,2.73,2.5,4.72.43,7.43-1.28,1.68-6.62,2.33-8.87,3.89-3.7,2.56-5.34,7.69-4.6,12.03.42,2.45,3.6,6.04,3.6,7.13,0,2.5-5.2,5.51-5.07,9.79.11,3.81,5.62,7.19,2.77,10.82-3.06,3.89-7.38-.19-6.09-1.64.38-.43,2.88,2.42,3.3-.25.6-3.83-6.6-4.54-6.62,1.42-.01,2.96,2.75,4.85,5.38,5.47l4.02.38c-4.14,1.01-8.36.15-9.24,5.5-.81,4.9,3.42,6.13,1.96,10.88-.78,2.53-5.58,3-7.69,3.99-7.2,3.39-8.59,13.53-1.56,17.94,1.5.94,3.91.76,4.24,1.14.1.11,1.03,2.29,1.03,2.46.11,2.61-3.71,2.66-3.71,3.27l.92,1.64c-8.69-5.89-20.48,2.04-17.93,12.55,1.09,4.5,8.03,7.85,4.75,12.88-1.6,2.46-3.78,2.07-6.18,3.18-4.87,2.25-7.31,7.14-5.46,12.37,1.48,4.19,7.48,6.11,7.04,10.7-.43,4.45-6.86,4.04-9.59,6.83-2.41,2.46-2.75,7.76-1.41,10.77,1.22,2.74,5.51,3.63,5.39,6.28-.13,2.86-4.1,3.23-5.17,4.82-1.2,1.79-.94,4.24-.45,6.21.3.27,2.41-1.11,2.59-1.41.34-.56-.65-1.91,1.04-3.28,1.38-1.11,3.26-.91,4.94-1.94,2.54-1.56,3.45-4.47,2.3-7.29-1.15-2.83-7.57-4.72-4.74-9.66.47-.83,3.73-2.71,4.63-2.92,1-.23,1.26.63,2.01.65,1.76.03,6.12-2.04,7.34-3.41,7.17-7.95-7.83-12.13-1.79-20.98,2.99-4.39,8.58-2.73,10.78-7.94,1.85-4.4-1.5-5.22-1.97-8.98-.56-4.53.99-7.79,4.91-10.09,4.53-2.66,10.49-2.07,12.09-8.5,1.94-7.76-7.12-11.83-2.67-20.46,2.41-4.67,8.18-5.06,12.35-7.31-3.37-1.47-9.48-3.44-9.38-7.94.1-4.7,4.4-3.68,4.73-4.3.15-.28,1.41-5.71,1.38-6.02-.08-.8-2.21-3.01-2.6-4.89-.88-4.22.5-6.91,3.94-9.23.91-.61,1.99-.77,2.85-1.36,3.43-2.34,2.41-6.2,1.43-9.57,2.78,1.89,4.35,5.92,2.74,9.07-1.66,3.26-6.54,2.48-8.23,7.68-1.47,4.53.77,4.81,1.18,7.93.12.95-.49,2.05-.42,3.17.15,2.47,1.75,6.32-.89,7.72-.23-6.84-9.04-1.2-3.98,2.34,4.93,3.45,11.51,1.54,10.96-5.32-.13-1.61-1.25-3-1.13-4.51,4.12,3.51,5.59,9.4,2.3,14-3.54,4.97-10.83,4.04-14.02,9.39-5.51,9.24,5.1,14.05,2.02,22.15-2.84,7.48-17.41,4.58-17.25,16.49.07,5.13,5.38,9.59-1.22,13.25-3.4,1.88-6.24,1.66-7.99,6.06-2.67,6.74,2.87,7.99,3.88,12.72,2.2,10.26-13.49,7.18-11.96,17.81-.82.21-.09-1.41-1.16-.93-2.12.95,1.54,4.04,2.2,5.27.45.85.16,2.73,1.45,2.62,1.65-.15,7.13-4.66,9.45-5.08.84-1.84-.33-3.9-.06-5.63.2-1.23,1.76-4.18,3.09-3.51-2.48,2.82-2.09,6.81,2.48,5.76l18.57-10.45c.82-.78.46-3.05,1.89-3.74,1.88-.91,4.21,1.7,5.81-1.2,2.23-4.06-1.12-4.7-1.85-7.44-1.03-3.89.63-7.37,4.93-7.03-6.94,5-1.38,13.39,5.78,9.76.82-.42,5.31-4.3,5.42-4.91.16-.93-1.91-1.83-2.21-2.84-.48-1.64.19-4.34-.56-6.22l1.82,2.16,2.15,5.8c1.37-1.7,3.09-3.84,4.07-5.76,6.35-12.46,10.84-50.96,11.17-65.61.02-.72-.3-4.71-.51-4.91-.12-.11-2.36,0-3.27-.24-.79-.21-4.94-2.81-5.13-2.59,1.77,4.25,2.66,8.6.56,12.97-3.31,6.87-14.25,5.13-15.49,14.46-1.22,9.17,10,10.15,8.27,19.51-1.25,6.75-9.28,4.59-12.46,10.01-2.16,3.68-.25,6.05.86,9.53-3.56-1.63-4.2-4.52-3.75-8.2.72-5.85,8-5.58,11.24-9.35-2.51-.14-5.12,1.37-6.55-1.63,5.43.39,12.06-3.82,6.85-9.2l-5.45-3.91c-.67,2.98-.19,6.1-.51,9.09-.05.45-.2,1.76-.89,1.68.84-3.75-3.25-3.35-3.69-3.8-.16-.16-.07-1.27-.28-1.81-1.54-3.87-3.53-6.26-1.87-10.76.4-1.08,1.16-2.89,2.56-2.82-2.05,2.5-2.45,5.83-1.03,8.75,1.69,3.49,5.38.95,5.25-.99-.09-1.35-1.78-3.78-1.84-5.7-.3-10.72,15.42-8.18,16.3-19.21.49-6.1-3.74-9.29-5.25-14.31-.8-2.67-.4-4.84-.81-7.14-.23-1.25-1.76-2.53-1.83-4.27-.03-.86,1.19-4.87,1.61-5.81.48-1.08,2.39-3.14,2.49-3.58.3-1.43-1.85-1.44-1.31-2.73.67-1.59,4.04.18,5.4.24,3.76.18,10.06-4.41,10.52-8.19.41-3.41-1.79-6.05-.59-9.02,1.55-3.83,10.42-2.99,13.69-6.9.94-1.12,2.24-4.25,2.3-5.69.14-2.88-1.9-5.41,1.19-8.14,1.84-1.62,8.43-.44,12.38-2.59,5.47-2.97,3.19-8.31,6.27-11.76,3.6-4.04,6.27-.4,9.5-.17,4.83.35,8.51-4.38,8.61-8.87.79-.12.48,1.1.47,1.64-.01,4.51-3.09,9.02-7.79,9.54-3.06.33-7.47-2.23-9.19,1.58-1.71,3.8-1.25,6.98-5.53,9.91-2.68,1.83-5.83,1.2-7,1.89-.9.54-1.83,4.72-3.5,5.39l.7-5.15c-5.88,1.54-3.35,7.08-5.53,11.55-1.67,3.43-4.89,3.61-6.75,6.36-1.25,1.83-1.76,4.22-2.76,6.13-.81,1.54-2.99,2.38-2.27,4.98,22.56-7.03,46.42-13.46,70.19-8.89l-7.44-23.23c-.35-1.58,2.52.09,2.76-.18.09-4.23-2.91-8.53-7.29-8.85-1.01-.07-1.66.62-3.01.24-1.32-.38-3.19-2.33-4.2-3.32,1.06-.59,2.11.95,3.14,1.08.88.11,1.79-.44,2.71-.42,4.44.11,9.03,3.61,9.78,8.09.29,1.72-.67,3.86.05,5.07.79,1.32,8.97,1.27,10.32,6.54.54,2.09-.39,2.49-.58,4.05-.06.47.48,1.38.32,1.57-.13.16-.94-1.03-2.09.48-1.59,2.11-1.41,6.44-.36,8.76.57,1.26,2.28,2.03,2.71,3.38.64,2.01.24,4.99,1.39,7.04.24.43.35.65.69.22,2.43-3.11,6.35-6.17,3.95-10.48-.45-.8-4.03-3.24-3.47-3.78,4.05,1.97,6.73,5.03,4.77,9.69-1.23,2.92-3.36,3.33-2.91,7.4.38,3.47,4.94,4.59,5.16,8.18l-7.01-4.21c.51,3.69.21,8.81,2.4,11.89.4.56,1.37.72,1.36,1-.03.74-1.58,2.11-.96,3.5-1.03-.59-2.01-1.12-3.27-.94-.54,1.32,1.46,10.32,1.93,10.71.54.44,3.17-.35,4.82,2.45,1.34,2.27-.66,4.67-1.6,3.7-.19-.2.62-3.01-1.67-3.3-2.46-.31-4.17,3.11-6.04,4.25-2.23,7.84-6.96,15.9-9.27,23.49-.26.84-.74,2.22-.78,3.01-.26,5.01,7.91,6.52,7.68,13.52-.24,7.44-8.81,6.56-10.29,12.38-.89,3.49.84,5.59,3.05,7.97-3.07-.63-5.4-4.67-5.06-7.6.8-6.91,13.04-7.67,8.72-16.42-.86-1.74-5.45-5.93-7.18-5.94-.4,0-2.83,2.06-3.98,2.57-2.72,1.21-5.48,1.13-8.21,2.08-1.52,15.22,3.23,32.23,18.53,38.2l2.1-2.12,2.56-4.22c1.64,2.71-2.77,5.98-.46,8.19,1.77,1.69,11.32,3.03,14.03,4.45.5-3.47-4.54-6.79-1.41-9.83.08,1.62,4.06,10.05,4.8,10.65.39.32,8.25,2.12,8.91,1.92,1.16-.34,2.78-3.87,2.93-5.06.94-7.42-10.23-5.6-11.39-11.6-.61-3.14,1.02-4.03,2.88-5.7,2.32-2.08-4.19-1.55-5.35-3.52-2.97-5.04,5.02-8.26,4.73-13.59-.46-8.6-11.67-5.8-12.64-10.79-1.13-5.82,4.22-5.75,5.58-9.84.83-2.49.46-4.62-1.37-6.53,1.82-.67,4.31,4.98,4.12,6.45-.48,3.65-6.62,4.99-5.92,8.89.69,3.82,9.85,1.79,11.78,8.38,1.03,3.53-.5,4.8-1.56,7.87,6.41,1.05,11.38,7.21,4.91,12.18-2.28,1.75-5.33,1.87-4.95,5.86.46,4.9,13.1,3.58,11.63,12.52-.32,1.92-2.64,3.88-2.02,5.03.68,1.27,10.43,2.84,12.43,3.27-1.89-5.33,3.35-6.49,1.03-12.03-1.69-4.04-6.51-3.82-7.74-7.71-1.97-6.26,7.03-8.73,3.78-16.89-2.19-5.5-11-5.99-10.43-12.09.08-.9.76-3.21,1.66-3.72-.13,2.7.4,5.73,2.32,7.74,3.78,3.95,13.81,2.26,13.1,9.75-.49,5.18-10.93,6.38-7.79,14.9,2.18,5.9,11.73,3.61,12.65,8.91.66,3.81-4.36,3.76-5.51,5.54-1.42,2.18-.56,5.99,2.05,6.79.47.14,5.98,1.12,6.41,1.13,4.7.05,3.56-8.75-.76-5.83-.38.79.7.66.78.81,1.5,2.65-3.34,2.95-3.61.1-.18-1.88,1.97-2.09,3.06-3.02,4.22-3.58,3.33-8.61-.94-11.7-1.75-1.27-6.69-3.51-7.48-.47-2.31-2.54-4.84-4.39-1.4-7.49.38,1.2.35,2.86,2.1,2.8-.67-4.9,4.33-5.27,6.27-8.94,2.43-4.58,1.21-10.7-3.03-13.73-3.61-2.59-9.96-1.76-10.27-7.29-1.73.92-2.47,2.3-2.57,4.21-2.38-1.69-.24-3.66-.33-4.84-.08-1-1.81-2.56-1.31-4.05l-1.32.79-2.42,3.42c.38-3.8-.16-6.86-3.17-9.37-.94-.78-2.62-1.19-3.4-2.08-1.65-1.87-1.9-6.64-.21-8.68,1.96,6.13,11.96,3.31,12.43,10.07.16,2.33-1.33,3.21-1.42,5.36,4,.83,3.62,3.42,6.78-.44,4.6-5.64,1.77-13.24-4.59-16.01-2.72-1.18-6.54-1.04-7.85-4.33-1.47-3.71,1.99-5.6,3.26-8.51,2.04-4.69.36-10.46-4-13.21-3.2-2.02-5.87-.69-8.14-4.5-.42-.71-.45-1.59-.9-2.38-.93-1.65-3.77-3.02-.73-5.84,2.72-2.53,5.42,1.9,2.12,2.82-.14-5.42-4.43.17-1.13,2.29,2.54,1.63,3.46-.56,4.7-.75.94-.15,2.16,1.14,2.52-.85.39-2.15-.9-2.21-1.31-3.37-.41-1.16-.25-2.86-.82-4.33-1.78-4.65-7.79-5.37-8.55-7.83-1.65-5.33,2.25-5,3.87-9.03,1.98-4.91-.86-10.31-5.71-12.07-1.99-.72-5.68-.26-5.71-3.13-.02-2.63,1.99-3.1-.03-7.04s-7.18-4.58-7.44-4.96c-.22-.33,0-2.43-.18-3.33-.75-3.9-3.09-6.65-6.9-7.85,2.45-4.22,3.23-7.51.39-11.85-3.67-5.61-11.66-6.89-17.19-3.31-1.79,1.16-1.71,2.77-1.94,2.99-.05.05-.87-.57-1.37-.26-.35.22-.55,1.06-.99,1.39-8.15,6.18-10.37-2.85-18.19.05-8.31,3.09-4.5,12.07-8.22,16.59-3.05,3.7-10.87.1-14.93,4.73-5.02,5.74,3.85,14.79-6.79,17.08-3.03.65-6.28-.25-8.45,2.78-1.69,2.37-1.56,5.18-.89,7.84.1.38.85.35.83.56-.06,1.12-.4,4.38-.76,5.29-1.93,4.86-11.03-.2-14.03,6.09-1.33,2.79-1.01,4.29-.12,7.14-4.07-4.09-1.31-10.96,4.2-11.98,2.39-.44,7.18.91,8.26-2.99.86-3.12-2.85-8.1.66-12.88,3.75-5.12,7.86-2.34,12.04-4.81,2.55-1.51,1.13-8.88,1.64-11.93.56-3.28,3.12-5.62,6.26-6.38,3.92-.95,6.37,1.5,9.96-2.2,2.97-3.07,1.46-6.59,2.62-10.49,1.21-4.1,5.56-8.32,10.07-7.95-1.96-2.95-5.52-2.53-8.38-1.12-4.05,1.99-2.95,5.03-5.19,7.91-6.15,7.9-16.59-2.37-22.93,6.09-3.61,4.82-1,10.9-3.54,14.72-3.23,4.87-10.8,1.69-13.33,7.73-1.92,4.58,1.48,8.46-1.45,12.59-2.9,4.1-13.35,3.42-11.17,12.47-4.05-2.95-2.39-8.08,1.55-10.4,1.89-1.11,4.91-1.45,6.59-2.78,3.27-2.59,1.78-9.14.3-12.35,1.33-.39.94-1.59,1.64-2.56,2.96-4.13,11.21-2.07,14.19-6.87,2.93-4.72-1.62-11.46,5.08-16.46,7.31-5.45,13.43,2.44,20.25-2.22,3.25-2.23,3.28-5.83,5.88-7.7,3.12-2.25,6.48-2.21,10.06-1.16,2.43.71,7.06,3.82,9.16,3.97,3.51.25,3.04-4.78,6.96-4.22,1,.14,1.36,1.2,1.94,1.31.68.14,2.07-.65,2.99-.36-.88-4.24-6.28-7.77-10.46-7.46-1.33.1-5.27,1.74-5.69,1.71-.31-.02-1.17-1.05-1.77-1.37-6.88-3.66-15.04-4.22-20.65,2-1.28,1.42-2.58,4.9-3.19,5.47ZM338.79,42.55c-.95-4.24,4.26-4.49,6.56-1.65,2.02,2.5,1.17,6.55-2.35,5.39.42-1.04,1.66-.59,1.88-2.13.52-3.62-4.38-4.92-6.09-1.61ZM253.61,61.74c.31-6.3,5.01-6.92,10.29-7.02-.6,4.92-1.75,2.36-3.62,1.95-2.11-.46-3.27.87-4.58,2.25l-2.09,2.82ZM256.42,137.11c.18-8.04-10.66-17.22.23-22.94-.41,1.33-1.67,1.87-2.34,3.27-4.01,8.4,3.71,12.29,2.94,18.37-.05.39-.23,1.42-.83,1.29ZM371.08,125.41c3.83-.07,6.59,4.65,6.06,8.16-1.16,7.65-11.94,5.3-11.72,13.14.06,1.97,1.34,2.75,1.21,4.44-4.48-1.98-9.41-12.86-3.54-15.25,1.46-.59.79.77,1.91,1.43,5.72,3.35,11.99-7.65,6.07-11.91ZM210.56,200.3c4.15-4.08,5.34-8.33,2.75-13.75-1.56-3.26-4.64-4.88-3.46-9.2,1.88-6.89,13.17-2.71,14.65-12.04l.1-4.8c.59,2.61.94,4.77.15,7.4-1.7,5.67-9.39,6.14-11.41,11.05-2.54,6.18,3.55,8.37,3.28,13.54-.13,2.4-2.89,8.7-6.06,7.79ZM359.85,201.71c-.02-1.74-1.89-2.54-2.25-4.07-.96-4.15,2.19-8.66,5.04-11.37-.44,1.85-2.28,3.37-2.37,5.39-.1,2.22,1.45,2.75,1.81,4.3.59,2.54.09,4.5-2.23,5.75ZM237.7,204.05c.66-4.56-2.57-6.22-1.76-10.89.5-2.91,2.78-5.2,5.03-6.9-.05,2.29-2.56,5.5-1.81,7.67.29.85,1.77.49,1.35,1.45-.14.33-1.93,1.04-1.86,1.88.18,2,4.24-2.24,4.2.45-1.03.25-4.1,7.52-5.14,6.33ZM251.27,205.92c.75-1.45,3.63-2.52,4.11-4.07.14-.45.56-3.59.54-4.08-.08-1.55-1.93-3.22.49-4.48-1.3,2.4,1.26,4.85,1.39,6.81.2,2.82-3.46,6.69-6.54,5.82ZM229.28,216.23c3.42.04,3.45,4.38,1.38,6.29-4.82,4.44-11.3-6.76-6.77-10.98,1.84-1.71,5.92-1.16,7.02-3.74s-.66-5.19-1.62-7.48c2.99,2.11,4.99,8.76,1.64,11.24-2.22,1.64-9.54,2.4-5.4,7.72,2.58,3.32,6.04-.47,3.75-3.04ZM217.12,222.31c.07-.06,1.03-.19.92.29.79,1.49-.45,4.97-1.56,6.1s-4.45,2.18-5.41,3.72c-.89,1.41-.22,2.96-.75,4.4-2.02-2.13-.98-5.28.69-7.26.76-.9,1.92-1.28,2.6-2.08.81-.95,3.15-4.87,3.5-5.16Z"/>
          <path class="st0" d="M266.81,106.77c-.41.7-.18,2.23.6,2.7,12.86-4.46,26.38-7.24,40.02-7.94l-27.03,7.36-11.81,4.35c-.37,1.53,1.67.77,2.83,1.14,1.54.49,2.82,1.48,4.4,1.68,4.69.59,14.43-1.08,19.67-1.41,17.48-1.1,36.95-3.2,54.28-1.87,1.25.1,8.17,1.34,8.66.93l-4.28-23.81c-2.59.14-4.84-1.31-7.32-1.81-20.48-4.14-49.68,1.4-68.08,11.23-1.41.76-11.6,6.85-11.96,7.46Z"/>
          <path class="st0" d="M350.02,66.43c-.39,2.68,5.24,9.86,7.52,6.83,2.76-3.67-4.29-7.74-7.52-6.83Z"/>
          <path class="st0" d="M374.36,185.34c-.83,3.84.38,4.57,2.59,7.01.81.89.51,2.16,2.21.95,3.75-2.67-.99-8.51-4.8-7.96Z"/>
        </g>
      </g>
      <g>
        <path class="st0" d="M138.48,30.51c-.65,2.94-1.45,5.86-2.22,8.78-1.3,4.94-3.38,6.82-5.49,11.36-19.5,42.14-14.33,80.93-13.33,125.66,1.77,79.62,4.05,126.34,6.08,205.85.37,14.44.07,28.95.92,43.32,4.19-.89,8.46-.2,12.63.47-.14-19.11.19-38.25.03-57.37-.9-103.14-3.33-173.31-3.75-276.53-.07-17.64.95-33.2,5.74-50.4.13-.48.11-1.42.79-1.31.36,17.91-.85,35.7-1.4,53.59-2.64,85.36.76,138.21.96,223.62l.45,108.39c4.55-.06,9.09-.09,13.58.47.42-6.62.24-13.28.45-19.92,2.71-86.38,4.96-139.96,7.02-226.44.86-36.33,5.44-77.01-5.36-112.09-4.02-13.06-9.96-25.34-16.14-37.45h-.94Z"/>
        <g>
          <path class="st0" d="M92.24,427.46c-1.95,0-5.46.94-6.07,3.03-.31,1.06-.24,10.59.13,11.37.58,1.21,3.55,1.89,4.82,2.2,28.63,6.86,64.25,7.07,93.46,3.88,1.29-.14,7.47-.96,7.97-1.39.63-.55,2.95-6.8,3.02-7.79.05-.76-.44-4.63-.66-5.36-1-3.28-4.89-1.74-7.55-1.83-25.69-.85-51.45-1.78-77.21-2.8-5.91-.23-11.99-1.32-17.91-1.31Z"/>
          <path class="st0" d="M152.36,539.39c-9.01-8.33-26.45-4.3-27.46,8.94-.96,12.65,11.87,20.55,23.12,15.17,8.75-4.18,11.73-17.28,4.34-24.12Z"/>
          <path class="st0" d="M112.83,468.21c-.55-.03-1.04-.25-1.7-.14-5.07.8-5.25,15.61-1.82,16.79,1.81.62,9.03-.05,11.64.06,10.26.41,20.53,1.5,30.89,1.4,1.99-.02,2.76,1.06,4.88-.7,2.9-2.42,1.45-6.95-1.85-8.41-8.59-3.79-32.53-8.5-42.03-8.99Z"/>
          <path class="st0" d="M110.96,485.51c-1.76-.11-2.07-.25-2.98,1.43-2.1,3.86-.87,11.8,3.23,14.27,11.02-.06,22.15.61,33.13-.37,2.56-.23,10.09-.85,11.72-2.32,2.31-2.1,1.45-6.96-2.01-7.38-14.13-1.26-29.02-4.77-43.08-5.62Z"/>
          <path class="st0" d="M125.01,453.7c-2.45-.22-6.86-.47-9.19-.11-5.27.81-6.52,7.52-5.85,11.88.51,3.3,2.05,1.59,3.95,1.63,13.19.29,26.42,2.67,39.33,5.2,5.78-.81,4.53-6.83.54-9.46-6.79-4.49-20.67-8.4-28.78-9.13Z"/>
          <path class="st0" d="M110.43,501.8c-1.01,5.35,1.49,10.85,6.99,12.39,7.27,2.03,29.03.59,35.91-2.95,3.69-1.89,3.22-6.43-1.07-7.09-4.72-.72-12.91-.25-18.23-.49-7.91-.36-15.75-.76-23.61-1.85Z"/>
          <path class="st0" d="M161.89,453.56c.48,1.82,2.16,2.44,2.91,4.34.89,2.28.48,4.48.94,6.55.36,1.64,2.26,3.47,2.26,5.25,0,3.56-4.46,5.6-7.52,5.86,2.37,4.77,2.98,9.12-.9,13.27,1.69,1.04,1.42,4.41,3.17,2.33,1.46-1.74,3.18-4.74,4.48-6.75,6.76-10.48,12.8-21.45,18.99-32.26l-24.33,1.4Z"/>
          <path class="st0" d="M131.52,527.01l3.22.52c-.07.93-1.73.27-2.51.53-1.21.4-1.37,5.92.51,6.42,1.17.31,4.87-1.13,6.51-1.28,3.67-.34,6.52.51,9.99,1.34.65-2.62,1.7-5-.47-7.23l-14.96-4.7c.02-.77,12.36,2.54,15.15,1.58,1.41-.49.98-5.06.54-6.03-1.25-2.71-7.96-.7-10.31-.47-1.92.19-6.33-.47-7.72.7-.98.83.52,6.86.05,8.62Z"/>
          <path class="st0" d="M160.48,471.82c6.1-.78,3.14-3.15,2.1-6.55-1.16-3.79.13-5.96-3.09-9.08-1.37-1.33-3.84-3.47-4.18-.54-.69,5.86,2.81,4.43,4.46,8.69.94,2.42.71,4.94.71,7.48Z"/>
          <path class="st0" d="M136.62,452.16c-.24,1.4.37.74,1.1.98,2.03.69,4.15,1.08,6.16,1.82,1.2.44,7.08,3.19,7.49,3.16,1.13-.08,2.33-5.41.86-5.89l-15.6-.07Z"/>
        </g>
      </g>
    </g>
  </g>
</svg>