<?xml version="1.0" encoding="UTF-8"?>
<svg id="_图层_1" xmlns="http://www.w3.org/2000/svg" version="1.1" viewBox="0 0 199.15 1080">
  <!-- Generator: Adobe Illustrator 30.0.0, SVG Export Plug-In . SVG Version: 2.1.1 Build 123)  -->
  <defs>
    <style>
      .st0 {
        fill: #0655bc;
      }

      .st1 {
        fill: #eceae7;
      }
    </style>
  </defs>
  <g id="ZLEeVO">
    <g>
      <path class="st0" d="M93.06,512.79c-.02.33.34.47.42.8.37,1.51-2.16,1.63-2.21,1.8-.3,1.03,1.51,2.83,1.51,4.18,0,.43-.31,1.04-.26,1.38.15.96,1.05,1.06.78,2.76-.19,1.21-1.68,5.65-2.55,6.42-.67.59-1.33.1-1.71.23-.74.25-.85,1.98-2.48,1.36-.61-.24-.75-1.07-1.38-1.15-.18,1.95-.89,3.83-1.92,5.51,10.04,8.18,20.24,16.34,31.55,22.97,2.53,1.48,4.63,3.06,7.65,3.3.26.02.54.03.8-.01.32-1.11.68-2.25,1.18-3.3.38-.81,1.15-1.71,1.44-2.43.61-1.51.4-3.62,1.19-5.46.1-.23.28-.73.52-.84l-.74,5.32c.72-.41,1.59-1.66,2.31-1.96.18-.08.28.04.22.21-2.9,3.01-4.61,6.78-5.58,10.71-1.29,5.26-1.66,10.74-.8,16.09,2.29.18,4.26.84,6.23,1.91l2.99,2.02c-3.3-1.03-6.45-2.77-10.04-2.94-2.66-.13-6.23.77-8.27,2.38,5.16-.53,10.33,1.83,14.48,4.51,2.52,1.62,5.14,3.69,7.4,5.64.78.67,1.82,1.95,2.6,2.45.13.08.15.19.37.14,1.74-6.43,5.43-12.89,6.1-19.53.43-4.2-.65-7.73-.89-11.76-.16-2.72,1.41-5.58,2.04-8.3,2.08-9.05-.13-19.1-9.87-23.1-1.28-.52-2.71-.82-3.96-1.32-5.55-2.23-13.97-6.19-17.9-10.46-1.79-1.94-2.17-2.78-2.31-5.39-.05-.93.17-5.58-.07-5.95-.09-.14-.72-.47-.97-.77-.66-.83-.58-1.61-.35-2.56.05-.2.33-.61.33-.66,0-.06-.66-.46-.88-.83-.6-1.03-.46-1.84,0-2.87-.44.13-1.82-.21-2.01,0-.2.21-.66,1.95-.86,2.42-1.66,3.98-3.58,4.44-7.7,5.63-2.1.61-4.26,1.04-6.4,1.47ZM97.82,537.99c1.99.21,2.46-.49,3.13-2.03l1.78-4.83c-.34,1.78-1.04,6.5-3.26,6.94-.39.08-.73.07-1.13.06-.18,0-.55.1-.52-.14ZM102.88,537.98c3.32-3.35,8.82-2.12,13.15-2.68,2.35-.3,4.6-1.16,6.94-1.52l-2.45.98c-4.93,2.13-10.15.78-15.22,2.34-.84.26-1.57.68-2.42.88ZM90.53,534.63c2.63.3,5.52.94,6.99,3.22l-3.82-2.08-3.18-1.14Z"/>
      <path class="st0" d="M88,525.53c-.79.42-.44,1.35-.63,1.65s-1.07.58-1.27,1.53.19,2.53,1.39,2.15c.73-1.18,2.48-1.93,2.73-3.31.21-1.15.11-2.52.25-3.7-.11-.22-.27-.4-.46-.56-.79-.69-5.5-1.69-6.89-2.19-.19-.07-.44-.08-.48-.32.91.09,1.83.17,2.73.3,1.36.2,4.09.57,5.08,1.38,1.55,1.27.48,3.25.6,4.9.2-.13.25-.33.33-.53.27-.66,1.09-3.02,1.08-3.6,0-.75-1.63-3.97-2.42-4.3-1.37-.58-3.91-.47-5.41-.93l-4.67-.44c.88-.06,1.88-.25,2.75-.29,1.8-.07,7.06.06,8.33,1.28.25.24.33.68.68.83.04-.42-.14-.8-.31-1.17-.21-.45-1.74-3.07-1.98-3.31-.8-.79-3.31-.59-4.47-.55-2.17.08-4.37.44-6.54.56-.24.01-1.02.1-1.12-.14.93-.4,2.77-.44,3.57-.78.43-.18,1.77-2.06,1.94-2.59.89.29,1.99.59,2.92.68.4.04,1.43-.09,1.55-.05.36.13,1.74,1.66,2.72,2.05.77.31,2.48.59,2.56-.44l-3.81-3.99c-.44-.26-6.19-1.51-6.95-1.58-1.02-.1-1.25.32-1.9.94s-4.28,4.43-4.47,4.91c-.11.28.1.53.08.55-.04.03-.54,0-.89.22-.99.6-.79,1.91-.9,2.79-.86,6.66-.78,12.75-3.45,19.02-3.59,8.43-7.5,17.23-12.3,25.11-3.19,5.23-7.76,10.19-7.77,16.56-.45-.18.23-1.38-.44-1.26-.33,2.83-.45,5.9-.3,8.76.03.52.09,1.96.19,2.34.39,1.43,3.09,5.01,4.35,5.99,4.72,3.64,7.19.26,10.27-2.81,4.69-4.66,6.16-7.75,7.47-14.11s1.82-12.68,2.92-18.95,2.5-12.5,4.12-18.67c.09-.48-.95.05-1.03-.34,3.86-1.12,5.79-5.17,6.5-8.66.19-.92.52-2.57.35-3.45-.04-.2-.51.07-.46-.21.82-.21.92-1,.74-1.68.03-.04.83.42.97.42h2.16Z"/>
      <g>
        <path class="st0" d="M91.84,467.41c-.06.06-1.27.35-1.66.61-.33.21-.73.82-.79.83-.23.03-1.18-.47-1.66-.54-2.25-.31-4.46,1.1-4.05,3.39.04.24.29.36.3.56,0,.09-.3.05-.31.16-.06.41.19.74-.07,1.45-.32.89-1.41.64-1.55,1.76-.26,2.13,2.95,3.32,3.75,1.56.45-1-.2-.71-.71-1.22s-.67-1.06,0-1.55c.04.83,1.01,1.73,1.93,1.68.11,0,1.07-.39,1.1-.44.17-.27-.2-1.54.77-1.8-.75,1.68.8,3.88,2.76,3.23,1.2-.4,1.05-1.41,1.8-1.95,1.02-.72,2.15-.42,2.88.47l.82,1.75c.51-.42.89-1.17.56-1.79-.15-.29-.46-.21-.49-.45,1.62-.21,1.67,1.52.89,2.45-.23.27-.9.58-.9.84,1.12,2.41,4.93.84,4.23-1.58-.07-.24-.15-.46.17-.16.74,1.31.17,2.55-1.11,3.29.52.5,1.21.46,1.71,1.05.58.67.61,1.5.14,2.24-.09.36-1.01.47-.94.75.22.86,1.12,1.23,1.99,1.22.21,0,.78-.18.81-.15.14.13.51,1.47.63,1.72.24.47,2.99,1.47,3.54,1.31,1.34-.38.89-1.62,1.1-2.47.29-1.18,1.75-1.75,2.92-1.46.32.08.66.4,1,.46,1.2.22,1.37-.7,1.45-.67.76.3-.39,1.25-.96,1.35-1.08.19-2.03-1.13-3.21-.09-.86.76-.59,1.98.23,2.66-.51-.39-1.85.44-1.57.85.06.09,1.98.93,2.12.95.64.08,1.47-.39,2.32-.22,1,.2,1.77,1.3,2.79,1.23.03.29-.52.06-.6.14-.05.04-.02.95.07,1.12.05.1,1.67,1.07,1.82,1.09.9.14,2.01-1.12,2.1-1.9.04-.37-.22-.7-.05-1.01.82.61.68,2.14,0,2.81-.12.31-1.24.47-1.12.76.1.24,1.39,1.04,1.71,1.33s1.26,1.5,1.36,1.53c.94.28,2.3-.8,2.1-1.84-.08-.45-.37-.58-.56-.8.43-.05.96-.44,1.19-.77s.18-1.19.37-1.19c.43.01.33,1.4.22,1.68,2.39-.73,2.93-3.43,1.46-5.23-.23-.28-1-.8-1-.86s.25-.3.26-.55c.01-.38-.27-1.01-.13-1.48.65-.12.56,1.12.67,1.12,2.94-2.14,1.12-6.26-2.38-6.58l-.15.7c-1.06-.94-.47-2.03-1.12-3.08.37-.17.44.69.74.42.04-.03.27-.79.29-.92.31-2.38-1.27-4.42-3.82-4.64-.97.43-2.75-.67-2.38.84.33,1.4,3.18.69,3.39,2.48-.34-.22-.38-.5-.79-.73-.86-.48-2.18-.15-2.79-1.15-.45-.74.39-1.86-.74-1.9-.03-.29.52-.06.6-.14.21-.19-.11-1.77-.32-2.15-.82-1.47-2.68-2.02-4.36-1.76-1.23.18-.99.45-2.57.3-.42-.04-.94.3-1.24-.31,1.89.24.69-1.22-.08-1.82-.91-.71-1.93-.86-3.09-.67-.64.1-1.42.81-1.83.8-.24,0-.73-.61-1.29-.74-.61-.15-1.53-.19-2.1.08-.3.14-.46.5-.77.52-.51.03-1.58-.98-2.26-1.23-1.79-.67-4.08-.17-5.18,1.39-.25.35-.37,1.04-.41,1.09ZM91.87,468.55c.15-.2.55-.69.75-.77.32-.14.57.07.85-.03.25-.08.47-.43.73-.58,1.3-.72,2.31-.48,3.47.33-.44.14-.94-.27-1.46-.32-.78-.07-1.61.32-2.11.88.29.28.59.41.87.72.74.86.48,2.45,2.15,1.98.3-.08.73-.71,1.1-.93,1.45-.85,3.22-.28,3.98,1.11.65,1.19,0,2.12,1.35,3.07.2.14.54.04.53.27-.9.09-2.01-.49-2.2-1.36-.09-.43.02-.78-.15-1.26-.63-1.86-3.47-1.87-4.2-.04-.29.05-.07-.32-.16-.41-.06-.06-.98.02-1.25-.02-.34-.05-.6-.33-.97-.27l.07.7c-.34-.42-.2-.94-.37-1.48-.36-1.19-1.72-1.98-2.98-1.6ZM101.69,467.15c.57.11.77.64,1.41.71,1.08.11,2.44-1.22,3.05.41-.37,0-.55-.28-.96-.28-.75,0-1.17.62-2.2.4-.31-.07-1.5-1.05-1.3-1.23ZM85.47,471.77c.28-1.81,2.06-.22,2.97-.78.61-.38.24-1,.75-1.32,0,.89.67,1.15-.4,1.8-1.17.71-1.62-.03-2.5.03-.33.02-.5.31-.82.28ZM106.46,470.65c.61-.05.97-.24,1.57-.01.53.2.55.55.88.85.93.81,1.71.15,2.81.29,1.24.16,2.14,1.38,2.28,2.47.33,2.57-3.5,3.84-3.68.73.79.07.17.93.74,1.19,1.68.78,3.15-2.11,1.18-3.35-1.22-.77-2.09.05-3.07-.47-.62-.33-.73-1.06-1.33-1.41l-1.39-.3ZM105.12,474.71c.06-.71,1.28-.63,1.19-1.4.24-.06.12.32.39.4.43.14.79-.12,1.39.23,1.34.79,1.32,2.53.16,3.42-.25-1.03.88-1.85-.22-2.66-.9-.66-1.87.22-2.9,0ZM115.68,476.67c1.76-.51,3.71.34,3.87,2.17.11,1.21-.88,1.6.02,2.79.24.32.64.1.26.77-.46.28-1.33-.71-1.43-1.07-.28-1.02.42-1.38.42-2.21,0-1.09-.93-1.98-2.03-2.16-.37-.06-1.22.2-1.1-.29ZM109.28,479.05c1.43,1.68,1.85.06,3.19-.01,1.49-.08,3.04,1.19,3.07,2.6.02,1.22-1.05.9-.91,2.03-1.04-.53-.19-.68-.03-1.36.3-1.32-.78-2.76-2.26-2.55-.81.11-.66.66-.86.8-.16.11-1.29.23-1.51.15-.16-.05-.73-1.4-.69-1.66ZM104.82,484.09s.42-.06.72-.37c1.12-1.14.43-2.79-.72-3.62l.29-.35c.95,1.2,1.79,2.04,3.42,2.31.18.06.2.42.15.49-.06.08-1.7-.55-1.93-.7.31.96-.64,2.48-1.71,2.52-.25,0-.38-.14-.22-.28ZM122.68,480.87c.24-.27.26.12.31.2.69,1.1.73.66,1.67,1.22s1.16,1.38.84,2.36c-.26-.07-.12-.54-.23-.83-.46-1.24-2.33-1.22-2.68-1.97-.07-.14.05-.94.08-.97ZM121.04,482.55c.65-.43,1.77,1.76,1.04,2.87-.13.2-1.26,1.37-1.49,1.18.41-.98,1.17-1.49.82-2.66-.09-.3-.85-1.08-.37-1.39ZM116.28,485.35c1.43-.4,2.98,1.06,2.68,2.45-.08.36-.6.55-.45,1.05-.92-.87-1.81-1.29-3.12-.91-.48.14-.79.58-1.34.35,1.12-1.51,2.75-1.1,4.31-.56.08-.88-.23-1.48-1.09-1.85-.16-.07-1.31-.22-1-.53ZM123.57,491.93c1.2-.97,1.38-2.66.07-3.64-.66-.49-1.7-.48-1.71-1.54.6.89,1.63.65,2.45,1.26,1.52,1.13,1.32,3.64-.82,3.92Z"/>
        <path class="st0" d="M85.02,503.69l-1.83.86c-1.27.63.08,1.48.15,2.16.02.18-.19.67-.11.75.04.04.97.12,1.22.18,1.21.29,3.61.67,4.59,1.14s2.12,2.31,2.97,3.09c.43.25,3.23-.5,3.9-.67,1.97-.48,6.63-1.66,8.14-2.7,1.75-1.2,2.71-4.62,3.36-6.5l1.64.43c.46,0,1.08-.22,1.46-.45.43-.26,2.29-1.89,2.62-2.29.17-.2,1.03-1.47.9-1.61-.57.06-2.57-.9-2.89-.83-.37.09-.32,1.01-.4,1.09-.03.03-.6.07-.81.15-.37.14-1.37.87-1.26-.06.04-.32,1.29-.76.68-1.62-.16-.22-4.77-1.37-5.41-1.49-3.32-.62-6.71-.54-10.06-.9-3.66-.39-7.22-1.39-10.88-1.8-.57.09-1.09,1.56-1.39,2.05-.36.59-1.99,2.88-1.96,3.33.09,1.41,3.06,1.21,3.35,1.76.67,1.25-1.66,2.4-.38,3.58.5.46,1.7.19,2.39.35Z"/>
        <path class="st0" d="M82.81,488.56c.1.07,1.9-.58,2.33-.65,2.12-.36,4.77,0,6.86.48.24.05.84.1.92.32-1.95-.14-3.92-.4-5.88-.28-.88.05-3.62.42-4.23.92-.06.05-.87,1.06-.96,1.2-.37.53-.6,1.17-.53,1.81l5.74-1.67c2.64-.26,5.31-.18,7.95-.01.03.24-.34.13-.52.14-3.12.12-6.28.16-9.3.98l.15.21c2.75.52,5.49,1.15,8.28,1.45,2.12.23,4.26.23,6.38.44,5,.49,9.78,1.98,14.51,3.5l-.31-.48c-3.65-1.87-6.72-4.57-10.85-5.54-.04-.23.2-.14.35-.13.87.1,2.16.54,3.03.79,1.77.51,3.49,1.16,5.24,1.72.04.25-.32.13-.48.1-.6-.09-1.2-.39-1.82-.39-.29,0-.24.01-.22.28l10.53,5.71c.68.19.43-.19.67-.56.52-.83.87-.92.27-2-1.57-2.78-10.49-6.74-13.7-7.97-6.01-2.32-17.12-5.8-23.36-3.92-1.01.3-1.42.31-1.6,1.43-.08.52.14,1.83.58,2.12Z"/>
        <path class="st0" d="M88.58,476.41c-.33.09-1.81.25-1.93.32-.14.09-.21,1.71-1.14,1.8l-1.53,5.42c2.58-.73,5.01-.59,7.64-.26,4.27.54,8.38,1.81,12.45,3.06.1-1-.06-.59-.78-.74-1.86-.38-3.28-1.41-2.49-3.32.28-.02.1.65.52.56.34-.08.58-1.04.46-1.41-.32-.94-1.21-.82-1.88-1.04-.3-.1-.5-.43-.69-.48-.43-.1-.78.28-1.59-.18s-.62-1.33-.83-1.46c-.18-.11-.63-.04-.91-.12-.58-.18-.82-.8-.73-1.34.24-.02.18.31.36.43,1.13.79,1.34-1.1.23-1.76-1.91-1.13-2,.88-3.05,1.6-1.47,1.02-3.49.5-4.11-1.1Z"/>
        <path class="st0" d="M114.8,498.52c.2,1.1-1.97,2.43-2.16,2.93-.07.17.13.51.07.57-.05.05-.71,0-1.27.56-1.11,1.12-1.56,2.96.12,3.81.81.41,1.49.41,2.04-.31.28,1.17-1.78,1.02-1.86,1.11-.88,1.12-.24,3.29,1.26,3.59.91.18.46-.44.36-.91-.03-.14-.19-.46.08-.43.16.45,1,1.37.3,1.75-.44.23-1.14-.17-.89,1.11.05.26.46.65.69.76,1.49.71,3.18-.74,2.82-2.23-.09-.36-.72-1.34-1.13-.97-.09.08.19.82-.15.84-.35-2.59,2.32-1.14,3.63-2.81.8-1.02.62-1.81.12-2.89-.09-.19-.36-.35-.4-.45-.06-.17.1-.41.06-.62-.05-.26-.26-.58-.27-.75,0-.31.48-.42.57-.82.09-.43-.08-.78-.14-1.19,1.25.92-.09,1.75.3,2.8,1.54-.28,2.07-1.84,1.22-3.04-.74-1.06-2.41-1.4-3.61-1.86-.33,1.06.85,1.38,1.09,2.12.54,1.64-1.16,3.19-2.88,2.64l1.72-.83c.52-.51.7-1.42.4-2.07-.13-.28-.55-.47-.61-.7-.1-.33.3-1,.11-1.28-.05-.07-1.48-.53-1.61-.43Z"/>
        <path class="st0" d="M81.72,482.3c.21.35-.23,1.36.88,1.63.73.18.61-1.63.74-2.07.27-.94.9-2,1.09-3.01-1.85-.25-2.92-1.44-2.68-3.23.19-1.41,1.43-1.14,1.61-1.7.39-1.21-.46-1.33-1.5-1.13-2.62.5-2.55,4.24-.58,5.52-.69,1.15-1.57,2.12-.49,3.4.23.27.9.54.93.59Z"/>
      </g>
      <g>
        <path class="st0" d="M67.54,596.08c.69-.06,1.88-.34,2.57-.52,1.07-.28,2.83-1.25,3.63-1.35s1.96.5,2.84.36c12.49,4.03,24.45,10.2,37.76,11.59-2.25-6.7-4.25-14.2-9.53-19.39-5.79-.18-11.57-.66-17.31-1.35-3.15-.38-6.58-1.14-9.7-1.38-.91-.07-1.9.08-2.81-.02-1.23-.13-2.39-.81-3.57-1.11-1.07,2.72-2.52,5.3-4.56,7.5-.49.52-1.88,1.58-2.14,2.04-.49.88-.61,2.65-1.13,3.63,1.27-.08,2.69.11,3.94,0Z"/>
        <path class="st0" d="M79.82,539.53c0,1.39-.95,3.15-1.04,4.43-.03.48,3.05,5.88,3.55,6.86,3.98,7.84,7.75,15.78,12.82,23.08,2.85,4.11,4.23,5.69,8.47,8.55,1.39.94,2.32,2.07,4.15,2.13.29,0,1.77-.73,2.65-.79.53-.04,1.68.14,1.89.1.1-.02,1.1-.89,1.4-1.07.61-.38,1.37-.63,1.94-.97.12-.07.41-.1.19-.31-.09-.09-2.11-.61-2.53-.77-8.15-3.17-15.57-10.95-20.51-17.66-.24-.33-.49-.67-.71-1.01-.08-.12-.37-.3-.13-.43,5.99,6.83,12.38,13.52,20.66,17.94.85.46,3.48,1.87,4.3,1.77.76-.1,1.68-.57,2.59-.66.76-.07,1.53.02,2.29-.02l-.36-6.59c-.11-.15-2.75-.91-3.21-1.05-3.58-1.1-5.68-2.15-8.77-4.21-7.76-5.16-14.92-12.6-21-19.45-2.64-2.98-5.41-6.97-8.19-9.65-.14-.14-.19-.27-.44-.21Z"/>
        <path class="st0" d="M121.49,573.26c-.02-2.41.34-4.81.79-7.17.08-.42.7-2.44.68-2.57-.01-.06-.08-.1-.12-.14-8.69-.73-17-4-23.97-8.82-.02-.11.14-.09.22-.07.56.16,1.82,1.02,2.46,1.33,4.21,2.08,9.65,4.34,14.28,5.32.11.02.59.19.38-.08-12.08-6.84-22.91-15.41-33.49-24.08-.28,0-1.89,1.96-2.45,2.17,8.01,7.97,14.91,16.91,23.66,24.22,4.99,4.17,10.96,8.45,17.56,9.87Z"/>
        <path class="st0" d="M84.28,615.4c-.78-1.73-1.93-3.3-2.81-4.99-2.39-4.61-4.22-9.68-5.55-14.66-1.95-1.22-3.48.29-5.33.82-1.45.42-2.96.52-4.46.63-.35,3.66-.91,7.32-1.19,10.99-.18,2.4-.27,4.81-.3,7.21h19.64Z"/>
        <path class="st0" d="M103.78,584.46c-.4-.12-.58-.25-.89-.49-3.62-2.71-7.27-7.46-9.73-11.14-5.7-8.52-9.91-17.83-14.34-26.96l-.48-.32c-.16,2.52-1.41,5.3-1.62,7.79-.17,1.96,2.16,7.53,3.04,9.57,3.09,7.16,7.41,13.76,12.94,19.46.42.43,2.45,2.59,2.76,2.72.23.1.96.18,1.26.21,1.84.2,3.81.16,5.66.36.36-.36,1.41-.69,1.41-1.2.62.18.85.02,1.49,0l-.03-.39-3.39-1.98c.08.75,1.93,1.84,1.93,2.38Z"/>
        <path class="st0" d="M140.54,615.4c-1.55-4.58-5.15-8.12-8.1-11.91-4.4-5.65-11.45-16.47-18.87-18.36-1.14-.29-2.84-.58-3.95-.14-.62.25.26.42.51.57,8.42,5.02,11.71,14.77,16.24,22.66,1.4,2.45,3.05,4.76,4.49,7.19h9.67Z"/>
        <path class="st0" d="M130.12,615.4c-6.4-7.32-8.97-17.07-15.12-24.48-2.13-2.57-5.15-5.62-8.91-5.62-.17,0-1.99.14-1.56.57,2.42.92,4.17,3.8,5.38,5.93,4.11,7.23,5.82,15.91,8.75,23.61h11.46Z"/>
        <path class="st0" d="M114.79,615.4l-4.86-2.22c-4.95-2.7-9.17-6.35-13.16-10.16l-12.71-4.56-.22.07c4.36,5.85,8.96,11.57,14.06,16.87h16.89Z"/>
        <path class="st0" d="M114.94,584.6c.46.54,1.37.74,2.03,1.09,6.72,3.62,10.55,9.75,15.02,15.41,2.2,2.79,4.52,5.51,6.75,8.27.11-.55.48-1.35.83-1.81.84-1.11,2.36-1.43,2.31-3.16-.1-3.7-6.66-9.31-9.53-11.62-4.92-3.96-10.66-7.98-17.41-8.19Z"/>
        <path class="st0" d="M96.48,615.4c.06-.24-.11-.28-.22-.42-.42-.52-1.15-1.03-1.64-1.54-4.35-4.53-8.21-9.79-11.23-15.2l-6.85-2.58c2.43,6.78,5.15,13.55,9,19.74h10.94Z"/>
        <path class="st0" d="M57.94,615.4h5.66c-.13-6.08.66-12.13,1.64-18.13-.01-.1-1.94-.18-2.16.07-.17.19-.56,1.37-.79,1.77-.8,1.44-1.88,2.94-3.15,4.04-.46.4-2.23,1.45-2.35,1.85.17,3.49.63,6.95,1.16,10.4Z"/>
        <path class="st0" d="M76.1,556.46c.13,1.13-.75,3.08-.57,4.09.3,1.71,2.09,5.47,2.84,7.28,2.25,5.46,4.72,10.89,7.63,16.06.25.34.79.33,1.21.4,2.5.45,5.27.43,7.79.86.06-.23-.08-.29-.22-.42-.92-.94-2.48-1.92-3.5-2.86-6-5.52-10.52-13.22-13.35-20.62-.58-1.5-.95-3.14-1.51-4.6-.08-.19.05-.24-.31-.2Z"/>
        <path class="st0" d="M75.35,561.08c-.11,1.46-.65,3.15-.69,4.57-.03.83.16,2.16.24,3.05.44,4.75,1.4,9.63,2.51,14.27l7.31.92c-.7-1.44-1.55-2.81-2.26-4.24-3.08-6.21-4.73-11.88-6.82-18.37-.06-.2.09-.25-.3-.21Z"/>
        <path class="st0" d="M49.9,590.9c.57,4.81,1.28,10.07,2.94,14.67.08.22.31,1.26.63,1.01.07-.05.6-.92.89-1.19,1.58-1.51,3.61-2.55,5.14-4.26,1.8-2.01,2.64-4.59,3.64-7l-2.18,1.65c-4.8,2.37-8.4-.91-10.69-4.6-.11-.18.03-.35-.37-.28Z"/>
        <path class="st0" d="M99.31,603.92l1.63,1.61c3.59,2.92,7.28,5.79,11.42,8.02,1.52.81,3.34,1.93,5.1,1.85l-2.78-8.13c-5.27-.45-10.38-1.78-15.38-3.35Z"/>
        <path class="st0" d="M71.78,581.94c.71.16,4.45,1.87,4.75.9.06-.2-.97-3.38-1.11-3.97-.63-2.77-.93-5.59-1.27-8.4l-2.38,11.48Z"/>
        <g>
          <path class="st0" d="M46.48,558.42c.26.06.3-.1.45-.21,3.28-2.38,5.88-3.94,10.21-4.25.59-.04,3.68.1,3.86-.15.46-.62-1.23-3.53-1.72-4.14-.28-.35-.73-.64-1.04-.98.11-.22.71.33.59-.13-.23-.88-1.02-1.83-1.04-2.81l3.87,6.37c.14.1,1.12-1.77,1.16-1.93.05-.23-.82-3.08-.94-3.67-.49-2.45-.77-5.29-.52-7.77.09-.85.71-2.79.68-3.36-.01-.25-.32-.63-.37-.99-.07-.48.1-1.27-.04-1.64-.09-.24-1.61-.81-1.98-.94-8.59-2.87-12.89,7.97-13.32,14.21-.22,3.16.37,6.05.45,9.09.03,1.11-.18,2.2-.3,3.3Z"/>
          <path class="st0" d="M56.6,615.4c-5.17-7.1-7.05-16.23-7.89-24.71-.86-8.76-1.07-15.52,3.96-23.15.08-.12.37-.31.13-.44-6.02,3.84-7.98,10.94-8.56,17.43-.53,5.99-.58,13.2.15,19.18.48,3.95,1.51,8.25,3.64,11.69h8.56Z"/>
          <path class="st0" d="M42.76,596.78c.21.21.27-.01.3-.21.07-.53.02-1.4,0-1.97-.34-10.25.03-23.1,10.72-28.83l1.63-2.46c-4.64,1.42-9.97,4.06-12.77,7.93-5.48,7.58-1.93,17.42.12,25.52Z"/>
          <path class="st0" d="M40.82,572.56c2.13-4.73,7.44-7.63,12.32-9.48.62-.24,2.78-.78,3.1-1.01.56-.39,1.24-2.34,1.85-2.88,0-.25-1.05-.07-1.24-.05-3.47.33-10.94,1.97-13.41,4.32-1.75,1.67-2.79,5.05-2.91,7.34-.03.49-.16,1.5.3,1.76Z"/>
          <path class="st0" d="M45.73,560.94c1.43-.41,2.77-1.03,4.2-1.44,2.71-.76,5.67-1.23,8.5-1.25.19-.06,2.03-3.21,1.88-3.34-5.57-.38-11.3,1.72-14.58,6.02Z"/>
          <path class="st0" d="M69.35,535.7c.43-.41,1.39-2.56,1.37-3.11-.02-.47-.71-1.55-1.1-1.88-2.66-2.26-7.4-.31-7.08,3.16.28,2.93,4.87,3.7,6.8,1.83ZM67.2,531.02c3.56.56,1.64,5.51-1.82,4.23-2.71-.99-1.09-4.7,1.82-4.23Z"/>
          <path class="st0" d="M62.4,536.03c-.34,3.8-.16,7.49.64,11.22.1.47.13,1.24.55,1.51.16-1.13,1.38-2.49,1.5-3.57.12-1.14-.53-3.19-.61-4.48-.04-.66-.02-1.45,0-2.11.02-.45.36-1.02,0-1.4l-2.08-1.19Z"/>
          <path class="st0" d="M56.45,530.43c1.72-.18,2.92.2,4.36,1.01.25.14,1.01.76,1.14.67-.1-.48,1.25-1.68,1.19-1.88l-1.34-.91c.85-.18,1.31,1.06,2.02.57.57-.4-.73-1.24-1.14-1.46-1.42-.77-2.25-.83-3.71-.16-.37.17-3.01,1.73-2.53,2.17Z"/>
          <path class="st0" d="M62.4,527.48c.97.31,1.85.98,2.33,1.83,1.8-.55,3.73-.4,5.26.69-.09-1.84-2.99-4.02-4.84-4.06-.86-.02-2.6.63-2.75,1.54Z"/>
          <path class="st0" d="M64.93,537.42c.21,1.89.34,4.09.76,5.94.04.17.07.33.28.36.18-1.34,1.61-3.05,1.76-4.31.07-.61-.4-1.34-.27-1.99-.9.22-1.63.05-2.53,0Z"/>
          <path class="st0" d="M68.21,526.09c-.22.29.98.85,1.2,1.04.61.55,1.1,1.51,1.3,2.28.1.38-.11,1.09.33,1.3,0-.77.85-4.77.58-5.16-.07-.1-.95-.25-1.18-.24-.78.06-1.49.6-2.22.78Z"/>
          <path class="st0" d="M67.2,531.44c-3.01-.52-3.71,3.07-1.12,3.58s3.58-3.15,1.12-3.58Z"/>
        </g>
      </g>
    </g>
  </g>
  <g>
    <polygon class="st1" points="167.47 8.35 175.88 16.71 174.95 21.63 184.67 33.73 193.92 54.07 178.01 64.88 163.87 67.6 153.71 68.14 153.71 74.7 153.71 427.83 153.71 430.26 157.03 441.61 161.6 443.93 161.6 448.41 38.78 452.83 37.06 443.93 46.22 432.02 46.14 417.33 46.14 62.84 33.17 67.19 10.05 60.12 8.69 42.71 16.44 27.48 24.47 22.44 23.73 16.67 29.97 9.34 167.47 8.35"/>
    <g id="zpTJVo">
      <path class="st0" d="M22.03,0h155.98l-2.13,16.71-3.78-.62H29s-5.27.59-5.27.59c-.65-1.54-.44-3.38-.68-4.94-.4-2.58-1.13-5.4-1.45-7.96-.1-.8-.52-3.47.42-3.77ZM9.53,26.53c5.83-5.83,12.59-7.66,20.69-8.02,31.93-1.41,64.65,1.64,96.61.02,14.64.75,30.04-.88,44.66-.02,19.21,1.13,33.43,23.29,25.31,41.14-6.45,14.17-22.26,20.8-36.83,14.43-9.38-4.1-15.92-17.62-12.27-27.38,1.04-2.78,5.72-10.19,8.27-11.47,7.4-3.74,14.59-3.96,21.52.98,10.66,7.59,6.16,26.5-8.12,24.83-4.4-.52-6.97-3.02-7.43-7.46-.13-1.29.55-4.83-1.09-4.96-2.31-.17-1.26,6.1-.86,7.52,1.2,4.32,4.8,6.72,9.13,7.27,17.29,2.19,22.71-21.81,8.23-30.1-8.01-4.59-14.81-4.01-22.87-.18-35.95-.08-71.91.06-107.86-.03-.67,0-1.31.28-1.82.27-1.41-.03-6.28-3.33-10.02-3.59-13.25-.94-24.37,9.11-21.09,22.91,2.62,10.99,21.28,14.52,25.64,3.2.56-1.45,1.8-8.88-1.07-7.14-.73.44-.69,4.5-1.12,5.87-2.74,8.82-17.12,6.57-20.29-.25-7.14-15.38,11.7-27.04,23.93-20.29,18.68,10.31,12.59,38.68-8.78,41.83C2.09,80.32-10.07,46.15,9.53,26.53ZM125.46,35.54h26.43c-2.95,4.11-6.43,8.53-7.52,13.59-.19.88.24,1.93-.53,2.51h-18.38v-16.1ZM100.85,35.54h22.17v16.1h-22.17v-16.1ZM76.55,35.54h22.17v16.1h-22.17v-16.1ZM47.09,35.54h26.58s.46.42.46.46v15.19s-.42.46-.46.46h-19.29c-.33-4.38-1.88-8.6-4.36-12.19l-2.93-3.91ZM133.96,54.07h10.33c-.1,2.78,1,5.83,2.08,8.4.93,2.22,2.57,5.3,4.05,7.19.55.7,3.29,3.21,3.29,3.7v354.47h-19.74V54.07ZM131.55,54.07v373.76h-19.46V54.07h19.46ZM109.66,54.07v373.76h-19.46V54.07h19.46ZM87.79,54.07v373.76h-19.44V54.07h19.44ZM54.38,54.07h11.09l.46,373.76h-19.74c0-1-.03-1.24-.03-2.28,0-26-.24-314.04.03-340.04.05-4.49.58-9.12.31-13.67,3.82-4.02,6.32-8.62,7.52-14.05.13-.57.25-3.59.37-3.73ZM37.06,430.26h124.54v13.67H37.06v-13.67ZM28.86,446.36h141.25v18.24H28.86v-18.24Z"/>
    </g>
  </g>
  <g>
    <polygon class="st1" points="167.47 623.76 175.88 632.11 174.95 637.03 184.67 649.14 193.92 669.47 178.01 680.28 163.87 683 153.71 683.54 153.71 690.11 153.71 1043.23 153.71 1045.66 157.03 1057.01 161.6 1059.33 161.6 1063.81 38.78 1068.23 37.06 1059.33 46.22 1047.42 46.14 1032.73 46.14 678.24 33.17 682.59 10.05 675.52 8.69 658.11 16.44 642.88 24.47 637.85 23.73 632.08 29.97 624.74 167.47 623.76"/>
    <g id="zpTJVo1" data-name="zpTJVo">
      <path class="st0" d="M22.03,615.4h155.98l-2.13,16.71-3.78-.62H29s-5.27.59-5.27.59c-.65-1.54-.44-3.38-.68-4.94-.4-2.58-1.13-5.4-1.45-7.96-.1-.8-.52-3.47.42-3.77ZM9.53,641.94c5.83-5.83,12.59-7.66,20.69-8.02,31.93-1.41,64.65,1.64,96.61.02,14.64.75,30.04-.88,44.66-.02,19.21,1.13,33.43,23.29,25.31,41.14-6.45,14.17-22.26,20.8-36.83,14.43-9.38-4.1-15.92-17.62-12.27-27.38,1.04-2.78,5.72-10.19,8.27-11.47,7.4-3.74,14.59-3.96,21.52.98,10.66,7.59,6.16,26.5-8.12,24.83-4.4-.52-6.97-3.02-7.43-7.46-.13-1.29.55-4.83-1.09-4.96-2.31-.17-1.26,6.1-.86,7.52,1.2,4.32,4.8,6.72,9.13,7.27,17.29,2.19,22.71-21.81,8.23-30.1-8.01-4.59-14.81-4.01-22.87-.18-35.95-.08-71.91.06-107.86-.03-.67,0-1.31.28-1.82.27-1.41-.03-6.28-3.33-10.02-3.59-13.25-.94-24.37,9.11-21.09,22.91,2.62,10.99,21.28,14.52,25.64,3.2.56-1.45,1.8-8.88-1.07-7.14-.73.44-.69,4.5-1.12,5.87-2.74,8.82-17.12,6.57-20.29-.25-7.14-15.38,11.7-27.04,23.93-20.29,18.68,10.31,12.59,38.68-8.78,41.83-29.93,4.42-42.09-29.76-22.49-49.38ZM125.46,650.94h26.43c-2.95,4.11-6.43,8.53-7.52,13.59-.19.88.24,1.93-.53,2.51h-18.38v-16.1ZM100.85,650.94h22.17v16.1h-22.17v-16.1ZM76.55,650.94h22.17v16.1h-22.17v-16.1ZM47.09,650.94h26.58s.46.42.46.46v15.19s-.42.46-.46.46h-19.29c-.33-4.38-1.88-8.6-4.36-12.19l-2.93-3.91ZM133.96,669.47h10.33c-.1,2.78,1,5.83,2.08,8.4.93,2.22,2.57,5.3,4.05,7.19.55.7,3.29,3.21,3.29,3.7v354.47h-19.74v-373.76ZM131.55,669.47v373.76h-19.46v-373.76h19.46ZM109.66,669.47v373.76h-19.46v-373.76h19.46ZM87.79,669.47v373.76h-19.44v-373.76h19.44ZM54.38,669.47h11.09l.46,373.76h-19.74c0-1-.03-1.24-.03-2.28,0-26-.24-314.04.03-340.04.05-4.49.58-9.12.31-13.67,3.82-4.02,6.32-8.62,7.52-14.05.13-.57.25-3.59.37-3.73ZM37.06,1045.66h124.54v13.67H37.06v-13.67ZM28.86,1061.76h141.25v18.24H28.86v-18.24Z"/>
    </g>
  </g>
</svg>