<?xml version="1.0" encoding="UTF-8"?>
<svg id="_图层_1" xmlns="http://www.w3.org/2000/svg" version="1.1" viewBox="0 0 604 593">
  <!-- Generator: Adobe Illustrator 30.0.0, SVG Export Plug-In . SVG Version: 2.1.1 Build 123)  -->
  <defs>
    <style>
      .st0 {
        fill: #0655bc;
      }
    </style>
  </defs>
  <g id="ZLEeVO">
    <g>
      <path class="st0" d="M301.44,198.16c-.06,1.21,1.22,1.7,1.5,2.89,1.33,5.47-7.8,5.9-7.99,6.52-1.1,3.7,5.45,10.23,5.44,15.11,0,1.56-1.13,3.77-.94,4.97.53,3.48,3.78,3.81,2.81,9.97-.69,4.37-6.05,20.42-9.2,23.19-2.41,2.13-4.79.35-6.17.82-2.67.91-3.08,7.16-8.97,4.9-2.22-.85-2.69-3.86-4.97-4.16-.65,7.05-3.21,13.83-6.93,19.89,36.27,29.55,73.08,59,113.92,82.93,9.13,5.35,16.72,11.06,27.64,11.91.95.07,1.95.1,2.89-.05,1.16-4.01,2.46-8.11,4.26-11.91,1.39-2.93,4.15-6.18,5.19-8.76,2.21-5.46,1.43-13.06,4.31-19.7.36-.84,1.03-2.63,1.87-3.04l-2.68,19.21c2.59-1.46,5.75-6.01,8.33-7.07.67-.27,1.01.14.79.75-10.49,10.88-16.66,24.48-20.15,38.67-4.67,18.98-5.98,38.8-2.9,58.1,8.25.65,15.39,3.02,22.48,6.91l10.79,7.28c-11.92-3.71-23.3-10.01-36.25-10.63-9.6-.46-22.5,2.76-29.85,8.61,18.65-1.91,37.32,6.62,52.3,16.27,9.1,5.87,18.58,13.34,26.71,20.37,2.81,2.43,6.57,7.03,9.39,8.86.46.3.53.7,1.35.5,6.29-23.21,19.6-46.54,22.03-70.53,1.54-15.16-2.36-27.9-3.21-42.46-.57-9.83,5.1-20.16,7.35-29.98,7.51-32.68-.46-68.99-35.65-83.43-4.62-1.9-9.77-2.94-14.29-4.76-20.04-8.05-50.43-22.35-64.64-37.77-6.45-7-7.82-10.04-8.34-19.45-.19-3.36.62-20.15-.25-21.5-.32-.5-2.61-1.68-3.49-2.79-2.37-3.01-2.1-5.81-1.25-9.25.17-.71,1.19-2.19,1.17-2.38-.02-.21-2.39-1.68-3.17-3.01-2.17-3.72-1.68-6.64.01-10.38-1.58.46-6.57-.74-7.25-.03-.74.77-2.38,7.04-3.09,8.75-6.01,14.38-12.91,16.04-27.81,20.35-7.57,2.19-15.37,3.76-23.11,5.31ZM318.64,289.16c7.19.75,8.88-1.79,11.29-7.33l6.44-17.45c-1.24,6.41-3.75,23.46-11.79,25.05-1.4.28-2.65.27-4.07.22-.65-.02-2,.38-1.87-.5ZM336.91,289.15c11.99-12.09,31.86-7.66,47.49-9.67,8.49-1.09,16.62-4.2,25.06-5.49l-8.86,3.54c-17.8,7.71-36.64,2.82-54.97,8.45-3.02.93-5.65,2.45-8.73,3.16ZM292.31,277.02c9.49,1.08,19.95,3.39,25.26,11.62l-13.78-7.51-11.48-4.11Z"/>
      <path class="st0" d="M283.17,244.16c-2.86,1.52-1.6,4.87-2.26,5.96-.67,1.11-3.85,2.1-4.6,5.52-.72,3.26.69,9.13,5.01,7.77,2.64-4.27,8.95-6.97,9.87-11.96.77-4.17.41-9.11.9-13.37-.39-.79-.98-1.44-1.64-2.03-2.84-2.49-19.86-6.12-24.9-7.92-.68-.24-1.58-.3-1.73-1.15,3.28.31,6.6.61,9.85,1.09,4.91.72,14.79,2.06,18.35,4.98,5.6,4.6,1.72,11.73,2.16,17.68.72-.48.9-1.18,1.2-1.9.98-2.37,3.92-10.89,3.91-13.01-.01-2.71-5.9-14.33-8.75-15.53-4.94-2.08-14.11-1.69-19.54-3.36l-16.86-1.58c3.17-.2,6.8-.92,9.92-1.04,6.5-.25,25.51.22,30.07,4.62.9.87,1.2,2.45,2.46,2.98.13-1.53-.5-2.89-1.14-4.23-.77-1.62-6.27-11.08-7.16-11.97-2.89-2.86-11.95-2.15-16.14-1.99-7.85.29-15.79,1.6-23.63,2.04-.86.05-3.68.38-4.05-.52,3.34-1.44,9.99-1.59,12.88-2.8,1.54-.64,6.39-7.43,7.01-9.34,3.2,1.06,7.17,2.12,10.53,2.47,1.46.15,5.15-.33,5.61-.16,1.29.46,6.3,6,9.82,7.39,2.79,1.1,8.97,2.12,9.25-1.59l-13.75-14.4c-1.59-.93-22.34-5.44-25.11-5.71-3.69-.37-4.52,1.16-6.85,3.41-2.34,2.26-15.46,15.99-16.13,17.74-.39,1.02.37,1.92.29,1.98-.13.1-1.95.02-3.21.78-3.58,2.15-2.84,6.89-3.25,10.09-3.09,24.06-2.81,46.03-12.45,68.67-12.97,30.44-27.1,62.23-44.42,90.66-11.52,18.9-28.03,36.81-28.04,59.81-1.62-.66.84-4.98-1.6-4.55-1.19,10.24-1.61,21.29-1.1,31.62.09,1.88.32,7.08.69,8.45,1.4,5.17,11.14,18.09,15.71,21.62,17.04,13.15,25.95.93,37.08-10.14,16.93-16.83,22.23-27.97,26.99-50.95,4.64-22.43,6.58-45.8,10.54-68.44,3.95-22.64,9.01-45.16,14.87-67.41.33-1.74-3.44.17-3.74-1.23,13.95-4.05,20.91-18.68,23.47-31.26.68-3.32,1.89-9.28,1.28-12.45-.14-.71-1.83.25-1.64-.78,2.95-.74,3.34-3.61,2.69-6.07.11-.15,2.99,1.52,3.49,1.52h7.79Z"/>
      <g>
        <path class="st0" d="M297.05,34.28c-.21.23-4.58,1.28-6,2.2-1.19.77-2.64,2.96-2.85,2.99-.83.12-4.25-1.69-5.98-1.93-8.14-1.12-16.12,3.98-14.62,12.24.15.85,1.07,1.31,1.08,2.03,0,.31-1.08.2-1.13.56-.21,1.49.69,2.67-.25,5.25-1.17,3.22-5.11,2.31-5.61,6.37-.95,7.69,10.67,11.98,13.55,5.64,1.63-3.59-.72-2.58-2.57-4.4-1.94-1.9-2.42-3.84.03-5.58.14,3,3.66,6.26,6.95,6.05.42-.03,3.86-1.41,3.98-1.58.63-.96-.71-5.56,2.77-6.49-2.72,6.06,2.9,14,9.98,11.65,4.34-1.44,3.78-5.09,6.5-7.03,3.67-2.61,7.75-1.53,10.41,1.69l2.94,6.32c1.83-1.53,3.22-4.23,2.04-6.46-.55-1.03-1.65-.76-1.76-1.62,5.85-.77,6.04,5.5,3.22,8.84-.82.97-3.24,2.11-3.24,3.02,4.06,8.7,17.82,3.05,15.26-5.72-.25-.86-.54-1.65.62-.59,2.68,4.74.62,9.2-4.03,11.88,1.86,1.81,4.36,1.68,6.19,3.78,2.1,2.42,2.19,5.4.5,8.09-.32,1.29-3.65,1.71-3.4,2.71.81,3.1,4.04,4.46,7.19,4.42.77,0,2.83-.64,2.93-.54.5.46,1.85,5.32,2.29,6.19.88,1.71,10.8,5.29,12.78,4.72,4.83-1.38,3.22-5.85,3.98-8.93,1.04-4.26,6.32-6.33,10.53-5.29,1.15.28,2.39,1.45,3.6,1.68,4.33.81,4.95-2.54,5.24-2.42,2.73,1.08-1.39,4.5-3.47,4.86-3.91.68-7.32-4.07-11.58-.32-3.11,2.73-2.13,7.16.82,9.61-1.85-1.42-6.68,1.59-5.66,3.05.23.33,7.17,3.36,7.66,3.42,2.31.29,5.33-1.4,8.36-.79,3.61.72,6.4,4.7,10.06,4.44.12,1.06-1.86.23-2.15.5-.16.15-.06,3.42.27,4.05.18.35,6.03,3.87,6.57,3.95,3.26.5,7.24-4.03,7.58-6.87.16-1.34-.8-2.52-.18-3.65,2.96,2.22,2.47,7.72.03,10.13-.42,1.11-4.49,1.69-4.05,2.75.36.87,5.03,3.76,6.19,4.8,1.13,1,4.55,5.41,4.92,5.52,3.41,1.02,8.29-2.87,7.58-6.65-.31-1.62-1.35-2.1-2.03-2.9,1.54-.17,3.47-1.6,4.3-2.78.85-1.21.65-4.31,1.34-4.29,1.54.04,1.19,5.06.81,6.06,8.62-2.64,10.59-12.4,5.27-18.87-.84-1.02-3.59-2.88-3.61-3.11s.92-1.07.95-2c.05-1.39-.99-3.64-.47-5.33,2.35-.44,2.02,4.05,2.42,4.05,10.6-7.73,4.03-22.6-8.6-23.77l-.54,2.53c-3.81-3.39-1.69-7.32-4.03-11.11,1.32-.62,1.6,2.48,2.68,1.51.13-.12.98-2.87,1.04-3.33,1.13-8.6-4.6-15.96-13.81-16.75-3.49,1.54-9.92-2.42-8.61,3.04,1.21,5.04,11.48,2.48,12.24,8.96-1.24-.79-1.37-1.82-2.84-2.63-3.11-1.73-7.89-.53-10.08-4.16-1.61-2.66,1.4-6.73-2.65-6.86-.12-1.06,1.86-.23,2.15-.5.74-.68-.41-6.4-1.17-7.76-2.97-5.29-9.69-7.28-15.73-6.37-4.43.67-3.59,1.61-9.27,1.09-1.51-.14-3.41,1.08-4.46-1.11,6.81.86,2.49-4.41-.28-6.56-3.29-2.55-6.97-3.09-11.14-2.42-2.29.37-5.12,2.93-6.6,2.9-.88-.02-2.65-2.19-4.65-2.68-2.19-.53-5.54-.67-7.57.27-1.07.5-1.66,1.82-2.78,1.88-1.86.1-5.72-3.54-8.16-4.46-6.48-2.44-14.73-.62-18.7,5.02-.89,1.27-1.33,3.76-1.47,3.92ZM297.14,38.41c.54-.71,2-2.49,2.71-2.79,1.16-.49,2.05.24,3.06-.1.91-.31,1.71-1.56,2.65-2.08,4.71-2.6,8.34-1.74,12.54,1.19-1.58.51-3.41-.98-5.26-1.16-2.83-.27-5.8,1.17-7.63,3.18,1.03,1.02,2.15,1.46,3.13,2.61,2.68,3.1,1.72,8.85,7.77,7.15,1.08-.31,2.64-2.58,3.96-3.35,5.24-3.06,11.63-1.03,14.37,4.01,2.35,4.31.02,7.65,4.87,11.09.73.52,1.96.14,1.9.98-3.26.32-7.26-1.79-7.94-4.91-.34-1.55.05-2.83-.53-4.55-2.27-6.72-12.52-6.74-15.18-.14-1.04.17-.25-1.17-.56-1.48-.22-.22-3.54.07-4.51-.06-1.23-.17-2.17-1.2-3.52-.98l.27,2.52c-1.24-1.5-.73-3.4-1.32-5.33-1.31-4.31-6.2-7.15-10.77-5.79ZM332.61,33.36c2.04.39,2.77,2.31,5.09,2.56,3.92.41,8.82-4.41,11.03,1.48-1.35-.03-1.98-1.02-3.48-1.03-2.7-.02-4.24,2.24-7.96,1.43-1.12-.24-5.41-3.78-4.68-4.44ZM274.03,50.04c1.01-6.53,7.45-.79,10.71-2.81,2.2-1.36.86-3.6,2.72-4.77.03,3.23,2.43,4.14-1.43,6.49-4.23,2.57-5.85-.11-9.02.1-1.18.08-1.8,1.1-2.98.99ZM349.81,46c2.19-.17,3.49-.86,5.68-.04,1.93.73,1.97,1.99,3.19,3.06,3.36,2.94,6.17.53,10.16,1.06,4.47.59,7.73,4.97,8.24,8.93,1.18,9.28-12.62,13.86-13.3,2.65,2.86.26.62,3.34,2.68,4.3,6.08,2.81,11.36-7.64,4.27-12.1-4.4-2.77-7.55.17-11.09-1.7-2.25-1.19-2.62-3.83-4.79-5.09l-5.03-1.07ZM344.97,60.66c.2-2.58,4.61-2.29,4.3-5.05.86-.21.43,1.14,1.4,1.45,1.54.5,2.86-.43,5.02.84,4.83,2.84,4.76,9.12.57,12.36-.91-3.73,3.18-6.68-.8-9.61-3.24-2.38-6.74.81-10.49,0ZM383.12,67.74c6.37-1.84,13.39,1.21,13.98,7.83.39,4.39-3.17,5.78.07,10.06.86,1.14,2.32.36.94,2.77-1.65,1-4.82-2.55-5.18-3.85-1.02-3.68,1.52-4.99,1.52-7.97,0-3.94-3.37-7.15-7.34-7.79-1.35-.22-4.42.71-3.99-1.05ZM360.02,76.33c5.16,6.06,6.69.21,11.54-.04,5.38-.28,10.99,4.3,11.07,9.39.07,4.42-3.79,3.25-3.27,7.33-3.75-1.91-.67-2.47-.12-4.92,1.07-4.77-2.81-9.95-8.16-9.22-2.93.4-2.37,2.38-3.12,2.9-.56.39-4.66.82-5.45.55-.57-.19-2.64-5.05-2.48-6ZM343.9,94.54c.18-.16,1.51-.22,2.61-1.35,4.04-4.13,1.54-10.06-2.61-13.07l1.06-1.26c3.43,4.32,6.46,7.36,12.36,8.35.63.22.74,1.52.54,1.76-.23.28-6.14-1.98-6.98-2.53,1.11,3.47-2.32,8.97-6.18,9.11-.89.03-1.36-.5-.81-1.02ZM408.39,82.9c.86-.99.94.43,1.13.73,2.49,3.99,2.62,2.38,6.05,4.4,3.41,2.01,4.2,4.98,3.03,8.52-.95-.25-.43-1.95-.82-3.01-1.67-4.48-8.41-4.39-9.67-7.12-.24-.52.17-3.38.29-3.52ZM402.48,88.97c2.36-1.56,6.38,6.36,3.77,10.37-.48.73-4.56,4.93-5.39,4.28,1.48-3.54,4.23-5.39,2.97-9.62-.33-1.1-3.06-3.9-1.35-5.03ZM385.28,99.09c5.15-1.44,10.75,3.82,9.66,8.83-.28,1.29-2.18,2-1.61,3.8-3.32-3.12-6.53-4.67-11.28-3.28-1.72.5-2.85,2.09-4.84,1.25,4.03-5.44,9.91-3.99,15.58-2.02.29-3.19-.82-5.35-3.92-6.67-.58-.25-4.72-.79-3.6-1.92ZM411.61,122.83c4.32-3.5,4.99-9.61.27-13.14-2.38-1.78-6.12-1.75-6.17-5.56,2.17,3.2,5.89,2.35,8.86,4.55,5.5,4.07,4.78,13.13-2.95,14.15Z"/>
        <path class="st0" d="M272.42,165.31l-6.62,3.12c-4.59,2.29.3,5.34.56,7.81.07.67-.69,2.42-.38,2.72.15.15,3.52.44,4.41.66,4.38,1.05,13.04,2.42,16.58,4.12s7.65,8.33,10.72,11.15c1.55.9,11.65-1.82,14.09-2.42,7.11-1.73,23.93-5.99,29.41-9.75,6.32-4.33,9.78-16.69,12.12-23.48l5.92,1.57c1.66,0,3.9-.81,5.29-1.64,1.56-.93,8.25-6.83,9.48-8.27.62-.73,3.71-5.31,3.24-5.8-2.05.23-9.26-3.27-10.44-2.99-1.34.31-1.15,3.66-1.45,3.94-.12.11-2.16.24-2.93.53-1.32.5-4.96,3.16-4.56-.21.14-1.15,4.65-2.75,2.47-5.84-.56-.8-17.21-4.95-19.53-5.39-11.99-2.25-24.22-1.94-36.32-3.24-13.23-1.42-26.06-5.04-39.27-6.51-2.06.33-3.94,5.62-5.04,7.42-1.3,2.12-7.18,10.39-7.07,12.01.33,5.09,11.04,4.38,12.09,6.35,2.41,4.51-5.98,8.66-1.37,12.92,1.81,1.67,6.12.69,8.62,1.25Z"/>
        <path class="st0" d="M264.43,110.66c.36.24,6.84-2.09,8.4-2.36,7.65-1.3,17.21.03,24.76,1.73.87.19,3.03.36,3.32,1.17-7.05-.49-14.14-1.45-21.25-1.03-3.16.19-13.09,1.53-15.28,3.32-.22.18-3.14,3.84-3.47,4.32-1.33,1.93-2.16,4.21-1.91,6.54l20.73-6.02c9.54-.92,19.16-.66,28.7-.04.13.88-1.22.47-1.87.5-11.26.44-22.69.59-33.59,3.54l.54.75c9.91,1.88,19.82,4.15,29.89,5.24,7.64.83,15.4.83,23.04,1.58,18.07,1.78,35.33,7.14,52.4,12.64l-1.1-1.74c-13.16-6.77-24.27-16.51-39.19-20.01-.15-.82.71-.51,1.28-.45,3.13.35,7.78,1.94,10.95,2.85,6.39,1.84,12.6,4.2,18.93,6.21.13.91-1.17.46-1.74.37-2.17-.32-4.34-1.4-6.58-1.41-1.06,0-.86.05-.81,1.02l38.02,20.62c2.47.7,1.56-.68,2.41-2.03,1.88-3.01,3.15-3.33.97-7.21-5.66-10.05-37.87-24.32-49.46-28.79-21.69-8.37-61.81-20.94-84.37-14.16-3.63,1.09-5.13,1.11-5.78,5.17-.3,1.87.49,6.6,2.09,7.67Z"/>
        <path class="st0" d="M285.25,66.79c-1.17.32-6.54.9-6.96,1.17-.5.31-.78,6.18-4.11,6.49l-5.52,19.57c9.32-2.65,18.1-2.13,27.6-.94,15.42,1.93,30.25,6.53,44.95,11.05.36-3.6-.2-2.12-2.81-2.66-6.7-1.39-11.85-5.07-9-12,1.01-.06.35,2.36,1.87,2.02,1.22-.28,2.1-3.77,1.66-5.08-1.15-3.41-4.36-2.96-6.78-3.74-1.07-.34-1.79-1.56-2.5-1.72-1.57-.35-2.81,1.02-5.73-.66-2.95-1.7-2.25-4.8-3-5.27-.64-.4-2.27-.14-3.29-.44-2.1-.63-2.95-2.87-2.65-4.83.87-.08.65,1.11,1.28,1.56,4.07,2.87,4.83-3.98.84-6.34-6.9-4.08-7.23,3.17-11,5.79-5.3,3.69-12.59,1.79-14.84-3.98Z"/>
        <path class="st0" d="M379.93,146.62c.71,3.98-7.1,8.76-7.8,10.56-.24.62.48,1.84.25,2.05-.19.17-2.55-.02-4.58,2.01-4.02,4.03-5.63,10.67.44,13.76,2.91,1.48,5.39,1.46,7.36-1.11,1.01,4.23-6.43,3.68-6.7,4.02-3.19,4.06-.86,11.88,4.55,12.95,3.29.65,1.67-1.6,1.31-3.29-.11-.52-.7-1.66.3-1.54.58,1.63,3.62,4.97,1.08,6.33-1.58.85-4.12-.63-3.23,4.01.18.93,1.65,2.33,2.49,2.74,5.37,2.57,11.47-2.67,10.18-8.06-.31-1.31-2.59-4.84-4.07-3.51-.34.31.67,2.95-.53,3.03-1.27-9.35,8.39-4.13,13.13-10.14,2.9-3.69,2.22-6.55.42-10.44-.32-.68-1.28-1.25-1.43-1.64-.23-.62.35-1.48.22-2.23-.17-.95-.94-2.08-.96-2.69-.03-1.13,1.74-1.5,2.04-2.95.33-1.56-.28-2.82-.52-4.28,4.51,3.34-.32,6.33,1.07,10.11,5.58-1.01,7.47-6.63,4.42-10.99-2.67-3.82-8.7-5.05-13.02-6.7-1.2,3.83,3.06,4.99,3.94,7.66,1.96,5.94-4.19,11.52-10.39,9.52l6.2-3c1.86-1.85,2.52-5.13,1.45-7.48-.45-1-1.98-1.71-2.21-2.52-.34-1.2,1.09-3.61.39-4.62-.17-.24-5.36-1.93-5.81-1.55Z"/>
        <path class="st0" d="M260.49,88.06c.76,1.27-.82,4.9,3.18,5.88,2.65.65,2.21-5.9,2.66-7.49.97-3.38,3.25-7.22,3.95-10.86-6.69-.89-10.54-5.19-9.69-11.65.67-5.11,5.16-4.11,5.82-6.15,1.41-4.36-1.67-4.8-5.42-4.08-9.47,1.81-9.22,15.3-2.08,19.93-2.5,4.14-5.68,7.67-1.78,12.29.82.98,3.24,1.94,3.36,2.14Z"/>
      </g>
      <g>
        <path class="st0" d="M209.27,498.94c2.49-.22,6.77-1.23,9.29-1.88,3.87-1,10.2-4.53,13.1-4.87,2.83-.33,7.07,1.82,10.27,1.3,45.12,14.56,88.3,36.84,136.36,41.84-8.13-24.19-15.35-51.26-34.4-70-20.9-.67-41.79-2.4-62.52-4.88-11.39-1.36-23.77-4.13-35.02-4.98-3.29-.25-6.87.28-10.15-.06-4.45-.47-8.64-2.93-12.91-4.02-3.85,9.84-9.11,19.13-16.45,27.07-1.75,1.89-6.8,5.69-7.74,7.38-1.76,3.17-2.19,9.58-4.07,13.11,4.6-.29,9.7.4,14.24,0Z"/>
        <path class="st0" d="M253.61,294.72c.03,5.01-3.45,11.37-3.75,16-.11,1.73,11.01,21.24,12.8,24.77,14.39,28.32,28,56.98,46.28,83.35,10.28,14.84,15.27,20.55,30.59,30.88,5.03,3.39,8.39,7.47,15,7.68,1.03.03,6.39-2.63,9.58-2.87,1.9-.14,6.07.52,6.81.36.37-.08,3.99-3.22,5.04-3.87,2.21-1.35,4.96-2.28,7-3.51.42-.26,1.5-.34.69-1.13-.33-.32-7.61-2.2-9.13-2.79-29.43-11.44-56.22-39.55-74.07-63.78-.88-1.19-1.76-2.42-2.57-3.65-.29-.43-1.35-1.1-.49-1.56,21.64,24.65,44.69,48.83,74.61,64.79,3.08,1.64,12.58,6.77,15.53,6.38,2.75-.36,6.08-2.06,9.34-2.37,2.73-.26,5.53.06,8.27-.06l-1.31-23.79c-.4-.53-9.94-3.28-11.57-3.78-12.93-3.96-20.52-7.78-31.67-15.2-28.01-18.65-53.87-45.48-75.82-70.22-9.55-10.76-19.55-25.15-29.58-34.86-.51-.49-.7-.96-1.6-.77Z"/>
        <path class="st0" d="M404.08,416.54c-.06-8.69,1.22-17.36,2.85-25.89.29-1.5,2.52-8.79,2.44-9.26-.04-.2-.27-.35-.42-.51-31.36-2.62-61.4-14.46-86.55-31.83-.08-.38.52-.32.79-.24,2.02.58,6.58,3.68,8.87,4.81,15.19,7.52,34.84,15.69,51.58,19.22.39.08,2.13.69,1.37-.28-43.61-24.71-82.74-55.66-120.92-86.96-1.02,0-6.84,7.07-8.86,7.85,28.92,28.79,53.83,61.05,85.43,87.46,18.01,15.04,39.59,30.53,63.42,35.63Z"/>
        <path class="st0" d="M269.73,568.7c-2.83-6.25-6.97-11.92-10.13-18.02-8.63-16.66-15.22-34.96-20.04-52.93-7.03-4.41-12.56,1.04-19.26,2.96-5.23,1.5-10.7,1.88-16.12,2.28-1.27,13.22-3.3,26.43-4.3,39.68-.66,8.67-.97,17.35-1.08,26.03h70.94Z"/>
        <path class="st0" d="M340.13,456.98c-1.43-.42-2.1-.92-3.23-1.77-13.08-9.78-26.25-26.92-35.15-40.23-20.57-30.78-35.77-64.38-51.8-97.37l-1.72-1.16c-.59,9.11-5.09,19.15-5.85,28.12-.6,7.09,7.79,27.18,10.97,34.55,11.14,25.84,26.76,49.69,46.73,70.29,1.52,1.57,8.84,9.36,9.96,9.84.84.35,3.45.65,4.56.77,6.64.7,13.77.58,20.44,1.31,1.3-1.31,5.09-2.48,5.08-4.34,2.24.66,3.09.06,5.38,0l-.11-1.42-12.25-7.17c.3,2.72,6.97,6.64,6.98,8.59Z"/>
        <path class="st0" d="M472.88,568.7c-5.6-16.53-18.59-29.33-29.24-43.01-15.89-20.4-41.33-59.48-68.16-66.31-4.12-1.05-10.25-2.09-14.25-.5-2.23.89.92,1.51,1.84,2.06,30.39,18.13,42.3,53.32,58.66,81.82,5.07,8.84,11.01,17.2,16.22,25.95h34.93Z"/>
        <path class="st0" d="M435.26,568.7c-23.11-26.44-32.4-61.64-54.6-88.41-7.71-9.29-18.61-20.29-32.19-20.3-.62,0-7.2.51-5.64,2.05,8.74,3.32,15.08,13.73,19.44,21.4,14.86,26.11,21.03,57.46,31.62,85.27h41.38Z"/>
        <path class="st0" d="M379.9,568.7l-17.56-8c-17.87-9.76-33.13-22.92-47.51-36.7l-45.91-16.47-.81.26c15.74,21.14,32.36,41.78,50.78,60.92h61Z"/>
        <path class="st0" d="M380.44,457.49c1.66,1.96,4.94,2.66,7.35,3.95,24.25,13.07,38.11,35.22,54.25,55.64,7.96,10.07,16.31,19.89,24.39,29.88.4-2,1.74-4.87,3-6.54,3.03-4.01,8.51-5.16,8.34-11.41-.37-13.35-24.06-33.63-34.43-41.97-17.76-14.29-38.5-28.81-62.89-29.56Z"/>
        <path class="st0" d="M313.8,568.7c.23-.88-.39-1.01-.8-1.52-1.52-1.87-4.16-3.71-5.92-5.55-15.7-16.37-29.65-35.36-40.54-54.89l-24.75-9.32c8.76,24.48,18.59,48.95,32.51,71.28h39.5Z"/>
        <path class="st0" d="M174.61,568.7h20.42c-.47-21.96,2.4-43.79,5.92-65.46-.04-.37-7.02-.64-7.8.25-.61.69-2.04,4.93-2.86,6.41-2.89,5.19-6.78,10.6-11.37,14.58-1.65,1.43-8.04,5.24-8.5,6.67.6,12.6,2.27,25.1,4.19,37.55Z"/>
        <path class="st0" d="M240.18,355.88c.46,4.06-2.7,11.14-2.05,14.78,1.09,6.17,7.55,19.75,10.25,26.29,8.12,19.73,17.03,39.32,27.56,58,.91,1.23,2.87,1.18,4.37,1.45,9.02,1.62,19.02,1.54,28.12,3.11.2-.81-.3-1.03-.79-1.53-3.34-3.39-8.94-6.92-12.65-10.34-21.65-19.94-37.99-47.74-48.23-74.44-2.08-5.43-3.42-11.35-5.45-16.61-.27-.7.19-.87-1.13-.7Z"/>
        <path class="st0" d="M237.49,372.56c-.39,5.26-2.33,11.36-2.49,16.52-.09,3.01.57,7.81.87,11.03,1.59,17.15,5.04,34.76,9.07,51.52l26.39,3.32c-2.53-5.19-5.59-10.15-8.15-15.33-11.11-22.42-17.07-42.9-24.62-66.33-.23-.72.34-.89-1.08-.74Z"/>
        <path class="st0" d="M145.59,480.24c2.04,17.38,4.62,36.37,10.6,52.96.29.8,1.13,4.54,2.28,3.65.24-.19,2.18-3.32,3.22-4.31,5.72-5.44,13.04-9.22,18.57-15.4,6.51-7.27,9.55-16.57,13.16-25.28l-7.89,5.97c-17.35,8.56-30.33-3.28-38.61-16.61-.41-.66.09-1.27-1.33-.99Z"/>
        <path class="st0" d="M324.01,527.25l5.9,5.82c12.97,10.56,26.27,20.93,41.23,28.96,5.48,2.94,12.05,6.98,18.43,6.67l-10.03-29.36c-19.05-1.63-37.5-6.42-55.53-12.09Z"/>
        <path class="st0" d="M224.59,447.87c2.56.57,16.08,6.75,17.17,3.24.22-.71-3.52-12.22-4-14.34-2.29-10-3.36-20.18-4.57-30.33l-8.6,41.44Z"/>
        <g>
          <path class="st0" d="M133.23,362.96c.93.23,1.07-.36,1.61-.75,11.84-8.6,21.22-14.21,36.88-15.36,2.14-.16,13.27.36,13.94-.54,1.66-2.23-4.45-12.76-6.23-14.94-1.03-1.26-2.64-2.32-3.75-3.55.39-.8,2.56,1.18,2.12-.47-.84-3.18-3.69-6.59-3.74-10.14l13.99,22.99c.52.36,4.06-6.39,4.18-6.96.18-.81-2.96-11.12-3.39-13.25-1.78-8.86-2.79-19.12-1.86-28.06.32-3.07,2.56-10.06,2.44-12.15-.05-.9-1.14-2.26-1.33-3.57-.25-1.75.37-4.57-.13-5.94-.32-.88-5.82-2.93-7.15-3.38-31.03-10.37-46.55,28.76-48.11,51.33-.79,11.4,1.35,21.86,1.63,32.83.1,4.02-.64,7.94-1.09,11.9Z"/>
          <path class="st0" d="M169.77,568.7c-18.67-25.63-25.46-58.6-28.48-89.23-3.12-31.62-3.88-56.06,14.29-83.61.29-.44,1.35-1.11.48-1.57-21.74,13.87-28.82,39.52-30.89,62.94-1.92,21.65-2.08,47.67.54,69.25,1.73,14.27,5.46,29.8,13.16,42.22h30.9Z"/>
          <path class="st0" d="M119.8,501.47c.75.75.98-.05,1.07-.75.26-1.93.09-5.06.02-7.11-1.24-37.02.1-83.42,38.7-104.09l5.88-8.87c-16.75,5.13-36.01,14.67-46.12,28.65-19.8,27.39-6.97,62.89.44,92.16Z"/>
          <path class="st0" d="M112.8,414.01c7.7-17.09,26.88-27.57,44.48-34.25,2.24-.85,10.04-2.83,11.18-3.63,2.02-1.42,4.49-8.45,6.67-10.39.03-.9-3.79-.25-4.48-.18-12.55,1.18-39.52,7.11-48.44,15.6-6.32,6.02-10.08,18.23-10.51,26.51-.09,1.77-.57,5.41,1.09,6.34Z"/>
          <path class="st0" d="M130.54,372.05c5.16-1.47,9.99-3.74,15.17-5.18,9.79-2.73,20.47-4.43,30.69-4.5.69-.22,7.34-11.59,6.8-12.05-20.12-1.36-40.81,6.2-52.66,21.73Z"/>
          <path class="st0" d="M215.81,280.9c1.54-1.48,5.02-9.23,4.94-11.23-.07-1.69-2.56-5.6-3.96-6.8-9.6-8.16-26.74-1.12-25.55,11.4,1,10.58,17.57,13.36,24.57,6.63ZM208.07,264c12.86,2.04,5.93,19.88-6.58,15.29-9.79-3.59-3.94-16.96,6.58-15.29Z"/>
          <path class="st0" d="M190.73,282.08c-1.23,13.73-.59,27.04,2.32,40.53.36,1.69.46,4.48,1.97,5.47.59-4.08,4.99-9,5.4-12.88.44-4.13-1.92-11.53-2.19-16.16-.14-2.37-.08-5.23,0-7.62.06-1.62,1.31-3.7.03-5.04l-7.53-4.29Z"/>
          <path class="st0" d="M169.24,261.85c6.22-.64,10.54.71,15.75,3.64.91.51,3.64,2.75,4.13,2.43-.37-1.73,4.5-6.05,4.31-6.8l-4.84-3.3c3.05-.64,4.75,3.83,7.29,2.05,2.06-1.44-2.65-4.49-4.12-5.28-5.13-2.77-8.14-2.99-13.39-.57-1.33.61-10.88,6.24-9.12,7.84Z"/>
          <path class="st0" d="M190.73,251.23c3.49,1.13,6.67,3.54,8.41,6.62,6.51-1.97,13.46-1.45,18.99,2.49-.33-6.63-10.78-14.53-17.48-14.68-3.12-.07-9.39,2.27-9.92,5.57Z"/>
          <path class="st0" d="M199.87,287.13c.77,6.82,1.23,14.76,2.73,21.45.14.61.25,1.2,1.03,1.3.66-4.85,5.81-11.01,6.35-15.55.27-2.21-1.43-4.84-.98-7.2-3.25.79-5.9.19-9.14,0Z"/>
          <path class="st0" d="M211.69,246.19c-.81,1.04,3.54,3.07,4.32,3.77,2.21,1.98,3.99,5.45,4.69,8.23.35,1.37-.38,3.95,1.2,4.68.03-2.77,3.07-17.21,2.08-18.63-.24-.35-3.45-.91-4.25-.85-2.81.21-5.38,2.16-8.03,2.81Z"/>
          <path class="st0" d="M208.07,265.52c-10.87-1.88-13.41,11.1-4.05,12.91,9.55,1.84,12.92-11.37,4.05-12.91Z"/>
        </g>
      </g>
    </g>
  </g>
</svg>