<?xml version="1.0" encoding="UTF-8"?>
<svg id="_图层_1" xmlns="http://www.w3.org/2000/svg" version="1.1" viewBox="0 0 585.7 552.7">
  <!-- Generator: Adobe Illustrator 29.1.0, SVG Export Plug-In . SVG Version: 2.1.0 Build 142)  -->
  <defs>
    <style>
      .st0 {
        fill: currentColor;
      }
    </style>
  </defs>
  <path class="st0" d="M461.5,252.8s-6.1-54.9-91.5-54.9-91.5,54.9-91.5,54.9l-50.3,298.9c2.3,2.3,141.9,0,141.9,0,0,0,139.6,2.3,141.9,0l-50.3-299h0Z"/>
  <polygon class="st0" points="71.5 163.2 71.5 220 560.8 442.5 585.7 396.6 71.5 163.2"/>
  <g>
    <path class="st0" d="M100.8,206.3L9.5,374.3s-52.9,121.4,91.3,121.4c0,0,0-291,0-289.4h0Z"/>
    <path class="st0" d="M100.8,206.3l91.3,168s52.9,121.4-91.3,121.4c0,0,0-291,0-289.4h0Z"/>
  </g>
  <circle class="st0" cx="406.7" cy="93" r="93"/>
</svg>