<?xml version="1.0" encoding="UTF-8"?>
<svg id="_图层_1" xmlns="http://www.w3.org/2000/svg" version="1.1" viewBox="0 0 604 593">
  <!-- Generator: Adobe Illustrator 30.0.0, SVG Export Plug-In . SVG Version: 2.1.1 Build 123)  -->
  <defs>
    <style>
      .st0 {
        fill: #0655bc;
      }
    </style>
  </defs>
  <path class="st0" d="M447.42,298.21l-26.69-58.82,74.92-101.31-53.6-39.64-52.85,71.47-37.34-82.29h59.17V20.95h-218.07v66.66h59.17l-37.34,82.29-52.85-71.47-53.6,39.64,74.92,101.31-26.69,58.82h0s0,0,0,0h0s0,0,0,0l94,207.16h-70.13v66.66h243.09v-66.66h-70.13l94-207.16h0s0,0,0,0h0s0,0,0,0ZM374.22,298.22l-72.22,159.15-72.22-159.15,72.22-159.15,72.22,159.15Z"/>
</svg>