<?xml version="1.0" encoding="UTF-8"?>
<svg id="_图层_1" xmlns="http://www.w3.org/2000/svg" version="1.1" viewBox="0 0 604 593">
  <!-- Generator: Adobe Illustrator 30.0.0, SVG Export Plug-In . SVG Version: 2.1.1 Build 123)  -->
  <defs>
    <style>
      .st0 {
        fill: #0655bc;
      }
    </style>
  </defs>
  <path class="st0" d="M470.61,272.91s-6.1-54.91-91.52-54.91-91.52,54.91-91.52,54.91l-50.33,298.95c2.29,2.29,141.85,0,141.85,0,0,0,139.56,2.29,141.85,0l-50.33-298.95Z"/>
  <polygon class="st0" points="80.61 183.37 80.61 240.16 569.95 462.66 594.85 416.76 80.61 183.37"/>
  <g>
    <path class="st0" d="M109.91,226.42L18.63,394.46s-52.9,121.36,91.28,121.36c0,0,0-290.96,0-289.4Z"/>
    <path class="st0" d="M109.91,226.42l91.28,168.04s52.9,121.36-91.28,121.36c0,0,0-290.96,0-289.4Z"/>
  </g>
  <circle class="st0" cx="415.83" cy="113.17" r="93.04"/>
</svg>