<?xml version="1.0" encoding="UTF-8"?>
<svg id="_图层_1" xmlns="http://www.w3.org/2000/svg" version="1.1" viewBox="0 0 604 593">
  <!-- Generator: Adobe Illustrator 30.0.0, SVG Export Plug-In . SVG Version: 2.1.1 Build 123)  -->
  <defs>
    <style>
      .st0 {
        fill: #0655bc;
      }
    </style>
  </defs>
  <path class="st0" d="M443.21,330.92c1.22-10.36,4.46-21.89,10.55-30.47,3.29-4.63,9.34-10.02,15.4-10.04.86,0,2.44.8,1.42,1.43-.32.2-3.77.59-4.83.96-10.12,3.56-15.42,17.56-18.44,26.93-.96,2.97-1.43,6.53-2.56,9.34-.27.66-.62,1.92-1.53,1.84Z"/>
  <path class="st0" d="M395.57,222.19l5.17,18.49-5.09,17.78-.72.41-4.72-18.45c1.68-5.88,2.99-11.89,4.71-17.76.14-.47-.18-.56.65-.47Z"/>
  <path class="st0" d="M394.28,219.93l-3.38,12.87c-1.8-1.94.18-4.86.18-7.24,0-1.28-.98-3.73-.63-4.78.28-.85,2.93-.46,3.82-.85Z"/>
  <path class="st0" d="M391.71,251.14c-4.08-1.16-3.23-5.42-2.57-8.68.46-.08.44.56.54.9.81,2.54,1.31,5.22,2.03,7.79Z"/>
  <path class="st0" d="M394.28,260.79c-.29.28-.95-.03-1.22-.55-.75-1.45-1.65-5.26-1.03-6.84.51.07.67,1.17.8,1.61.21.69,1.66,5.58,1.45,5.79Z"/>
  <path class="st0" d="M427.27,266.91c.61.46.21,1.69.11,2.36-.63,4.34-2.89,10.88-4.68,14.94-.64,1.45-1.44,1.45-1.15-.18.35-1.99,1.33-4.73,1.93-6.76,1.03-3.47,2.06-7.17,3.79-10.36Z"/>
  <path class="st0" d="M505.64,324.49c.61.44.23,8.35.33,9.81,1.09,16.81,10.01,37.87,21.87,49.88,2.34,2.37,6.32,4.93,8.23,7.54.32.44.61.65.47,1.3-.78.75-5.16-2.87-5.94-3.55-13.4-11.58-22.76-29.99-25.23-47.49-.64-4.54-1.23-11.92-.71-16.38.05-.4.36-1.56.98-1.11Z"/>
  <path class="st0" d="M518.52,292c-14.17,17.73-6.85,41.86,1.98,60.27,2.08,4.34,4.68,8.39,6.71,12.75-.36.38-1.52-1.04-1.74-1.31-12.39-15.05-23.3-50.68-11.39-67.95.57-.83,3.33-4.59,4.45-3.76Z"/>
  <path class="st0" d="M544.26,404.27c-11.52-3.41-21.37-10.99-30.26-18.81-.79-.69-5.6-4.84-5.46-5.47.26-1.24,3.28.73,3.77,1.05,5.02,3.2,9.73,8.55,14.79,12.24s10.51,6,15.52,9.25c.31.2,2.11,1.25,1.63,1.74Z"/>
  <path class="st0" d="M540.41,252.1l-7.73-17.19,7.89-16.92c.65-.01.84.71,1.08,1.17,2.69,5.13,4.67,10.77,7.12,16.02-2.34,4.92-4.35,10.27-6.8,15.1-.2.4-.94,2.27-1.56,1.81Z"/>
  <path class="st0" d="M311.57,273.98c-.37,3.52-1.98,7.31-3.48,10.51-.79,1.68-1.81,4.64-3.6,5.25-.53-.6,2.92-8.62,3.48-9.87.61-1.35,1.34-3.16,2.05-4.38.32-.55.76-1.58,1.54-1.51Z"/>
  <path class="st0" d="M290.64,273.98c.08.06.27,1.41.49,1.93,1.63,3.82,4.12,8.18,5.32,12.05.13.43.9,2.28.14,2.42-.61.06-.73-.56-.97-.95-1.01-1.68-2.19-4.18-3-6.01-.58-1.31-3.74-8.68-2.94-9.45.26.04.87-.07.96,0Z"/>
  <path class="st0" d="M302.55,251.78c-.48.5-.56-.17-.72-.41-.38-.59-.83-1.67-1.16-2.37-2.33-4.86-4.29-9.92-6.69-14.75l7.93-17.85c.26-.2.81.95.92,1.17,2.7,5.33,4.88,11.25,7.42,16.69-2.49,5.45-4.84,10.96-7.45,16.35-.18.38-.22,1.14-.26,1.18Z"/>
  <path class="st0" d="M342.14,405.56l17.05-91.36c-.02,7.14-.75,14.27-1.65,21.35-2.65,20.74-6.99,45.47-12.66,65.52-.44,1.54-.79,4.62-2.74,4.5Z"/>
  <path class="st0" d="M346.33,299.08c.22.25-.96,5.77-1.2,6.68-1.66,6.31-5.43,12.86-9.16,18.19-5.03,7.19-18.03,22.63-27.14,23.38-1.4.12-5.71.11-4.99-1.92,1.57.11,2.59.42,4.2.17,12.86-1.99,31.06-27.37,35.31-39.02.73-2,1.08-4.91,1.99-6.7.13-.25.59-1.23.98-.78Z"/>
  <path class="st0" d="M344.72,350.23c.42.49-3,10.89-3.53,12.39-3.86,10.99-9.52,23.21-16.09,32.82-.47.69-4.87,7.24-5.8,6.26-.15-.6.21-.89.44-1.33,1.08-2.07,3.21-4.6,4.52-6.74,6.68-10.9,12.3-22.99,16.84-34.96.86-2.27,1.53-5.67,2.64-7.65.13-.23.57-1.25.98-.79Z"/>
  <path class="st0" d="M279.06,352.8c.39-.38.96.23,1.24.53,1.71,1.77,4,7.5,5.46,9.98,4.97,8.45,13.88,19.28,22.37,24.29,1.13.67,4.03,1.64,4.71,2.37.94,1.02-.26,1.13-1.18.86-13.25-3.92-25.67-22.65-31.37-34.59-.23-.48-1.45-3.22-1.23-3.43Z"/>
  <path class="st0" d="M373.36,382.07c-.31.32-3.28-.36-4.02-.35-6.96.08-14.73,9-17.92,14.61-1.73,3.03-2.59,6.88-5.09,9.22,1.16-9.98,9.33-21.22,18.77-24.83,2.03-.78,6.18-1.85,7.95-.11.32.31.47,1.3.32,1.45Z"/>
  <path class="st0" d="M350.18,387.54l-.63-.15c4.14-11.32,12.09-20.83,16-32.27.52-1.52.64-3.35,1.28-4.83.64-1.48,1.28-1.5,1.17.19-.28,4.42-2.39,9.78-4.24,13.8-3.76,8.18-9.18,15.45-13.58,23.26Z"/>
  <path class="st0" d="M265.53,376.94l10.31,29.27c-1.37-.51-2.24-2.08-2.95-3.32-1.48-2.59-2.8-6.22-3.81-9.06-.67-1.87-5.14-16.3-4.5-16.89.04-.03.9-.03.95,0Z"/>
  <path class="st0" d="M264.51,288.87c6.88-.11,5.48,9.45-.07,11.51-10.58,3.92-9.58-11.36.07-11.51ZM262.88,290.79c-5.04.93-6.44,10.1.4,7.8,5.08-1.72,5.88-8.95-.4-7.8Z"/>
  <path class="st0" d="M97.86,352.16c.11.88-.88,1.06-1.53,1.2-12.34,2.74-34.49-9.22-42.41-18.57-.32-.38-1.32-1.4-.96-1.94,8.35,6.57,17.13,12.49,27.11,16.34,1.97.76,7.8,2.97,9.58,2.97h8.21Z"/>
  <path class="st0" d="M134.23,343.14c-.63.15-.76-.33-1.1-.67-3.38-3.49-5.72-7.26-10.16-9.79-1.71-.98-4.17-1.56-5.59-2.45-.45-.28-.95-.63-.85-1.24,7.81.59,14.72,7.2,17.7,14.15Z"/>
  <path class="st0" d="M66.32,286.21c1.23.08,1.7,2.05,1.63,3.05-.35,5.01-12.73,3.28-13.23-2.25-.17-1.88.42-2.9,2.26-3.38.26.91-.63,1.95-.56,2.68.36,3.84,11.74,6.35,9.9-.11Z"/>
  <path class="st0" d="M177.35,263.36c.25.25,1.57,5.84,1.78,6.75,1.33,5.78,2.71,12.12,2.09,18.02l-.89-.55c-1.05-6.93-3.26-14.5-3.63-21.47-.02-.37-.23-3.63.65-2.75Z"/>
  <path class="st0" d="M196.67,273.66c.35,3.14-2.26,4.58-3.85,6.6-.55.7-2.96,4.64-3.39,4.65-1.27.02.59-3.53.86-3.96,1.02-1.66,2.89-2.94,3.95-4.42.79-1.1.81-2.91,2.43-2.87Z"/>
  <path class="st0" d="M206.97,217.68c.49.08.71,1.09.88,1.52,2,4.94,3.59,10.07,5.52,15.05l-6.24,16.23-6.79-16.24,6.63-16.57Z"/>
  <path class="st0" d="M225.63,294.89c.4.44-4.6,9.41-5.2,10.72-5.23,11.34-9.93,27.18-20.07,35.27-.78.62-2.71,2.36-2.57.33,7.12-7.15,12.58-16.19,16.86-25.29,2.79-5.94,5.6-15.64,9.89-20.35.32-.36.47-.81,1.09-.67Z"/>
  <path class="st0" d="M145.93,290.5c6.39-6.4,13.06,1.21,5.69,7.13-6.41,5.15-11.6-1.22-5.69-7.13ZM149.27,290.14c-3.45.72-6.73,7.96-1.39,7.3,4.5-.56,7.76-8.63,1.39-7.3Z"/>
  <path class="st0" d="M82.73,271.73l.17.3c-.03-.11-.09-.22-.17-.3Z"/>
  <path class="st0" d="M583.69,337.36c-1.5-5.53-6.02-11.32-8.13-16.97-2.4-6.43-3.03-12.98-7.35-18.71-1.07-1.42-4.26-4.1-4.89-5.41-.55-1.15-.51-3.19-.88-4.59-1.09-4.19-5.52-8.73-9.42-10.53-.89-.41-1.73-.33-2.71-.83-.74-.39-3.64-2.87-3.72-3.63l.94-9.55c1.05-1.5,2.94-1.76,3.86-3.54,1.18-2.27,3.39-9.46,3.97-12.12.55-2.54.68-5.18,1.27-7.74.54-2.3,2.04-5.35,2.11-7.58.06-2.06-.88-4.66-.97-6.74-.23-5.02,5.96-6.89,5.47-12.86-.07-.89-.58-1.81-.58-2.58,0-3.15,2.62-5.3,1.25-9.67-.78-2.51-2.3-1.48-2.59-1.75-.09-.08.05-1.84-.03-2.38-.27-1.63-2.41-8.57-4.31-8.57-.73,0-1.61,1.84-2.4,1.29-.14-.1-1.11-2.22-1.77-2.9-1.53-1.56-8.6-6.24-10.47-4.33-.37.38-.29,1.21-.85,1.4-.57.19-3.43.41-4.15.38-1.48-.07-2.98-.84-4.44-.86-1.85-.02-3.88.83-5.69,1.16.55-1.14,1.05-2.18,0-3.21h-2.57c-1.26.17-4.51,1.26-5.79,1.77-.86.35-2.28,1.53-2.89,1.62-.6.1-1.1-1.16-2.92-.68-.8.21-4.31,2.61-5.11,3.26-.94.75-3,3.45-3.98,3.31-.34-.05-.7-.48-1.04-.49-2.33-.05-5.96,9.62-7.12,11.45-3.55-1.54-3.89,4.92-4,7.25-.06,1.19.47,5.04.36,5.45-.06.22-1.02.3-1.5.81-1.73,1.84-.42,7.88.66,10.01.35.69,1.67,2.17,1.75,2.47.15.6-.5.99-.6,1.56-.44,2.39,1.61,7.46,3.37,9.15.8.77,3.49,1.78,3.72,2.15.61.96.09,3.21,1.19,4.85.67,1,1.79,1.15,2.34,1.85.47.6.44,1.43.82,2.08.51.86,1.94,1.57,2.25,2.58.89,2.9.46,11.49-.33,14.51-.15.57-.46,1.68-.8,2.09-.72.89-5.02,2.49-6.43,3.55-1.81,1.36-3.96,4.11-4.68,6.26-.5,1.51-.39,3.25-1.18,4.61-.89,1.54-3.14,3.04-4.1,4.91-.86,1.68-1.01,3.7-1.64,5.44-.65,1.82-1.63,3.48-2.27,5.3-.74.15-.51-.08-.72-.41-.81-1.29-1.34-3.36-2.22-4.85-.53-.88-1.64-1.72-2.12-2.7-1.85-3.77-.65-6.14-4.75-9.41-.86-.69-2-.83-2.74-1.76-1.34-1.69-1.12-3.9-3.36-5.97-1.96-1.81-5.88-2.33-6.84-3.3-.47-.48-1.06-2.43-1.7-3.29-2.94-3.96-8.53-4.79-13.16-4.7,0-.87-1.4-5.46-1.18-5.78.21-.31,2.54-.78,3.41-1.75,1.88-2.09.75-4.22,1.44-5.64.36-.74,3.1-1.8,4.09-3.31,2.47-3.8.19-5.3.63-7.71.15-.82,1.98-2.65,2.47-3.67.86-1.79.94-4.7.67-6.67-.22-1.59-1.55-2.71-1.59-4.22-.06-2.02.82-3.22.29-5.74-.81-3.91-3.17-4.76-5.06-7.49-2.49-3.59-2.06-6.51-7.23-8.53-1.04-.41-2.99-.55-3.74-1.09-.49-.35-.93-1.5-1.47-2.07-4.4-4.72-7.75-1.97-12.79-2.65-3.62-.49-8.98-4.74-12.31-4.1-1.12.21-1.37,1.66-.81,2.57-3.2.41-7.28-1.82-10.39-.9-1.96.58.13,2.92-.25,3.45-.12.17-3.4,1.52-3.77,1.57-1.52.2-2.32-.82-3.92.23-2.53,1.65-1.67,4.53-2.48,6.51-.17.43-1.68,1.25-2.19,2.02-1.99,3.04.59,4.89.15,8.03l9.01-1.29c-.07.44.12,2.14,0,2.25-.2.19-3.67.05-3.81.8.9,1.58,2.85,11.45,3.49,12.07.48.47.56-.15.72-.41,1.01-1.6,1.9-5.37,2.99-6.66.5-.6,1.08.34,1.13.81.12,1.34-3.5,6.85-3.81,8.76-.25,1.54,1.33,4.32,1.45,5.97l-5.7,19.69v.8s4.51.32,4.51.32v2.26c-1.35.36-5.82-1.14-6.71-.59-.2.13-.89,2.34-.94,2.77-.29,2.42,1.45,5.28,3.84,5.97,2.68.77,8.78-.36,11.01,1.22.66.47,1.36,2.57,1.13,3.28-.08.27-4.33,2.73-4.82,2.92-3.08,1.16-5.72.61-8.34,3.57-.8.91-1.17,2.5-1.75,3.07-1.03,1-3.9,1.3-5.33,3.03-1.25,1.51-1.47,3.93-2.42,5.3-.67.97-3.03,2.3-4.18,3.55-4.95,5.37-7.26,12.19-8.85,19.15-.11.5.21.56-.64.48-1.83-8.15-5.73-19.14-13.51-23.34-1.77-.95-5-1.71-6.44-2.89-1.65-1.36-1.38-3.51-4.29-5.36-3.04-1.93-7.59-2.07-9.54-3.33-.68-.44-1.39-2.23-2.1-3.04-3.05-3.49-9.6-4.55-14.01-4.5l.14-18.36c.8-.74,1.59-5.25,1.79-5.45.08-.09,1.26.47,2.34.25,2.81-.57,6.92-7.85,7.89-10.45,1.08-2.91.7-4.67,1.16-7.18.28-1.5,1.88-3.22,2.11-4.68.29-1.85-.4-3.54-.32-5.11.08-1.59,1.38-2.97,1.6-4.54.21-1.52.2-6.39-.78-7.53-.54-.63-1.62-.56-1.73-.68-.18-.21.03-2.37-.04-3.02-.29-2.5-2.3-12.19-5.78-7.57-.06-1.86-.93-3.79-1.88-5.36-.86-1.42-3.82-5.39-5.62-4.89-.96.27-.81,1.58-1.51,1.88-.94-2.64-8.4-7.51-10.81-5.81-.73.52-.63,1.55-.94,2.27-5.27-2.65-11.73-2.55-17.22-.64,1.04-3.82-.89-3.41-3.71-2.58-2.99.88-6.96,2.8-8.21,5.8-.94-.37-.41-1.9-1.51-2.21-2.75-.77-8.75,7.99-8.14,10.89-.83-.61-.63-1.5-2.07-1.29-2.18.32-3.85,6.94-4.04,8.86-.07.7.13,3.5,0,3.7-.08.12-1.26-.96-2.22,1.16-2.26,4.99.97,6.87,1.56,10.6.26,1.65-.15,3.68.05,5.42.17,1.46,1.05,2.91,1.23,4.24.17,1.33-.09,2.77.06,4.12.43,3.74,2.87,6.49,4.6,9.56.48.85.47,1.95,1.15,2.71,1.19,1.34,3.77.94,4.22,1.65.83,1.32.85,4.94,2.16,6.45l.02,17.57c-.29.86-4.04,1.39-5.17,1.91-1.18.54-2.42,1.95-3.52,2.28-2.7.82-4.87-.24-7.68,1.98-.82.64-1.48,1.94-2.12,2.38-1.04.71-2.72.59-3.96,1.51-.87.64-1.23,1.7-2.11,2.39-.86.68-2.07,1.06-3.03,1.8-2.57,1.99-3.03,4.46-3.57,7.53-1.23-.86-1.61-2.46-2.58-3.69-1.03-1.32-2.81-2.18-3.14-3.94-.18-1,0-1.79-.33-2.89-.6-2.05-3.61-4.56-5.55-5.39-1.48-.64-4.49-1.03-5.56-1.76-1.7-1.16-1.62-4.05-5.8-5.86-2.47-1.06-4.02-.45-5.78-.97-.56-.17-1.09-1.11-1.73-1.49-1.98-1.18-4.24-1.65-6.55-1.66.43-1.14-.5-3.53-.35-4.3.06-.31.93-.39,1.3-.7,2.8-2.31,1.65-3.59,2.69-6.33.31-.82,1.05-1.5,1.44-2.42,1.53-3.61,1.28-8.14,2.16-12,.71-3.1,2.4-5.48,2.06-8.81-.17-1.64-.99-3-.95-4.86.05-2.79,2.03-4.08,1.6-7.37-.11-.88-.74-1.64-.62-2.57.1-.7.99-1.43,1.27-2.29.37-1.13.16-2.18.42-3.12.45-1.68,1.92-1.51,1.5-4.55-.33-2.44-2.61-3.25-3.05-4.67-.74-2.39.41-5.09-1.48-7.85-1.01-1.47-2.41-1.26-3.66-2.45-1.28-1.23-1.73-3.09-3.36-4.36-2.73-2.13-4.39-.59-7.26-.78-1.38-.09-2.7-.91-3.89-.96-1.12-.05-2.42.58-3.66.3.42-.49.96-2.7.11-2.91-2.39-.58-9.42,1.2-11.6,2.52-.73.44-1.54,1.63-2.2,1.69-1.09.11-.9-.83-1.52-1.1-2.49-1.1-6.49,3.97-8.52,4.87-.95.42-1.81.27-2.67.55-2.1.69-3,3.8-4.81,5.17-1.17.88-2.47,1.08-3.7,2.09-3.45,2.83-5.44,9.51-5.64,13.83-3.69-.7-3.37,6.25-2.67,8.63.29.99,1.72,3.12,1.7,3.76-.02.55-.79,1.09-.94,1.94-.6,3.61,1.66,8.14,4.69,10.08.41.26,1.3.32,1.37.4.18.2-.15,3.9.39,5.24.79,1.95,2.76,2.31,3.41,3.18.56.75.28,2.32.49,3.21.47,2.02,2.36,2.74,3.74,3.99l1.01,16.51c-2.5.27-5.62.78-7.83,1.99-1.04.57-1.81,1.6-2.79,2.04-1.69.76-3.23.26-5.01.79-.9.26-7.39,3.49-8.17,4.06-2.23,1.62-1.81,3.72-3.23,5.45-.92,1.12-2.69,1.63-3.69,2.75-1.71,1.91-1.52,4.17-2.49,6.2-.82,1.71-2.8,2.94-3.94,4.42-.62.81-.91,1.69-1.4,2.45-.16.25-.23.91-.72.41-.24-.25-1.52-5.68-1.85-6.68-1.44-4.41-2.95-9.6-5.62-13.37-4.74-6.68-12.78-12.2-19.22-17.17.47-2.03.05-4.34.7-6.29.34-1.03,1.06-1.4,1.21-2.65.46-3.85-.05-9.56-.33-13.52-.03-.48.25-.93-.48-.8l-13.95,13.1c.4,2.98.15,5.96.25,8.95.03.76.31,1.46.35,2.23.08,1.82-.41,7.83.82,8.83.15.12,2.71,1.32,2.87,1.32h6.28c.14-2.06-2.44-1.57-3.86-1.61l.64-3.86c-1.39.46-1.72,1.77-3.54,1.29,1.11,2.47-.89,1.49-.91.81-.01-.6-.55-2.38,1.53-4.65.35-.38,2.21-1.25,2.27-1.31.09-.07,1.25.36,1.75.34.95-.03,1.77-.83,2.75-.53.98.29,1.08,1.21,1.63,1.62,5.8,4.38,12.21,8.28,16.88,14.01,2.99,3.67,4.84,10.91,6.36,15.52,3.2,9.72,6.19,19.58,8.6,29.52-6.34-6.42-15.05-9.72-23.81-6.11-.33-2.14.54-4.21.65-6.26.3-5.21.05-11.54-.7-16.7-.54-3.68-2.09-7.08-1.25-10.82-1.23.61-1.63,1.92-1.61,3.22-.34-.06-.71-1.25-1.28-.64-.29.31.33,2.4.64,2.89l-3.22-.32c.43-.92,2.89-.21,1.88-1.88-.19-.32-3.79-.91-4.68-1.27-.86-.35-5.13-2.97-5.41-3.6-.28-.63-.03-1.55-.3-1.95-.18-.26-1.3-.39-1.85-.73-1.77-1.11-3.12-3.04-5.2-4.13-2.45-1.29-5.65-1.86-8.26-2.84,0,0-1.46.1-1.3-2.44.16-2.54,3.22-2.7,3.22-2.7,2.52-.45,4.44,1.57,6.76,1.92-.64-2.16-.23-4.65-.31-6.93-.09-2.66-.24-5.35-.32-8.04-.04-1.24-.6-2.51-.34-3.85.15-.79,3.95-3.33,4.12-4.22.21-1.1-2.85-8.79-2.51-9.12.08-.08,2.17-.41,2.25-.33.29.28,1.05,6.86,2.1,7.72l9.81-8.85-5.46-2.1.66-1.92,13.51,4.98c.73.62-.37,1.35-.34,2.09-.82-.36-5.34-2.35-5.79-1.93-.19.45.32.96.32,1.12v10.94c0,.22.73.8,1.14.17.43-.67-.1-1.96.22-2.52.4-.7,3.58-.9,4.57-2.66.85-1.51,1.07-5.15,1.63-7.06,1.51-5.14,1.83-2.13,5.08-2.97.59-.15,1.95-1.33,2.31-1.86,1.53-2.26-.13-3.11.17-4.96.13-.83,1.07-1.16,1.37-1.87.39-.91.38-2.84.1-3.79-.29-.98-2.09-2.43-2.1-3.03-.02-.7,1.19-1.78,1.27-2.94.08-1.11-.86-4-1.92-4.46-.79-.35-1.68.08-2.43-.46-.44-.31-3.02-4.2-3.04-4.72-.03-.71.57-1.05.66-1.61.38-2.36-5.44-4.99-7.06-6.11-.89-.61-1.33-1.86-2.6-1.75-.59-.62,2.81-1.64,1.64-3.39-.84-1.26-4.21-1.7-5.67-1.77-.71-.03-1.3.33-1.93.35-1.87.04-4.06-2.15-6.09-2.92-6.17-2.34-12.38-3.64-18.64-.91-.94.41-2.39,1.7-3.33,1.83-.83.11-1.93-.49-2.83-.51-3.66-.08-7.85,2.12-10.3,4.75-.86.92-1.44,2.25-2.4,3.07-3.1,2.65-6.08,2.45-7.57,7.55-.54,1.84-.19,3.76-.66,5.13-.06.18-1.33,2.06-1.44,2.12-.52.32-1.13-.34-2.04.17-3.16,1.78-1.78,9.97.76,12.19-3.11,1.06-4.05,4.05-3.4,7.1.28,1.3,1.66,2.43,1.72,3.09.07.73-1.27,1.95-1.47,2.92-.49,2.35.07,5.33,2.49,6.37.7.3,2.87.39,2.84,1.86-.01.96-2.53,7.16-3.1,8.48-.57,1.31-2.37,5.3-3.13,6.2-1.08,1.29-5.73,2.06-7.77,3.18-2.43,1.33-6.24,4.91-7.35,7.45-.57,1.31-.55,2.97-1.05,4.1-.36.8-1.72,1.95-2.27,2.88-1.87,3.12-1.04,4.4-1.38,7.62-.29,2.7-1.64,5.52-1.89,8.08-.34,3.51.78,6.53.65,9.66-.12,2.98-1.11,6.2-1.3,9.16-.46,7.01.34,14.49,0,21.55.32,1.1.58,2.89.64,4.02.97,19.2.62,41.33,5.43,59.88.21.82.99,4.01,1.3,4.43.2.28.9.28.99.19.66-.64-2.29-15.82-2.57-18.18-1.84-15.36-2.06-30.93-2.56-46.34-.69-20.97-5.6-53.23,23.97-54.83,3.6-.2,2.7.29,3.98,3.38-26.66,10.41-24.86,43.15-18.53,66.17,2.36,8.59,7.58,23.19,14.56,28.87,1.04.85,3.43,2.64,4.76,2.22,1.75-.56-.65-1.29-1.17-1.63-6.57-4.35-10.03-12.62-12.7-19.8-7.37-19.84-14.42-57.81,7.43-70.91,1.4-.84,5.88-3.17,7.28-2.68.88.31,1.99,1.78,2.92,2.25-7.39,4.86-11.34,16.9-11.9,25.42-.51,7.7,1.4,20.87,5.73,27.4.32.48,1.41,1.95,1.67.58-1.08-2.62-2.27-5.15-3.06-7.88-3.56-12.39-3.88-31.49,5.47-41.5,3.98-4.27,4.22-2.46,9-2.24,2.29.1,3.51-.58,5.87.24,9.18,3.19,15.36,13.38,22.3,19.54,3.78,3.36,7.65,4.72,11.25,7.42,6.22,4.66,3.26,11.56,3.97,17.91.15,1.36,1.34,6.57,2.48,7.17.45.23,1.38.49,1.28-.31-.14-1.14-1.08-2.72-1.39-4.08-1.16-5.1-.41-10.89-1.17-16.03,7.63,1.11,10.61,11.66,11.54,18.22.5,3.52.29,7.24,1.23,10.68,1.79,6.56,5.1.36,3-3.16-1.12-.23-.6,1.17-1.28,1.28-.52-6.44-1.81-12.86-3.87-18.98.45-.37,4.16,2.99,4.67,3.53,1.02,1.09,5.01,7.39,5.47,7.4.81.02.1-1.86-.02-2.23-1.99-6.45-7.08-8.31-11.41-12.4-1.63-1.53-2.67-3.65-4.35-4.98-1.15-.91-2.13-1.13-3.37-1.78,3.41-3.4,10.64-4.34,15.14-3.24,7.67,1.88,19.31,16.48,20.22,24.18.23,1.96-.02,3.98-.29,5.92-.61-.15-.05-1.71-1.27-.95-.93.58.59,6.53.64,7.86.13,3.42-.78,7.96-3.55,10.15.1-4.18-.22-8.41-1.19-12.49-.33-1.38-.31-3.47-2.03-2.96.6,6.86,4.74,23.82-5.67,25.06-5.77.69-14.56-1.43-20.34-2.76-13.81-3.18-27.76-8.51-40.3-15.06-6.23-3.25-12.49-6.79-17.54-11.75-.28-.1-.77.33-.8.49-.28,1.36,5.22,5.87,6.53,6.66l8.6,5.4h-6.92c-5.87,0-15.69-11.93-18.24-16.83-.74-1.42-2.11-5.82-3-6.65-.3-.28-.89-.53-1.12-.32-.28.25,2.15,6.16,2.52,6.97,4.02,8.8,11.99,18.25,22.41,18.77,2.47.13,4.91-.65,7.39-.3,1.89.26,3.26,1.7,5.02,2.23.09.45.07.41-.2.67-3.21,3.03-7.02,6.13-10.76,8.47-1.42.89-5.29,3.21-6.72,3.58-.96.24-4.83.08-5.16.48-1.18,1.46,3.37,1.7,4.32,1.57,7.1-.94,15.08-9.57,20.62-13.71l5.96,2.81c.06.43-.18.73-.37,1.07-1.39,2.47-5.09,6.71-7.04,9.05-4.33,5.21-9.38,10.69-14.65,14.96-3.93,3.19-8.3,5.75-12.82,8.03l-.2.99c13.24-3.8,23.22-14.87,31.34-25.45,1.3-1.69,3.85-6.16,5.01-7.21.28-.25.39-.44.82-.48,1.57-.16,5.63,2.29,7.54,2.27.38.44-1.6,4.76-1.96,5.57-4.36,9.75-10.16,18.69-16.05,27.55.6.5,4.15-3.26,4.67-3.85,6.85-7.71,11.32-18.78,14.97-28.31,1.42.9,4.79.87,4.84,3.04-.97,9.76-2.01,19.51-3.88,29.13.97.9,2.04-2.73,2.26-3.37,2.65-8.08,2.25-16.75,3.25-25.07.04-.3.18-1.12.49-1.18.72-.14,5.58,1.04,5.86,1.85l1.18,27.77c1.19.2,1.71-4.12,1.78-4.97.28-3.75-.24-7.82,0-11.61l-.98-11.08c.17-.15,3.45.33,3.4,1.26l3.38,26.07c1.38.36,1.64-.49,1.62-1.75-.06-3.59-.55-8.59-1.03-12.18-.54-4.04-1.97-8-1.89-12.11l10.6,1.63,5.65,24.43c.19-.33.73-.16.82-.53.25-1.01-.23-4.42-.38-5.7-.72-6.2-2.49-12.23-4.14-18.22,2.29.47,5.06-.14,7.3-.92l.58.27c3.08,6.73,4.16,14.17,6.59,21.09.27.76,1.25,3.74,2.11,3.68,1.44-.11-.57-7.07-.81-8.03l6.44,1.29c.25.26-1.96,6.13-.48,7.07,1.41.28,1.87-6.02,2.93-6.39,6.6.23,13.59,1.27,20.15.2,1.02-.17,2.58-.35,2.18-1.53-10.62-.63-21.47.02-31.79-2.97l-2.65-8.29c9.09,2.62,18.98,4.06,28.48,3.53,2.03-.11,4.74-.33,6.59-1.12-.04-1.56-12.42-1.05-13.99-1.13-2.08-.1-5-.33-7.04-.68-.71-.12-1.75-.25-2.37-.52-2.74-1.24-6.98-11.45-7.65-11.66-.44-.14-.88-.16-.8.48.39,3.28,3.33,8.03,5.14,10.79-2.37-.43-8.23-.99-9.61-3.1-.2-.31-1.55-3.59-1.59-3.9-.15-1.02,1.15-2.14,1.61-3.08,1.75-3.6,3.44-6.11,5.69-9.43l1.33-5.58c1.93,5.88,5.07,12.97,9.17,17.7.44.51,2.75,3.07,3.38,2.57-3.2-4.69-6.28-9.5-8.64-14.68-.98-2.16-4.33-10.2-4.16-12.09.15-1.72,1.33-3.94,1.5-5.92.27-2.99-1.1-5.04-1.73-7.84-1.29-5.67-1.39-11.62-3.96-16.95-.37-.76-1.81-2.36-1.9-2.88-.15-.92,1.55-7.46,1.93-8.87.95-3.48,2.34-6.77,3.29-10.23,2.54.1,1.06,1.58.83,3.09-3.08,20.28,2.28,57.95,20.14,70.85,1.66,1.2,3.88,2.64,5.9,2.95.62-.57-3.74-3.3-4.19-3.69-15.57-13.73-21.53-40.79-20.61-60.82.09-2.03.7-9.71,1.38-11.16.34-.73,2.2-1.42,2.48-1.21.28.21,1.55,5.73,1.86,6.68,1.55,4.8,3.18,9.51,6.82,13.15-.7,1.34-2.11,2.56-2.22,4.18-.11,1.67,1.29,2.87,1.29,4.14,0,1.05-1.15,2.41-1.31,3.86-.15,1.42.22,2.6.26,3.86.06,1.79-.48,2.73.42,4.8.79,1.81,6.84,7.04,8.69,8.37,4.69,3.37,9.29,3.64,13.33,8.55.45.54,1.67,2.17,1.76,2.76.27,1.76-2.5,9.89-3.06,12.36-1.8,7.85-3.35,17.87-3.69,25.91-.07,1.72-.38,7.02,1.9,3.51,2.13-13.02,2.26-26.63,6.94-39.06,4.76,4.37,2.43,8.36,2.1,13.67-.28,4.4.26,20.69,2.31,24.06.28.45.73.54,1.03.9.51.61.34,2.14,1.4.36,1.74-14.18,5.55-28.24,7.13-42.42.41-3.65,1.07-8.87.92-12.42-.08-1.79-.78-4.07-2.82-4.27,9.16-1.05,11.45,9.65,12.78,16.51,2.17,11.2,2.47,22.7,4.34,33.95.25,1.53,1.21,8.67,2.36,9.22.62.3.47-.41.44-.76-.72-9.6-1.96-20.34-3.23-29.91-1.07-8.01-2.63-15.92-4.78-23.69,5.7,1.14,9.93,4.51,13.13,9.23,1.4,2.07,4.64,7.87,4.58,10.22-.23,8.87-3.37,19.16-3.87,28.33-.08,1.46-.24,4.82,0,6.1.33,1.7,1.47,1,1.85-.38,3.7-25.24,5.97-50.77,11.49-75.69,2.72-12.26,5.34-28.18,18.83-32.81-.2,1.84,1.55,4.23,1.29,5.93-.15.96-2.77,4.04-3.48,5.23-4.92,8.38-7.96,20.44-9.94,29.96-1.07,5.15-3.35,14.94-3.35,19.84,0,3.97,3.03,4.18,5.85,5.83-.36,4.28-1.18,9.56-.68,13.8.43,3.6,6.52,6.41,8.87,8.83,2.09,2.15,2.54,3.98,2.73,6.92.15,2.23-.4,11.51.79,12.72.39.39.6.37,1.12.32,1.19-23.63-1.43-47.27-.66-70.95.16-4.75.5-9.73.98-14.46.53-5.23,1.72-10.38,2.25-15.61.43,0,2.17.17,2.27.52.26.94-.11,3.55-.03,4.8,1.63,26.66,11.79,70.94,34.16,87.79,1,.75,2.31,1.79,3.51,2.12.78-.85-3.76-4.22-4.35-4.82-19.42-19.56-28.37-53.8-30.73-80.6-.22-2.52-.57-5.61-.61-8.08,0-.39.11-1.18.29-1.5.32-.59,2.58-.77,2.86-.53.14.12.77,3.07.99,3.68,6.47,18.37,22.54,47.26,42.57,52.99,1.08.31,5.39,1.32,6.17,1.15.38-.08.6-.52.51-.91-22.91-6.35-38.42-29.52-46.26-50.75-.43-1.16-2.82-7.18-2.01-7.8.45-.34.84.47,1.04.73,1.43,1.83,2.7,4.43,4.17,6.45,6.68,9.2,17.95,21.06,28.47,25.59,2.9,1.25,6.26,2.44,9.45,2.3.12-.63-.29-.77-.74-1.03-1.46-.85-4.52-1.32-6.34-2.03-11.92-4.69-24.11-18.55-31.17-29.01-.44-.66-2.49-3.48-2.58-3.88-.15-.72.98-2.97,1.87-2.51,6.93,6.79,15.76,12.63,24.67,16.54,15.84,6.96,26.29,6.45,36.42-8.54,2.25-3.33,6.5-11.8,6.5-15.7v-6.6c6.45,1.41,10.67,3.22,11.26,10.46,1.49,18.16-11.25,49.14-22.54,63.36-7.11,8.95-11.78,11.45-21.4,16.89-3.02,1.71,2.95.44,3.97.1,23.09-7.59,41.64-54.44,42.25-76.8.05-1.75-.32-3.28-.35-4.83,0-.43-.04-.63.48-.48,1.3.38,5.84,3,7.04,3.91,5.63,4.27,8.64,14.14,10.42,20.79,5.29,19.74,9.99,47.1,11.03,67.47.3,5.97-.36,13.18.31,18.99.24,2.11,1.71.72,1.93-.68.57-3.6.46-9.45.35-13.18-.35-12.66-3.51-25.78-3.54-37.93-.04-14.38.95-34.24,6.5-47.55.47-1.12,2.11-4.35,1.76-1.13-1.38,12.67-3.6,21.87-1.05,35.01.27,1.41,2.37,8.08,2.32,8.52-.02.17-1.75,2.1-2.08,2.63-6.55,10.5-2.25,24.59,3.1,34.74.87,1.64,4.39,6.46,4.55,7.69.34,2.47-2.59,2.75-4.02,3.99-1.61,1.39-2.16,4.53-.64,6.12,4.79,5.01,26.49,4.89,31.67.46,2.2-1.88,2.05-5.08-.31-6.72-.96-.66-2.49-.42-2.03-2.03.75-2.63,5.46-6.02,7.36-8.11,2.44-2.69,5.18-6.99,6.28-10.45.32-1.01,1.07-5.73,1.31-5.93.35-.3,2.65.07,2.76.75.18,1.14-1.29,7.49-1.5,9.35-.48,4.47-2.05,22.4.04,25.36.27.38.37.64.92.53.82-11.59.6-23.3,2.74-34.74l8.79,13.42c-.13,6.13-2.34,12.9-2.54,18.9-.04,1.09-.05,1.96,1.31,1.77,1.74-9.62,4.01-19.16,5.42-28.85.83-5.73,3.06-19.71.5-24.52-.47-.9-2.04-1.86-1.58-2.92,2.59.95,5.68,1.52,7.74,3.52,6.47,6.28,7.57,29.5,7.89,38.44.07,2.02-.32,13.28.15,14.01.17.26.59.46.8.32.19-.13.6-3.98.64-4.67.68-10.39-.03-20.8-1.38-31.1l-2.96-13.45c2.34.57,7.64,3.85,8.37,6.13.3.92-1.02,5.69-1.13,7.22-.38,5.73,1.28,6.29,6.13,8.41-.47,5.78-2.26,11.54-2.59,17.32-.33,5.7.85,4.75,3.86,8.36.5.61,2.63,5.14,2.92,1.93.3-3.25-3.98-4.6-4.41-7.23-.55-3.45,9.37-6.03,11.46-8.06.08,4.56-.78,9.42-.32,13.99.07.74.3,2.39,1.44,2.09l.82-6.26c-1.19-13.81,2.86-27.08,2.56-40.87l1.6-11.42c.35,13.48,1.2,27.01,3.65,40.27.83,4.5,1.81,9.35,3.43,13.62.13.35,2.05,5.6,2.9,4.66-2.95-12.12-5.49-24.39-6.76-36.84-2.38-23.45-2.71-51.93,8.95-73.08,2.85-5.17,5.35-8.79,11.25-10.63,11.35-3.54,23.39,1.13,29.81,10.87,9.26,14.04,13.87,35.94,9.95,52.35-.12.52-.23,1.81-.74,1.99-1.02-14.81-2.79-31.5-10.25-44.61-.48-.84-3.76-6.45-4.88-5.57,6.67,10.1,9.81,22.09,11.54,33.98.55,3.76,1.06,7.75,1.33,11.54.37,5.07-.18,11.17.69,16.04,1.03,5.78,6.19,10.84,3.82,17.25-.91.65-4.05-4.16-4.66-4.83-6.5-7.09-12.05-11.6-17.81-19.84-.86-1.23-5.09-8.36-5.52-8.63-1.39-.89-.63,1.42-.39,2,3,7.08,11.95,18.26,17.59,23.59,4.98,4.71,9.27,6.77,11.91,13.83,1.32,3.53.06,6.09-.48,9.65-2.06-1.93-8.86-11.83-11.1-12.23-1.3-.23.26,1.77.49,2.09,3.35,4.66,7.55,8.01,9.89,13.6.8,1.91,1.92,7.2,2.83,8.43.71.96,1.51.58,1.7-.55.21-1.27-.73-3.57-.91-4.9,1.45.35,5.63-1.02,6.61-.01l2.56,5.48c1.65-.99-.76-6.12-.48-6.43l4.04-.88c1.07.2,1.47,7.43,3.04,8.28h.64c1.42-3.09-1.09-6.14-1.3-8.85-.12-1.56.64-2.49.68-3.86.04-1.41-.75-2.92-.69-4.18.07-1.39,2.09-3.36,2.58-5.17,1.88-7-2.84-13.99-2.57-20.91.26-6.63,3.22-12.89,4.37-19.11.21-1.11-.12-2.33.47-3.23v-1.93c-.44-1.24-.44-2.53-.8-3.86ZM90.75,292.51c.27,2,.26,4.36-2.31,4.25-4.54-2.77-9.42-5.08-14.46-6.8-.53-.18-1.7-.16-1.83-.26-.1-.08-.6-2.26-.21-2.53,3.33,1,6.81,2.89,10.14,3.69,1.7.41,4.34,1.21,5.44-.69,1.21-2.11-2.04-1.22-2.55-1.54-.46-.29-1.37-2.69-1.93-3.24,3.1-1.12,7.35,4.57,7.69,7.11ZM115.42,213.81c1.42,1.51,1.99,5.95,4.97,4.84.22,1.04-1.33.86-1.61,1.45-.68,1.46,1.44.34,1.61.48-.73,2.61-3.2-.29-4.83.48.46,1.57,2.39,1.65,3.4,2.72,1.05,1.11.82,2.97,2.4,3.24.02.58-1.41.35-1.74.29-1.12-.2-1.96-.91-3.09-.93.68,1.96,2.94,2.86,4.82,2.25.62,1.35-2.16,1.36-2.22,2.09-.02.33,2.04,3.48,1.25,4.67l-1.27-2.43-5.16-3.52c0-.13,2.23-1.72.79-2.09-1.09-.28-1.69,2.26-4.31.78-2.73-1.55-2.92-6.98-3.27-7.19-.09-.06-.91-.05-.94-.02-.15.14.04,2.98.14,3.56.43,2.38,1.86,3.77,3.39,5.45-4.94.41-9.91-3.51-10.62-8.36,1.26.73,2.44,2.44,4.02,2.25.27-.03.23-.63.17-.81-.08-.27-3.53-1.8-3.85-3.88-.12-.79.41-3.94-.82-3.68-1.78.38-1.23,5.58-1.45,5.79-.07.07-1.96-.16-1.93.48.02.44,2.55.99,2.24,2.09-2.68.06-6.09-.36-7.47-2.99-.46-.88-.83-4.97-2.18-4.09-.69.45,0,2.76,0,3.38-.02,4.18-.82,7.89-5.14,9.49-.22-.28,1.64-4.64.63-5.47-1.13-.93-1.22,1.95-1.45,2.57-.74,2.08-2.42,3.28-4.66,2.9-.04,1.08,1.09,1.4,1.93,1.29-.34.69-.73,1.34-.98,2.08-.23.69-.67,3.94-1.36,2.35-.67-1.55.11-2.59.11-3.94-.02-4.03-1.98,1.82-2.31,2.22-.46.56-1.1.51-1.57,1-.3,1.08,1.75-.44,1.28.63-.57,1.3-3.53,2.75-2.57,5.31-2.77-.78-1.01-3.52-.97-5.47l-1.75,1.3-.81,2.24c-.54-1.6-.64-4.31.98-5.28.85-.51,2.54-.37,2.55-1.79-3.35.69-5.11.49-6.44-2.89,1.81-.75,5.19-2.12,3.86-4.51,2.98-.11,6.36-1.33,8.91-2.84,1.54-.91,3.54-1.88,3-3.92,2.15.22,11.61-2.21,12.4-3.86.25-.52.1-1.55.16-1.61.19-.2,4.45.46,5.63.33,1.99-.22,4.03-1.74,5.83-1.91,1.01-.1,1.78.33,2.5.27,1.74-.14,3.53-.83,5.34-.61-.16.71-1.68-.03-1.61,1.12.94,1.42,2.95,1.57,4.04,2.72ZM59.65,242.58c.34.41.69,1.35.95,1.53.28.2.93-.02.98.09.09.21-.64,3.86-.78,4.45-2.25-.25-1.67-1.75-2.22-3.31-.49-1.38-1.17-2.7-1.5-4.14-.19-.82-.72-6.41-.41-6.52.18-.06.82.36,1.21.25.67-.2.98-2.73,2.07-1.68.11.11,1.01,2.79.95,2.94-.22.49-1.89.89-2.27,1.54-1.47,2.48-.3,3.27,1.02,4.85ZM57.97,231.77l-1.15,2.29c.52-5.18,5.12-5.81,5.38-.31-.98-1.38-2.47-3.66-4.23-1.98ZM60.12,227.73c-.94.16-3.86,2.04-4.42.73.28-.6,5.59-2.41,5.15-2.73l-3.22.16c1.94-1.57,4.13-1.99,6.59-1.77.41.04,2.95.53,3.06.64.49.49-.2.57-.41.73-2.88,2.28-3.58,1.7-6.76,2.24ZM54.09,226.37v-1.93s-.97.48-.97.48c-.31-2.89.96-5.4,2.73-7.56.31-.37,3.06-3.26,3.38-2.89-.04,4.79-1.5,8.76-5.14,11.9ZM63.42,216.72l-1.13.64c-.57-2.74,1.41-5.23,3.05-7.25l5.16-3.69c-.14,3.08-1.52,6.53-3.53,8.85-1.05,1.22-4.85,3.39-4.04,4.98.94,1.84,5.26-.95,6.93-.65-.07-1.53-1.34-.8-2.19-.73-.35.03-1.09.38-1.03-.23,2.88-1.54,5.52-2.01,8.82-1.59,5.25.67,1.33,2.83-1.2,3.89-2.13.89-4.8,1.5-7.11,1.2-1.92-.24-3.98-1.75-5.98-.94-.07-2.06,2.53-2.54,2.25-4.5ZM92.07,206.1c1.45.16,3.28-.22,4.67,0,1.82.28,4.08,2.16,5.95,2.58.7.93-4.85,1.43-5.31,1.42-3.22-.03-5.91-1.31-8.85-2.39,0-.79.95,0,1.12,0h4.67c-.23-1.62-1.72-.45-2.25-1.61ZM90.46,211.89c.53.72-2.11,1.9-2.58,2.08-4.59,1.79-8.41,1.17-12.87-.48l4.83-.64c1.05-.85-2.82-.59-2.57-1.28,4.55-1.59,8.75-1.59,13.19.32ZM74.69,210.6l1.93-3.53c-.56-.53-2.66,2.54-3.06,2.89.23-3.51,3.24-6.82,6.38-8.42,1.31-.67,2.74-.97,4.08-1.55-.95,4.74-4.73,9.08-9.33,10.61ZM113.63,208.03c-3.51-.19-6.95.98-10.2-.9l-3-1.99h3.86s-.55-.9-.55-.9l-2.34-.71c4.64-2.1,8.9,1.68,12.23,4.5ZM97.38,198.06h7.89c-3.58,4.3-9.64,6.27-15.13,6.43l.33-.96h-.97c.94-1.6,2.31-3.04,3.97-3.92.46-.25,3.7-1.55,3.92-1.55ZM45.72,218.65c.44-.57,1.33,1.82,2.41,1.61.43-.08.97-5.05,2.58-5.47.08.41.71,3.66,1.62,2.26.77-1.18-.6-5.15.15-6.77l-1.29.48c.43-2.1,1.27-3.75,2.9-5.15.4-.34,2.63-2.18,2.54-.98-.25,3.34,1.1.3,1.8-.47.7-.77,4.4-3.14,3.71-3.85l-1.29-.48c1.86-2.19,5.29-4.05,8.21-4.05.69,0,1.31.33,1.93.34,3.96.09,5.7-2.61,9.09-3.14,1.01-.16,7.31-.13,7.81.25.66.5-.25.56-.46.67-1.09.57-2.35.81-2.76,2.22.54.4,8.41-2.4,9.66-1.28.61.55-.9.84-.97,1.13-.18.76,1.02.55.96,1.12-2.09.47-4.1,2.09-5.46,3.71-1.37,1.63-2.35,4.84-4.84,4.82.4-1.52,5-8.1,1.75-8.53-1.52-.2-9.65,4.28-10.89,5.51-.81.81-1.24,1.99-1.97,2.86-.31-1.25.12-2.1-1.58-1.92-2,.2-10.38,6.79-10.17,9.64-.74-.24-.39-1.59-1.43-1.61-2.2-.05-8.41,8.08-8.54,10.62-.63-.2-.7-1.78-1.48-1.91-2.21-.35.74,4.17.85,4.97.13.96-.94.17-1.29.64l1.61,2.73c-4.62-.69-5.42-6.1-5.15-9.97ZM42.76,267.32c2.26-3.86,4.29-7.97,5.86-12.16.48-1.27,1.14-4.73,1.63-5.45.66-.97,3.35-.7,3.52-2.29.2-1.8-1.73-.13-2.91-1.59-.74-.92-.29-3.25-1.62-2.28-.83.61-.25,3.12.66,3.71-2.95-.36-2.61-3.56-2.26-5.79-.58.25-1.22.61-1.61,1.12-.52.66-.39,1.48-.95,1.78-.18-1.59.14-2.99.96-4.35.34-.27,1.15,1.03,1.83,1.08.38.03,1-.51,1.05-.8.09-.51-2.84-2.7-2.54-5.4.08-.71.74-1.69.62-2.28-.19-.98-1.46.33-1.63.62-.42.74-.04,1.6-.62,1.79-.51-1.92.94-5.77,3.3-5.41.2.03,3.59,1.3,3.77,1.41.49.29.65.98,1.18,1.39.39.3,1.65.64,1.7.72.19.27-.88,3.18-.94,3.99-.11,1.45.29,2.62.32,4.02-1.05-.1-.83-4.81-1.89-3.02-1.08,1.82,1.1,4.45.93,4.63-.54.55-.68-.42-.8-.63-1.16-1.99-2.86-4.57-1.45-6.76-4.5.04-.85,7.62.85,8.96,1.48,1.17,3.41.29,3.67.49.98.78.25,4.83,3.84,6.15.49.18,1.56.1,1.62.15.3.28-.78,6.66-.61,8.17.41,3.48,8.09,12.82,10.93,15.13.68.55,3.15,1.83,3.42,2.21.23.32.95,3.49.91,3.94-.05.6-.81,1.58-1,2.38-.48,2.13,0,1.25.79,1.8.68.47.41,1.89,1.48,1.43.97-.41.16-2.75.64-3.53l4.99,5.79c-3.34-1.49-8.58-1.99-11.67-3.61-3.94-2.06-5.01-4.94-10.7-5.39-2.97-.24-5.73,1.41-7.05,1.28-.79-.08-3.27-1.36-4.45-1.69-3.8-1.08-8.29-2.07-12.15-1.2-.08-.38.04-.62.18-.94,1.14-2.75,4.52-6.71,6.19-9.58ZM50.23,285.24c-9.34-.95-17.38,2.58-23.34,9.65l-4.34,6.76c-1.1-3.94,1.48-7.67,1.89-11.45.32-2.9-.52-5.68,1.81-8.17.36.51.43,1.88,1.42,1.27.44-.27.32-3.47.44-4.23.82-5.55,6.14-10.27,11.5-11.19-.58.89-2.67,5.56-3.37,5.66-.6.09-1.04-.65-1.75.32-.96,1.31-.4,2.9-.67,4.1-.07.3-.97.05-.65.85,3.08,1.34,6.31.7,9.45,1.01,2.82.28,5.77,1.69,8.57,2.22-.19,1.21-1.3,1.83-.97,3.21ZM51.98,287.83c-.55-3.47,2-5.62,5.25-6.04,5-.65,13.69,2.81,12.55,9.01-1.11,6.06-16.65,4.31-17.8-2.97ZM109.06,322.65c-.32,1.03-2.54,1.86-2.99,3.12-1.14-1.08-1.8-2.73-3.08-3.67-1.39-1.02-3.79-1.33-4.94-2.46-1.19-1.16-3.34-6.75-4.68-8.83-1.55-2.4-6.18-8.37-8.87-9.15-.43-.13-.6.04-.47.47.27.92,5.04,5.4,6.18,7.01.89,1.26,1.93,3.04,2.67,4.41.48.89,1.33,2.21,1.28,3.22-1.76-1.44-4.09-2.69-5.64-4.33-1.48-1.56-2.45-3.77-3.86-5.47-2.48-2.98-7.46-7.13-10.76-9.19-.8-.5-4.5-2.06-4.64-2.28-.66-1.04.72-.95,1.16-1.34.45-.39.96-2.1,1.27-2.17,2.68-.68,11.16,4.02,13.72,5.54,5.36,3.18,10.43,6.96,13.68,12.39,2.41,4.03,3.62,8.9,5.84,12.82.25.44.27.93.98.79.04-2.75-.59-5.67-1.6-8.21-.68-1.7-1.75-3.04-2.41-4.66-.78-1.89-.98-3.9-1.63-5.77-.42-1.21-1.77-4.73-2.44-5.6-.3-.39-.51-.69-1.08-.52-1.31.39,1.15,4.71,1.12,5.79-.78-.79-3.87-3.27-4.11-4.09-.3-1.01.06-2.58-.11-3.76-.22-1.57-.78-3.11-.92-4.7,3.95.83,5.15,1.87,7.34,5.05,2.88,4.17,9.48,17.4,9.41,22.15-.01.7-.23,2.87-.41,3.46ZM104.67,300.47c-.99-1.39-1.68-3.03-2.68-4.39-1.12-1.52-3.28-2.63-3.16-4.72,2.11.49,2.96,2.77,4.82,3.7,1.48.74,3.19.89,4.82.82.99,5.4,1.59,10.88,1.62,16.39l-5.41-11.8ZM131.47,306.96c1.45-4.54,4.16-8.93,8.54-11.1-.6,1.35,1.15,4,.92,4.92-.17.66-4.12,4.02-4.92,5.07-1.14,1.5-2.15,3.77-3.08,5.44l-1.46-4.34ZM140.98,335.43l-2.59-3.68-1.91-8.54c3.73,2.8,3.84,8,4.5,12.22ZM142.04,302.53c-.2,1.18-1,2.33-1.38,3.46-1.53,4.49-2.86,9.3-3.53,14-1.24,1.43-3.68-5.79-3.49-6.84.78-1.64,6.89-11.74,8.15-11.5.63.12.3.59.25.88ZM226.16,276.67c.93.93,1.77,3.47,2.18,3.78.54.41,1.8.31,2.62.59,3.48,1.19,7.74,2.72,8.51,6.77-1.15-.27-1.21-1.42-2.57-1.77-6.56-1.72-15.26,7.18-19.33,11.58-5.76,6.23-10.62,13.37-17.04,18.99-2.42,2.12-10.12,7.83-12.94,8.62-2.17.61-1.87-.97-3.16-2.5-2.17-2.57-5.24-4.48-6.75-7.56,8.45-.68,15.94-5.73,22.06-11.25,8.77-7.92,14.96-19.02,26.53-23.35,1.14-.89-.66-1.17-1.42-1.12-8.26.52-20.03,17.59-26.41,23.16-4.81,4.2-15.75,10.97-22.2,10.94-4.15-.02-4.2-4.39-7.08-4.21-1.82.11-2.89,3.22-3.21,3.24-1.43-1.18-3.92-2.1-5.2-3.32-2.12-2.02-3.72-6.4-5.53-8.82-.34-1.22,1.04-1.83,1.71-2.65,3.64,3.9,8.87,8.36,14.49,8.68,9.88.55,24.1-15.81,31.37-22.04,5.3-4.55,16.6-14.53,23.39-7.76ZM171.06,283.93c2.35-3.69-.12-17.53-.46-22.34-.33-4.75-.35-9.54-.32-14.31,4.26-.44,2.68-.14,3.7,3.21,1.58,5.2,3.59,6.58,8.44,8.61,3.99,1.67,8.31,2.61,12.4,4.01,2.36.81,4.47,2.55,7.32,2.18-1.29,1.52-3.76,1.94-4.18,4.18,1.81.13,9.13-5.34,9.97-4.5.53,3.98.23,8.03.94,12.01-3.07,2.51-6.35,4.81-9.31,7.45-1.94,1.74-4.31,4.9-6.33,6.22-2.87,1.88-13.95,3.43-17.65,3.59-5.46.24-10.92-2.41-15.92-4.34,0-.23,2.62-2.85,3.02-3.41.83-1.15,1.44-2.98,2.27-3.85,1.11-1.17,3.68-1.83,4.85-3.2.99,1.58.29,3.45.16,5.14.54.1.85-.27,1.1-.66ZM171.24,224.44c-1.02-.99-1.69,3.21-3.22,1.45,1.38-1.25,5.04-6.08,5.14-7.74.03-.45-.42-1.27-.31-1.41.07-.1,1.64-.72,2.22-1.17.57-.45,2.78-3.04,3.24-2.71,1.3,2.78,2.01,5.51,0,8.2-.33.44-3.37,3.12-2.89,1.62.38-1.2,1.46-2.18-.17-3.38-1.13-.23-.68,2.02-.86,2.67-.2.69-1.71,1.4-1.55,2.47.42.15,2.5.54,2.58.65.1.14-.46,2.38-.33,3.38.1.77,1.45,3.34-.5,1.79-.88-.7-.7-2.42-.78-3.41-.02-.27.18-1.11-.48-.8-1.27.61-1.23,5.34.8,5.47.09.52-.42.33-.73.25-4.07-1.08-1.86-7.03-2.16-7.33ZM176.48,204.42c-.5.12-1.14.22-.4-.4,3.08-2.32,7.17-2.78,10.6-.98-.02.46-6.15,4.02-6.91,4.02h-5.63c.6-.93,4.51-1.7,4.83-2.41.71-1.58-1.98-.35-2.48-.23ZM189.28,197.89c-.49-.32-1.36-.11-1.94-.15.09-.48,1.47-.83,1.85-.89,2.35-.32,5.48-.15,7.81.25l-2.99,2.31c-3.11,1.7-5.6,1.31-8.92.57-.08-.45.57-.47.89-.55.38-.09,5.01-.45,3.3-1.55ZM170.84,296.1c5.79.98,11.73-.74,17.46-1.52-6.57,6.76-14.18,12.66-23.71,7.13-1.24-.72-5.62-4-6.18-5.08-.86-1.65.11-3,.45-4.63,3.83,1.37,7.96,3.42,11.98,4.11ZM213.47,229.19c-.4,1.63,1.37,3.56,1.38,5.26l-6.28,17.17c-.03.53-.05.54.47.47.67-.09,4.5-.82,4.69-.63,0,.62.22,1.65-.53,1.88l-13.31,1.66c.07-.42-.14-1.76.02-1.92.18-.19,4.47-.51,5.29-.67.42-.08.56.24.48-.46l-7.23-17.52c-.19-1.21,2.06-4.22,1.95-5.34-.14-1.43-5.37-7.08-4.99-8.31.12-.4,1.1-1.04,1.43-.56l4.5,6.46,4.67-10.93c-.75-.22-4.92-.44-5.13-.66-.15-.16.06-1.49-.02-1.92,1.43.28,11.55,1.15,11.86,1.66.22.36-.04,1.38.04,1.88l-4.5-.64,4.02,10.93c.34.51.52.18.8-.16.56-.67,2.88-4.98,3.38-4.98.16,0,.81.76.81,1.12,0,.85-3.49,4.94-3.8,6.2ZM219.2,207.38c-.79.06-1.39-.69-1.93.17,1.2,2.88,2.6,5.6,2.25,8.84-.64-.13-.55-.66-.64-1.13-.52-2.78-.89-4.63-2.08-7.25-.2-.44-1.9-2.37-.67-2.23,1.03.12,2.6.56,3.07,1.6ZM194.67,191.63c1.55-.71,5.07-.94,6.83-.97l-1.61.64c-.1.75.02,1.16.81,1.29,2.55.42,7.3-3.17,9.81-.5.53.56.15,1.27.39,1.71.25.44,1.86.41,1.54,1.36-.94-.48-2.18-.13-2.99-.31-.25-.06-.5-.89-1.07-1.26-.6-.39-4.35-1.76-3.98-.2.13.56,2.88,1.05,3.54,1.13.18.17-1.5.88.21,1.88,1.82,1.08,5.39.54,6.23,3.26l-1.61.48,4.5,4.02c-.62-.1-3.7.15-3.85,0-.31-.33.53-2.2-2.26-1.6l.64-1.28c-.99.03-1.79.1-2.69-.36-1.05-.55-2.34-3.97-3.27-2.54-.57.87,2.7,4.66,3.39,5.47-2.66.61-9.68-2.32-9.67-5.3,0-.63.44-1.29.35-1.93-.25-1.8-6.19-2.03-7.74-2.1.53-.45,2.16-2.72,2.51-2.88ZM182.56,193.77c2.66-3.62,7.47-5.41,11.85-5.68-2.68,5.01-7.76,7.47-12.45,10.24-.12.02-1.33-.56-1.38-.62-.17-.24,1.6-3.42,1.97-3.94ZM178.96,192.59c-.55,4.53-3.06,9.08-6.6,11.9l.16-2.57-1.6,1.93c-.64-5.05,3.46-9.75,8.04-11.26ZM173.16,210.11c.65-.16,4.14-.91,4.19,0-2.43,3.76-6.31,5.75-10.61,6.59l2.57-2.73-1.61-.32c1.27-1.88,3.27-3.01,5.46-3.55ZM163.52,208.51c.45-3.17,3.56-6.3,4.83-9.17l.66,4.34c.16,4.01-2.24,6.93-3.57,10.46l-.32-1.6-1.61.64c.15-1.47-.2-3.25,0-4.66ZM164.96,220.57c1.49-1.38,3.61-2.26,5.64-2.24l-3.52,5.97c-1.02.9-2.55,1.11-3.88,1.11l1.93-3.21-2.09,1.61c-.23-.95,1.15-2.51,1.92-3.22ZM155.47,218.32c2.04,1.7,3.69,3.8,4.35,6.43.2.79,1.27,5.9-.49,5-1.01-.52-3.86-5.39-3.86-6.44v-4.99ZM156.44,230.55c4.2,1.52,3.13,3.86,4.18,7.4-2.92-.89-4.07-4.63-4.18-7.4ZM161.26,221.86c-.5.51-.56-.2-.72-.42-.37-.53-1.69-2.58-1.79-3.03-.35-1.56.8-2.4.58-3.95l-1.28,1.61c.19-3.24,1.59-6,2.58-9.01l1.3,7.22c.07,1.18-.04,6.94-.66,7.57ZM167.04,230.32c-1.38-.98-3.54-2.64-4.65-.47l-.33,2.54c-1.22-5.06,2.91-7.17,4.98-2.07ZM167.38,252.42c-1.22-.97-.97-2.8-.96-4.18l1.12,1.89-.16,2.29ZM168.02,248.24c-.57.12-.71-.38-1.19-.53-.73-.24-1.5-.53-2.33-1.25-1.74-1.51-2.52-2.88-2.27-5.29,2,1.34,3.23,2.97,4.7,4.79.59.73,1.49.65,1.09,2.28ZM167.44,242.47c-.92-1.14-1.99-2.16-2.79-3.41-.45-.71-2.79-5.82-2.53-6.02.15-.12.89.07,1.22-.17.57-.41.02-2.9,1.41-2.27.14.06,1.88,2.3,1.86,2.46-.04.53-1.49,1.46-1.64,2.2-.57,2.83.8,3.18,2.56,4.24.46.28,1.1,1.05,1.41,1.13.33.09.87-.33.96-.24.15.17.67,3.85.73,4.46-2.21.51-2.15-1.1-3.19-2.39ZM169.63,274.3c.02,1,.15,2.32-.62,3.07-.71.7-1.61.34-2.51.7-2.5,1.01-7.09,10.6-8.57,10.36-2.28-1.77.4-3.61,1.09-5.45-1.23-.97-3.06,4.43-4.5,2.41,3.02-6.21,8.03-10.5,15.12-11.1ZM148.94,282.09c.77-.19,1.59.1,2.34-.24,1.21-.54,2.64-3.63,4.83-3.37.66.71-3.75,5.17-3.25,6.72-2.78-.3-4.3.38-6.64,1.57-.35.18-.59.61-.9.07-1.08-1.89,1.94-4.35,3.62-4.76ZM146.94,301.03c-8.9-.18-3.67-13.22,4.29-13.78,5.89-.42,6.05,5.12,3.66,9.16-1.6,2.7-4.74,4.69-7.95,4.62ZM157.73,318.37c-1.81-3.86-3.58-7.76-4.67-11.9-.45-1.7-1.79-4.83.48-5.47,1.98,4.94,5.98,10.4,10.95,12.55.1.46-.36.34-.69.42-2.33.56-3.29.35-4.91,2.49-.46.61-.53,1.61-1.14,1.91ZM188.96,400.59c-.05.48-.07.99-.65,1.11-.75-3.33-.49-6.5-.63-9.83-.03-.76-.32-1.46-.35-2.23-.18-5.53-.09-11.43.34-16.9l4.03,6.26c-1.27,7.15-1.94,14.37-2.73,21.58ZM195.62,349.82c.49,1.91-.08,6.41-.28,8.57-.53,5.57-1.62,11.16-2.86,16.61l-10.25-13.39c-.16-2.92-2.03-2.62-3.74-3.98-1.11-.89-1.62-2.27-2.95-3.16-1.46-.98-3.5-1.38-5.15-2.25-2.45-1.3-10.81-7.59-11.55-10.01-.2-.64-.18-1.28-.14-1.94l2.25.32c-1.35-1.98-3.95-5.53-1.29-7.4.21,1.16,1.43,2,2.58,1.93-.43-3.22-5.25-6.92-2.53-10.41,1.18-1.51,1.82.64,2.68,1.42.62.57,1.16.65,1.69,1.05.5.37.54,1.61,2.02,1.19.45-.4-5.33-6.97-5.64-8.03-1.15-3.83,2.62-4.89,5.64-3.87-.03.81-1.91-.23-1.6.79.69,2.35,12.45,10.34,14.48,8.85-.75-1.96-3.42-2.33-4.68-3.85-.63-.75-.97-2.33-1.19-2.51-.43-.36-1.99-.46-3.03-1.48-1.19-1.16-2.71-5.71-1.38-6.61.48-.32,1.31.06,1.82.65.07.05.14.11.21.19.6.67,1.44,1.09,2.08,1.74.19.19.36.38.54.58,2.63,1.26,3.27,3.25,5.29,5.34,1.4,1.45,3.55,2.78,4.65,4.36,1.15,1.63,2.97,6.99,3.49,9.06.61,2.45.57,5.99,1.55,8.1.69,1.47,3.36,3.26,4.64,4.7.53.59,2.51,2.91,2.65,3.46ZM240.82,302.83c-6.7,9.09-7.38,21.91-10.45,32.51-5.89,4.75-13.28,8.43-17.28,15.05.25.46.83.02,1.13-.16,2.6-1.51,7.46-5.66,9.96-7.74,2.08-1.74,3.96-3.64,5.96-5.46l-2.72,15.13c-.18.26-.29.28-.59.26-.96-.07-2.53-.85-3.91-.93-.58-.03-2.92-.19-3.07.5-.29,1.38,6.59,1.46,7.05,2.95.14.45-1.06,8.18-1.28,9.25-.08.39-.15.77-.62.83-3.05-7.24-8.2-12.78-15.45-15.92,6.65-9.04,11.42-19.67,15.13-30.24.99-2.83,2.2-5.91,2.57-8.85-.72-.82-3.07,4.5-3.27,4.93-3.26,6.99-5.18,14.55-8.79,21.46-.77,1.47-7.07,12.39-7.8,12.56-2.31.52-2.67-1.68-4.13-2.9-1.15-.96-4.42-2.58-5.86-2.83-1.91-.32-3.65.83-5.08-.39-3.24-2.76-2.62-7.37-3.72-11.08-.46-1.57-1.32-2.99-1.84-4.54,2.32-1.4,5.01-2.06,7.42-3.43,5.58-3.16,12.44-9.94,16.8-14.73,4.93-5.4,14.61-19.28,21.7-20.77,5.37-1.13,10.42,5.1,12.57,9.35-1.32,1.87-3.08,3.34-4.45,5.19ZM326.05,223.15c-1.05-2.56.37-4.62.64-7.08,3.59.57,4.98,4.58,5.47,7.72l-1.92-.97c.28,2.24,2.4,4.08,1.28,6.43-1.06-.24-.32-3.19-1.76-2.57-.77.33-.17,4.52-2.09,5.14.33-.78-.6-4.57-.33-4.83.1-.09.99.07,1.29,0,.15-1.4-.62-2.65-.67-4.02-.02-.61.78-3.82-.63-2.91l-1.27,3.06ZM332.56,242.23c-.68,1.31-1.65,2.43-2.46,3.65-.92,1.38-.71,2.97-2.96,2.67,0-.61.19-4.33.32-4.51.07-.1.66.27.98.15.3-.11.86-.94,1.3-1.26,1.66-1.21,2.99-1.7,2.17-4.46-.21-.72-1.74-1.52-1.83-2.04-.03-.16,1.5-2.54,1.63-2.62,1.32-.76,1,1.77,1.61,2.13.35.21,1.07-.05,1.23.06.28.18-1.59,5.48-1.98,6.22ZM334.53,235.36l-.56-2.5c-1.3-2.06-3.3-.21-4.59.89,1.59-5.27,5.9-3.54,5.14,1.61ZM334.42,225.08v-7.56c0-.22,2.32-2.95,2.74-3.38,1.24,3.64.37,8.45-2.74,10.94ZM332.78,202.7c.12-.24.13-1.04.67-.46.14.15,1.03,3.35,1.14,3.85.67,3.1.81,7.17-1.46,9.66-1.23-4.63-2.75-8.39-.35-13.05ZM330.88,215.43c-3.91-1.77-7.63-5.18-9.01-9.32,3.05.08,6.97,2.23,7.4,5.47-.06.08-1.53-1.09-1.93-.48,1.28,1.37,2.9,2.5,3.54,4.34ZM324.77,193.23c.39-.41,2.12,1.9,2.38,2.28,2.26,3.22,2.93,7.06,2.12,10.91l-4.2-7.22c-.68-2.04-.76-3.88-.3-5.97ZM323.47,201.12c.07.17.04.29-.06.43-.07.09-.78-.08-.58.52l2.25,2.09c-4.65-.83-9.31-3.2-11.26-7.72,3.61.84,7.12,1.78,9.65,4.67ZM312.4,234.42l-8.56,19.29h6.76v1.93h-17.06v-1.93h6.76c-2.24-6.49-5.53-12.62-8.31-18.9-.55-1.34,2.24-5.04,2.05-5.9-.53-1.3-5.67-7.15-5.67-7.86,0-.64,1.11-1.07,1.62-1.44l4.99,7.07,5.63-12.22h-5.79v-2.25h14.81v2.25h-5.79l5.15,12.22c.48.36,4.6-6.26,5.14-6.61.63-.41,1.39.32,1.94.67-.03,1.17-5.42,6.54-5.75,8.11-.21,1.02,2.22,4.22,2.07,5.56ZM313.5,188.41c3.74,1.38,8.57,3.7,8.36,8.36-1.4-.81-3.65-1.01-4.84-2.08-.68-.61-3.95-5.74-3.52-6.29ZM314.14,194.52c-.88,0-2.88-.19-3.4.64-.77,1.25,2.24,3.5,1.79,3.86-1.77,0-2.94.79-4.83.32.14-.45,1.34-.9,1.28-1.45-.1-.92-2.18.57-3.33-.19-.68-.45-1.6-3.18-2.29-3.18-.2,0-.77.77-.8,1.13-.21,1.98,2.17,3.82,3.22,5.3-2.76.17-7.49-.48-8.87-3.19-.26-.5-1.25-4.54-1.91-2.28-.37,1.27-.25,2.45.48,3.55-1.74.09-3.75.23-4.48-1.72,2.06-2.12,2.99-2.91-.34-4.23,6.66-6.19,17.74-5.59,23.49,1.44ZM291.29,187.44c-1.2,3.03-3.87,6.68-7.28,7.36-.85.17-.32-.92-.45-1.25l-1.28.97c.83-4.02,5.38-6.13,9.01-7.07ZM279.73,201.13c.24-.38-.04-.79.26-1.3,1.37-2.25,7.09-4.26,9.69-4.34-2.53,4.06-7.12,6.89-11.91,7.39.31-.85,1.52-1.08,1.96-1.75ZM276.03,195.19c.32-.5,2.59-3.23,2.87-3.24.35,0,.46.78.5,1.1.44,3.87-2.38,7.57-4.52,10.47.42-1.33-.92-.81-.99-1.14-.4-1.85,1.11-5.6,2.14-7.2ZM270.21,201.28c1.99,4.05,1.51,8.96-.07,13.12-.15.41-.19.94-.73,1.03-1.72-4.73-1.77-9.72.8-14.15ZM265.54,214.62c.03-.35-.18-1.07.48-.8.44.19,3.06,3.92,3.06,4.34v5.63c-2.98-1.98-3.79-5.79-3.54-9.17ZM273.91,233.44c-1.28-1.1-3.28-2.95-4.59-.89l-.56,2.5c-.75-5.15,3.55-6.88,5.14-1.61ZM273.2,245.57c-.81-1.22-1.79-2.33-2.46-3.65-.39-.75-2.25-6.05-1.98-6.22.16-.1.88.15,1.23-.06.6-.36.29-2.89,1.61-2.13.13.08,1.66,2.46,1.63,2.62-.09.52-1.62,1.32-1.83,2.04-.82,2.76.5,3.24,2.17,4.46.43.32,1,1.14,1.3,1.26.32.12.9-.25.98-.15.14.18.32,3.9.32,4.51-2.25.3-2.04-1.29-2.96-2.67ZM276.96,218.31c-.51.72-1.28.56-1.39.7-.25.3.29,1.77-.53,2.21,0-2.18-1.2-1.31-1.43.18-.44,2.86,2.47,5.74.79,8.82-1.21-1.13-.58-2.24-.51-3.42.08-1.26-.77-1.21-1.42-.43-.55.66-.13,1.77-1.13,1.6-.62-1.89,1.29-4.14,1.32-5.64.01-.67-.89-.31-.66-.92.27-.7,1.42-1.73,1.59-2.6-.32-.48-2.63,1.31-2.25,0,.58-2.03,3.97-5.04,6.11-5.32-.11,1.38.33,3.66-.49,4.81ZM272.31,214.14c.14-1.61,1.94-2.3,2.57-3.71l-1.28-.15c.92-3.44,4.7-5.43,8.04-5.79-2.03,4.16-5.65,7.02-9.33,9.65ZM268.12,281.06c-.34.66-1.79,4.61-2,4.76-.78.58-3.44.09-4.43.71-.07-3.71,3.25-5.11,6.43-5.47ZM254.28,293.45c-.55.32-1.39.04-2.03.22-.48.14-2.09,1.92-2.48,1.54.88-3.42,2.9-6.06,6.76-5.78-.64.64-1.78,3.75-2.25,4.02ZM245.27,364.06c2.05.05,7.63,3.47,7.41,5.62-.08.75-.73.99-1.28,1.31-1.77,1.04-4.55,1.7-6.45,2.72v-8.2c0-.25.54-.94.32-1.45ZM251.39,382.55c-1.13-.99-6.18-4.12-6.39-5.19-.41-2.13,7.05-4.25,8.64-4.94l.32,12.87c-.91-.87-1.62-1.9-2.57-2.74ZM255.98,308.01c-3.68,19.52-2.5,40.14-2.35,59.91-.54-.15-.35-1.09-.68-1.73-1.9-3.65-12.91-5.85-13.16-8.41,3.24-17.46,4.95-36.92,14.11-52.49.28-.47,1.34-2.44,1.82-2.37,2.34.32.49,3.85.26,5.09ZM265.94,301.56c-3.26,1.52-9.31,1.54-10.23-2.79-1.06-4.98,3.31-9.89,8.15-10.55,9.96-1.35,8.43,10.38,2.08,13.34ZM271.01,287.49l-3.22-.97c1.7-4.96,5.73-8.44,10.94-9.33.22.66-.49,2.46-1.12,2.49-.15,0-.42-.41-.64-.44-1.34-.13-5.99,6.54-5.96,8.24ZM273.42,286.52c1.32-2.53,3.31-3.49,5.48-5.14.08,1.45.23,5.76,1.54,1.86,2.35-7-.25-15.71.54-22.62.21-1.87,2.21-.55,3.34.23,2.67,1.84,2.16,4.14,3.69,6.29.36.5.37.89,1.19.74l-1.44-5.47c2.31.79,4.84,2.67,7.28,2.87,1.69.14,3.15-.65,4.78-.65,1.89,0,3.33.89,5.48.67,4.66-.46,11.39-3.99,15.6-6.11.21,1.17-.29,2.26-.33,3.36-.21,5.11-.36,12.02.02,17.06.03.44.78,6.25,1.93,4.99l.48-3.54c3.61,2.73,5.05,3.21,3.94,8.11-1.06,4.63-3.39,4.93-7.62,5.89-14.55,3.3-31.41,1.45-45.24-4.02-2.52-1-1.69-2.5-.63-4.52ZM321.55,315.97c-6.18,3.35-11.97,2.19-18.35.15l6.97-2.51c.38-.2,2.88-1.76,2.36-2.31-4.24,1.47-8.98,3.13-13.53,2.43-5.65-.87-21.25-11.22-25.42-15.45-1.75-1.78.32-3.1.01-5.32,14.17,5.71,29.29,7.42,44.41,4.83-3.08,2.5-7.21,4.69-11.01,5.88-1.39.43-5.27,1.52-6.53,1.52-.75,0-5.13-.19-5.31,0-.08.08.05.97,0,1.28,10.51,1.73,20-3.64,28.32-9.33.95,1.24-6.01,10.49-7.35,11.79-.76,1.85,2.06-.57,2.38-.84,5.18-4.51,9.5-12.81,10.69-19.56.53-3.04,1.46-9.02-3.13-8.76l.16,1.28c-1.02-1.09-2.93-2.2-3.38-3.7-.2-.67.38-.48.81-.49,5.02-.14,12.22,2.27,13.65,7.59,2.88,10.73-6.35,26.42-15.75,31.51ZM386.87,302.09c-.13,1.92-2.6,6.72-3.3,8.96-3.41,10.9-4.26,22.97-4.42,34.35l-5.47-25.87c2.3-3.35,3.35-7.86,5.09-11.67,1.62-3.54,3.84-7.93,7.13-10.08-.34,1.55,1.05,2.87.96,4.3ZM562.61,298.26c.6.47,2.58,3.13,3.15,3.93,2.76,3.84,4.75,8.37,5.85,12.97l-13.19-15.12c1.07.11,2.26-.26,3.08-.96.5-.43.34-1.42,1.11-.82ZM548.84,230.12c-.13.79,2.19,4.16,2.13,5.34-2.82,6.16-6,12.21-8.31,18.57h6.44v1.93s-17.06.32-17.06.32c.07-.41-.11-1.82,0-1.93.44-.43,5.58-.19,6.6-.32.45-.06.56.18.47-.47l-8.62-18.11c-.59-1.5,2.28-4.59,2.13-5.65-.15-1.05-6.01-7.5-6.01-8.1.36-.47,1.32-1.35,1.89-.98.84.54,3.39,4.99,4.51,6.13.31.31.41.61.95.49l5.48-11.58-6.12-.32v-1.93c1.78.13,14.27.13,14.81.64.1.09-.06,1.54,0,1.93l-5.79-.32,5.15,11.9c.57.11.79-.29,1.13-.64.83-.85,3.71-5.54,4.44-5.42.12.02,1.2.69,1.22.78.18,1.16-5.21,6.44-5.43,7.75ZM519.96,265.29c.26.49,4.08,3.58,3.7,3.86-5.45-.23-10.82.21-16.09,1.61,1.68-7.09,1.09-14.68.32-21.87l1.93-.65c.62,3.57,1.98,7.13,4.66,9.66,3.56,3.36,14.59,7.58,19.48,8.84,2.55.66,4.73,1.23,7.4.49l-.96,1.77c2.2.95,2.53-2.4,4.82-1.77l-.65,9.01c-2.88-1.63-5.86-3.29-9.02-4.33-2.67-.88-6.98-1.27-9.23-2.36-1.8-.87-4.2-4.97-6.04-5.22-.75-.1-.58.5-.32.97ZM503.72,226.85c0-.46,2.79-4.88,3.07-6.26.29-1.41-.42-3.09-.35-3.24.22-.48,1.91-1.75,2.42-2.42.99-1.29,1.55-2.86,2.75-4.01.78,1.82-.52,2.74-1.13,4.18,2.33-.27,2.74.17,2.89,2.42.15,2.2-.78,3.63-2.09,5.3-.74.13-.43-.33-.47-.8-.09-1.04.24-2.31-1.29-2.41.53,1.31-1.73,5.24-.66,5.97.36.25,1.23.07,1.3.14.15.14-.48,2.92-.31,4,.12.71,1.03,1.72.95,1.78-1.32,1.01-1.89-2.77-2.03-3.28-.09-.33-.13-1.17-.7-.9-1.06.52-.32,3.35-.1,4.27.1.41.62.61-.23.55-1.6-1.79-2.13-4.78-1.46-7.07-.31-.21-2.54,3.37-2.56,1.77ZM508.7,204.5c-.36-.02-2.04,1.57-2.74,1.12,2.67-3.03,6.73-4.1,10.62-3.05-2.45,4.2-7.69,5.4-12.23,5.78l2.03-1.34c.37-.4,2.7-1.12,2.78-1.24.2-.29-.14-1.25-.47-1.27ZM559.39,208.19c0-.18,1.8-2.52,2.25-2.73-.14,1.47.19,3.23,0,4.66-.08.58-.72,2.23-1.01,2.86-.22.5-.75,1.57-1.25,1.81v-6.59ZM556.5,194.52c2.63,3.01,3.29,7.56,1.92,11.26l-1.44-4.18c-.71-2.39-1.07-4.61-.48-7.08ZM557.46,214.78l-.9-2.79-2.96-6.21c3.97,1.3,4.06,5.47,3.86,9ZM553.28,201.43c.27.41,2.68,2.32,2.25,2.74-3.7-1.16-6.52-4.43-8.37-7.72,1.51-.48,7.49,2.99,6.67,4.43-.05.09-.76-.03-.55.55ZM553.59,196.77c-4.03-2-7.21-4.21-8.69-8.68,3.97.67,8.66,4.37,8.69,8.68ZM525.3,190.52c3.23-1.69,11.42-1.78,14.85-.74,1.65.5,4.08,2.04,5.08,3.45l-1.93.8c1.92.68.98.98,1.43,2.43.46,1.48,3,3.12-.15,3.2l.32-1.28c-1.02-.12-2.35.21-3.31-.07-1.3-.38-1.98-3.39-3.77-3.15-.62.62,3.07,6.75,5.15,5.79.09.39-.34.42-.63.49-3.3.75-8.45-.47-10.49-3.37-.64-.91-.58-2.28-1.4-2.42-2-.35-.56,2.81-.04,3.7-.49.34-3.46-.52-3.99-.93-.92-.71.68-1.8.78-2.46.36-2.48-2.75-2.46-4.52-2.4.82-.77,1.66-2.54,2.6-3.03ZM512.65,194.61c1.5-4.33,7.71-7.08,11.98-7.48.67.62-3.62,4.81-4.21,5.28-.89.71-6.26,4.11-7.04,4.24-1.08.17-1-1.26-.73-2.03ZM516.27,197.1c.74.13,2.09-1.3,2.41-1.3h5.95c-2.58,3.8-6.89,4.81-11.27,4.03-.34-.06-1.04-.03-.95-.49,1.66.13,4.91.12,3.87-2.24ZM503.38,200.14c.34-3.34,5.28-8.08,8.38-9.16-1.38,5.41-3.68,9.81-7.56,13.83-.51.03-.88-4.02-.82-4.66ZM509.5,209.96c.29.26-2.37,3.77-2.73,4.18-.52.61-6.58,6.53-6.92,6.11-.04-1.96,2.37-2.58,2.25-4.5l-1.61.64c.89-4.09,5.11-6.23,9.01-6.43ZM496.95,231.51c-2.02-.71-4.21-4.67-4.48-6.62-.21-1.53.32-3.19-.35-4.63.34-.35,1.83,1.3,2.1,1.6,2.7,2.98,3.77,5.57,2.73,9.65ZM497.61,221.07c-.05.47-.07.82-.5,1.11-3.13-3.92-3.85-9.56-2.42-14.33.11-.36.11-.98.65-.47.3.29,2.45,7.09,2.54,7.91.15,1.4-.12,4.28-.27,5.77ZM501.78,198.06c-.85,2.21.06,4.43,0,6.58-.06,2.87-1.63,5.15-1.94,7.89-3.75-4.43-.97-10.44,1.93-14.48ZM499.53,224.76c.81-2.47,2.77-4.21,5.15-5.14-.94,2.68-1.39,7.25-4.82,7.4l.97-2.09-1.29-.17ZM504.86,232.27c-1.28-1.1-3.28-2.95-4.59-.89l-.56,2.5c-.75-5.15,3.55-6.88,5.14-1.61ZM504.15,244.4c-.81-1.22-1.79-2.33-2.46-3.65-.39-.75-2.25-6.05-1.98-6.22.16-.1.88.15,1.23-.06.6-.36.29-2.89,1.61-2.13.13.08,1.66,2.46,1.63,2.62-.09.52-1.62,1.32-1.83,2.04-.82,2.76.5,3.24,2.17,4.46.43.32,1,1.14,1.3,1.26.32.12.9-.25.98-.15.14.18.32,3.9.32,4.51-2.25.3-2.04-1.29-2.96-2.67ZM429.83,200.94c2.36-.14,5.6-.29,7.25,1.62-.32.08-1.87.25-1.93.33-.87,1.06,1.58,1.11,2.33,1.37,2.74.95,7.85,2.68,9.75,4.73.25.27,1.35,1.68,1.12,1.94-1.1-.72-2.51-2.52-3.85-1.13,1.59,1.23,3.2,2.71,4.19,4.49,1,1.8,1.46,6.5,2.57,1.46,1.38.95,3.11,2.92,3.22,4.66.06.98-.58.09-.97.17,1.02,3.3.53,6.02,0,9.33,1.46.24,1.24-.21,1.77-1.29,1.55,2.43,1.39,5.54.41,8.13-.54,1.43-2.74,3.71-2.83,4.27-.3,1.85,2.02,5.31-.31,6.9.11-1.77.18-4.02-1.93-4.5.27,2.02.49,3.51-.58,5.37-.41.72-1.45,1.39-1.61,1.93-.52,1.75.67,4.08-1.01,5.74-.38.37-2.16,1.42-1.92.34.22-1,.99-1.7.95-2.92-.01-.36-.58-2.3-.71-2.38-1.51-.92-1.3,1.3-1.65,2.28-.48,1.34-.99,1.7-2.49,1.53-.06-.7.58-1.1.64-1.79.08-.84-.47-1.63-.33-2.52.08-.48.68-.92.62-1.27-.05-.32-.82-.76-1.07-1.19-1.21-2.11.58-2.76.46-3.67-.22-1.58-3.09,1.85-2.58,2.73-1.82-1.51.76-4.38,1.58-5.99.21-.42.32-1.35.37-1.4.18-.17,2.23.26,2.55.48.46.31.5,1.12.99,1.58,3.16,3.01,8.6-3.75,7.71-4.97l-.96-.15c-.01-1.15,3.06-5.71,2.57-6.28-.12-.14-1.39.52-1.61.32-.15-.14-.83-3.12-1.13-3.86-.29-.69-2.47-5.16-2.72-5.32-.46-.28-1.15-.24-1.62,0-.56.29-.39,1.12-.95,1.13.81-2.76-4.96-11.61-7.26-11.58-1.19.02-.37,1.42-1.11,1.61-.21-2.61-1.52-5.27-3.57-6.89-.98-.77-2.41-1.19-3.21-1.94-.7-.66-1.04-2.04-1.73-2.45-1.56-.93-1.99-.19-2.12,1.31-2.43-2.09,1.03-2.16,2.73-2.26ZM428.32,231.75c.45,2.14-.17,5.19-2.82,5.23.56-1.5,1.6-4.73-.64-5.14.02,1.42.21,3.92-1.61,4.18,1.38-1.72-.99-4.8-.86-5.95.16-1.41,2.8-.01,2.78-.96,0-.4-2.78-1.7-3.36-2.43-.72-.9-.93-2.07-.82-3.2-2.83.37.2,4.27,0,4.5-2.99-1.19-2.38-4.79-1.93-7.4-1.3.3-1.32,1.31-1.85,2.16-.21.33.02.57-.72.41-.14-.97-.09-5.9,1.39-5.75.64.06,3.56,2.54,4.72,3.02.71.3,4.03.98,4.15,1.17.18.27-.06.98.06,1.38.63,2.09,3.77,4.08,5.13,5.82-2.46,3.22-2.29.75-4.82-.48-.29,1.32.98,2.35,1.21,3.45ZM417.13,209.64l6.11,1.29c-5,.89-10.89,1.41-14.48-2.89,3.85-.88,7.47-.85,11.26.32-.3.69-1.66.15-2.36.37-.42.13-.62.47-.54.91ZM437.72,226.86c.4.54,4.48,3.44,4.84,3.05.35-3.66-2.72-5.76-3.46-9.25-.49-2.29-.05-4.21-.08-6.51,3.64,3.1,5.31,7.26,4.83,12.07-.14,1.41-1.02,2.75-.65,4.34-2.79-1.33-6.52-1.81-9.23-3.16-1.75-.87-4.06-3.18-5.25-4.72,2.52-.81,9.79.9,10.61,3.55.05.17.09.52-.15.47l-1.77-.64c-.12.47.1.53.31.81ZM443.85,236.18l3.21,2.41c-4.86.76-5.36-1.55-5.14-5.79,1.52.74,2.89,1.82,3.86,3.21-.25.15-2.34-.83-1.93.16ZM446.98,225.47c.08-.25-.03-1.01.56-.71.67.33,2.74,4.9,2.74,5.63v4.66c-.82-.29-.35-2.1-1.61-1.93l-.32,3.21c-1.74-3.58-2.68-6.92-1.38-10.87ZM439.01,235.84l-.56-2.5c-1.3-2.06-3.3-.21-4.59.89,1.59-5.27,5.9-3.54,5.14,1.61ZM435,217.68c-1-1.82-3.24-3.07-4.29-4.72-1.43-2.23-2.05-5.86-1.98-8.47l3.39,2.56c2.48,2.58,3.91,5.37,4.01,9.02l-1.28-.32.16,1.93ZM431.62,217.2c.93.88.65,1.01-.65,1.13l1.61,1.28c-5.04.83-10.61-1.15-14.16-4.82,4.13-1.35,9.94-.67,13.2,2.41ZM431.94,244.52c.07-.1.66.27.98.15.3-.11.86-.94,1.3-1.26,1.66-1.21,2.99-1.7,2.17-4.46-.21-.72-1.74-1.52-1.83-2.04-.03-.16,1.5-2.54,1.63-2.62,1.32-.76,1,1.77,1.61,2.13.35.21,1.07-.05,1.23.06.28.18-1.59,5.48-1.98,6.22-.68,1.31-1.65,2.43-2.46,3.65-.92,1.38-.71,2.97-2.96,2.67,0-.61.19-4.33.32-4.51ZM426.46,210.28c-5.04-2.97-9.07-7.31-10.29-13.19,6.24,1.36,10.53,6.8,10.29,13.19ZM405.55,198.7c4.19-.03,8.82,1.2,10.94,5.14h-1.29s.96,1.29.96,1.29c-2.64.19-5.16-.64-7.23-2.26-.46-.36-3.88-3.74-3.39-4.17ZM401.38,208.97c-.12-.11.23-1.29-.49-.94-.9.44-2.13,2.42-3.7,2.25-.25-.83,1.92-3.18,1.92-3.38.01-.79-1.43-.35-1.92.01-.91.68-.83,1.82-1.62,2.4-.56-3.69,3.24-5.49,6.12-6.59,3.81-1.45,4.04-.29,6.43,2.57-1.14.54-5.51,4.76-6.74,3.67ZM406.51,270.28c3.07-1.64,6.64-1.89,9.77-3.43,1.78-.87,2.98-2.12,4.62-3.11,1.75-1.06,4.05-1.72,5.58-3.11,2.67-2.43,2.78-6.46,3.21-9.82,3.24,1.12,5.2-.7,6.92-3.21.69.53.75,1.54,1.23,2.15.77.98,2.03,1.12,2.15,3.19.09,1.49-2.7.65-1.1,3.01,1.3,1.91,4.05.93,4.51,1.6.35.52.37,3.4.55,4.28.23,1.15.59,2.45.91,3.6.28.99,1.79,4.45,1.79,4.85,0,.92-3.1,2.92-3.91,3.69-4.08,3.83-7.74,8.67-11.89,12.24-2.77,2.38-4.4,2.75-7.82,3.76-6.06,1.78-12.61,3.38-18.74,1.05,1.31-2.07,4.25-6.66,6.6-7.39.6-.18.43.11.48.47.15,1.19-.23,2.49.32,3.71,1.94-.42,2.05-3.24,1.61-4.82,1.66,1.03,1.82,3.35,1.93,5.15,2.44.08,1.71-3.19,1.02-4.72-.79-1.75-2.12-2.03-3.09-3.34-1.25-1.69-1.64-4.36-1.79-6.41.86-.24,2.11.83,2.25-.48-1.84-2-4.83-1.68-7.08-2.9ZM424.54,291.68c-5.08,5.94-14.89,14.73-21.89,6.28-2.02-2.44-1.11-2.84-.31-5.64,6.93,3.74,15.14,1.56,22.2-.64ZM409.33,278.85c1.08-.16,1.85,1.91,1.55,2.52-.43.88-1.74.46-2.61.95-1.26.71-3.63,4.66-4.96,5.98-.37.37-.71.99-1.3.66-.11-.06-1.5-1.83-1.51-1.95-.13-1.51,7.15-7.92,8.83-8.16ZM396.49,290.75c1.32,2.01-3.77,8.12-5.45,6.9-1.8-1.31,2.49-8.4,5.45-6.9ZM390.74,292.32c-.8,1.89-3.35,5.58-.77,7.04,4.04,2.29,10.2-6.11,8.19-9.47-.15-.25-.61-.64-.89-.72-.72-.21-2.04.28-2.34-.39,6.74-2.47,5.93,4.19,3.03,8.01-6.05,7.96-14.26,3.56-7.22-4.48ZM389.5,333.94c-.92-8.11-.95-18.93,1.08-26.83.42-1.63.64-4.01,2.74-4.18-.34,4.69.4,9.01,1.61,13.5-3.26.71-6.34,4.07-3.39,7.1,1.86,1.9,2.79,1.01,4.09,4.27,1.42,3.55,2.24,11.89.33,15.25-.94,1.65-2.95,2.32-4.25,3.63-.46-4.27-1.73-8.49-2.21-12.75ZM399.75,321.76c5.05,1,11.61,1.15,16.62-.13,1.62-.41,3.82-.8,3.34-2.94,1.38-.14,3.6,1.68,2.05,2.86-1.91.49-3.09,2.29-4.88,2.84-4.5,1.38-18.01,1.12-22.18-1.13-3.43-1.85-2.15-4.3,1.19-4.89-2.31,2.78,1.79,2.97,3.86,3.38ZM396.68,318.05c4.75-1.39,11.5-1.49,16.43-.95.74.08,5.43.76,5.64.97.49.49-.21.57-.41.73-2.85,2.29-16.16,1.73-19.88.72-.56-.15-3.34-1.01-1.78-1.46ZM420.1,331.8c-.24,1.18.18,2.81-.07,3.72-.08.31-.69.37-.92.74-.34.55-1.31,3.52-2.3,2.7-.83-.69.07-5.36.41-6.5,1.48-4.97,5.73-9.16,11.13-9.22l.36,3.18c-3.19-.26-7.94,2.03-8.62,5.38ZM433.22,333.82c-.99-.52-2.63-.55-3.52-1.14-.66-.44-1.13-1.66-1.93-2.25-.78-.58-1.81-.56-2.27-1.43,3.57-1.27,7.47,1.07,7.72,4.82ZM397.5,326.42c6.62,1.18,13.02,1.3,19.63,0-1.8,4.5-2.74,9.06-1.84,13.9.31,1.67,1.01,3.15,1.38,4.77-2.7,1.77-17.69,1.88-19.04-.33,2.63-5.87,2.04-12.43-.14-18.34ZM394.11,384.98c-6.37-12.17-12.06-30.58,2.58-39.15,4.66,3,13.77,4.01,18.72,1.56,1.33-.66,2.2-2.4,3.63-1.17,1.4,1.2-.57,3.02-.65,4.81-.1,2.29,1.15,2.7,1.31,3.89.15,1.13-.72,2.17-.51,3.68.56,4.13,5.08,4.67,5.82,6.43.84,2.01-.72,7.37-1.36,9.57-.98,3.37-2.44,7.07-3.89,10.27-1.03,2.25-2.89,6.85-5.11,7.76-2.53,1.04-14.03,1.09-16.17-.44-.69-.49-3.76-6.04-4.37-7.21ZM427.91,366.31c.33.36.92.71,1.06,1.19.73,2.43-2.61,10.52-4.76,12.32l3.69-13.51ZM416.34,396.22c.71.76,1.92.51,2.4,1.3-6.95,2.05-15.52,2.7-22.2-.48l2.43-3.35c3.28,1.16,6.73,1.81,10.23,1.54,1.1-.08,6.07-1.46,6.31-1.24.09.08.22,1.59.82,2.24ZM421.96,398.97c1.26,1.59.34,2.5-1.18,3.32-5.33,2.85-18.93,2.5-24.63.61-2.97-.98-4.81-2.23-2.02-5.05.45.41.81.91,1.34,1.23,5.05,3.05,17.88,2.81,23.28.54,1.44-.61,1.96-2.22,3.22-.64ZM429.95,380.56c-2.38,4.1-6.57,6.51-9.26,10.04-1.16,1.52-1.14,3.98-2.9,4.01-.75-2.4,1.42-5.41,2.76-7.37,3.03-4.44,6.8-6.68,8.83-12.08.52-1.39,1.27-5.63,1.76-6.29.45-.6,2.77.15,2.72,1.41-.08,1.93-2.83,8.42-3.92,10.28ZM452.69,354.73c.73.72.56,4.74.5,5.97-.33,6.93-2.06,13.82-2.59,20.74l-7.08-9.81,2.25-.16c.71-.62-3.25-2.72-3.77-2.82-1.13-.23-2.3.07-3.43-.11-.78-.13-5.78-1.03-5.99-1.25-.18-.18.36-1.14.29-1.42-.1-.4-3.05-.92-3.91-1.23-2.55-.92-7.96-4.05-7.67-7.17.03-.36.12-1.05.52-1.12.63-.12,4.17,2.42,5.29,2.74,2.65.77,2.28-.34.63-1.6-1.98-1.5-7.08-3.06-7.28-5.86-.04-.51.44-2.28.86-2.54,1.04-.64,5.7,2.38,7.09,2.91.82.31,2.92,1.27,2.9,0-.03-2.35-10.34-3.52-10.34-8.04,0-.93.6-2.41,1.55-2.68,2.41-.69,8.89,4.99,12,3.48.12-.51-.18-.66-.47-.97-2.11-2.29-10.58-3.1-11.11-5.95-.29-1.57.73-3.76,2.44-4,2.03-.28,9.25,3.08,11.97,3.76,1.71.43,3.44.88,5.22.73,1.26-1.11-6.3-3.21-6.59-3.54-.86-1.01-.16-3.16-.65-4.18-.17-.34-2.49-1.64-3.23-2.56-.41-.52-1.14-1.65-1.29-2.25-.32-1.25-.5-5.27,1.47-3.72,1.04.82,2,2.15,3.06,3.06.88.75,2.16,1.14,2.9,1.92,1.22,1.29,2,4.71,3.22,6.43,1.07,1.51,2.9,2.28,3.89,3.84,1.86,2.92,5.13,15.95,6.33,17,.2.17.73.12,1.02.41ZM458.89,349.19c-1-.21-1.95-1.32-3.13-1.22l8.69-18.33c-.62-.1-.93.42-1.28.81-1.06,1.19-2.46,3.57-3.36,5.01-2.35,3.74-4.38,7.71-6.03,11.82-.75.19-1.99.17-2.36-.59-1.06-2.18,1.31-12.56,1.93-15.45,1.6-7.55,3.78-14.91,6.28-22.19-3.13,3.02-4.62,8.17-5.88,12.3-1.93,6.35-3.22,12.97-4.1,19.55-1.31-1.15-1.59-3.55-2.57-4.99-.78-1.15-2.34-1.92-3.24-2.88-2.23-2.39-2.09-6.05-4.83-8.04-.88-.64-2-.85-2.89-1.62-1.2-1.04-1.43-2.69-2.98-3.46-2.97-1.46-3.18,1.21-4.97,1.61-1.2.27-2.71-.05-3.96.07.59-4.03-2.83-4.94-5.98-5.77-6.6-1.74-14.52-1.21-21.18,0-.66-.1-1.74-7.48-1.8-8.55-.09-1.43-.38-5.33,1.13-5.95.58-.24.5.37.62.64,2.54,5.66,5.46,11.8,12.73,11.58.33-2.04-1.13-1.42-2.43-1.91-3.95-1.49-7.58-6.53-8.36-10.62-.21-1.08-.13-3.78,1.47-2.76.45.28,1.96,2.47,2.92,3.2,6.21,4.72,11.26,1.67,16.54-2.39,8.93-6.86,16.11-16.31,24.46-23.81,1.79-1.61,4.75-3.27,6.29-4.97.97-1.08.83-1.89-.76-1.75-1.2.11-1.57.98-1.81-.98,3.52-.12,8.57.88,10.57,4.07,1.94,3.1-.3,2.39-2.42,3.27-5.06,2.11-11.15,8.38-14.92,12.43-7.38,7.95-13.73,16.87-20.59,25.26,2-.54,3.88-2.68,5.32-4.17,7.45-7.76,22.66-31.24,32.91-32.74,4.23-.61,9.41,1.62,10.38,6.03-1.97.34-3.82.37-5.8.8-10.16,2.24-18.69,12.45-24.58,20.47-3.28,4.46-6.69,9.35-8.88,14.44l2.89-2.74c6.55-8.28,19.65-29.32,30.78-30.68,5.79-.71,11.21,1.08,13,7.04-.19.15-1.77-.74-1.58.45.09.55,3.71,4.5,4.41,5.57.76,1.16,3.49,6.62,3.52,7.71.02.54-1.93,4.77-2.26,5.97-2.3,8.41,1.09,13.68.72,21.31-.25,5.22-3.18,11.06-4.01,16.26-.37.47-.35.21-.71.05-.73-.32-1.17-.99-2.18-1.37-2.5-.92-5.99-.77-8.56-.15-2.37.57-4.9,2.82-7.16,2.35ZM469.05,355.76c-2.73-1.5-5.84-1.4-7.17-4.73,4.48-2.88,10.24-3.21,15.1-1.1l-2.24,10.27c-1.85-1.51-3.58-3.28-5.69-4.44ZM487.2,389.86l-7.95,3.8,2.09-14.79c2.59,1.35,4.84,3.41,6.24,5.99.58,1.07.51,2.41,1.64,3.18l-2.02,1.83ZM493.45,348.5c-1.37,11.52-1.43,23.1-2.72,34.6l-.86,3.16c-.15-.99-.41-2.22-.97-3.06-.93-1.42-5.44-5.81-6.96-6.55-1.31-.63-6.09-1.82-6.5-3.16-.23-.78-.11-3.15-.02-4.08.47-4.89,2.23-11.68,3.28-16.67,4.67-22.19,9.49-42.84,27.43-58.16.31-.26,2.18-1.84,2.41-1.61-8.86,17-12.84,36.56-15.09,55.53ZM524.86,279.71c1.78.68,5.59.35,7.89.8,1.74.33,12.36,4.03,12.97,5.06.29.49.11,1.34.3,1.95.14.47.98,2.04.82,2.23-11.68-9.24-24.94-9.31-37.11-.91-12.96,8.95-20.92,23.19-26.45,37.58-.38-4.76-1.33-9.42-.33-14.16,1.02-4.85,3.53-8.57,5.37-12.97,2.85-6.82,1.79-8.32,8.16-13.4,7.29-5.81,13.08-7.46,21.9-9.65.54-.14.93.32.78-.65-1.61.12-3.41-.17-4.99,0-.82.09-2.7.63-3.63.87-5.11,1.33-10.23,4.22-14.55,7.17.57-6.29,7.21-9.22,12.55-10.78,13.75-3.99,27.94.02,39.43,7.88l-1.97,2.59c-6.21-2.99-13.21-5.49-20.25-4.84-.98.09-2.37.66-.9,1.22ZM553.89,284.14c.54.33,4.03,3.14,3.57,3.67-3.42-4.02-10.37-5.86-5.96,1.94,1.07,1.89,6.65,8.65,8.07,4.19.43-1.34-.11-1.8-.36-2.9-.08-.33-.43-1.05.18-.98,5.44,13.15-5.48,6.78-9.46.61-3.03-4.7-2.82-10.74,3.97-6.54ZM557.78,293.28c-1.88.32-6.73-7.13-6.11-7.72,3.46.43,6.52,4.23,6.11,7.72ZM577.01,397.91c-1.47.75-12.77,2.52-13.43,1.86-.09-1.83.17-3.68.69-5.43,4.53-.61,9.17.18,13.47-1.65.39,1.51.88,4.41-.73,5.22ZM582.22,342.94c-.12,3.36-2.73,12.21-3.69,15.97-.09.37.02,1.04-.47.97-2.12-13.12-5.68-26.9-12.07-38.61-.59-1.09-1.31-2.51-1.97-3.5-.36-.54-1-1.66-1.74-1.64,1.48,4.36,3.73,8.46,5.39,12.79,4.76,12.47,7.9,27.46,10.55,40.61,1.09,5.4,4.24,16.54-.64,20.6-.31.25-3.34,1.92-3.55,1.92h-5.31c2.89-4.05,5.61-8.65,5.47-13.84-.26.04-.87-.07-.96,0-.18.15-.84,3.7-1.14,4.5-.8,2.12-4.98,9.03-7.08,9.65-.94.28-.17-1.29-.16-1.76.15-3.81-1.92-6.06-1.93-8.69,0-1.38.89-3.13.97-4.52.1-1.68-.64-3.21-.26-5.06.28-1.37,2.05-3.84,2.66-5.39,1.49-3.79,4.34-16.53,2.98-20.02-.15-.38-.47-.79-.88-.89-.25,4.57-.95,9.13-2.03,13.58-.54,2.21-2.12,8.32-3.17,10.02-.12.19-.43.65-.6.52-.52-2.03-2.1-3.87-2.68-5.85-1.63-5.56,1.35-11.68,2.26-17.25,3.21-19.62-1.31-32.15-9.84-49.18-.15-.29-.68-.85-.21-1.08,3.11,1.67,5.4,4.49,7.73,7.08,6.88,7.64,22.71,28.86,22.34,39.04Z"/>
</svg>