<?xml version="1.0" encoding="UTF-8"?>
<svg id="_图层_1" xmlns="http://www.w3.org/2000/svg" version="1.1" viewBox="0 0 558 3.9">
  <!-- Generator: Adobe Illustrator 29.1.0, SVG Export Plug-In . SVG Version: 2.1.0 Build 142)  -->
  <defs>
    <style>
      .st0 {
        fill: #959595;
      }
    </style>
  </defs>
  <path class="st0" d="M557.3.7c.8,0,.5-.2.7-.2-1.4,0-.6.3-.7.2Z"/>
  <polygon class="st0" points="543.8 1.2 544 1.1 542 1.3 543.8 1.2"/>
  <path class="st0" d="M531,1.2c1.2.4,4.6,0,6.9,0h.4c0,0,1-.2,1-.2-2.8,0-6.3.2-8.3.1h0Z"/>
  <path class="st0" d="M524.3.4c.4.1-1.5.1,1.6,0-.2,0-.2,0-.3,0h-1.3Z"/>
  <path class="st0" d="M525.5.4c1.3,0-.9-.1,0,0h0Z"/>
  <path class="st0" d="M519.4.5h1.8c-.4-.2-1.9-.2-1.4-.3-1.8,0-1.4.1-.4.3h0Z"/>
  <path class="st0" d="M517.7.8h.9c-.2,0-.4,0-.9,0Z"/>
  <path class="st0" d="M520.5.6h-1.9c.3.2.3.3.9,0-.2.1.2,0,1,0h0Z"/>
  <path class="st0" d="M521.6.7c1,0,2.3.1.5.2,3.4,0,2.9-.3-.5-.2Z"/>
  <path class="st0" d="M530.4,1.6h1.3c0,.1,1.1,0,1.1,0-.6,0-2.5-.1-2.5,0h0Z"/>
  <path class="st0" d="M508.4.3c-.1,0,.6.2.7.3h1.3c-.7-.1-1.9-.2-2-.3h0Z"/>
  <path class="st0" d="M509.1.6h-2c1.7.1,2.1,0,2,0Z"/>
  <polygon class="st0" points="517.4 1.2 520.6 .9 516.8 1.2 517.4 1.2"/>
  <polygon class="st0" points="500.9 .3 502 .1 500.1 .4 500.9 .3"/>
  <path class="st0" d="M496,.3c.8-.1-1.1-.2-.3-.3-1.3,0-2.5.1-3.5.3,1.1,0,2.3,0,3.8,0Z"/>
  <path class="st0" d="M490.5.4c.5,0,1.1-.1,1.7-.2-.6,0-1.2,0-1.7.2Z"/>
  <path class="st0" d="M503.8.7c-.2,0-.4-.2-1.5-.2l.8.2h.8,0Z"/>
  <path class="st0" d="M503.1.7h0c-.8,0-1.4,0-1.7,0,.2,0,.7,0,1.7,0h0Z"/>
  <path class="st0" d="M504,.7h-.2c0,0,.1,0,.2,0Z"/>
  <path class="st0" d="M512.3,1c-1.2.1-3.5.2-1.2.4.8-.1-.5-.2,1.2-.4Z"/>
  <path class="st0" d="M505,1h2.1s-.4,0,.2-.2h-2.2q0,.1,0,.2Z"/>
  <polygon class="st0" points="504 1 505 1 504.2 1 504 1"/>
  <path class="st0" d="M494,.6c-.9,0-1.9.1-3,.1,1.2,0,2.4,0,3.6,0,.2,0,.7-.2-.6-.2Z"/>
  <path class="st0" d="M498.4.7c0,0-.1,0-.2,0,.1,0,.2,0,.2,0Z"/>
  <path class="st0" d="M480.2.7c0,0,.1,0,.2,0h0s-.2,0-.2,0h0Z"/>
  <path class="st0" d="M494.8.9c.9,0,1.4,0,1.9,0-.7,0-1.4,0-2.1,0,0,0,0,0,.2,0h0Z"/>
  <path class="st0" d="M487.4.5c.5,0,1,0,1.5.1-.5,0-1.4-.2-1.5-.1Z"/>
  <path class="st0" d="M497.9.6h.1c-.3,0-.3,0-.1,0Z"/>
  <path class="st0" d="M497.9.6c-.5,0-.8,0-1.2.1.5,0,1,0,1.5,0-.1,0-.2,0-.3,0Z"/>
  <path class="st0" d="M476.9,2.1c.2-.2,2.5-.4,4.5-.2,2-.1.7-.8-1-1.2,0,0,0,.2-2.1.3.7.1,4.5.3,2.8.4-2.7.1-2.2,0-3.5-.2,1.1.2-3.5.4-2.9.7h2.4c0,0-.8,0-.2,0h0Z"/>
  <path class="st0" d="M484.2.8h.8c-1,0-1.6-.1-2.9-.3-1.4.1-1.7.2-1.8.2h4.1s-.3,0-.3,0h0Z"/>
  <path class="st0" d="M488.9.8c-.7.2-2.7.3-1.4.5,2.5,0,1.7-.2,3.2-.3-4,0,1.2-.1-1.7-.2.8,0,1.5,0,2.2,0-.7,0-1.4,0-2.1-.1,0,0,0,0,0,0h0c.2,0,.2,0,0,0h0s-.1,0-.2,0c-1.1,0-.2,0,.2,0,0,0,0,0,0,0h-4c.9.1,1.9.1,3.8.1h0Z"/>
  <path class="st0" d="M508.9,1.9c-.1,0-.1,0-.1,0-.3,0-.4,0,.1,0Z"/>
  <path class="st0" d="M507.3,1.7c.3,0,.5-.1,1.5-.1.8,0,0,.1,0,.2.6,0,2-.2.2-.3h-.3c-1.6,0-3.7-.3-3.4-.4.5.2.9.3,2,.5h0Z"/>
  <path class="st0" d="M498,1.3h-3.3c0,.1,1.7.3,1.7.3h0c1.9,0,1.5-.2,1.7-.3h0Z"/>
  <polygon class="st0" points="479.8 .6 480.2 .4 478.3 .7 479.8 .6"/>
  <polygon class="st0" points="475.5 .7 475.6 .5 474.5 .6 475.5 .7"/>
  <path class="st0" d="M231.5,3.1h-1c.5,0,.8,0,1,0Z"/>
  <path class="st0" d="M238.6,3.2h.2c-.3,0-.5,0-.2,0Z"/>
  <path class="st0" d="M369.3.7c-1.4-.2-3-.5-2.8-.2l.4.2c1,0,1.8,0,2.4,0h0Z"/>
  <path class="st0" d="M296.6,2c.1,0,.3,0,.4,0,.4,0,.7-.1,1-.2-.4,0-.9,0-1.4.1h0Z"/>
  <path class="st0" d="M295.6,2.9h-1.9c.4,0,1,0,1.9,0Z"/>
  <path class="st0" d="M192.9,3.4l-1.1.2c1.8,0,1-.1,1.1-.2Z"/>
  <path class="st0" d="M431.2.7c-1.2,0-2.2-.1-3.1-.1,1.5.1,2.7.3,3.1.1Z"/>
  <path class="st0" d="M234.3.8c-.6,0-.9,0-.8.1.6,0,1,0,.8-.1Z"/>
  <path class="st0" d="M424.6.6c.2,0,.4,0,.6,0,.9,0,1.8,0,2.9,0-1.1,0-2.4-.1-3.5,0Z"/>
  <path class="st0" d="M52.7,3.2c0,0-.2,0-.3,0,0,0,.1,0,.3,0Z"/>
  <path class="st0" d="M11.9,1c.4,0,1.1,0,1.7,0-.3,0-.8,0-1.7,0Z"/>
  <path class="st0" d="M458.1.6c.9,0,.1,0,0,0h0Z"/>
  <path class="st0" d="M462.5,1.4c-.2,0-.3,0-.4.1,0,0,.2,0,.4-.1Z"/>
  <path class="st0" d="M415.4,2h0c.3,0,.2,0,0,0Z"/>
  <path class="st0" d="M459.5.7c-.3,0-.7,0-1.2,0,.2,0,.5,0,1.2,0Z"/>
  <path class="st0" d="M459.3.6c.3,0,.6,0,.8,0,.1,0,0,0-.8,0Z"/>
  <path class="st0" d="M456.8.6c.5,0,1,0,1.5,0-.2,0-.3,0-.2,0-.3,0-.6,0-1.3,0h0Z"/>
  <path class="st0" d="M127.8,2.6c0,0-.1,0-.2,0-.9,0-.5,0,.2,0Z"/>
  <path class="st0" d="M345.4,3s0,0,.1,0h-.1,0s0,0,0,0Z"/>
  <path class="st0" d="M342.1,3.1c1.4-.3,2.2-.2,3.3-.2l-1.1-.6-2.2.8Z"/>
  <path class="st0" d="M214.6,3.2l2.3.2c-2.8.3-4.8.2-2.6.5.3-.7,9,0,9.3-.8h1.5c-.4.1-.5.2-.9.2,3,.3,2.2-.5,6-.4,1.3,0,2.3.1,1.4.2l3-.2c.9,0,.6.1-.2.1h4.5s0,0,0,0c.6-.1,2.1-.3,2.8-.4,1.1.1-.6,0-.3.2l2.5-.2c1,.2-1.1.4-2.8.3,2.3.7,2.1-.2,7.1.2h-2.4c1.5.5,3.4.3,6,.6-.6-.1-5.4-.6-2.6-.8.8,0,1.8,0,3.2,0,0,.2,1.5.2,3.2.2v.3c1.8,0,1.7-.3,2.8-.4,2.2,0,2.6.3,3.1.5,3.5,0-2.4-.4,1.7-.5,2.9.1,4.9,0,8.3-.2,2,.1-.4.2.4.3l1.8-.3c.4,0,.3,0,.2.1,1.5-.1.1-.3,2.5-.4.6-.4,4.9.5,7.8.1.7,0-.4.2-.1.3,4-.3,3.4-.2,6.7-.5l2.8.2c-2.1-.2.6-.5,2.9-.8-.7-.1-1.4-.2-1.8-.3l3.7-.2c.5,0,0,.2-.5.3.2,0,.5,0,.7,0,1.3.1.6.3-.3.5-.5,0-.9-.1-1.3-.2-.9.2-1.8.4-1.6.6.2,0,.7,0,1.2,0-.2,0-.4.1-.3.1.1,0,.5,0,1.1-.1l.8.4h.2c0-.1,4.8,0,4.8,0,3.5-.4,6.5-.9,11.9-1-1.4.3-.3.4-.4.8-1.5-.3-4.2.1-7.1,0,1.5,0,1.1.2.8.2l5.1-.3c-.1.3,1.1.2,2.4.3-1-.5,3.8-.3,5.8-.5.1.2-.4.3-2.9.3,2.8.4,3.6-.6,6.3-.3-.6,0-.9,0-1.2,0,1.4-.1,4.9,0,4.1.1h-.6c4.1,0,12.4,0,13-.4,0,0-.5.5-.8.6l7.3-1.5c-.6.4,1.8,1.2-1.6,1.5,1,0,2.2.1,4.2,0-.7,0-1.6-.5-.7-.6,2.5.4,1.7.2,4.8.6-1,0,.1-.7,1.7-.6-.2,0,.1.6-.4.6l3.9-.6c-1,.1-.2.5.7.6-.4-.1,3.4,0,4.4,0h-1.6c4.4,0,4.4-.9,8.7-.9-.5.1-1.3.7.9.8,1-.3,4.5-1.4,8.4-1.6l.7.2,3-.2c-1.9.4-7,1.4-9.9,1.7,1.6.1.5.2,2.9.2.9.2-1.3.2-2.1.2h5.7c-.3-.2,4.4-.2,4.2-.5l-6.2.4c-.2-.3,3.6-1,7.7-.9,1,.1-.8.6-.7.7.5-.1,3.9-.2,4.2-.1l-1.7.2c2.3.1,3.7-.5,6.4-.1.9,0,2.8.4,3,.2-1.5-.4-1.8-1.6-.8-1.9.3,0,4.9.4,6,.6,1.5.3-2.3.7-1,1,0,0,.9-.2,1.3-.2,1,0-.4.3,1.7.2.4-.3,4.4,0,1-.3,2.1-.1,2.2,0,4.7,0-.8-.2,2.2-.8,4.3-.9-.1,0,.4.2.6.2,4.3,0,6.6.2,10.6.2.4,0,2.3.2,1.5.3.6,0,1.1-.2,2.3-.2,2.4.3-2.8,0-.9.4.2-.2,3.2-.3,5-.4-.5-.3-4.1,0-5.8,0,0-.4,3.1-.9,7.2-1.1,3.3-.1,1.4.3,2,.2,6.3,0,5.3-.8,10.5-.4,2.1.3,0,.5.5.7-2.7.1-4.2-.2-6-.2h2.3c-.9.2-2.7.3-3.7.2,1.7.2,10.6,0,15.4.3.9,0,2.3-.2,1.6-.3h-1.5c-1.4-.2,2.9-.3.9-.4,2-.1,4.4-.4,7.2-.3l.5.3c0,0-1.9-.2-2.7,0,1.2-.1,4.4.4,5.7,0l-2-.2c2.1-.2,4.6-.5,7.2-.4-1.2-.3-.6,0-2.4-.3,1.6.5-6.5,0-4,.5-1.9-.4-3.2-.2-5.7-.5,0,.1.9.2-1.3.1-.1,0-.3,0-.5,0h-.1s0,0,.1,0c0,0-.1,0,0,0,.5,0,.9.1,1.1.2-1.1.2-4.5.2-5.6.4-1.3,0,.5-.1-.2-.2l-1.7.2c-.2-.2-3.4-.4-.4-.5h-2.7c-1.6-.1-3.8-.2-5.1,0-1.3,0-3.2.2-2.1,0h-4.2c0,.1,0,0,0,0-4.2,0-8.6.4-13.4,0-1.4,0-2.9.1-5.2,0l-.5-.2c-1.8,0-5.4-.2-6.2,0-2-.5-8.8-.1-11.9-.2v.3c-2.3,0-4.4,0-7.1.2l.2.2c-2.3.2-6-.2-9.7-.1.2,0,1.2,0,1.9,0-4.4-.5-9.3.4-13.3,0-1,0-1.7,0-2.4,0,0,0,.2,0,.2,0h-.4c-.4,0-.9,0-1.4-.1.4,0,.8.1,1.2.1-.8,0-1.9,0-3.1,0l-.5-.2h-.3c-1.1,0-.9.1-.3.3-.6,0-1.1,0-1.5.1-.9-.4-3,.1-4.2-.3-.8.2-5.8.1-6.4.6,0,0-.4,0,.2,0-1.3,0-2.5-.1-3.7,0l-.5-.3-2.8.4c-1.7-.2-2.4-.3-.7-.5-4.1.4-3.3.1-6.8.5l.2-.2c-1.2,0-3.2.3-4,.1-2.8-.4-13.7,0-20.8-.4,1.4.6-3.3-.3-3.6.2-.4-.1-1.4-.2-.2-.3-3.6.1-5.4-.2-7.9.2-.4-.1.8-.2.4-.3-.3,0-1.1.1-1.5,0-.4,0,.5-.1,1.1-.2-3.7,0-4.1.5-4.3.9-1.9-.2-2.8-.2-4.2.1-.6-.1-1.7-.3.6-.3-1.3,0-7.9-.2-8,.1-.4,0-1.8,0-2.1,0-2.9,0-3.1,0-6,0h.8c-1.1.4-2.4.1-4.7.2h0c-5.3-.3-2.3,0-7.5-.2l.3.2c-.5.5-4.6-.3-7.6-.1h1.1c-1.6.3-4.6-.6-6.2-.6-.4,0,.6,0,1.1-.1-4.3-.3-.6.3-3.8.4-.6-.2.8-.4-1.4-.5-1.1-.1-6.3.6-9.3.2.6.1,1.3.3-.2.4-2.3,0-6.2-.5-8.3,0-.3,0-.4,0-.4-.1-1.8.1-5.7.2-6.8.4-1.6-.8-10.9.4-10.9-.4h-5.4s.1,0,.1,0c-3.4,0-4.7.1-5.9.3-.8,0-.2-.1-.1-.2-5-.2-5.5-.1-9.8.3l-.4-.2c-1.1.1-7.3-.4-12.2-.1,0,0,.1,0,.5-.1-5.6.3-13.3-.7-15.4.2l-3.7.2c4.8,0-.7.4,1.2.5-1.9,0-4.8-.3-2.5-.3h.4c.8-.4-5.9-.1-5.8-.4-9.3,0-18.4-.2-27.2-.3l1,.4h-3.1c-.8-.1-1.1-.3,1.1-.3-1.1-.2-3.6.2-3.7.3-4.3-.1,1.7-.4.4-.4h-1.8s.4,0,.4,0c-1.4.1-1.6.3-4.2.3-1.7,0-.9-.2-1.5-.2,0,0-.2,0-1,0h-3.9s1.5.3,1.5.3c-1.7.1-3.6,0-1.8.3-2.6-.5-14.3-.2-15.9-.3-2.4.2-4.8.2-7.7.2.7,0,1.2.4-1.4.4.9-.7-4.6-.3-6.7-.8,1.8.3-7.2,0-4.3.5-2.1,0-.1-.2-1.7-.4-5,.3-11-.2-17.2,0,0,0,.9.2-.4.4l-3.3-.4c-1.2,0-1.1.5-3.4.2.3,0,.8.2,0,.2-12.1-.4-24.8.4-37-.5,1.7.2.6.2-.7.2.8,0,0,.2.1.3l-5.1-.3c-.9.3-5.5,0-6.1.3h1.6c-2.2.3,3,.8,2.7,1.3,2.4-.4,6.4.6,10.4,0,.9.1-.8.2-.3.3,1-.2,2.2-.2,4.5-.2h-.3c6.3,0,9.1.2,16.2.3l-.5-.2c1.5,0,1.9.1,2.6.2,1.8-.4-4.3,0-2.7-.4,2,.5,10.8,0,12.2.6,2.4,0-.7-.3,1.7-.3h.6c0,.1.6,0,.6,0,1.6,0,2.3.2,2.4.4-.4,0-1.1,0-1.5,0,2,.2,5.7,0,6.3,0h-2.3c6.4-.2,14.3,0,20.5-.3h-.5c4.8-.3,3.8,0,9,0h-.2c1,0,2.4-.1,3.9-.1-1.3.1,2.5.3.8.4,5.2-.2,2.6-.2,5.9-.6l.8.2c1.2-.2,1.3-.3,3.9-.3-2.1.2,1.7.3-.7.5,5.5.4,8.1-.4,10.6.2,2.5-.5-4.7-.3-3.3-.4-1.2-.2,2.1-.4,3.8-.3,1.8,0,3,.7,7.4.6-.4,0-.5,0-.9,0,1.6.1,3.2-.2,5.2,0,1.1-.3,2.6,0,2.9-.4h-4c2.3,0,4.4-.5,8.2-.3-.3,0-1.4.2-2.2.2,1.1.1,2.1,0,3.3,0-.3.4-4.9,0-7.3.4,1.2.2,4.6-.3,3.4.1,1.8-.5,4.3,0,7.3-.4l-.2.2c.5,0,1.4-.1,2.3-.1l-1.6.3c2.4-.3,4.6.2,6.9,0-4.8,0-1.1-.3-3.1-.5,6-.3,3.4.6,10.1.5-.9,0-3.4-.1-2-.3,1.3,0,2.9.1,3.7.3,4.4,0-.7-.2,1.2-.4,1.5.3,2.2-.1,4.1-.2v.2c5.1.2,1.4-.5,5.9-.3l-1.9.3h2.4c0,0-.5.2-.5.2,2.6-.2,3.4-.1,5.9,0-.6-.2.3-.4,2.6-.5,1.5.1-.9.2,2.3.2-.7.1-1.5.3-2.9.1-.1,0-.7.1-.9.2,1.6.2,4.1,0,5.3,0-.4,0-1,0-1.2,0l4.6-.3c.7,0,.1.2-.4.2.9,0,1.6-.1,2.9-.2-.4.2-.3.4-2.2.5l4.4-.2c.3,0,2.2.2,1.7.3,2.4.1,5.9-.4,9.1-.2.2,0,.5,0,1.2-.1,3,0,5.7.3,9.3,0l2,.4c2.8,0-2.8-.5,1.9-.6,3.3-.1,1.2.3,2.4.4,1.6-.2,4.5-.5,7.5-.2-1,0-1.8,0-2.7,0h0ZM249.1,3.1c-.7,0-2,.2-2.5,0,.8-.3,1.4-.1,2.5,0ZM301.7,2.5c-.5,0-1.3,0-2.1,0,.6,0,1.3,0,2.1,0ZM448,.8s0,0,0,0c-1.5-.1-1,0,0,0ZM451.1.9c.3,0,.3,0,.2-.1-.2,0-.9,0-1.7,0,.2,0,.6.1,1.5,0h0ZM118,1h.6c-1.4.1-1,0-.6,0Z"/>
  <path class="st0" d="M295.7,2.8c-.2,0-.2,0-.3-.1-.3,0-.3,0,.3.1Z"/>
  <path class="st0" d="M193.1,3.3h-.1c0,0,0,0-.1,0h.2s0,0,0,0Z"/>
  <path class="st0" d="M403.1,2.9c-.6,0-1,0-1.2-.1,0,0,.3.1,1.2.1Z"/>
  <path class="st0" d="M467.6.5h-2c1,0,1.3.1,1.8.1,0,0-.4-.1.2-.1h0Z"/>
  <path class="st0" d="M484.8,2c.3,0,.6,0,.9,0h0c-1.2-.1-2.1,0-.8,0h0Z"/>
  <path class="st0" d="M469.4,1.3c.2.2,1.4.1,2.8.1h-.2c.4-.3-1.1-.2-2.5-.1Z"/>
  <path class="st0" d="M472.5,1.4c.4,0,.9,0,1.3,0,.2-.1-.5,0-1.3,0Z"/>
  <path class="st0" d="M455.1.7c.7,0,.4-.3.8-.2.7-.3-4.4.3-.8.2Z"/>
  <polygon class="st0" points="470.5 1.9 470 1.7 469.3 1.9 470.5 1.9"/>
  <path class="st0" d="M459.5,1.8h2.2c0,0,.2,0,.6,0-1.4,0-2.9,0-2.8,0Z"/>
  <path class="st0" d="M462.4,1.7c.7,0,1.4,0,1.8,0-.4,0-1.2,0-1.8,0Z"/>
  <polygon class="st0" points="467.5 2 466.8 2 465.3 1.9 467.5 2"/>
  <path class="st0" d="M435.6,1.7h-2.4c-.2.2.4.2,1.3.2.6,0,1.5,0,1.1-.2Z"/>
  <path class="st0" d="M443,2.4c-.7,0-.7-.1-1.1-.2v.3c0,0,1.1-.1,1.1-.1Z"/>
  <path class="st0" d="M435.9,2.5c-.2,0-3.5.2-.5.2.2,0,2.7-.2.5-.2Z"/>
  <polygon class="st0" points="399.3 2.1 399.9 2.1 399.9 1.6 399.3 2.1"/>
  <path class="st0" d="M367.1,3.3c2.9.1.7-.3,3.3-.2.7-.1-2.1-.1-1.4-.2-1.7.1-2.6,0-1.9.4Z"/>
  <path class="st0" d="M368.9,2.9c.3,0,.6,0,.9,0-.5,0-.7,0-.9,0Z"/>
  <polygon class="st0" points="5.1 .7 3.3 .6 4.4 .8 5.1 .7"/>
  <path class="st0" d="M1.6,1.1l-.4-.3-1.1.3c.4,0,1.2,0,1.6,0Z"/>
  <path class="st0" d="M254.3,3.7h.1c-.3-.2-.7-.2-1.6-.2l1.5.2h0Z"/>
  <polygon class="st0" points="229.2 3.5 229.6 3.5 228.8 3.2 229.2 3.5"/>
  <path class="st0" d="M208.1,3.8c.9,0,1.9,0,2.7,0-1.9,0-3-.3-2.7,0Z"/>
</svg>