<?xml version="1.0" encoding="UTF-8"?>
<svg id="_图层_1" xmlns="http://www.w3.org/2000/svg" xmlns:xlink="http://www.w3.org/1999/xlink" version="1.1" viewBox="0 0 604 593">
  <!-- Generator: Adobe Illustrator 30.0.0, SVG Export Plug-In . SVG Version: 2.1.1 Build 123)  -->
  <defs>
    <style>
      .st0 {
        fill: none;
      }

      .st1 {
        fill: #0655bc;
      }

      .st2 {
        clip-path: url(#clippath);
      }

      .st3 {
        fill: #eceae7;
      }
    </style>
    <clipPath id="clippath">
      <rect class="st0" x="263.03" y="22.68" width="77.95" height="547.64" transform="translate(604 593) rotate(180)"/>
    </clipPath>
  </defs>
  <g class="st2">
    <g>
      <polygon class="st3" points="347.95 26.92 352.22 31.15 351.75 33.65 356.68 39.79 361.37 50.1 353.3 55.58 346.13 56.96 340.97 57.23 340.97 60.56 340.97 551.67 340.97 552.91 342.66 558.66 344.98 559.84 344.98 562.11 282.69 564.35 281.82 559.84 286.47 553.8 286.43 546.35 286.43 54.55 279.85 56.75 268.12 53.17 267.43 44.34 271.36 36.61 275.43 34.06 275.06 31.13 278.23 27.42 347.95 26.92"/>
      <g id="zpTJVo">
        <path class="st1" d="M274.2,22.68h79.1l-1.08,8.47-1.92-.32h-72.57s-2.67.3-2.67.3c-.33-.78-.22-1.71-.34-2.51-.2-1.31-.58-2.74-.74-4.04-.05-.41-.26-1.76.21-1.91ZM267.86,36.14c2.96-2.96,6.38-3.88,10.49-4.07,16.19-.71,32.79.83,48.99,0,7.42.38,15.23-.45,22.65,0,9.74.57,16.96,11.81,12.84,20.86-3.27,7.19-11.29,10.55-18.68,7.32-4.76-2.08-8.07-8.93-6.22-13.88.53-1.41,2.9-5.17,4.19-5.82,3.75-1.9,7.4-2.01,10.91.5,5.41,3.85,3.12,13.44-4.12,12.59-2.23-.26-3.53-1.53-3.77-3.78-.07-.66.28-2.45-.55-2.51-1.17-.09-.64,3.1-.44,3.81.61,2.19,2.43,3.41,4.63,3.69,8.77,1.11,11.51-11.06,4.17-15.26-4.06-2.33-7.51-2.03-11.6-.09-18.23-.04-36.47.03-54.7-.02-.34,0-.66.14-.92.14-.71-.02-3.19-1.69-5.08-1.82-6.72-.47-12.36,4.62-10.69,11.62,1.33,5.58,10.79,7.36,13,1.62.28-.74.91-4.5-.54-3.62-.37.22-.35,2.28-.57,2.98-1.39,4.47-8.68,3.33-10.29-.13-3.62-7.8,5.93-13.71,12.14-10.29,9.47,5.23,6.39,19.61-4.45,21.21-15.18,2.24-21.34-15.09-11.41-25.04ZM326.65,40.7h13.4c-1.49,2.08-3.26,4.33-3.81,6.89-.1.45.12.98-.27,1.27h-9.32v-8.16ZM314.17,40.7h11.24v8.16h-11.24v-8.16ZM301.85,40.7h11.24v8.16h-11.24v-8.16ZM286.91,40.7h13.48s.23.21.23.23v7.7s-.21.23-.23.23h-9.78c-.17-2.22-.95-4.36-2.21-6.18l-1.48-1.98ZM330.96,50.1h5.24c-.05,1.41.51,2.96,1.05,4.26.47,1.13,1.31,2.69,2.05,3.65.28.36,1.67,1.63,1.67,1.87v491.79h-10.01V50.1ZM329.74,50.1v501.58h-9.87V50.1h9.87ZM318.64,50.1v501.58h-9.87V50.1h9.87ZM307.55,50.1v501.58h-9.86V50.1h9.86ZM290.6,50.1h5.62l.23,501.58h-10.01c0-.5-.01-.63-.01-1.16,0-13.18-.12-471.29.02-484.47.02-2.28.3-4.62.15-6.93,1.94-2.04,3.21-4.37,3.81-7.12.06-.29.12-1.82.19-1.89ZM281.82,552.91h63.16v6.93h-63.16v-6.93ZM277.66,561.07h71.63v9.25h-71.63v-9.25Z"/>
      </g>
    </g>
  </g>
</svg>