<?xml version="1.0" encoding="UTF-8"?>
<svg id="_图层_1" xmlns="http://www.w3.org/2000/svg" xmlns:xlink="http://www.w3.org/1999/xlink" version="1.1" viewBox="0 0 604 593">
  <!-- Generator: Adobe Illustrator 30.0.0, SVG Export Plug-In . SVG Version: 2.1.1 Build 123)  -->
  <defs>
    <style>
      .st0 {
        fill: none;
      }

      .st1 {
        fill: #0655bc;
      }

      .st2 {
        clip-path: url(#clippath);
      }

      .st3 {
        fill: #eceae7;
      }
    </style>
    <clipPath id="clippath">
      <rect class="st0" x="263.02" y="22.46" width="77.95" height="547.64"/>
    </clipPath>
  </defs>
  <g class="st2">
    <g>
      <polygon class="st3" points="256.04 26.69 251.77 30.93 252.24 33.42 247.32 39.56 242.62 49.88 250.69 55.36 257.88 56.74 263.02 57.01 263.02 60.34 263.02 551.45 263.02 552.68 261.33 558.44 259.01 559.61 259.01 561.89 321.3 564.13 322.17 559.61 317.52 553.57 317.57 546.13 317.57 54.32 324.14 56.53 335.88 52.94 336.57 44.11 332.63 36.39 328.57 33.84 328.93 30.91 325.76 27.19 256.04 26.69"/>
      <g id="zpTJVo">
        <path class="st1" d="M329.79,22.46h-79.1l1.08,8.47,1.92-.32h72.57l2.67.3c.33-.78.22-1.71.34-2.51.2-1.31.58-2.74.74-4.04.05-.41.26-1.76-.21-1.91h-.01ZM336.13,35.91c-2.96-2.96-6.38-3.88-10.49-4.07-16.19-.71-32.79.83-48.99,0-7.42.38-15.23-.45-22.65,0-9.74.57-16.96,11.81-12.84,20.86,3.27,7.19,11.29,10.55,18.68,7.32,4.76-2.08,8.07-8.93,6.22-13.88-.53-1.41-2.9-5.17-4.19-5.82-3.75-1.9-7.4-2.01-10.91.5-5.41,3.85-3.12,13.44,4.12,12.59,2.23-.26,3.53-1.53,3.77-3.78.07-.66-.28-2.45.55-2.51,1.17-.09.64,3.1.44,3.81-.61,2.19-2.43,3.41-4.63,3.69-8.77,1.11-11.51-11.06-4.17-15.26,4.06-2.33,7.51-2.03,11.6-.09,18.23-.04,36.47.03,54.7-.02.34,0,.66.14.92.14.71-.02,3.19-1.69,5.08-1.82,6.72-.47,12.36,4.62,10.69,11.62-1.33,5.58-10.79,7.36-13,1.62-.28-.74-.91-4.5.54-3.62.37.22.35,2.28.57,2.98,1.39,4.47,8.68,3.33,10.29-.13,3.62-7.8-5.93-13.71-12.14-10.29-9.47,5.23-6.39,19.61,4.45,21.21,15.18,2.24,21.34-15.09,11.41-25.04h-.02ZM277.35,40.48h-13.4c1.49,2.08,3.26,4.33,3.81,6.89.1.45-.12.98.27,1.27h9.32v-8.16ZM289.82,40.48h-11.24v8.16h11.24v-8.16ZM302.14,40.48h-11.24v8.16h11.24v-8.16ZM317.08,40.48h-13.48s-.23.21-.23.23v7.7s.21.23.23.23h9.78c.17-2.22.95-4.36,2.21-6.18l1.48-1.98h.01ZM273.04,49.88h-5.24c.05,1.41-.51,2.96-1.05,4.26-.47,1.13-1.31,2.69-2.05,3.65-.28.36-1.67,1.63-1.67,1.87v491.79h10.01V49.88h0ZM274.25,49.88v501.57h9.87V49.88h-9.87ZM285.35,49.88v501.57h9.87V49.88h-9.87ZM296.44,49.88v501.57h9.86V49.88h-9.86ZM313.39,49.88h-5.62l-.23,501.57h10.01c0-.5.01-.63.01-1.16,0-13.18.12-471.29-.02-484.47-.02-2.28-.3-4.62-.15-6.93-1.94-2.04-3.21-4.37-3.81-7.12-.06-.29-.12-1.82-.19-1.89h0ZM322.17,552.68h-63.16v6.93h63.16v-6.93ZM326.33,560.84h-71.63v9.25h71.63v-9.25Z"/>
      </g>
    </g>
  </g>
</svg>