<?xml version="1.0" encoding="UTF-8"?>
<svg id="_图层_1" xmlns="http://www.w3.org/2000/svg" version="1.1" viewBox="0 0 604 593">
  <!-- Generator: Adobe Illustrator 30.0.0, SVG Export Plug-In . SVG Version: 2.1.1 Build 123)  -->
  <defs>
    <style>
      .st0 {
        fill: #0655bc;
      }
    </style>
  </defs>
  <path class="st0" d="M460.99,127.11l-7.92-5.3-22.08-11.3-20.09,24.56-11.27,30.28-9.45,2.73-6.1,8.9-2.52-13.59-29.36-71.97h3.08l9.89,1.4,7.01,2.1h31.54l2.1-32.94-4.21-29.44-53.35,1.4-32.24,2.1c-9.81,0-18.93,0-29.44-.7-4.05,0-8.47,2.56-12.2,3.98h-6.12l-11.12-4.68-59.97-3.5-2.1,57.48,8.41,8.41,42.76-1.4c2.1,0-1.71-.7,3.2-2.1l.9-.9-28.59,71.47,3.5,7.71-5.94,4.29-5.49-8.01-9.45-2.73-11.27-30.28-20.09-24.56-22.08,11.3-7.92,5.3-23.66,19.68,31.39,46.64,7.72,1.34,28.36,48.77-12.04,29.2-5.61,3.5,1.4,44.16,16.82,35.75,25.23,59.58,21.03,43.46h7.71l-2.1,11.92,11.27,28.03-61.39-3.16-2.1,57.48,8.41,8.41,42.76-1.4c2.1,0,6.31-.7,11.21-2.1l3.5-3.51,15.42,2.1,65.19-.7h21.73l21.03,1.4,7.01,2.1h31.54l2.1-32.94-4.21-29.44-63.24,1.37,26.45-62.69,16.12-33.64.7-11.22,5.61-7.01,34.35-69.39,2.1-38.55-16.18-35.22,26.9-46.25,7.72-1.34,31.39-46.64-23.66-19.68v-.02ZM243.47,318.3l-6.05-15.36c4.77-23.91,11.19-47.4,20.82-70.04l-2.51-3.66,1.06-2.75-4.91-11.21,16.05,1.24,29.02-69.54,5.05,10.88,8.62,19,6.06,13.35,3.99,7.03,31.33,61.58,7.13,12.64c2.67,9.58,4.95,19.26,6.95,29.01l-32.19,78.83.7,12.62h.7l-8.41,8.41-20.93,40.69-8.38,14.53-26.76-69.94-14.02-28.74-14.02-9.81,7.01-8.41-6.31-20.33v-.02Z"/>
</svg>