<?xml version="1.0" encoding="UTF-8"?>
<svg id="_图层_1" xmlns="http://www.w3.org/2000/svg" version="1.1" viewBox="0 0 604 593">
  <!-- Generator: Adobe Illustrator 30.0.0, SVG Export Plug-In . SVG Version: 2.1.1 Build 123)  -->
  <defs>
    <style>
      .st0 {
        fill: #0655bc;
      }
    </style>
  </defs>
  <path class="st0" d="M297.79,169.98l.7.7,11.92-18.22,22.43-40.65,10.51-3.51-5.61-11.91,36.45-60.98,34.35,6.31,18.92,8.41-4.91,103.74-8.41,16.12,7.01,9.81,5.61,225.7-3.5,44.16,4.91,38.55,1.4,22.43,4.21,44.16-58.18,2.8-16.82-10.51-2.1-30.14,4.91-46.26v-75l8.41-12.62-7.71-7.01-2.8-32.24,4.91-152.8-2.8-25.94-6.31,11.22-11.92,15.42v7.01l-9.11,16.82-9.81,25.23-25.23,4.91-18.93-.7-16.82-32.94-2.8-5.61-4.91-11.21-14.72-28.74-1.4,46.96v.7l.7.7v96.73l-4.91,11.92,4.91,99.53,1.4,103.04v30.14l-65.89,1.4-5.61-26.64,9.11-26.64v.7l-6.31-16.82v-32.24l4.21-192.75,11.21-11.92-11.21-7.71.7-63.08-2.1-34.35-2.1-34.35,5.61-9.81-.7-3.5-6.31-9.11-.7-7.01-.7-39.25,30.14-2.1,25.93-3.5,31.54,63.78,39.25,68.69Z"/>
</svg>