<?xml version="1.0" encoding="UTF-8"?>
<svg id="_图层_1" xmlns="http://www.w3.org/2000/svg" version="1.1" viewBox="0 0 604 593">
  <!-- Generator: Adobe Illustrator 30.0.0, SVG Export Plug-In . SVG Version: 2.1.1 Build 123)  -->
  <defs>
    <style>
      .st0 {
        fill: #0655bc;
      }
    </style>
  </defs>
  <path class="st0" d="M412.75,37.86l4.21,29.44-2.1,32.94h-31.54l-7.01-2.1-21.03-1.4h-21.73l-4.21,29.44,2.8,15.42-1.4,51.87c0,6.31,0,23.83.7,28.04,0,5.61.7,11.92.7,16.82v11.92l.7,53.97-6.31,42.06-.7.7,8.41,13.32v131.77l5.61,49.77-20.33,11.22-19.63,3.5-37.15-5.61v-53.97l10.51-44.16-6.31-7.01,3.5-98.83,3.5-142.99-4.21-32.94,2.8-44.86-4.21-28.74-15.42-2.1-3.5,3.51c-4.91,1.4-9.11,2.1-11.21,2.1l-42.76,1.4-8.41-8.41,2.1-57.48,67.99,3.5,13.32,5.61c4.21,0,10.51-4.91,16.12-4.91,10.51.7,19.63.7,29.44.7l32.24-2.1,64.48-1.4Z"/>
</svg>