<?xml version="1.0" encoding="UTF-8"?>
<svg id="_图层_1" xmlns="http://www.w3.org/2000/svg" version="1.1" viewBox="0 0 604 593">
  <!-- Generator: Adobe Illustrator 30.0.0, SVG Export Plug-In . SVG Version: 2.1.1 Build 123)  -->
  <defs>
    <style>
      .st0 {
        fill: #0655bc;
      }
    </style>
  </defs>
  <path class="st0" d="M198.96,322.08l-.7-44.86,45.56-77.1,25.23-24.53v-16.82l17.52-28.04v-2.8l39.25-64.49.7-5.61,24.53-28.74,52.57,35.05-19.63,35.05-19.63,27.34-11.92,7.71-3.5,18.92-42.06,62.38-23.13,36.45-13.32,23.83-9.11,16.82,10.51,20.33,7.01,13.32,9.81,9.81,6.31,14.02,25.93,39.95,32.24,54.67,36.45,47.66,16.12,25.94-36.45,30.14-23.83,15.42-23.83-37.15-1.4-8.41-53.27-82.71,5.61-12.62-32.24-30.14-25.23-45.56-16.12-25.23Z"/>
</svg>