<?xml version="1.0" encoding="UTF-8"?>
<svg id="_图层_1" xmlns="http://www.w3.org/2000/svg" version="1.1" viewBox="0 0 604 593">
  <!-- Generator: Adobe Illustrator 30.0.0, SVG Export Plug-In . SVG Version: 2.1.1 Build 123)  -->
  <defs>
    <style>
      .st0 {
        fill: #0655bc;
      }
    </style>
  </defs>
  <path class="st0" d="M250.83,336.8l.7,76.4,2.1,70.09,2.1,6.31.7,58.18-28.04,11.21-46.26-4.2,4.21-111.45,10.51-27.34-6.31-9.11v-27.34l-2.8-82.01-1.4-36.45,5.61-14.02-3.5-133.88-2.8-60.28,55.37-22.43,111.45,96.73,4.21,17.52c.7.7,11.92-2.8,12.62-2.8l33.64,30.84-4.91,42.06-32.24,39.25-22.43,26.64-11.92,14.72-19.63,26.64c4.91,9.81,13.32,21.73,17.52,30.14v11.92c5.61,6.31,9.81,9.81,14.72,16.82l28.04,47.66v9.11l4.21,2.1,9.81,20.33v-.7l12.62,26.64,23.13,24.53-.7,20.33-56.78,31.54-16.82-27.34-24.53-56.07.7-11.92-8.41-4.21-25.93-49.07-6.31-16.12-28.04-56.78-4.21-4.21ZM250.83,301.06l4.91-2.8,35.05-43.46c9.81-11.92,26.64-33.65,35.75-46.26l7.71-9.81-14.02-17.52-4.91-3.51-64.48-63.78-1.4,53.97v7.01l-5.61,13.32,2.8,12.62,1.4,4.21,1.4,7.71,2.8,62.38-1.4,25.93Z"/>
</svg>