<?xml version="1.0" encoding="UTF-8"?>
<svg id="_图层_1" xmlns="http://www.w3.org/2000/svg" xmlns:xlink="http://www.w3.org/1999/xlink" version="1.1" viewBox="0 0 604 593">
  <!-- Generator: Adobe Illustrator 30.0.0, SVG Export Plug-In . SVG Version: 2.1.1 Build 123)  -->
  <defs>
    <style>
      .st0 {
        fill: none;
      }

      .st1 {
        fill: #0655bc;
      }

      .st2 {
        clip-path: url(#clippath);
      }

      .st3 {
        fill: #eceae7;
      }
    </style>
    <clipPath id="clippath">
      <rect class="st0" x="273.91" y="32.93" width="56.17" height="527.15" transform="translate(604 593) rotate(180)"/>
    </clipPath>
  </defs>
  <g class="st2">
    <g>
      <polygon class="st3" points="335.12 35.98 338.19 39.03 337.85 40.83 341.4 45.25 344.78 52.69 338.97 56.63 333.8 57.63 330.09 57.83 330.09 60.23 330.09 546.64 330.09 547.52 331.3 551.67 332.97 552.52 332.97 554.16 288.09 555.77 287.46 552.52 290.81 548.17 290.78 542.8 290.78 55.89 286.04 57.48 277.59 54.9 277.09 48.53 279.92 42.97 282.86 41.13 282.59 39.02 284.87 36.34 335.12 35.98"/>
      <g id="zpTJVo">
        <path class="st1" d="M281.96,32.93h57l-.78,6.11-1.38-.23h-52.29s-1.92.21-1.92.21c-.24-.56-.16-1.23-.25-1.81-.15-.94-.41-1.97-.53-2.91-.04-.29-.19-1.27.15-1.38ZM277.4,42.62c2.13-2.13,4.6-2.8,7.56-2.93,11.67-.51,23.63.6,35.31,0,5.35.27,10.98-.32,16.32,0,7.02.41,12.22,8.51,9.25,15.03-2.36,5.18-8.13,7.6-13.46,5.27-3.43-1.5-5.82-6.44-4.48-10.01.38-1.01,2.09-3.72,3.02-4.19,2.7-1.37,5.33-1.45,7.86.36,3.9,2.77,2.25,9.68-2.97,9.07-1.61-.19-2.55-1.1-2.71-2.72-.05-.47.2-1.77-.4-1.81-.85-.06-.46,2.23-.32,2.75.44,1.58,1.75,2.46,3.34,2.66,6.32.8,8.3-7.97,3.01-11-2.93-1.68-5.41-1.47-8.36-.07-13.14-.03-26.28.02-39.42-.01-.25,0-.48.1-.66.1-.51-.01-2.3-1.22-3.66-1.31-4.84-.34-8.91,3.33-7.71,8.37.96,4.02,7.78,5.31,9.37,1.17.2-.53.66-3.24-.39-2.61-.27.16-.25,1.64-.41,2.15-1,3.22-6.26,2.4-7.41-.09-2.61-5.62,4.27-9.88,8.75-7.41,6.83,3.77,4.6,14.13-3.21,15.29-10.94,1.61-15.38-10.88-8.22-18.04ZM319.76,45.91h9.66c-1.08,1.5-2.35,3.12-2.75,4.97-.07.32.09.7-.19.92h-6.72v-5.88ZM310.77,45.91h8.1v5.88h-8.1v-5.88ZM301.89,45.91h8.1v5.88h-8.1v-5.88ZM291.12,45.91h9.71s.17.15.17.17v5.55s-.15.17-.17.17h-7.05c-.12-1.6-.69-3.14-1.59-4.45l-1.07-1.43ZM322.87,52.69h3.77c-.04,1.02.37,2.13.76,3.07.34.81.94,1.94,1.48,2.63.2.26,1.2,1.17,1.2,1.35v486.9h-7.22V52.69ZM321.99,52.69v493.95h-7.11V52.69h7.11ZM313.99,52.69v493.95h-7.11V52.69h7.11ZM306,52.69v493.95h-7.1V52.69h7.1ZM293.79,52.69h4.05l.17,493.95h-7.22c0-.36,0-.45,0-.83,0-9.5-.09-472.13.01-481.63.02-1.64.21-3.33.11-4.99,1.4-1.47,2.31-3.15,2.75-5.13.05-.21.09-1.31.14-1.36ZM287.46,547.52h45.51v5h-45.51v-5ZM284.46,553.41h51.62v6.67h-51.62v-6.67Z"/>
      </g>
    </g>
  </g>
</svg>