<?xml version="1.0" encoding="UTF-8"?>
<svg id="_图层_1" xmlns="http://www.w3.org/2000/svg" xmlns:xlink="http://www.w3.org/1999/xlink" version="1.1" viewBox="0 0 604 593">
  <!-- Generator: Adobe Illustrator 30.0.0, SVG Export Plug-In . SVG Version: 2.1.1 Build 123)  -->
  <defs>
    <style>
      .st0 {
        fill: none;
      }

      .st1 {
        fill: #0655bc;
      }

      .st2 {
        clip-path: url(#clippath);
      }

      .st3 {
        fill: #eceae7;
      }
    </style>
    <clipPath id="clippath">
      <rect class="st0" x="263.36" y="17.04" width="77.28" height="558.92" transform="translate(604 593) rotate(180)"/>
    </clipPath>
  </defs>
  <g class="st2">
    <g>
      <polygon class="st3" points="347.56 21.24 351.79 25.44 351.32 27.91 356.21 34 360.86 44.22 352.86 49.66 345.75 51.03 340.64 51.3 340.64 54.6 340.64 557.47 340.64 558.7 342.31 564.4 344.61 565.57 344.61 567.82 282.86 570.04 281.99 565.57 286.6 559.58 286.56 552.2 286.56 48.63 280.04 50.82 268.41 47.27 267.73 38.51 271.63 30.85 275.66 28.32 275.29 25.42 278.43 21.73 347.56 21.24"/>
      <g id="zpTJVo">
        <path class="st1" d="M274.43,17.04h78.43l-1.07,8.4-1.9-.31h-71.95s-2.65.3-2.65.3c-.33-.78-.22-1.7-.34-2.48-.2-1.3-.57-2.71-.73-4-.05-.4-.26-1.75.21-1.89ZM268.15,30.38c2.93-2.93,6.33-3.85,10.4-4.03,16.05-.71,32.51.82,48.58,0,7.36.38,15.1-.44,22.46,0,9.66.57,16.81,11.71,12.73,20.68-3.24,7.13-11.19,10.46-18.52,7.25-4.72-2.06-8.01-8.86-6.17-13.77.52-1.4,2.88-5.12,4.16-5.77,3.72-1.88,7.33-1.99,10.82.49,5.36,3.82,3.1,13.32-4.08,12.48-2.21-.26-3.5-1.52-3.74-3.75-.07-.65.28-2.43-.55-2.49-1.16-.09-.63,3.07-.43,3.78.61,2.17,2.41,3.38,4.59,3.65,8.69,1.1,11.42-10.96,4.14-15.13-4.03-2.31-7.45-2.02-11.5-.09-18.08-.04-36.16.03-54.23-.02-.34,0-.66.14-.91.14-.71-.02-3.16-1.67-5.04-1.8-6.66-.47-12.26,4.58-10.6,11.52,1.32,5.53,10.7,7.3,12.89,1.61.28-.73.91-4.46-.54-3.59-.37.22-.35,2.26-.56,2.95-1.38,4.44-8.61,3.3-10.2-.12-3.59-7.73,5.88-13.6,12.03-10.2,9.39,5.19,6.33,19.45-4.41,21.03-15.05,2.22-21.16-14.96-11.31-24.83ZM326.44,34.91h13.29c-1.48,2.07-3.23,4.29-3.78,6.83-.1.44.12.97-.26,1.26h-9.24v-8.09ZM314.07,34.91h11.15v8.09h-11.15v-8.09ZM301.85,34.91h11.15v8.09h-11.15v-8.09ZM287.03,34.91h13.36s.23.21.23.23v7.64s-.21.23-.23.23h-9.7c-.16-2.2-.94-4.32-2.19-6.13l-1.47-1.97ZM330.71,44.22h5.19c-.05,1.4.5,2.93,1.04,4.22.47,1.12,1.29,2.67,2.04,3.61.28.35,1.65,1.61,1.65,1.86v503.55h-9.93V44.22ZM329.5,44.22v513.25h-9.78V44.22h9.78ZM318.5,44.22v513.25h-9.78V44.22h9.78ZM307.5,44.22v513.25h-9.77V44.22h9.77ZM290.7,44.22h5.57l.23,513.25h-9.93c0-.5-.01-.62-.01-1.15,0-13.07-.12-483.22.02-496.29.02-2.26.29-4.58.15-6.87,1.92-2.02,3.18-4.33,3.78-7.06.06-.29.12-1.8.19-1.87ZM281.99,558.7h62.62v6.87h-62.62v-6.87ZM277.87,566.79h71.02v9.17h-71.02v-9.17Z"/>
      </g>
    </g>
  </g>
</svg>