<?xml version="1.0" encoding="UTF-8"?>
<svg id="_图层_1" xmlns="http://www.w3.org/2000/svg" xmlns:xlink="http://www.w3.org/1999/xlink" version="1.1" viewBox="0 0 604 593">
  <!-- Generator: Adobe Illustrator 30.0.0, SVG Export Plug-In . SVG Version: 2.1.1 Build 123)  -->
  <defs>
    <style>
      .st0 {
        fill: none;
      }

      .st1 {
        fill: #0655bc;
      }

      .st2 {
        clip-path: url(#clippath);
      }

      .st3 {
        fill: #eceae7;
      }
    </style>
    <clipPath id="clippath">
      <rect class="st0" x="267.34" y="31.19" width="69.33" height="530.62" transform="translate(604 593) rotate(180)"/>
    </clipPath>
  </defs>
  <g class="st2">
    <g>
      <polygon class="st3" points="342.87 34.96 346.67 38.73 346.25 40.95 350.63 46.41 354.8 55.58 347.63 60.45 341.25 61.68 336.66 61.93 336.66 64.89 336.66 545.22 336.66 546.32 338.16 551.44 340.23 552.49 340.23 554.51 284.83 556.5 284.05 552.49 288.18 547.11 288.15 540.49 288.15 59.53 282.3 61.5 271.87 58.31 271.25 50.46 274.75 43.58 278.37 41.32 278.04 38.71 280.85 35.4 342.87 34.96"/>
      <g id="zpTJVo">
        <path class="st1" d="M277.27,31.19h70.35l-.96,7.54-1.71-.28h-64.54s-2.38.26-2.38.26c-.29-.7-.2-1.52-.31-2.23-.18-1.16-.51-2.43-.65-3.59-.04-.36-.23-1.57.19-1.7ZM271.63,43.16c2.63-2.63,5.68-3.45,9.33-3.62,14.4-.63,29.16.74,43.58,0,6.6.34,13.55-.4,20.15,0,8.66.51,15.08,10.5,11.42,18.55-2.91,6.39-10.04,9.38-16.61,6.51-4.23-1.85-7.18-7.95-5.53-12.35.47-1.25,2.58-4.59,3.73-5.18,3.34-1.69,6.58-1.79,9.71.44,4.81,3.42,2.78,11.95-3.66,11.2-1.98-.23-3.14-1.36-3.35-3.36-.06-.58.25-2.18-.49-2.24-1.04-.08-.57,2.75-.39,3.39.54,1.95,2.16,3.03,4.12,3.28,7.8.99,10.24-9.84,3.71-13.58-3.61-2.07-6.68-1.81-10.32-.08-16.22-.04-32.43.03-48.65-.01-.3,0-.59.13-.82.12-.63-.01-2.83-1.5-4.52-1.62-5.98-.42-10.99,4.11-9.51,10.33,1.18,4.96,9.6,6.55,11.57,1.45.25-.66.81-4-.48-3.22-.33.2-.31,2.03-.5,2.65-1.23,3.98-7.72,2.96-9.15-.11-3.22-6.94,5.28-12.2,10.79-9.15,8.43,4.65,5.68,17.44-3.96,18.87-13.5,1.99-18.98-13.42-10.15-22.27ZM323.92,47.22h11.92c-1.33,1.85-2.9,3.85-3.39,6.13-.09.4.11.87-.24,1.13h-8.29v-7.26ZM312.83,47.22h10v7.26h-10v-7.26ZM301.86,47.22h10v7.26h-10v-7.26ZM288.57,47.22h11.99s.21.19.21.21v6.85s-.19.21-.21.21h-8.7c-.15-1.97-.85-3.88-1.97-5.5l-1.32-1.76ZM327.76,55.58h4.66c-.05,1.25.45,2.63.94,3.79.42,1,1.16,2.39,1.83,3.24.25.32,1.48,1.45,1.48,1.67v480.94h-8.91V55.58ZM326.67,55.58v489.64h-8.78V55.58h8.78ZM316.8,55.58v489.64h-8.78V55.58h8.78ZM306.93,55.58v489.64h-8.77V55.58h8.77ZM291.86,55.58h5l.21,489.64h-8.91c0-.45-.01-.56-.01-1.03,0-11.73-.11-462.71.01-474.44.02-2.03.26-4.11.14-6.16,1.72-1.81,2.85-3.89,3.39-6.34.06-.26.11-1.62.17-1.68ZM284.05,546.32h56.17v6.17h-56.17v-6.17ZM280.35,553.58h63.71v8.23h-63.71v-8.23Z"/>
      </g>
    </g>
  </g>
</svg>