<?xml version="1.0" encoding="UTF-8"?>
<svg id="_图层_1" xmlns="http://www.w3.org/2000/svg" xmlns:xlink="http://www.w3.org/1999/xlink" version="1.1" viewBox="0 0 604 593">
  <!-- Generator: Adobe Illustrator 30.0.0, SVG Export Plug-In . SVG Version: 2.1.1 Build 123)  -->
  <defs>
    <style>
      .st0 {
        fill: none;
      }

      .st1 {
        fill: #0655bc;
      }

      .st2 {
        clip-path: url(#clippath);
      }

      .st3 {
        fill: #eceae7;
      }
    </style>
    <clipPath id="clippath">
      <rect class="st0" x="185.84" y="63.23" width="232.32" height="466.54" transform="translate(604 593) rotate(180)"/>
    </clipPath>
  </defs>
  <g class="st2">
    <g>
      <polygon class="st3" points="438.96 75.86 451.67 88.48 450.27 95.92 464.96 114.22 478.94 144.95 454.89 161.29 433.51 165.4 418.16 166.22 418.16 176.14 418.16 474.19 418.16 477.87 423.19 495.02 430.1 498.53 430.1 505.3 244.45 511.98 241.86 498.53 255.7 480.53 255.58 458.33 255.58 158.21 235.97 164.78 201.03 154.1 198.97 127.78 210.69 104.76 222.82 97.16 221.71 88.43 231.14 77.35 438.96 75.86"/>
      <g id="zpTJVo">
        <path class="st1" d="M219.14,63.23h235.75l-3.22,25.25-5.71-.94h-216.28s-7.96.89-7.96.89c-.99-2.33-.66-5.11-1.02-7.47-.6-3.9-1.71-8.16-2.19-12.04-.15-1.21-.78-5.25.64-5.69ZM200.24,103.34c8.81-8.82,19.03-11.58,31.27-12.12,48.25-2.13,97.72,2.48,146.02.02,22.12,1.13,45.4-1.33,67.51-.03,29.03,1.71,50.53,35.2,38.26,62.18-9.75,21.42-33.64,31.43-55.67,21.81-14.18-6.19-24.06-26.63-18.54-41.38,1.57-4.2,8.65-15.4,12.5-17.34,11.18-5.65,22.05-5.98,32.53,1.48,16.11,11.47,9.31,40.05-12.27,37.53-6.65-.78-10.53-4.57-11.23-11.27-.2-1.95.83-7.31-1.65-7.49-3.5-.26-1.9,9.23-1.3,11.37,1.82,6.53,7.25,10.16,13.81,10.99,26.13,3.31,34.32-32.96,12.44-45.49-12.1-6.93-22.38-6.06-34.57-.27-54.34-.13-108.69.09-163.03-.05-1.02,0-1.98.42-2.75.41-2.13-.05-9.49-5.03-15.14-5.42-20.03-1.41-36.84,13.76-31.87,34.63,3.96,16.62,32.17,21.94,38.76,4.84.85-2.2,2.73-13.42-1.61-10.8-1.1.67-1.05,6.8-1.69,8.87-4.14,13.34-25.88,9.93-30.66-.37-10.79-23.25,17.68-40.87,36.17-30.66,28.24,15.59,19.03,58.46-13.27,63.22-45.24,6.67-63.61-44.98-34-74.63ZM375.46,116.95h39.94c-4.45,6.21-9.71,12.89-11.37,20.54-.29,1.33.36,2.91-.8,3.79h-27.78v-24.33ZM338.27,116.95h33.51v24.33h-33.51v-24.33ZM301.55,116.95h33.51v24.33h-33.51v-24.33ZM257.01,116.95h40.17s.69.64.69.69v22.96s-.64.69-.69.69h-29.15c-.49-6.61-2.83-13-6.6-18.42l-4.42-5.91ZM388.32,144.95h15.61c-.16,4.2,1.51,8.82,3.14,12.7,1.4,3.36,3.89,8.01,6.12,10.87.83,1.06,4.97,4.85,4.97,5.59v300.09h-29.84V144.95ZM384.67,144.95v329.24h-29.41V144.95h29.41ZM351.59,144.95v329.24h-29.41V144.95h29.41ZM318.53,144.95v329.24h-29.38V144.95h29.38ZM268.03,144.95h16.76l.69,329.24h-29.84c0-1.5-.04-1.88-.04-3.44,0-39.3-.36-238.98.05-278.27.07-6.79.88-13.78.46-20.66,5.77-6.07,9.55-13.03,11.36-21.23.19-.87.37-5.43.57-5.63ZM241.86,477.87h188.23v20.66h-188.23v-20.66ZM229.47,502.2h213.48v27.57h-213.48v-27.57Z"/>
      </g>
    </g>
  </g>
</svg>