<?xml version="1.0" encoding="UTF-8"?>
<svg id="_图层_1" xmlns="http://www.w3.org/2000/svg" xmlns:xlink="http://www.w3.org/1999/xlink" version="1.1" viewBox="0 0 604 593">
  <!-- Generator: Adobe Illustrator 30.0.0, SVG Export Plug-In . SVG Version: 2.1.1 Build 123)  -->
  <defs>
    <style>
      .st0 {
        fill: none;
      }

      .st1 {
        fill: #0655bc;
      }

      .st2 {
        clip-path: url(#clippath);
      }

      .st3 {
        fill: #eceae7;
      }
    </style>
    <clipPath id="clippath">
      <rect class="st0" x="265.81" y="19.27" width="72.39" height="554.46"/>
    </clipPath>
  </defs>
  <g class="st2">
    <g>
      <polygon class="st3" points="259.33 23.2 255.37 27.14 255.8 29.45 251.22 35.15 246.87 44.73 254.36 49.82 261.02 51.1 265.81 51.36 265.81 54.45 265.81 556.42 265.81 557.56 264.24 562.9 262.09 564 262.09 566.11 319.93 568.19 320.74 564 316.42 558.39 316.46 551.47 316.46 48.86 322.57 50.91 333.46 47.58 334.1 39.38 330.45 32.21 326.67 29.84 327.02 27.12 324.08 23.67 259.33 23.2"/>
      <g id="zpTJVo">
        <path class="st1" d="M327.82,19.27h-73.46l1,7.87,1.78-.29h67.39s2.48.28,2.48.28c.31-.73.21-1.59.32-2.33.19-1.22.53-2.54.68-3.75.05-.38.24-1.63-.2-1.77ZM333.71,31.76c-2.74-2.75-5.93-3.61-9.74-3.78-15.04-.66-30.45.77-45.5,0-6.89.35-14.15-.41-21.03,0-9.05.53-15.75,11.58-11.92,19.98,3.04,6.67,10.48,9.18,17.35,6.18,4.42-1.93,7.5-8.3,5.78-12.89-.49-1.31-2.69-4.8-3.9-5.4-3.48-1.76-6.87-1.86-10.13.46-5.02,3.58-2.9,12.48,3.82,11.69,2.07-.24,3.28-1.42,3.5-3.51.06-.61-.26-2.28.52-2.33,1.09-.08.59,2.87.41,3.54-.57,2.04-2.26,3.16-4.3,3.42-8.14,1.03-10.69-10.27-3.88-14.17,3.77-2.16,6.97-1.89,10.77-.09,16.93-.04,33.86.03,50.8-.02.32,0,.62.13.86.13.66-.01,2.96-1.57,4.72-1.69,6.24-.44,11.48,4.29,9.93,10.79-1.23,5.18-10.02,6.84-12.08,1.51-.26-.68-.85-4.18.5-3.36.34.21.33,2.12.53,2.76,1.29,4.16,8.06,3.09,9.55-.12,3.36-7.24-5.51-12.74-11.27-9.55-8.8,4.86-5.93,18.21,4.13,19.7,14.1,2.08,19.82-14.02,10.59-23.25ZM279.11,36.01h-12.45c1.39,1.94,3.03,4.02,3.54,6.4.09.42-.11.91.25,1.18h8.65v-7.58ZM290.7,36.01h-10.44v7.58h10.44v-7.58ZM302.14,36.01h-10.44v7.58h10.44v-7.58ZM316.02,36.01h-12.52s-.21.2-.21.21v7.15s.2.21.21.21h9.08c.15-2.06.88-4.05,2.06-5.74l1.38-1.84ZM275.11,44.73h-4.86c.05,1.31-.47,2.75-.98,3.96-.44,1.05-1.21,2.5-1.91,3.39-.26.33-1.55,1.51-1.55,1.74v502.6h9.3V44.73ZM276.24,44.73v511.68h9.16V44.73h-9.16ZM286.55,44.73v511.68h9.16V44.73h-9.16ZM296.85,44.73v511.68h9.16V44.73h-9.16ZM312.58,44.73h-5.22l-.21,511.68h9.3c0-.47.01-.59.01-1.07,0-12.24.11-483.56-.01-495.8-.02-2.11-.28-4.29-.14-6.44-1.8-1.89-2.98-4.06-3.54-6.62-.06-.27-.12-1.69-.18-1.75ZM320.74,557.56h-58.65v6.44h58.65v-6.44ZM324.6,565.14h-66.52v8.59h66.52v-8.59Z"/>
      </g>
    </g>
  </g>
</svg>