<?xml version="1.0" encoding="UTF-8"?>
<svg id="_图层_1" xmlns="http://www.w3.org/2000/svg" xmlns:xlink="http://www.w3.org/1999/xlink" version="1.1" viewBox="0 0 604 593">
  <!-- Generator: Adobe Illustrator 30.0.0, SVG Export Plug-In . SVG Version: 2.1.1 Build 123)  -->
  <defs>
    <style>
      .st0 {
        fill: none;
      }

      .st1 {
        fill: #0655bc;
      }

      .st2 {
        clip-path: url(#clippath);
      }

      .st3 {
        fill: #eceae7;
      }
    </style>
    <clipPath id="clippath">
      <rect class="st0" x="216.45" y="21.36" width="171.09" height="550.28"/>
    </clipPath>
  </defs>
  <g class="st2">
    <g>
      <polygon class="st3" points="201.13 30.66 191.77 39.96 192.81 45.44 181.98 58.91 171.69 81.54 189.41 93.57 205.15 96.6 216.45 97.21 216.45 104.51 216.45 665.4 216.45 668.11 212.75 680.74 207.66 683.32 207.66 688.31 344.38 693.23 346.29 683.32 336.1 670.07 336.18 653.72 336.18 91.3 350.62 96.15 376.36 88.28 377.87 68.9 369.24 51.94 360.31 46.34 361.13 39.92 354.18 31.75 201.13 30.66"/>
      <g id="zpTJVo">
        <path class="st1" d="M363.03,21.36h-173.62l2.37,18.6,4.21-.69h159.28s5.86.65,5.86.65c.73-1.72.49-3.76.75-5.5.44-2.87,1.26-6.01,1.62-8.87.11-.89.58-3.86-.47-4.19ZM376.94,50.89c-6.49-6.49-14.01-8.53-23.03-8.92-35.54-1.57-71.97,1.83-107.54.02-16.29.83-33.43-.98-49.72-.02-21.38,1.26-37.22,25.92-28.18,45.79,7.18,15.78,24.77,23.15,41,16.06,10.44-4.56,17.72-19.61,13.65-30.48-1.16-3.09-6.37-11.34-9.21-12.77-8.23-4.16-16.24-4.41-23.95,1.09-11.87,8.45-6.86,29.5,9.04,27.64,4.9-.57,7.76-3.37,8.27-8.3.15-1.44-.61-5.38,1.22-5.52,2.58-.19,1.4,6.8.96,8.37-1.34,4.81-5.34,7.48-10.17,8.09-19.25,2.44-25.28-24.27-9.16-33.5,8.91-5.1,16.48-4.46,25.46-.2,40.02-.09,80.04.07,120.06-.04.75,0,1.46.31,2.02.3,1.57-.03,6.99-3.7,11.15-3.99,14.75-1.04,27.13,10.14,23.47,25.5-2.91,12.24-23.69,16.16-28.55,3.57-.62-1.62-2.01-9.88,1.19-7.95.81.49.77,5.01,1.24,6.53,3.05,9.82,19.06,7.32,22.58-.28,7.95-17.12-13.02-30.1-26.64-22.58-20.79,11.48-14.02,43.05,9.77,46.56,33.32,4.92,46.85-33.13,25.04-54.96ZM247.9,60.92h-29.42c3.28,4.57,7.15,9.49,8.37,15.13.21.98-.26,2.15.59,2.79h20.46v-17.92ZM275.29,60.92h-24.68v17.92h24.68v-17.92ZM302.33,60.92h-24.68v17.92h24.68v-17.92ZM335.13,60.92h-29.58s-.51.47-.51.51v16.91s.47.51.51.51h21.47c.36-4.87,2.09-9.57,4.86-13.57l3.26-4.35ZM238.43,81.54h-11.5c.12,3.09-1.12,6.49-2.31,9.35-1.03,2.47-2.87,5.9-4.51,8-.61.78-3.66,3.57-3.66,4.12v562.39h21.98V81.54ZM241.12,81.54v583.86h21.66V81.54h-21.66ZM265.48,81.54v583.86h21.66V81.54h-21.66ZM289.82,81.54v583.86h21.64V81.54h-21.64ZM327.02,81.54h-12.34l-.51,583.86h21.98c0-1.11.03-1.38.03-2.54,0-28.94.26-517.39-.03-546.32-.05-5-.65-10.15-.34-15.21-4.25-4.47-7.04-9.6-8.37-15.64-.14-.64-.27-4-.42-4.15ZM346.29,668.11h-138.63v15.22h138.63v-15.22ZM355.42,686.03h-157.22v25.17h157.22v-25.17Z"/>
      </g>
    </g>
  </g>
</svg>