<?xml version="1.0" encoding="UTF-8"?>
<svg id="_图层_1" xmlns="http://www.w3.org/2000/svg" version="1.1" viewBox="0 0 604 593">
  <!-- Generator: Adobe Illustrator 30.0.0, SVG Export Plug-In . SVG Version: 2.1.1 Build 123)  -->
  <defs>
    <style>
      .st0 {
        fill: #0655bc;
      }
    </style>
  </defs>
  <path class="st0" d="M254.14,25.3c-1.62.05-3.12.8-4.76.68-3.25,2.65-10.13,2.06-11.27,6.76-1.14,4.65.89,14.2,1.09,19.42.18,4.64-.18,9.34-.03,13.98-1.56.33-1.09-.16-1.53-.87-2.17-3.48-5.24-12.5-6.44-16.68-.94-3.28-1.03-7.34-2-10.25-.15-.46-2.1-4.03-2.28-4.19-.11-.11-.49.1-.68,0-.82-.42-1.2-.63-2.18-.53-4.95.48-15.33,3.07-20.28,4.61-.71.22-1.34.43-2.04.68-6.3,2.27-16.57,7.17-22,11.01-2.82,2-11.29,8.32-11.91,11.27-.23,1.1-.17,1.88.17,2.94.59,1.83,6.02,8.77,7.55,11.52,3.11,5.6,6.5,12.14,7.81,18.39-5.91-5.29-11.38-11.08-17.03-16.66-2.44-2.41-5.15-7.17-9.51-7.16-.11,0-1.82.57-2.04.68-4.49,2.18-17.69,16.02-21.45,20.41-4.51,5.27-7.8,11.47-11.9,17.02.21,1.15-.18,2.18.68,3.4,1.23,1.75,6.48,4.16,8.53,6.1,1.09,1.03,6.61,7.75,5.75,8.87-10.08-2.32-18.43-11.11-25.3,1.58-7.57,13.97-13.57,31.76-14.2,47.74-.74,18.78,9.26,9.02,19.77,18.74-11.82,3.06-21.03-4.94-22.45,11.93-1.47,17.47,7.35,30.3,5.26,46.78-1.15,9.06-7.42,17.54-16.84,18.89-.13.02-2.12-.01-2.72,0-1.83,1.82-4.58,1.03-6.83,1.68-5.92,1.71-14.26,9.93-16.99,15.34-.66,1.3-1.04,2.67-1.36,4.08-.62,2.78-1.17,5.38-.5,8.32.44,1.95,5.11,10.4,7.55,9.95,2.99-.55,1.02-6.7,1.08-9.11.28-11.84,11.63-19.49,22.23-21.35,1.65-.29,3.56.19,5.03-.07,2.16-.38,4.79-1.2,6.81-2.04,19.11-7.99,13.16-26.72,26.18-39.49,4.44-4.35,9.77-5.76,10.57-13.25,1.35-12.62,1.14-24.54,4.28-37.23,17.98-72.62,111.66-107.87,176.69-76.36,3.36,1.63,11.93,8.02,15.22,7.63,3.61-.43,3.18-2.87,4.69-4.86,8.45-11.2,22.13-22.25,35.3-27.31,3.68-1.41,7.54-2.83,11.55-2.4,3.43-1.55,8.81-2.16,7.33-7.66-.38-1.43-6.61-9.61-7.99-11.08-2.03-2.15-9.22-8.38-11.59-9.85-2.58-1.6-7.81-3.08-10.67-4.64-4.68-2.56-17.56-11.25-22.32-11.06-4.87.19-5.36,4.72-7.29,7.75-3.26,5.11-6.93,9.97-9.94,15.24-4.42,7.73-8.45,19.95-12.94,26.54-.59.87-.76,1.86-2.17,1.57-.14-11.86,4.33-25.52,10.09-35.84,2.06-3.69,10.09-13.23,10.38-16.22.12-1.27-.07-2.63-.74-3.75-.72-.42-2.56-2-2.72-2.04-5.69-1.61-11.85-3.22-17.62-4.84-16.53-4.27-32.42-5.2-49.07-4.69Z"/>
  <path class="st0" d="M102.37,284.61c-4.18,1.79-6.51,1.62-10.21,2.72-6.51,1.94-12.79,4.15-17.01,9.87-5.73,7.76-3.22,16.74-11.93,23.46-6.43,4.97-12.36,2.83-19.06,5.44-10.76,4.21-17.47,16.63-14.62,27.92.28.31.39,1.11.68,1.36,5.2.5,5.42-7.93,7.34-11.37,2.36-4.22,10.19-8.07,14.89-8.31,2.88-.15,5.34,1.07,8.07,1.3,12.46,1.01,21.06-5.83,27.55-15.64.05,7.86-2.5,16.46-8.49,21.79-10.76,9.6-24.95,4.79-32.89,19.51-5.08,9.42-2.7,14.49.55,23.35.17.47.51.89.68,1.36l8.17,6.81c.23,0,.45.01.68,0,7.77-.41,1.11-4.24-.57-6.58-5.3-7.4-3.71-18.59,4.62-23.06,9.67-5.19,18.56,1.09,29.19-1.44,9.46-2.25,18.7-9.98,21.38-19.45,3.96-13.95-4.45-21.98,7.33-36.23,12.87-15.55,33.63-9.32,43.66-28.48,4.3-8.22,1.85-9.07.21-16.79-17.24-81.14,64.32-149.64,140.03-113.49,2.68,1.28,6.34,5.02,9.01,4.62,2.05-.31,3.15-5.25,4.33-7.29,3.16-5.49,5.92-8.92,12.37-10.43.21-.24.59-.51.68-.68l.68-.68c.71-2.01,1.3-4.74-1.36-5.44-1.05-.28-2.27.08-3.9-.52-6.04-2.23-13.41-8.05-20.62-10.7-44.26-16.23-107.49-1.91-136.38,36.47-18.96,25.19-19.05,41.53-23.63,70.97-2.68,17.24-13.25,16.37-19.94,27.7-4.79,8.11-3.63,15.63-10.32,23.71-3.2,3.86-6.66,6.29-11.17,8.22ZM271.91,120.66c5.34-.24,7.4-1.21,6.68,4.97-.1.83-1.76,6.91-2.07,7.11-1.08.7-6.16,0-6.65-1.72-.27-.97,2.23-8.41,2.05-10.37ZM250.3,120.65c1.45.49,2.23,8.85,1.7,10.39-.57,1.69-5.71,3.23-6.56-.74-.17-.79-.84-7.58-.74-7.97.31-1.25,4.42-2.08,5.6-1.68ZM303.72,128.17c.84,1.34-3.28,10.75-4.26,11.54-1.84,1.48-5.2-.28-6.92-1.42.15-1.56,3.92-11.6,4.45-11.96,1.18-.81,6.42,1.34,6.73,1.84ZM226.86,137.53c-.54.75-4.84,1.87-6.08,1.11-.38-.23-3.23-7.78-3.28-8.31-.16-1.63,4.56-4.25,6.03-3.32,1.04.66,3.79,9.89,3.34,10.52ZM197.19,141.08c.76.25,4.47,6.26,4.57,7.12.18,1.57-2.39,3.71-3.79,3.72-1.2,0-5.55-6.8-5.65-7.98-.15-1.71,3.33-3.37,4.88-2.86Z"/>
  <path class="st0" d="M333.09,175.04c-5.87-4.87-31.71-17.31-39.49-20.06-67.83-24.04-136.89,32.88-121.5,104.48.7,3.26,1.82,12.56,6.28,10.34,32.22-21.18,63.61-44.47,100.29-57.64,15.19-5.45,40.78-12.04,56.72-10.5,6.5.63,13.11,3.46,19.48,4.68,1.19-1.01,1.12.54,2.04-2.72-5.05-6.93-10.26-15.73-16.33-21.78-1.01-1.01-2.48-2.58-3.4-3.4-.18-.16-3.11-2.5-3.4-2.72-.27-.21-.46-.49-.68-.68Z"/>
  <path class="st0" d="M237.14,317.96c.09.07,1.43.25,1.35-.34.69-5.17-2.91-6.73-2.72-9.48.13-1.89,2.17-3.19,2.58-4.95,1.12-4.88-2.51-16.95-8.42-12.5-2.88,2.17,1.15,3.74,1.62,5.3,1.13,3.7-1.44,4.11-2.72,6.53-4.02,7.57,3.11,10.06,7.58,13.82.62.52.65,1.55.73,1.63Z"/>
  <path class="st0" d="M355.05,474.66c-22.61-3.57-31.51,20.28-18.54,36.91,14.3,18.34,44.71,14.96,41.43-12.84-1.26-10.7-12.19-22.38-22.89-24.07Z"/>
  <path class="st0" d="M514.13,150.53c.11,2.25-.13,4.56,0,6.81,1.01.81,1.03,2.02,1.26,3.16,2.23,11.09,6.78,26.41,5.55,37.34-1.33,11.71-14.24,11.18-11.57,24.16.6,2.9,3.93,5.97,7.16,6.17,1.39.09,2.51-.56,3.73-.73,6.38-.85,13.49,1.76,19.52,4.64,2.55,1.22,4.45,4.03,7.71,3.52,2.47-1.33,6.82-3.8,7.49-6.81,1.15-5.2-2.88-9.16-3.4-13.95-2.09-19.34,19.98-28.55,26.54-43.9,1.38-3.24,1.23-6.76,1.36-10.21.17-4.27.02-8.65,0-12.93,0-.23,0-.45,0-.68-.06-25.09.56-50.76,2.05-75.88,1-16.83,3.12-18.51,1.61-35.35-.17-.06-.44.03-.68,0-1.42-.16-3.28-.28-4.03,1.08-10.44,27.98-25.48,37.66-39.46,63.85-7.39,13.84-16.45,29.85-22.71,43.99-.85,1.93-.76,4.12-2.12,5.71ZM567.89,82.47l-12.55,81.71c-5.42,12.38-10.44,23.56-14.34,36.71-.64,2.17-1.35,11.09-4.64,10.8-1.36-.12-3.51-2.03-3.21-3.6,3.85-16.89,4.99-34.67,9.2-51.44,4.88-19.45,12.73-40.5,19.4-59.55,1.66-4.75,3.19-10.79,6.13-14.62Z"/>
  <path class="st0" d="M520.94,234.93c-2.47-.1-8.09.96-9.46,3.13-1.69,2.67-.92,7.51,1.29,9.8,8.79-1.48,17.15-.12,24.67,4.75,1.25.81,1.35,3.01,4.6,2.05,2.19-1.83,3.46-1.03,4.02-5.16s.01-4.22-1.98-7.09c-7.85-1.32-14.9-7.16-23.14-7.49Z"/>
  <path class="st0" d="M483.02,380.44c6.06-25.08,13.07-50.08,18.65-75.27,1.85-8.35,6.98-27.82,7.04-35.24.04-4.2-4.78-6.23-1.52-12.34,3.28-6.14,12.39-3.46,17.83-1.92,5.89,1.67,12.49,4.41,16.33,9.2.26,3.23.3,6-2.37,8.18-.9.73-2.93,1.16-3.09,1.82-.65,2.6-.33,6.54-.84,9.22-9.55,50.2-24.28,100.71-35.99,150.49-.82,3.5-1.38,7.07-2.09,10.59-1.67-.49-3.33-1.01-4.99-1.55-.38-.56-.94-1.02-1.73-1.29-3.65-1.26-6.87-3.37-10.34-5.04-2.78-2.11-5.67-4.17-8.75-5.83,4.01-17,7.74-34.08,11.84-51.05Z"/>
  <path class="st0" d="M529.5,567.82h-74.22c-2.82-5.37-6.95-9.45-13.36-10.79.03-.14.06-.28.08-.42-1.51-.15-3.86-.91-7.49-2.83-1.39,4.64-2.6,9.33-3.69,14.04h-10.02c-12.27-13.48-24.81-26.74-37-40.29-1.7-1.68-5.5,2.19-5.66,3.91-.12,1.26,11.01,15.36,12.81,17.57,5.15,6.32,10.88,12.56,16.55,18.82h-59.88c3-7.54,5.33-14.75,6.78-21.3.39-1.76,2.14-6.77-.58-7.36-1.84-.4-3.94,6.72-4.71,8.19-3.54,6.78-7.27,13.62-11.17,20.47h-70.47c18.57-10.74,35.89-23.83,47.56-33.45,2.54-2.09,14.89-13.95,16.51-14.19,2.12-.31,3.65,2.78,5.3,3.98,29.69,21.57,62.3-5.65,44.25-38.12-5.72-10.29-17.35-18.8-29.3-19.7-2.64-.2-9.3,1.1-10.55.34-.43-.26-2.88-6.85-3.79-8.46-9.09-16.25-17.87-17.25-32.07-25.78-1.94-1.17-3.06-1.98-2.9-4.46.1-1.53,3.83-15.85,4.42-16.75,1.59-2.42,4.95-.62,7.12-.03.21.06.47-.06.68,0,.88.37,1.23,1.61,1.87,2.02,3.02,1.93,14.57,8.18,17.53,8.18h12.93c.47,0,8.23,1.75,9.19,2.04.21.06.48-.07.68,0,9.53,3.23,12.7,14.44,20.46,19.35,4.11,2.6,7.85,2.92,12.21,4.47.35.13,1.01-.13,1.36,0,9.86,3.56,16.52,12.64,19.37,22.49,1.4,4.86,2.65,9.55-2.55,12.36-2.52,1.36-18.25,6.55-18.84,7.38-.59.83.71,3.89,2.36,4.07,1.91.21,5.96-1.83,8.26-2.01,5.73-.45,11.02,2.15,15.9,4.71,1.2,1.38,2.61,1.9,2.72,2.04,2.82,3.65,3.68,9.12,5.6,13.12.88,1.83,3.43,3.16,3.26,5.93,1.12.18.63-.92.67-1.69.19-3.55-.49-7.87.68-11.24.06-.18.55-1.14.68-1.36.8-1.33,4.46-3.69,4.62-4.49.42-2.15-1.12-7.05-3.25-8.44-.42-.27-.93-.42-1.36-.68-3.31-8.07-7.02-12.98-2.72-21.78.04-.09.92-.77,1.36-1.36,2.47-1.49,5.03-2.94,8.02-3.27,1.47-.16,3.41.9,4.26.27.59-.44,2.37-11.01,4.05-14.01.1-.17,1.17-1.77,1.36-2.04l.68-.68c.12-.16,2.48-2.52,2.72-2.72l.68-.68c.25-.2.46-.54.68-.68,2.67-1.72,7.16-3,10.21-4.08,1.13,0,2.27,0,3.4,0,1.04.43,4,1.86,5.19,1.26,2.26,1.32,4.74,2.18,7.2,3.34.15.07.29.14.43.21,1.18.91,2.35,1.83,3.49,2.72,2.7,2.09,5.36,4.16,8.53,5.5,3.05,1.29,6.25,2.08,9.13,3.74,1.78,1.33,3.97,2.68,4.87,3.27,2.19,1.42,5.37,3.4,7.63,4.63,2.96,1.61,3.63,1.62,6.29,4.57,9.75,10.82,6.65,15.34,5.77,28.3-1.25,18.5,1.12,51.46,7.19,71.87Z"/>
  <path class="st0" d="M20.35,446.96c.57-.13,1.15-.27,1.71-.36l.68-.68c.22-.03.46.03.68,0,60.17-8.89,99.34,29.45,152.6,44.43,18.01,5.06,36.93,8.22,55.66,5.92.17-1.01-1.28-.84-2.03-1.02-2.69-.62-5.51-.75-8.2-1.34-59.1-12.85-106.95-51.03-167.1-56.2-1.91-.16-10.72,1.77-6.8-3.41,3.72-4.91,11.49-10.71,17.38-12.56,7.98-2.51,7.61-1.63,15.03-6.07,10.96-6.54,27.76-6.2,39.41-1.41,9.53,3.92,21.67,18,31.61,16.63,4.72-.65,11.13-5.66,11.92-10.55,1.41-8.86-6.17-12.32-.09-21.87,4.77-7.49,15.82-4.83,19.89-14.82,4.28-10.5-4.12-18.58,1.88-28.75,4.96-8.42,11.8-6.6,17.85-11.41,2.09-1.66,7.47-9.24,7.47-11.59v-9.87c-3.65,2.55-4.87,7.59-7.6,11.11-7.49,9.66-25.12,8.94-26.45,23.91-.5,5.59.88,8.81,1.39,13.63.57,5.38-.86,9.87-5.13,13.26-7.12,5.66-16.1,4.01-18.54,16.85-1.35,7.12,7.02,17.29-1.95,21.87-7.95,4.06-10.72-2.96-14.89-6.72-1.98-1.79-8.36-3.93-8.54-5.8-.27-2.86,2.81-3.94,3.3-5.57.94-3.14-.63-6.49-.5-9.29.21-4.61,4.04-9.65,7.91-11.89,4.09-2.37,8.91-1.71,9.75-7.6-8.3.87-18.38.03-22.8,8.84-3.09,6.15.24,12.62-6.12,17.7-6.76,5.4-13.64,3.73-20.68.27-4.92-2.41-12.23-9.94-16.32-1.88-.93,1.83-.76,13.83-5.13,6.99-8.87-13.88,6.37-31.42,19.18-21.9,2.03,1.51,3.36,4.45,6.25,5.32,2.87.86,8.02.62,8.72-2.88,1.14-5.72-2.29-6.7-3.08-10.93-.66-3.49-.41-8.69,1.57-11.72,4.54-6.94,12.45-10.12,20.42-7.55,2.26.73,4.23,2.25,6.57,2.96,11.81,3.6,27.15-3.84,28.44-16.89.58-5.88-1.06-9.57,2.44-15.26,8.17-13.3,24.76-4.03,35.14-19.99,4.63-7.13,2.45-16.71,9.37-22.62,2.41-2.05,8.83-5.14,11.9-6.47,6.37-2.76,12.51-3.14,18.74-5.08,4.71-1.47,12.7-7.15,16.68-7.83.49-.08,1.17-.13,1.02.34-1.4,1.22-3.47,9.4-4.13,9.85-.87.59-2.95-2.26-3.76,2.05-1.09,5.8,5.37,21.54,10.27,24.59,1.29.8,2.11-.14,3.05.26.73.31,6.81,6.46,8.56,7.81,2.48,1.91,11.38,6.8,12.06,8.38,1.01,2.33-.31,3.84-.21,6.25.44,9.73,1.87,20.37,4.3,29.79,1.73,6.68,5.81,14.23,7.14,20.09.22.96.2,1.93.15,2.91-2.6.31-4.94-.96-7.26-1.92-13.97-5.76-36.2-17.9-40.06-33.44-4.01-16.15-3.45-34.64-7.44-50.41-1.94-7.68-5.94-12.16-14.41-12.17-5.6-.01-9.82,9.19-10.38,13.97-1.36,11.65,2.77,20.6,9.86,29.47,3.53,4.42,5.89,4.91,11.13,2.81,2.2,4.88,1.33,10.58,2.24,15.8,3.58,20.61,26.7,33.51,44.52,41.24,7.26,3.15,23.15,10.97,21.28-3.59-1.82-14.24-10.01-27.91-10.86-43.58-.49-9.12,3.97-18.77-4.4-25.55-9.73-7.89-22.59-10.26-26.16-24.89-2.17-8.9.6-10.02,3.03-17.3.98-2.94.05-7.12,3.24-9.01,2.43-1.44,10.41-3.8,13.57-4.81,20.16-6.43,42.21-11.23,63.31-7.78,3.8.62,17.08,5.98,10.35-2.87-1.62-2.13-8.24-4.56-11.05-5.29-31.92-8.31-81.44,10.67-110.64,24.4-8.66,4.07-30.25,14-34.83,21.66-3.09,5.17-3.78,12.99-6.82,17.69-1.94,3-8,7.17-11.2,8.88-1.69-.19-7.31.42-9.11.76-8.67,1.6-17.56,10.02-18.52,18.97-.35,3.26.81,6.94.41,10.56-1.18,10.78-16.03,14.96-24.44,9.46-5.74-3.76,2.32-3.44,5.05-5.71,8.99-7.52-6.65-19.21,2.7-31.33,10.67-13.84,27.18-5.38,35.63-16.77,5.64-7.61.83-10.07,1.12-17.92,34.69-22.26,68.55-47.17,107.92-60.88,18.71-6.52,41.93-12.14,61.49-7.1,2,.52,10.1,3.25,11.35,4.31,3.45,2.92,4.27,13.57,5.74,18.09.42,1.28,1.48,2.13,1.7,2.72.77,2.04,1.22,4.24,2.04,6.13.47,1.08,1.71,2.01,2.04,2.72,2.59,5.53.52,12.89-6.13,13.62.94,5.07,4.5,9.75,3.26,15.17-.72,3.15-5.52,4.78-5.36,8.97.09,2.27,3.43,9.09,4.32,12.09,2.02,6.79,3.01,12.26,5.95,18.9l1.08,8.17c-1.83,4.33-5,6.97-9.92,6.12.12-1.32,2.38-.86,3.07-2.03,2.55-4.32-2.55-1.95-4.59-2.17-2.79-.3-5.76-3.2-9.05-3.31-3.72-.12-7.34,3.07-9.47,2.78-2.66-.37-3.02-5.44-4.45-4.11-1.44,1.33-.52,6.5,1.38,7.79,3.84,2.62,8.09-.92,12.22-.3-2.64,3.65-.77,7.56-.68,11.56-4.41-.35-8.75,1.52-12.71,3.28-3.28,1.46-7.17,2.58-8.39,6.24,5.32,1.1,10.48-1.66,15.34-2.07,3.04-.26,2.8,1.8,6.38-1.05,6.26-4.98-1.31-9.73.84-16.85.58-1.91,4.43-.01,4.65.27.15.2-.73,2.48-.65,3.62.21,3.08,2.66,4.6,1.99,8.89-.44,2.8-3.2,3.76-3.38,5.5-.28,2.7,2.54,4.38.74,8.88-1.55,3.88-6.81,3.92-5.36,8.69.25.83,1.19,1.03,1.23,1.13.31.74.44,1.38.68,2.04l.68,2.04c.05.21-.04.46,0,.68l.68,2.04c.02.22-.02.46,0,.68.07,1.08.06,2.32,0,3.4-.04.67.09,1.4,0,2.04l-.68,1.36c-.06.22.07.49,0,.68l-.68.68c-.1.18.1.52,0,.68l-1.36,1.36c-2.82,3.25-4.01,3.83-7.49,6.13-10.49,2.59-21,1.74-31.61-.01-1.88.3-4.13,3.84-5.87,5.08-1.53,1.09-4.22,1.72-5.37,2.79-1.44,1.34-6.53,19.02-8.29,23.02-3.77,8.57-15.21,22.1-16.18,29.42-.6,4.5-.04,10.35,3,13.88,3.47-2.35,3.2-6.3,4.59-9.69,2.87-7.03,6.53-14.11,11.07-20.23,3.49,5.06,10.35,7.06,15.52,10.33,5.67,3.59,11.06,8.05,15.43,13.16,1.29,1.51,7.36,9.56,7.45,10.86.21,2.79-2.58,2.39-4.38,3.75-9.66,7.3-11.08,22.88-6.98,33.54.99,2.57,4.08,5.46,2.92,7.97-25.6,19.51-52.4,39.48-81.6,53.86h-64.36c-39.52-48.43-96.67-83.18-159.65-79.54v-41.33ZM346.01,363.56c.65-5.36,10.26-5.54,5.79-12.25-1.36,7.81-6.82,2.12-11.17,5.84-5.83,4.98,2.53,4.27,5.38,6.41ZM348.26,268.42c1.77.73,2.31,4.27,2.53,5.98.9-.08,1.12-.95,1.39-1.66,1.41-3.59.31-12.18-3.1-14.68-9.38-6.89-34.31-1.28-43.85,4.48-.79.48-7.26,4.7-6.18,5.73,12.53-4.41,23.88-4.72,36.87-2.5,2.84.48,10.02,1.71,12.32,2.65ZM314.31,287.99c2.15-.08,10.3-4.89,11.3-4.05-2,1.99,2,6.33,1.06,7.51l-10.59,2.35c2.64,1.06,8.42,3.42,11.07,2.96,1.2-.21,4.9-3.38,5.18-4.43.61-2.27-1.62-1.92-1.93-2.33-.12-.16,1.05-2.13,1.12-3.09.1-1.41-.98-2.52-.14-4.33,1.05-2.27,6.94.69,6.51-3.71-.36-3.62-5.98-2.12-8.48-2.47-3.44-.48-5.18-2.04-9.43-1.15-2.66.55-12.73,6.51-14.45,8.68-.55.69-1.3.89-1.01,2.05,3.64-1.55,7.45,2.1,9.8,2.02ZM316.08,480.63c-5.11,0-10.23-.01-15.34-.04-42.32-.21-64.8-19.36-100.8-35.95-5.01-2.31-10.48-3.94-15.2-6.56,1.77-1.71,3.88-3.95,4.46-6.42,1.33-5.66-2.3-9.84,2.33-15.37,3.99-4.77,10.66-2.58,15.65-7.49,11.22-11.03-1.89-22.14,1.71-33,2.41-7.25,7.79-6.04,12.81-9.64,5.37-3.84,11.06-16.17,9.16-22.55-.26-.86-1.83-2.4-2.57-1.84-.31.24-1.75,5.75-2.59,7.28-6.9,12.59-19.89,8.9-25.44,20.16-5.74,11.64,4.06,17.48,1.7,26.88-3,11.89-14.3,8-19.84,16.91-4.48,7.21,3.51,17.31-5.59,22.99-4.86,3.04-11.8-.46-16.98-.65,1.13.64,2.78,2.56,3.84,2.86,8.71,2.42,17.89,3.91,26.56,7.58,39.37,16.66,68.04,44.22,114.9,38.23.98-.13,12.81-2.24,11.24-3.39ZM180.19,518.13c40.69,13.78,93.14,10.76,131.26-9.8,3.48-1.88,6.26-5.27.52-4.96-12.1.65-31.15,7.84-43.97,10.52-29.48,6.17-59.65,9.07-89.41,2.81-.35,2.03.54,1.07,1.6,1.43Z"/>
  <path class="st0" d="M20.35,496.26c34.91-.84,69.51,11,99.25,32.14,15.65,11.12,29.77,24.48,42.29,39.43H20.35v-71.57Z"/>
</svg>