<?xml version="1.0" encoding="UTF-8"?>
<svg id="_图层_1" xmlns="http://www.w3.org/2000/svg" version="1.1" viewBox="0 0 604 593">
  <!-- Generator: Adobe Illustrator 30.0.0, SVG Export Plug-In . SVG Version: 2.1.1 Build 123)  -->
  <defs>
    <style>
      .st0 {
        fill: #0655bc;
      }
    </style>
  </defs>
  <path class="st0" d="M263.87,571.43c21.11-12.92,43.6-28.45,62.62-44.32,14.63-12.21,34.18-29.49,46.08-44.08,10.01-12.28,21.01-23.87,30.76-36.36,1.96-2.51,3.37-5.61,5.31-8.21,5.42-7.29,10.88-12.15,15.6-20.46,1.07-1.89,7.17-11.48,2.66-11.88-3.55-.31-4.59,3.7-6.03,5.51-3.55,4.44-6.61,8.48-10.03,13.01-6.29,8.34-13.98,16.16-20.74,24.34-14.65,17.73-32.04,33.13-48.6,49.07-3.27,3.15-10.66,11.91-13.74,13.81-.79.49-1.87.33-2.17.58-.23.19-.13,1.12-.62,1.61-8.05,8.09-24.63,18.32-34.51,24.62-8.26,5.27-16.41,10.42-25.07,15-3.56.81-9.64,5.79-12.91,4.36-2.98-1.29-5.45-4.93-7.63-6.9-7.69-6.94-14.63-12.71-21.54-20.54-13.43-15.2-28.64-38.13-36.32-56.85-.9-2.2-3.27-7.03-3.56-9-.14-.98.34-2.55,1.54-2.54,7.73,6.02,15.19,12.3,24.18,16.42,40.83,18.74,81.75.43,117.68-19.3,13.93-7.65,32.54-16.99,45.18-25.94,10.73-7.59,22-14.64,31.98-22.76,2.86-2.32,10.09-6.86,10.57-10.38.44-3.22-3.21-2.24-4.96-1.4-6.24,3.01-14.22,9.81-20.35,13.71-4.09,2.61-8.69,4.53-12.84,7.2-7.81,5.02-14.04,10.07-22.56,14.51-16.98,8.86-33.78,18.69-51.43,26.21-21.25,9.05-47.04,17.58-70.31,13.73-16.59-2.75-38.05-11.01-48.37-24.75-15.18-20.22-12.08-63.45,10.33-77.3,8.17-5.05,16.13-8.34,23.74-14.83,1.71-1.46,8.32-12.51,10.37-7.4.88,5.5,2.25,10.98,3.05,16.48.35,2.42,1.11,6.17,1.13,8.43.02,2.62-2.45,11.7.81,12.69,3,.91,4.66-3.18,5.41-5.42,6.12-18.25-6.17-49.96-9.73-68.91-2.92-15.51-3.9-31.44-5.03-47.02-.55-7.7-1.96-16.5-2.06-24.06-.02-1.7.46-6.23,2.05-7.01,1.34-.66,2.76-.29,4.47-1.55,3.32-2.45,5.26-12.49.9-14.37-4.09-1.76-3.52,4.11-6.12,6.14-4.97,3.9-14.74-4.26-16.68-8.89-1.6-3.81-.73-7.01-3.1-10.92-4.04-6.66-9.95-6.01-12.21-16.34-1.99-9.11,4.59-20.19,14.7-15.71.7.31,5.03,2.67,5.5,3.02,5.94,4.37,2.12,14.43,9.77,19.78,3.43,2.4,10.38,1.98,11.68-2.37,1.04-3.48-2.77-3.19-4.6-4.21-2.97-1.66-4.24-7.52-3.79-10.68.07-.48,1.27-4.34,1.44-4.57.96-1.35,4.51-2.72,5.79-3.72,4.26-3.32,8.54-10.83,8.29-16.29-.33-6.91-6.13-8.99-2.3-17.29,5.08-11.01,16.7-5.02,25-8.56,5.27-2.25,11.33-8.61,12.91-14.14,1.67-5.82,1.17-10.04,6.77-14.26,11.37-8.58,24.32,3.64,36.9,3.38,2.47-.05,9.01-1.7,11.35-2.72,3.2-1.39,7.86-6.84,11.19-5.67.97.34,2.18,3.42,3.07,4.44,1.71,1.95,6.58,4.24,9.1,4.47,4.42.41,6.6-1.84,11.58,1.4,5.32,3.45,3.84,8.07,6.05,12.98,1.59,3.52,5.74,7.96,9.59,8.94,3.85.98,8.33-1.17,11.46,2.56,2.27,2.72,1.54,9.03,2.16,12.87.56,3.46,2.49,7.79,2.43,11.11-.05,3.2-2.93,11.35-3.58,15.96-1.39,9.89-4.68,1.85-9.34-.05-5.34-2.18-11.56-.76-16.49,1.78-2.1,1.08-8.91,4.96-6.44,7.63,1.79,1.93,3.23-.73,5.29-.3,1.12.82-.93,5.88,4.22,8.82,4.28,2.44,8.91,2,11.8-2.27,2.2-3.26,1.25-4.11.7-7.23-.47-2.66,4.55.84,5.15.88,1.09.08,1.94-2.26,3.28.23.93,1.72.96,4.7.91,6.64-.33,13.49-4.67,33.67-8.28,46.82-5.63,20.5-24.82,68.11-48.21,72.51-16.34,3.07-50.44-8.31-64.71-16.7-12.98-7.64-22.41-20.96-31.42-32.69l-2.86-1.51c-2.96,1.82-1.42,5.18-.41,7.79,4.85,12.49,23.67,31.71,35.81,37.32,22.66,10.47,57.79,24.78,79.99,7.18,3.82-3.03,7.58-8.96,10.22-12.82.65-.95,3.1-6.14,4.79-4.97,1.01,6.3.82,12.27,2.25,18.54,2.93,12.83,12.48,23.97,21.77,32.82,3.16,3,7.73,5.94,10.8,9.24,5.22,5.62,2.17,6.65-.97,11.07-2.84,4-5.54,8.25-7.06,12.97-1.1,3.41.27,5.26-3.58,7.94-5.69,3.96-14.71,6.19-21.2,8.86-6.23,2.56-12.26,5.72-18.66,7.89-6.94,2.36-14.37,3.54-21.31,5.74-15.08,4.78-27.99,10.96-44.08,14.02-26.99,5.13-49.07,5.52-72.9-8.98-4.27-2.6-19.08-14.39-23.03-13.83-3.67.52-1.29,4.88.16,6.65,2.43,2.96,12.3,11.02,15.78,13.78,36.56,29.05,83.22,14.46,122.11-.59,12.98-5.02,26.23-9.36,39.17-14.42,7.98-3.12,15.81-7.55,23.81-10.25,4.04-1.37,12.88-2.66,15.76-4.78,4.42-3.25,1.79-7.24-3.22-5.55-.4-1.04-.62-2.05-.56-3.19.24-4.5,6.86-15.55,10.85-17.74,1.61-.88,6.66-1.5,6.09-4.74-.1-.55-2.83-4.83-3.41-5.59-5.37-6.96-9.7-7.92-15.77-12.79-.79-.64-5.33-5.09-5.23-5.7.09-.58,1.12-1.18,1.74-1.3,2.09-.4,5.79-.8,8.03-1.03,3.43-.36,3.79-.27,7.41-1.06,10.57-2.28,21.11-2.53,29.2,5.76,2.09,2.14,3.5,5.57,5.43,7.84,5.91,6.94,10.93,2.76,18.49,3.55,6.01.63,13.97,4.51,17.55,9.5,3.26,4.53,2.24,8.05,9.6,8.93,11.2,1.33,17.96,1.46,26,10.57,4.37,4.95,5.79,10.76,10.3,15.25.29.29.88.2.97.28.17.16.33.34.5.5,4,3.67,3.98,3.46,8.52,6.01.18,1.72.71.78,1.67,1.57,8.03,6.56,14.64,20.22,16.71,30.39.34,1.67,1.93,9.53.68,10.4-3.32,2.31-5.69-4.89-7.13-6.96-13.15-18.93-28.98-37.86-52.11-45.06-8.55-2.66-17.65-3.23-26.59-3.36-3.98,5.53,1.5,5.58,5.27,6.65,6.68,1.91,14.88,4.36,21.27,7.29,33.36,15.31,52.18,59.89,60.12,93.65.74,3.14,1.97,5.58-.11,8.62-5.25,2.77-10.52,5.57-15.83,8.21-6.63,3.3-10.52,5.54-16.82,9.23-9.06,5.31-18.35,5.6-27.19,9.87-3.33,1.61-7.4,5.79-10.17,6.86-5.79,2.24-.46-8.19.21-10.81,6.58-25.77,9.33-62.79.32-88.1-3.59-10.08-14.13-29.8-23.74-34.86-3.17-1.67-6.93.71-5.43,4.42,25.04,29.28,27.59,66.09,21.71,102.89-2.04,12.72-7.2,23.44-9.84,35.24-2.25,10.09,4.72,13.08,5.79,20.55.32,2.25-2.28,18.13-4.52,18.13h-76.34c-3.41,0,3.38-14.26,4.28-16.31.6-1.37,1.03-2.81,1.56-4.2.96-.35,1.15-.91,1.48-1.77,4.19-10.64,9.2-19.78,13.79-30.29,7.7-17.63,12.57-36.13,17.92-54.71,5.04-17.52,12.92-43.04,10.83-61.19-.28-2.39-1.61-6.15-4.59-4.33-.45.28-2.33,2.47-2.55,3.09-1.14,3.37-.83,9.19-1.46,13.07-.89,5.45-1.94,11.15-2.93,16.6-2.62,14.4-9.02,31.1-13.95,45.15-9.39,26.73-19.66,48.1-35.57,71.37-1.2,1.75-2.44,4.51-3.51,6.01-.98,1.3-3.4,2.1-4.28,2.98-1.39,1.38-1.88,14.52-5.19,14.52h-104.22c-.16,0-1.36-.93-1.51-.98-1.1-.33-2.98-2.24-4.51-2-.16-.29-.34-.85-.5-1-1.01-2.04.39-2.99,1.5-4.51.12-.08.38.07.5,0ZM324.69,145.97c2.42,1.54,5.81,5.47,8.54,1.71,3.02-4.17-2.96-8.55-6.1-10.41-19.32-11.43-51.69-.88-65.28,15.67-1.1,1.34-2.31,2.52-2.02,4.44,2.69,2.22,5.54-1.49,7.69-2.78,5.55-3.35,12.37-7.53,18.39-10.16,12.89-5.62,26.86-6.03,38.77,1.53ZM373.46,143.31c-11.54-.25-16.78,4.02-22.01,13.55-9.72,17.7-7.07,33.88-5.37,53.13.25,2.88,1.69,4.01-.34,7.28-3.18,5.12-12.69.11-17.5.14-1.18,0-6.89,1.38-8.05,1.86-3.82,1.57-3.13,7.84,1.07,8.52,4.63.75,6.96-3.45,12.45-.92,2.07.95,2.63,3.45,5.55,3.48,2.49.02,3.93-2.04,5.62-2.42,1.82-.41,3.9.16,5.79-.22,3.51-.71,5.45-5.42,5.41-8.66-.26-19.74-7.59-40.84,1.36-59.7,2.77-5.84,10.6-9.04,16.81-8.63,3.03.2,13.11,5.73,14.29,1.12.26-1-.53-1.6-1.19-2.15-2.96-2.47-10.04-6.29-13.89-6.37ZM316.64,174.55c3.66,2.55,7.2.81,6.13-3.86-.85-3.69-7.36-9.87-10.86-11.18-16.59-6.21-28.74,6.9-41.78,14.71-3.16,4.62,1.3,5.42,5.04,3.54,2.75-1.39,4.15-3.49,8.1-4.42.87-.21,1.77-.12,2.64-.11-3.31,14.36,20.08,14.32,21,1.17.25-3.57-3.53-7.72,3.15-5.54,3.84,1.25,4.05,3.93,6.57,5.69ZM327.38,241.49c-3.9.44-9.04,3.27-13,4.52-2.2.69-6.97.33-6.44,4.07.79,5.62,16.47.79,20.32,1.27,2.62.33,4.47,2.48,7.5,2.56,2.75.07,4.89-1.75,7.51-1.57,2.5.17,3.62,2.35,6.5,2.56,1.96.15,3.92.18,4.57-2.01.9-3.03-1.72-2.92-3.32-4.25-2.91-2.44-3.23-6.37-8.2-5.77-3.23.39-3.54,3.52-8.16,1.09-3.36-1.76-2.26-3.03-7.27-2.46ZM319.6,267.28c.37.37,5.79,1.96,6.69,2.07,2.69.31,9.86.71,12.45.58,3.38-.17,7.6-2.72,4.78-6.29-2.66-3.38-7.6-1.41-11.22-1.8-1.81-.2-3.88-1.43-5.5-1.4-1.42.02-5.75,1.28-6.8,2.24-1.11,1.02-1.33,3.69-.41,4.61ZM439.08,356.7c-15.34.78-29.37,13.48-23.32,29.53,4.82,12.79,19.4,16.12,31.54,12.25,26.71-8.51,21.16-43.28-8.23-41.78ZM483.26,365.07c-4.49-1.79-11.51-.64-13.51,4.22,1.84,2.18,4.55,1.1,6.89.43,2.33-.66,6.34-1.9,6.62-4.65Z"/>
  <path class="st0" d="M45.49,522.85c3.72-9.49,4.61-19.76,7.27-29.55,3.87-14.29,13.1-40.96,21.37-52.76,2.78-3.96,6.8-7.76,9.91-11.62,7.18-8.9,9.49-13.96,20.52-19.55,7.18-3.63,16.86-4.01,22.52-8.53,7.63-6.09,7.1-14.58,17.74-20.83,6.86-4.03,14.19-3.14,20.06-5.99,2.69-1.31,5.41-4.99,8.16-6.86,3.75-2.55,9.55-4.71,14.06-4.98.66-.04,5.36.25,5.81.36.72.17.77,1.92.2,2.4-2.55,1.34-5.42,3.32-7.63,5.15-9.81,8.13-15.61,20.54-18.16,32.93-3.76,18.21.29,35.11,5.23,52.62,10.32,36.57,23.2,63.97,51.5,89.78,1.07.97,1.94,2.72,3.25,3.49.16.18.31.35.5.5,2.97,3,30.8,30.53,22.83,30.53h-69.53c-1.19,0-7.62.3-8.04,0-.17-.12-6-10.41-6.28-10.82-9.61-14.15-18.6-38.14-22.88-54.76-7.39-28.75-7.74-54.23-2.69-83.34,1.97-11.38,4.4-22.01,8.94-32.67l-.75-2.21c-2.41-.46-7.17,8.4-8.12,10.4-21,44.27-11.11,103.92,5.76,147.75,1.62,4.2,6.95,12.22-1.1,11.14-7.63-1.03-14.96-5.17-21.07-9.51-16.95-12.05-35.54-32.03-58.11-32.08-8.05-.02-3.94,4.86.89,6.66,4.05,1.51,9.12,3.18,13.08,4.95,3.45,1.54,7.44,4.42,10.8,6.23,1.76.95,6.15,1.77,6.4,4.04.13,1.19-1.82,3.32-.24,4.34,31.98,20.68,19.93,29.89,17.03,29.89H49.4c-7.02,0-5.21-47.38-4.24-52.18.2-.97.28-2.38.33-3.39,0-.17,0-.33,0-.5l.49-.25-.49-.25c0-.17.01-.34,0-.5ZM126.13,419.17c-7.82.39-16.3,5.17-22.51,9.8-5.54,4.13-11.99,11.09-16.55,16.51-11.5,13.68-20.32,35.92-24.32,53.31-.37,1.62-2.28,9.77-1.23,10.53,1.86-.17,2.88-2.61,3.69-4.07,5.78-10.39,10.33-23.56,16.07-34.52,7.91-15.12,19.42-30.14,32.86-40.77,1.31-1.03,14.01-8.87,11.99-10.8Z"/>
  <path class="st0" d="M109.96,285.5c1.77-.49,7.3,3.95,9.32,5.03,16,8.57,36.75,13.05,54.74,9.52,4.46-.88,9.67-3,14.24-4.34,1.37-.4,2.95-1.86,4.35-2.15,4.98-1.04,4.43,1.83,6.88,4.41,2.35,2.47,6.61,5.62,10.1,5.94,2.04.19,3.93-.69,5.42-.46,3.1.48,2.01,5.16,2.34,7.21.67,4.11,1.7,8.36,2.58,12.45.78,3.6,3.1,9.47,3.36,12.71.3,3.89-2.08,3.67-4,5.44-4.28,3.93-8.65,9.84-13.05,13.5-.63.53-3.67,1.88-4.47,2.06-2.88.62-7-1.86-10.33-2.21-4.68-.5-11.92.62-16.17,2.74-3.97,1.99-8.25,7-12.31,8.73-5.64,2.39-13.34,2.29-19.74,5.3-11.45,5.39-11.58,11.39-17.77,20.3-3.31,4.77-5.28,3.53-10.06,4.97-1.79.54-6.47,2.94-7.98,2.44-2.33-.77-.32-6.7-.3-8.26.2-14.9-.46-30.08-.04-45.07.48-17.17,2.44-33.65,2.04-51.09-.05-2.08-1.83-8.44.84-9.17Z"/>
  <path class="st0" d="M213.79,45c8.47-8.49,22.53-15.35,33.92-19.42,7.86-2.81,8.95-.23,15.98.33,7.41.59,14.94-6.34,21.74-9.08,8.24-3.33,14.83-4.29,22.87-.97,2.32.96,4.58,2.69,7.03,3.49,14.32,4.7,26.27-12.94,41.58-4.02,4.89,2.85,5.8,7.42,9.65,10.14.18.13.31.38.5.5-.07,1.44.7,1.17,1.5,1.5.1.18-.26.58.31,1.04,3.66,2.96,12.26,1.55,16.83,2.1,1.81.22,6.12,1.15,7.82,1.7,2.11.69,4.29,2.57,4.77,4.79.86,3.98-4.99,10.11-4.62,11.55.64,2.5,9.54,2.7,12.48,4.08,7.89,3.69,12.48,15.23,11.93,23.5-.16,2.4-1.23,4.92-1.44,7.07-.7,7.05,3.66,7.74,8.02,11.27.21.17.65.68,1,1l3.48,5.79c2.93,7.32,2.89,13.74-1.56,20.42-1.31,1.97-4.94,4.96-5.92,6.71-1.25,2.25-.84,7.53-4.75,2.62-3.95-4.97,1.09-9.86,1.14-14.25.04-4.37-2.92-9.23-6.89-11.05-3.8-1.74-7.58-.63-10.27-4.76-4.08-6.26,4.2-11.12,4.75-18.24,1.13-14.52-13.54-18.71-24.91-13.39-4.27,2-6.24,6.17-10.14,8.39-3.64,2.07-6.6,2.57-10.71,1.7-1.92,1.96.61,3.77,2.32,4.64,9.47,4.81,14.81-6.89,23.07-8.7,5.23-1.15,11.02-.07,12.42,5.76,2.13,8.92-6.02,10.34-8.11,17.58-1.72,5.95,4.23,11.65,9.94,12.2,1.41.13,2.26-.4,3.31-.36,5.57.25,9.41,4.82,9.83,10.2.46,5.97-3.48,8.04.2,14.33,3.61,6.16,7.88,2.57,13.21,4.32.37.12,3.44,1.54,3.6,1.66.05.04-.07.63.17.82.53.43,2.74,2.03,2.84,2.19.44.72,1.74,5.37,1.86,6.4.15,1.29.27,2.53.1,3.83-.66,4.97-8.18,13.83-12.68,15.89-1.52.69-5.11,1.23-6.01,1.89-.57.42-.19.72-.3,1.05-.24.07-.78-.15-.97.04s.04.73-.04.97c-.21.07-.61-.15-.91.08-.2.16-2.03,4.25-2.09,4.73-.33,2.8,2.05,7.62,2.01,10.95-.03,2.74-1.21,6.21-3.02,8.29-.15.17-.33.34-.5.5-1.43,1.39-3.4,2.32-5.01,3.51-.56.41-1.12,1.24-2,1.5-1.39-.39-3.89.82-3.95-2.24-.04-2,2.79-4.45,3.47-6.5,2.18-6.56-2.78-8.44-3.49-13.59-.77-5.64.44-13.94,2.87-19.08,3.6-7.61,7.79-2.82,13.63-4.9,3.88-1.38,3.96-5.08-.27-6.33-1.6-.48-2.4.13-3.86-.06-5.3-.67-9.99-6.75-10.79-11.79-.37-2.36.38-3.59.37-5.39-.02-4.44-3.31-10.27-7.51-12.03-4.14-1.73-7.94.76-12.28-2.25-7.22-5.01-4.05-12.82-9.75-18.3-1.85-1.78-5.45-3.79-8.02-4.05-2.06-.21-3.97.79-5.79.81-3.77.05-8.65-2.61-10.95-5.57-3.45-4.42.1-4.45,1.99-7.95.99-1.84,1.89-5.39,2.49-7.53.47-1.71,2.21-8.07,2.25-9.33.04-1.18-1.14-1.99-1.01-3.2l-4.21,3.54c-2.52,10.24-9.27,20.27-18.66,25.42-15.73,8.63-24.69-5.85-39.44-3.88-6.28.84-13.79,4.92-17.24,10.31-4.14,6.46-1.72,12.91-8.86,19.19-8,7.03-14.35,1.45-22.77,5.28-8.04,3.65-13.57,10.66-12.38,19.89.51,3.97,3.22,6.89,2.81,11.1-.79,8.29-9.67,15.44-17.89,13.49-3.11-.74-6.93-3.68-9.89-4.13-20.2-3.08-27.22,25.9-13.7,38.24,2.16,1.97,5.06,2.48,6.88,5.14,3.33,4.87-.17,10.83,5.38,16.66,4.06,4.26,10.6,3.68,11.6,10.44.19,1.3.18,2.59.15,3.9-.3,13.5-1.47,34.57,1.6,47.45.5,2.09,2.53,3.15,2.43,5.61-.06,1.34-.86,3.03-2.31,3.27-.46.08-6.21-1.01-6.69-1.29-.96-.56-3.69-3.48-4.56-4.47-.78-.9-3.17-3.97-3.59-4.92-.62-1.42-1.22-3.67-1.22-5.18,0-3.68,2.24-4.88-.93-8.69-2.81-3.37-5.14-1.48-8.91-2.11-6.02-1.01-11.89-6.23-14.33-11.71-2.31-5.17-2.75-9.25-.65-14.56,1.64-4.15,6.28-6.99,2.81-11.65-1.71-2.3-8.77-3.6-11.76-6.27-1.12-1-5.15-6.73-5.85-8.17-2.83-5.85-2.88-12.9.94-18.33,1.3-1.85,3.89-2.08,3.34-5.45-.63-3.89-5.42-4.93-8.16-7.41-7.65-6.91-8.01-17.52-5.41-26.93,1-3.62,3.26-7.04,3.19-10.87-.12-5.81-4.57-10-6.43-15.15-3.78-10.48-.95-21.58,7.16-28.69,3.45-3.02,7.9-3.07,10.59-7.91,2.38-4.3,1.24-7.44,1.72-11.82.62-5.64,4.8-13.04,8.46-17.33.15-.17.34-.33.5-.5,4.61-4.96,10.16-7.34,16.92-8.38,2.01-.31,4.97.62,6.12-1.14.17-.02.34.02.5,0,7.76-.75,9.03-6.2,13.52-11.02.16-.17.33-.33.5-.5ZM347.9,25.05c-13.26,4.23-24.69,7.55-35.68,16.46-3.39,2.74-7.92,8.23-11.32,10.22-1.92,1.12-5.04,1.43-7.17,2.34-2.19.94-9.43,5.34-3.08,4.96,3.86-.23,7.26-1.55,10.59-1.95,3.53-.43,7.04-.1,10.83-.69,13.14-2.06,26.08-11.21,33.44-22.16.49-.73,3.84-6.72,3.93-7.12.28-1.31-.05-2.34-1.54-2.06ZM294.89,26c-.46-.33-1.75.11-2.33.36-12.59,5.32-24.38,14.53-30.79,26.81-2.57,4.93-4.09,11.63-8.09,15.7-2.69,2.74-10.14,6.18-11.59,9.2-1.15,2.4.3,2.22,2.27,1.77,4.35-.99,11.51-4.33,15.69-6.35,2.34-1.13,4.94-3.74,7.63-3.93,6.56-.44,16.31,4.96,22.71,6.76,13.2,3.71,26.74,2.88,38.43-4.68.91-.59,2.93-1.87,1.53-2.99-.26-.21-5.31-2.15-6.24-2.51-13.45-5.24-24.36-4.71-38.41-2.56-3.44.53-7.25,1.52-10.62,2.45-1.84.24-2.11-1.55-1.45-3,6.62-5.42,13.36-13.34,16.87-21.2,1.17-2.62,4.31-11.29,4.7-13.85.07-.48-.07-1.8-.33-1.98ZM180.22,96.59c-.44-.3-1.72.07-1.93.81-6.31,12.57-13.19,22.08-12.08,36.99.27,3.65,2.87,10.33,2.47,13-.35,2.3-3.9,7.16-4.99,10.04-2.95,7.81-3.17,17.1,4.75,21.8,2.8-2.6-.19-6.58-.25-9.79-.26-13.43,14.81-24.09,27.34-23.78,3.07.07,4.44,1.02,7.96-.02,2.14-.63,7.7-4.25,7.33-6.71-.35-2.27-1.77-.64-2.92-.4-6.98,1.42-7.81-.93-13.39-1.36-2.91-.22-10.55,2.75-8.19-1.69.43-.81,5.08-5.97,5.93-6.59,3.3-2.45,3.43-1.01,6.28-1.19,13.73-.9,23.85-2.66,34.32-12.31,1.17-1.08,4.23-3.64,1.23-4.25-6.28-1.26-17.02-.6-23.18,1.33-2.06.65-7.33,3.81-8.86,3.69-.62-.05-.9-.34-1.26-.79-.11-.55.79-1.84,1.24-2.25,5.19-4.77,12.78-8.61,18.15-13.41,5.13-1.61,8.38.27,12.98.83,17.53,2.14,26.81-3.19,39.51-13.96.86-.73,2.79-1.03,2.79-2.25.03-.64-.37-.89-.83-1.2-.72-.49-6.06-.96-7.47-1.04-7.94-.45-15.85.48-23.28,3.26-2.6.98-12.97,6.66-14.68,6.18-1.03-.29-1.97-2.34-1.61-3.41.69-2.01,6.81-7.99,8.48-10.58,7.72-11.92,7.47-21.55,5.26-35.25-.94-5.8-5.05.48-6.39,2.56-8.54,13.18-16.26,26.2-17.23,42.38-2.49,6.96-7.49,11.82-12.67,16.89l-1.21-.81c2-7.09,4.55-13.82,3.96-21.47-.22-2.88-1.4-10.69-2.22-13.31-.67-2.14-1.6-1.7-2.7-.14-4.71,6.69-10.52,20.34-10.62,28.49-.11,9.43,3.13,13.83-1.79,23.21-2.39,4.56-5.07,6.93-7.05,11.97-.25.63-1.8,1.19-2.06,2.5-.42,2.13,1.82,3.31.19,5.17-.23.26-5.32,3.34-5.65,3.4-3.77.61.84-7.77,1.41-9.14,2.92-7.07,4.89-13.69,4.97-21.61-.57-2.03-1.16-15.17-2.04-15.76ZM361.46,44.12c-8.49.32-15.17,4.12-22.7,6.89-1.52.56-13.24,2.68-8.06,5.05,1,.46,3.82.99,5.17,1.34,15.86,4.05,27.34,4.09,41.54-4.8,1.9-1.19,8.18-4.71,3.3-5.98-4.77-1.24-14.44-2.68-19.25-2.5ZM175.97,203.79c-4.7,3.54-2.27,11.64,2.29,14.23,1.43.81,6.62,2.37,5.78-.73-.5-1.87-5.1-3.61-6.19-7.38-.57-1.99.01-4.75-1.89-6.12ZM199.93,250.69c-2.19-2.67-3.61-4.83-3.14-8.55.19-1.52,2.06-4.01-.04-5.07-2.59-1.3-4.22,3.31-4.76,5.26-1.68,6.07,3.06,13.09,9.78,12.03.66-2.69-.94-2.59-1.83-3.68Z"/>
  <path class="st0" d="M487.68,580.06c-3.96-.98,1.22-13.56,1.76-15.73.38-1.52.51-3.14.37-4.69-.46-5.22-7.08-8.59-2.31-14.28,1-1.2,8.42-5.54,10.34-6.69,7.4-4.42,10.37-5.11,18.26-7.79,8.95-3.04,16.14-10.22,24.79-13.27,7.35-2.6,4.63,7.72,5.01,12.5.45,5.7,3.72,13.94,1.73,19.28-2.01,5.39.78,30.54-3.86,30.54h-17.36c-5.43,0-13.09.13-19.07.13-2.62,0-18.05.39-19.64,0Z"/>
  <path class="st0" d="M475.63,278.49c1.37-.26,2.15,1.11,2.48,2.23-.7,17.02,1.13,33.97,1.12,51.05,0,2.05.93,3.92-.24,6.22s-4.45-.45-6.11-.87c-5.8-1.44-9.94-.61-15.42-.71-3.76-.07-7.78-8.23-10.49-10.95-14.18-14.15-33.72-7.87-50.78-4.17-2.1.45-3.17,1.79-5.45.8-4.03-1.75-8.93-12.95-10.38-17.17-2.56-7.46-3.88-15.48-4.74-23.31.05-1.11,1.58-2.34,2.68-2.24,1.26.12,7,3.84,8.95,4.62,25.07,9.98,51.32,7.26,76.37-.96,4.06-1.33,8.08-2.91,12.02-4.57Z"/>
  <path class="st0" d="M541.87,383.6c-3.22,2.01-1.99.51-3.74-1.03-.44-.39-1.09-.34-1.26-.47-5.64-4.33-5.72-7.43-9.5-12.79-2.41-3.4-7.12-8.28-10.87-10.17-2.26-1.14-5.94-1.14-6.57-3.95-.11-4.48.09-8.95-.09-13.44-.89-21.94-1.43-44.14-2-66.08-.2-7.79-.96-16.06-1.07-23.56-.04-2.51,1.43-4.64-.02-7.45-2.46-4.77-9.16-.18-9.84,3.56-1.77,9.84,1.12,18.32,1.88,27.94,1.33,16.88.53,35.04.99,52.11.18,6.85,1.72,15.9,1.05,22.55-.1,1.03-.51,2.93-1.78,3.06-.28.03-5.31-1.14-5.55-1.3-.37-.24-5.12-6.34-5.2-6.83.78-21.64-1.16-43.44-1.55-65.06-.05-2.95,1.01-9.44-.04-11.48-2.58-4.98-6.99.02-9.93,1.46-10.46,5.12-25.82,9.18-37.4,10.68-4.68.61-13.59,1.78-17.99,1.62-.95-.03-.75-1.01-.99-1.07-1.47-.36-1.24.96-1.5,1.02-1.46.37-1.09-.85-1.61-.99-7.78-2.09-17.09-2.77-25.21-5.26-3.41-1.05-7.01-3.11-10.54-4.1-1.79-3.06,1.71-5.12,2.66-7.32.68-1.55.34-5.16,2.65-5.38,1.92-.19,5.13,2.28,7.22,2.79,23.27,5.72,38.79,4.95,61.74-1.93,1.38-.41,3.33-.92,4.4-1.86.15-.04.35.05.5,0,5.98-1.76,15.72-6.79,20.51-10.79,1.93-1.61.92-4.47,2.39-7.11.43-.78,4.7-4.61,5.54-5.11,12.03-7.18,26-6.79,39.54-8.93,1.72-.27,8.33.66,10.17,1.12,2.53.63,5.52,2.83,5.97,5.55.73,4.44-2.16,6.39-3.51,9.96-5.51,14.56-2.9,23.07-1.95,37.58.22,3.38-.59,6.45-.56,9.54.17,19.93,3.75,39.23,3.41,59.46-.04,2.12-.85,5.16-.86,7.15-.03,6.74,1.98,15.52,1.54,22.06-.11,1.7-.94,2.65-1.03,4.24Z"/>
  <path class="st0" d="M530.85,209.79c.18.16.33.34.5.5,2.61,2.55,4.78,5.61,2.44,9.2-2.14,3.29-5.89.74-9.21.78-4.86.06-15.14,1.12-19.81,2.26-4.27,1.04-6.6,5.23-10.49-.22-.03-.14,0-.33,0-.5-.1-2.61,2.31-7.34,4.08-9.2,5.46-5.73,20.75-2.69,28.16-4.17l4.32,1.34Z"/>
  <path class="st0" d="M498.29,202.28c-5.23-4.92-2.01-13.97.82-19.47,1.4-2.72,3.78-4.34,4.9-6.62,2.08-4.24,2.22-11,8.64-11.33,5.96-.3,7.85,8.38,10.53,12.26,3.92,5.68,10.3,9.83,9.13,17.85-.29,2.01-3.58,7.97-5.74,8.32-1.88.3-7.18-.91-9.49-1.01-2.69-.11-6.42-.26-9.03-.03-2.27.2-5.28,2.07-6.52,2-.19-.01-3.09-1.85-3.23-1.98Z"/>
  <path class="st0" d="M438.58,364.22c4.26-.29,10.45,1.08,13.57,4.16,12.88,12.72-5.9,28-20.48,22.48-16.06-6.08-9.81-25.51,6.91-26.64Z"/>
  <path class="st0" d="M53,292.44c.18-14.52,1.08-31.47-3.15-45.69-1.03-3.47-3.98-7.93-3.88-11.14.03-.79,1.3-3.96,1.82-4.32,3.67-2.55,16.44-.17,20.99.53,7.77,1.2,20.17,2.78,26.76,6.8,2.69,1.64,7,5.08,7.81,8.22.86,3.31-.71,2.96,2.32,5.72,11.82,10.77,47.98,21.66,63.81,21.87,2.98.04,6.2-1,9.46-.49,2.03.32,4.3,2.49,6.15,2.86,2.03.4,5.77-.74,6.54,1.97.13.47.64,4.41.63,4.93-.06,3.13-3.36,2.34-5.16,2.85-7.56,2.14-14.08,4.48-22.25,4.7-15.06.4-35.91-6.54-49.1-13.74-2.8-1.53-10.92-8.25-13.36-7.97-2.11.24-2.68,3.33-2.84,5.1-.49,5.56.5,12.27.54,18.08.06,7.56.07,15.35-.05,23.04-.12,8.21-1.55,16.23-1.5,24.54.11,18.64-.28,36.38-1.5,55.06-.17,2.65.93,7.54-.99,9.53-.47.48-1.59.66-2.25,1.26-3.36,3.06-7.09,8.78-6.78-.27,1.09-31.88,2.77-63.79,2.55-95.67-.11-16.24.65-32.36-.02-48.57-.13-3.03.34-6.64,0-9.52-.48-4.11-8.66-8.32-8.57-1.49.08,5.76,1.34,11.27,1.06,17.55-.37,8.25-.64,12.12-.03,20.52.49,6.78-1.31,14.29-1.02,21.55,1.36,33.96-.18,67.23-2,101.13-.12,2.23.47,5.15.14,7.11-.5,2.89-5.51,7.6-7.34,10.23-4.9,7.01-10.31,15.87-14.01,23.56-2.77,5.77-4.48,12.01-7.82,17.48-1.32-.29-1-.65-1.5-1-.97-3.47-.06-6.52.02-9.75.9-34.26,5.86-67.72,5.5-102.21,0-.85.32-2.23-.51-2.75.04-.32,0-.67,0-1,.13-8.75.38-18.3.52-27.28.18-11.1-1.17-21.64-1.02-32.83,0-.17,0-.33,0-.5Z"/>
  <path class="st0" d="M64.52,175.73c.82-.85,1.93-1.42,2.72-2.54,2.05-2.89,3.51-8.61,8.12-8.84,1.58-.08,4.25,1.74,5.01,3.02,1.32,2.22,2.31,5.78,4,8.29,1.82,2.72,5.4,5.29,7.2,7.82,5.62,7.92,5.1,14.95-.01,22.8-1.4.1-1.66,1.53-3.24,1.55-1.61.02-6.33-3.07-8.88-3.7-3.6-.89-9.46-1.24-13.12-.79-3.8.47-3.05,2.12-7.32.44-2-5.21-4.96-5.12-4.51-12.52.01-.17-.02-.34,0-.5l.5-1c.03-.16-.04-.35,0-.5,2.8-2.67,3.61-7.04,5.79-9.99.93-1.26,2.21-1.98,3.22-3.04.16-.17.34-.33.5-.5Z"/>
  <path class="st0" d="M54,215.8c.04-.16-.05-.36,0-.5l1-1c.08-.11-.08-.42,0-.5,1.27-1.3,6.01-4.04,7.76-4.05,1.73,0,3.31.89,5.02,1.04,7.02.59,11.93.79,18.78,3.26,3.02,1.09,7.05,5.28,7.47,8.56.31,2.39.15,3.67-1.51,5.41-3.34,3.51-5.41.24-8.96-.94-8.57-2.85-15.01-3.63-23.82-2.28-5.48.83-6.87-4.53-5.73-8.99Z"/>
</svg>