<?xml version="1.0" encoding="UTF-8"?>
<svg id="_图层_1" xmlns="http://www.w3.org/2000/svg" version="1.1" viewBox="0 0 604 593">
  <!-- Generator: Adobe Illustrator 30.0.0, SVG Export Plug-In . SVG Version: 2.1.1 Build 123)  -->
  <defs>
    <style>
      .st0 {
        fill: #0655bc;
      }
    </style>
  </defs>
  <path class="st0" d="M426.41,55.8c-.84-.96-2.12-4.01-3.17-5.29-10.81-13.08-30.72-19.55-47.16-15.11-2.56.69-6.84,3.1-9.14,2.98-2.6-.14-11.01-5.63-14.32-7.12-20.57-9.24-38.4-8.91-54.58,7.8-1.69,1.75-3.1,5.1-5.44,5.84-2.72.86-6.37-.62-9.21-.75-23.59-1.05-44.83,10.22-56.72,30.61-5.22,8.94-5.71,13.83-7.3,23.69-1.3,8.12-4.81,6.61-9.49,11.92-12.71,14.4-13.11,32.04-5.02,48.94,1.05,2.19,2.2,5.03,5.01,5.16,24.81-21.59,56.07-35.32,86.62-46.93,42.34-16.09,94.93-31.11,140.17-34.51,8.66-.65,17.14-.1,25.83.47,3.72-3.31,1.11-9.33-.87-13.04-4.04-7.58-12.43-12.7-21-13.37-4.14-.33-11.55,1.78-14.22-1.28Z"/>
  <path class="st0" d="M475.44,567.82c2-14.24,2.04-27.94,6.42-41.81,1.22-3.84,6.24-10.94,1.81-13.9-3.56-2.38-7.23,3.6-8.87,6.28-10.46,17.09-7.08,31.11-11.65,48.64-.07.28-.15.52-.22.78h-38.97c-23.57-9.61-48.65-26.77-65.29-39.45-40.75-31.06-75.83-66.88-108.23-106.45-10.68-13.04-38.51-46.95-41.45-62.22-1.27-6.59,3.06-4.92,7.57-7.14,21.89-10.75,39.06-43.41,41.13-67.06.17-2-.31-9.5.32-10.39.97-1.39,6.02.15,7.9.05,13.23-.72,23.91-15.15,23.43-27.92-.07-1.77-1.83-7.38-1.46-8.15.92-1.92,5.41-.91,7.35-1.14,5.64-.67,17.46-6.86,15.96-13.67-1.01-4.56-5.4-2.73-8.5-3.35-16.51-3.3-32.75-53.48-10.28-64.11,10.24-4.84,22.76,2.42,21.72,13.84-.25,2.7-3.01,6.36-5.59,4.69-.31-.2-1.58-5.3-3.15-6.71-3.9-3.51-8.82-.9-11.03,3.1-5.35,9.72-.98,28.36,7.89,34.97,5.38,4.01,10.41-.4,6.78-5.65-1.19-1.72-3.43-2.93-4.63-4.95-2.65-4.49-2.94-9.97,1.38-13.5,5.14-4.19,5.09.69,10.02-.69,10.5-2.94,8.08-19.31,2.52-26.22-10.34-12.86-28.57-12.85-38.89,0-13.98,17.39-4.74,54.08,11.29,67.61,2.24,1.89,9.73,4.73,3.4,6.8-6.53,2.13-10.12-3.31-14.79-.7-4.94,2.75-1.14,7.47-.31,11.24,1.45,6.56.24,15.46-4.63,20.44-2.99,3.07-8.05,6.23-12.44,5.64-4.89-.65-1.24-5.07-.87-7.68.4-2.81.2-8.07-1.15-10.58-1.36-2.52-2.81-2.44-3.27.52-1.19,7.61-.48,10.3-6.01,16.53-2.03,2.29-4.05,1.62-3.57,5.92.48,4.22,1.46,6.21.93,11.17-2.05,19.23-18.76,53.65-38.32,60.29-1.68.57-2.91,1.13-3.02-1.04-.63-12,6.64-15.04,12.67-23.12,7.15-9.59,12.62-23.2,14.58-35,.55-3.32,1.64-6.75-.7-9.67-1.02-1.27-2.49-1.54-3.44-2.47-6.18-6.02-.56-13.29-3.67-19.71-.59-1.21-6.54-8.83-7.79-7.7-.35,6.36-1.67,7.03-7.29,4.19-16.86-8.51-5.6-21.15-11.77-32.76-.37-.69-.54-1.38-1.23-1.86-3.7-18.16-1.9-28.68,13.57-40.24,55.88-41.72,154.86-73.44,224-80.84,18.82-2.01,49.38-5.72,57.97,16.29,1.19,3.05,1.03,4.9,2.68,8.58,3.71,8.26,4.88,15.82,1.07,24.46-2.61,5.93-15.38,20.99-20.41,10.63-2.62-5.38,1.65-7.03,2.59-12.11.94-5.07-.37-10.92-3.97-14.68-4.77-4.99-3.15,1.18-3.08,3.64.29,10.05-2.55,17.48-12.86,20.43-2.35.67-13.28,1.29-8.3,5.81,2.29,2.08,6,1.93,8.88,1.53,4.91-.68,10.04-5.98,12.56,1.82,1.61,4.98,1.84,22.35,1.38,27.9-.41,4.97-4.55,13.6-4.33,16.84.09,1.31,1.22,2.26,1.47,3.52,2.8,14.25,3.51,33.79,4.56,48.67.01.19-.01.38,0,.56.23,3.37.97,8.42.58,11.57-.09.74-1.39,3.92-1.71,4.21-.17.16-3.85,1.47-4.36,1.55-7.67,1.31-10.77-4.51-17.06-6.9-3.99-1.51-10.15-2.34-9.57,3.88.48,5.22,5.88,4.45,6.8,5.79,1.33,1.94,2.96,9.6.84,11.49-3.81,3.39-7.27-.41-10.88-1.03-3.36-.58-4.73.49-7.19.68-2.11.16-13.39-.48-10.91,3.62,1.89,3.12,19.88.17,23.27,4.61,1.51,1.97,1.45,7.13-.78,8.74-2.4,1.73-5.36-.29-7.93,2.78-3.53,4.21,2.97,10.99,3.25,15.93.48,8.22-4.2,14.92-12.7,15.79-8.69.88-35.53-9.87-44.62-13.69-17.59-7.39-33.62-16.41-49.02-27.63-1.86-.64-1.89,1.31-1.6,2.73,1.57,7.69,18.48,19.87,25.07,23.97,7.44,4.64,15.1,4.9,14.82,15.59-.18,6.74-4.08,15.76-3.96,21.44.04,1.83,1.98,5.05,3.43,6.15,3.48,2.62,8.44,1.94,12.49,2.72,13.86,2.69,25.43,8.36,38.46,12.82,30.62,10.47,61.13,17.64,88.46,36.06,31.28,21.09,46.9,64.37,50.94,101.2,1.34,12.26.24,24.8,2.49,36.95.65,3.51,1.68,6.9,2.83,10.26h-91.85ZM234.57,238.34c-4.41-6.63-11.74-13.17-11.74-22.63,0-2.57.52-10.03,0-11.83-.09-.3-.92-1.01-1.4-.84-9.91,10.56-2.6,37.84,11.68,40.77,4.96,1.02,3.27-2.75,1.46-5.46ZM251.29,213.17c-3.27-8.48-5.82-11.64-5.38-21.71.07-1.63,2.12-9.25-.26-9.26-1.28,0-4.13,6.49-4.52,7.87-3.16,11.19-.39,25.6,7.33,34.39,2.56,2.91,6.17,6.54,7.04.35-1.42-3.85-2.73-7.8-4.21-11.63ZM402.65,209.72c.54.88,6.9,1.81,8.57,2.97,2.57,1.77,5.78,6.85,8.86,9.17,3.74,2.81,7.33,4.21,11.62,1.57,4.34-2.67,5.13-12.06,6.74-13.12,2.86-1.89,7.01,2.59,9.75.3,2.67-2.23-2.3-6.28-4.49-7.3-8.12-3.76-28.26-.85-36.75,2.12-1.53.54-5.66,2.07-4.3,4.29ZM395.25,195.14c1.45,1.3,15.77-3.19,18.48-3.77,12.12-2.61,21.72-4,33.92-.45,2.69.79,15.64,7.2,16.91,5.91.04-1.19.24-2.1-.57-3.09-.78-.95-5.89-5.57-7.05-6.47-14.42-11.25-41.1-8.56-55.67,1.21-.83.56-7.31,5.5-6.01,6.66ZM338.35,214.57c3.02,3.91,11.98,9.56,14.5,2.67,1.27-3.47-1.33-5.55-2.28-8.68-2.03-6.66-.48-7.19,1.73-12.69.46-1.15.66-4.02,1.21-4.43,1.42-1.05,5.24,2.04,6.99,2.68,3.36,1.22,10.1,2.1,12.09-1.63,1.68-3.15-.74-4.56-1.6-7.17-1.53-4.68-2.29-8.42-.83-13.28,2.17-7.22,6.58-3.21,12.36-3.98,4.97-.66,10.21-4.9,13.3-8.67,3.59-4.39,2.81-7.98,9.84-7.61,1.78.09,3.87.95,5.65,1,14.65.46,31.28-11.25,29.58-27.22-.14-1.29-1.4-6.32-3.09-5.91-1.78.44-3.23,8.76-3.97,10.69-4.13,10.76-17.94,17.56-28.84,13.08-5.43-2.23-2.89-4.19-2.97-8.25-.05-2.61-1.18-7.79-2.17-10.27-.56-1.41-4.9-9.43-6.85-8.07-1.71,1.19,1.47,11.86,1.67,14.37.85,10.18-1.68,20.77-10.87,26.3-1.93,1.16-8.32,4.76-8.33.19,0-1.63,3.64-8.38,4.29-11.55,1.16-5.65,1.2-10.36-.46-15.92-.41-1.39-2.87-7.5-4.08-7.76-3.05-.66-.85,7.42-.81,8.7.24,7.02-.45,13.38-3.3,19.85-4.46,10.12-12.51,14.21-9.53,27.35.75,3.31,4.78,10.32-2.81,6.19-8.3-4.51-11.41-17.63-10.31-26.31.6-4.71,3.37-9.37,3.9-13.57.16-1.27.74-10.89-2.22-8.99-1.37.88-6.05,10.27-6.85,12.31-2.3,5.91-3.21,11.8-2.74,18.16.55,7.37,5.29,11.31.49,18.48-.85,1.26-3.52,3.23-3.77,4.16-.44,1.64,1.31,4.29,1.56,6.12,1.15,8.54-7.2,10.97-.5,19.66ZM435.18,421.16c-.98-1.55-6.89.22-8.5.65-11.27,3.04-21.57,8.54-33.1,10.85-11.87,2.37-32.23,2.23-41.91,8.81-6.23,4.24-1.8,6.43,3.84,6.1,7.47-.44,18.21-2.27,25.85-3.45,16.62-2.56,33.6-5.87,47.88-15.23,1.87-1.23,7.67-4.99,5.94-7.72Z"/>
  <g>
    <path class="st0" d="M340.05,555.46c3.29,3.96,6.77,8.11,10.4,12.36h-55.5c-20.32-30.37-38.73-62.63-53.06-88.32-16.82-30.15-30.95-61.72-48.09-91.66-1.29-.22-.76.56-.84,1.4-.58,6.44,7.63,28.69,10.28,35.93,12.25,33.37,28.08,67.72,43.15,99.98,6.65,14.23,13.41,28.57,20.5,42.67h-51.58c-5.79-19.13-11.6-38.24-18.25-57.01-.73-2.05-5.02-14.79-6.63-14.77-.48,0-1.31,1.81-1.33,2.5-.2,7.09,2.27,20.04,3.4,27.54,1.99,13.25,4.35,27.38,7.1,41.74h-29.72c0-26.18-2.07-52.34-8.08-80.91-6.58-31.31-19.38-62.06-22.92-93.72-.36-3.18-.1-13.16-1.24-15.1-2.32-3.95-5.33,4.64-5.82,6.37-6.82,24.23,8.59,71.13,13.07,97.38,4.39,25.75,7.62,54.34,5.24,80.39-.17,1.87-.41,3.73-.67,5.59h-13.85c-.32-8.59-.77-17.2-1.24-25.87-.23-4.24.61-8.73-1.42-12.68-1.49-.47-2.01,1.41-2.62,2.45-4.69,7.98-6.69,22.05-7.75,36.1H39.8c-.29-30.65-6.05-59.03-1.06-91.07,7.66-49.14,30.89-93.92,79.3-112.28,3.48-1.32,12.77-2.47,14.55-4.6.84-1,1.31-3.12,1.96-3.95,3.39-4.31,11.45-8.61,16.72-10.04,2.64-.72,9.87-1.04,10.99-3.13.36-.66.14-1.29.28-1.67,1.4-.17,4.78-4.85,6.49-6.18,4.83-3.77,12.24-5.68,18.3-5.08.14.01.4.54.56.56.36.05.78-.06,1.13,0,.92.17,2.77.36,3.38.56,6.93,2.27,3.79,7.52,3.39,12.12-2.42,27.54,29.27,66.17,45.4,87.57,31.54,41.84,65.34,84.58,98.86,124.84ZM180.48,437.79c-1.04-21.75-4.84-44.68-6.67-66.58-.23-2.77.03-13.68-1.1-15.24-1.37-1.91-3.33.87-4.09,2.18-8.03,13.87.87,57.87,5.34,73.77.88,3.13,1.8,6.91,3.12,9.84.22.49,1.96,4.58,2.91,3.56.4-2.48.6-5.02.48-7.52Z"/>
    <path class="st0" d="M367.37,567.82c-9.83-11.03-19.6-22.33-28.45-33.21-1.22-1.5-5.42-6.33-5.92-7.61-.33-.86-.39-2.05.56-2.24,1.42-.28,20.23,15.2,23.19,17.36,10.95,7.99,24.19,17.37,38.41,25.69h-27.8Z"/>
  </g>
</svg>