<?xml version="1.0" encoding="UTF-8"?>
<svg id="_图层_1" xmlns="http://www.w3.org/2000/svg" version="1.1" viewBox="0 0 604 593">
  <!-- Generator: Adobe Illustrator 30.0.0, SVG Export Plug-In . SVG Version: 2.1.1 Build 123)  -->
  <defs>
    <style>
      .st0 {
        fill: #959595;
      }
    </style>
  </defs>
  <path class="st0" d="M580.35,295.27c.82.02.53-.19.65-.23-1.38.05-.62.29-.65.23Z"/>
  <polygon class="st0" points="566.75 295.75 566.99 295.66 564.98 295.88 566.75 295.75"/>
  <path class="st0" d="M554.03,295.75c1.2.36,4.61-.06,6.87.07l.37.08,1.02-.29c-2.75.05-6.33.24-8.27.14Z"/>
  <path class="st0" d="M547.25,294.97c.42.14-1.47.12,1.58.04-.15-.02-.2-.02-.29-.04-.27,0-.65,0-1.29,0Z"/>
  <path class="st0" d="M548.55,294.97c1.34-.01-.88-.12,0,0h0Z"/>
  <path class="st0" d="M542.36,295.05l1.76-.13c-.37-.08-1.94-.1-1.36-.16-1.81.07-1.44.15-.41.29Z"/>
  <path class="st0" d="M540.69,295.32l.91-.05c-.16-.03-.4-.05-.91.05Z"/>
  <path class="st0" d="M543.54,295.15l-1.94.11c.26.06.28.18.89-.04-.16.11.22,0,1.05-.07Z"/>
  <path class="st0" d="M544.64,295.21c.99.08,2.27.13.5.25,3.37-.05,2.88-.3-.5-.25Z"/>
  <path class="st0" d="M553.38,296.12l1.32.11,1.14-.12c-.57.06-2.55-.1-2.47.02Z"/>
  <path class="st0" d="M531.37,294.87c-.11.08.59.2.72.3l1.3-.09c-.67-.05-1.94-.1-2.03-.21Z"/>
  <path class="st0" d="M532.1,295.17l-1.95.13c1.74.02,2.06-.05,1.95-.13Z"/>
  <polygon class="st0" points="540.37 295.72 543.58 295.44 539.76 295.72 540.37 295.72"/>
  <polygon class="st0" points="523.93 294.86 525.03 294.68 523.06 294.95 523.93 294.86"/>
  <path class="st0" d="M518.99,294.89c.82-.15-1.12-.25-.26-.34-1.34.03-2.49.15-3.52.27,1.1-.06,2.26-.05,3.78.07Z"/>
  <path class="st0" d="M513.48,294.98c.55-.04,1.11-.1,1.73-.17-.58.03-1.15.08-1.73.17Z"/>
  <path class="st0" d="M526.83,295.26c-.15-.05-.44-.17-1.53-.22l.77.22c.23,0,.5,0,.77,0Z"/>
  <path class="st0" d="M526.08,295.27h-.03c-.83-.01-1.41-.02-1.66-.02.21,0,.72,0,1.68.02Z"/>
  <path class="st0" d="M527.02,295.26c-.07,0-.12,0-.19,0,.07.02.12.03.19,0Z"/>
  <path class="st0" d="M535.26,295.52c-1.15.12-3.53.25-1.22.43.82-.15-.5-.25,1.22-.43Z"/>
  <path class="st0" d="M527.97,295.54l2.07.05c-.04-.06-.41-.14.15-.2l-2.22.15Z"/>
  <polygon class="st0" points="526.96 295.6 527.97 295.54 527.2 295.52 526.96 295.6"/>
  <path class="st0" d="M517.03,295.18c-.89.09-1.87.1-2.98.12,1.18.04,2.41.07,3.57.06.16-.07.68-.19-.59-.18Z"/>
  <path class="st0" d="M521.43,295.24c-.06,0-.14,0-.2.01.12.02.22.02.2-.01Z"/>
  <path class="st0" d="M503.17,295.3c.06.01.11.03.17.04.01-.01.02-.02.04-.04h-.22Z"/>
  <path class="st0" d="M517.82,295.41c.89.04,1.42-.01,1.93-.08-.67.02-1.37.04-2.13.04-.07.03-.09.05.2.04Z"/>
  <path class="st0" d="M510.44,295.08c.46.05.99.08,1.54.12-.45-.07-1.38-.18-1.54-.12Z"/>
  <path class="st0" d="M520.93,295.2s.08,0,.13,0c-.29-.05-.26-.02-.13,0Z"/>
  <path class="st0" d="M520.93,295.2c-.46.03-.82.08-1.18.13.54-.02,1.04-.04,1.48-.07-.11-.02-.22-.04-.3-.06Z"/>
  <path class="st0" d="M499.87,296.69c.16-.2,2.5-.39,4.52-.17,1.99-.15.69-.81-1.05-1.18-.06.09-.06.17-2.11.29.72.11,4.54.26,2.81.44-2.71.1-2.22-.07-3.54-.18,1.12.25-3.45.36-2.86.73l2.38-.13c.04.06-.82.15-.16.2Z"/>
  <path class="st0" d="M507.24,295.36l.84-.02c-.96-.03-1.65-.11-2.91-.27-1.4.1-1.69.17-1.79.24l4.15.03-.29.03Z"/>
  <path class="st0" d="M511.86,295.33c-.66.22-2.68.31-1.44.55,2.47-.02,1.73-.18,3.21-.28-3.99.05,1.15-.12-1.74-.24.78-.04,1.49-.05,2.15-.06-.72-.03-1.41-.06-2.06-.1.04,0,.06,0,.09.01h.02s0,0,0,0c.17.03.23.04.03.03-.01,0-.06,0-.08,0-.03.03-.1.06-.18.08-1.15-.04-.18-.06.18-.08.01-.01.04-.02.05-.03,0,0,0,0-.01,0l-3.99.12c.85.03,1.9.02,3.78,0Z"/>
  <path class="st0" d="M531.91,296.43c-.12-.02-.12-.03-.13-.05-.26.03-.36.04.13.05Z"/>
  <path class="st0" d="M530.27,296.29c.29-.03.53-.12,1.48-.1.82.07,0,.1.04.18.57-.06,1.99-.16.21-.26l-.28.03c-1.61-.07-3.67-.35-3.39-.38.47.2.88.34,1.95.53Z"/>
  <path class="st0" d="M520.95,295.87l-3.33.11,1.69.19-.09-.11c1.89.04,1.48-.1,1.72-.18Z"/>
  <polygon class="st0" points="502.79 295.19 503.23 294.96 501.31 295.29 502.79 295.19"/>
  <polygon class="st0" points="498.46 295.22 498.62 295.02 497.48 295.14 498.46 295.22"/>
  <path class="st0" d="M254.52,297.7l-.98.06c.46-.02.76-.04.98-.06Z"/>
  <path class="st0" d="M261.6,297.71l.17-.1c-.33.05-.46.09-.17.1Z"/>
  <path class="st0" d="M392.29,295.24c-1.42-.19-3.01-.48-2.84-.25l.44.22c.99-.04,1.76-.01,2.41.03Z"/>
  <path class="st0" d="M319.58,296.55c.14.02.28.04.42.07.35-.08.67-.14.96-.21-.41.04-.88.09-1.38.14Z"/>
  <path class="st0" d="M318.58,297.46l-1.88-.14c.42.05,1.03.1,1.88.14Z"/>
  <path class="st0" d="M215.87,297.93l-1.14.22c1.78,0,1-.11,1.14-.22Z"/>
  <path class="st0" d="M454.19,295.3c-1.23-.09-2.21-.12-3.07-.13,1.48.13,2.67.31,3.07.13Z"/>
  <path class="st0" d="M257.31,295.37c-.6.04-.85.08-.84.13.62-.04.96-.08.84-.13Z"/>
  <path class="st0" d="M447.57,295.17c.22.02.43.03.65.05.9-.04,1.8-.07,2.9-.05-1.09-.09-2.35-.15-3.55,0Z"/>
  <path class="st0" d="M75.71,297.75c-.1,0-.22-.01-.32-.03-.03.03.11.03.32.03Z"/>
  <path class="st0" d="M34.87,295.54c.4-.01,1.06-.01,1.68-.02-.3-.02-.81-.01-1.68.02Z"/>
  <path class="st0" d="M481.07,295.12c.92-.01.15-.02,0,0h0Z"/>
  <path class="st0" d="M485.53,295.99c-.19.02-.34.06-.37.11.08-.05.2-.09.37-.11Z"/>
  <path class="st0" d="M438.44,296.53s-.05,0-.08,0c.27.04.23.03.08,0Z"/>
  <path class="st0" d="M482.45,295.22c-.34-.03-.74-.05-1.17-.07.19.02.55.04,1.17.07Z"/>
  <path class="st0" d="M482.26,295.12c.32,0,.56.02.8.02.12-.04.01-.06-.8-.02Z"/>
  <path class="st0" d="M479.79,295.13c.52,0,1.01,0,1.48.02-.18-.01-.26-.03-.21-.03-.27,0-.65,0-1.28.01Z"/>
  <path class="st0" d="M150.81,297.16c-.06,0-.13-.01-.2-.02-.92.09-.52.08.2.02Z"/>
  <path class="st0" d="M368.43,297.52s.07,0,.1-.01c-.04,0-.1,0-.14,0l.03.02Z"/>
  <path class="st0" d="M365.14,297.68c1.4-.27,2.2-.24,3.26-.18l-1.09-.63-2.17.81Z"/>
  <path class="st0" d="M237.58,297.76l2.31.2c-2.79.32-4.81.21-2.64.49.33-.69,8.99-.07,9.31-.76l1.52.14c-.44,0-.51.03-.94.03,2.96.33,2.2-.5,6.02-.4,1.33.05,2.26.15,1.35.23l2.97-.17c.86.01.65.13-.21.12l4.52-.05-.03.02c.65-.11,2.11-.27,2.82-.35,1.15.1-.58.07-.28.16l2.51-.17c1.02.18-1.06.35-2.79.33,2.34.69,2.08-.17,7.13.23l-2.37.09c1.53.39,3.37.25,6.05.49-.63-.13-5.35-.61-2.64-.78.77.05,1.78.08,3.24-.06.01.24,1.45.18,3.24.17l-.12.32c1.94-.09,1.78-.26,2.92-.4,2.16.03,2.61.28,3.12.49,3.46.05-2.39-.4,1.71-.46,2.88.12,4.9,0,8.34-.2,2.01.11-.35.2.37.29l1.78-.26c.44,0,.3.09.22.13,1.5-.1.12-.32,2.49-.41.64-.36,4.85.52,7.78.12.72.09-.35.2-.13.32,4.01-.27,3.44-.19,6.74-.55l2.81.21c-2.06-.24.57-.53,2.88-.77-.73-.12-1.36-.22-1.78-.27l3.68-.17c.45.05.07.16-.53.3.25-.03.49-.05.68-.08,1.32.12.63.31-.31.49-.45-.06-.89-.13-1.33-.2-.91.2-1.76.41-1.57.6.24-.04.7-.07,1.21-.09-.24.05-.39.1-.28.13.13.03.51-.04,1.11-.12l.84.36.2-.14,4.82.23c3.45-.36,6.45-.9,11.92-1.05-1.36.26-.29.43-.37.75-1.49-.33-4.24.14-7.08.07,1.48.03,1.15.18.78.24l5.06-.3c-.11.26,1.07.19,2.4.3-1-.51,3.77-.34,5.83-.49.13.17-.37.34-2.88.3,2.77.38,3.58-.59,6.3-.27-.61,0-.94-.02-1.19.06,1.43-.15,4.93-.03,4.11.12h-.61c4.07.06,12.39,0,13-.42.04.06-.53.52-.78.61l7.26-1.45c-.64.37,1.82,1.25-1.56,1.46.97.05,2.17.11,4.21-.02-.66-.05-1.65-.53-.74-.57,2.48.41,1.72.22,4.78.57-.99-.08.11-.66,1.68-.64-.24.09.13.57-.44.63l3.9-.57c-.97.1-.17.48.7.64-.4-.11,3.37.01,4.41-.05l-1.65-.13c4.4.09,4.35-.8,8.72-.77-.53.12-1.31.72.92.79,1.02-.29,4.51-1.4,8.37-1.63l.74.17,2.96-.19c-1.85.44-7.03,1.36-9.86,1.72,1.65.13.46.2,2.93.18.87.16-1.34.24-2.07.25l5.74.1c-.26-.34,4.39-.34,4.17-.62l-6.24.35c-.25-.34,3.61-.96,7.68-.9,1.04.14-.77.61-.69.72.53-.12,3.86-.22,4.24-.14l-1.73.18c2.27.13,3.7-.45,6.42-.13.94.02,2.81.44,2.97.24-1.53-.39-1.83-1.59-.81-1.88.33.03,4.93.37,6.01.56,1.55.3-2.32.72-1.01.99.06-.09.91-.21,1.27-.24.99.08-.41.29,1.74.25.36-.34,4.36.03,1.01-.29,2.1-.1,2.23.07,4.69.06-.78-.22,2.21-.76,4.31-.86-.12.09.35.2.58.25,4.3.03,6.61.19,10.62.19.37.08,2.3.18,1.48.33.58-.06,1.11-.18,2.34-.19,2.39.3-2.76.05-.93.4.16-.2,3.2-.28,4.96-.4-.54-.31-4.07-.06-5.83.07,0-.43,3.06-.87,7.25-1.07,3.33-.11,1.44.28,2.02.22,6.26.07,5.33-.75,10.53-.44,2.06.27.09.54.55.74-2.71.1-4.17-.17-6-.16l2.26.13c-.86.09-2.67.16-3.66.08,1.73.24,10.57.05,15.4.27.86-.09,2.34-.19,1.64-.29l-1.53.04c-1.4-.22,2.87-.3.94-.41,2.05-.15,4.35-.4,7.23-.27l.54.31c-.06-.09-1.89-.18-2.7-.09,1.2-.14,4.42.42,5.74.01l-2.02-.21c2.06-.16,4.6-.48,7.16-.39-1.16-.31-.59.04-2.41-.32,1.57.45-6.54-.02-4.01.45-1.86-.42-3.23-.18-5.66-.53.08.1.86.2-1.28.15-.1.03-.33.07-.47.09-.07,0-.09,0-.14,0,.04,0,.07,0,.12.01-.09.02-.1.02.04,0,.51.04.93.1,1.09.16-1.07.23-4.48.23-5.63.35-1.27-.05.53-.12-.16-.23l-1.72.18c-.17-.23-3.38-.38-.38-.51h-2.7c-1.59-.14-3.78-.19-5.12-.09-1.27-.05-3.22.25-2.11.07l-4.23.14-.04-.06c-4.18-.03-8.6.38-13.38-.03-1.41.06-2.86.13-5.21.06l-.46-.2c-1.81.07-5.42-.2-6.2,0-1.95-.53-8.76-.12-11.94-.21l-.12.26c-2.19-.01-4.28.06-7,.16l.17.23c-2.34.19-6.01-.16-9.72-.14.25-.09,1.19-.06,1.85-.01-4.42-.51-9.33.37-13.34,0-1,.08-1.72.05-2.42,0,.09,0,.18,0,.25-.01-.1,0-.25,0-.41,0-.44-.04-.9-.08-1.39-.12.42.06.82.1,1.17.12-.77,0-1.94.03-3.08.09l-.49-.24c-.09,0-.17,0-.26,0-1.12-.09-.9.12-.3.3-.58.04-1.11.09-1.52.15-.91-.39-3.01.13-4.25-.29-.77.2-5.76.15-6.37.58-.04-.06-.38-.08.24-.09-1.28-.05-2.55-.1-3.7.02l-.54-.31-2.79.42c-1.69-.19-2.4-.3-.71-.54-4.06.37-3.3.14-6.75.5l.17-.2c-1.23,0-3.21.28-3.95.11-2.76-.38-13.67-.05-20.76-.41,1.38.59-3.3-.26-3.58.19-.41-.14-1.4-.22-.25-.34-3.62.14-5.44-.22-7.93.16-.41-.14.77-.2.41-.29-.29.03-1.15.12-1.53.04-.37-.08.53-.12,1.1-.18-3.7.02-4.07.45-4.34.86-1.87-.19-2.81-.16-4.16.1-.65-.13-1.74-.27.56-.32-1.29-.02-7.89-.19-8.02.13-.4-.08-1.81-.02-2.15.01-2.9-.02-3.15-.05-6-.02l.79.05c-1.12.39-2.37.09-4.66.13l.07-.04c-5.26-.28-2.27.13-7.46-.19l.28.24c-.48.52-4.6-.31-7.61-.11l1.09.14c-1.65.18-4.6-.71-6.25-.77-.36-.05.57-.07,1.07-.11-4.33-.31-.56.32-3.78.39-.59-.17.77-.44-1.4-.47-1.08-.14-6.29.56-9.26.23.65.13,1.3.26-.2.36-2.3.05-6.21-.5-8.28-.08-.29-.04-.4-.07-.41-.1-1.75.11-5.7.18-6.76.4-1.62-.84-10.91.41-10.87-.37l-5.4.04.14-.08c-3.45-.05-4.67.13-5.88.32-.8-.05-.22-.12-.15-.17-5.04-.16-5.54-.12-9.77.26l-.44-.25c-1.15.15-7.29-.39-12.23-.1.05-.03.15-.08.54-.11-5.56.29-13.32-.7-15.36.22l-3.67.22c4.75.07-.71.4,1.25.55-1.87.05-4.83-.28-2.53-.32l.36.05c.84-.48-5.9-.17-5.77-.49-9.34.02-18.45-.24-27.21-.26l1.01.37-3.05-.02c-.8-.09-1.08-.29,1.1-.27-1.15-.21-3.65.18-3.72.26-4.26-.15,1.67-.43.36-.44l-1.78.03.4.04c-1.44.15-1.57.31-4.19.29-1.66-.07-.85-.23-1.5-.24,0-.03-.22-.04-1-.01l-3.85-.03,1.54.29c-1.71.14-3.62-.02-1.84.32-2.61-.51-14.35-.18-15.95-.34-2.39.21-4.75.21-7.67.18.73.06,1.16.39-1.36.35.92-.68-4.61-.29-6.65-.78,1.82.32-7.16.08-4.31.54-2.1-.05-.13-.25-1.72-.41-5,.26-11.02-.17-17.21-.08-.1.09.94.22-.39.36l-3.26-.44c-1.22.04-1.12.51-3.36.2.32.07.79.19-.03.22-12.11-.43-24.75.36-37.05-.46,1.67.17.56.19-.72.2.83.04-.02.22.14.34l-5.15-.33c-.94.33-5.52.02-6.06.34l1.63-.06c-2.17.38,3.03.84,2.72,1.32,2.43-.43,6.4.64,10.39.02.88.1-.75.16-.28.27,1.01-.21,2.23-.25,4.49-.16l-.26.05c6.35-.05,9.07.15,16.2.29l-.53-.24c1.53.03,1.86.11,2.57.17,1.76-.36-4.31-.02-2.7-.42,2.03.49,10.81,0,12.18.56,2.36,0-.69-.28,1.67-.27l.63.15.6-.19c1.55.03,2.33.22,2.38.35-.38-.02-1.07.04-1.47.05,2,.18,5.65-.06,6.34,0l-2.27-.09c6.44-.14,14.29.06,20.51-.25l-.47-.11c4.75-.21,3.8.12,9.02.03l-.19.03c1.04-.11,2.44-.17,3.86-.16-1.32.13,2.48.26.75.4,5.15-.22,2.55-.18,5.95-.6l.78.19c1.16-.17,1.26-.26,3.86-.31-2.14.16,1.66.29-.73.5,5.46.41,8.11-.41,10.62.19,2.51-.52-4.73-.29-3.32-.4-1.18-.17,2.07-.39,3.79-.34,1.75.01,2.97.66,7.36.65-.44,0-.47.04-.9.03,1.64.13,3.22-.18,5.23.04,1.13-.31,2.62.02,2.94-.38l-4.03.09c2.28-.1,4.42-.57,8.18-.35-.29.08-1.41.19-2.18.25,1.1.12,2.12-.08,3.26.04-.32.4-4.89.09-7.34.39,1.18.17,4.63-.29,3.4.14,1.77-.55,4.33.07,7.3-.35l-.2.24c.47-.04,1.45-.15,2.31-.14l-1.57.31c2.41-.27,4.64.23,6.95.09-4.83,0-1.08-.29-3.13-.46,5.96-.32,3.43.63,10.1.51-.9.03-3.39-.14-1.98-.26,1.27.05,2.95.14,3.73.27,4.42-.05-.68-.25,1.2-.39,1.51.29,2.17-.12,4.11-.21v.24c5.05.16,1.35-.51,5.89-.32l-1.92.34,2.37-.09-.49.28c2.57-.21,3.37-.15,5.9-.07-.59-.17.33-.44,2.56-.45,1.52.14-.85.23,2.31.2-.71.15-1.5.34-2.87.12-.14.08-.7.15-.85.23,1.64.17,4.12.04,5.27.04-.44,0-.97-.02-1.24-.06l4.59-.34c.72.09.15.17-.42.24.93-.03,1.57-.14,2.94-.16-.35.2-.27.4-2.2.5l4.37-.22c.29.09,2.24.24,1.68.31,2.42.12,5.94-.38,9.15-.23.17-.04.5-.08,1.18-.1,3.02.04,5.69.29,9.27.02l2.03.36c2.8-.08-2.75-.45,1.92-.58,3.3-.11,1.23.3,2.39.4,1.64-.18,4.5-.54,7.53-.25-1,.07-1.79.01-2.73.04ZM272.14,297.61c-.67.05-2,.21-2.49.07.76-.28,1.35-.15,2.49-.07ZM324.67,297.02c-.5.08-1.27.04-2.14-.05.63-.02,1.34-.01,2.14.05ZM471.02,295.32s-.05,0-.07.01c-1.49-.1-.96-.06.07-.01ZM474.12,295.43c.31-.03.29-.07.16-.1-.22.06-.91.07-1.71.05.22.06.62.11,1.55.05ZM141.02,295.52l.6.06c-1.36.07-.98,0-.6-.06Z"/>
  <path class="st0" d="M318.72,297.35c-.19-.04-.24-.09-.29-.13-.26.04-.27.09.29.13Z"/>
  <path class="st0" d="M216.08,297.89s-.07,0-.11,0c-.06.01-.09.03-.11.04l.21-.04Z"/>
  <path class="st0" d="M426.07,297.5c-.64-.04-.99-.08-1.23-.13-.03.06.26.11,1.23.13Z"/>
  <path class="st0" d="M490.56,295.01l-1.99.06c.96-.01,1.3.04,1.79.08-.04-.06-.42-.14.2-.14Z"/>
  <path class="st0" d="M507.81,296.52c.29-.03.62,0,.9-.03l-.08-.11c-1.24,0-2.1.1-.82.15Z"/>
  <path class="st0" d="M492.4,295.82c.16.21,1.4.14,2.8.1-.08,0-.16,0-.25,0,.41-.29-1.07-.19-2.55-.1Z"/>
  <path class="st0" d="M495.52,295.91c.43,0,.87-.02,1.29,0,.16-.12-.52-.02-1.29,0Z"/>
  <path class="st0" d="M478.06,295.29c.66.05.41-.26.79-.18.74-.26-4.4.32-.79.18Z"/>
  <polygon class="st0" points="493.53 296.5 493.03 296.25 492.25 296.45 493.53 296.5"/>
  <path class="st0" d="M482.54,296.31l2.22.07s.25-.07.6-.09c-1.37,0-2.87-.06-2.82.02Z"/>
  <path class="st0" d="M485.36,296.3c.71,0,1.39,0,1.79-.04-.39,0-1.22.01-1.79.04Z"/>
  <polygon class="st0" points="490.49 296.57 489.83 296.52 488.26 296.5 490.49 296.57"/>
  <path class="st0" d="M458.63,296.26l-2.43.07c-.25.09.41.14,1.32.11.58-.06,1.48-.09,1.11-.18Z"/>
  <path class="st0" d="M465.97,296.96c-.66-.05-.7-.11-1.07-.19l-.07.31,1.14-.12Z"/>
  <path class="st0" d="M458.89,297.03c-.24.09-3.52.25-.45.23.25-.09,2.68-.16.45-.23Z"/>
  <polygon class="st0" points="422.32 296.63 422.94 296.63 422.85 296.11 422.32 296.63"/>
  <path class="st0" d="M390.09,297.87c2.88.12.68-.32,3.28-.16.68-.12-2.12-.13-1.43-.23-1.74.13-2.65.06-1.85.39Z"/>
  <path class="st0" d="M391.94,297.47c.28-.02.57-.04.89-.08-.5.03-.74.06-.89.08Z"/>
  <polygon class="st0" points="28.1 295.26 26.25 295.15 27.44 295.33 28.1 295.26"/>
  <path class="st0" d="M24.55,295.64l-.44-.33-1.11.3c.42-.01,1.23-.04,1.55.03Z"/>
  <path class="st0" d="M277.27,298.27l.14-.08c-.29-.09-.72-.09-1.59-.11l1.45.18Z"/>
  <polygon class="st0" points="252.19 298.02 252.62 298.03 251.82 297.73 252.19 298.02"/>
  <path class="st0" d="M231.14,298.4c.86.01,1.87-.05,2.73-.04-1.87.05-2.96-.33-2.73.04Z"/>
</svg>