<?xml version="1.0" encoding="UTF-8"?>
<svg id="_图层_1" xmlns="http://www.w3.org/2000/svg" version="1.1" viewBox="0 0 604 593">
  <!-- Generator: Adobe Illustrator 30.0.0, SVG Export Plug-In . SVG Version: 2.1.1 Build 123)  -->
  <defs>
    <style>
      .st0 {
        fill: #0655bc;
      }
    </style>
  </defs>
  <g>
    <path class="st0" d="M352.59,43.23c.64.41,2.05-.35,2.84-.33,8.77.27,20.07,7.44,25.81,13.86,2.01,2.24,4.67,5.51,5.2,8.48,10.82-2.71,27.75,8.86,26.15,20.57-.8,5.88-7.52,4.91-11.67,5.66-8.67,1.56-16.84,4.77-24.5,9,4.57,2.67,7.55,5.61,10.32,10.09.48.77,1.13,2.88,1.32,3.1.29.33,1.52.47,2.1.79,23.9,13.51,43.86,35.87,45.18,64.59.63,13.59-3.31,28.14-9.24,40.24,2.01.65,3.24,3.57,4.03,5.41,1.09,2.53,3.33,8.68,2.73,11.18-.43,1.8-2.88,5.08-3.88,6.9-3.02,5.47-6.49,11.17-10.59,15.98-2.26,2.65-3.39,3.07-5.31,6.24-7.28,11.98-14.48,30.52-24.9,39.42-.9.76-4.55,2.95-4.73,3.17-.29.36-.31,1.5-.71,2.18-3.62,6.16-7.62,5.6-13.51,8.06-8.94,3.73-14.95,7.2-24.85,9.43-1.72.39-7.48.93-8.38,1.63-.75.57-2.79,4.79-3.63,6-2.27,3.26-4.48,5.72-7.6,8.19-1.89,1.5-6.88,4.13-8.03,5.45-.94,1.07-2.55,5.3-3.71,7.07-2.34,3.57-5.87,7.35-9.01,10.25-2.39,2.2-3.03,1.94-4.84,4.78-1.65,2.59-2.67,1.39-4.42,1.74-.88.18-2.47,1.4-3.63,1.78-2.38.77-5.59,1-8.07.71-.96-.11-3.95-1.33-4.41-1.06-.1.06-.32.8-.62,1.11-1.3,1.32-2.77,2.27-4.07,3.65-2.33,2.47-3.28,5.29-6.91,6.57-.58.2-1.86.12-1.93.19-.15.15-.39,2.97-1.01,4.19s-3.47,3.69-3.56,4.14c-.11.56,1.71,3.46,2.05,4.38,1.37,3.67,1.6,7.35-.57,10.77,1.83-.39,3.93,2.34,4.89,2.62,1.62.49,4.87-.12,6.82.11,2.2.26,7.77,1.9,9.6,3.11.93.62,1.54,1.73,2.48,2.14,1.24.55,2.73.32,3.96.66,10.53,2.93,21.49,8.71,19.97,21.55-.37,3.13-2.53,5.11-2.96,7.05s.03,4.11-1.17,6.03c16.18,16.62,29.07,36.29,36.92,58.21,2.23,6.21,4.37,12.2,6.73,18.31,5.32,13.79-2.03,32.36-18.48,32.27-3.15-.02-6.07-.67-9.63-.7-5.49-.04-9.13-4.27-13.53-6.5-4.08-2.07-8.78-2.94-12.96-4.76-8.46-3.68-16.74-11.42-24.96-16.25-7.61-4.47-15.07-7.8-24.07-8.28l-2.25,1.93c-.22,1.62-6.08,8.44-5.98,8.97s2.53,1.88,3.05,1.99c1.16.24,2.88.02,4.34.66,4.34,1.89,3.51,9.44-2.98,9.56-3.48.07-5.01-1.49-7.34-1.94-3.63-.7-6.93,1.8-11.09-.85-3.85-2.45-4.87-7.32-3.52-11.48.68-2.11,2.54-3.99,3.15-6.09.74-2.51.91-5.61.69-8.17-2.19,2.4-6.08,4.9-7.9,7.51-1.3,1.86-1.22,3.92-2.87,6-.37.46-1.13.61-1.39,1.03-.29.46.13,4.1,0,5.26-.39,3.42-2.5,5.21-1.86,9.26.49,3.08,2.37,2.21,3.81,3.51,1.08.98.86,2.47,1.38,3.24.69,1.02,2.81.4,3.68,3.27,1.83,6.07-6.89,7.92-11.31,6.29-.71-.26-1.99-1.36-2.39-1.34-.33.02-1.53,1.14-2.4,1.33-3.58.76-5.43-1.32-7.23-1.31-.73,0-2.47.99-3.81.97-1.72-.03-3.47-1.29-4.35-1.41-.7-.1-3.32,1.03-5.61.6-.91-.17-1.83-1.03-2.4-1.05-.67-.02-2.1.98-3.18,1.04-2.85.17-6.01-2.33-5.41-5.4.41-2.09,2.62-2.94,3.28-4.43.6-1.36.26-2.82.58-4.04.98-3.76,2.75-7.64,4.99-10.8.83-1.17,3.75-4.07,3.99-4.86.5-1.63.02-4.03.27-5.89,1.19-8.87,6.32-8.55,11.82-12.83,3.61-2.81,9.28-9.41,12.34-13.08.8-.96,6.49-8.22,6.17-8.65-1.79-.94-4.37-2.56-5.96-3.87-8.34-6.86-9.35-22.35-12.52-32.08-8.71-2.6-12.51-13.71-14.09-21.82-1.78-9.16-.21-27.44,4.5-35.58.33-.56,1.27-1.17,1.33-1.59.1-.69-1.21-4.12-1.35-5.45-.45-4.22.28-7.91,1.49-11.9,1.53-5.04,3.75-7.79,3.87-13.46.16-7.03-1.13-11.73,1.03-19,.56-1.88,2.41-4.72,2.72-6.13.44-1.93-.1-4.78.06-6.87.81-10.37,4.79-18.92,11.37-26.76,3.07-3.65,3.27-4.13,5.67-8.2,3.62-6.17,9.15-10.2,14.95-14.13-9.07-3.02-17.28-7.43-23.69-14.63-2.53-2.84-4.57-6.21-7.12-9.05-4.55-5.06-9.89-9.71-14.25-15.03-1.19-1.46-.79-1.31-2.12-2.47-5.75-5.05-3.62-15.4-1.47-21.9.5-1.51,1.22-2.39,2.02-3.68-8.58-11.12-12.81-24.89-11.53-38.95,2.18-23.97,15.15-54.74,29.89-73.72,26.28-33.84,71.7-43.4,110.31-25.08-1.55-3.57,1.71-5.94,5.01-5.96-3.27-4.99-6.74-9.86-10.77-14.26-2.39-2.61-5.97-5.24-8.1-7.69-4.17-4.79,4.43-9.2,8.08-10.4-4.05-6.37-5.79-9.73,2.5-12.91,13.64-5.23,37.08-2.32,45.81,10.44.36.53.95,2.16,1.05,2.22ZM350.61,42.51c-8.09-10.87-26.21-14.55-38.92-11.76-1.38.3-12.14,3.35-10,5.98.66.82.87-1.58,1.54-.77.17.2-.08,2.39,1.74,2.7.72-.24-2.67-3.48-.78-2.69,1.41.59,1.43,2.92,2.61,3.56,1.88,1.01,6.18,1.28,8.38,1.44l-5.78-6.35c-.06-.29.4-.26.57-.19,1.38.62,5.29,6.69,6.55,6.93.87.16,1.98-.1,2.89,0-.66-1.11-2.66-2.96-3.08-4.05-.26-.68.34-.66.76-.57.27.73,2.93,4.76,3.18,4.91.47.28,4.61.87,6.07,1.45,3.9,1.53,6.21,3.5,8.29,7.11,4.57,7.9,5.5,18,5.2,26.97.56-.25.6-1.93.7-2.56.54-3.32,1.24-7.08,1.55-10.39.62-6.5-.03-12.58-.57-19.04.47-2.08,7.2-3.08,9.1-2.68ZM310.55,51.76c-1.14-2.36-1.89-4.94-3.26-7.33-.33-.57-2.47-3.12-2.13-3.45.61-.61,2.61,2.65,2.86,3.1,1.88,3.28,2.79,6.59,5.07,9.96.72,1.06,2.98,3.24,3.23,4.09.15.5-.09.77-.57.57-.94-.39-4.36-5.7-5.21-6.93,1.9,3.91,4.04,7.73,5.84,11.68,1.98,4.34,4.33,12.96,6.7,16.41,1.05,1.54,4.4,2.51,5.76,3.87l-2.19-4.36-1.84-5.1.45-.06,2.22,5.29-.76-5.59-.2-5.58c.84-.29,1.94,9.38,1.74,10.4.67.09.36-.87.38-1.34.34-8.14-2.85-14.64-5-22.15.63-.84,2.39,5.71,2.57,6.07,3.62,7.13,3.36,13.57,5.43,21.18.18.66.08,1.36.09,2.03l1.15-.38c-.5,1.17-.32,2.21,1.16,2.31v-10.98c0-.49.16-.69.06-1.57-.09-.78-.02-.55.71-.55.7,2.09-.06,4.16-.02,5.96.03,1.52.36,2.79.42,4.23.04.97-.48,3.48-.37,3.63s1.9.88,2.28,1.21c.96-6.15,1.51-12.45,1.18-18.7-.29-5.34-1.52-12.29-3.93-16.87-6.75-12.87-17.72-8.61-29.21-12.39-.69-.23-1.27-.68-1.93-.95-.53.57,6.5,11.15,7.31,12.33ZM375.2,54.41c.29-.44-.07-.64-.32-.93-.55-.63-3.37-2.46-4.28-3.04-4.25-2.71-10.44-5.67-15.56-5.61-3.66.04-8.5,3.23-12.13.77-.49.69.72,8.26.78,9.81.23,6.15-.7,13.17-2.05,19.16-.83,3.67-2.79,7.05-2.19,11.09.81-.2.51-1.79.78-2.39.22-.47.93-.54,1.23-1.17,2.97-6.15,2.52-13.31,5.49-19.56.46-.97,1.3-1.43,1.64-2.21,1.85-4.17,3.03-8.5,4.64-12.7.64-1.66,1.94-2.31,1.26-.29-1.77,5.22-4.59,10.75-6.18,15.78-.06.2-.11.63.19.57l3.09-4.62c.14,1.95-2.09,4.14-2.97,5.89-1.62,3.23-3.25,7.19-4.15,10.67,4.26-5.22,8.39-15.49,16.58-14.08,1.46.25,3.57,1.6,4.48,1.69.84.08,1.09-1.31,2.04-1.09l-1.15,1.36v.56c3.44,1.4,5.89,5.84,8.65,7.73.41.28.41.48.97.19,2.05-1.06,4.96-6.84,8.47-7.34-.47-1.63-7.25-10.12-8.67-10.09-.34,0-.71.88-1.34.65-.36-1.04.61-.67.71-.81ZM310.94,57.54c-.25-1.63-6.13-11.66-6.81-11.89-1.95-.66-10.06,3.56-7.78,6.65,6.54,5.58,12.14,12.1,17.1,19.11,1.95-1.52-.21-2.75-.89-4.51-.6-1.57-.75-3.44-1.47-5.08-1.55-3.52-5.08-7.26-7.08-10.64,2.22-.27,2.92,3.56,4.43,4.82l-.39-2.69,2.89,4.23ZM387.2,80.27c-3.6-.72-6.83-2.55-9.75-4.7-4.84-3.56-11.92-13.21-18.45-12.56-7.2.72-13.57,14.53-16.1,20.52.27.54.74-.51.85-.69,1.49-2.55,2.83-5.26,5.13-7.2l.19.57c-2.72,4.02-6.59,8.43-7.31,13.29l4.04-6.93.57.19c-.92,2.14-3.18,4.82-3.84,6.94-.06.2-.11.63.19.57l1.35-1.15c.48.75-1.7,2.3-.19,2.31l15.41-15.79c.54,2.88-2.08,3.26-3.47,4.62-1.71,1.68-4.72,4.74-6.17,6.54-.27.34-2.3,3.31-2.11,3.48,1.49-.77,3.97,1.17,4.74,1.07.41-.06,6.89-2.65,7.73-3.04,4.56-2.11,8.44-5.9,14.11-5.34-1.26,1.18-3.61,1.18-5.27,1.85-1.86.75-3.21,2.25-5.12,2.77-.05.66,1.44.15.59,1.16-1.52,1.79-1.81-.06-1.93-.01-1.34.52-1.32,1.76-1.42,1.84-.27.22-1.03.03-1.45.29-.64.39-1.01,1.32-1.95,1.34,0,.67,1.69.43,2.13.4,3.51-.24,6.46-1.47,9.81-2.32-.09.58-.73.72-1.15.97-1.18.7-5.24,3-6.28,3.36-1.54.53-3.69-1.21-.82,1.86l3.24-1.57c.49,1.87-1.16,2.06-2.69,2.31.43,1.28,3.38.08,4.5-.32,3.55-1.24,7.59-3.69,11.27-5.3.89-.39,2.11-1.92,3.49-1.71-.47,1.45-2.41,1.13-3.08,2.3,3.16.33,6.33-.55,9.4-.03l21.3-3.74c4.69-2.29.27-10.99-2.19-13.76-4.37-4.93-12.35-8.05-18.88-7.89-.45.43,1.9,3.94.58,3.84-.55-.04-1.92-2.7-1.74-3.46-.37-.33-6.16,2.51-6.72,3.1-.16.17-2.07,3.06-2.07,3.26.01,1.51,9.01,5.75,10.9,5.59.59-1.02-1.2-1.75-.92-2.82.12-.45,3.34-3.15,4.2-2.38-.51,1.05-2.97,1.56-2.5,2.9,2.19-.49,3.96-1.87,5.78-3.08.61.89-1.46,1.92-2.25,2.37s-2.85.98-2.95,1.1c-.45.51.93,1.67.74,2.43-.36,1.4-9.36,6.13-9.98,5.65,1.1-1.8,3.91-1.92,5.01-3.84l-10.4.96c1.85-1.41,6.29-2.02,8.69-2.13.95-.04,1.54.28,2.34.36.41.04,1.02.29.91-.34ZM186.53,202.74v-8.67c0-.08.36-1.5.77-1.35-.45,4.15.48,8.09.79,12.11.17,2.26-.79,4.24.45,6.48l1.45,2.97c.07-.99-.36-1.89-.4-2.87-.33-8.38,3.18-29.88,7.14-37.2.29-.54-.03-.95.96-.75-4.12,13.81-9.41,30.59-5.5,44.98.28,1.05,4.94,10.41,5.89,9.32.44-.5-1.38-2.26-1.72-3.09-2.45-5.92-3.11-14.1-2.51-20.4,1.26.43.28,1.76.34,2.89.25,4.45.63,8.92,1.58,13.29,1.12-.33,0-2.52,0-2.89v-6.74c.9-.05.68-.13.77.57.17,1.3-.08,2.87,0,4.24.14,2.13.83,4.25.11,6.5l1.42,3.71c-1.39-10.71,1.38-22.04,4.52-32.26.72-2.35,1.48-5.8,3.18-7.41-2.89,11.32-7.77,24.21-6.94,36.03.4,5.82,3.52,13.52,6.5,18.54.88,1.48,2.09,2.47,2.77,3.98.77.07.23-1.11.12-1.47-.66-2.15-1.92-3.74-2.63-5.46-.17-.4-1.98-6.42-.57-5.01l.39,3.08.39-1.15.72.62,1.19,4c-.78-10.91,3.2-21.16,5.57-31.6l2.13-5.38c-1.4,7.24-3.98,14.65-5.27,21.87-.95,5.3-1.78,12.23-.79,17.51.56,3.02,1.71,4.24,4.91,3.75l-.77.76c1.57.43,3.25.2,4.82.39.55.06,1.1.22.57.77-.9.94-5.89.08-7.31,0,.87,3.58,5.04,5.9,8.13,7.46,9.91,5.02,21.65,5.63,32.48,5.62,3.28,0,6.56.03,9.84.02.08.56-1.05.59-1.45.66-11.5,1.95-31.4.38-41.59-5.27-.52-.29-2.9-1.79-3.18-1.55,10.69,13.08,26.42,19.57,42.99,21.52,2.35.28,6.6.78,8.81.74.94-.02,5.67-1,5.97-.69.07.08-.05.84,0,1.15h-3.47c.2.96,2.32.12,1.92,1.54-3.02.36-5.86-.74-8.85-.76l7.32,1.93c1.15,1.5-6.49-.64-6.93-.2,2.72,1.31,5.99,1.06,8.86,1.74l-1.92.77.77.57-.77.57c1.86-.43,5.11.48,6.67.27.15-.02,2.86-.92,2.95-1.05.04-.06-.5-.75-.21-1.15.49-.68,1.76.05,1.76-.76-2.53.09-5.75.75-8.22.63-.64-.03-1.95-.26-2.18-1.01,2.1-.1,4.25.13,6.35-.01s3.95-1.23,5.97-.38c-.88-2.49-1.68-3.4-.45-6.04.93-2.01,2.6-2.15,2.96-2.8.21-.38-.92-3.46.94-3.69,1.65-.21-.88,3.36,1.17,3.28-1.27-4.78,3.44-9.45,8.25-8.83.85.11,1.94.88,2.65.69.12-.03,2.01-1.11,2.1-1.2.5-.51.4-1.94,2.05-3.15,3.12-2.29,6.31-2.08,9.62-.43.61.3,1.6,1.36,1.71,1.36.15,0,1.49-1.47,2.35-1.87,3.96-1.87,11.22.93,11.71,5.74,2.32-.8,3.78-1.75,6.31-.73,2.71,1.09,2.26,3.48,3.02,4.11.34.28,2.13.46,2.88.78,1.97.85,3.98,2.78,4.28,5,.17,1.29-.83,3.46-.53,3.94.71,1.14,3.98.92,4.97,4.3.9,3.06-.83,4.34-.8,5.14,0,.22,2.13,2.95,2.22,3.85l-.77.57c10.7-2.75,21.58-9.04,30.55-15.47,31.32-22.49,29.47-54.35,28.78-89.5l-1.55-15.97c.77.15.63.81.77,1.35,5.41,21.28,3.16,52.87-2.72,73.86-.04.14-1.51,1.54-1.13,2.59l5.17-3.49c10.07-15.67,13.76-35,13.32-53.51.48-.63.7,0,.77.57.37,2.88.18,8.53.02,11.58-.27,5.09-1.54,10.12-1.94,15.2.53-.22.85-1.65,1.04-2.23.17-.51,1.21-5.31,1.65-4.7v4.23c1.15-2.36.91-5.9,2.7-7.7.11,1.86-.65,3.6-.98,5.37-.07.4-.51,1.26.21,1.17,4.64-12.22,7.69-25.48,6.12-38.66-2.44-20.51-16.23-39.18-32.56-51.02-1.03-.75-10.84-7.48-11.3-7,.15,2.7.58,1.42,1.54,1.7,1.18.35,1.96,2.03,2.7,2.35.5.21,1.02-.22,1.52-.01.33.14,3.89,3.14,4.45,3.66.6.55,1.31,1.24,1.72,1.93l-3.46-1.73c1.39,1.54,3.06,2.87,4.43,4.43.77.86,3.72,4.13,4.04,4.82.08.17.1.63-.19.57-4.98-5.31-9.98-10.58-15.8-15.02l.59,9.81c2.43,2.15,8.79,15.34,10.48,16.28.44.25,1.63.15,2.44.46,11.58,4.46,5.03,21.09-5.99,14.66.63,3.01,1.77,6.37,1.92,9.44.04.8.23,1.1-.77.96-.32-1.35-.2-3.07-.48-4.34-.78-3.51-1.82-6.41-3.06-9.65-.95-2.49-.26-3.64-.4-6.15l-4.92-7.2c-.46,9.27-1.07,18.82,1.64,27.81.28.92,1.5,4.45,2.01,4.92.47.42,2.04.79,3.07,1.55,4.44,3.32,5.98,10.93.95,14.41-5.77,4-12.24-1.31-11.94-7.68.07-1.39.92-2.6.79-3.81-.15-1.46-2.67-6.49-3.27-8.7-3.41-12.58-1.67-24.96-1.12-37.74-3.99-6.74-9.79-14.21-15.82-19.26-.43-.36-.63-.93-1.35-.77,3.36,6.18,6.55,12.66,9.05,19.26.56,1.5,1.26,3.41,1.6,4.95.14.61.45,1.28-.44.44-3.36-7.74-6.4-16.62-10.9-23.76-1.45-2.3-3.1-4.48-5.46-5.9,1.5,19.23,10.99,36.56,14.52,55.38,3.94,21.02.88,43.57-7.52,63.12-4.82,11.2-11.48,22.07-21.06,29.78-.63-.38.13-.85.38-1.16,1.58-1.88,3.57-3.59,5.19-5.59,17.36-21.41,26.15-54.3,22.31-81.61-1.67-11.87-6.63-22.98-9.59-34.51-.67-.1-.4.9-.34,1.3,1.56,10.61,5.15,21.2,4.19,32.2-1.46-1.36-.59-4.64-.77-6.74-1.1-13.09-4.77-28.44-7.43-41.49-.46-2.27-1.3-7.61-2.16-9.39-.59-1.22-1.05-.96-2.35-.93-.27.26.68,4.53-1.15,4.24-.19-2.3.22-5.32-2.7-5.77-.06,1.08.09,2.19,0,3.27-1.61,17.54-.72,35.08-5.11,52.28-3.57,13.98-12.82,35.69-21.15,47.41-.43.61-1.01,1.94-1.85,1.8l8.29-14.63c8.12-17.41,15.54-36.22,16.74-55.67.34-5.52-.24-11.07-.01-16.57.25-6.11,1.75-13.02,1.81-18.93,0-.45-.24-.83-.25-1.27-5.74,5.19-8.05,13.51-10.2,20.8-1.29,4.37-1.96,9.62-3.55,13.78-.19.49-.23,1.13-.88,1.24,2.14-12.26,6.21-24.18,10.4-35.82-1.14.28-2.09-1.1-2.92-1.17-1.35-.12-7.29,5.61-8.45,6.94-10.95,12.6-14.08,29.94-19.93,45.17-10.84,28.23-30.84,55.04-54.64,73.62-10.91,8.52-23.88,16.56-38.09,17.18-.15-.74.55-1.18,1.14-1.36,2.09-.66,5.32-.87,7.72-1.52,27.1-7.38,57.26-40.59,70.8-64.39,9.75-17.14,13.48-31.92,20.2-49.9,4.19-11.21,10.23-20.98,19.93-28.22-4.71-.23-8.58,3.12-12.71,4.81-.08-.97,1.13-1.42,1.81-1.85,1.51-.96,3.61-2.12,5.24-2.85.45-.2,1.38-.26,1.43-.31.14-.15-1.1-1.67,1.54-1.72.05-1.63-9,.51-10.02.76-16.31,4.1-37.27,16.44-49.69,27.73-5.17,4.7-9.48,10.2-14.24,15.22.86-1.9,2.52-3.93,3.86-5.57,14.28-17.44,36.58-32.38,58.23-38.83l5.69-1.43c-6.98-1.79-14.24-.23-21.11,1.41-4.76,1.14-9.47,2.71-14.03,4.46-4.81,1.84-9.41,4.34-14.16,6.06-.83-.62,11.78-6.12,12.61-6.45,10.66-4.29,22.83-7.68,34.38-7.41.06-.59-1.02-.55-1.47-.64-12.87-2.78-28.33-.6-40.98,2.68-9.71,2.52-20.6,6.53-29.71,10.73-10.09,4.65-19.34,10.72-27.98,17.66-.15-.69.35-.94.76-1.35,10.93-10.97,29.57-19.42,44.1-24.46,16.01-5.55,33.23-9.28,50.27-7.7l-8.46-3.66c-19.97-5.61-40.6-5.66-60.87-1.54-5.4,1.1-10.64,3.07-15.86,4.17-.41.09-1.23.56-1.47.07,3.87-2.08,8.72-3.3,13.01-4.32,13.94-3.31,28.35-4.73,42.64-3.58,5.75.47,11.39,1.84,17.14,2.3l-5.77-1.93c.02-.31-.16-.78.2-.77,1.74.06,5.1,1.94,7.12,1.93l-5.01-2.53c-.62-.26-1.36.21-1.94.05-8.14-2.19-16.1-4.51-24.63-4.84-1.32-.99,2.88-.79,3.27-.76,3.06.18,7.21,1.05,10.29,1.65,1.72.34,3.54,1.07,5.22,1.33.41.06,1.34.41,1.25-.29-12.68-4.02-26.09-6.7-39.47-5.39-23.24,2.27-45.06,13.94-59.5,32.17-16.72,21.11-34.87,63.36-29.1,90.32,1.01,4.72,2.86,9.79,5.41,13.85-.05-2.17-1.67-4.59-2.39-6.85-1.02-3.19-1.69-6.82-2.42-10.09.42-.07.73,0,.96.38.19.31.89,5.26,1.23,6.47,1.86,6.65,5.75,16,12.05,19.34.03-.66.08-1.29-.2-1.92-.41-.92-2.74-3.4-3.58-4.89-4.19-7.47-7.45-18.7-7.79-27.26-.1-2.45-.24-5.22.59-7.52.72.49.52.92.49,1.61-.36,8.11.47,14.8,3.16,22.48,1.49,4.26,3.66,8.17,5.8,12.12l.57-.77,3.66,3.85c-10.15-21.31-5.81-46.85,5.33-66.89,1.73-3.11,6.1-10.42,8.53-12.65.52-.47.79-.7,1.55-.57-12.15,16.65-20.41,37.39-19.27,58.36l.79,6.34ZM316.33,77.95c-3.02-1.28-7.72.23-5.72,3.99.39.73,2.73,2.68,3.41,2.36-.29-.39-2.4-2.04-1.92-2.5.72-.68,1.77,1.82,2.3,1.92.02-2.12,2.19-3.9,4.24-3.85-.64-1.24-2.69-.24-3.85-.77l1.54-1.15ZM322.88,82.19c-1.22-.56-7.74-.79-7.7.96,0,.17.8.6.95.97.56,1.35-.08,2.04,1.93,3.07,1.1.56-.36-1.79.76-1.15.97.55.55,3.01,1.73,2.12l.39-1.36c-.11,1.13-.04,2.24,1.15,2.7-.87-1.99,1.1-3.85,3.08-3.85-2.26,2.65-.18,5.63,2.51,6.93l.38-1.15c.72.67.89,2.79,2.12,2.12-.85-.9-1.19-2.07.39-2.12-.15,1.26.56,2.2,1.35,3.08,1.69-2.51,1.21.62,1.36.76.09.08.99-.06,1.52.22.32.17.44,1.08,1.36,1.33,1.15.3-.4-1.85.76-1.14.57.34.58,1.49,1.17,1.92,1.31.2-.17-1.48.2-1.9.04-.05.92-.19,1.14-.4-.59,1.39.59,2.14.78,3.46,1.43-1.09,2.59-2.69,4.62-2.7l-1.16-.38,1.54-.77c-1-1.64-4.03.25-5.78,0,.46-1.6,2.48-.67,3.08-1.92-2.38-1.18-4.06-.52-6.55-.39-.32-1.65,2.35-.61,2.69-1.53-2.39-1.05-4.33-1.56-6.93-.78-.13-1.88,2.18-.59,2.69-1.53-2.21-.91-4.45-1.76-6.93-1.55v-1.15s1.16-.38,1.16-.38h-2.69s1.15-1.15,1.15-1.15c-1.11.05-2.11-1.37-2.98-1.5s-1.69,1.1-2.8.72l1.54-1.53ZM351.72,94.08c.63-.89-3.36-3.42-5.16-1.5-.24.26-.4.68.01.78l2.11-.77c-1.15,1.35-1.65,1.55-1.15,3.46,3.67-.73-.32,1.26-.68,1.63s-.31,1.25-.52,1.4c-.78.55-2.35-1-1.88,1.59-.62.12-.46-1.06-.94-1.12-.09-.01-1.48.57-1.59.71-1.2,1.64,2.67,4.26,5,3.43.57-.2.5-1.09.84-1.11.41-.02,1,.67,1.7.23.23-.15,2.39-2.65,2.34-3.09-.01-.13-1.49-.25-.41-2.14l1.15.39c.7-3.33-.95-2.53-1.54-3.09-.76-.73.69-.76.72-.81ZM386.43,93.36h-10.21c-.08,0-1.5.36-1.35.77.92.2,1.78-.18,2.61-.27.55-.06,1.39-.53,1.23.46-1.35,1.05-3.63.78-5.11,1.44-.44.2-1.09.66-.47,1.07,2.78-.33,5.83-1.8,8.47-2.32,1.2-.23-.44.98.77.77l4.04-1.93ZM358.6,96.15c-.54-.55-2.87-1.2-3.75-1.25-.17.64.68.22.78.57.3,1.12-.77.92-.81,1.19-.03.2,1.17,3.74,1.29,3.91.22.34,1.21.29,1.05,1.06-.19.9-1.79.07-2.44.54-.58.42-.09,2.1-1.6,1.19-.84.91.92.89,1.34,1.74l-1.15.38c.61.19,2.03,2.12,2.18,2.15,1.86.31,4.6-2.39,5.13-4.08.4-1.27-1.56.67-1.15-.95h1.55c.01-.77,0-1.81-.37-2.49-.16-.3-.85.29-1.17-.4-.56-1.21,1.42.43,1.14-.76-.19-.8-1.01-1.05-1.48-1.6-.26-.3-.25-.91-.54-1.2ZM377.19,102.99c-3.77-1.65-7.92-3.31-12.14-3.1-.42.02-2.34.31-2.45.44-.1.12-.15,2.87-.06,3.18s2.89,1.31,3.49,1.01l-.77-1.92c1.28-.34.57.96.77,1.15.64.61.98-1.5,1.92-.77.15.12-.72,2.79,1.93,2.69.06-.9-1.1-1.09-1.15-1.16-.23-.32-.06-1.01.56-.76.71.29,2.19,3.32,2.89,2.69-2.78-3.52.63-1.52,1.35.77,1.63.02-.58-1.97-.2-2.31,1.61-.47,1.34,1.75,2.15,3.04.46.74,1.32,1.29,1.89,1.96.63-.66-.73-1.96.57-2.31l.97,3.85c.29-.64-.5-2.38.57-2.69,1.04,1.71-.85,3.79,1.16,4.62l.77-1.54c-.88,2,.07,3.44.39,5.39l.38-2.69c2.84,1.57.54,2.06.38,3.69-.11,1.09.67,2.42.39,3.63l1.53-1.54-.76,4.62c.98-.02.25-2.66,1.54-1.73.01,1.72-1.85,2.71-1.54,4.42l1.16-.57c-.73,1.63-1.49,2.91-1.16,4.81.95-.24.47-3.74,1.93-2.88-.61,2.73-2.48,4.88-1.93,7.89.81-.25.46-2.84,1.93-2.11-.62,1.61-1.07,2.71-.39,4.42l-1.54-1.15-.39,7.7c.67.2.18-.92.57-.77,1.61.65-1.34,5.05-.96,5.78.03.05.87-.53,1.15.2-.15,1.15-1.18,2.35-1.2,3.48,0,.7.73.5.81.82.53,2.37,0,5.1-.38,7.44l1.15-.77-.38,7.7,1.15-1.92-.38,5.39c.48.21.42-3.96,1.35-2.32.68,1.2-.82,4.47.19,6.17l.57-2.69,1.54,3.84,3.28-1.54c-1.93-2.43-1.67-5.5-2.88-8.09-.38-.82-3.18-3.27-.97-3.46l.78,1.34c-.81-1.43.44-3.75-1.55-3.27-.36-1.03.68-.62.76-1.01.45-2.23-1.01-6.79-.37-9.39-1.49.58-1.1-.53-.76-1.53l.76.38c.05-1.28.93-8.77.7-9.17-.09-.14-.74-.28-1.04-.69-.5-.7-.47-2.33.73-2.08l.38,1.92.77-6.36c-3.25.33-.63-.43-.24-1.77.54-1.9.39-4.68-.33-6.5-.12-.31-2.79-4.12-1.16-3.46.99.4.6,1.72,1.35,1.92-.23-1.76-.24-5.65-1.13-7.05-.4-.64-1.98-.72-1.56-2.19l.96.77c-.3-3.43-2.18-6.55-5.58-7.9-.14-1.48,1.79.36,1.92.2-.01-.18.07-.4,0-.57-.21-.53-4.98-4.69-5.59-4.82-.1-.02-.71,1.61-1.72.77-.72-.6,1.53-1.23,1.15-1.53ZM370.64,111.46c-.4-.41-1.99-1.98-2.29-2.09-.48-.18-1.05.34-1.57,0s.07-1.07-.36-1.55c-.58-.65-3.92-2.24-4.77-2.15-.1.01-.9,1.3-1.4,1.37v.57c1.01-.06,1.3,1.58,2.12,1.93l.96-1.15c0,3.78,2.38,2.47,2.68,2.7.35.27.52,1.38-.36,1.34,1.04,1.5,2.89,2.27,4.1,3.41,1.37,1.29,3.63,3.17,4.66,4.2.34.34.25,1.81,1.07,2.21l-.2-1.34c1.47-.55,1.4,2.32,1.98,3.41.41.77,1.61,1.65,2.07,2.55l.19-1.54c1.08.36.74,1.73.77,2.69l.57-.77.96,1.92c.33-2.13.69-3.3-.22-5.36-.18-.41-.81-.72-.93-1-.34-.77,1.06-.36.77-1.14-.69-1.66-3.29-1.96-4.05-2.89-.84-1.02.63-.48.58-1.16-1.4.01-1.49-1.41-1.93-1.93-.35-.41-.48,1.63-1.15.77-.4-.51.13-1.81-1.96-3.24-1.79-1.23-3.03-.7-3.82-1.19-1.61-.99.58-1.01,1.55-.59ZM380.65,118.39c-1.47-5.84-6.14-10.61-12.32-11.17l12.32,11.17ZM392.35,135.2c-.5-.74-.44-2.2-1.68-2.56l-.41,7.82c1.63.95,1.19,3.19,2.91,4.5.45-.77-1.21-3.31.57-3.08l.39,3.47c.92-1.15,1.88,2.27,2.49,2.29.18,0,2.88-1.75,2.88-2.1-1.87-2.21-3.1-4.84-4.68-7.25-.69-1.05-1.86-2.17-2.48-3.09ZM400.68,146.9c-1.89.52-3.75.78-2.66,3.15.13.29.6.3.8.84.48,1.33.76,3.05.71,4.47l-1.16-1.92-.38,1.16c-1.75,0-1.04-2.22-1.16-3.47-.67-.09-.37.88-.38,1.34-.37,10.85,13.33,9.13,11.47.09-.38-1.85-3.15-5.2-5.15-5.29-.95-.04-1.47.97-2.46.77l.38-1.15ZM392.98,177.71c-6.86-.22-7.06,12.58-1.26,13.78,8.16,1.68,9.61-8.67,3.94-12.41-1.99-1.31-1.52-.26-2.19.15-2.52,1.54-.25-1.28-.49-1.52ZM276.08,285.55c-1.75-.27-4.63,0-6.55,0-.09,0-.71.67-.58.77l3.47.39c.28,1.49-2.02.76-2.51,0-.47.78.76,1.8,1.15,2.7.67,1.56,1.8,4.46,2.03,6.06.22,1.5-.2,3.74.1,4.85.07.28,1.33.26.77,1.01-.14.18-1.46.12-1.15,1.16,1,.23,3.3-1.84,2.7.2-.23.78-3.46.43-3.8,2.41-.32,1.84,1.59,5.2,1.48,6.06-.03.25-.67.84-.96.2l-1.73-3.85c-.09,1.68-1.45,3.03-1.91,4.44s-.74,5.34-1.37,6.33c-1.58,2.49-.24-2.83-.19-3.27.09-.81-.17-.73-.57-.18-1.5,2.08-2.01,5.75-3.1,8.08-.12.25-.36,1.49-.95.77-.15-.18,1.44-3.76,1.15-4.62l-1.53.77.77-1.53-1.15-.19c5.61-4.98,10.8-14.27,10.01-21.95-.46-4.47-5.1-11.7-8.5-14.61-5.41-4.63-11.78-5-18.45-6.38.61.84,1.06,1.63,1.44,2.6.14.36.91,1.48-.09,1.24-.84-.99-1.65-3.21-2.53-4.02-1.01-.93-5.72-2.19-7.44-2.96-5.47-2.47-11.28-6.44-15.84-10.35-1.41-1.21-4.82-5.34-6.18-5.76-.2-.06-.63-.11-.57.19,1.76,2.2,3.07,4.61,3.08,7.51l-3.68-7.68-2.29-1.55c-.71.03-.63,4.45-2.5,4.23,3.09-5.74-3.59-14.49-8.85-16.38-.75-.27-1.77-.02-2.36-.36-.25-.14.18-2.35-1.89-2.14,1.16-2.02,2.65.53,3.71,1.11,1.57.86,4,2.07,5.64,2.83.31.14.82.65,1.04.11-.68-1.1-1.53-2.12-2.12-3.27-1.14-2.22-3-7.71-4.26-9.22-.86-1.03-3.01-2.37-4.01-3.49.12.87-.79,1.45-.63,2.32s1.79,2.95,1.78,3.27c0,.21-.66.82-1.16.4-.35-.29-.29-1.14-.77-1.54-.33-.28-1.1-.23-1.37-.58-.24-.31.19-1.02.04-1.55-.28-1.05-1.67-2.72-1.67-2.89,0-.32,1.73-1.9,1.42-3.01-.12-.44-.75-.7-.9-1.06-.27-.65-.12-1.45-.39-1.95-.19-.35-.86.05-.92-.03-.22-.27.03-1.19-.67-1.45-.53-.2-1.46-.01-1.7.56-.58,1.36,2.34,1.07,1.53,2.11-.14.18-1.32-.06-1.7.39-.42.49-1.66,4.51-1.66,5.12,0,1.65,1.53,4.52,1.44,6.43,1.02-.18-.42-2.32,1.15-1.93-.19,1.22,1.07,2.17-.39,2.5,1.01,1.4,2.12,2.63,2.32,4.44l1.53-.77c-.08.64.16,1.47,0,2.06-.1.36-1.08.08-.77.82.24.58,1.49.25,1.15,1.35l-2.31-.77c-.38.55.79,3.45-.77,3.08-.66-1.93.69-3.76.31-5.5-.24-1.1-2.04-2.85-2.82-3.74l-2.11,5.39c-.3-3.35,2.33-5.82.88-9.16-.22-.51-.9-.44-.89-.69,0-1.03-.06-2.9.02-3.78.15-1.63,2.48-6.46-.66-6.74-.54-.05-.59.23-.85.58-1.69,2.33-2.29,8.29-3.56,11.12-.03,2.07,2.31,4.54,2.58,6.74.14,1.14-.7,2.39-.61,4.04.2,3.67,2.24,4.01,4.25,6.17,3.26,3.51,6.35,7.29,9.8,10.61,1.92,1.84,1.56,1.34,3.12,3.43s3.87,3.09,6.33,3.49c-.97-1.04-1.34-2.05-1.55-3.46l-.57,1.15-1.73-2.12c4.01-.3,2.69,4.4,6.54,4.05l-.77.96c.06.11,1.83,1.51,1.94,1.55.62.24,1.38-.34,1.52-.21.05.05.02.83.38,1.35,2.4,3.53,10.3,11.39,14.01,13.35,1.02.54,3.3,1.44,4.42,1.75,1.37.37,6.56.79,7.02,1.07.38.23.45.54.38.97h-2.31s1.54,1.93,1.54,1.93c-1.39.22-1.53-1.08-1.93-1.54s-.11.82-.93.78c-2.04-.1-.73-2.5-3.3-1.36,3.1,2.59,6.53,4.8,9.88,7.06.4.27,2.15,1.54,2.44,1.22-.34-3.28-.93-6.6-2.07-9.67-.11-.28-.63-1.43.15-.92,1.17,1.59,1.79,3.22,1.93,5.2l.38-1.54c1.59.63.14,1.74.18,2.73.13,3.21,4.34,15.71,5.69,19.32.73,1.96,2.49,4.59,2.98,6.26.16.54-.04.68-.57.57l-3.35-6.28-4.17-11.81c-.72,7.4-3.73,13.68-.31,20.92.6,1.26.56.37,1.16,2.67.73,2.76,1.91,5.59,2.58,8.21.18.69,1.2,3.89-.36,3.64.05-.41-.73-4.49-1.54-3.47-.04,1.34-.26,2.9-.67,4.17-.21.65.17,1.02-.87.84.06-1.37.66-2.69.76-4.05.03-.42.29-1.43-.38-1.34-.62,5.51-2.72,10.66-2.27,16.32.2,2.53,1.23,5.05,1.49,7.56-1.03-.59-1.43-2.36-1.73-3.46-2.35-8.71.89-17.21,1.65-25.93-.13-1.28-1.68-.67-.69-2.57-.13-.13-2.22,1.39-3.08-.2-.6-1.12,2.91-.38,2.68-1.53-.3-1.51-2.87-1.12-3.46-2.32-.82-1.69,3.09,1.49,2.69.01-.85-1.64-3.17-3.46-2.89-5.2l1.73,1.92c-.92-2.66,1.27-8.09.76-10.13-.07-.27-.61-.21-.73-.56-.24-.7-.01-1.84-.78-2.54-.47-.43-1.12-.2-1.18-.25-.08-.08.34-.98.22-1.55-.35-1.61-1.53-3.22-3.3-2.31.65-2.27-1.21-3.06-1.16-5.01-1.61.9-1.72,2.41-1.93,3.98-.06.46-1.11.29-1.15.25-.65-.58,2.22-4.42,2.26-4.88.07-.76-3.06-3.52-3.8-3.04-1.62,1.04-4.13,8.74-4.81,9.07-.83.13-.62-.22-.43-.81.37-1.15,2.39-7.17,2.64-7.59.11-.19,1.48-.72,1.45-1.6-.26-.22-3.08,1.32-3.58,1.61-5.41,3.22-9.47,7.99-12.29,13.51-.41.81-1.22,2.32-1.47,2.86-.2.43-2.12,6.64-2.67,5.89l.19-3.08c-5.52,5.53-9.61,14.13-10.87,21.87-.83,5.15-.41,9.94-.11,15.1-1.74.19-.65-1.87-1.53-2.31-2.7,6.56-3.28,13.18-3.1,20.23.04,1.63.75,3,.02,4.8,1.15-.84,1.08-2.64.77-3.85.78-.08.01.95.76.77.28-1.47.74-3.27,1.37-4.62.27-.58-.06-.95.95-.77.2,1.95-2.15,5.76-2.24,7.19-.03.51.62.88.66,1.45.12,1.62-1.3,4.44-.73,6.38h-1.15c-.22-1.18.17-2.3.27-3.39.04-.42.45-1.31-.27-1.23-1.09,3.99-3.27,7.61-4.34,11.64-1.64,6.17-1.94,12.95,2.41,18.01.15-.11,1.15-4.03,1.93-3.08.23.28-.55,1.37-.69,1.82-.33,1.07.55,1.93-1.24,1.65l.77,2.69c-1.38.18-.92-1.29-1.26-1.82-.14-.22-1.88-1.42-2.2-2.03-.2,3.08-.89,5.92.08,8.96,3.3,10.3,14.59,7.36,22.49,5.34,3.95-1.01,7.82-2.48,11.7-3.71l-3.08-1.93h1.54c-1.82-1.8-2.42-4.36-3.92-6.48-3.17-4.48-10.96-9.44-16.59-8.63-1.32.19-5.09,2.09-2.43-.12l4.06-1.13-4.62-.39c.42-1.58,2.61.45,3.08-.76-2.29-1.23-4.77-4.67-5-7.32,1.02-.19.67.22.94.77,4.97,10.14,15.81,8.23,22.33,18.13,1.68,2.54,2.36,6.39,5.99,7.13.74.15,6.19-1.74,7.63-2.04,3.99-.82,8.09-1.04,12.1-1.67l.88-1.14.38,1.15c.88-.93,1.43-2.18,1.35-3.47,1.85-.33-.16,3.35,0,3.46,2.28-.83,7.75,1.38,9.39,1.07,1.9-.37,2.42-5.28,2.17-6.84,1.87,1.36.21,5.16.37,6.75.21,2.13,1.59.27,2.01-.7,1.56-3.6.33-8.2-2.19-11.05-.94,1.29-.63,2.62.19,3.85-1.32.15-1.36-1.63-1.91-2.41-.43-.61-2.1-1.16-1.56-2.75.13-.38.87-.19,1.33-.62,1.47-1.36,1.57-2.15,4.08-2.45.28-1.91,2.21-2.75,1.9-4.86-.07-.09-1.99,1.74-1.92.2.33-.7,2.65-.93,1.92-1.73-.26-.28-4.18-1.44-4.23-2.12,1.1-1.41,2.84,1.02,4.04.95.52-.03.88-.61,1.25-.67.56-.09,1.04.29,1.62.11.85-.28,1.7-1.81,3.1-1.35v.97c1.71-2.07,3.2-4.42,3.46-7.14l-1.54.77c.14-1.23,1.02-.97,1.4-1.27.45-.34.37-1.27,1.29-1.04.25.28-.92,2.85-.19,3.46l4.04-4.04c-1.92-2.13-1.98-.93-4.07-.61s-2.9-.48-4.4-1.89c3.63,1.95,6.71-.54,10.01-1.93l-.77-1.15c.84-.42,1.82.03,2.58-.28s5.36-3.96,6.1-4.71c1.22-1.24,8.24-11.41,7.49-12.34l-2.5,1.54c-.33.05-.22-.71-.19-.76.16-.19,2.65-1.9,3.04-1.2l1.19-3.04c-2.67-.83-2.09-2.39-4.97-.54-.89.58-.57,1.81-2.85,1.3-.12-.03-1.75-1.6-1.75-1.72,0-.15,1.14-1.33.71-2.12l-3,.46c-3.38,5.58-5.62,11.81-10.09,16.67-1.89,2.06-6.49,6.15-8.97,7.2-3.43,1.45-6.15,1.06-9.62-.16-3.76-1.33-10.67-6.45-11.45-10.5-.08-.44-.06-.82.39-.39,1.31,1.23,2.32,3.58,4.05,5.19,7.63,7.1,15.26,7.12,22.72.02,1.48-1.41,8.75-9.89,7.72-11.56-.77-1.24-5.8-3.27-5.61-5.78l5.97,4.96c.53,0,1.85-2.53,1.75-3.19-.02-.13-1.46-.64-.79-2.16l1.15,1.15c1.21-3.28.68-6.37-.22-9.6-.11-.39-.68-.81-.85-1.46s-1.08-4.94-1.05-5.32c.1-1.36,1.53-2.54,1.68-3.15.04-.16-.02-3.01-.05-3.34-.14-1.49-4.01-6.15-3.74-6.4.91-.83,2.08,1.7,2.69,1.92-.46-1.94,2.75-3.4,3.04-4.51.18-.71-.67-1.65-.75-2.62-.18-2.22,1.27-3.62,2.71-5.03.47-.46,1.18-.42,1.45-.66.09-.08,1.2-1.9,1.2-2.01,0-.28-1.33-1.22-1.64-1.76-1.23-2.16-.14-3.89-.23-6.13l-1.04,1.17-6.27.37c-.42-1.72,1.44-1.49,2.69-1.54l-1.16-1.54,1.92-.58c-.42-.95-1.66-1.81-1.86-2.79-.17-.87.4-2.32.32-2.41-.62-.74-.86.77-.96.78-.64.09-1.18-.12-1.35-.78l1.15-.39c-.61.02-1.63.06-1.92-.59-.45-1,1.32-.17,1.15-.95-.79.27-1.77-.72-2.12-.77ZM182.68,220.47c-1.23-.17-2.08.91-2.5,1.92-1.35,3.21-2.71,13.76-2.03,17.05.25,1.2,1.59,2.81,2.42,3.74.47-1.93,1.18-4.58-.58-6.16-.42.86,1.17,3.01-.39,2.69-.15-1.39.22-3.07-.02-4.41-.16-.87-1.18-1.81-1.12-2.74.05-.73.83-.98,1.05-1.61s.22-1.82.41-2.67c.31-1.4,1.36-1.94.06-3.21,2.99-.08.72-3.13,2.7-4.62ZM430.72,231.63c-.14-2.86-1.47-6-2.88-8.48-.32-.55-1.98-3.6-2.89-2.69-.58.58,2.87,4.68,3.24,5.43.82,1.66.89,4.52,2.53,5.74ZM424.5,222.08c-2.44-1.4-2.09,3.4-1.13,4.7.33.44,1.1.02,1.22.45.35,1.31-.38,2.93.65,4.7.38.65,1.21.9,1.26,1.07.3,1.09-.69.85-.78,1.21-.92,3.97.56,6.67.76,10.52-.99.17-.7-.15-.88-.83-.24-.89-.21-1.8-.45-2.65-.16-.59-.89-1.01-.98-1.75-.17-1.28.89-4.77.67-6.08-.07-.43-.84-1.18-1.07-1.96s-.48-3.17-.57-3.31c-.44-.67-2.02-.63-2.53-1.29s0-1.73-.73-1.77c.04,1.21-.91,2.26-1.08,3.37-.1.64.52,4.91.69,5.11.07.08,2.52-.56,1.92.57-.42.78-1.99.79-1.96,3.1.01.94,1.82.84,1.57,2.1-5.34-1.33-1.66,4.73-1.93,5.01-1.57-.25-1.34-1.67-3.22-1.53-5.53.42-15.71,8.45-12.56,15.01l1.15-1.54.77,2.31c-1.75.56-2.15.19-3.27-1.14l-2.89,3.84c-.27-2.42,3.43-3.79,2.12-5.78-4.42,6.49-9.55,12.49-15.6,17.53,1.43.47,2.88-1.08,4.04-1.73.55.27.09.67-.19.97-1.73,1.89-4.73,2.17-6.77,3.25-5.57,2.94-15.99,9.47-17.03,16.1-.58,3.73,1.42,7.5-1.06,10.5-1.23.04.19-1.86.17-2.84-.08-3.35-4.2-6.4-7.19-7.07-2.72-.61-6.89-.88-8.95,1.05.92-.42,1.26.77,1.41.79.97.14,2.22-1.16,3.21-.59-1.86,1.65-3.56,1.05-4.77,3.7-1.21,2.64.95,3.64.46,6.22-.62,3.24-4.12,2.94-4.76,4.14s1.03,1.74.25,2.9c-.82,1.22-3.29,1.54-3.45,1.77-.35.51.69,3.17-1.71,2.59-1.8-.43-2.47-5.49.88-4.76-.03-.99-2.27-1.41-2.71-1.16-.25.14-3.06,4.11-3.39,4.68-.56.95-.4,1.98-1.2,3.03-1.42,1.86-2.62.55-3.75,1.46-1.49,1.2-3.39,6.38-4.73,8.17-1.58,2.03-3.05,1.63-.78-.39-.54-.39-2.3,1.22-2.85,1.78-2.46,2.49-1.94,3.15-2.84,6.02-.2.62-2.47,4.15-2.88,4.63-.34.39-1.13.22-1.47.74-.7,1.06-.1,2.93-.43,4.1-.06.2-2.19,3.25-2.4,3.38-2.26,1.39-1.63-.77-1.95-.8-2.49,1.58-2.37.07-4.42-.76.65,1.83-.91,2.07-1.08,2.37-.11.2.66,1.04-.27,1.47-1.69-1.17-3.59-1.28-5.59-1.36-3.72,7.44-7.45,14.93-14.25,20.06,1.83,1.15,2.73-1.25,4.23-.77-1.46,1.27-1.57,1.67-3.66,1.77-.63.03-1.41-.42-1.88-.33-.37.07-2.16,1.36-1.78,1.83.09.11,1.99-.79,2.69-.38-.6,1.32-2.59.61-3.85.77,1.11,2.02,3.32.36,5.01.39-.52,1.06-2.05,1.27-3.08,1.54-.53.68,4.17,1.17,4.81,1.18,1.54.01,6.57-.99,7.64-1.93.62-.54.51-1.89,2.09-2.63,1.13-.53,2.42-.25,3.09-.58,1.34-.65,8.42-8.63,9.91-10.31,1.58-1.78,2.82-2.74,4.22-5.03,3.39-5.57,6.43-12.41,7.55-18.84.68.08.44,2.07.38,2.5-.15,1.1-.62,1.85-.77,2.89.09.11,1.59-1.37,2.14-1.52.7-.2.76.5.55.74-.3.35-2.7,1.27-3.08,2.13.07.66,2.52-1.49,1.92,0-.46,1.14-3.03,1.08-2.69,2.89l1.92-.58-2.31,2.12c1.99-.79,4.28-2.47,5.96-3.86,3.02-2.5,8.66-8.81,9.83-12.51.06-.2.11-.63-.18-.57-1.72.92-3.61,2.82-5.59,2.89,2.07-2.43,6.05-3.93,8.1-6.15,1.01-1.09,3.05-5.69,3.65-5.98.65-.32.64.24.41.8-.36.89-1.52,2.04-1.19,3.05,1.65-1.23,4.68-4.07,6.56-4.61.5-.14.77.09.57.57-.48,1.14-4.23,2.84-5,4.24l1.15.96c-1.05-.2-2.17-.47-2.69.77l8.09-1.53c-1.9,1.61-5.27,1.81-7.7,2.31-.05.75,1.2.33,1.62.27,8.97-1.15,17.83-5.8,26.1-9.14-.59-1.18-4.13.64-3.85-1.15,1.66-.31,4.05-.11,5.58-.39.85-.16,1.62-1.27,3.09-1.54,1.2-.22-.45,1,.73.74,3.54-.78,7.36-2.95,8.32-6.71-.45-.26-1.91,1.56-1.93,0,.77-1.86,2.96-.83,3.08-.96.05-.06-.02-.99.22-1.51.55-1.22,1.68-2.2,2.1-3.5l.57.77c.6-.3.86-2.27,2.12-1.35l-3.46,3.47c-.06.29.4.26.57.19.25-.11,3.69-3.24,4.07-3.64,8.98-9.51,13.77-23.17,20.24-34.06.57-.95,1.67-1.88,2.16-2.85.67-1.34.64-3.86.76-4.04s2.73-1.88,3.02-1.62c-.49.84-1.3,1.74-2.31,1.93-.11.6.56.46.89.32.63-.28,2.8-2.6,2.96-3.22l-.78-.37,4.24-5.59-.38,2.12c1.82-2.32,3.29-4.95,5-7.33.37-.52,1.26-.61,1.65-1.43,1.03-2.18,1.66-5.33,2.32-7.69.32-1.15,1.2-1.3,1.07-3.19-.04-.52-2.28-6.61-2.64-7.4-.24-.51-2.6-4.53-2.84-4.67ZM212.72,254.35c.52-.57-4.35-8.11-5.27-8.4-.52-.16-1.12-.06-1.66-.07,2.67,2.75,2.93,7.37,6.93,8.47ZM312.66,259.57c-.63-.48-.52-.91-1.7-1.2-2.52-.61-6.13-.34-7.73,1.95-.49.71-1.25,2.11,0,2.51-.56-2.13,1.81-3.74,3.69-3.83,1.06-.05,3.36.8,1.51,1.12-2.19.38-4.34.09-4.04,3.09,1.15.22.62-.84,1.32-1.56,1.32-1.35,2.66-.23,2.14.4-.11.13-.93-.3-.77.38,6.64.65.88,1.97.03,3.33-.58.94.3,2.1-.61,2.44-1.47.55-.82-1.35-.38-2.31.5-1.1,1.17-1.06,1.73-1.92-1.11-.03-1.85,1.08-2.92,1.15-1.55.1-3.33-2.18-5.31-.4-.35.31-.15.87-.34,1.06-.21.21-.74.15-1.02.36-.1.08-1.44,2.01-1.58.65-.27-2.51-1.25-.6-1.54-2.43l2.69-.38c-3.6-2.39-9.46,1.59-7.7,5.77l.97-3.45c.7-.89,1.66-1.67,2.87-1.55.06,1.25-1.69,1.37-2.11,2.31-.38.85-.17,1.81-.19,2.69.7.05.27-.94.58-1.53.49-.9,2.21-1.74,1.72-.59-.54,1.25-1.74,2.07.39,3.28l.77-1.92v2.31c.73-.12.48-1.43.85-2.04.33-.56,1.1-1.01,1.47-.65.61.6-.69,1.3-.83,1.7-.75,2.16,1.2,3.17,3.15,3.11-.99,1.06-2.21.84-3.47.58l.39-1.15c-1.09.25-1.87-.88-2.6-1.07-1.67-.45-6.42,1.36-7.37,2.85-.85,1.32,0,3.63.73,2.84.09-.1-.86-1.48-.19-2.69.21-.38,2.12-1.48,2.5-1.16.78.66-2.08,1.32-1.53,2.31l1.92-.77-1.15,1.53c.48.19,1.76-.57,1.92-.38.96,1.11-1.51,1.32-2.1,1.94-.33.35-1.14,2.06-1.28,2.57-.1.36-.38,1.36.3,1.26-.28-.86,1.07-3.1,1.93-2.31.18.16-1.54,3.47-.76,4.62.73-.2.18-1.28.74-2.14.61-.95,1.86-.85,1.95-.94.77-.71-1.77-1.12-1.15-1.92.11-.15,1.22-.19,1.53,0-.2-1.52-.72-2.6-.09-4.14.52-1.27,2.87-2.91,3.94-1.45-1.28,1.29-2.77.51-3.09,2.68-.06.38-.19,1.09.4.97l1.16-1.54c.14,1.35-1.64,2.65-.19,3.85.12-.64,1.02-3.16,2.11-2.31.6.47-1.03,1.14-1.26,1.62-.27.59-.33,1.2-.28,1.84,1.29.28.52-.93.95-1.54.28-.4,1.15-.57,1.35-.38.27.25-.82,1.47.19,1.91l2.12-1.14c.28.83-1.06,1.29-1.06,1.72,0,.21,1.18,1.61.68,2.51,1.7-1.59,2.66-3.67,5.39-2.69l-.77.76c1.25-.11,5,.76,4.04,2.32-4.67-2.68-6.09-.46-6.35,4.23l1.92-1.54c.04.59-.07,1.21-.42,1.7-.39.54-1.15.4-1.12.99,2.6-.66,1.09-.15,1.26.99.06.39.93.43,1.18,1.02.72,1.68-.75,2.61,2.18,2.22-.11-1.76-1.22-3.04-.77-5.01,1.56.73.12,4.01,2.31,3.46-.16-1.1-.82-1.63-.81-2.89s.64-1.47.81-2.5c-2.84.59,1.3-3.51,2.12-3.85l-1.35,3.08,1.92-.38c-.74,2.27-1.75,4.86.97,6.15l-1.25-3.21c.16-1.32,1.1-2.1,2.01-2.95.45.78-.69,1.34-.89,2.2-.72,3.15,1.62,1.49,1.47,3.58.75.13.17-.9.4-1.13.17-.18,1.13.04,1.52-.03-2.19-2.28-.85-3.58,1.92-3.85.41,1.01-.76.68-.79.97-.16,1.42,2.18,2.6,3.26,2.51.14-.01,1.16-1.6,1.97-1.93,1.24-.5-.45,1.54.76,1.14s1.29-1.86,2.51-1.92c.46.5-1.9,3.39-2.43,3.72-1.64,1.01-4.82.46-3.06,4.27.61,1.31,2.13.68,2.02,2.02-2.73.58-4.2-1.78-4.24-4.23-1.26,1.57-4.02,3.8-6.08,3.22-.71-.2-1.79-1.19-2.19-1.17-.44.02-1.35,1.17-2.03,1.34-.97.24-1.95-.27-2.43-.1-.72.26-3.95,4.68-4.37,5.61-.66,1.44-1.21,5.09-1.87,5.65-.31.26-.98.02-1.06.09-.46.39,1.98,2.92,1.94,4.01,0,.15-1.98,1.33-1.49,2.47.03.08,1.22,1.2,1.3,1.22.39.1,1.61-1.22,2.1-.77.82.76-2.23,1.84-2.45,2.41-.32.86.39,2.29-.24,3.36l1.92-.77-.76,1.35c1.11.59,1.9-1.28,2.89-1.73l.19,1.15c1.44.68,2.06-.76,2.18-.78.71-.12,1.64.42,2.58.38,2.2-.09,6.05-3.13,7.18.02-2.03-.31-2.55.56-3.08,2.31,3.77-.38,2.44,5.37,5.21,5.24,1.78-.08,1.86-2.9,2.42-3.96.76-1.44,4.15-8.23,4.69-8.79.94-.99,2.27-.84,2.99-1.45.61-.52,1.53-3.01,2.23-3.35.59-.29.7.16.38.77-.26.49-2.1,2.34-1.73,2.69.92-.94,4.79.74,5.01.61,1.03-.67.27-2.02.55-2.56.2-.39,1.32.12,1.37-.74-.98-.22-3.11-.07-3.08-1.54.81-.38,3.33,1.28,3.46,1.15.93-.88-2.48-1.19-1.92-2.31.54-.14,2.05.61,2.31.38.85-.73-1.08-.62-.77-1.34s3.37-1.69,1.26-2.81c-1.75-.92-3.89.74-5.53-.63-1.26-1.06-.59-2.99-.74-4.46-1.02,1.64-1.79,1.14-3.16,1.65s-1.87,1.55-3.88.96c-.77-.22-3.33-2.7-1.63-2.22.94.27,1.61,1.37,3.07,1.16,2.59-.38.35-1.58-.25-2.43-.67-.94-2.02-4.56.07-3.06.25,1.24.42-.16.47-.19,1.54-1.16,1.12,1.54,1.31,1.84.21.33,1.46.96,1.7.76.66-.56-.74-.86-.89-1.23s-.42-1.64-.26-1.85c.7-.89.69,1.04,1.15.77-.46-1.98.25-4.95,2.7-5l-.19,1.54c1.7-1.86,3.15-2.14,2.6-4.9-.21-1.05,1-.66.94.79-.1,2.33-2.44,3.33-2.6,5.07-.13,1.33.46,3.22,1.96,3.28l.19-1.53c2.41,1.74.5,3.68-.18,5.77,1.89-.78,1.95-1.77,2.59-3.39.23-.58-.23-1.04.87-.85-.15,1.79.86,2.88-.39,4.42.72.77,1.78-1.46,1.83-1.98.09-.96-.95-2.2-1.06-3.4-.08-.79-.17-1.13.78-.97,1.81,4.46,1.71,5.77-1.92,8.86l3.3-1.9c.81-.43.44-2.92,1.46-2.67,3.01.75.32,4.65.64,4.95.08.08,2.1-.26,1.04,1.08-.1.13-.6.02-.65.09-.24.29,0,1.07.57.76.44-.24.83-1.53,1.74-1.73-2.55-2.46-.85-1.68-.45-3.56.67-3.17-2.42-2.54-3.79-4.54l1.54.19c-.22-1.15.31-2.21.39-3.27.04-.59-.47-1.26-.33-1.85.2-.84,2.73-2.06,1.69-3.73-.32-.51-1.59-.51-1.35-1.54l1.92.77c.8-.73-4.3-1.99-.38-3.08-.96,1.71.71.94,1.09,2.19l.45,6.67,1.36-3.07.19,2.31c1.53-.78.99-2.12.77-3.47l2.3,3.08c.31-3.42-.27-3.12-2.58-4.37-.19-.11.08-.97-.89-.63l-.38,1.15c.53-1.13-2.69-4.85.15-3.81.66.24.38,1.39,1.19,1.1.97-.35,1.15-1.88.89-2.8-.18-.62-2.25-2.26-1.84-2.59,1.44-1.18,3.68,3.34,3.08,4.62,1.29-.61.48-2.72-.06-3.6-1.65-2.68-5.37-2.23-8.03-2.95,2.12-1.04,2.82-5.84,1.15-7.12-1.12-.86-2.84-.02-2.69-1.35,1.58-.32,2.39.55,3.65,1.16-.8-2.48-4.25-1.14-5.95-2.14s-2.07-4.64-5.78-1.3c-.1.14,1.77,2.43,1.14,3.05-1.29,1.28-1.38-3.18-2.69-2.12,1.04.48.89,2,0,1.34-.03-.02.07-.53-.28-.76-.82-.55-3.74-2.03-4.62-2.27-.65-.18-1.16,1.92-2.04,1.11-.55-.5,2.2-2.49,1.92-2.69h-2.7c.25-.91,1.62-.96,2.43-.7,1.02.32.94,1.97,2.19,1.85-1.31-1.19.11-1.38.03-2.48-.04-.55-1.14-1.4-.79-1.75,1.36-1.38,1.47,3.95,2.31,3.85,1.84-5.71-9.59-9.62-10.39-3.85.87-.62,1.02-1.74,2.29-2.13.64-.2,3.09-.43,3.09.4,0,.98-3.85-.24-4.23,2.74-.13,1.04.69,1.81-.2,2.46-1.38-2.18-2.98-3.23-5.02-4.79ZM205.78,269.37c-.18.13-2.34-2-3.07-1.34,3.52,4.03,7.29,8.51,12.32,10.59-.45-.86-4.55-2.9-3.85-3.85l1.53.58c-.56-.84-1.6-1.77-2.03-2.63-.27-.54.14-1.22-.26-1.6-.15-.15-3.27-2.27-3.47-2.34-1.61-.57-1.04.49-1.19.59ZM296.26,293.58c.14-.25-.3-.85-.22-1.22.41-2,1.34-4.39-.48-6.25-2.43-2.48-6.47,1.88-7.5,4.1-.81,1.74-2.03,9.57-1.03,10.97,2.05,2.86,5.12-2.31,5.41-2.14.26.41,1.36,2.83,1.93,2.31,1.33-1.23-.77-1.83-.78-2.48,0-.5.56-1.05.65-1.62.07-.46-.19-.95,0-1.59.47-1.67,1.86-1.78,2.03-2.07ZM366.4,285.56l-9.63,4.62c2.34-.23,4.31,1.64,6.69,1.11l2.94-5.72ZM241.61,302.89c-.4-.92.84-5.1.61-5.41-.42-.55-1.54-.21-2.14-.57-.55-.32-1.55-2.46-3.08-2.5-.31.38,3.41,7.98,4.61,8.47ZM290.53,320.22c-.04-1.46-2.33-2.46-1.29-4.92.85-1.99,5.92-1.42,5.92-3.75,0-.46-1.15-1.71-1.36-1.72-.87-.08-.07,1.79-.19,1.92-.46.48-1.67-1.16-1.54-1.72s2.75-.55,1.16-1.56c-.23-.15-2.77.49-3.47.2l.96-3.08c-.22,1.62,1.65,2.67,1.73,1.16,0-.06-1.96-.43-.18-1.16.94-.38.43,1,.58,1.15l1.15-.97c-1.82-.39.13-1.94,0-2.11-.1-.13-2.38-.83-2.5-1.92l-1.73,1.54,1.54.95c-1.64.24-1.8,3.12-1.95,3.25-.37.32-2.05-.33-2.77-.28-2.35.17-2.94,1.94-3.36,3.96-.08,1.12.47.33.71-.06.91-1.44,1.19-3.58,3.52-3.22.2,1.16-1.01.79-1.71,1.56-.98,1.08.09,2.33.38,2.31.79-.05,1.78-1.88,2.11.36l-1.54.77,2.11-.39c.34,0,.26.79.19.96-.38.92-6.2,2.14-4.99,5.21.82.02-.19-1.72,1.34-1.16.61.22,1.09,2.94,3.08-.37,1.35,2.1,1.32,2.58-1.59,3.07-1.17.2-2.54-.74-3.61.98l1.16.19c-.63,1.19-.95,2.17-.39,3.46.76-.41.14-1.51.74-2.52.37-.62,1.2-1.07,1.95-.94-2.08,2.2-1.86,4.66,1.54,4.24-.2-2.1.26-4.39,2.31-5.39.02.96-1.28,2.27-1.51,3.69-.1.67-.43,2.01.73,1.7-1.37-3.79,2.18-3.06,2.67-3.51.18-.16-.07-.99.03-1.11s2.42.52,3.08,0c.05-.04-.34-.6-.21-1.15.2-.87,1.83-3.42,1.68-3.8-.03-.07-1.12-.86-1.26-.86-.73,0-1.7.42-2.48.58-.36.08-1.02-.25-1.15-.15-.41.31-.68,2.24.34,2.29l.77-1.15c-.27.73-.46,2.22-.77,2.79-.41.77-1.46.44-1.93.67ZM322.88,320.22c-.11-.1.21-.8-.19-.77-.62.81-3.71,6-3.27,6.55,2.87-1.6,6.24-2.95,6.93-6.55-1.07.59-1.77.08-2.53.04-.15,0-.21,1.39-.93.73ZM303.24,322.15c-1.17-.62-9.25,2.42-8.85,5l1.73-1.92c1.63.01-1.4,2.25.38,1.93,1.26-.23,3.28-3.66,3.84-1.54,1.85-1.75,2.14-.03,2.29-.04.37-.02.91-.51,1.53-.38.32.07.21.77.24.79.12.1,1.36-1.23,1.92-.76.87.72-.99.66-.77,1.15,1.18.05,2.85-1.21,3.27.39,1.06-1.64,2,.61,1.93,1.92,1.21-1.32.62-2.67-.56-3.68-1.45-1.24-2.93-1-4.13-1.84-.32-.23-.38-.84-.71-1.02-.1-.06-.56,1.34-1.92,1.15-.74-.3-.15-1.12-.2-1.15ZM293.26,323.23c-.15-.14.13-.81-.23-.7-.48.15-1.53,1.36-2.51,1.16,2.58,3.54-3.3,2.72-5.12,3.16-1.47.35-3.19,2.57-2.97,4.15l.96-1.54.58,1.54c.65.1.39-1,.98-1.13,1.11-.23,1.7,1.45,1.71-2.34,1.94-.44,1.06,1.41.76,2.78l-2.68,1.45c3.83.92,3.51-4.35,5.76-5.18.66-.24,1.66.52,2.16.45.65-.1.72-1.37.97-1.91.14-.29.61-.23.66-.48.06-.28-.48-1.12.08-1.73-.18-.17-.95.47-1.11.32ZM291.62,328.62c-.16.11-.29.16-.48.04l-.81-.73c-.53,0-1.12,2.54-.96,3.07,2.61-1.17.16,1.73.01,2.52-.19,1,.08,2.22-.01,3.26,1.65-1.18,1.41.68,2.11.38,1.96-2.68,4.07-7.23,7.51-8.08l-2.31,2.5c2.36.77-.53,1.98.97,3.27l2.1-.58c-2,1.28-1.05,2.4-1.14,4.43l1.73-1.92.96,1.15c.53-1.47-.96-2.64-.49-3.73.65-1.49,2.6-1.43,3.96-2.05-.02-.64-.82-.21-.96-1.15-.2-1.36,1.53-.22,1.74-.39-.69-.67-1.7-2.64-2.51-2.72-1.12-.11-1.52,1.06-1.91,1.09-.3.02-.82-.55-1.25-.62-.6-.1-3.68.82-4.44,1.12-.32.12-.47,1.54-1.65.37l.21-1.54c-1.17.75-.44,2.65-2.3.96l.56-1.34c-.73-.25-.51.61-.63.69ZM261.25,411.89c.89.04,1.8-.02,2.7,0-2.29-1.79-6.99-3.21-9.91-3.76-19.15-3.54-34.37,8.14-51.53,9.53-9.81.8-16.06-3.83-16.17-13.86-2.13,3,.21,9.35,2.18,12.06,5,6.87,16.69,4.23,23.81,2.96-.12.71-.79.65-1.3.82-5.29,1.8-10.95,2.03-16.42,1.11l3.07,1.74c1.47.55,4,0,5.01,1.34-2.69.08-5.77-.46-8.19-1.63-.6-.29-4.08-3.05-4.52-2.6,1.22,4.26,5.79,10.83,9.92,12.61,1.41.61,3.1.5,4.33,1.45-2.06.92-3.67-.4-5.37-.8-2.22-.52-3.18-.19-5.39-1.54-4.78-2.93-3.52-5.62-4.76-10.26-.59-2.19-1.96-4.62-2.59-6.85-1.1.34.52,3.09-1.15,2.69v-3.27s-.77-3.66-.77-3.66c-1.41,5.69-1.63,10.1.27,15.71,1.61,4.76,4.27,7.87,7.43,11.44,1.77,2,5.23,3.66,7.9,3.66h6.55c.55,0,1.97-1.24,1.74.38-.72-.32-1.77.39-2.12.39h-5.58l2.93.72c3.35.37,6.08.28,9.39-.34-.09.5-.7.84-1.14.98-2.28.69-8.85.19-11.35-.24-1.19-.21-2.03-.94-2.74-1.13-.24-.06.02,1.04-.76.77l-5.2-3.85c-.19,2.47,1.53,4.59,3.08,6.39.44.51,1,.24,1.16.38.43.4.81,1.6,1.71,2.48,1.91,1.88,4.81,3.02,7.32,3.85-.18-1.12-.13-.92.93-.44.33.15,4.52.11,5.51-.03,1.4-.21,4.5-1.89,5.11-1.86.31.01.06.92.39.79,7.41-5.81,14.22-12.45,19.84-20.02l-10.9,8.58c-2.85-.12-4.2,2.41-6.99,3.37-.42.14-2.1.84-2.13-.01,5.53-1.99,9.7-6.41,14.43-9.68,1.65-1.14,2.77-1.3,4.83-3.22,4.67-4.35,9.86-8.3,14.92-12.15.88-.67,2.2-.73,2.79-1.53-5.73.29-11.95,2.15-17.09,4.66-11.51,5.63-25.36,20.31-38.95,18.83-.63-.07-6.35-1.6-5.19-2.7,8.04,3.51,16.96-.55,24-4.7,16.58-9.78,21.54-15.79,42.1-19.14.94-.15,2.28.33,2.84-.43-1.8-.08-3.34-.45-5.22-.4-2.1.05-4.57.79-6.72.78.15-.71.76-.7,1.33-.78s2.07.39,2.13-.37l-7.7-.77c5.48-.33,11.09.34,16.56.77.06.06-.27.62-.38.77ZM202.13,459.26c1.89.29,4.38-.21,6.36,0v.77h-5.78l5.59,1.15,5.58-.38c-.93,1.56-3.41,1.18-5.01,1.54-.2.67.92.18.77.57-.6,1.48-2.29-.56-2.99-.86-1.51-.65-3.38-.23-4.07-.51-1.8-.73-3.63-3.11-5.26-4.21-.79.86,5.85,7.03,6.75,7.69,4.07,3,9.53,4.82,14.43,2.89,10.84-4.26,19.3-20.66,25.96-29.89,3.06-4.24,9.57-11.71,14.08-14.42.51-.31.79-.75,1.56-.56-10.28,8.16-17.7,19.11-23.95,30.55l-6.29,12.2c1.98-2.05,3.02-4.71,4.43-7.13.85-.41.21.57.08.85-.54,1.16-1.68,2.65-1.43,3.96,2.22-2.38,3.61-4.48,4.81-7.51l-.58,2.89c1.17-1.23,2.74-2.64,3.66-4.04,3.01-4.58,5.4-11.05,8.31-15.95,5.82-9.8,15.53-19.53,27.12-21.8l6.55-.95c-6.72-3.08-13.11-3.48-20.22-1.55-19.45,5.27-28.65,24.11-43.53,35.82-5.26,4.14-12.93,8.58-19.83,7.33.27.63,2.39,1.46,2.89,1.54ZM186.92,531.29c-1.68,4.1-6,6.76-8.16,10.91-1.14,2.19-2.55,5.98-2.44,8.35.12-.27,2.44-2.28,2.5-.96l-3.46,3.09.76.18c.3,1.81-1.56,1.84-2.51,2.69-3.28,2.95-.86,6.35,3,5.69.86-.15,2.35-.82,1.82-1.84l-5.78-.39c-.5-2.46,2.78-3.54,4.46-2.34.86.61.51,2.21,1.7,1.96-.18-1.21.93-1.93,1.14-2.9.12-.55-.09-1.97.02-2.1.63-.77.84.8.95.77,1.06-.28,1.99-2.61,2.9-1.93.46.34-7.5,8.25-1.71,9.22,1.71.29,5.53.25,3.83-2.29l-.38,1.15c-.85-.98-5.13-.29-4.82-1.72,1.62-2.3,4.01-1.53,5.77.18l.19-4.63c.77-.99.93,1.23,1.35.77.29-.32.34-1.79,1.54-1.54-.52,2.38-3.01,5.58-1.18,7.81,1.28,1.56,6.7,1.34,6.56-1.09-.12-2-.91-.19-1-.16-1.02.26-3.42-.55-4.76-.01-.11-3.03,2.51-3.29,4.73-1.93.36.22.07.91.65.77-.64-2.13.17-4.67-1.54-6.35,1.58-.81,2.35,1.97,2.31,3.27.81-.14.19-1.82,1.53-1.54.02,2.56-2.05,7.81,1.76,8.45,2.12.35,5.57.19,5.17-2.67-1.28.41-4.28.7-5.52.4-.67-.16-.56-1.45.03-1.96,1.49-1.3,3.84-1.03,5.11.4.41-.51-2.14-5.4-2.69-6.28-.2-.33-.74-.24-.77-.27-.22-.29-.07-1.02.57-.76.58.24,2.5,2.68,2.9,3.46.75.04.16-1.85.96-1.91.87-.07.14,1.48.19,1.53.1.09,1.36-.65,1.54.21.2.95-1.41,3.58-.71,5.7.17.5,3.32,2.44,4.01,2.54,2.45.35,7.08-.11,7.48-3.28s-2.67-3.18-5.2-2.86c-1.37.17-3.48,2.1-3.99.12-.22-.84,1.29-2.24,1.98-2.52,1.33-.54,2.43-.27,3.76-.1-.77-2.74-3.24-3.39-5.78-2.89-.31-1.37.99-.42,1.54-.96-1.15-1.79-1.9-3.91-3.46-5.4l.77-.37c-.46-1.07-1.4-2.34-1.54-3.49-.17-1.36,1.48-.13,1.16.97l.57-.77c1.99,1.06-.3,3.22,1.35,4.23.42-4.51,2.4-7.16,1.82-12.02-.13-1.13-1.42-4.49-1.4-4.74.01-.14.58-.67.73-.57.49.34,1.04,2.98,1.17,3.08,1.66,1.4,2.98-4.88,3.38-5.66,1.54-3.01,7.23-7.22,10.13-9.51,16.89-13.33,35.92-24.38,50.61-40.28.77-.83,3.51-5,4.42-4.62l.41.58c-.53-2.13,1.73-2.68,2.08-3.65.17-.48-.35-1.13-.14-1.5.18-.32,2.95-1.04,3.42-2.18.11-.26-1.52-.38-1.15-1.34l3.08.38c.16-.62-.53-.27-.66-.45-1.1-1.52.55-.76.8-.81.71-.14,1.07-.79,1.79-.65l-.77,1.15c1.77-.19,2.57-2.19,3.85-3.27-.54-.4-2.41.71-1.54-.77,2.13-.36,3.64-1.98,5.43-3.06.36-.22.88.19,1.31-.2.16-.14,1.92-2.9,1.98-3.09.22-.82-.4-2.11-.22-2.3.04-.04.74-.04,1.1-.24,3.96-2.21,5.12-4.79,4.68-9.4,1.16-.19.62.29.78.93.2.82.35,1.69.38,2.53,4.9-6,2.06-14.44-3.34-19.2-.83-.73-4.43-3.14-5.33-3.14h-5.97c-.37-1.72,2.66-.02,3.08-1.15-5.73-1.98-11.66-2.97-17.71-1.93.06.76,1.55.29,2.13.37s1.19.07,1.33.78c-2.89.3-5.37-.94-8.09.39.42,1.6,3.36-.14,3.08,1.53-1.52.53-3.26-.71-4.43-.72-1.37,0-4.65,2.06-5.94,2.87-8.68,5.47-14.23,15.19-18.13,24.42,1.47-.84,1.74-4.38,3.46-4.05-.42,1.34-2.4,2.88-2.12,4.43.65-.64,3.56-5.71,4.43-5l-.19,1.15c.76-.77,3.15-3.53,3.86-3.85.2-.09.65-.07.57.19-.58,1.58-3.47,2.87-3.09,4.58.06.28,1.47.13.4,1.77,3.93-.18,1.35-1.71,3.28-3.46v2.31c2.69-1.05,6.8-1.14,9.29-2.28,2.69-1.23,4.71-4.64,8.85-5.4.37-.07,1.78-.34,1.7.35-2.86.62-5.97,2.38-7.7,4.82.96-.17,2.14-1.45,1.74.2,1.26-.26,2.54-.57,3.86-.39.69.09.63-.14.57.77-1.87-.17-3.44.72-5.31,1.05-15.26,2.72-28.63,7.32-37.14,21.41-1.91,3.16-3.74,6.49-3.01,10.28-2.21-.61-1.16-.22-2.13,1.14-4.28,5.96-9,12.28-13.5,18.08-3.64,4.69-7.56,9.15-11.32,13.72-.08.26.37.28.57.19,1.45-.67,4-3.9,5.4-5,.29-.06.26.4.19.57-.58,1.29-7.35,7.09-8.89,8.06-1.65,1.04-5.05,2.21-6.14,3.49-1.54,1.8-1.09,4.77-1.71,6.77-.45,1.45-2.56,2.63-2.33,3.83.83-.8,1.94-2.33,3.27-1.73-2.06,1.67-4.2,3.92-5.11,6.48-.25.71.08,1.19-.01,1.55-.22.87-1.67,1.83-1.4.09.18-1.13.75-2.23,1.13-3.3-.25.02-.57-.06-.77,0,.89-2.18,3.75-6.17,4.09-7.31.37-1.24-.61-3.2.54-4.63-5.55,1.83-6.94,7.86-6.55,13.09.93.16,1.2-.96,1.92-1.15ZM201.55,451.94c-2.27-1.88-5.26-3.44-7.33-5.57-4.8-4.93-6.53-11.29-9.95-17.01l-1.97-5.54c-.04,8.05,1.48,17.54,5.71,24.52,6.49,10.71,18.54,9.34,27.41,2.44-1.58.5-2.82,1.23-4.55,1.45-3.43.44-9.84,1.19-13.17.28-.37-.1-3.86-1.39-3.07-2.12.26-.24,5.62,2.12,6.93,1.53ZM287.06,465.04c2.35.32,4.57-.98,6.55-2.11,5.91-3.35,10.32-8.32,11.16-15.22-1.01.73-1.89,1.98-2.88,2.7-.59.43-1.89.62-2.05.84-.2.28-1.02,3.17-1.69,4.28-2.2,3.65-3.38,3.14-6.06,5.11-.7.51-1.53,2.08-2.54,2.86-.83.64-1.99.78-2.5,1.54ZM343.67,520.89c.73-.97-6.16-17.87-7.25-20.29-7.77-17.38-18.82-33.13-31.65-47.11-.69.65-.31,2.58-.39,2.7-.03.04-.55-.39-.94-.02-.53.5-1.53,2.39-2.13,3.19-.4.52-1.42.54-1.09,1.54,1.62,5.48,3.42,10.91,5.32,16.29,4.36,12.38,9.68,24.48,13.98,36.86,1.46,4.21,6.01,13.93-2.67,9.22-1.76-.96-7.1-5.89-7.79-6.04-1.38-.31-2.81,1.79-4.25,1.33l-11.59-37.72c-1-.11-.61,0-.78.56-.89,3.05-.87,6.3-1.15,9.45-1.43-.94-.54-4.23-.27-5.86.49-2.95,1.91-5.42,1.04-8.39-1.61,1.86-1.66,5.03-2.42,7.4-.13.4-.1,1.16-.65,1.07.08-2.11.48-4.74,1.17-6.72.31-.89,1.35-1.93,1.43-2.39.17-1.04-1.99-5.11-1.84-6.67l-2.3,2.51c-.79,1.52-3.93,4.51-3.79,6.05.13,1.46,1.78,2.89,1.47,4.52-1.09.22-.62-.31-.89-.83-.22-.41-1.36-3.32-1.8-3.02-1.23,2-2.66,4.28-4.08,6.13-2.3,2.99-4.25,2.41-.74,6.57.44.01.88-3.25,1.73-2.3.45.5-2.4,3.28-.39,3.85l1.16-1.54c-.43,1.49-1.48,2.75.38,3.85.02-1.02-.4-2.74,1.16-2.69-1.33,4.04.19,4.03,1.91,6.45,1.27,1.78,2.1,3.71,4.06,5.1l.19-.77c1.56.37,1.15,1.98,1.5,2.52.58.9,2.99,2.12,3.89,3.45.64.95,1.19,2.5,1.15,3.66-1.19-.71-1.1-2.18-1.92-3.28-1.66-2.24-6.41-5.76-8.68-8.27-2.25-2.5-4.25-5.48-6.25-8-1.19-1.5-3.21-4.9-5.49-2.79-.48.44,1.1.13.76.95-.18.44-2.98,2.52-3.5,2.7-.66.24-1.17-.11-1.78.1-.82.28-4.67,2.96-4.34,3.74,1.11,1.07,2.12,2.26,3.28,3.28.96.84,5.3,4.28,6.16,4.63.18.07.63.1.57-.19l-.77-.96c.88-.27,3.8,1.77,4.07,2.31.21.44-.23,1.04-.19,1.11.28.41,6.51,2.91,7.1,4.27.32.15-.05-1.12.76-.77,1.07.47-.49,1.45,1.17,1.93.17.05.03-1.03.76-.77,1.11.94,1.63,1.41,1.72,2.88l7.7,3.7c.04,2.84-1.19.34-1.61.07-.28-.18-2.44-.75-2.98-.68,4.6,5.67,8.33,10.97,14.28,15.38,1.49,1.1,4.99,3.74,6.55,4.27.81.28,2.1-.22,3.05.19l-.39,1.15,4.24.78c.37,1.16-1.4.85-2.12.77-1.44-.16-2.34-.87-3.66-1.15.21.68,3.18,1.99,1.36,2.3l-12.91-9.24c-.55,1.78,1.82,3.4,1.85,4.5.02.51-.53.81-.6,1.16-.2,1.02.79,1.15,1.04,1.56,1.25,2.06,4.39,5.7,6.35,7.04.32.22,3.17.78,2.13,1.91-1.12,1.21-9.92-7.79-10.78-9.05-2.59-3.77-3.34-8.54-5.46-12.26-1.02-1.8-4.07-5.57-5.51-7.2-3.62-4.07-13.21-11.9-18.53-11.81-3.71.06-3.35.79-5.1,3.22-2.21,3.09-.41-2.31.42-3.23.42-.47,1.47-.17,1.44-.87-5.75-1.52-11.35-3.49-16.9-5.6-.53.29-3.01.86-3.12.98-.28.31,1.25,1.89.77,2.69l-1.54-.19c2.66,1.37,5.25,3.01,7.32,5.2-2.34-.19-4.11-2.43-6.29-3.53-1.02-.52-2.06-.07-2.38-1.08-.3.12-1.56,2.14-1.66,2.59-.28,1.25.34,2.33.22,2.96-.15.8-2.28,1.61-1.78,3.43.13.46,1.55,1.43,1.1,1.82-1.05.9-2.87-2.25-2.02-4.14.18-.41,2.35-2.46.66-2.79-.13-.03-2.3,1.15-2.4,1.25-.8.84-.41,3.12-1.63,3.76-.08-2.32.23-3.47,1.54-5.39l.57.77c1.66-1.16,1.72-2.26,2.05-4.12.09-.51.1-.69-.5-.5-3.84,1.23-9.22,5.03-12.49,7.54-.85.65-4.32,3.25-4.69,3.8-.63.93.45,4.17.04,5.6l2.31-5c.62-.04.87-.19.76.57-.04.32-2.09,5.21-2.3,5.41-.98.89-.55-.75-1.16-.58.39,4.74-4.55,8.97-4.22,13.62.41,5.84,5.57,8.05,10.76,6.79l-1.54-1.15c1.36.02,2.03.41,2.11-1.16l1.54,1.54.19-1.16c1.91-.51,1.07,1.43,1.63,2.22.24.34,3.11,1.35,3.74,1.45,1.07.18,3.65-.04,4.64-.37,1.45-.48,2.7-2.61,1.54-3.69-.54-.5-1.02.91-1.69,1.2-1.07.47-3.39.11-3.67-1.08-.23-.98.98-1.07.38-1.86-1.4-1.85-3.7-1.32-4.57-1.81-.58-.33-.94-2.49-3.16-1.46l.77-1.15-3.85.76c.84-1.93,3.06-1.2,4.37-1.53.26-.07.49-1.99,1.21,0,3.45-2.65,4.74-6.55,7.13-10.01-1.8.17-1.69,2.72-3.85,2.31l1.54-2.31c-.1-.1-3.51.99-2.31-.38.07-.08,1.21-.2,1.62-.42.3-.16.23-.57.88-.77,1.05-.33,2.22.03,3.28-.35.13-.16-1.82-2.81-1.93-3.65-.13-.94,1.09-.65,1.16-.58.08.08.12,1.87.39,2.31,2.72-2.36,5.89,1.47.77,0,1.18,2.15,3.94,2.38,6.16,2.3l-3.08-1.54,1.16-.62,13.38,4.75c1.01,1.49,2.74,1.44,4.14,2.42,1.18.05.26-.41-.07-.7-.62-.53-3.01-2.13-3.2-2.58s.12-.77.57-.57c1.14.5,4.84,3.94,6.17,5.01.49.39.73,1.08,1.45,1.64,1.24.95,2.88,1.23,3.96,2.59l.18-.76c1.29-.69,3.28,2.76,4.05,3.46.28.26,2.91,2.23,3.09,2.31s.63.1.57-.19c-.39-.85-2.43-1.81-2.69-2.32-.95-1.85,2.18,1.01,2.34,1.13,5.28,3.9,10.58,6.89,16.51,9.68.89.71.08.68-.48.48-2.59-.92-4.93-2.61-7.59-3.38,3.2,2.73,7.9,4.24,11.94,5.38-.37-.83-1.89-.81-2.51-1.53-.44-.51-.18-1.03.39-.78.78.34,2.27,2.06,3.66,1.92-1.57-2.16-3.89-3.75-5.59-5.77-.26-.3-1.01-.77-.38-1.16,7.31,5.97,14.07,15.15,24.08,16.17-.04-.92-1.78-1.38-1.92-1.54-.21-.23-.09-1.02.57-.76.41.16.85.98,1.6,1.06.91.09,2.86-1.13,4.38-.29.21,1.74-2.56.09-3.47.39,0,.51,1.61.95,1.91.98,1.11.11,2.89-.56,3.95-1.02.51-.22,2.77-1.39,3.36-1.73.39-.22,2.97-2.62,3.11-2.47.04.91-.95,1.58-1.57,2.09-1.64,1.35-4.23,2.77-6.13,3.7-.09.67.88.36,1.34.38,10.03.36,16.13-5.28,18.96-14.55,1.32-4.34,1.34-13.01-1.41-16.81-.22-.3-.65.1-.8-.03-.78-.68-.53-3.35-1.11-4.18-.25-.36-1.01-.21-1.37-.63-.41-.47-.35-1.64-.97-2.12.17-.53,1.03.36,1.15.19ZM225.43,467.35c1.21-1.86,3.98-3.28,4.05-5.77-4.33,4.37-9.91,9.24-16.37,9.25.47.87,1.59,1.53,2.43,1.99,1.9,1.04,5.48,1.57.65,2.05,1.48,2.27,3.23,6.16,6.43,6.3.49.02,2.92-3.12,3.34-3.84.59-1.01.99-2.48,1.4-3.61l-1.35,1.34c-.78-1.55,1.64-2.62,2.13-3.36.7-1.04,1.04-2.73,1.91-3.77.07-1.14-.44-.29-.71.06-1.28,1.71-2.47,3.74-3.92,5.32-.52.57-1.67,2.12-2.3,1.55l.96-1.73c-1.31,1.3-1.85,2.86-4.04,2.69l2.51-2.3c.67-1.07,5.82-6.94,5.19-7.71l-2.31,1.54ZM320.95,522.81l-22.15-61.24c-.45.52-1.27.92-1.32,1.7-.13,2.16,1.68,5.51,1.12,7.92l-1.92-7.7-1.43.95,2.88,7.82-.3,2.4c-.56.09-.51-.67-.65-1.07-.48-1.41-2.14-8.3-2.81-8.75-.94.39-3.39,1.68-3.44,2.68,3.78,13.49,7.2,27.28,12.5,40.27.82,2.01,2.55,6.69,4.45,7.49,4.42,1.84,5.03,3.7,8.71,5.92.73.44,3.72,2.08,4.35,1.61ZM203.86,471.97c-.78.16-.92-.36-1.23-.88-1.54-2.59-.86-6.38-3.58-8.36.02,2.59.83,5.86,1.54,8.47,2.39,8.76,5.21,16.92,14.44,20.41l-1.15-1.92h1.54s.19,1.15.19,1.15l2.89-3.46c-4.12,1.05-6.68.5-9.44-2.7-.57-.66-1.87-2.19-1.54-3.08,1.6,1.72,3.35,4.31,5.97,4.43-3.9-4.43-7.02-9.89-9.32-15.34-.69-1.64-.45-3.72-2.05-4.89-.54.88,1.96,5.93,1.74,6.16ZM253.55,499.32c8.38-3.68,16.61-8.32,22.72-15.22l12.72-17.51c-8.43,4.91-14.68,11.62-21.56,18.3-1.74,1.69-4.42,3.4-5.99,5.18-.92,1.05-1.63,2.94-2.68,3.87-1.59,1.39-3.5,1.18-4.97,1.97-1.32.7-.42,1.42-.99,2.05-1.3,1.43-4.17,1.56-5.6,2.91-.52.75.66.3.94.17,1.3-.6,4-2.28,5.22-2.48.98-.16.32.37.19.77ZM210.68,470.17c-.94-.69-4.02-1.35-5.27-2.05,1.34,5.75,6.2,12.83,12.71,12.7-1.34-1.89-2.31-4.71-3.68-6.52-.31-.41-3.53-3.97-3.75-4.14ZM221.97,482.38c-2.18-.8-3.9.21-5.99-.37-2.84-.78-5.02-2.69-7.1-4.64.68,2.46,5.41,8.37,7.7,9.05.39.12,2.84-1.25,3.47-1.54-.11-.25-3.51.69-2.31-.57.32-.33,2.47-.44,3.08-.39-.26-1.07-2.71.48-2.31-1.15.67-.5,3.08.92,3.46-.38ZM269.73,506.25c-3.06-2.69-6.54-4.83-9.11-8.03l-6.3,3.03,10.48,3.96,4.92,1.04Z"/>
    <path class="st0" d="M224.39,314.34c.26.33,1.03.47,1.44,1.05.56.79.5,1.82.98,2.49.63.9,4.41,2.88,5.57,3.29l6.15,1.54c-2.4,2.08-4.96-.12-7.43.28-1.08.17-.97.97-1.51,1.2-2.57,1.05-10.67,2.62-12.07,4.1-.93.98-1.57,2.88-2.68,3.87-1.03.31-.09-1.31.04-1.5.12-.18,2.94-3.14,1.13-2.34-2.57,1.12-6.06,6.85-8.28,8.86.49-2.97,3.48-5.3,5.39-7.51-1.29-.4-4.89,1.56-5-.57,3.07.21,5.72-1.29,8.47-2.32-.5-1.1-3.66-.26-3.46-1.92l3.27.77c.21-2.41,1.77-.56,3.12-.4,2.1.26,4.28-1.27,6.32-1.54l-4.62-1.92c2.26-.06,4.32.92,6.54,0l-4.62-1.16c.03-.46-.33-.82.49-.68,1.24.21,2.45.75,3.75.69l-2.71-1.33c-1.3-1.11.11-1.19-.15-1.75s-1.31-.7-1.37-.78c-.62-.74.81-.8.77-.95-.16-.59-.81-1.45-1.05-2.43-.51-2.09-1.74-6.18-.11-7.79-.02,1.78.65,7.51,1.66,8.75Z"/>
    <path class="st0" d="M259.58,380.17c-1.68,1.46-4.6,2.09-6.8,2.06,1.73,3.89-2.25,9.6-5.81,10.94-2.93,1.1-8.47.59-11.13-1.12,3.81.01,8.11,1.92,11.66-.28.29-.18,2.89-2.68,3.16-3,1.32-1.63,2.71-5.49.35-6.88l-10.55-2.74c3.94-1.75,8.58,1.66,12.14,1.57.66-.02,1.6-2.34,2.49-.43l-1.15.39c4.18.86,4.97-3.07,8.08-4.62.52.67-1.87,3.61-2.44,4.1Z"/>
    <path class="st0" d="M250.47,352.96c-1.3,1.16-1.88,1.48-1.54,3.46.75.19,0-1.66.95-1.15.59.32.6,1.76,1.19,1.92.7.19,1.32-.88,2.09-.38.97-1.85-2.9-3.69-2.31-4.23,4.05.63,4.76,7.41-.1,6.46-3.39-.66-4.4-6.13-.28-6.07Z"/>
    <path class="st0" d="M241.22,371.45c.54.5-.56.99-.98,1.13-.89.3-6.87,1.58-7.66,1.57-2.3-.03-6.07-1.4-6.76-3.86,1.26.1,1.7,1.47,2.8,2.01,3.87,1.88,12.13-1.29,12.6-.85Z"/>
    <path class="st0" d="M310.16,300.58s-.15.61.28.75c2.4.81,5.47.55,7.79,2.54,1.31,1.12,4.09,6.35,5.41,6.92,1.44.62,1.44-2,1.55-2.13.67-.74,1.02.66.57,1.53-.09.18-1.95,2.47-2.1,2.54-.48.24-1.51-.91-1.93-.61-.1.07-.31,2.03-.97,2.31-1.25.15.66-2.92.57-3.06-.04-.06-.36.04-.45-.06-1.36-1.65-.83-.1-1.34.04-.88.24-2.29,0-3.29.42-.83.35-.74,1.59-3.11,1.05-.17-.04-2.12-1-2.2-1.09-1.24-1.46,1.89-.05,2.13-.01.44.07,2.41.33,2.48-.36-1.46.52-3.72-1.42-4.08-2.69-.25-.87.39-1.38-.19-2.45-.65-1.2-2.98-2.1-3.43-3.15-.48-1.13,1.18-.21,1.53.2.38-.42-.42-3.66.77-2.69Z"/>
    <path class="st0" d="M304,268.61c.58.53-2.06,2.1-1.53,2.69,1.01-.84,1.62-1.43,3.08-1.15.17,1.41-1.79.44-1.83,2.03-.07,2.93,1.84.94,2.21,2.97-2.07-.14-3.48.36-3.08,2.7h1.54c.32,1.76-3.72.84-4.21.17-1.56-2.15.84-3.32,1.07-4.29.14-.58-.39-1.3-.27-2.14s2.12-3.81,3.02-2.98Z"/>
    <path class="st0" d="M312.48,274c-4.95-2.8-.53-10.9,2.86-9.99,2.29.61-1.99,1.37-2.2,1.49-1.95,1.12-2.3,8.24-.65,6.57.31-.31-.74-1.46-.74-2.11,0-1.07,4.55-5.83,5.75-3.67l-3.08,1.16,2.31.57c-.56.69-3.74,1.44-3.84,2.31-.02.19.83,1,.95,1.39.19.63-.11,1.18.02,1.52.19.49,1.17.69.94,1.52-.19.18-1.94-.56-2.31-.77.19,1.19-.33.6-.95.78-1.57.44-2.3.15-1.75,2.3l-1.15-.38c-.53,1.71,1.49,1.84,1.54,3.46-1.11.04-2.14.13-3.06-.6-2.18-1.73-.93-5.11.36-4.02.19.16-1.06,2.52,0,2.69-.14-2.65,2.44-4.71,5.01-4.23Z"/>
    <path class="st0" d="M321.34,277.08c.1-.06-.59-1.65,1.15-1.54.33,2.42-.25,1.52-1.01,2.05-.2.14-.23.52-.43.63-.77.45-1.86.39-2.41,1.36l1.15.19c-.34.81.61,1.75.63,2.13.03.53-.83,1.08-.95,1.62-.16.72.98,2.13-.26,2.02-.74-.64-.57-1.64-1.01-2.45-.3-.55-1.35-1.21-1.38-1.58-.05-.59,1.69-4.25,2.97-3.67-.07-.5-2.64-1.64-1.92-2.3.83-.77,2.41,2.14,3.47,1.54Z"/>
    <path class="st0" d="M334.37,282.16c.05.02.05.42.21.53,1.8,1.12,1.26,1.28,2.38,2.47.45.48,1.62.23,1.64,1.43.01.73-.7.84-.88,1.27-.28.68.96,1.3-1.36,1.55-.51.71,4.7,3.99,1.34,5.39-.38-.49-.1-1.37-.27-2.03-.58-2.29-2.41-1.62-2.62-1.82-.51-.48,1.01-2.22,1.14-2.9.39-2.03-.37-5.82-3.06-4.42-.31-.31.73-1.81,1.47-1.46Z"/>
    <path class="st0" d="M333.59,271.38c.9,1.38.29,5.35-1.85,5.7.46-1.45,1.46-2.55,1.15-4.23l-.96,1.92c-1.2-2.58-.98-3.01-3.84-3.47-2.05-.33,1.01-1.4,2.17-1.32.53.04,3.19,1.18,3.34,1.41Z"/>
    <path class="st0" d="M336.75,278.62l-.19,2.69c-1.03-.76-.26-2.23-.76-3.09-.39-.67-3.18-.68-2.13-1.91.81-.95,3.48.59,4.24,1.34,1.5,1.48,2.31,4.59.95,6.36-1.85-.47-.4-1.2-.25-1.83.17-.74-1.04-3.1-1.86-3.56Z"/>
    <path class="st0" d="M292.42,297.46c-.31.21-1.44.07-1.72-.33-.12-.17-.87-3.81-.85-4.01.19-1.94,3.1-2.83,4.52-1.4l.39-1.54h-1.93c-.49-2,1.34-.38,1.16-1.93-1.16.81-2.37-.36-2.51-.36-.17,0-1.67,2.29-1.88,2.71-1.38,2.78-.73,5.02-.62,8.04-2.1.53-.78-2.08-.73-3.66.06-2.15-.71-2.1.4-4.57,2.61-5.81,7.88-5.47,6.9,1.9-.3,2.27-2.43,2.05-2.91,2.85-.12.21.28,1.95-.23,2.3Z"/>
    <g>
      <path class="st0" d="M258.94,449.64c-.1.66-.77.66-1.24.88-2.17,1.01-4.76,1.57-6.99,2.64-5.11,2.46-9.65,6.49-13.72,10.34,1.5-3.32,5.47-6.26,8.5-8.25,3.83-2.51,8.94-4.9,13.45-5.61Z"/>
      <path class="st0" d="M254.32,491.23l16.17-13.09c.17.72-.4.92-.77,1.35-2.38,2.84-8.26,7.19-11.43,9.36-1.22.83-2.57,1.91-3.97,2.38Z"/>
      <path class="st0" d="M227.74,510.11l-15.41,12.7c-.45-.43,8.41-7.82,9.11-8.39,1.88-1.54,4-3.54,6.3-4.31Z"/>
      <path class="st0" d="M246.62,497.4c-1.52,2.05-4.21,2.66-6.28,3.92-2.7,1.65-5.34,4.17-8.36,4.93,4.42-3.49,9.21-6.88,14.64-8.85Z"/>
      <path class="st0" d="M265.88,516.65l1.15-1.92.39,4.23c1.07-.26-.48-2.71,1.15-2.31-.13,1.77.63,3.38,1.16,5.01l.38-1.92c1.99,1.11.61,4.21,2.3,5.01l-.38-1.54c2.32.17.7,3.53,2.69,4.23l-.76-1.74c1.78-.45,1.16,2.91,2.89,3.66l-.39-2.31c1.33.98,1.4,2.28,1.93,3.46.33-1.87,2.25.69,3.27,1.35l-.77.57c1.61.73,3.58,1.62,4.62,3.08-9.38-4.09-18.3-12.13-21.57-21.95,1.2.57,1.75,1.81,1.93,3.08Z"/>
      <path class="st0" d="M338.67,513.57c1.16,3.2,3.44,6.39,4.43,9.64.77,2.52,1.36,6.81,1.72,9.45.16,1.17-.06,2.45.02,3.64l-1.53-1.92c.07,1.97-.97,3.6-1.55,5.39-1.98.03.34-3.08.58-3.86.2-.64,0-1.6.2-2.3-.92.29-.5,1.88-1.15,2.51-.44.44-.88.33-.78-.39.14-1.05,1.21-2.44,1.45-3.95.19-1.19.09-2.37.1-3.56.71.15.7.76.78,1.33s-.39,2.07.37,2.13c.2-3.14-.61-6.38-1.64-9.34-.93-2.66-3.04-5.79-3.72-8.22-.2-.72.19-.58.73-.54Z"/>
      <path class="st0" d="M336.36,549.78l-.19.77c.91.04.88-1.12,1.35-1.74,1.58-2.07,1.62-.14,1.73-.19.62-.29,1.05-2.27,1.93-2.69.55.28-.08.94-.25,1.29-2.19,4.36-7.77,6.94-12.26,4.29l3.51.38c.75-.3,3.56-2.57,4.19-2.11Z"/>
      <path class="st0" d="M337.9,507.79c-.83.16-.9-.37-1.18-.94-1.09-2.17-1.88-5.38-2.99-7.79-1.46-3.17-3.35-6.15-4.69-9.37,1.96,1.67,3.33,4.85,4.51,7.24,1.72,3.49,3.27,7.12,4.35,10.86Z"/>
      <path class="st0" d="M346.76,545.93c.55.67-4.38,7.81-5.38,8.67-1.69,1.46-4.28,2.61-6.56,2.49-.18-1.03.18-.67.84-.87,6.5-2.02,6.8-3.93,10.15-9.53.13-.21.35-1.48.95-.76Z"/>
      <path class="st0" d="M238.14,416.13c-1.63,1.91-4.62,2.25-6.81,3.39-2.33,1.22-4.19,2.88-6.8,3.99s-5.56,1.87-8.35,2.63c3.61-2.72,8.59-3.11,12.46-5.44.39-.23,1.18-.8.06-.71h-1.74s11.17-3.85,11.17-3.85Z"/>
      <path class="st0" d="M245.46,431.54c-2.28,2.77-5.07,5.08-7.52,7.69-5.08,5.44-9.48,11.59-15.58,16.01-2.58,1.87-1.03-.56.18-1.75s3.35-1.85,4.05-2.46c5.77-5.07,10.66-13.38,16.74-18.35.62-.51,1.23-1.22,2.13-1.14Z"/>
    </g>
  </g>
  <g>
    <path class="st0" d="M277.82,102.6c-.1.57-.71.74-1.16.96-10.58,5.08-22.9,7.86-32.71,15.05l-9.66,6.32c7.64-6.98,17.49-12.26,26.97-16.35,4.27-1.84,10.33-4.48,14.7-5.72.61-.17,1.21-.34,1.85-.26Z"/>
    <path class="st0" d="M271.27,138.42c-.17-.72.4-.92.77-1.35,3.94-4.68,9.99-9.89,14.85-13.66,5.76-4.46,11.94-8.38,18.28-11.96.19.81-.43.87-.87,1.24-2.46,2.07-6.58,4.04-9.42,5.99-8.5,5.85-16.25,12.51-23.6,19.73Z"/>
    <path class="st0" d="M424.51,151.19c.44.28,3.7,8.44,4.08,9.59,2.52,7.6,3.72,16.66,2.9,24.63-.67.09-.36-.88-.38-1.34-.43-11.56-1.72-22.62-7.7-32.75.03-.35.94-.24,1.1-.14Z"/>
    <path class="st0" d="M283.21,86.04l-.57.77c-10.82.46-21.54,1.97-32.17,3.85l3.77-1.42c9.53-1.86,19.24-3.18,28.96-3.19Z"/>
    <path class="st0" d="M314.79,250.88c-5.13,2.64-10.19,4.86-15.79,6.36-1.46.39-2.99.36-4.34.67-4.89,1.12-9.8,2.78-14.93,2.6.16-.77.79-.65,1.35-.76,2.87-.55,5.86-.72,8.74-1.27,8.62-1.67,17.06-4.1,24.77-8.36l.19.76Z"/>
    <path class="st0" d="M337.51,175.01c-.22.21-.86.22-.7-.51.98-4.55,4-9.68,4.76-14.51l3.65-15.41c-.74,7.55-2.53,15.44-4.89,22.64-.35,1.06-2.51,7.5-2.81,7.78Z"/>
    <path class="st0" d="M276.27,76.03c.62.48,0,.7-.57.77-4.05.52-9.23-.26-13.48,0s-8.32,1.43-12.52,1.53l4.93-1.42c7.17-1.1,14.41-1.49,21.65-.88Z"/>
    <path class="st0" d="M306.71,160.38c3.46-7.52,6.09-15.46,9.56-22.98.48-1.05,1.02-2.54,1.99-3.21-2.71,6.71-4.96,13.72-8.02,20.29-.91,1.95-1.93,4.55-3.53,5.9Z"/>
    <path class="st0" d="M393.37,252.04c1.04-2.34,2.85-4.24,4.16-6.43,3.77-6.3,5.76-11.94,8.26-18.71.15-.4.13-1.14.67-1.05-.67,4.89-3.1,10.44-5.32,14.9-1.95,3.91-4.54,8.32-7.77,11.29Z"/>
    <path class="st0" d="M372.95,275.93c-3.38,3.32-8.58,6.73-12.84,8.92-2.44,1.25-5.2,2.57-7.96,2.63-.21-1.17.35-.59.91-.8,4-1.54,7.6-3.06,11.3-5.28l8.59-5.46Z"/>
    <path class="st0" d="M272.81,270.15c-.36.86-2.09,1-2.94,1.1-6.2.74-13.22-.02-19.21-1.46-.54-.13-1.21-.08-1.34-.8,7.87,1.3,15.51,2.12,23.49,1.16Z"/>
    <path class="st0" d="M311.32,121.48l-15.4,21.18c.54-2.09,2.1-4.28,3.3-6.13,2.81-4.31,7.17-10.73,10.75-14.29.41-.41.67-.91,1.35-.76Z"/>
    <path class="st0" d="M370.64,185.41c-.48.63-.7,0-.77-.57-.43-3.35.22-7.59,0-11.17-.29-4.68-1.57-9.36-1.53-14.06l1.42,6.08c1.03,6.53.94,13.12.88,19.72Z"/>
    <path class="st0" d="M285.52,241.26c-2.54,2.07-6.45,3.1-9.63,4.04-4.58,1.36-9.49,2.6-14.25,2.89l23.88-6.93Z"/>
    <path class="st0" d="M220.81,91.43c-2.99,2.82-6.54,5.1-9.63,7.89-3.46,3.12-6.41,6.84-10.01,9.83l3.84-4.82c4.93-4.64,9.55-10.02,15.8-12.89Z"/>
    <path class="st0" d="M384.5,258.98c.17.72-.41.91-.77,1.35-3.69,4.45-10.98,10.18-15.6,14.06-.43.36-.62.93-1.35.77l3.85-4.43c4.75-2.84,8.45-7.6,12.52-10.97.43-.36.62-.93,1.35-.77Z"/>
    <path class="st0" d="M341.75,105.3c.17.72-.41.91-.77,1.35-1.95,2.36-5.14,4.59-6.95,6.63-2.96,3.33-4.87,7.82-7.68,11.28-.02-1.15.68-2.24,1.23-3.2,2.75-4.79,8.57-11.76,12.83-15.29.43-.36.62-.93,1.35-.77Z"/>
    <path class="st0" d="M314.02,89.51l-.57.77h-20.61c-.61-.47,0-.7.57-.77,6.77-.8,13.83-.42,20.61,0Z"/>
    <path class="st0" d="M356.78,259.75l11.16-18.87c-1.41,3.82-3.71,8.14-5.85,11.67-1.52,2.51-3.14,5.21-5.31,7.2Z"/>
    <path class="st0" d="M394.91,256.28c2.18-3.23,4.15-6.68,5.72-10.26,1.23-2.81,2.06-6.35,3.33-9,.22-.45.38-1.06.96-1.16-2.19,6.01-4.21,13.91-8.15,19-.46.6-.96,1.5-1.86,1.41Z"/>
    <path class="st0" d="M276.66,272.08c-.85,1.17-3.41,1.44-4.8,1.55-3.95.31-9.62.36-13.3-.98,3.66-.21,7.31.38,10.99.21,2.28-.11,4.79-.84,7.11-.78Z"/>
    <path class="st0" d="M358.7,312.13c-3.08,3.58-8.72,6.4-13.48,5.38l.39-.76c-2.04-.63-5.05.1-6.55-1.35,1.09-.14,1.94-.4,2.88-.96l-.19,1.16c.72-.21,1.66.33,2.2.29.8-.06,3.4-1.4,3.76.1l1.74-.77-.96,1.16c-.56.39-.06.41.34.35.9-.14,3.61-.95,4.21-1.48.64-.58.4-2.35,2.19-1.95l.18.76c1.03-.66,1.93-2.02,3.28-1.92Z"/>
    <path class="st0" d="M379.11,302.5c3.46-2.44,6.88-5.02,9.62-8.29,3.98-4.75,6.08-10.61,9.64-15.59-2.92,7.87-7.83,16.2-14.45,21.56-1.36,1.1-2.94,2.45-4.8,2.32Z"/>
    <path class="st0" d="M397.12,185.54c.06.03.86.85.87.91.44,2.95-5.72,6.16-7.71,3l2.59.32c.63-1.06,1.96-1.18,2.6-2.06.87-1.21.06-2.88,1.65-2.18Z"/>
  </g>
</svg>