<?xml version="1.0" encoding="UTF-8"?>
<svg id="_图层_1" xmlns="http://www.w3.org/2000/svg" xmlns:xlink="http://www.w3.org/1999/xlink" version="1.1" viewBox="0 0 301 359.1">
  <!-- Generator: Adobe Illustrator 29.1.0, SVG Export Plug-In . SVG Version: 2.1.0 Build 142)  -->
  <defs>
    <style>
      .st0 {
        fill: none;
      }

      .st1 {
        fill: #0655bc;
      }

      .st2 {
        clip-path: url(#clippath);
      }

      .st3 {
        fill: #eceae7;
      }
    </style>
    <clipPath id="clippath">
      <rect class="st0" x="68.7" y="0" width="232.3" height="359.1"/>
    </clipPath>
  </defs>
  <g class="st2">
    <g>
      <polygon class="st3" points="47.9 12.6 35.2 25.3 36.6 32.7 21.9 51 7.9 81.7 31.9 98.1 53.3 102.2 68.7 103 68.7 112.9 68.7 303.5 68.7 307.2 63.6 324.3 56.7 327.8 56.7 334.6 242.4 341.3 245 327.8 231.1 309.9 231.2 287.6 231.2 95 250.9 101.6 285.8 90.9 287.9 64.6 276.1 41.5 264 33.9 265.1 25.2 255.7 14.1 47.9 12.6"/>
      <g id="zpTJVo">
        <path class="st1" d="M267.7,0H31.9l3.2,25.2,5.7-.9h216.3l8,.9c1-2.3.7-5.1,1-7.5.6-3.9,1.7-8.2,2.2-12,.1-1.2.8-5.2-.6-5.7h0ZM286.6,40.1c-8.8-8.8-19-11.6-31.3-12.1-48.2-2.1-97.7,2.5-146,0-22.1,1.1-45.4-1.3-67.5,0C12.8,29.7-8.7,63.2,3.5,90.2c9.8,21.4,33.6,31.4,55.7,21.8,14.2-6.2,24.1-26.6,18.5-41.4-1.6-4.2-8.6-15.4-12.5-17.3-11.2-5.6-22.1-6-32.5,1.5-16.1,11.5-9.3,40.1,12.3,37.5,6.6-.8,10.5-4.6,11.2-11.3.2-1.9-.8-7.3,1.6-7.5,3.5-.3,1.9,9.2,1.3,11.4-1.8,6.5-7.2,10.2-13.8,11-26.1,3.3-34.3-33-12.4-45.5,12.1-6.9,22.4-6.1,34.6-.3,54.3-.1,108.7,0,163,0,1,0,2,.4,2.8.4,2.1,0,9.5-5,15.1-5.4,20-1.4,36.8,13.8,31.9,34.6-4,16.6-32.2,21.9-38.8,4.8-.9-2.2-2.7-13.4,1.6-10.8,1.1.7,1,6.8,1.7,8.9,4.1,13.3,25.9,9.9,30.7-.4,10.8-23.2-17.7-40.9-36.2-30.7-28.2,15.6-19,58.5,13.3,63.2,45.2,6.7,63.6-45,34-74.6h0ZM111.4,53.7h-39.9c4.4,6.2,9.7,12.9,11.4,20.5.3,1.3-.4,2.9.8,3.8h27.8v-24.3h0ZM148.6,53.7h-33.5v24.3h33.5v-24.3ZM185.3,53.7h-33.5v24.3h33.5v-24.3ZM229.8,53.7h-40.2s-.7.6-.7.7v23s.6.7.7.7h29.1c.5-6.6,2.8-13,6.6-18.4l4.4-5.9h0ZM98.5,81.7h-15.6c.2,4.2-1.5,8.8-3.1,12.7-1.4,3.4-3.9,8-6.1,10.9-.8,1.1-5,4.9-5,5.6v192.6h29.8V81.7h0ZM102.2,81.7v221.8h29.4V81.7h-29.4ZM135.2,81.7v221.8h29.4V81.7h-29.4ZM168.3,81.7v221.8h29.4V81.7h-29.4ZM218.8,81.7h-16.8l-.7,221.8h29.8c0-1.5,0-1.9,0-3.4,0-39.3.4-131.5,0-170.8,0-6.8-.9-13.8-.5-20.7-5.8-6.1-9.5-13-11.4-21.2-.2-.9-.4-5.4-.6-5.6h0ZM245,307.2H56.7v20.7h188.2v-20.7ZM257.4,331.5H43.9v27.6h213.5v-27.6Z"/>
      </g>
    </g>
  </g>
</svg>