<?xml version="1.0" encoding="UTF-8"?>
<svg id="_图层_1" xmlns="http://www.w3.org/2000/svg" xmlns:xlink="http://www.w3.org/1999/xlink" version="1.1" viewBox="0 0 44.1 552.6">
  <!-- Generator: Adobe Illustrator 29.1.0, SVG Export Plug-In . SVG Version: 2.1.0 Build 142)  -->
  <defs>
    <style>
      .st0 {
        fill: none;
      }

      .st1 {
        fill: #0655bc;
      }

      .st2 {
        clip-path: url(#clippath);
      }

      .st3 {
        fill: #eceae7;
      }
    </style>
    <clipPath id="clippath">
      <rect class="st0" x="10" y="0" width="34" height="552.6"/>
    </clipPath>
  </defs>
  <g class="st2">
    <g>
      <polygon class="st3" points="7 1.8 5.1 3.7 5.3 4.8 3.2 7.5 1.1 12 4.7 14.4 7.8 15 10 15.1 10 16.5 10 544.5 10 545 9.3 547.5 8.3 548 8.3 549 35.5 550 35.8 548 33.8 545.4 33.8 542.1 33.8 13.9 36.7 14.9 41.8 13.3 42.1 9.4 40.4 6.1 38.6 5 38.8 3.7 37.4 2.1 7 1.8"/>
      <g id="zpTJVo">
        <path class="st1" d="M39.2,0H4.7l.5,3.7h.8c0-.1,31.7-.1,31.7-.1h1.2c.1-.2.1-.6.1-1,0-.6.2-1.2.3-1.8,0-.2.1-.8,0-.8h0ZM41.9,5.9c-1.3-1.3-2.8-1.7-4.6-1.8-7.1-.3-14.3.4-21.4,0-3.2.2-6.6-.2-9.9,0C1.9,4.3-1.3,9.2.5,13.2c1.4,3.1,4.9,4.6,8.1,3.2,2.1-.9,3.5-3.9,2.7-6.1-.2-.6-1.3-2.2-1.8-2.5-1.6-.8-3.2-.9-4.8.2-2.4,1.7-1.4,5.9,1.8,5.5,1-.1,1.5-.7,1.6-1.7,0-.3-.1-1.1.2-1.1.5,0,.3,1.4.2,1.7-.3,1-1.1,1.5-2,1.6-3.8.5-5-4.8-1.8-6.7,1.8-1,3.3-.9,5.1,0,8,0,15.9,0,23.9,0,.1,0,.3,0,.4,0,.3,0,1.4-.7,2.2-.8,2.9-.2,5.4,2,4.7,5.1-.6,2.4-4.7,3.2-5.7.7-.1-.3-.4-2,.2-1.6.2.1.1,1,.2,1.3.6,2,3.8,1.5,4.5,0,1.6-3.4-2.6-6-5.3-4.5-4.1,2.3-2.8,8.6,1.9,9.2,6.6,1,9.3-6.6,5-10.9h0ZM16.3,7.9h-5.9c.6.9,1.4,1.9,1.7,3,0,.2,0,.4.1.6h4.1v-3.6h0ZM21.7,7.9h-4.9v3.6h4.9v-3.6ZM27.1,7.9h-4.9v3.6h4.9v-3.6ZM33.6,7.9h-5.9s-.1,0-.1.1v3.4s0,.1.1.1h4.3c0-1,.4-1.9,1-2.7l.6-.9h0ZM14.4,12h-2.3c0,.6-.2,1.3-.5,1.9-.2.5-.6,1.2-.9,1.6-.1.2-.7.7-.7.8v528.2h4.4V12h0ZM14.9,12v532.5h4.3V12h-4.3ZM19.8,12v532.5h4.3V12h-4.3ZM24.6,12v532.5h4.3V12h-4.3ZM32,12h-2.5v532.5c-.1,0,4.3,0,4.3,0v-.5c0-5.8,0-519.3,0-525,0-1-.1-2,0-3-.9-.9-1.4-1.9-1.7-3.1,0-.1,0-.8,0-.8h0ZM35.8,545H8.3v3h27.5v-3ZM37.7,548.6H6.4v4h31.2v-4Z"/>
      </g>
    </g>
  </g>
</svg>