<?xml version="1.0" encoding="UTF-8"?>
<svg id="_图层_1" xmlns="http://www.w3.org/2000/svg" xmlns:xlink="http://www.w3.org/1999/xlink" version="1.1" viewBox="0 0 221.7 550.3">
  <!-- Generator: Adobe Illustrator 29.1.0, SVG Export Plug-In . SVG Version: 2.1.0 Build 142)  -->
  <defs>
    <style>
      .st0 {
        fill: none;
      }

      .st1 {
        fill: #0655bc;
      }

      .st2 {
        clip-path: url(#clippath);
      }

      .st3 {
        fill: #eceae7;
      }
    </style>
    <clipPath id="clippath">
      <rect class="st0" x="50.6" width="171.1" height="550.3"/>
    </clipPath>
  </defs>
  <g class="st2">
    <g>
      <polygon class="st3" points="35.3 9.3 25.9 18.6 26.9 24.1 16.1 37.6 5.8 60.2 23.5 72.2 39.3 75.2 50.6 75.9 50.6 83.2 50.6 644 50.6 646.8 46.9 659.4 41.8 662 41.8 667 178.5 671.9 180.4 662 170.2 648.7 170.3 632.4 170.3 69.9 184.7 74.8 210.5 66.9 212 47.5 203.4 30.6 194.4 25 195.3 18.6 188.3 10.4 35.3 9.3"/>
      <g id="zpTJVo">
        <path class="st1" d="M197.2,0H23.5l2.4,18.6,4.2-.7h159.3l5.9.7c.7-1.7.5-3.8.8-5.5.4-2.9,1.3-6,1.6-8.9.1-.9.6-3.9-.5-4.2ZM211.1,29.5c-6.5-6.5-14-8.5-23-8.9-35.5-1.6-72,1.8-107.5,0-16.3.8-33.4-1-49.7,0C9.4,21.9-6.4,46.5,2.6,66.4c7.2,15.8,24.8,23.2,41,16.1,10.4-4.6,17.7-19.6,13.6-30.5-1.2-3.1-6.4-11.3-9.2-12.8-8.2-4.2-16.2-4.4-23.9,1.1-11.9,8.4-6.9,29.5,9,27.6,4.9-.6,7.8-3.4,8.3-8.3.1-1.4-.6-5.4,1.2-5.5,2.6-.2,1.4,6.8,1,8.4-1.3,4.8-5.3,7.5-10.2,8.1-19.2,2.4-25.3-24.3-9.2-33.5,8.9-5.1,16.5-4.5,25.5-.2,40,0,80,0,120.1,0,.8,0,1.5.3,2,.3,1.6,0,7-3.7,11.1-4,14.8-1,27.1,10.1,23.5,25.5-2.9,12.2-23.7,16.2-28.5,3.6-.6-1.6-2-9.9,1.2-7.9.8.5.8,5,1.2,6.5,3,9.8,19.1,7.3,22.6-.3,8-17.1-13-30.1-26.6-22.6-20.8,11.5-14,43,9.8,46.6,33.3,4.9,46.9-33.1,25-55h0ZM82,39.6h-29.4c3.3,4.6,7.1,9.5,8.4,15.1.2,1-.3,2.2.6,2.8h20.5v-17.9ZM109.4,39.6h-24.7v17.9h24.7v-17.9ZM136.5,39.6h-24.7v17.9h24.7v-17.9ZM169.3,39.6h-29.6s-.5.5-.5.5v16.9s.5.5.5.5h21.5c.4-4.9,2.1-9.6,4.9-13.6l3.3-4.3h0ZM72.6,60.2h-11.5c.1,3.1-1.1,6.5-2.3,9.3-1,2.5-2.9,5.9-4.5,8-.6.8-3.7,3.6-3.7,4.1v562.4h22V60.2ZM75.2,60.2v583.9h21.7V60.2h-21.7ZM99.6,60.2v583.9h21.7V60.2h-21.7ZM123.9,60.2v583.9h21.6V60.2h-21.6ZM161.1,60.2h-12.3l-.5,583.9h22c0-1.1,0-1.4,0-2.5,0-28.9.3-517.4,0-546.3,0-5-.6-10.2-.3-15.2-4.2-4.5-7-9.6-8.4-15.6-.1-.6-.3-4-.4-4.2h0ZM180.4,646.8H41.8v15.2h138.6v-15.2ZM189.5,664.7H32.3v25.2h157.2v-25.2Z"/>
      </g>
    </g>
  </g>
</svg>