<?xml version="1.0" encoding="UTF-8"?>
<svg id="_图层_1" xmlns="http://www.w3.org/2000/svg" xmlns:xlink="http://www.w3.org/1999/xlink" version="1.1" viewBox="0 0 93.8 554.5">
  <!-- Generator: Adobe Illustrator 29.1.0, SVG Export Plug-In . SVG Version: 2.1.0 Build 142)  -->
  <defs>
    <style>
      .st0 {
        fill: none;
      }

      .st1 {
        fill: #0655bc;
      }

      .st2 {
        clip-path: url(#clippath);
      }

      .st3 {
        fill: #eceae7;
      }
    </style>
    <clipPath id="clippath">
      <rect class="st0" x="21.4" y="0" width="72.4" height="554.5"/>
    </clipPath>
  </defs>
  <g class="st2">
    <g>
      <polygon class="st3" points="14.9 3.9 11 7.9 11.4 10.2 6.8 15.9 2.5 25.5 9.9 30.5 16.6 31.8 21.4 32.1 21.4 35.2 21.4 537.1 21.4 538.3 19.8 543.6 17.7 544.7 17.7 546.8 75.5 548.9 76.3 544.7 72 539.1 72 532.2 72 29.6 78.2 31.6 89 28.3 89.7 20.1 86 12.9 82.3 10.6 82.6 7.9 79.7 4.4 14.9 3.9"/>
      <g id="zpTJVo">
        <path class="st1" d="M83.4,0H9.9l1,7.9,1.8-.3h67.4l2.5.3c.3-.7.2-1.6.3-2.3.2-1.2.5-2.5.7-3.8,0-.4.2-1.6-.2-1.8h0ZM89.3,12.5c-2.7-2.8-5.9-3.6-9.7-3.8-15-.7-30.5.8-45.5,0-6.9.4-14.1-.4-21,0C4,9.2-2.7,20.3,1.1,28.7c3,6.7,10.5,9.2,17.3,6.2,4.4-1.9,7.5-8.3,5.8-12.9-.5-1.3-2.7-4.8-3.9-5.4-3.5-1.8-6.9-1.9-10.1.5-5,3.6-2.9,12.5,3.8,11.7,2.1-.2,3.3-1.4,3.5-3.5,0-.6-.3-2.3.5-2.3,1.1,0,.6,2.9.4,3.5-.6,2-2.3,3.2-4.3,3.4-8.1,1-10.7-10.3-3.9-14.2,3.8-2.2,7-1.9,10.8,0,16.9,0,33.9,0,50.8,0,.3,0,.6.1.9.1.7,0,3-1.6,4.7-1.7,6.2-.4,11.5,4.3,9.9,10.8-1.2,5.2-10,6.8-12.1,1.5-.3-.7-.9-4.2.5-3.4.3.2.3,2.1.5,2.8,1.3,4.2,8.1,3.1,9.5-.1,3.4-7.2-5.5-12.7-11.3-9.5-8.8,4.9-5.9,18.2,4.1,19.7,14.1,2.1,19.8-14,10.6-23.2h0ZM34.7,16.7h-12.5c1.4,1.9,3,4,3.5,6.4,0,.4-.1.9.2,1.2h8.6v-7.6h0ZM46.3,16.7h-10.4v7.6h10.4s0-7.6,0-7.6ZM57.7,16.7h-10.4v7.6h10.4s0-7.6,0-7.6ZM71.6,16.7h-12.5s-.2.2-.2.2v7.2s.2.2.2.2h9.1c.1-2.1.9-4,2.1-5.7l1.4-1.8h0ZM30.7,25.5h-4.9c0,1.3-.5,2.8-1,4-.4,1-1.2,2.5-1.9,3.4-.3.3-1.5,1.5-1.5,1.7v502.6h9.3V25.5ZM31.8,25.5v511.7h9.2V25.5h-9.2ZM42.1,25.5v511.7h9.2V25.5h-9.2ZM52.4,25.5v511.7h9.2V25.5h-9.2ZM68.2,25.5h-5.2l-.2,511.7h9.3c0-.5,0-.6,0-1.1,0-12.2.1-483.6,0-495.8,0-2.1-.3-4.3-.1-6.4-1.8-1.9-3-4.1-3.5-6.6,0-.3-.1-1.7-.2-1.8h0ZM76.3,538.3H17.7v6.4h58.6v-6.4ZM80.2,545.9H13.7v8.6h66.5v-8.6Z"/>
      </g>
    </g>
  </g>
</svg>