<?xml version="1.0" encoding="UTF-8"?>
<svg id="_图层_1" xmlns="http://www.w3.org/2000/svg" version="1.1" viewBox="0 0 563.3 542.6">
  <!-- Generator: Adobe Illustrator 29.1.0, SVG Export Plug-In . SVG Version: 2.1.0 Build 142)  -->
  <defs>
    <style>
      .st0 {
        fill: #0655bc;
      }
    </style>
  </defs>
  <path class="st0" d="M233.8.1c-1.6,0-3.1.8-4.8.7-3.2,2.6-10.1,2.1-11.3,6.8-1.1,4.7.9,14.2,1.1,19.4.2,4.6-.2,9.3,0,14-1.6.3-1.1-.2-1.5-.9-2.2-3.5-5.2-12.5-6.4-16.7-.9-3.3-1-7.3-2-10.2-.1-.5-2.1-4-2.3-4.2-.1-.1-.5,0-.7,0-.8-.4-1.2-.6-2.2-.5-4.9.5-15.3,3.1-20.3,4.6-.7.2-1.3.4-2,.7-6.3,2.3-16.6,7.2-22,11-2.8,2-11.3,8.3-11.9,11.3-.2,1.1-.2,1.9.2,2.9.6,1.8,6,8.8,7.6,11.5,3.1,5.6,6.5,12.1,7.8,18.4-5.9-5.3-11.4-11.1-17-16.7-2.4-2.4-5.1-7.2-9.5-7.2-.1,0-1.8.6-2,.7-4.5,2.2-17.7,16-21.4,20.4-4.5,5.3-7.8,11.5-11.9,17,.2,1.2-.2,2.2.7,3.4,1.2,1.8,6.5,4.2,8.5,6.1,1.1,1,6.6,7.8,5.8,8.9-10.1-2.3-18.4-11.1-25.3,1.6-7.6,14-13.6,31.8-14.2,47.7-.7,18.8,9.3,9,19.8,18.7-11.8,3.1-21-4.9-22.4,11.9-1.5,17.5,7.3,30.3,5.3,46.8-1.2,9.1-7.4,17.5-16.8,18.9-.1,0-2.1,0-2.7,0-1.8,1.8-4.6,1-6.8,1.7-5.9,1.7-14.3,9.9-17,15.3-.7,1.3-1,2.7-1.4,4.1-.6,2.8-1.2,5.4-.5,8.3.4,2,5.1,10.4,7.5,10,3-.5,1-6.7,1.1-9.1.3-11.8,11.6-19.5,22.2-21.4,1.7-.3,3.6.2,5,0,2.2-.4,4.8-1.2,6.8-2,19.1-8,13.2-26.7,26.2-39.5,4.4-4.4,9.8-5.8,10.6-13.2,1.4-12.6,1.1-24.5,4.3-37.2,18-72.6,111.7-107.9,176.7-76.4,3.4,1.6,11.9,8,15.2,7.6,3.6-.4,3.2-2.9,4.7-4.9,8.5-11.2,22.1-22.2,35.3-27.3,3.7-1.4,7.5-2.8,11.5-2.4,3.4-1.6,8.8-2.2,7.3-7.7-.4-1.4-6.6-9.6-8-11.1-2-2.2-9.2-8.4-11.6-9.8-2.6-1.6-7.8-3.1-10.7-4.6-4.7-2.6-17.6-11.2-22.3-11.1-4.9.2-5.4,4.7-7.3,7.8-3.3,5.1-6.9,10-9.9,15.2-4.4,7.7-8.5,19.9-12.9,26.5-.6.9-.8,1.9-2.2,1.6-.1-11.9,4.3-25.5,10.1-35.8,2.1-3.7,10.1-13.2,10.4-16.2.1-1.3,0-2.6-.7-3.8-.7-.4-2.6-2-2.7-2-5.7-1.6-11.9-3.2-17.6-4.8C266.3.5,250.4-.4,233.8.1h0Z"/>
  <path class="st0" d="M82,259.4c-4.2,1.8-6.5,1.6-10.2,2.7-6.5,1.9-12.8,4.1-17,9.9-5.7,7.8-3.2,16.7-11.9,23.5-6.4,5-12.4,2.8-19.1,5.4-10.8,4.2-17.5,16.6-14.6,27.9.3.3.4,1.1.7,1.4,5.2.5,5.4-7.9,7.3-11.4,2.4-4.2,10.2-8.1,14.9-8.3,2.9-.1,5.3,1.1,8.1,1.3,12.5,1,21.1-5.8,27.6-15.6,0,7.9-2.5,16.5-8.5,21.8-10.8,9.6-25,4.8-32.9,19.5-5.1,9.4-2.7,14.5.5,23.4.2.5.5.9.7,1.4l8.2,6.8c.2,0,.5,0,.7,0,7.8-.4,1.1-4.2-.6-6.6-5.3-7.4-3.7-18.6,4.6-23.1,9.7-5.2,18.6,1.1,29.2-1.4,9.5-2.2,18.7-10,21.4-19.5,4-14-4.4-22,7.3-36.2,12.9-15.5,33.6-9.3,43.7-28.5,4.3-8.2,1.9-9.1.2-16.8-17.2-81.1,64.3-149.6,140-113.5,2.7,1.3,6.3,5,9,4.6,2-.3,3.1-5.2,4.3-7.3,3.2-5.5,5.9-8.9,12.4-10.4.2-.2.6-.5.7-.7l.7-.7c.7-2,1.3-4.7-1.4-5.4-1-.3-2.3,0-3.9-.5-6-2.2-13.4-8.1-20.6-10.7-44.3-16.2-107.5-1.9-136.4,36.5-19,25.2-19.1,41.5-23.6,71-2.7,17.2-13.2,16.4-19.9,27.7-4.8,8.1-3.6,15.6-10.3,23.7-3.2,3.9-6.7,6.3-11.2,8.2h0ZM251.6,95.5c5.3-.2,7.4-1.2,6.7,5-.1.8-1.8,6.9-2.1,7.1-1.1.7-6.2,0-6.6-1.7-.3-1,2.2-8.4,2-10.4h0ZM230,95.5c1.4.5,2.2,8.8,1.7,10.4-.6,1.7-5.7,3.2-6.6-.7-.2-.8-.8-7.6-.7-8,.3-1.2,4.4-2.1,5.6-1.7ZM283.4,103c.8,1.3-3.3,10.8-4.3,11.5-1.8,1.5-5.2-.3-6.9-1.4.1-1.6,3.9-11.6,4.5-12,1.2-.8,6.4,1.3,6.7,1.8ZM206.5,112.3c-.5.8-4.8,1.9-6.1,1.1-.4-.2-3.2-7.8-3.3-8.3-.2-1.6,4.6-4.2,6-3.3,1,.7,3.8,9.9,3.3,10.5h0ZM176.8,115.9c.8.2,4.5,6.3,4.6,7.1.2,1.6-2.4,3.7-3.8,3.7-1.2,0-5.6-6.8-5.6-8-.1-1.7,3.3-3.4,4.9-2.9h0Z"/>
  <path class="st0" d="M312.7,149.8c-5.9-4.9-31.7-17.3-39.5-20.1-67.8-24-136.9,32.9-121.5,104.5.7,3.3,1.8,12.6,6.3,10.3,32.2-21.2,63.6-44.5,100.3-57.6,15.2-5.4,40.8-12,56.7-10.5,6.5.6,13.1,3.5,19.5,4.7,1.2-1,1.1.5,2-2.7-5-6.9-10.3-15.7-16.3-21.8-1-1-2.5-2.6-3.4-3.4-.2-.2-3.1-2.5-3.4-2.7-.3-.2-.5-.5-.7-.7h0Z"/>
  <path class="st0" d="M216.8,292.8c0,0,1.4.2,1.4-.3.7-5.2-2.9-6.7-2.7-9.5.1-1.9,2.2-3.2,2.6-5,1.1-4.9-2.5-17-8.4-12.5-2.9,2.2,1.1,3.7,1.6,5.3,1.1,3.7-1.4,4.1-2.7,6.5-4,7.6,3.1,10.1,7.6,13.8.6.5.6,1.5.7,1.6h0Z"/>
  <path class="st0" d="M334.7,449.5c-22.6-3.6-31.5,20.3-18.5,36.9,14.3,18.3,44.7,15,41.4-12.8-1.3-10.7-12.2-22.4-22.9-24.1Z"/>
  <path class="st0" d="M493.8,125.3c.1,2.2-.1,4.6,0,6.8,1,.8,1,2,1.3,3.2,2.2,11.1,6.8,26.4,5.5,37.3-1.3,11.7-14.2,11.2-11.6,24.2.6,2.9,3.9,6,7.2,6.2,1.4,0,2.5-.6,3.7-.7,6.4-.9,13.5,1.8,19.5,4.6,2.5,1.2,4.5,4,7.7,3.5,2.5-1.3,6.8-3.8,7.5-6.8,1.2-5.2-2.9-9.2-3.4-13.9-2.1-19.3,20-28.6,26.5-43.9,1.4-3.2,1.2-6.8,1.4-10.2.2-4.3,0-8.6,0-12.9v-.7c0-25.1.6-50.8,2-75.9,1-16.8,3.1-18.5,1.6-35.3-.2,0-.4,0-.7,0-1.4-.2-3.3-.3-4,1.1-10.4,28-25.5,37.7-39.5,63.8-7.4,13.8-16.5,29.8-22.7,44-.8,1.9-.8,4.1-2.1,5.7h0ZM547.5,57.3l-12.5,81.7c-5.4,12.4-10.4,23.6-14.3,36.7-.6,2.2-1.3,11.1-4.6,10.8-1.4-.1-3.5-2-3.2-3.6,3.8-16.9,5-34.7,9.2-51.4,4.9-19.4,12.7-40.5,19.4-59.6,1.7-4.8,3.2-10.8,6.1-14.6h0Z"/>
  <path class="st0" d="M500.6,209.7c-2.5-.1-8.1,1-9.5,3.1-1.7,2.7-.9,7.5,1.3,9.8,8.8-1.5,17.2-.1,24.7,4.8,1.2.8,1.3,3,4.6,2.1,2.2-1.8,3.5-1,4-5.2s0-4.2-2-7.1c-7.8-1.3-14.9-7.2-23.1-7.5h0Z"/>
  <path class="st0" d="M462.7,355.2c6.1-25.1,13.1-50.1,18.6-75.3,1.9-8.4,7-27.8,7-35.2,0-4.2-4.8-6.2-1.5-12.3,3.3-6.1,12.4-3.5,17.8-1.9,5.9,1.7,12.5,4.4,16.3,9.2.3,3.2.3,6-2.4,8.2-.9.7-2.9,1.2-3.1,1.8-.7,2.6-.3,6.5-.8,9.2-9.5,50.2-24.3,100.7-36,150.5-.8,3.5-1.4,7.1-2.1,10.6-1.7-.5-3.3-1-5-1.5-.4-.6-.9-1-1.7-1.3-3.6-1.3-6.9-3.4-10.3-5-2.8-2.1-5.7-4.2-8.8-5.8,4-17,7.7-34.1,11.8-51h0Z"/>
  <path class="st0" d="M509.1,542.6h-74.2c-2.8-5.4-7-9.5-13.4-10.8,0-.1,0-.3,0-.4-1.5-.2-3.9-.9-7.5-2.8-1.4,4.6-2.6,9.3-3.7,14h-10c-12.3-13.5-24.8-26.7-37-40.3-1.7-1.7-5.5,2.2-5.7,3.9-.1,1.3,11,15.4,12.8,17.6,5.1,6.3,10.9,12.6,16.5,18.8h-59.9c3-7.5,5.3-14.8,6.8-21.3.4-1.8,2.1-6.8-.6-7.4-1.8-.4-3.9,6.7-4.7,8.2-3.5,6.8-7.3,13.6-11.2,20.5h-70.5c18.6-10.7,35.9-23.8,47.6-33.5,2.5-2.1,14.9-14,16.5-14.2,2.1-.3,3.6,2.8,5.3,4,29.7,21.6,62.3-5.7,44.2-38.1-5.7-10.3-17.4-18.8-29.3-19.7-2.6-.2-9.3,1.1-10.5.3-.4-.3-2.9-6.9-3.8-8.5-9.1-16.2-17.9-17.2-32.1-25.8-1.9-1.2-3.1-2-2.9-4.5.1-1.5,3.8-15.9,4.4-16.8,1.6-2.4,5-.6,7.1,0,.2,0,.5,0,.7,0,.9.4,1.2,1.6,1.9,2,3,1.9,14.6,8.2,17.5,8.2h12.9c.5,0,8.2,1.8,9.2,2,.2,0,.5,0,.7,0,9.5,3.2,12.7,14.4,20.5,19.4,4.1,2.6,7.9,2.9,12.2,4.5.4.1,1-.1,1.4,0,9.9,3.6,16.5,12.6,19.4,22.5,1.4,4.9,2.6,9.5-2.5,12.4-2.5,1.4-18.2,6.5-18.8,7.4-.6.8.7,3.9,2.4,4.1,1.9.2,6-1.8,8.3-2,5.7-.5,11,2.1,15.9,4.7,1.2,1.4,2.6,1.9,2.7,2,2.8,3.6,3.7,9.1,5.6,13.1.9,1.8,3.4,3.2,3.3,5.9,1.1.2.6-.9.7-1.7.2-3.5-.5-7.9.7-11.2,0-.2.5-1.1.7-1.4.8-1.3,4.5-3.7,4.6-4.5.4-2.1-1.1-7-3.2-8.4-.4-.3-.9-.4-1.4-.7-3.3-8.1-7-13-2.7-21.8,0,0,.9-.8,1.4-1.4,2.5-1.5,5-2.9,8-3.3,1.5-.2,3.4.9,4.3.3.6-.4,2.4-11,4-14,.1-.2,1.2-1.8,1.4-2l.7-.7c.1-.2,2.5-2.5,2.7-2.7l.7-.7c.2-.2.5-.5.7-.7,2.7-1.7,7.2-3,10.2-4.1h3.4c1,.4,4,1.9,5.2,1.3,2.3,1.3,4.7,2.2,7.2,3.3.1,0,.3.1.4.2,1.2.9,2.4,1.8,3.5,2.7,2.7,2.1,5.4,4.2,8.5,5.5,3,1.3,6.2,2.1,9.1,3.7,1.8,1.3,4,2.7,4.9,3.3,2.2,1.4,5.4,3.4,7.6,4.6,3,1.6,3.6,1.6,6.3,4.6,9.8,10.8,6.7,15.3,5.8,28.3-1.2,18.5,1.1,51.5,7.2,71.9h0Z"/>
  <path class="st0" d="M0,421.8c.6-.1,1.1-.3,1.7-.4l.7-.7c.2,0,.5,0,.7,0,60.2-8.9,99.3,29.5,152.6,44.4,18,5.1,36.9,8.2,55.7,5.9.2-1-1.3-.8-2-1-2.7-.6-5.5-.8-8.2-1.3-59.1-12.9-106.9-51-167.1-56.2-1.9-.2-10.7,1.8-6.8-3.4,3.7-4.9,11.5-10.7,17.4-12.6,8-2.5,7.6-1.6,15-6.1,11-6.5,27.8-6.2,39.4-1.4,9.5,3.9,21.7,18,31.6,16.6,4.7-.6,11.1-5.7,11.9-10.5,1.4-8.9-6.2-12.3,0-21.9,4.8-7.5,15.8-4.8,19.9-14.8,4.3-10.5-4.1-18.6,1.9-28.8,5-8.4,11.8-6.6,17.9-11.4,2.1-1.7,7.5-9.2,7.5-11.6v-9.9c-3.6,2.5-4.9,7.6-7.6,11.1-7.5,9.7-25.1,8.9-26.4,23.9-.5,5.6.9,8.8,1.4,13.6.6,5.4-.9,9.9-5.1,13.3-7.1,5.7-16.1,4-18.5,16.9-1.4,7.1,7,17.3-1.9,21.9-7.9,4.1-10.7-3-14.9-6.7-2-1.8-8.4-3.9-8.5-5.8-.3-2.9,2.8-3.9,3.3-5.6.9-3.1-.6-6.5-.5-9.3.2-4.6,4-9.6,7.9-11.9,4.1-2.4,8.9-1.7,9.8-7.6-8.3.9-18.4,0-22.8,8.8-3.1,6.1.2,12.6-6.1,17.7-6.8,5.4-13.6,3.7-20.7.3-4.9-2.4-12.2-9.9-16.3-1.9-.9,1.8-.8,13.8-5.1,7-8.9-13.9,6.4-31.4,19.2-21.9,2,1.5,3.4,4.5,6.2,5.3,2.9.9,8,.6,8.7-2.9,1.1-5.7-2.3-6.7-3.1-10.9-.7-3.5-.4-8.7,1.6-11.7,4.5-6.9,12.4-10.1,20.4-7.5,2.3.7,4.2,2.2,6.6,3,11.8,3.6,27.1-3.8,28.4-16.9.6-5.9-1.1-9.6,2.4-15.3,8.2-13.3,24.8-4,35.1-20,4.6-7.1,2.4-16.7,9.4-22.6,2.4-2,8.8-5.1,11.9-6.5,6.4-2.8,12.5-3.1,18.7-5.1,4.7-1.5,12.7-7.1,16.7-7.8.5,0,1.2-.1,1,.3-1.4,1.2-3.5,9.4-4.1,9.9-.9.6-2.9-2.3-3.8,2-1.1,5.8,5.4,21.5,10.3,24.6,1.3.8,2.1-.1,3,.3.7.3,6.8,6.5,8.6,7.8,2.5,1.9,11.4,6.8,12.1,8.4,1,2.3-.3,3.8-.2,6.2.4,9.7,1.9,20.4,4.3,29.8,1.7,6.7,5.8,14.2,7.1,20.1.2,1,.2,1.9.1,2.9-2.6.3-4.9-1-7.3-1.9-14-5.8-36.2-17.9-40.1-33.4-4-16.1-3.4-34.6-7.4-50.4-1.9-7.7-5.9-12.2-14.4-12.2-5.6,0-9.8,9.2-10.4,14-1.4,11.6,2.8,20.6,9.9,29.5,3.5,4.4,5.9,4.9,11.1,2.8,2.2,4.9,1.3,10.6,2.2,15.8,3.6,20.6,26.7,33.5,44.5,41.2,7.3,3.1,23.1,11,21.3-3.6-1.8-14.2-10-27.9-10.9-43.6-.5-9.1,4-18.8-4.4-25.5-9.7-7.9-22.6-10.3-26.2-24.9-2.2-8.9.6-10,3-17.3,1-2.9,0-7.1,3.2-9,2.4-1.4,10.4-3.8,13.6-4.8,20.2-6.4,42.2-11.2,63.3-7.8,3.8.6,17.1,6,10.4-2.9-1.6-2.1-8.2-4.6-11-5.3-31.9-8.3-81.4,10.7-110.6,24.4-8.7,4.1-30.2,14-34.8,21.7-3.1,5.2-3.8,13-6.8,17.7-1.9,3-8,7.2-11.2,8.9-1.7-.2-7.3.4-9.1.8-8.7,1.6-17.6,10-18.5,19-.4,3.3.8,6.9.4,10.6-1.2,10.8-16,15-24.4,9.5-5.7-3.8,2.3-3.4,5.1-5.7,9-7.5-6.6-19.2,2.7-31.3,10.7-13.8,27.2-5.4,35.6-16.8,5.6-7.6.8-10.1,1.1-17.9,34.7-22.3,68.6-47.2,107.9-60.9,18.7-6.5,41.9-12.1,61.5-7.1,2,.5,10.1,3.2,11.4,4.3,3.5,2.9,4.3,13.6,5.7,18.1.4,1.3,1.5,2.1,1.7,2.7.8,2,1.2,4.2,2,6.1.5,1.1,1.7,2,2,2.7,2.6,5.5.5,12.9-6.1,13.6.9,5.1,4.5,9.8,3.3,15.2-.7,3.1-5.5,4.8-5.4,9,0,2.3,3.4,9.1,4.3,12.1,2,6.8,3,12.3,6,18.9l1.1,8.2c-1.8,4.3-5,7-9.9,6.1.1-1.3,2.4-.9,3.1-2,2.5-4.3-2.5-2-4.6-2.2-2.8-.3-5.8-3.2-9-3.3-3.7-.1-7.3,3.1-9.5,2.8-2.7-.4-3-5.4-4.5-4.1-1.4,1.3-.5,6.5,1.4,7.8,3.8,2.6,8.1-.9,12.2-.3-2.6,3.6-.8,7.6-.7,11.6-4.4-.4-8.8,1.5-12.7,3.3-3.3,1.5-7.2,2.6-8.4,6.2,5.3,1.1,10.5-1.7,15.3-2.1,3-.3,2.8,1.8,6.4-1,6.3-5-1.3-9.7.8-16.9.6-1.9,4.4,0,4.6.3.1.2-.7,2.5-.6,3.6.2,3.1,2.7,4.6,2,8.9-.4,2.8-3.2,3.8-3.4,5.5-.3,2.7,2.5,4.4.7,8.9-1.5,3.9-6.8,3.9-5.4,8.7.2.8,1.2,1,1.2,1.1.3.7.4,1.4.7,2l.7,2c0,.2,0,.5,0,.7l.7,2c0,.2,0,.5,0,.7,0,1.1,0,2.3,0,3.4,0,.7,0,1.4,0,2l-.7,1.4c0,.2,0,.5,0,.7l-.7.7c-.1.2.1.5,0,.7l-1.4,1.4c-2.8,3.2-4,3.8-7.5,6.1-10.5,2.6-21,1.7-31.6,0-1.9.3-4.1,3.8-5.9,5.1-1.5,1.1-4.2,1.7-5.4,2.8-1.4,1.3-6.5,19-8.3,23-3.8,8.6-15.2,22.1-16.2,29.4-.6,4.5,0,10.4,3,13.9,3.5-2.4,3.2-6.3,4.6-9.7,2.9-7,6.5-14.1,11.1-20.2,3.5,5.1,10.4,7.1,15.5,10.3,5.7,3.6,11.1,8,15.4,13.2,1.3,1.5,7.4,9.6,7.5,10.9.2,2.8-2.6,2.4-4.4,3.8-9.7,7.3-11.1,22.9-7,33.5,1,2.6,4.1,5.5,2.9,8-25.6,19.5-52.4,39.5-81.6,53.9h-64.4C120.1,494.2,63,459.5,0,463.1v-41.3h0ZM325.7,338.4c.6-5.4,10.3-5.5,5.8-12.2-1.4,7.8-6.8,2.1-11.2,5.8-5.8,5,2.5,4.3,5.4,6.4ZM327.9,243.2c1.8.7,2.3,4.3,2.5,6,.9,0,1.1-1,1.4-1.7,1.4-3.6.3-12.2-3.1-14.7-9.4-6.9-34.3-1.3-43.9,4.5-.8.5-7.3,4.7-6.2,5.7,12.5-4.4,23.9-4.7,36.9-2.5,2.8.5,10,1.7,12.3,2.6h0ZM294,262.8c2.1,0,10.3-4.9,11.3-4-2,2,2,6.3,1.1,7.5l-10.6,2.4c2.6,1.1,8.4,3.4,11.1,3,1.2-.2,4.9-3.4,5.2-4.4.6-2.3-1.6-1.9-1.9-2.3-.1-.2,1-2.1,1.1-3.1.1-1.4-1-2.5-.1-4.3,1-2.3,6.9.7,6.5-3.7-.4-3.6-6-2.1-8.5-2.5-3.4-.5-5.2-2-9.4-1.1-2.7.5-12.7,6.5-14.5,8.7-.5.7-1.3.9-1,2,3.6-1.5,7.5,2.1,9.8,2h0ZM295.7,455.4c-5.1,0-10.2,0-15.3,0-42.3-.2-64.8-19.4-100.8-36-5-2.3-10.5-3.9-15.2-6.6,1.8-1.7,3.9-4,4.5-6.4,1.3-5.7-2.3-9.8,2.3-15.4,4-4.8,10.7-2.6,15.6-7.5,11.2-11-1.9-22.1,1.7-33,2.4-7.2,7.8-6,12.8-9.6,5.4-3.8,11.1-16.2,9.2-22.5-.3-.9-1.8-2.4-2.6-1.8-.3.2-1.8,5.8-2.6,7.3-6.9,12.6-19.9,8.9-25.4,20.2-5.7,11.6,4.1,17.5,1.7,26.9-3,11.9-14.3,8-19.8,16.9-4.5,7.2,3.5,17.3-5.6,23-4.9,3-11.8-.5-17-.6,1.1.6,2.8,2.6,3.8,2.9,8.7,2.4,17.9,3.9,26.6,7.6,39.4,16.7,68,44.2,114.9,38.2,1-.1,12.8-2.2,11.2-3.4h0ZM159.8,492.9c40.7,13.8,93.1,10.8,131.3-9.8,3.5-1.9,6.3-5.3.5-5-12.1.6-31.1,7.8-44,10.5-29.5,6.2-59.6,9.1-89.4,2.8-.4,2,.5,1.1,1.6,1.4Z"/>
  <path class="st0" d="M0,471.1c34.9-.8,69.5,11,99.2,32.1,15.7,11.1,29.8,24.5,42.3,39.4H0v-71.6Z"/>
</svg>