<?xml version="1.0" encoding="UTF-8"?>
<svg id="_图层_1" xmlns="http://www.w3.org/2000/svg" version="1.1" viewBox="0 0 530.5 542.7">
  <!-- Generator: Adobe Illustrator 29.1.0, SVG Export Plug-In . SVG Version: 2.1.0 Build 142)  -->
  <defs>
    <style>
      .st0 {
        fill: #0655bc;
      }
    </style>
  </defs>
  <path class="st0" d="M389.7,30.6c-.8-1-2.1-4-3.2-5.3-10.8-13.1-30.7-19.5-47.2-15.1-2.6.7-6.8,3.1-9.1,3-2.6-.1-11-5.6-14.3-7.1-20.6-9.2-38.4-8.9-54.6,7.8-1.7,1.8-3.1,5.1-5.4,5.8-2.7.9-6.4-.6-9.2-.8-23.6-1-44.8,10.2-56.7,30.6-5.2,8.9-5.7,13.8-7.3,23.7-1.3,8.1-4.8,6.6-9.5,11.9-12.7,14.4-13.1,32-5,48.9,1.1,2.2,2.2,5,5,5.2,24.8-21.6,56.1-35.3,86.6-46.9,42.3-16.1,94.9-31.1,140.2-34.5,8.7-.7,17.1,0,25.8.5,3.7-3.3,1.1-9.3-.9-13-4-7.6-12.4-12.7-21-13.4-4.1-.3-11.5,1.8-14.2-1.3h0Z"/>
  <path class="st0" d="M438.7,542.6c2-14.2,2-27.9,6.4-41.8,1.2-3.8,6.2-10.9,1.8-13.9-3.6-2.4-7.2,3.6-8.9,6.3-10.5,17.1-7.1,31.1-11.6,48.6,0,.3-.1.5-.2.8h-39c-23.6-9.6-48.6-26.8-65.3-39.5-40.8-31.1-75.8-66.9-108.2-106.5-10.7-13-38.5-47-41.4-62.2-1.3-6.6,3.1-4.9,7.6-7.1,21.9-10.8,39.1-43.4,41.1-67.1.2-2-.3-9.5.3-10.4,1-1.4,6,.1,7.9,0,13.2-.7,23.9-15.1,23.4-27.9,0-1.8-1.8-7.4-1.5-8.1.9-1.9,5.4-.9,7.4-1.1,5.6-.7,17.5-6.9,16-13.7-1-4.6-5.4-2.7-8.5-3.4-16.5-3.3-32.8-53.5-10.3-64.1,10.2-4.8,22.8,2.4,21.7,13.8-.2,2.7-3,6.4-5.6,4.7-.3-.2-1.6-5.3-3.1-6.7-3.9-3.5-8.8-.9-11,3.1-5.4,9.7-1,28.4,7.9,35,5.4,4,10.4-.4,6.8-5.6-1.2-1.7-3.4-2.9-4.6-4.9-2.6-4.5-2.9-10,1.4-13.5,5.1-4.2,5.1.7,10-.7,10.5-2.9,8.1-19.3,2.5-26.2-10.3-12.9-28.6-12.9-38.9,0-14,17.4-4.7,54.1,11.3,67.6,2.2,1.9,9.7,4.7,3.4,6.8-6.5,2.1-10.1-3.3-14.8-.7-4.9,2.8-1.1,7.5-.3,11.2,1.5,6.6.2,15.5-4.6,20.4-3,3.1-8,6.2-12.4,5.6-4.9-.6-1.2-5.1-.9-7.7.4-2.8.2-8.1-1.1-10.6-1.4-2.5-2.8-2.4-3.3.5-1.2,7.6-.5,10.3-6,16.5-2,2.3-4.1,1.6-3.6,5.9.5,4.2,1.5,6.2.9,11.2-2.1,19.2-18.8,53.6-38.3,60.3-1.7.6-2.9,1.1-3-1-.6-12,6.6-15,12.7-23.1,7.1-9.6,12.6-23.2,14.6-35,.6-3.3,1.6-6.8-.7-9.7-1-1.3-2.5-1.5-3.4-2.5-6.2-6-.6-13.3-3.7-19.7-.6-1.2-6.5-8.8-7.8-7.7-.4,6.4-1.7,7-7.3,4.2-16.9-8.5-5.6-21.1-11.8-32.8-.4-.7-.5-1.4-1.2-1.9-3.7-18.2-1.9-28.7,13.6-40.2,55.9-41.7,154.9-73.4,224-80.8,18.8-2,49.4-5.7,58,16.3,1.2,3.1,1,4.9,2.7,8.6,3.7,8.3,4.9,15.8,1.1,24.5-2.6,5.9-15.4,21-20.4,10.6-2.6-5.4,1.6-7,2.6-12.1.9-5.1-.4-10.9-4-14.7-4.8-5-3.1,1.2-3.1,3.6.3,10.1-2.5,17.5-12.9,20.4-2.4.7-13.3,1.3-8.3,5.8,2.3,2.1,6,1.9,8.9,1.5,4.9-.7,10-6,12.6,1.8,1.6,5,1.8,22.4,1.4,27.9-.4,5-4.5,13.6-4.3,16.8,0,1.3,1.2,2.3,1.5,3.5,2.8,14.2,3.5,33.8,4.6,48.7,0,.2,0,.4,0,.6.2,3.4,1,8.4.6,11.6,0,.7-1.4,3.9-1.7,4.2-.2.2-3.9,1.5-4.4,1.5-7.7,1.3-10.8-4.5-17.1-6.9-4-1.5-10.1-2.3-9.6,3.9.5,5.2,5.9,4.5,6.8,5.8,1.3,1.9,3,9.6.8,11.5-3.8,3.4-7.3-.4-10.9-1-3.4-.6-4.7.5-7.2.7-2.1.2-13.4-.5-10.9,3.6,1.9,3.1,19.9.2,23.3,4.6,1.5,2,1.5,7.1-.8,8.7-2.4,1.7-5.4-.3-7.9,2.8-3.5,4.2,3,11,3.2,15.9.5,8.2-4.2,14.9-12.7,15.8-8.7.9-35.5-9.9-44.6-13.7-17.6-7.4-33.6-16.4-49-27.6-1.9-.6-1.9,1.3-1.6,2.7,1.6,7.7,18.5,19.9,25.1,24,7.4,4.6,15.1,4.9,14.8,15.6-.2,6.7-4.1,15.8-4,21.4,0,1.8,2,5,3.4,6.1,3.5,2.6,8.4,1.9,12.5,2.7,13.9,2.7,25.4,8.4,38.5,12.8,30.6,10.5,61.1,17.6,88.5,36.1,31.3,21.1,46.9,64.4,50.9,101.2,1.3,12.3.2,24.8,2.5,37,.7,3.5,1.7,6.9,2.8,10.3h-91.9,0ZM197.9,213.2c-4.4-6.6-11.7-13.2-11.7-22.6s.5-10,0-11.8c0-.3-.9-1-1.4-.8-9.9,10.6-2.6,37.8,11.7,40.8,5,1,3.3-2.8,1.5-5.5h0ZM214.6,188c-3.3-8.5-5.8-11.6-5.4-21.7,0-1.6,2.1-9.2-.3-9.3-1.3,0-4.1,6.5-4.5,7.9-3.2,11.2-.4,25.6,7.3,34.4,2.6,2.9,6.2,6.5,7,.4-1.4-3.9-2.7-7.8-4.2-11.6h0ZM365.9,184.5c.5.9,6.9,1.8,8.6,3,2.6,1.8,5.8,6.9,8.9,9.2,3.7,2.8,7.3,4.2,11.6,1.6,4.3-2.7,5.1-12.1,6.7-13.1,2.9-1.9,7,2.6,9.8.3,2.7-2.2-2.3-6.3-4.5-7.3-8.1-3.8-28.3-.9-36.8,2.1-1.5.5-5.7,2.1-4.3,4.3ZM358.5,170c1.5,1.3,15.8-3.2,18.5-3.8,12.1-2.6,21.7-4,33.9-.4,2.7.8,15.6,7.2,16.9,5.9,0-1.2.2-2.1-.6-3.1-.8-.9-5.9-5.6-7-6.5-14.4-11.2-41.1-8.6-55.7,1.2-.8.6-7.3,5.5-6,6.7h0ZM301.6,189.4c3,3.9,12,9.6,14.5,2.7,1.3-3.5-1.3-5.6-2.3-8.7-2-6.7-.5-7.2,1.7-12.7.5-1.1.7-4,1.2-4.4,1.4-1.1,5.2,2,7,2.7,3.4,1.2,10.1,2.1,12.1-1.6,1.7-3.1-.7-4.6-1.6-7.2-1.5-4.7-2.3-8.4-.8-13.3,2.2-7.2,6.6-3.2,12.4-4,5-.7,10.2-4.9,13.3-8.7,3.6-4.4,2.8-8,9.8-7.6,1.8,0,3.9.9,5.6,1,14.6.5,31.3-11.2,29.6-27.2-.1-1.3-1.4-6.3-3.1-5.9-1.8.4-3.2,8.8-4,10.7-4.1,10.8-17.9,17.6-28.8,13.1-5.4-2.2-2.9-4.2-3-8.2,0-2.6-1.2-7.8-2.2-10.3-.6-1.4-4.9-9.4-6.9-8.1-1.7,1.2,1.5,11.9,1.7,14.4.9,10.2-1.7,20.8-10.9,26.3-1.9,1.2-8.3,4.8-8.3.2,0-1.6,3.6-8.4,4.3-11.6,1.2-5.6,1.2-10.4-.5-15.9-.4-1.4-2.9-7.5-4.1-7.8-3-.7-.9,7.4-.8,8.7.2,7-.5,13.4-3.3,19.9-4.5,10.1-12.5,14.2-9.5,27.4.8,3.3,4.8,10.3-2.8,6.2-8.3-4.5-11.4-17.6-10.3-26.3.6-4.7,3.4-9.4,3.9-13.6.2-1.3.7-10.9-2.2-9-1.4.9-6,10.3-6.9,12.3-2.3,5.9-3.2,11.8-2.7,18.2.5,7.4,5.3,11.3.5,18.5-.9,1.3-3.5,3.2-3.8,4.2-.4,1.6,1.3,4.3,1.6,6.1,1.1,8.5-7.2,11-.5,19.7h0ZM398.5,396c-1-1.5-6.9.2-8.5.6-11.3,3-21.6,8.5-33.1,10.9-11.9,2.4-32.2,2.2-41.9,8.8-6.2,4.2-1.8,6.4,3.8,6.1,7.5-.4,18.2-2.3,25.9-3.5,16.6-2.6,33.6-5.9,47.9-15.2,1.9-1.2,7.7-5,5.9-7.7h0Z"/>
  <g>
    <path class="st0" d="M303.3,530.3c3.3,4,6.8,8.1,10.4,12.4h-55.5c-20.3-30.4-38.7-62.6-53.1-88.3-16.8-30.1-30.9-61.7-48.1-91.7-1.3-.2-.8.6-.8,1.4-.6,6.4,7.6,28.7,10.3,35.9,12.2,33.4,28.1,67.7,43.1,100,6.6,14.2,13.4,28.6,20.5,42.7h-51.6c-5.8-19.1-11.6-38.2-18.2-57-.7-2-5-14.8-6.6-14.8-.5,0-1.3,1.8-1.3,2.5-.2,7.1,2.3,20,3.4,27.5,2,13.2,4.4,27.4,7.1,41.7h-29.7c0-26.2-2.1-52.3-8.1-80.9-6.6-31.3-19.4-62.1-22.9-93.7-.4-3.2-.1-13.2-1.2-15.1-2.3-4-5.3,4.6-5.8,6.4-6.8,24.2,8.6,71.1,13.1,97.4,4.4,25.8,7.6,54.3,5.2,80.4-.2,1.9-.4,3.7-.7,5.6h-13.9c-.3-8.6-.8-17.2-1.2-25.9-.2-4.2.6-8.7-1.4-12.7-1.5-.5-2,1.4-2.6,2.5-4.7,8-6.7,22-7.8,36.1H3.1c-.3-30.7-6-59-1.1-91.1,7.7-49.1,30.9-93.9,79.3-112.3,3.5-1.3,12.8-2.5,14.5-4.6.8-1,1.3-3.1,2-4,3.4-4.3,11.4-8.6,16.7-10,2.6-.7,9.9-1,11-3.1.4-.7.1-1.3.3-1.7,1.4-.2,4.8-4.9,6.5-6.2,4.8-3.8,12.2-5.7,18.3-5.1.1,0,.4.5.6.6.4,0,.8,0,1.1,0,.9.2,2.8.4,3.4.6,6.9,2.3,3.8,7.5,3.4,12.1-2.4,27.5,29.3,66.2,45.4,87.6,31.5,41.8,65.3,84.6,98.9,124.8h0ZM143.8,412.6c-1-21.8-4.8-44.7-6.7-66.6-.2-2.8,0-13.7-1.1-15.2-1.4-1.9-3.3.9-4.1,2.2-8,13.9.9,57.9,5.3,73.8.9,3.1,1.8,6.9,3.1,9.8.2.5,2,4.6,2.9,3.6.4-2.5.6-5,.5-7.5h0Z"/>
    <path class="st0" d="M330.7,542.6c-9.8-11-19.6-22.3-28.5-33.2-1.2-1.5-5.4-6.3-5.9-7.6-.3-.9-.4-2,.6-2.2,1.4-.3,20.2,15.2,23.2,17.4,11,8,24.2,17.4,38.4,25.7h-27.8,0Z"/>
  </g>
</svg>