<?xml version="1.0" encoding="UTF-8"?>
<svg id="_图层_1" xmlns="http://www.w3.org/2000/svg" version="1.1" viewBox="0 0 515.6 567.5">
  <!-- Generator: Adobe Illustrator 29.1.0, SVG Export Plug-In . SVG Version: 2.1.0 Build 142)  -->
  <defs>
    <style>
      .st0 {
        fill: #0655bc;
      }
    </style>
  </defs>
  <path class="st0" d="M219.7,558.7c21.1-12.9,43.6-28.5,62.6-44.3,14.6-12.2,34.2-29.5,46.1-44.1,10-12.3,21-23.9,30.8-36.4,2-2.5,3.4-5.6,5.3-8.2,5.4-7.3,10.9-12.1,15.6-20.5,1.1-1.9,7.2-11.5,2.7-11.9-3.5-.3-4.6,3.7-6,5.5-3.5,4.4-6.6,8.5-10,13-6.3,8.3-14,16.2-20.7,24.3-14.6,17.7-32,33.1-48.6,49.1-3.3,3.1-10.7,11.9-13.7,13.8-.8.5-1.9.3-2.2.6-.2.2-.1,1.1-.6,1.6-8,8.1-24.6,18.3-34.5,24.6-8.3,5.3-16.4,10.4-25.1,15-3.6.8-9.6,5.8-12.9,4.4-3-1.3-5.4-4.9-7.6-6.9-7.7-6.9-14.6-12.7-21.5-20.5-13.4-15.2-28.6-38.1-36.3-56.9-.9-2.2-3.3-7-3.6-9-.1-1,.3-2.5,1.5-2.5,7.7,6,15.2,12.3,24.2,16.4,40.8,18.7,81.8.4,117.7-19.3,13.9-7.6,32.5-17,45.2-25.9,10.7-7.6,22-14.6,32-22.8,2.9-2.3,10.1-6.9,10.6-10.4.4-3.2-3.2-2.2-5-1.4-6.2,3-14.2,9.8-20.4,13.7-4.1,2.6-8.7,4.5-12.8,7.2-7.8,5-14,10.1-22.6,14.5-17,8.9-33.8,18.7-51.4,26.2-21.2,9-47,17.6-70.3,13.7-16.6-2.8-38.1-11-48.4-24.8-15.2-20.2-12.1-63.5,10.3-77.3,8.2-5,16.1-8.3,23.7-14.8,1.7-1.5,8.3-12.5,10.4-7.4.9,5.5,2.2,11,3.1,16.5.4,2.4,1.1,6.2,1.1,8.4,0,2.6-2.4,11.7.8,12.7,3,.9,4.7-3.2,5.4-5.4,6.1-18.2-6.2-50-9.7-68.9-2.9-15.5-3.9-31.4-5-47-.6-7.7-2-16.5-2.1-24.1,0-1.7.5-6.2,2.1-7,1.3-.7,2.8-.3,4.5-1.6,3.3-2.4,5.3-12.5.9-14.4-4.1-1.8-3.5,4.1-6.1,6.1-5,3.9-14.7-4.3-16.7-8.9-1.6-3.8-.7-7-3.1-10.9-4-6.7-9.9-6-12.2-16.3-2-9.1,4.6-20.2,14.7-15.7.7.3,5,2.7,5.5,3,5.9,4.4,2.1,14.4,9.8,19.8,3.4,2.4,10.4,2,11.7-2.4,1-3.5-2.8-3.2-4.6-4.2-3-1.7-4.2-7.5-3.8-10.7,0-.5,1.3-4.3,1.4-4.6,1-1.4,4.5-2.7,5.8-3.7,4.3-3.3,8.5-10.8,8.3-16.3-.3-6.9-6.1-9-2.3-17.3,5.1-11,16.7-5,25-8.6,5.3-2.2,11.3-8.6,12.9-14.1,1.7-5.8,1.2-10,6.8-14.3,11.4-8.6,24.3,3.6,36.9,3.4,2.5,0,9-1.7,11.4-2.7,3.2-1.4,7.9-6.8,11.2-5.7,1,.3,2.2,3.4,3.1,4.4,1.7,1.9,6.6,4.2,9.1,4.5,4.4.4,6.6-1.8,11.6,1.4,5.3,3.4,3.8,8.1,6,13,1.6,3.5,5.7,8,9.6,8.9,3.9,1,8.3-1.2,11.5,2.6,2.3,2.7,1.5,9,2.2,12.9.6,3.5,2.5,7.8,2.4,11.1,0,3.2-2.9,11.4-3.6,16-1.4,9.9-4.7,1.9-9.3,0-5.3-2.2-11.6-.8-16.5,1.8-2.1,1.1-8.9,5-6.4,7.6,1.8,1.9,3.2-.7,5.3-.3,1.1.8-.9,5.9,4.2,8.8,4.3,2.4,8.9,2,11.8-2.3,2.2-3.3,1.2-4.1.7-7.2-.5-2.7,4.5.8,5.1.9,1.1,0,1.9-2.3,3.3.2.9,1.7,1,4.7.9,6.6-.3,13.5-4.7,33.7-8.3,46.8-5.6,20.5-24.8,68.1-48.2,72.5-16.3,3.1-50.4-8.3-64.7-16.7-13-7.6-22.4-21-31.4-32.7l-2.9-1.5c-3,1.8-1.4,5.2-.4,7.8,4.9,12.5,23.7,31.7,35.8,37.3,22.7,10.5,57.8,24.8,80,7.2,3.8-3,7.6-9,10.2-12.8.6-1,3.1-6.1,4.8-5,1,6.3.8,12.3,2.2,18.5,2.9,12.8,12.5,24,21.8,32.8,3.2,3,7.7,5.9,10.8,9.2,5.2,5.6,2.2,6.6-1,11.1-2.8,4-5.5,8.2-7.1,13-1.1,3.4.3,5.3-3.6,7.9-5.7,4-14.7,6.2-21.2,8.9-6.2,2.6-12.3,5.7-18.7,7.9-6.9,2.4-14.4,3.5-21.3,5.7-15.1,4.8-28,11-44.1,14-27,5.1-49.1,5.5-72.9-9-4.3-2.6-19.1-14.4-23-13.8-3.7.5-1.3,4.9.2,6.6,2.4,3,12.3,11,15.8,13.8,36.6,29,83.2,14.5,122.1-.6,13-5,26.2-9.4,39.2-14.4,8-3.1,15.8-7.5,23.8-10.2,4-1.4,12.9-2.7,15.8-4.8,4.4-3.2,1.8-7.2-3.2-5.5-.4-1-.6-2-.6-3.2.2-4.5,6.9-15.5,10.9-17.7,1.6-.9,6.7-1.5,6.1-4.7-.1-.5-2.8-4.8-3.4-5.6-5.4-7-9.7-7.9-15.8-12.8-.8-.6-5.3-5.1-5.2-5.7,0-.6,1.1-1.2,1.7-1.3,2.1-.4,5.8-.8,8-1,3.4-.4,3.8-.3,7.4-1.1,10.6-2.3,21.1-2.5,29.2,5.8,2.1,2.1,3.5,5.6,5.4,7.8,5.9,6.9,10.9,2.8,18.5,3.5,6,.6,14,4.5,17.5,9.5,3.3,4.5,2.2,8,9.6,8.9,11.2,1.3,18,1.5,26,10.6,4.4,5,5.8,10.8,10.3,15.2.3.3.9.2,1,.3.2.2.3.3.5.5,4,3.7,4,3.5,8.5,6,.2,1.7.7.8,1.7,1.6,8,6.6,14.6,20.2,16.7,30.4.3,1.7,1.9,9.5.7,10.4-3.3,2.3-5.7-4.9-7.1-7-13.2-18.9-29-37.9-52.1-45.1-8.5-2.7-17.6-3.2-26.6-3.4-4,5.5,1.5,5.6,5.3,6.6,6.7,1.9,14.9,4.4,21.3,7.3,33.4,15.3,52.2,59.9,60.1,93.6.7,3.1,2,5.6-.1,8.6-5.2,2.8-10.5,5.6-15.8,8.2-6.6,3.3-10.5,5.5-16.8,9.2-9.1,5.3-18.4,5.6-27.2,9.9-3.3,1.6-7.4,5.8-10.2,6.9-5.8,2.2-.5-8.2.2-10.8,6.6-25.8,9.3-62.8.3-88.1-3.6-10.1-14.1-29.8-23.7-34.9-3.2-1.7-6.9.7-5.4,4.4,25,29.3,27.6,66.1,21.7,102.9-2,12.7-7.2,23.4-9.8,35.2-2.2,10.1,4.7,13.1,5.8,20.5.3,2.2-2.3,18.1-4.5,18.1h-76.3c-3.4,0,3.4-14.3,4.3-16.3.6-1.4,1-2.8,1.6-4.2,1-.3,1.1-.9,1.5-1.8,4.2-10.6,9.2-19.8,13.8-30.3,7.7-17.6,12.6-36.1,17.9-54.7,5-17.5,12.9-43,10.8-61.2-.3-2.4-1.6-6.1-4.6-4.3-.5.3-2.3,2.5-2.5,3.1-1.1,3.4-.8,9.2-1.5,13.1-.9,5.5-1.9,11.1-2.9,16.6-2.6,14.4-9,31.1-14,45.1-9.4,26.7-19.7,48.1-35.6,71.4-1.2,1.8-2.4,4.5-3.5,6-1,1.3-3.4,2.1-4.3,3-1.4,1.4-1.9,14.5-5.2,14.5h-104.2c-.2,0-1.4-.9-1.5-1-1.1-.3-3-2.2-4.5-2-.2-.3-.3-.8-.5-1-1-2,.4-3,1.5-4.5.1,0,.4,0,.5,0h0ZM280.5,133.2c2.4,1.5,5.8,5.5,8.5,1.7,3-4.2-3-8.6-6.1-10.4-19.3-11.4-51.7-.9-65.3,15.7-1.1,1.3-2.3,2.5-2,4.4,2.7,2.2,5.5-1.5,7.7-2.8,5.5-3.4,12.4-7.5,18.4-10.2,12.9-5.6,26.9-6,38.8,1.5h0ZM329.3,130.5c-11.5-.2-16.8,4-22,13.6-9.7,17.7-7.1,33.9-5.4,53.1.2,2.9,1.7,4-.3,7.3-3.2,5.1-12.7.1-17.5.1-1.2,0-6.9,1.4-8,1.9-3.8,1.6-3.1,7.8,1.1,8.5,4.6.8,7-3.4,12.5-.9,2.1.9,2.6,3.4,5.5,3.5,2.5,0,3.9-2,5.6-2.4,1.8-.4,3.9.2,5.8-.2,3.5-.7,5.5-5.4,5.4-8.7-.3-19.7-7.6-40.8,1.4-59.7,2.8-5.8,10.6-9,16.8-8.6,3,.2,13.1,5.7,14.3,1.1.3-1-.5-1.6-1.2-2.1-3-2.5-10-6.3-13.9-6.4h0ZM272.4,161.8c3.7,2.6,7.2.8,6.1-3.9-.9-3.7-7.4-9.9-10.9-11.2-16.6-6.2-28.7,6.9-41.8,14.7-3.2,4.6,1.3,5.4,5,3.5,2.8-1.4,4.1-3.5,8.1-4.4.9-.2,1.8-.1,2.6-.1-3.3,14.4,20.1,14.3,21,1.2.2-3.6-3.5-7.7,3.1-5.5,3.8,1.2,4,3.9,6.6,5.7h0ZM283.2,228.7c-3.9.4-9,3.3-13,4.5-2.2.7-7,.3-6.4,4.1.8,5.6,16.5.8,20.3,1.3,2.6.3,4.5,2.5,7.5,2.6,2.8,0,4.9-1.8,7.5-1.6,2.5.2,3.6,2.4,6.5,2.6,2,.1,3.9.2,4.6-2,.9-3-1.7-2.9-3.3-4.2-2.9-2.4-3.2-6.4-8.2-5.8-3.2.4-3.5,3.5-8.2,1.1-3.4-1.8-2.3-3-7.3-2.5h0ZM275.4,254.5c.4.4,5.8,2,6.7,2.1,2.7.3,9.9.7,12.5.6,3.4-.2,7.6-2.7,4.8-6.3-2.7-3.4-7.6-1.4-11.2-1.8-1.8-.2-3.9-1.4-5.5-1.4-1.4,0-5.8,1.3-6.8,2.2-1.1,1-1.3,3.7-.4,4.6h0ZM394.9,343.9c-15.3.8-29.4,13.5-23.3,29.5,4.8,12.8,19.4,16.1,31.5,12.2,26.7-8.5,21.2-43.3-8.2-41.8h0ZM439.1,352.3c-4.5-1.8-11.5-.6-13.5,4.2,1.8,2.2,4.5,1.1,6.9.4,2.3-.7,6.3-1.9,6.6-4.6Z"/>
  <path class="st0" d="M1.3,510.1c3.7-9.5,4.6-19.8,7.3-29.5,3.9-14.3,13.1-41,21.4-52.8,2.8-4,6.8-7.8,9.9-11.6,7.2-8.9,9.5-14,20.5-19.5,7.2-3.6,16.9-4,22.5-8.5,7.6-6.1,7.1-14.6,17.7-20.8,6.9-4,14.2-3.1,20.1-6,2.7-1.3,5.4-5,8.2-6.9,3.8-2.5,9.6-4.7,14.1-5,.7,0,5.4.2,5.8.4.7.2.8,1.9.2,2.4-2.6,1.3-5.4,3.3-7.6,5.1-9.8,8.1-15.6,20.5-18.2,32.9-3.8,18.2.3,35.1,5.2,52.6,10.3,36.6,23.2,64,51.5,89.8,1.1,1,1.9,2.7,3.2,3.5.2.2.3.3.5.5,3,3,30.8,30.5,22.8,30.5h-69.5c-1.2,0-7.6.3-8,0-.2-.1-6-10.4-6.3-10.8-9.6-14.2-18.6-38.1-22.9-54.8-7.4-28.8-7.7-54.2-2.7-83.3,2-11.4,4.4-22,8.9-32.7l-.8-2.2c-2.4-.5-7.2,8.4-8.1,10.4-21,44.3-11.1,103.9,5.8,147.8,1.6,4.2,6.9,12.2-1.1,11.1-7.6-1-15-5.2-21.1-9.5-17-12-35.5-32-58.1-32.1-8,0-3.9,4.9.9,6.7,4.1,1.5,9.1,3.2,13.1,5,3.4,1.5,7.4,4.4,10.8,6.2,1.8,1,6.2,1.8,6.4,4,.1,1.2-1.8,3.3-.2,4.3,32,20.7,19.9,29.9,17,29.9H5.2c-7,0-5.2-47.4-4.2-52.2.2-1,.3-2.4.3-3.4v-.5l.5-.2-.5-.2c0-.2,0-.3,0-.5h0ZM81.9,406.4c-7.8.4-16.3,5.2-22.5,9.8-5.5,4.1-12,11.1-16.6,16.5-11.5,13.7-20.3,35.9-24.3,53.3-.4,1.6-2.3,9.8-1.2,10.5,1.9-.2,2.9-2.6,3.7-4.1,5.8-10.4,10.3-23.6,16.1-34.5,7.9-15.1,19.4-30.1,32.9-40.8,1.3-1,14-8.9,12-10.8h0Z"/>
  <path class="st0" d="M65.8,272.7c1.8-.5,7.3,4,9.3,5,16,8.6,36.8,13,54.7,9.5,4.5-.9,9.7-3,14.2-4.3,1.4-.4,2.9-1.9,4.4-2.1,5-1,4.4,1.8,6.9,4.4,2.4,2.5,6.6,5.6,10.1,5.9,2,.2,3.9-.7,5.4-.5,3.1.5,2,5.2,2.3,7.2.7,4.1,1.7,8.4,2.6,12.5.8,3.6,3.1,9.5,3.4,12.7.3,3.9-2.1,3.7-4,5.4-4.3,3.9-8.6,9.8-13.1,13.5-.6.5-3.7,1.9-4.5,2.1-2.9.6-7-1.9-10.3-2.2-4.7-.5-11.9.6-16.2,2.7-4,2-8.2,7-12.3,8.7-5.6,2.4-13.3,2.3-19.7,5.3-11.4,5.4-11.6,11.4-17.8,20.3-3.3,4.8-5.3,3.5-10.1,5-1.8.5-6.5,2.9-8,2.4-2.3-.8-.3-6.7-.3-8.3.2-14.9-.5-30.1,0-45.1.5-17.2,2.4-33.6,2-51.1,0-2.1-1.8-8.4.8-9.2h0Z"/>
  <path class="st0" d="M169.6,32.2c8.5-8.5,22.5-15.4,33.9-19.4,7.9-2.8,9-.2,16,.3,7.4.6,14.9-6.3,21.7-9.1,8.2-3.3,14.8-4.3,22.9-1,2.3,1,4.6,2.7,7,3.5,14.3,4.7,26.3-12.9,41.6-4,4.9,2.9,5.8,7.4,9.6,10.1.2.1.3.4.5.5,0,1.4.7,1.2,1.5,1.5.1.2-.3.6.3,1,3.7,3,12.3,1.5,16.8,2.1,1.8.2,6.1,1.1,7.8,1.7,2.1.7,4.3,2.6,4.8,4.8.9,4-5,10.1-4.6,11.5.6,2.5,9.5,2.7,12.5,4.1,7.9,3.7,12.5,15.2,11.9,23.5-.2,2.4-1.2,4.9-1.4,7.1-.7,7.1,3.7,7.7,8,11.3.2.2.6.7,1,1l3.5,5.8c2.9,7.3,2.9,13.7-1.6,20.4-1.3,2-4.9,5-5.9,6.7-1.2,2.2-.8,7.5-4.8,2.6-4-5,1.1-9.9,1.1-14.2,0-4.4-2.9-9.2-6.9-11.1-3.8-1.7-7.6-.6-10.3-4.8-4.1-6.3,4.2-11.1,4.8-18.2,1.1-14.5-13.5-18.7-24.9-13.4-4.3,2-6.2,6.2-10.1,8.4-3.6,2.1-6.6,2.6-10.7,1.7-1.9,2,.6,3.8,2.3,4.6,9.5,4.8,14.8-6.9,23.1-8.7,5.2-1.2,11,0,12.4,5.8,2.1,8.9-6,10.3-8.1,17.6-1.7,5.9,4.2,11.7,9.9,12.2,1.4.1,2.3-.4,3.3-.4,5.6.2,9.4,4.8,9.8,10.2.5,6-3.5,8,.2,14.3,3.6,6.2,7.9,2.6,13.2,4.3.4.1,3.4,1.5,3.6,1.7,0,0,0,.6.2.8.5.4,2.7,2,2.8,2.2.4.7,1.7,5.4,1.9,6.4.1,1.3.3,2.5.1,3.8-.7,5-8.2,13.8-12.7,15.9-1.5.7-5.1,1.2-6,1.9-.6.4-.2.7-.3,1.1-.2,0-.8-.1-1,0s0,.7,0,1c-.2,0-.6-.1-.9,0-.2.2-2,4.2-2.1,4.7-.3,2.8,2,7.6,2,10.9,0,2.7-1.2,6.2-3,8.3-.1.2-.3.3-.5.5-1.4,1.4-3.4,2.3-5,3.5-.6.4-1.1,1.2-2,1.5-1.4-.4-3.9.8-4-2.2,0-2,2.8-4.4,3.5-6.5,2.2-6.6-2.8-8.4-3.5-13.6-.8-5.6.4-13.9,2.9-19.1,3.6-7.6,7.8-2.8,13.6-4.9,3.9-1.4,4-5.1-.3-6.3-1.6-.5-2.4.1-3.9,0-5.3-.7-10-6.8-10.8-11.8-.4-2.4.4-3.6.4-5.4,0-4.4-3.3-10.3-7.5-12-4.1-1.7-7.9.8-12.3-2.2-7.2-5-4-12.8-9.8-18.3-1.9-1.8-5.5-3.8-8-4.1-2.1-.2-4,.8-5.8.8-3.8,0-8.6-2.6-11-5.6-3.5-4.4.1-4.4,2-7.9,1-1.8,1.9-5.4,2.5-7.5.5-1.7,2.2-8.1,2.2-9.3,0-1.2-1.1-2-1-3.2l-4.2,3.5c-2.5,10.2-9.3,20.3-18.7,25.4-15.7,8.6-24.7-5.8-39.4-3.9-6.3.8-13.8,4.9-17.2,10.3-4.1,6.5-1.7,12.9-8.9,19.2-8,7-14.4,1.4-22.8,5.3-8,3.7-13.6,10.7-12.4,19.9.5,4,3.2,6.9,2.8,11.1-.8,8.3-9.7,15.4-17.9,13.5-3.1-.7-6.9-3.7-9.9-4.1-20.2-3.1-27.2,25.9-13.7,38.2,2.2,2,5.1,2.5,6.9,5.1,3.3,4.9-.2,10.8,5.4,16.7,4.1,4.3,10.6,3.7,11.6,10.4.2,1.3.2,2.6.1,3.9-.3,13.5-1.5,34.6,1.6,47.4.5,2.1,2.5,3.1,2.4,5.6,0,1.3-.9,3-2.3,3.3-.5,0-6.2-1-6.7-1.3-1-.6-3.7-3.5-4.6-4.5-.8-.9-3.2-4-3.6-4.9-.6-1.4-1.2-3.7-1.2-5.2,0-3.7,2.2-4.9-.9-8.7-2.8-3.4-5.1-1.5-8.9-2.1-6-1-11.9-6.2-14.3-11.7-2.3-5.2-2.8-9.2-.6-14.6,1.6-4.1,6.3-7,2.8-11.6-1.7-2.3-8.8-3.6-11.8-6.3-1.1-1-5.1-6.7-5.9-8.2-2.8-5.9-2.9-12.9.9-18.3,1.3-1.9,3.9-2.1,3.3-5.4-.6-3.9-5.4-4.9-8.2-7.4-7.6-6.9-8-17.5-5.4-26.9,1-3.6,3.3-7,3.2-10.9-.1-5.8-4.6-10-6.4-15.1-3.8-10.5-.9-21.6,7.2-28.7,3.4-3,7.9-3.1,10.6-7.9,2.4-4.3,1.2-7.4,1.7-11.8.6-5.6,4.8-13,8.5-17.3.1-.2.3-.3.5-.5,4.6-5,10.2-7.3,16.9-8.4,2-.3,5,.6,6.1-1.1.2,0,.3,0,.5,0,7.8-.8,9-6.2,13.5-11,.2-.2.3-.3.5-.5h0ZM303.7,12.3c-13.3,4.2-24.7,7.5-35.7,16.5-3.4,2.7-7.9,8.2-11.3,10.2-1.9,1.1-5,1.4-7.2,2.3-2.2.9-9.4,5.3-3.1,5,3.9-.2,7.3-1.5,10.6-2,3.5-.4,7,0,10.8-.7,13.1-2.1,26.1-11.2,33.4-22.2.5-.7,3.8-6.7,3.9-7.1.3-1.3,0-2.3-1.5-2.1h0ZM250.7,13.2c-.5-.3-1.8.1-2.3.4-12.6,5.3-24.4,14.5-30.8,26.8-2.6,4.9-4.1,11.6-8.1,15.7-2.7,2.7-10.1,6.2-11.6,9.2-1.1,2.4.3,2.2,2.3,1.8,4.4-1,11.5-4.3,15.7-6.3,2.3-1.1,4.9-3.7,7.6-3.9,6.6-.4,16.3,5,22.7,6.8,13.2,3.7,26.7,2.9,38.4-4.7.9-.6,2.9-1.9,1.5-3-.3-.2-5.3-2.2-6.2-2.5-13.5-5.2-24.4-4.7-38.4-2.6-3.4.5-7.2,1.5-10.6,2.5-1.8.2-2.1-1.6-1.5-3,6.6-5.4,13.4-13.3,16.9-21.2,1.2-2.6,4.3-11.3,4.7-13.9,0-.5,0-1.8-.3-2h0ZM136,83.8c-.4-.3-1.7,0-1.9.8-6.3,12.6-13.2,22.1-12.1,37,.3,3.6,2.9,10.3,2.5,13-.4,2.3-3.9,7.2-5,10-2.9,7.8-3.2,17.1,4.8,21.8,2.8-2.6-.2-6.6-.2-9.8-.3-13.4,14.8-24.1,27.3-23.8,3.1,0,4.4,1,8,0,2.1-.6,7.7-4.2,7.3-6.7-.4-2.3-1.8-.6-2.9-.4-7,1.4-7.8-.9-13.4-1.4-2.9-.2-10.6,2.8-8.2-1.7.4-.8,5.1-6,5.9-6.6,3.3-2.4,3.4-1,6.3-1.2,13.7-.9,23.9-2.7,34.3-12.3,1.2-1.1,4.2-3.6,1.2-4.2-6.3-1.3-17-.6-23.2,1.3-2.1.7-7.3,3.8-8.9,3.7-.6,0-.9-.3-1.3-.8-.1-.6.8-1.8,1.2-2.2,5.2-4.8,12.8-8.6,18.1-13.4,5.1-1.6,8.4.3,13,.8,17.5,2.1,26.8-3.2,39.5-14,.9-.7,2.8-1,2.8-2.2,0-.6-.4-.9-.8-1.2-.7-.5-6.1-1-7.5-1-7.9-.4-15.9.5-23.3,3.3-2.6,1-13,6.7-14.7,6.2-1-.3-2-2.3-1.6-3.4.7-2,6.8-8,8.5-10.6,7.7-11.9,7.5-21.5,5.3-35.2-.9-5.8-5.1.5-6.4,2.6-8.5,13.2-16.3,26.2-17.2,42.4-2.5,7-7.5,11.8-12.7,16.9l-1.2-.8c2-7.1,4.6-13.8,4-21.5-.2-2.9-1.4-10.7-2.2-13.3-.7-2.1-1.6-1.7-2.7-.1-4.7,6.7-10.5,20.3-10.6,28.5-.1,9.4,3.1,13.8-1.8,23.2-2.4,4.6-5.1,6.9-7.1,12-.2.6-1.8,1.2-2.1,2.5-.4,2.1,1.8,3.3.2,5.2-.2.3-5.3,3.3-5.6,3.4-3.8.6.8-7.8,1.4-9.1,2.9-7.1,4.9-13.7,5-21.6-.6-2-1.2-15.2-2-15.8h0ZM317.3,31.3c-8.5.3-15.2,4.1-22.7,6.9-1.5.6-13.2,2.7-8.1,5,1,.5,3.8,1,5.2,1.3,15.9,4,27.3,4.1,41.5-4.8,1.9-1.2,8.2-4.7,3.3-6-4.8-1.2-14.4-2.7-19.2-2.5ZM131.8,191c-4.7,3.5-2.3,11.6,2.3,14.2,1.4.8,6.6,2.4,5.8-.7-.5-1.9-5.1-3.6-6.2-7.4-.6-2,0-4.8-1.9-6.1h0ZM155.7,237.9c-2.2-2.7-3.6-4.8-3.1-8.6.2-1.5,2.1-4,0-5.1-2.6-1.3-4.2,3.3-4.8,5.3-1.7,6.1,3.1,13.1,9.8,12,.7-2.7-.9-2.6-1.8-3.7h0Z"/>
  <path class="st0" d="M443.5,567.3c-4-1,1.2-13.6,1.8-15.7.4-1.5.5-3.1.4-4.7-.5-5.2-7.1-8.6-2.3-14.3,1-1.2,8.4-5.5,10.3-6.7,7.4-4.4,10.4-5.1,18.3-7.8,9-3,16.1-10.2,24.8-13.3,7.3-2.6,4.6,7.7,5,12.5.5,5.7,3.7,13.9,1.7,19.3-2,5.4.8,30.5-3.9,30.5h-17.4c-5.4,0-13.1.1-19.1.1s-18,.4-19.6,0h0Z"/>
  <path class="st0" d="M431.4,265.7c1.4-.3,2.1,1.1,2.5,2.2-.7,17,1.1,34,1.1,51,0,2,.9,3.9-.2,6.2s-4.5-.5-6.1-.9c-5.8-1.4-9.9-.6-15.4-.7-3.8,0-7.8-8.2-10.5-11-14.2-14.1-33.7-7.9-50.8-4.2-2.1.5-3.2,1.8-5.5.8-4-1.8-8.9-13-10.4-17.2-2.6-7.5-3.9-15.5-4.7-23.3,0-1.1,1.6-2.3,2.7-2.2,1.3.1,7,3.8,9,4.6,25.1,10,51.3,7.3,76.4-1,4.1-1.3,8.1-2.9,12-4.6h0Z"/>
  <path class="st0" d="M497.7,370.8c-3.2,2-2,.5-3.7-1-.4-.4-1.1-.3-1.3-.5-5.6-4.3-5.7-7.4-9.5-12.8-2.4-3.4-7.1-8.3-10.9-10.2-2.3-1.1-5.9-1.1-6.6-4-.1-4.5,0-9,0-13.4-.9-21.9-1.4-44.1-2-66.1-.2-7.8-1-16.1-1.1-23.6,0-2.5,1.4-4.6,0-7.4-2.5-4.8-9.2-.2-9.8,3.6-1.8,9.8,1.1,18.3,1.9,27.9,1.3,16.9.5,35,1,52.1.2,6.9,1.7,15.9,1,22.5-.1,1-.5,2.9-1.8,3.1-.3,0-5.3-1.1-5.5-1.3-.4-.2-5.1-6.3-5.2-6.8.8-21.6-1.2-43.4-1.5-65.1,0-3,1-9.4,0-11.5-2.6-5-7,0-9.9,1.5-10.5,5.1-25.8,9.2-37.4,10.7-4.7.6-13.6,1.8-18,1.6-1,0-.8-1-1-1.1-1.5-.4-1.2,1-1.5,1-1.5.4-1.1-.9-1.6-1-7.8-2.1-17.1-2.8-25.2-5.3-3.4-1-7-3.1-10.5-4.1-1.8-3.1,1.7-5.1,2.7-7.3.7-1.5.3-5.2,2.6-5.4,1.9-.2,5.1,2.3,7.2,2.8,23.3,5.7,38.8,5,61.7-1.9,1.4-.4,3.3-.9,4.4-1.9.1,0,.4,0,.5,0,6-1.8,15.7-6.8,20.5-10.8,1.9-1.6.9-4.5,2.4-7.1.4-.8,4.7-4.6,5.5-5.1,12-7.2,26-6.8,39.5-8.9,1.7-.3,8.3.7,10.2,1.1,2.5.6,5.5,2.8,6,5.6.7,4.4-2.2,6.4-3.5,10-5.5,14.6-2.9,23.1-2,37.6.2,3.4-.6,6.5-.6,9.5.2,19.9,3.8,39.2,3.4,59.5,0,2.1-.8,5.2-.9,7.1,0,6.7,2,15.5,1.5,22.1-.1,1.7-.9,2.6-1,4.2h0Z"/>
  <path class="st0" d="M486.6,197c.2.2.3.3.5.5,2.6,2.6,4.8,5.6,2.4,9.2-2.1,3.3-5.9.7-9.2.8-4.9,0-15.1,1.1-19.8,2.3-4.3,1-6.6,5.2-10.5-.2,0-.1,0-.3,0-.5-.1-2.6,2.3-7.3,4.1-9.2,5.5-5.7,20.8-2.7,28.2-4.2l4.3,1.3h0Z"/>
  <path class="st0" d="M454.1,189.5c-5.2-4.9-2-14,.8-19.5,1.4-2.7,3.8-4.3,4.9-6.6,2.1-4.2,2.2-11,8.6-11.3,6-.3,7.8,8.4,10.5,12.3,3.9,5.7,10.3,9.8,9.1,17.9-.3,2-3.6,8-5.7,8.3-1.9.3-7.2-.9-9.5-1-2.7-.1-6.4-.3-9,0-2.3.2-5.3,2.1-6.5,2-.2,0-3.1-1.9-3.2-2h0Z"/>
  <path class="st0" d="M394.4,351.4c4.3-.3,10.5,1.1,13.6,4.2,12.9,12.7-5.9,28-20.5,22.5-16.1-6.1-9.8-25.5,6.9-26.6h0Z"/>
  <path class="st0" d="M8.8,279.7c.2-14.5,1.1-31.5-3.2-45.7-1-3.5-4-7.9-3.9-11.1,0-.8,1.3-4,1.8-4.3,3.7-2.6,16.4-.2,21,.5,7.8,1.2,20.2,2.8,26.8,6.8,2.7,1.6,7,5.1,7.8,8.2.9,3.3-.7,3,2.3,5.7,11.8,10.8,48,21.7,63.8,21.9,3,0,6.2-1,9.5-.5,2,.3,4.3,2.5,6.1,2.9,2,.4,5.8-.7,6.5,2,.1.5.6,4.4.6,4.9,0,3.1-3.4,2.3-5.2,2.9-7.6,2.1-14.1,4.5-22.2,4.7-15.1.4-35.9-6.5-49.1-13.7-2.8-1.5-10.9-8.2-13.4-8-2.1.2-2.7,3.3-2.8,5.1-.5,5.6.5,12.3.5,18.1,0,7.6,0,15.4,0,23-.1,8.2-1.6,16.2-1.5,24.5.1,18.6-.3,36.4-1.5,55.1-.2,2.6.9,7.5-1,9.5-.5.5-1.6.7-2.2,1.3-3.4,3.1-7.1,8.8-6.8-.3,1.1-31.9,2.8-63.8,2.6-95.7-.1-16.2.7-32.4,0-48.6-.1-3,.3-6.6,0-9.5-.5-4.1-8.7-8.3-8.6-1.5,0,5.8,1.3,11.3,1.1,17.5-.4,8.2-.6,12.1,0,20.5.5,6.8-1.3,14.3-1,21.5,1.4,34-.2,67.2-2,101.1-.1,2.2.5,5.1.1,7.1-.5,2.9-5.5,7.6-7.3,10.2-4.9,7-10.3,15.9-14,23.6-2.8,5.8-4.5,12-7.8,17.5-1.3-.3-1-.6-1.5-1-1-3.5,0-6.5,0-9.8.9-34.3,5.9-67.7,5.5-102.2,0-.9.3-2.2-.5-2.8,0-.3,0-.7,0-1,.1-8.8.4-18.3.5-27.3.2-11.1-1.2-21.6-1-32.8v-.5h0Z"/>
  <path class="st0" d="M20.3,163c.8-.9,1.9-1.4,2.7-2.5,2.1-2.9,3.5-8.6,8.1-8.8,1.6,0,4.2,1.7,5,3,1.3,2.2,2.3,5.8,4,8.3,1.8,2.7,5.4,5.3,7.2,7.8,5.6,7.9,5.1,14.9,0,22.8-1.4.1-1.7,1.5-3.2,1.6-1.6,0-6.3-3.1-8.9-3.7-3.6-.9-9.5-1.2-13.1-.8-3.8.5-3,2.1-7.3.4-2-5.2-5-5.1-4.5-12.5,0-.2,0-.3,0-.5l.5-1c0-.2,0-.4,0-.5,2.8-2.7,3.6-7,5.8-10,.9-1.3,2.2-2,3.2-3,.2-.2.3-.3.5-.5h0Z"/>
  <path class="st0" d="M9.8,203c0-.2,0-.4,0-.5l1-1c0-.1,0-.4,0-.5,1.3-1.3,6-4,7.8-4.1,1.7,0,3.3.9,5,1,7,.6,11.9.8,18.8,3.3,3,1.1,7.1,5.3,7.5,8.6.3,2.4.2,3.7-1.5,5.4-3.3,3.5-5.4.2-9-.9-8.6-2.9-15-3.6-23.8-2.3-5.5.8-6.9-4.5-5.7-9h0Z"/>
</svg>