<?xml version="1.0" encoding="UTF-8"?>
<svg id="_图层_1" xmlns="http://www.w3.org/2000/svg" xmlns:xlink="http://www.w3.org/1999/xlink" version="1.1" viewBox="0 0 72.8 527.2">
  <!-- Generator: Adobe Illustrator 29.1.0, SVG Export Plug-In . SVG Version: 2.1.0 Build 142)  -->
  <defs>
    <style>
      .st0 {
        fill: none;
      }

      .st1 {
        fill: #0655bc;
      }

      .st2 {
        clip-path: url(#clippath);
      }

      .st3 {
        fill: #eceae7;
      }
    </style>
    <clipPath id="clippath">
      <rect class="st0" x="0" width="56.2" height="527.2"/>
    </clipPath>
  </defs>
  <g class="st2">
    <g>
      <polygon class="st3" points="61.2 3.1 64.3 6.1 63.9 7.9 67.5 12.3 70.9 19.8 65.1 23.7 59.9 24.7 56.2 24.9 56.2 27.3 56.2 513.7 56.2 514.6 57.4 518.8 59.1 519.6 59.1 521.2 14.2 522.9 13.5 519.6 16.9 515.2 16.9 509.9 16.9 23 12.1 24.6 3.7 22 3.2 15.6 6 10.1 8.9 8.2 8.7 6.1 11 3.4 61.2 3.1"/>
      <g id="zpTJVo">
        <path class="st1" d="M8,0h57l-.8,6.1-1.4-.2H10.6l-1.9.2c-.2-.6-.2-1.2-.2-1.8-.1-.9-.4-2-.5-2.9,0-.3-.2-1.3.1-1.4h0ZM3.5,9.7c2.1-2.1,4.6-2.8,7.6-2.9,11.7-.5,23.6.6,35.3,0,5.4.3,11-.3,16.3,0,7,.4,12.2,8.5,9.2,15-2.4,5.2-8.1,7.6-13.5,5.3-3.4-1.5-5.8-6.4-4.5-10,.4-1,2.1-3.7,3-4.2,2.7-1.4,5.3-1.5,7.9.4,3.9,2.8,2.2,9.7-3,9.1-1.6-.2-2.5-1.1-2.7-2.7,0-.5.2-1.8-.4-1.8-.9,0-.5,2.2-.3,2.8.4,1.6,1.8,2.5,3.3,2.7,6.3.8,8.3-8,3-11-2.9-1.7-5.4-1.5-8.4,0-13.1,0-26.3,0-39.4,0-.2,0-.5,0-.7,0-.5,0-2.3-1.2-3.7-1.3-4.8-.3-8.9,3.3-7.7,8.4,1,4,7.8,5.3,9.4,1.2.2-.5.7-3.2-.4-2.6-.3.2-.2,1.6-.4,2.2-1,3.2-6.3,2.4-7.4,0-2.6-5.6,4.3-9.9,8.8-7.4,6.8,3.8,4.6,14.1-3.2,15.3C.8,29.4-3.7,16.9,3.5,9.7h0ZM45.8,13h9.7c-1.1,1.5-2.4,3.1-2.8,5,0,.3,0,.7-.2.9h-6.7v-5.9h0ZM36.9,13h8.1v5.9h-8.1v-5.9ZM28,13h8.1v5.9h-8.1v-5.9ZM17.2,13h9.7s.2.2.2.2v5.5s-.1.2-.2.2h-7c-.1-1.6-.7-3.1-1.6-4.5l-1.1-1.4h0ZM49,19.8h3.8c0,1,.4,2.1.8,3.1.3.8.9,1.9,1.5,2.6.2.3,1.2,1.2,1.2,1.3v486.9h-7.2V19.8h0ZM48.1,19.8v494h-7.1V19.8h7.1ZM40.1,19.8v494h-7.1V19.8h7.1ZM32.1,19.8v494h-7.1V19.8h7.1ZM19.9,19.8h4l.2,494h-7.2v-.8c0-9.5,0-472.1,0-481.6,0-1.6.2-3.3.1-5,1.4-1.5,2.3-3.2,2.8-5.1,0-.2,0-1.3.1-1.4h0ZM13.5,514.6h45.5v5H13.5v-5ZM10.5,520.5h51.6v6.7H10.5v-6.7Z"/>
      </g>
    </g>
  </g>
</svg>