<?xml version="1.0" encoding="UTF-8"?>
<svg id="_图层_1" xmlns="http://www.w3.org/2000/svg" xmlns:xlink="http://www.w3.org/1999/xlink" version="1.1" viewBox="0 0 100.1 558.9">
  <!-- Generator: Adobe Illustrator 29.1.0, SVG Export Plug-In . SVG Version: 2.1.0 Build 142)  -->
  <defs>
    <style>
      .st0 {
        fill: none;
      }

      .st1 {
        fill: #0655bc;
      }

      .st2 {
        clip-path: url(#clippath);
      }

      .st3 {
        fill: #eceae7;
      }
    </style>
    <clipPath id="clippath">
      <rect class="st0" y="0" width="77.3" height="558.9"/>
    </clipPath>
  </defs>
  <g class="st2">
    <g>
      <polygon class="st3" points="84.2 4.2 88.4 8.4 88 10.9 92.8 17 97.5 27.2 89.5 32.6 82.4 34 77.3 34.3 77.3 37.6 77.3 540.4 77.3 541.7 78.9 547.4 81.2 548.5 81.2 550.8 19.5 553 18.6 548.5 23.2 542.5 23.2 535.2 23.2 31.6 16.7 33.8 5 30.2 4.4 21.5 8.3 13.8 12.3 11.3 11.9 8.4 15.1 4.7 84.2 4.2"/>
      <g id="zpTJVo">
        <path class="st1" d="M11.1,0h78.4l-1.1,8.4-1.9-.3H14.6l-2.6.3c-.3-.8-.2-1.7-.3-2.5-.2-1.3-.6-2.7-.7-4,0-.4-.3-1.8.2-1.9h0ZM4.8,13.3c2.9-2.9,6.3-3.9,10.4-4,16-.7,32.5.8,48.6,0,7.4.4,15.1-.4,22.5,0,9.7.6,16.8,11.7,12.7,20.7-3.2,7.1-11.2,10.5-18.5,7.2-4.7-2.1-8-8.9-6.2-13.8.5-1.4,2.9-5.1,4.2-5.8,3.7-1.9,7.3-2,10.8.5,5.4,3.8,3.1,13.3-4.1,12.5-2.2-.3-3.5-1.5-3.7-3.8,0-.7.3-2.4-.5-2.5-1.2,0-.6,3.1-.4,3.8.6,2.2,2.4,3.4,4.6,3.7,8.7,1.1,11.4-11,4.1-15.1-4-2.3-7.5-2-11.5,0-18.1,0-36.2,0-54.2,0-.3,0-.7.1-.9.1-.7,0-3.2-1.7-5-1.8-6.7-.5-12.3,4.6-10.6,11.5,1.3,5.5,10.7,7.3,12.9,1.6.3-.7.9-4.5-.5-3.6-.4.2-.4,2.3-.6,3-1.4,4.4-8.6,3.3-10.2-.1-3.6-7.7,5.9-13.6,12-10.2,9.4,5.2,6.3,19.5-4.4,21C1.1,40.4-5,23.2,4.8,13.3h0ZM63.1,17.9h13.3c-1.5,2.1-3.2,4.3-3.8,6.8-.1.4.1,1-.3,1.3h-9.2v-8.1h0ZM50.7,17.9h11.1v8.1h-11.1v-8.1ZM38.5,17.9h11.1v8.1h-11.1v-8.1ZM23.7,17.9h13.4s.2.2.2.2v7.6s-.2.2-.2.2h-9.7c-.2-2.2-.9-4.3-2.2-6.1l-1.5-2h0ZM67.3,27.2h5.2c0,1.4.5,2.9,1,4.2.5,1.1,1.3,2.7,2,3.6.3.3,1.6,1.6,1.6,1.9v503.5h-9.9V27.2h0ZM66.1,27.2v513.2h-9.8V27.2h9.8ZM55.1,27.2v513.2h-9.8V27.2h9.8ZM44.1,27.2v513.2h-9.8V27.2h9.8ZM27.3,27.2h5.6l.2,513.2h-9.9c0-.5,0-.6,0-1.2,0-13.1-.1-483.2,0-496.3,0-2.3.3-4.6.1-6.9,1.9-2,3.2-4.3,3.8-7.1,0-.3.1-1.8.2-1.9h0ZM18.6,541.7h62.6v6.9H18.6v-6.9ZM14.5,549.7h71v9.2H14.5v-9.2Z"/>
      </g>
    </g>
  </g>
</svg>