<?xml version="1.0" encoding="UTF-8"?>
<svg id="_图层_1" xmlns="http://www.w3.org/2000/svg" xmlns:xlink="http://www.w3.org/1999/xlink" version="1.1" viewBox="0 0 89.8 530.6">
  <!-- Generator: Adobe Illustrator 29.1.0, SVG Export Plug-In . SVG Version: 2.1.0 Build 142)  -->
  <defs>
    <style>
      .st0 {
        fill: none;
      }

      .st1 {
        fill: #0655bc;
      }

      .st2 {
        clip-path: url(#clippath);
      }

      .st3 {
        fill: #eceae7;
      }
    </style>
    <clipPath id="clippath">
      <rect class="st0" y="0" width="69.3" height="530.6"/>
    </clipPath>
  </defs>
  <g class="st2">
    <g>
      <polygon class="st3" points="75.5 3.8 79.3 7.5 78.9 9.8 83.3 15.2 87.5 24.4 80.3 29.3 73.9 30.5 69.3 30.7 69.3 33.7 69.3 514 69.3 515.1 70.8 520.3 72.9 521.3 72.9 523.3 17.5 525.3 16.7 521.3 20.8 515.9 20.8 509.3 20.8 28.3 15 30.3 4.5 27.1 3.9 19.3 7.4 12.4 11 10.1 10.7 7.5 13.5 4.2 75.5 3.8"/>
      <g id="zpTJVo">
        <path class="st1" d="M9.9,0h70.4l-1,7.5-1.7-.3H13.1l-2.4.3c-.3-.7-.2-1.5-.3-2.2-.2-1.2-.5-2.4-.6-3.6,0-.4-.2-1.6.2-1.7h0ZM4.3,12c2.6-2.6,5.7-3.5,9.3-3.6,14.4-.6,29.2.7,43.6,0,6.6.3,13.5-.4,20.1,0,8.7.5,15.1,10.5,11.4,18.5-2.9,6.4-10,9.4-16.6,6.5-4.2-1.8-7.2-8-5.5-12.3.5-1.2,2.6-4.6,3.7-5.2,3.3-1.7,6.6-1.8,9.7.4,4.8,3.4,2.8,12-3.7,11.2-2-.2-3.1-1.4-3.4-3.4,0-.6.2-2.2-.5-2.2-1,0-.6,2.8-.4,3.4.5,2,2.2,3,4.1,3.3,7.8,1,10.2-9.8,3.7-13.6-3.6-2.1-6.7-1.8-10.3,0-16.2,0-32.4,0-48.6,0-.3,0-.6.1-.8.1-.6,0-2.8-1.5-4.5-1.6-6-.4-11,4.1-9.5,10.3,1.2,5,9.6,6.5,11.6,1.5.2-.7.8-4-.5-3.2-.3.2-.3,2-.5,2.7-1.2,4-7.7,3-9.1-.1-3.2-6.9,5.3-12.2,10.8-9.1,8.4,4.7,5.7,17.4-4,18.9C1,36.2-4.5,20.8,4.3,12h0ZM56.6,16h11.9c-1.3,1.8-2.9,3.8-3.4,6.1,0,.4.1.9-.2,1.1h-8.3v-7.3ZM45.5,16h10v7.3h-10v-7.3ZM34.5,16h10v7.3h-10v-7.3ZM21.2,16h12s.2.2.2.2v6.8s-.2.2-.2.2h-8.7c-.1-2-.9-3.9-2-5.5l-1.3-1.8h0ZM60.4,24.4h4.7c0,1.2.5,2.6.9,3.8.4,1,1.2,2.4,1.8,3.2.2.3,1.5,1.5,1.5,1.7v480.9h-8.9V24.4ZM59.3,24.4v489.6h-8.8V24.4h8.8ZM49.5,24.4v489.6h-8.8V24.4h8.8ZM39.6,24.4v489.6h-8.8V24.4h8.8ZM24.5,24.4h5l.2,489.6h-8.9c0-.5,0-.6,0-1,0-11.7-.1-462.7,0-474.4,0-2,.3-4.1.1-6.2,1.7-1.8,2.9-3.9,3.4-6.3,0-.3.1-1.6.2-1.7h0ZM16.7,515.1h56.2v6.2H16.7v-6.2ZM13,522.4h63.7v8.2H13v-8.2Z"/>
      </g>
    </g>
  </g>
</svg>