<?xml version="1.0" encoding="UTF-8"?>
<svg id="_图层_1" xmlns="http://www.w3.org/2000/svg" xmlns:xlink="http://www.w3.org/1999/xlink" version="1.1" viewBox="0 0 301 361.2">
  <!-- Generator: Adobe Illustrator 29.1.0, SVG Export Plug-In . SVG Version: 2.1.0 Build 142)  -->
  <defs>
    <style>
      .st0 {
        fill: none;
      }

      .st1 {
        fill: #0655bc;
      }

      .st2 {
        clip-path: url(#clippath);
      }

      .st3 {
        fill: #eceae7;
      }
    </style>
    <clipPath id="clippath">
      <rect class="st0" y="0" width="232.3" height="361.4"/>
    </clipPath>
  </defs>
  <g class="st2">
    <g>
      <polygon class="st3" points="253.1 12.6 265.8 25.3 264.4 32.7 279.1 51 293.1 81.7 269.1 98.1 247.7 102.2 232.3 103 232.3 112.9 232.3 453 232.3 456.7 237.4 473.9 244.3 844.9 244.3 851.6 58.6 858.3 56 844.9 69.9 459.4 69.7 437.2 69.7 95 50.1 101.5 15.2 90.9 13.1 64.5 24.9 41.5 37 33.9 35.9 25.2 45.3 14.1 253.1 12.6"/>
      <g id="zpTJVo">
        <path class="st1" d="M33.3,0h235.8l-3.2,25.3-5.7-.9H43.8l-8,.9c-1-2.3-.7-5.1-1-7.5-.6-3.9-1.7-8.2-2.2-12-.1-1.2-.8-5.2.6-5.7h0ZM14.4,40.1c8.8-8.8,19-11.6,31.3-12.1,48.2-2.1,97.7,2.5,146,0,22.1,1.1,45.4-1.3,67.5,0,29,1.7,50.5,35.2,38.3,62.2-9.8,21.4-33.6,31.4-55.7,21.8-14.2-6.2-24.1-26.6-18.5-41.4,1.6-4.2,8.6-15.4,12.5-17.3,11.2-5.6,22-6,32.5,1.5,16.1,11.5,9.3,40.1-12.3,37.5-6.6-.8-10.5-4.6-11.2-11.3-.2-1.9.8-7.3-1.6-7.5-3.5-.3-1.9,9.2-1.3,11.4,1.8,6.5,7.2,10.2,13.8,11,26.1,3.3,34.3-33,12.4-45.5-12.1-6.9-22.4-6.1-34.6-.3-54.3-.1-108.7,0-163,0-1,0-2,.4-2.8.4-2.1,0-9.5-5-15.1-5.4-20-1.4-36.8,13.8-31.9,34.6,4,16.6,32.2,21.9,38.8,4.8.9-2.2,2.7-13.4-1.6-10.8-1.1.7-1.1,6.8-1.7,8.9-4.1,13.3-25.9,9.9-30.7-.4-10.8-23.2,17.7-40.9,36.2-30.7,28.2,15.6,19,58.5-13.3,63.2C3.2,121.4-15.2,69.8,14.4,40.1h0ZM189.6,53.7h39.9c-4.5,6.2-9.7,12.9-11.4,20.5-.3,1.3.4,2.9-.8,3.8h-27.8v-24.3h0ZM152.4,53.7h33.5v24.3h-33.5v-24.3ZM115.7,53.7h33.5v24.3h-33.5v-24.3ZM71.2,53.7h40.2s.7.6.7.7v23s-.6.7-.7.7h-29.1c-.5-6.6-2.8-13-6.6-18.4l-4.4-5.9h0ZM202.5,81.7h15.6c-.2,4.2,1.5,8.8,3.1,12.7,1.4,3.4,3.9,8,6.1,10.9.8,1.1,5,4.9,5,5.6v342.1h-29.8V81.7ZM198.8,81.7v371.3h-29.4V81.7h29.4ZM165.8,81.7v371.3h-29.4V81.7h29.4ZM132.7,81.7v371.3h-29.4V81.7h29.4ZM82.2,81.7h16.8l.7,371.3h-29.8c0-1.5,0-1.9,0-3.4,0-39.3-.4-281,0-320.3,0-6.8.9-13.8.5-20.7,5.8-6.1,9.5-13,11.4-21.2.2-.9.4-5.4.6-5.6h0ZM56,456.7h188.2v388.2H56v-388.2ZM43.6,848.5h213.5v27.6H43.6v-27.6h0Z"/>
      </g>
    </g>
  </g>
</svg>