<?xml version="1.0" encoding="UTF-8"?>
<svg id="_图层_1" xmlns="http://www.w3.org/2000/svg" xmlns:xlink="http://www.w3.org/1999/xlink" version="1.1" viewBox="0 0 604 593">
  <!-- Generator: Adobe Illustrator 30.0.0, SVG Export Plug-In . SVG Version: 2.1.1 Build 123)  -->
  <defs>
    <style>
      .st0 {
        fill: none;
      }

      .st1 {
        fill: #0655bc;
      }

      .st2 {
        clip-path: url(#clippath);
      }

      .st3 {
        fill: #eceae7;
      }
    </style>
    <clipPath id="clippath">
      <rect class="st0" x="211.19" y="22.02" width="181.62" height="548.97"/>
    </clipPath>
  </defs>
  <g class="st2">
    <g>
      <polygon class="st3" points="194.93 31.89 184.99 41.76 186.09 47.57 174.6 61.87 163.67 85.9 182.48 98.67 199.19 101.89 211.19 102.53 211.19 110.28 211.19 527.54 211.19 530.41 207.26 543.82 201.86 546.56 201.86 551.86 346.99 557.08 349.02 546.56 338.19 532.49 338.29 515.13 338.29 96.26 353.62 101.41 380.94 93.05 382.54 72.48 373.38 54.48 363.9 48.54 364.77 41.71 357.39 33.05 194.93 31.89"/>
      <g id="zpTJVo">
        <path class="st1" d="M366.78,22.02h-184.3l2.51,19.74,4.47-.73h169.09s6.22.69,6.22.69c.77-1.82.52-3.99.8-5.84.47-3.05,1.34-6.38,1.71-9.41.12-.95.61-4.1-.5-4.45ZM381.55,53.37c-6.89-6.89-14.87-9.05-24.45-9.47-37.72-1.66-76.39,1.94-114.15.02-17.3.89-35.49-1.04-52.77-.02-22.7,1.34-39.51,27.52-29.91,48.61,7.62,16.75,26.3,24.57,43.52,17.05,11.08-4.84,18.81-20.82,14.49-32.35-1.23-3.28-6.76-12.04-9.77-13.56-8.74-4.42-17.24-4.68-25.43,1.16-12.6,8.97-7.28,31.31,9.6,29.34,5.2-.61,8.23-3.57,8.78-8.81.16-1.53-.65-5.71,1.29-5.86,2.74-.21,1.48,7.21,1.02,8.89-1.42,5.11-5.67,7.94-10.79,8.59-20.43,2.59-26.83-25.77-9.72-35.57,9.46-5.42,17.5-4.74,27.02-.21,42.48-.1,84.97.07,127.45-.04.8,0,1.55.33,2.15.32,1.66-.04,7.42-3.93,11.84-4.24,15.66-1.11,28.8,10.76,24.92,27.07-3.09,12.99-25.15,17.15-30.3,3.79-.66-1.72-2.13-10.49,1.26-8.44.86.52.82,5.32,1.32,6.94,3.23,10.43,20.23,7.77,23.97-.29,8.44-18.18-13.82-31.95-28.28-23.97-22.07,12.19-14.88,45.7,10.37,49.42,35.37,5.22,49.73-35.17,26.58-58.34ZM244.57,64.01h-31.23c3.48,4.86,7.59,10.08,8.89,16.06.23,1.04-.28,2.28.62,2.97h21.71v-19.02ZM273.64,64.01h-26.2v19.02h26.2v-19.02ZM302.36,64.01h-26.2v19.02h26.2v-19.02ZM337.17,64.01h-31.41s-.54.5-.54.54v17.95s.5.54.54.54h22.79c.39-5.17,2.22-10.16,5.16-14.4l3.46-4.62ZM234.52,85.9h-12.2c.12,3.29-1.18,6.89-2.45,9.93-1.1,2.62-3.04,6.27-4.79,8.49-.65.83-3.89,3.79-3.89,4.37v418.84h23.33V85.9ZM237.37,85.9v441.64h22.99V85.9h-22.99ZM263.23,85.9v441.64h22.99V85.9h-22.99ZM289.08,85.9v441.64h22.97V85.9h-22.97ZM328.56,85.9h-13.1l-.54,441.64h23.33c0-1.18.03-1.47.03-2.69,0-30.72.28-371.07-.04-401.79-.05-5.31-.69-10.77-.36-16.15-4.51-4.75-7.47-10.19-8.88-16.6-.15-.68-.29-4.24-.44-4.4ZM349.02,530.41h-147.16v16.15h147.16v-16.15ZM358.71,549.43h-166.9v21.55h166.9v-21.55Z"/>
      </g>
    </g>
  </g>
</svg>