<?xml version="1.0" encoding="UTF-8"?>
<svg id="_图层_1" xmlns="http://www.w3.org/2000/svg" version="1.1" viewBox="0 0 604 593">
  <!-- Generator: Adobe Illustrator 30.0.0, SVG Export Plug-In . SVG Version: 2.1.1 Build 123)  -->
  <defs>
    <style>
      .st0 {
        fill: #0655bc;
      }
    </style>
  </defs>
  <path class="st0" d="M281.61,544.37c-62.91-4.02-121.42-31.59-164.77-77.63-43.54-46.24-67.52-106.7-67.52-170.24s23.98-123.99,67.52-170.23c43.35-46.04,101.86-73.61,164.77-77.64,3.14-.2,5.51-2.9,5.31-6.03-.2-3.14-2.9-5.51-6.03-5.31-65.79,4.22-126.98,33.05-172.31,81.19-45.53,48.35-70.6,111.57-70.6,178.02s25.07,129.68,70.6,178.03c45.33,48.14,106.52,76.97,172.31,81.18.13.01.25.01.37.01,2.97,0,5.47-2.31,5.66-5.32.2-3.13-2.18-5.83-5.31-6.03Z"/>
  <path class="st0" d="M495.42,118.46c-45.33-48.14-106.52-76.97-172.31-81.18-3.13-.18-5.83,2.18-6.03,5.31-.21,3.13,2.17,5.83,5.3,6.03,62.91,4.02,121.42,31.59,164.77,77.63,43.54,46.24,67.52,106.69,67.52,170.24s-23.98,124-67.52,170.24c-43.35,46.04-101.86,73.61-164.77,77.64-3.13.2-5.5,2.9-5.3,6.03.19,3.01,2.69,5.32,5.66,5.32h0c.12-.01.25-.02.37-.02,65.79-4.22,126.98-33.05,172.31-81.19,45.53-48.35,70.6-111.57,70.6-178.02s-25.07-129.68-70.6-178.03Z"/>
  <path class="st0" d="M299.58,55.37c1.33,1.33,3.5,1.33,4.83,0l8.6-10c1.33-1.33,1.33-3.5,0-4.83l-8.6-10c-1.33-1.33-3.5-1.33-4.83,0l-8.6,10c-1.33,1.33-1.33,3.5,0,4.83l8.6,10Z"/>
  <path class="st0" d="M304.41,537.63c-1.33-1.33-3.5-1.33-4.83,0l-8.6,10c-1.33,1.33-1.33,3.5,0,4.83l8.6,10c1.33,1.33,3.5,1.33,4.83,0l8.6-10c1.33-1.33,1.33-3.5,0-4.83l-8.6-10Z"/>
  <path class="st0" d="M336.31,453.69c.32.78,1.61,3.93,1.61,3.93l12.18-16.71,24.34,9.54s-12.35-34.5-16.21-45.3c-10.07,7.94-22.58,12.94-36.22,13.67h0c3.54,8.36,6.88,16.78,10.32,25.16,1.33,3.24,2.65,6.47,3.98,9.71Z"/>
  <path class="st0" d="M260.81,450.46l24.34-9.54,12.18,16.71s1.29-3.15,1.61-3.93c1.33-3.24,2.65-6.47,3.98-9.71,3.46-8.42,6.81-16.89,10.37-25.28-13.59-1.1-25.99-6.41-35.87-14.66h0c-3.32,9.25-16.61,46.41-16.61,46.41Z"/>
  <polygon class="st0" points="327.47 354.94 318.52 335.22 309.57 354.94 318.52 374.66 327.47 354.94"/>
  <path class="st0" d="M371.97,354.73c0-29.52-23.93-53.45-53.45-53.45s-53.45,23.93-53.45,53.45,23.93,53.45,53.45,53.45,53.45-23.93,53.45-53.45ZM300.49,354.94l3.31-7.29-9.28-12.56,6.64-4.91,6.55,8.86,4.63-10.2h-7.33v-8.26h27.02v8.26h-7.33l4.63,10.2,6.55-8.86,6.64,4.91-9.28,12.56,3.31,7.29h-.01l-11.65,25.67h8.69v8.26h-30.13v-8.26h8.69l-11.65-25.67Z"/>
  <path class="st0" d="M419.25,189.49c0-6.63.1-13.32.04-19.97-.06-7.81-1.59-15.88-5.97-22.46-3.47-5.21-9.75-11.67-16.51-11.67h-196.93c.54-.09,2.41,1.92,2.83,2.3,1.01.91,1.98,1.88,2.89,2.89,1.61,1.79,3.02,3.82,4.34,5.85,2.77,4.26,4.49,9.15,5.48,14.12,2.12,10.68,2.32,22.25,2.32,33.1,0,11.73-.02,23.93-.02,34.39,0,9.69.02,18.72.02,28.41v58.19c0,16.3-.14,32.48,0,48.78.02,2.02,0,4.07-.06,6.15v30.15s.79,26.27-17.8,26.27h57.52c2.03,0,10.88-22.46,12.6-29.23-7.38-8.5-12.55-18.96-14.64-30.5-1.99-9.19-1.58-18.22.74-26.61,6.78-28.18,32.14-49.13,62.4-49.13s53.32,19.09,61.38,45.34c4.51,12.54,4.46,27.41-.73,39.93-2.75,7.92-7,15.13-12.42,21.29,1.51,4.94,9.65,28.9,11.1,28.9h36.93c32.46,0,26.49-52.04,5.05-52.04h0c-.25.01-.46.03-.66.06v-112.42c0-24.03.08-48.07.1-72.09ZM252.56,191.42h131.53v9.66h-131.53v-9.66ZM384.92,227.28v9.6h-132.3v-9.6h132.3ZM385.17,271.44h-132.62v-8.35h132.62v8.35Z"/>
  <path class="st0" d="M188.18,423.47c3.24,1.29,6.28,1.74,9.09,1.56,12.81-4.68,12.2-25.32,12.2-25.32h.01v-26.16c-7.93-.33-19.25.07-23.3,1.87-17.01,7.58-15.34,41.16,2,48.05Z"/>
  <path class="st0" d="M199.37,160.22h7.75c-1-4.85-2.7-9.62-5.4-13.79-1.31-2.02-2.73-4.06-4.34-5.85-.91-1.01-1.87-1.98-2.89-2.89-1.64-1.5-3.86-2.3-6.03-1.86-15,3.06-27.85,21.31-19.11,40.97,1.03,2.32,3.57,5.68,6.51,8.48,1.76,1.67,4.1,2.59,6.53,2.59h27.11c-.07-6.74-.37-13.63-1.21-20.33h-8.92c-2.02,0-3.66-1.64-3.66-3.66s1.64-3.66,3.66-3.66Z"/>
</svg>