<?xml version="1.0" encoding="UTF-8"?>
<svg id="_图层_1" xmlns="http://www.w3.org/2000/svg" version="1.1" viewBox="0 0 604 593">
  <!-- Generator: Adobe Illustrator 30.0.0, SVG Export Plug-In . SVG Version: 2.1.1 Build 123)  -->
  <defs>
    <style>
      .st0 {
        fill: #0655bc;
      }
    </style>
  </defs>
  <path class="st0" d="M281.61,544.37c-62.9-4.03-121.42-31.6-164.77-77.63-43.54-46.24-67.52-106.7-67.52-170.24s23.98-124,67.52-170.23c43.35-46.03,101.86-73.61,164.77-77.64,3.13-.2,5.51-2.9,5.31-6.03-.2-3.13-2.9-5.51-6.03-5.31-65.79,4.22-126.98,33.05-172.31,81.19-45.53,48.35-70.6,111.57-70.6,178.02s25.07,129.67,70.6,178.03c45.33,48.14,106.52,76.97,172.31,81.18.12,0,.25.01.37.01,2.97,0,5.47-2.31,5.66-5.32.2-3.13-2.17-5.83-5.31-6.03Z"/>
  <path class="st0" d="M495.42,118.47c-45.33-48.14-106.52-76.97-172.31-81.18-3.14-.19-5.83,2.18-6.03,5.31-.2,3.13,2.17,5.83,5.3,6.03,62.9,4.03,121.42,31.6,164.77,77.63,43.54,46.24,67.52,106.7,67.52,170.24s-23.98,124-67.52,170.24c-43.35,46.03-101.86,73.61-164.77,77.64-3.13.2-5.51,2.9-5.3,6.03.19,3.01,2.69,5.32,5.66,5.32.12,0,.25,0,.37-.01,65.79-4.22,126.98-33.05,172.31-81.19,45.53-48.35,70.6-111.57,70.6-178.02s-25.07-129.67-70.6-178.03Z"/>
  <path class="st0" d="M299.58,55.37c1.33,1.33,3.5,1.33,4.83,0l8.6-10c1.33-1.33,1.33-3.5,0-4.83l-8.6-10c-1.33-1.33-3.5-1.33-4.83,0l-8.6,10c-1.33,1.33-1.33,3.5,0,4.83l8.6,10Z"/>
  <path class="st0" d="M304.41,537.63c-1.33-1.33-3.5-1.33-4.83,0l-8.6,10c-1.33,1.33-1.33,3.5,0,4.83l8.6,10c1.33,1.33,3.5,1.33,4.83,0l8.6-10c1.33-1.33,1.33-3.5,0-4.83l-8.6-10Z"/>
  <path class="st0" d="M362.46,137.93c1.36-10.26-6.68-10.51-13.34-14.4-5.79-3.38-9.4-9.55-15.33-13.56-27.76-18.79-73.32-12.84-101.39,2.61-30.44,16.75-58.33,54.75-36.29,89.22.63.99,3.9,5.5,4.63,5.87,1.03.52,2.43-2.12,3.07-2.73,5.89-5.6,11.89-11.05,18.48-15.82,3.09-2.24,6.4-4.17,9.49-6.41-4.89-6.52-3.54-14.21-.13-21.05,8.41-16.89,32.99-29.01,51.48-25.21,4.41.9,4.01,1.93,6.98,4.21,10.36,7.97,18.58,6.74,30.63,8.37,10.96,1.48,26.81,9.41,35.07-.73,1.44-.12,12.16,8.07,13.34,9.73.93,1.3,1.45,3.19,2.3,4.56,1.61,2.59,3.68,4.19,6.39,5.52.23-1.34-1.43-2.62-2.17-3.96-.38-.69-2.61-5.54-2.34-5.78h0s6.32-.01,6.32-.01c.64,0,4.25,1.69,4.51,1.44-.67-1.99-3.42-3.67-5.34-4.23-2.56-.74-5.86-.44-8.27-1.48-1.84-.8-5.12-4.34-7.22-5.78-1.49-1.02-3.03-2.14-4.81-2.6-.25-.36,1.95-2.84,2.36-3.59.59-1.07,1.42-3.01,1.58-4.19ZM326.95,130.58c-6.11.36-10.42-2.73-12.05-8.56l-1.87-2.28c5.18.14,9.01-1.73,14.08.54,4.28,1.91,5.24,5.73,8.31,8.84-2.93-.28-5.56,1.29-8.47,1.46Z"/>
  <path class="st0" d="M324.83,122.22c-1.7,0-3.07,1.37-3.07,3.07s1.37,3.07,3.07,3.07,3.07-1.37,3.07-3.07-1.37-3.07-3.07-3.07Z"/>
  <circle class="st0" cx="349.55" cy="381.04" r="2.87"/>
  <path class="st0" d="M323.98,432c71.1-8.82,120.54-78.25,110.66-148.46-14.3-101.59-132.97-151.6-214.73-87.4-72.28,56.76-68.79,167.4,9.38,216.93,1.78,1.13,15.76,9.25,16.58,8.51-.82-3.05-1.09-6.19-1.51-9.32-4.99-37.05,37.42-56.04,37.42-56.04.39-.04,6.32-3.42,6.32-3.79-20.95-12.91-37.84-37.91-25.95-62.78,18.51-38.69,85.27-28.57,84.1,15.14-.79,29.6-35.75,40.06-56.94,52.09-22.04,12.52-45.31,32.72-40.03,61.09,1.7,9.14,7.03,18.03,13.91,24.17-5-1.93-9.55-5.91-12.78-10.14-1.01-1.32-2.44-4.33-3.48-5.19-1.67-1.38-7.54-3.52-9.98-4.82-25.65-13.71-45.45-33.73-58.79-59.63-8.01,13.87-9.41,31.99-3.13,46.81,10.42,24.61,45.06,38.74,68.84,46.7,14.03,4.7,28.41,8.44,42.79,11.91,0,0,41.43,8.89,71.28,4.53,9.46-2.26,18.5-5.86,26.68-11.82,19.18-13.97,25.34-37.64,11.96-58.09-.47-.07-.72.14-1.07.37v.02c-2.21,1.44-4.78,4.2-7.05,5.93-3.5,2.67-7.11,5.22-10.82,7.59-.69.94-.2,3.34-.38,4.68-2.29,17.88-18.63,24.06-34.8,22.97-8.81-.59-26.99-5.49-40.5-11.23l14.53-.21c2.04.08,4.24-.12,7.49-.52ZM199.92,278.71h.01c.15-.36,3.16-3.72,3.7-4.27.62-.64,1.98-2.17,2.8-2.29,1.31-.19,4.09,3.87,5.38,4.62,1.75-.55,4.22-5.12,6.01-4.62.63.17,6.2,5.98,6.34,6.71.16.81-.28,1.75-1.05,2.09-2.15.95-4.86-4.68-5.89-4.49-1.07.19-3.18,4.91-5.45,4.68-1.08-.11-3.93-3.91-5.07-4.7-1.25.88-4.07,4.98-5.61,4.54-.97-.27-1.58-1.3-1.17-2.27ZM200.76,292.5c-1.46-.67-1.15-1.8-.37-2.89.57-.79,5.39-5.52,5.98-5.61,1.9-.28,4.24,3.83,5.93,4.71.38-1.12,3.62-4.54,4.54-4.7,2.62-.46,5.16,4.76,7.21,6.15.23,5.74-5.28.08-6.33-2.18-.36-.25-4.17,4.55-5.25,4.71-1.8.27-4.29-3.67-5.76-4.7-1.52,1.01-4.1,5.36-5.95,4.51ZM227.85,334.75h-.02c-.49,4.55-6.24,6.87-9.74,3.78.24,3-7.38,7.6-7.9,3.7-.25-1.9,2.63-1.77,3.76-2.96,2.05-2.17.9-4.38.87-6.68-.02-1.8.56-10.1-.94-10.62-2.84-.98-3.91,3.49-4.1,5.56-.22,2.4.4,5.75,0,7.93-.25,1.32-1.89,2.21-2.89,1.1-.39-.43-.57-5.94-.64-7.23-.03-.45.32-.97.29-1.44-.07-1.18-.41-5.15-1.08-5.78-.81-.75-2.56-.31-2.56-2.17,0-2.33,2.97-1.9,4.38-.73.64.54,1.21,2.08,1.79,1.63.05-.04.14-.75.52-1.1,2.33-2.14,5.5-1.94,7.43.56.43.56,1.45,2.69,1.45,3.25v5.24c4.77-3.06,9.99.35,9.39,5.96ZM232.5,245.57c-1.09-1.48,2.19-4.02,2.98-5.74v.02c.48-1.05,1.03-2.9,1.03-4.04,0-.76.03-.46-.54-.55-1.53-.23-4.1.81-4.46-1.35-.42-2.58,3.37-1.82,4.99-1.9.17-2.05-.88-4.43-2.01-6.12-.77-1.17-3.23-2.37-1.93-4.14.47-.64.82-.64,1.56-.57,2.62.25,6.44,8.17,5.99,10.83l4.31-.02c-.06-2.87,3.07-10.83,6.31-10.8,4.01.04-.37,4.24-.95,5.15-.76,1.2-1.66,3.72-1.74,5.13-.04.75,0,.47.53.54,1.54.22,5.34-.68,4.46,2.27-.49,1.63-3.64.78-4.99.98.05,1.53.52,3.07,1.14,4.46.59,1.33,3.04,4.06,3.15,4.46.41,1.57-1.42,2.37-2.83,1.72-2.72-1.25-4.74-7.89-5.27-10.66-.67.15-3.97-.14-4.12.02-.13.14-.41,2.89-.71,3.8-.62,1.88-4.53,9.71-6.9,6.51ZM253.82,369.4h0c0,1.14-3.25,1.14-3.25,0v-5.6c-1.11,1.15-8.88,8.21-9,8.9-.17.96,3.98,2.8,2.05,4.74-1.93,1.93-3.77-2.22-4.74-2.05-1.23.21-3.68,5.39-5.55,3.49-2.18-2.2,2.95-4.85,3.13-5.92.17-.99-3.55-2.46-2.33-4.47,1.5-2.46,4.29,1.91,5.01,1.78.69-.12,7.75-7.89,8.9-9h-5.6c-1.31,0-2.12-2.97.44-3.53,1.45-.32,7.34-.27,8.96-.08.49.06,1.98.47,1.98.91v10.83ZM314.85,210.54h0c-.21,1.74-2.79,5.52-4.61,3.7-1.92-1.92,2.83-3.65.79-6.75-1.44-2.2-3.99-.83-5.31.79-1.92,2.37-3.31,8.57-3.53,11.63-.16,2.18.74,8.43-.94,9.55-3.71,2.46-2.54-7.87-2.66-9.53-.23-3.14-2.09-12.68-5.67-13.47-1.97-.44-3.81.77-3.63,2.91.14,1.7,2.78,3.37,1.28,4.87-1.75,1.75-4.04-1.61-4.43-3.15-1.89-7.36,6.95-11.01,11.57-5.07,1.2,1.54,1.43,3.1,2.25,4.6.18.33.27.97.8.46.14-.14,1.02-2.88,1.52-3.72,1.77-2.97,5.13-5.38,8.68-4.13,3.25,1.14,4.29,4.06,3.89,7.31ZM400.06,339.45h0c-5.27,4.1-14.2,3.84-19.55.03-.97-.69-1.97-1.13-1.77-2.55.44-3.17,4.26.16,5.43.7,2.7,1.23,6.16,1.71,9.02.9-2.29-2.8-2.56-6.71.55-9.02,5.9-4.37,13.55,4.31,6.32,9.94ZM387.59,275.65l-.02.02c-1.07-.72-4.45-.3-4.45-2.67,0-3.21,5.8-.42,7.78-.23,1.71.17,4.39.19,6.11.06,1.74-.14,6.13-1.68,7.13-1.4,1.09.31,1.3,1.78.65,2.68-.61.84-3.28,1.38-4.34,1.62l-.04,14.19c.14.51,4.46.68,4.73,2.59.52,3.64-4.72.93-6.42.61-3-.56-5.84-.53-8.84,0-1.62.29-6.64,2.66-6.77-.27-.08-1.98,3.43-2.08,4.71-2.94-.26-1.81.36-13.86-.23-14.26ZM395.65,321.06v.02c1.49.38,5.92,2.42,6.82,3.47,1.01,1.18-.05,3.19-1.46,3.06-.88-.08-3.06-1.88-4.13-2.35-1.82-.79-7.1-1.89-8.75-1.01-.65.35-.16.45,0,.72,1.34,2.18,1.95,2.67,1.19,5.54-1.4,5.32-9.77,5.08-10.86-.2-1.83-8.86,11.15-10.79,17.19-9.25ZM349.52,221.74h0c1.57-1.32,4.28.56,5.2,2,1,1.56.86,3.56,2.95,4.63,1.3.66,4.42.58,5.81.13,2.87-.93,2.37-4.06,4.25-5.86,1.22-1.16,4.19-2.37,4.82-.1.56,2.02-1.91,1.86-2.65,2.63-.56.58-1.05,2.9-1.83,3.94-.74.99-1.61,1.13-1.96,1.47-.32.32.66.46.9.71,7.26,7.48-.33,18.91-9.81,15.23-6.68-2.59-7.81-11.57-1.93-15.77-2.47-.85-2.53-4.13-3.59-5.43-.73-.9-4.37-1.7-2.16-3.58ZM344.61,377.6c1.21-1.72,3.62-2.7,5.69-2.61-3.33-8.14,6.08-15.59,13.41-10.64,4.41,2.98,4.28,8.43,2.29,12.87-.95,2.1-6.15,8.77-2.31,10.41,3.6,1.54,3.97-4.4,6.09-2.21,1.07,1.1-.02,3.05-.85,3.95-3.37,3.63-9.36,1.32-9.76-3.49-.5-6.04,6.77-10.25,4.78-16.22-1.85-5.54-10.56-4.52-11.06,1.46-.4,4.85,5.76,9.94.72,14.37-5.49,4.83-12.96-2.25-8.99-7.89h-.01ZM311.65,413.82c-7.08.82-15.66-.64-22.91.01-2.47-.32-2.78-2.98-.27-3.63,7.3.48,16.06-.91,23.18-.09,3.23.37,3.22,3.34,0,3.71ZM312.74,406.07c-1.01.33-7.27.35-8.52.18-4.29-.58.33-4.73,1.1-6.52,1.07-2.45,1.33-5.03-.35-7.23-4.46-5.85-12.81.72-7.71,8.79.84,1.33,3.15,2.42,1.59,4.24-.45.53-.79.62-1.45.71-1.37.18-8.53.17-9.23-.55-.82-.83-.18-3.08.55-3.08h-.02s5.6,0,5.6,0c-5.7-7.12.68-18.82,9.85-15.09,6,2.45,6.61,10.07,3.51,15.09h5.24c1.36,0,1.82,2.8-.16,3.45Z"/>
  <path class="st0" d="M362.24,243.49c6.79-1.41,4.93-12.28-2.72-11.02-7.17,1.17-5.44,12.71,2.72,11.02Z"/>
  <circle class="st0" cx="383.93" cy="328.69" r="2.3"/>
  <path class="st0" d="M221.84,330.96c-1.54,0-2.79,1.25-2.79,2.79s1.25,2.79,2.79,2.79,2.79-1.25,2.79-2.79-1.25-2.79-2.79-2.79Z"/>
  <circle class="st0" cx="397.17" cy="334.2" r="2.3"/>
  <rect class="st0" x="391.39" y="276.43" width="5.78" height="13"/>
</svg>