<?xml version="1.0" encoding="UTF-8"?>
<svg id="_图层_1" xmlns="http://www.w3.org/2000/svg" version="1.1" viewBox="0 0 604 593">
  <!-- Generator: Adobe Illustrator 30.0.0, SVG Export Plug-In . SVG Version: 2.1.1 Build 123)  -->
  <defs>
    <style>
      .st0 {
        fill: #0655bc;
      }
    </style>
  </defs>
  <path class="st0" d="M268.19,499.79c-2.23-2.23-4.64-4.73-6.74-7.09-1.19-1.34-6.08-6.83-5.64-8.34.6-1.07,1.7-.84,2.68-.48,1.05.39,6.81,5.96,8.18,7.23,27.07,25.05,54.72,47.04,91.2,57.02,4.23,1.16,11.28,1.84,14.87,3.26,2.37.94,2.07,3.05-.43,3.67-2.97.73-10.02-.65-13.27-1.3-31.47-6.27-68.39-31.5-90.86-53.96Z"/>
  <path class="st0" d="M450.99,427.49c.77-.2,1.09,0,1.48.65-5.35,20.8-16.66,40.88-29.24,58.17-9.05,12.44-27.28,33.29-40.74,40.39-1.34.71-6.53,3.25-6.15-.22.17-1.54,8.02-6.55,9.76-7.97,26.55-21.73,44.21-49.03,59.1-79.6.9-1.86,4.46-11.08,5.8-11.43Z"/>
  <path class="st0" d="M438.75,380.34c1.89-.63,2.09.83,1.88,2.32-.49,3.3-6.78,13.53-9.19,16.21-.66.74-5.26,5.71-5.55,2.49-.1-1.06,4.18-6.57,5.05-7.98,1.07-1.73,7.09-12.81,7.81-13.05Z"/>
  <path class="st0" d="M141.9,371.79c.47.46.71,1.45.16,1.93-40.07,28.21-53.72,78.7-62.26,124.52-4.34,5.37-4.6-1.13-4.41-4.86.36-7.26,2.85-16.81,4.56-23.99,7.78-32.54,23.33-73.1,51.5-93.1,1.82-1.29,8.61-6.3,10.45-4.5Z"/>
  <path class="st0" d="M130.13,504.56c5.9-.8,8.48,7.91,2.79,10.99-6.94,3.76-11.33-9.84-2.79-10.99Z"/>
  <path class="st0" d="M533.06,475.57c8.08-1.85,8.64,10.43,1.27,9.9-5.18-.37-5.98-8.83-1.27-9.9Z"/>
  <path class="st0" d="M498.16,493.25c7.3-1.66,8.13,8.91,2.05,9.79-6.18.89-7.45-8.56-2.05-9.79Z"/>
  <path class="st0" d="M510.87,489.18c8.95-1.56,5.9,12.72-1.21,8.69-3.64-2.06-2.85-7.99,1.21-8.69Z"/>
  <path class="st0" d="M202.2,358.42c0,8.63-7,15.63-15.63,15.63s-15.63-7-15.63-15.63,7-15.63,15.63-15.63,15.63,7,15.63,15.63ZM198.17,358.39c0-6.43-5.21-11.65-11.65-11.65s-11.65,5.21-11.65,11.65,5.21,11.65,11.65,11.65,11.65-5.21,11.65-11.65Z"/>
  <path class="st0" d="M477.33,506.85c6.8-1.11,7.51,9.05,1.66,9.85-6.42.89-7.55-8.89-1.66-9.85Z"/>
  <path class="st0" d="M268.14,323.73c.66-.7,1.83-.33,2.36.37,6.32,10.56,11.73,21.59,17.26,32.58-.62,3.94-3.38.2-4.51-1.35-4.61-6.34-11.98-19.73-14.65-27.05-.47-1.28-1.52-3.41-.45-4.55Z"/>
  <path class="st0" d="M331.37,324.19c1.41,1.44-1.18,7.06-1.93,8.95-2.63,6.62-7.71,16.84-12.08,22.37-1.07,1.35-3.23,4.24-3.58.99,4.51-10.85,9.94-21.43,14.97-32.09.54-.79,2-.86,2.63-.21Z"/>
  <path class="st0" d="M209.79,182.21c.74-.17.92.6,1.16,1.1,1.02,2.11,1.4,4.07,2.77,6.3,1.45,2.36,5.35,6,4.91,9.12-.3,2.15-1.53,1.73-2.65.4-2.19-2.59-7.37-11.19-7.34-14.44,0-.67.55-2.34,1.15-2.48Z"/>
  <path class="st0" d="M393,198.38c-.93.8-2.2.6-2.52-.63-.58-2.28,5.39-9.36,5.73-12.24,1.92-3.02,2.58,1.27,2.16,3.52-.35,1.82-4.01,8.19-5.37,9.35Z"/>
  <g>
    <polygon class="st0" points="302 144.92 280.21 192.93 302 240.94 323.79 192.93 302 144.92"/>
    <path class="st0" d="M554.81,484.91c-5.98-35.85-22.21-81.05-43.65-110.47-1.3-1.78-7.79-9.15-8.09-10.04-1.31-3.87.55-7.53-2.12-12.84-4.07-8.11-23.69-18.52-32.5-20.08-3.39-.6-6.17-.28-9.32-.65-4.05-.47-4.91-3.38-7.77-5.83-4.8-4.1-11.11-7.17-17.27-8.57-2.82-.64-13.39-1.31-14.56-1.98-.29-.16-3.16-4.52-3.94-5.34-4.84-5.08-13.61-10.42-20.54-11.64-8.92-1.57-18.86-.1-27.75,1.24.14-5.51-.19-11.05-.02-16.56.1-3.36.22-7.54.48-10.85.48-6.08,4.46-8.78,7.32-13.98,5.03-9.12,6.71-19,7.18-29.31,8.44,2.4,15.63-5.11,18.14-12.45,1.07-3.11.94-7,2.07-9.72.97-2.32,4.11-5.55,5.53-8.07,4.35-7.68,7.08-20.13,5.42-28.81-.38-2-1.7-3.94-2.1-5.95,12.02-7.25,16.62-22.9,15.37-36.33-.46-4.9-3.09-4.71-7.27-3.84,1.91-4.36,3.33-9.02,3.64-13.8.55-8.21-.28-34.1-13.61-20.19,1.44-11.57-2.2-24.25-9.54-33.3-2.07-2.55-5.06-7.01-8.53-3.58l-3.68,6.96c-1.65-9.39-8.41-18.46-15.66-24.46-8.73-7.23-13.83-7.57-12.91,5.88-1.88-1.4-3.04-3.38-4.77-4.97-4.72-4.36-17.15-11.47-23.57-11.26-6.81.21-2.91,10.91-2.03,14.88-15.22-6.18-33.09-5.86-48.49-.45,1.11-5.48,6.28-14.4-2.97-14.07-10.19.37-20.73,7.81-27.4,14.98-.59-6.05.9-13.21-7.57-9.15-10.05,4.82-19.22,16.4-21.45,27.28-1.79-1.71-2.42-6.72-5.3-7.17-2.82-.44-8.34,6.74-9.84,9.02-5.52,8.41-8.14,18.95-6.62,28.97-8.3-8.96-11.63-.69-13.03,7.59-1.41,8.32-.57,17.67,2.61,25.49-4.35-1.07-6.37.96-6.79,5.22-1.35,13.5,3.16,29.08,15.35,36.25-6.21,10.85-2.6,25.49,3.32,35.73,1.33,2.31,4.01,5.09,4.91,7.32.9,2.22.84,4.78,1.47,7.14,2.33,8.64,8.97,17.09,18.9,14.86.75,10.23,2.38,20.16,7.18,29.31.87,1.66,5.38,7.86,5.51,8.54.26,1.35.4,5.11.48,6.77.4,8.42-.33,17.17-.02,25.63-19.55-5.17-41.93-3.2-52.66,16.01-.45.81-.86,1.62-.83,2.58-.34.32-4.57-2.17-5.44-2.48-14.04-5.1-32.06,2.11-38.06,15.86-21.14-1.28-40.83,12.6-42.61,34.45-.17,2.04.45,6.39-.24,7.92-.29.64-1.86,1.75-2.47,2.52-17.78,22.48-28.52,45.85-36.95,73.19-3.91,12.65-8.52,28.32-10.88,41.24-.19,1.04-.66,2.37-.63,3.36.18,6.25,10.96,9.92,15.41,12.8l-3.68,34.86c-.11,3.95,4.36,5.26,6.24,1.67,1.6-10.78,1.98-21.72,3.29-32.53.08-.63-.24-.79.67-.66,22.23,11.38,45.28,21.26,69.14,28.77l1.2,20.07c.63,1.48,5.09,1.34,5.82.11-.39-58.97,2.64-118.42,18.13-175.42l1.58-4.08c.47,2.05,4.05,2.28,3.67,4.75-6.99,46.63-9.88,94.3-7.31,141.45.42,7.63.93,15.51,1.84,23.09.34,2.84.33,12.1,4.76,8.85.45-8.48-.64-17.13-1.16-25.59-1.64-44.05-.32-88.08,5.02-131.91.58-4.77,1.44-9.54,2.03-14.3,2.68.71,3.05.68,3.33,3.46,5.93,57.72,14.03,116.64,35.41,170.84.78,1.97,2.1,6.55,4.11,7.24,1.99.69,3.2-1.8,2.6-3.51-17.14-46.24-26.98-94.95-33.37-143.86-1.38-10.58-2.67-21.26-3.24-31.89l2.91-.02c9.38,40.04,24.43,78.8,44.6,114.56,10.92,19.36,25.92,41.48,41.99,56.82,1.7,1.63,10.97,9.98,12.37,10.32,3.42.83,3.67-1.91,1.92-4.21-1.72-2.27-6.28-5.73-8.59-8.15-40.33-42.14-69.98-102.98-83.93-159.5-.38-1.54-2.47-9.61-2.01-10.28.53-.78,3.84-.85,4.78-1.8,16.37,34.05,39.97,65.72,70.06,88.82,28.52,21.9,49.55,29.5,84.96,16.1,42.77-16.17,86.93-60,99.6-104.37l8.74-36.81c1.33,22.12-4.3,43.66-6.34,65.5-1.7,18.21-1.34,35.6-4.68,53.8-6.07,33.12-20.36,65.71-46.77,87.4-.85,5.02,5.96.66,7.89-.72,23.36-16.71,38.34-54.39,43.87-81.68,4.14-20.43,4.19-40.03,6.03-60.6,1.98-22.1,7.1-46.21,3.49-68.31-.3-1.83-.64-4.05-1.68-5.58.04-.42.76-.23,1.14-.24,6.63-.1,26.4,10.18,30.06,15.73,4.06,6.15-.5,18.76-2.23,25.73-7.68,31.05-17.08,61.56-22.94,93.1-4.91,26.42-7.36,53.27-10.12,79.99,2.62,2.42,5.83,1.05,6.69-2.28.5-1.93,1.01-11.65,1.53-12.29,23.51-7.84,45.57-19.41,67.68-30.44l4.88,35.04c.82,2.46,6.1,1.91,6.16-1.7l-4.47-36.26c.01-.59.34-.78.75-1.1,2.8-2.18,7.98-3.48,10.82-5.95,4.28-3.73,2.72-7.91,1.91-12.76ZM384.73,303.66c52.23.37,38.05,75.78,14.08,100.65-20.73,21.52-54.75,10.38-80.01,4.98-.11-.79,1.03-.43,1.58-.45,24.38-.89,49.5-7.45,64.24-28.23,10.75-15.16,13.69-33.41,11.63-51.72-.33-2.97-3.07-17.96-5.38-19.09-6.54-3.2-1.92,9.2-2.04,11.56-5.74-6.67-14.38-9.75-20.63-15.86l16.53-1.84ZM289.1,398.88c-25.58-8.97-49.96-21.47-73.65-34.46v-6.8c5.39,1.82,10.56,4.22,15.96,6.02,46.92,15.69,101.92,19.47,147.98-.96,2.79-1.24,5.39-3.02,8.31-3.93-7.7,27.78-30.89,39.69-57.86,43.22-14.65,1.92-26.8,1.78-40.74-3.11ZM374.55,103.34c13.93,3.68,25.05,14.13,26.28,29l-9.21-5.97c-7.89-5.53-16.31-12.78-17.08-23.03ZM387.11,151.28c-.37-3.14-2.02-5.95-2.56-8.78-.94-5.01.14-10.62-1.39-15.6l14.41,9.61c1.56,10.02-1.46,21.25-8.75,28.46-2.32-4.13-1.18-9.2-1.71-13.69ZM401.66,195.94c-1.53,2.6-4.54,5.45-5.58,8.02-1.02,2.53-.8,5.47-1.43,8.09-1.34,5.63-5.22,10.43-11.5,9.58.55-6.13,1.35-12.27,2.85-18.23.97-3.84,2.68-7.62,3.56-11.4,1.3-5.6.41-8.84,4.48-13.65.58-.69,3.25-3.28,3.89-3.37,1.38-.21.89,2.85,2.21,3.03,2.24.32,3.41-7.13-2.25-6.72-2.93.21-5.65,3.43-7.48,5.47l.09-5.12c3.63-3.37,7.02-11.32,13.03-7.32,7.63,5.08,2.02,25.01-1.88,31.62ZM421.23,127.82c.37,8.45-1.92,21.17-8.37,27.21-.62.58-4.2,3.26-4.76,3.44-1.67.53-3.91-1.88-5.9-1.64,1.56-3.15,7.26-9.5,6.8-12.91l-1.07-.16-3.93,4.23c2.57-8.45,8.75-17,17.23-20.17ZM409.72,96.58c.59-.84,5.09-6.5,6.08-5.48,3.42,13.58,2.65,31.36-9.97,39.89.82-3.94-2.18-8.21-2.7-11.59-1.17-7.68,2.21-16.63,6.58-22.82ZM394.04,57.56c11.61,11.52,12.65,30.94,5.88,45.32l-3.54-7.1c-2.83-4.96-5.28-6.84-5.92-13.12-.83-8.31.42-17.41,3.58-25.1ZM395.39,106.96c-12.23-9.43-31.19-9.16-38.52-24.48,3.16.2,6.62-.28,9.75,0,4.23.37,10.73,2.47,14.42,4.62,6.76,3.95,12.14,12.48,14.36,19.85ZM364.58,35.8c13.85,8.62,21.8,24.92,19.03,41.24l-12.23-12.46c-5.01-8.61-7.12-18.85-6.79-28.78ZM376.81,77.95c-10.34-2.35-20.36-1.09-30.23-5.8-4.75-2.27-10.07-6.63-11.47-11.87,2.93.56,5.92,1.91,8.89,2.21,2.79.28,5.63-.15,8.43.18,9.49,1.14,18.38,8.27,24.38,15.28ZM361.4,58.92c-12.6-6.73-28.13-12.3-29-29.01,14.29,3.15,26.66,14.24,29,29.01ZM334.07,47.95c1.79,1.07,3.24,3.19,4.97,4.55,2.4,1.88,5.76,3.95,8.76,4.62.08.83-1.5.46-1.99.4-3.97-.51-11.04-4.03-14.46-3.03-.74.22-1.97,1.63-2.12,2.41-1.55,8.09,7.77,17.02,16.24,20.73l-3.01,1.29c-3.14.48-2.45,1.51-6.45-.26-2.7-1.19-10.67-6.68-13.09-8.66-1.02-.84-2.59-3.39-3.44-3.38-.9,0-1.49,1.2-1.46,1.99.15,4.5,12.99,12.57,16.65,15.26-2.31-.2-5.31.91-7.49.84-5.66-.19-12.64-10.27-17.19-13.09-1.32-.82-2.62-.65-2.39,1.08.35,2.69,8.1,10.64,10.75,12.09l-5.23.92c-5.33.13-12.66-11.71-17.73-14.9-2.21-1.39-6.49-3.21-4.43,1.26l13.34,13.17c-6.41-.6-11.68-3.4-16.91-6.88-1.58-1.05-5.54-4.76-6.93-4.9-3.76-.38-2.45,3.71-.64,5.43-3.71.96-9.31,2.1-11.98-1.38-.35-.45-1.19-1.93-1.1-2.41.09-.47,4.52-3.7,5.39-4.58,2.7-2.73,8.25-10.44,7.05-14.31-1.63-5.23-11.07.34-14.68.33l-3.71.15c2.71-.89,5.25-2.36,7.58-3.98,2.05-1.43,4.15-3.98,5.86-5.02,14.44-8.81,45.36-8.32,59.86.3ZM326.65,246.35v7.39h-49.29v-7.39h18.98l-24.24-53.42,24.61-54.24h-16.38v-7.39h43.35v7.39h-16.38l24.61,54.23-24.24,53.42h18.98ZM259.72,72.59c-9.61,4.43-20.36,2.75-30.22,6.26,6.24-7.44,14.18-13.8,23.93-15.73,6.31-1.24,12.91-.98,19.13-2.85-2.07,5.46-7.68,9.93-12.84,12.31ZM276.64,29.91c-.59,9.65-7.83,17.07-16.01,21.38l-14.81,7.62c4.26-14.72,15.29-26.53,30.82-29ZM225.27,60.8c2.42-10.85,8.96-19.74,18.74-25.01v7.48c0,3.66-4.16,14.93-6.11,18.37-3.12,5.48-8.98,8.87-12.7,14.03-2-4.36-.95-10.28.07-14.87ZM214.99,57.1c2.61,8.53,3.68,17.98,2.15,26.85-.94,5.43-2.47,5.79-4.94,10.02-1.6,2.73-2.95,5.93-4.01,8.91l-2.03-5.44c-3.94-13.77-2.43-30.49,8.83-40.34ZM193.24,90.65c3.19,1.97,5.75,5.77,7.42,9.12,2.46,4.95,4.85,13.22,4.35,18.7-.31,3.39-3.46,8.1-2.71,12.07-11.85-9.72-13.51-25.95-9.06-39.89ZM191.5,149.27c-1.5-2.84-4.16-11.37-4.16-14.43,0-1.77-.34-5.88,0-7.25.07-.28.46-.59.92-.49,1.05.24,4.2,2.63,5.18,3.45,7.84,6.54,11.89,16.72,14.74,26.27-2.41-.64-5.28,1.72-7.37,1.29-2.82-.59-7.96-6.27-9.32-8.84ZM220.34,221.06c-7.25-2.35-6.44-11.52-8.43-16.95-1.06-2.9-3.66-5.4-5.16-7.99-4.15-7.16-7.31-16.6-5.69-24.9,1.4-7.15,7.85-10.9,13.48-5.1.52.54,4.24,5.7,4.35,6.09.26.95-.57,2.52-.27,3.65-2.22-2.33-5.97-6.6-9.52-5.69-3.46.89-4.09,6.13-1.51,6.06,1.81-.05.98-3.18,3.94-1.66,6.57,3.37,6.04,10.22,7.32,16.25,1.93,9.09,5.48,16.85,6.12,26.52.28,4.27-.1,5.18-4.63,3.72ZM227.86,133.19c-7.43,10.75-5.76,20.31-6.52,32.69-4.74-4.85-7.62-10.02-8.86-16.75-.62-3.37-1.52-13.51.91-15.91,1.56-1.53,6.59-4.07,8.81-5.7,1.38-1.01,2.82-2.04,4.13-3.12,1.41-1.16,2.68-2.68,4.07-3.85-.67,1.83,3.22,5.6,3.15,6.05-.07.43-4.83,5.32-5.69,6.58ZM231.05,111.91c-5.35,8.05-15.07,13.89-23.3,18.62.76-14.57,12.22-25.31,26.28-27.2.22,2.97-1.37,6.14-2.98,8.57ZM223.62,100.41c-3.53,1.5-6.69,3.69-10.21,5.2.02-2.91,2.13-6.55,3.66-9.03,4.75-7.72,14.19-14.09,23.53-14.09h11.1c-2.25,4.71-6.31,8.99-10.73,11.7-5.36,3.3-11.52,3.74-17.36,6.21ZM239.93,310.94v13.82c0,1.9,3.73,3.58,4.86-.57.36-1.31,1.03-5.88,1.03-7.13v-43.29c9.14,8.21,18.74,18.07,29.32,24.39,11,6.57,23.99,7.66,36.65,6.91,21.39-1.28,34.4-17.08,49.16-30.39-.69,6.86-.37,13.75-.43,20.64-.06,6.61-.46,13.27-.04,19.94.13,2,.51,8.05,1.36,9.41,1.45,2.34,5.01.1,5.01-1.72v-10.65c4.97,4.51,15.56,8.33,18.66,14.2,1.47,2.78,2.83,7.84,3.09,10.96.18,2.22.13,12.3-1.02,13.7-.28.34-6.83,3.63-7.88,4.13-45.07,21.71-99.7,18.05-146.1,2.54-4.76-1.59-10.82-3.81-15.29-6.02-.7-.35-4.3-2.22-4.55-2.47-1.02-1.01-2.04-5.19-3.59-6.45,3.18-5.57,1.38-11.32,5.36-16.69,3.37-4.54,6.34-4.08,10.92-5.85,5.31-2.06,9.89-4.95,13.48-9.41ZM200.08,308.94c10.57-7.88,24.89-7.01,37.13-4.34.2.2-2.95,4-3.33,4.37-8.97,8.54-20.65,4.65-26.01,18.63-1.36,3.56-1.28,6.75-2.61,10.07-4.15-2.86-8.67-5.48-13.81-5.9.73-2.76-1.03-6-.95-8.35.17-4.95,5.77-11.63,9.58-14.48ZM177.38,320.68c5.76,1.76,7.16,4.98,8.16,10.65-7.17.28-13.24,3.3-18.81,7.55-5.71-2.73-11.54-5.76-17.91-6.64,4.57-10.07,18.24-14.71,28.56-11.56ZM141.12,489.3l-1.58,41.01-34.23-12.7c9.27-28.01,12.47-58,25-84.91,5.92-12.71,13.82-24.72,21.91-36.12.46-3.59-1.34-2.82-3.4-1.12-6.4,5.31-15.71,20.72-19.72,28.32-15.25,28.86-19.66,60.59-28.78,91.57-12.36-5.32-24.86-10.93-36.56-17.6-1.35-.77-7.5-4.05-7.77-4.92-.21-.67-.14-1.47-.09-2.17.3-4.61,3.38-13.96,4.66-18.92,7.98-30.96,19-63.85,39.32-88.96,6.66-8.23,20.5-22.54,31.47-23.37,8.93-.68,18.12,2.24,26.43,5.11l3.65,9.98c-12.69,36.89-16.86,76.06-20.31,114.8ZM161.98,344.71c-1.93,3.92-4.35,7.9-4.09,12.46-10.89-2.87-23.86-7.2-34.89-2.94-6.13,2.37-11.1,6.84-16.32,10.64,2.38-20.59,20.39-30.04,39.9-26.53,3.23.58,13.03,3.54,15.39,5.47.76.62.26.41.02.9ZM166.76,370.27c-7.8-12.47,1.11-30.08,15.49-32.02,16.38-2.22,31.38,10.5,25.95,27.31-5.79,17.94-31.56,20.51-41.44,4.71ZM447.85,382.65c-12.65,43-54.87,85.23-96.43,101.2-28.9,11.11-47.06,8.05-71.94-9.18-29.64-20.53-56.23-52.51-72.89-84.4-.64-1.22-4.04-7.54-3.65-8.17.3-.47,2.33-1.74,2.96-1.15,17.85,16.6,36.04,32.89,56.08,46.85,24.26,16.91,64.41,41.02,94.97,34.85,1.69-.34,10.33-2.57,8.33-5.34-.84-1.16-9.96.82-11.82.94-26.7,1.71-53.53-12.31-75.43-26.1-25.15-15.83-47.85-34.83-68.93-55.71,1.55-.42,3.38-5.44,3.65-5.64.75-.54,12.6,6.49,14.46,7.46,31.62,16.45,68.94,32.59,103.8,40.34,37.15,8.26,66.23,8.71,84.7-29.08,9.59-19.63,13.72-46.59,7.32-67.7,9.62.66,17.34,3.3,24.69,9.53,2.04,1.72,4.86,5.7,7.37,6.23,1.4.3,3.51-.53,3.77,1.25l-11.02,43.83ZM467.93,530.32c2.54-24.01,5.31-48.08,10.65-71.61l10.98,62.35-21.62,9.27ZM547.92,492.24c-.45,1-9.72,5.62-11.54,6.59-13.91,7.41-28.12,14.42-42.61,20.61-4.88-24.1-6.68-48.76-12.16-72.75l9.44-38.3,8.23,16.46c10.31,23.55,18.78,47.63,20.74,73.54,4.16,5.09,3.82-3.47,3.66-6.38-1.75-31.58-16.04-63.12-30.3-90.77l5.05-20.16,2.59-8.51c3.67,5.17,7.53,10.23,10.89,15.62,16.64,26.67,29.72,63.51,35.13,94.51.4,2.32,1.76,7.59.89,9.52Z"/>
  </g>
</svg>