<?xml version="1.0" encoding="UTF-8"?>
<svg id="_图层_1" xmlns="http://www.w3.org/2000/svg" version="1.1" viewBox="0 0 604 593">
  <!-- Generator: Adobe Illustrator 30.0.0, SVG Export Plug-In . SVG Version: 2.1.1 Build 123)  -->
  <defs>
    <style>
      .st0 {
        fill: #0655bc;
      }
    </style>
  </defs>
  <g id="PPcHVI">
    <path class="st0" d="M565.8,219.47h-155.82c-123.9,48.44-247.93,96.57-371.37,146.15l-.48.79h261.3c.27,0,4.04,1.89,4.87,2.19,19.36,6.97,39.62,6.83,58.3-2.19l190.95.02c14.4-.94,12.18-12.96,12.24-23.57.19-33.24.03-66.85,0-100.1,0-7.76.03-15.52.01-23.28ZM474.98,306.34v4.94c0,2.02-2.81,6.11-4.38,7.47-10.18,8.8-27.53,2.57-37.22-4.22-.19-.06-.2.27-.14.42.27.6,4.39,4.01,5.22,4.65,9.59,7.4,22.61,12.8,34.82,9.74,1.13-.28,5.39-2.16,5.77-2.12,1.24.12,1.65,1.91,1.54,2.94-.04.41-.83,1.86-.12,1.86h6.77c.84,0,3.93-1.55,4.09-1.41,1.96,6.68-1.75,10.99-7.96,12.77-.44.13-4.35.53-3.61,1.33,3.17.7,6.53,2.82,7.75,5.93.28.71.29,1.56.57,2.25.62,1.52,2.19,2.64,3.81,2.83-2.94,4.71-8.99,5.95-14.17,5-.82-.15-3.09-1.05-3.47-1.05-.75.01-1.41,1.51-2,1.62-2.92.56-7.86-4.3-9.53-6.44-1.06-1.35-1.89-3.28-2.86-4.47-.27-.33-.46-.68-.97-.58,1.34,3.87.35,8.6-2.14,11.82-1.8,2.33-2.31,1.77-4.48.02-2.67-2.16-4.27-5.27-4.38-8.74-.36-.41-3.13,2.86-4.46-.18-1.21-2.77.23-8.04-.06-11.52-.91-11.11-14.98-25.88-21.38-35.03l-7.95-12.5c3.25,12.86,13.55,22.46,18.05,34.83,6.66,18.28-2.82,35.1-23.42,31.03-4.92-.97-10.16-4.32-14.94-1.55-.57-6.48,6.61-5.46,10.78-6.28,4.93-.97,8.23-4.14,10.23-8.64,3.55,1.73,8.2,6.64,12.47,4.54,3.84-1.88.51-7.34-1.21-9.62-4.26-5.65-11.43-9.54-12.53-17.23-.09-.09-.56.36-.56.42v4.23c0,.34-.87,2.9-1.08,3.44-1.27,3.26-3.89,7.18-7.38,8.27-1.67-6.2-5.43-11.2-5.65-17.9-.07-1.97.73-4.4.59-5.93-.04-.4-.19-.81-.57-.43-.3.3-1.38,3.07-1.55,3.67-.56,1.94-.76,4.04-1.29,6.04-8.32,31.31-40.31,49.54-71.75,46.41-17.23-1.71-45.98-13.85-52.74-31.03-1.44-3.65-2.02-7.37-1.27-11.27.3-.33,4.87,3.37,5.22,3.94l.21-3.73c.31-2.62,2.31-5.48,5.16-5.59,2.56-.09,1.12,1.07.97,2.4-.07.63-.08,1.93,0,2.56.24,2.09,1.35.13,2.17-.39,2.17-1.39,4.51-1.23,5.74,1.22-5.46,2.47-1.91,9.99.45,13.66,10.18,15.86,38.94,25.4,56.86,21.09.8-.19,3.55-.64,3.18-1.61-12.31,1.71-24.47-.09-35.08-6.65-24.18-14.93-35.03-49.15-11.03-69.64.54-.46,3.23-1.9,1.79-2.35-.61-.19-1.81.28-2.07-.32,3.81-2.03,7.38-4.24,11.56-5.5,18.6-5.62,40.96,3.6,43.68,24.29,1.61,12.24-7.07,28.06-20.7,27.77-2.93-.06-10.39-2.36-9.44-6.22,8.09,3.54,17.35-1.64,20.72-9.32,6.47-14.75-5.6-28.58-20.09-30.65-14.41-2.06-29.6,6.65-34.32,20.52-3.95,11.63-2.03,27.94,7.18,36.65-2.27-4.91-4.42-10.05-5.28-15.45-3.38-21.27,9.73-39.53,32.23-37.87,11.33.84,20.49,9.81,17.65,21.62-2.04,8.51-12.85,16.65-20.76,9.97-4.91-4.14-4.4-11.92,1.44-14.91,8.75-4.48,14.93,3.71,10.54,11.67,4.38.02,7.44-4.59,7.35-8.75-.17-8.29-8.75-14.81-16.31-16.14-23.35-4.09-32.5,22.47-25.38,40.89,11.86,30.71,47.76,35.21,69.6,11.64,21.56-23.26,18.11-57.35,34.4-83.34.52-.06.22.57.15.86-1.27,5.24-3.15,9.8-3.79,15.39-1.11,9.69.6,23.86,6.12,32.17.29.44.53,1.03,1.18.93-5.98-15.39-6.91-31.81-1.77-47.59,3.85-11.83,12.01-20.37,23.83-24.4,4.68-1.59,9.93-2.01,14.32-3.46.49-.16.67-.02.56-.69-19.33-1.55-35.54,8.55-45.8,24.28-18.1,27.74-13.81,73.04-50.78,86.28-21.14,7.57-48.71-3.76-47.24-28.91.61-10.42,8.95-19.82,19.73-19.6l-4.08,2.26c-20.43,19.57.7,44.95,25.95,38.08,24.51-6.67,31.28-37.33,39.13-57.89,8.32-21.78,19.31-41.89,43.14-49.08,20.65-6.23,47.63-.53,55.22,21.93,3.97,11.75.72,28.54-13.2,31.37-4.93,1-12.14-.39-11.62-6.68,8.63,6.26,19.05-1.8,19.99-11.17,2.09-20.82-24-32.69-40.67-22.62-7.22,4.36-16.53,16.67-10.47,25.03,2.61,3.61,4.36-.14,7,.03,4.35.28,6.01,6.23,3.68,9.56-1.88,2.69-4.1,2.74-7.17,2.56.54,3.51,3.85,3.23,6.56,4.29,2.3.9,3.96,1.87,5.23,4.07l2.57,5.27c-1.38.94-2.36,2.46-3.84,3.23-3.82,2-9.36,1.34-12.76-1.24-.39-.3-2.29-2.08-2.44-2.37-.44-.85,1.53-1.11.86-2.53-.44-.93-3.99-3.25-5.08-4.51-10.03-11.63-2.57-30.76,7.47-39.91.92-.84,3.21-2.22,3.82-2.95.3-.36.21-.71-.28-.57s-2.3,1.05-2.88,1.35c-19.58,10.28-24.14,37.62-11.2,55.02,6.88,9.25,21.07,16.26,31.68,8.89,3.4-2.36,6.39-8.06,11.4-4.87,2.99,1.9,2.72,5.21,1.6,8.13l11-1.69ZM284.33,361.9c-.11.51-.55.52-.98.57-11.55,1.3-26.16-3.8-36.26-9.17-12.73-6.77-27.2-19.66-42.65-17-3.37.58-6.72,1.93-8.96,4.57-.52.62-1.59,2.69-2.06,2.65-1.3-.11-1.86-2.12-3.1,1.22-1.21,3.29.27,5.55,2.93,7.39,1.17.81,1.91.25,1.6,1.92-1.12,6.11-8.86,7.16-12.11,2.1-1.37-2.13-1.74-4.81-1.07-7.25l-6.5,2.42c-3.46-9.08,2.37-19.07,10.26-23.62,5.33-3.08,11.7-4.04,17.78-3.3,12.45,1.52,22.32,9.55,32.32,16.32.12-.55-.13-.76-.41-1.14-2.36-3.22-9.35-8.44-12.76-10.93-4.73-3.45-13.59-7.64-15.94-12.83-1.4-3.11-1.74-7.13-.49-10.34,1.73.57,3.17-.11,4.91,0,3.64.22,6.77,3.25,8.05,6.48.72.12.44-.06.59-.39.53-1.17.8-2.74,1.36-4,.1-.24-.14-.54.43-.38,4.55,1.29,8.45,13.79,10.54,17.94,7.94,15.8,23.2,30.31,40.66,34.64,3.87.96,7.89,1.69,11.85,2.11ZM540.41,361.33c-4.8,1.19-11.44-.11-13.97-4.78-.62-1.15-.78-2.3-1.4-3.39-2.89,3.24-7.72,5.64-11.99,3.66,2.36-3.15.87-6.61,1.13-10,.16-2.1.96-4.66,1.92-6.54,1.07-2.09,2.81-3.67,3.71-5.73-3.84,2.82-10.17,6.2-14.64,2.94-2-1.45-.57-1.86,0-3.64.49-1.53.69-3.15,1.26-4.66,2.77-7.31,14.06-13.5,19.88-18.75,9.68-8.73,19.74-23.95,21.63-37.03,2.09-14.42-3.88-30.67-17.4-37.29-.12.53.3.67.56.99,1.46,1.74,3.48,3.43,4.91,5.24,17.43,22.07,6.3,56.95-21.83,62.02-.19-.17.86-2.9.94-3.44.05-.37.33-.4-.23-.78-4.02,1.97-8.45,3.23-12.97,2.81-1.33-.12-5.92-1.41-6.08-2.97-.18-1.8,3.26-3.59,2.83-4.08-7.02-1.49-14.18-7.79-12.97-15.51,2.37,1.73,4.91,3.48,7.89,3.95-1.33-3.01-3.81-5.21-2.12-8.75,1.43-3,6.73-4.2,9.73-3.38-3.12,3.08,1.43,6.7,3.97,8.29,3.89,2.44,8.91,3.92,13.51,3.83.15-.8-.21-.45-.62-.64-2.49-1.14-7.45-3.31-6.66-6.77.61-2.69,3.37-1.14,5.15-1.04,8.89.49,16.26-6.93,18.12-15.18,3.34-14.86-9.11-30.58-24.8-27.62-8.7,1.64-16.4,11.19-11.55,19.86,3.04,5.44,11.12,6.27,13.59.09-6.65,2.01-10.42-5.35-4.77-9.71,8.86-6.83,18.57,5.91,12.17,15.55-6.43,9.68-20.66,7.44-26.41-1.92-8.19-13.33,2.53-28.46,16.24-31.66,21.1-4.92,40.98,11.71,45.5,31.68,3.59,15.83-2.01,24.59-5.08,38.92-.86,4.03-2,12.13,1.4,15.25,1.56,1.43,3.15-.02,4.54.02.79.02,2.57,1.84,3.09,2.5,3.92,4.98-1.81,10.32-7.2,7.76-6.31-2.99-6.42-13.56-4.79-19.32-.64-.16-.92.78-1.17,1.22-4.15,7.42-1.6,19.99,6.62,23.36,1.19.49,6.23,1.26,6.43,1.53,1.87,2.54.26,13.18.53,16.61-.14.74-1.66,1.32-2.39,1.56-8.66,2.9-17.42-2.42-20.39-10.66-4.01-11.16.76-24.42,6.08-34.38,1.82-3.41,4.53-6.25,4.84-10.39h-.57c-9.51,13.47-20.89,33.18-13.21,49.88,1.36,2.95,4.43,6.47,4.75,9.63.31,3.12-.8,5.27.8,8.51.22.45,1.66,2.12,1.46,2.34ZM219.47,339.62h-4.65c-3.76,0-9.22,3.71-10.38,7.39-1.05,3.33.41,8.12,4.6,6.99-.02-.87-1.03-1.15-1.28-1.96-1.57-5.07,5.78-6.27,7.78-1.57,1.5,3.52-.55,7.2-4.04,8.39-5.52,1.88-11.06-2.47-11.49-8.09-.68-8.82,9.1-13.45,16.71-11.92l2.76.77ZM157.7,353.44c2.58,6.34-4.15,6.61-5.78,1.41-3.35-10.67,8.3-21.67,16.87-25.99,1.4-.7,2.83-1.48,4.42-1.64-1.21,1.48-2.79,2.54-4.09,3.94-4.52,4.86-10.66,14.21-6.4,20.79.88,1.36,2.98,2.13.45,3.16-2.4.98-3.44-.91-5.47-1.66ZM279.25,358.51c-10.28-1.29-20.31-7.13-27.92-13.95-9.4-8.43-19.83-23.63-16.83-36.87,1.62-7.13,8.28-12.52,15.71-11.79-4.88,4.03-4.1,10.38-4.79,16.07.44.49,1.87-1.95,2.14-2.23,6.39-6.44,14.93-4.71,13.65,5.33-5.42-5.81-10.53,2.96-10.99,8.04-1.29,14.09,10.47,26.57,22.17,32.54l6.87,2.85ZM157.42,334.54c-8.69,8.51-15.36,25.02-29.89,23.12,1.38-1.5,3.3-2.63,4.23-4.51-3.31.68-5.88.83-9.1-.35-1.14-.42-2.79-1.64-3.79-1.85-.58-.12-2.11.11-2.36-.23-.65-2.21,1.5-4.48,3.42-5.33.59-.26,3.36-.85,3.37-1.13-1.13-1.15-1.74-4.68.26-5.09.3-.06,3.35,2.02,4.15,2.37,7.92,3.51,15.4,1.2,22.57-2.73,2.43-1.33,4.62-3.11,7.14-4.28ZM179.7,322.97c-5.79,1.02-11.66,3.64-16.83,6.44-6.09,3.3-16.72,11.57-23.78,9.5-3.42-1-5.09-3.59-3.19-6.92,1.27.11,2.36-.47,3.6-.57,2.9-.23,5.85.56,8.96.21,6.35-.72,13.65-5,19.9-6.89,3.13-.95,7.1-1.89,10.35-2.07.31-.02,1.07-.18.99.29ZM489.87,319.25c-1.14.71-4.96-.41-6.13-1.22-4.34-3.02-2.59-7.19-3.48-11.47-.3-1.43-1.05-2.49-1.34-3.88.66-.59,6.88,1.84,7.91,2.38,5.87,3.07,9.55,10.15,16.91,10.59-.32.6-1.29.81-1.9,1.05-1.99.78-5.74,1.95-7.81,2.05-.96.05-3.39-.43-3.82-.15-.18.12-.2.55-.34.64ZM293.64,290.55c-4.56,6.9-15.29,15.7-24.1,13.52-3.74-.93-6.23-5.06-3.97-8.44,1.41,1.43,3.48,2.19,5.5,1.97-.33-1.76-1.79-3.12-1.63-5.14.12-1.56,1.35-3.48,2.93-3.86.61-.15.64,1.79,1.24,2.09,3.12,3.46,8.41,3.8,12.69,2.82,2.6-.59,4.86-2.04,7.33-2.96ZM457.48,295.9c-5.65-.88-7.95-7.99-3.5-11.83,5.13-4.44,12.72.43,11.68,6.89-.74,4.59-4.68,1.09-6.47,1.98-.55.27-1.55,2.29-1.71,2.97ZM392.06,251.91l-7.04,11.71c-4.19,6.28-10.76,13.55-18.8,14.2-1.66.13-3.42.53-3.21-1.51.19-1.82,1.39-3.21,2.52-4.54.31-.37,1.67-.91,1.14-1.53-.13-.15-3.18.57-3.82.57-6.17.07-14.3-3.18-16.54-9.41-1.54-4.27.96-1.89,3.43-3.15-5.03-7.13,2.45-14.45,9.88-13.26-6.69,1.61-5.89,8.54-.82,11.82,8.27,5.36,20.06-.95,27.25-5.69,5.81-3.83,11.01-9.15,17.85-11.06-5.7,5.58-11.67,11.18-18.24,15.74-7.8,5.42-17.76,9.87-27.44,7.67.19,1.05,2.54,1.81,3.44,2.06,7.95,2.16,16.3-2.07,22.48-6.74,2.8-2.11,5.15-4.74,7.92-6.89ZM449.88,264.32c-6.66-.81-8.42-8.12-6.57-13.76,2.71-8.24,12.35-11.68,20.18-8.74,4.09,1.54,8.3,5.4,7.97,10.08-3.69-1.02-6.46-3.95-10.45-2.26-2.97,1.26-3.19,4.03-2.95,6.91.28,3.3,2.27,6.38-3.12,5.38-1.88-.35-3.37-1.67-5.06-2.41v4.79ZM551.41,225.68c4.7-1.82,9.38,1.47,9.84,6.38.21,2.25-.96,5.21-3.16,6.1-2.58,1.04-2.78-3.47-3.79-4.8-2.57-3.39-5.38,2.6-5.15,5.01-2.48-2.38-1.27-7.12,1.27-9.02.41-.31,2.4-1.16,2.42-1.3.16-.97-1.56-2.2-1.43-2.37Z"/>
  </g>
</svg>