<?xml version="1.0" encoding="UTF-8"?>
<svg id="_图层_1" xmlns="http://www.w3.org/2000/svg" version="1.1" viewBox="0 0 604 593">
  <!-- Generator: Adobe Illustrator 30.0.0, SVG Export Plug-In . SVG Version: 2.1.1 Build 123)  -->
  <defs>
    <style>
      .st0 {
        fill: #efedea;
      }

      .st1 {
        fill: #0655bc;
      }
    </style>
  </defs>
  <g>
    <path class="st0" d="M190.7,293.79l104.93-246.73c2.39-5.62,10.35-5.62,12.74,0l104.93,246.73c.74,1.73.74,3.69,0,5.42l-104.93,246.73c-2.39,5.62-10.35,5.62-12.74,0l-104.93-246.73c-.74-1.73-.74-3.69,0-5.42Z"/>
    <path class="st1" d="M302,554.3c-4.52,0-8.42-2.58-10.19-6.74l-104.93-246.73c-1.17-2.75-1.17-5.91,0-8.67l104.93-246.73c1.77-4.16,5.67-6.74,10.19-6.74s8.42,2.58,10.19,6.74l104.94,246.73c1.17,2.76,1.17,5.91,0,8.67l-104.94,246.73c-1.77,4.16-5.67,6.74-10.19,6.74ZM194.52,295.42c-.29.69-.29,1.48,0,2.17l104.93,246.73c.65,1.52,2,1.69,2.55,1.69s1.9-.17,2.55-1.69l104.94-246.73c.29-.69.29-1.48,0-2.17l-104.93-246.73c-.65-1.52-2-1.69-2.55-1.69s-1.9.16-2.55,1.68l-104.93,246.73Z"/>
  </g>
  <path class="st1" d="M295.63,100.11l-82.37,193.68c-.74,1.73-.74,3.69,0,5.42l82.37,193.68c2.39,5.62,10.35,5.62,12.74,0l82.37-193.68c.74-1.73.74-3.69,0-5.42l-82.37-193.68c-2.39-5.62-10.35-5.62-12.74,0Z"/>
  <circle class="st0" cx="302" cy="296.5" r="41.12"/>
</svg>