<?xml version="1.0" encoding="UTF-8"?>
<svg id="_图层_1" xmlns="http://www.w3.org/2000/svg" version="1.1" viewBox="0 0 604 593">
  <!-- Generator: Adobe Illustrator 30.0.0, SVG Export Plug-In . SVG Version: 2.1.1 Build 123)  -->
  <defs>
    <style>
      .st0 {
        fill: #0655bc;
      }
    </style>
  </defs>
  <path class="st0" d="M50.15,358.78l-2.65-2.65.55-15.06,13.76.71-2.11-5.24.32-1.8h-1.18l-5.22-10.8-5.93-14-4.02-8.53-.36-11.2,1.55-.97,2.47-6-6.1-10.49-1.76-.31-8.17-12.14,6.4-5.31,1.97-1.31,5.96-3.05,5.39,6.58,2.51,6.74,2.04.59,5.94-14.86-9.48.31-2.65-2.65.55-15.07,15.36.9,2.57,1.08h.99c.15-.06.31-.13.47-.2.78-.34,1.66-.73,2.6-.73,2.5.16,4.63.16,6.89.16l7.47-.49,13.52-.36,1.14,7.98-.57,8.86h-8.58l-1.72-.51-1.09-.15,6.25,15.39.1.55.14-.2,2.06-.59,2.51-6.74,5.39-6.58,6.07,3.12,1.95,1.31,6.31,5.24-8.17,12.14-1.76.31-5.75,9.88,3.66,7.97-.52,9.52-8.27,16.65-1.09,1.37-.16,2.49-3.87,8.07-5.5,13.05,14.08-.31,1.14,7.97-.57,8.86h-8.58l-1.68-.5-4.8-.32h-5.01s-15.33.17-15.33.17l-3.15-.43-.63.64-.28.08c-1.17.33-2.27.53-2.93.53l-10.45.34ZM49.75,355.25l1.29,1.29,9.53-.31c.36,0,1.13-.12,2.08-.37l1-1,4.07.56,15.18-.16h5.1l5.24.38,1.48.44h6.18l.42-6.56-.83-5.81-15.53.34,6.85-16.25,3.7-7.73.17-2.76,1.46-1.82,7.88-15.93.46-8.52-3.91-8.52,6.84-11.77,1.85-.32,6.53-9.7-4.73-3.93-1.75-1.17-4.31-2.21-4.02,4.92-2.77,7.44-2.37.68-2.72,3.97-1.06-5.7-7.45-18.26h2.52s2.48.37,2.48.37l1.49.45h6.18l.42-6.56-.83-5.8-11.5.3-7.5.49c-2.37,0-4.54,0-7.04-.16-.4,0-1.03.28-1.64.54-.26.11-.51.23-.76.32l-.19.07h-1.86l-2.63-1.11-12.72-.74-.43,11.84,1.29,1.29,9.02-.3c.2-.17.44-.29.7-.38l.02-.02,3.81-3.81-8.52,21.3,1,2.2-3.04,2.2-1.7-2.48-2.37-.68-2.77-7.44-4.02-4.92-4.31,2.21-1.75,1.17-4.73,3.93,6.53,9.7,1.85.32,7.17,12.33-3.16,7.67-1.07.67.3,9.47,3.84,8.16,5.92,13.98,4.6,9.5h2.43l-.67,3.78,3.17,7.87-14.98-.77-.43,11.85ZM74.29,335.35l-7.08-18.5-3.13-6.43-4.03-2.82,2.03-2.43-1.29-4.14-1.52-3.86.06-.32c1.22-6.09,2.76-11.35,4.7-16.05l-.58-.84.29-.76-1.71-3.9,4.8.37,7.45-17.85,2.24,4.82,3.42,7.54.91,1.6,7.36,14.46,1.74,3.14c.61,2.19,1.15,4.44,1.65,6.89l.07.33-7.56,18.52.09,1.66h1.79l-3.74,3.74-4.82,9.37-3.15,5.46ZM63.29,307.17l2.53,1.77,3.45,7.07,5.43,14.2.8-1.39,4.95-9.63,1.59-1.59-.16-2.86,7.5-18.36c-.46-2.22-.96-4.28-1.51-6.28l-1.59-2.82-7.36-14.46-.96-1.69-3.56-7.83-6.13,14.7-2.72-.21.59,1.35-.2.53.6.88-.24.56c-1.97,4.62-3.52,9.81-4.74,15.86l1.32,3.37,1.65,5.33-1.25,1.51Z"/>
  <path class="st0" d="M137.33,361.04l-15.07-9.37,2.91-7.17,3.22-2.88c1.49-2.08,2.55-3.74,3.89-5.83l.27-.42c.47-.79.92-1.57,1.37-2.34.45-.78.91-1.56,1.4-2.38l.17-.29,4.13-1.92-.25-1.4,10.46-16.09-4.89-5.9-3.21-1.44-12.76-11.77-8.22-8.05-.18-11.15,8.31-11.87,8.02-9.28-.32-1.76,4.67-6.29,3-1.95c-.02-.07-.05-.16-.07-.22-.12-.41-.28-.91-.09-1.46l.1-.22,4.3-7.16,5.94.59,10.73,8.55-5.14,7.57-4.14,4.14-1.54,3.01-9.32,10.96-1.5,2.1-.33,1.16-4.52,6.03,2.56,3.1,3.04,4.31,2.6,1.65,15.21,14.23,4.81,3.56.35,13.66-6.16,10.08-8.86,10.83-6.49,8.76c-.36.65-.68,1.36-.99,2.05-.2.46-.4.9-.59,1.29l-.16.33-1.48,4.32-1.74,2.12-1.13,2.25.32-1.26-2.62,3.21ZM125.01,350.77l11.84,7.36,3.69-4.51,1.74-5.06.12.04c.1-.23.21-.47.32-.71.32-.72.69-1.54,1.12-2.3l.07-.11,6.56-8.86,8.84-10.81,5.7-9.34-.31-11.93-4.09-3.04-15.18-14.2-2.72-1.7-3.25-4.61-3.62-4.38,5.32-7.1.32-1.14,1.81-2.53,9.26-10.89,1.5-2.99,4.32-4.32,3.8-5.63-8.62-6.87-3.9-.39-3.42,5.69c.02.05.03.11.05.17.15.49.37,1.23,0,2l-.13.27-3.37,2.19-3.86,5.2.34,1.85-8.68,10.04-7.8,11.14.15,9.52,7.55,7.39,12.48,11.5,3.35,1.51,6.26,7.55-10.87,16.72.4,2.21-5.06,2.35c-.42.71-.81,1.39-1.21,2.06-.46.79-.91,1.57-1.41,2.4l-.29.45c-1.38,2.15-2.47,3.84-4.02,6.02l-.16.18-2.93,2.62-2.01,4.97Z"/>
  <path class="st0" d="M195.5,358.25l-9.82-1.48.03-13.84,2.33-9.77-1.39-1.54.84-23.58.82-33.37-.99-7.73.66-10.49-.85-5.79-2.24-.31-.63.63-.28.08c-1.15.33-2.28.53-2.93.53l-10.45.34-2.65-2.65.55-15.06,17.23.89,3.03,1.28c.26-.06.67-.24,1.01-.39.78-.34,1.66-.73,2.6-.73,2.5.16,4.63.16,6.89.16l7.52-.49,16.07-.35,1.14,7.97-.57,8.86h-8.58l-1.68-.5-4.8-.32h-4.05s-.82,5.76-.82,5.76l.64,3.55-.33,12.25c0,3.61.05,5.76.15,6.35v.18c.01.64.06,1.35.1,2.03.04.68.08,1.33.08,1.91v2.79l.17,12.71-1.48,9.87,1.81,2.86v31.1l1.39,12.32-5.57,3.07-4.95.88ZM187.9,354.86l7.57,1.14,4.23-.76,3.95-2.18-1.24-11.04v-30.52l-2.27-3.59.53-.53,1.41-9.39-.16-15.35c0-.53-.04-1.14-.08-1.77-.04-.69-.08-1.4-.09-2.08-.15-1.06-.16-4.09-.16-6.65l.33-12.06-.67-3.67,1.15-8.02h6.05l5.24.37,1.48.45h6.18l.42-6.56-.83-5.81-14.09.31-7.52.49c-2.37,0-4.54,0-7.04-.16-.4,0-1.05.29-1.63.54-.71.31-1.38.61-2.07.61h-.22l-3.14-1.32-14.6-.75-.43,11.85,1.29,1.29,9.53-.31c.36,0,1.13-.12,2.08-.37l1-1,4.98.68,1.12,7.66-.66,10.51.98,7.69v.08s-.82,33.47-.82,33.47l-.81,22.7,1.57,1.74-2.57,10.77v11.55Z"/>
  <path class="st0" d="M276.63,359.26l-4.56-7.44-5.85-13.37.14-2.33-1.63-.82-6.29-11.91-1.46-3.73-5.39-10.92.13,14.07.49,16.22.5,1.49.18,14.55-7.51,3.01-12.14-1.1,1.03-27.32,2.32-6.02-1.34-1.94v-6.74l-.99-27.92,1.31-3.29-.81-31.11-.69-14.87,14.32-5.8,26.86,23.32.83,3.46c.39-.1.83-.22,1.08-.29.69-.19.83-.23,1.04-.23h.43l8.61,7.89-1.25,10.73-7.75,9.44-5.26,6.24-2.78,3.43-4.15,5.64c.54.99,1.2,2.07,1.84,3.11.75,1.21,1.45,2.36,1.95,3.35l.12.23v2.63c.31.34.6.65.89.94.79.83,1.54,1.61,2.36,2.78l.05.07,6.71,11.41v1.75l.71.36.36.74v-.25l4.99,10.53,5.61,5.95-.2,5.84-14.76,8.2ZM274.07,350.87l3.34,5.43,11.82-6.56.13-3.67-5.22-5.53-.92-1.94v.08l-4.24-8.78-1.26-.63v-2.51l-6.39-10.86c-.72-1.02-1.37-1.7-2.12-2.49-.38-.4-.78-.82-1.22-1.31l-.28-.31v-2.94c-.45-.86-1.07-1.87-1.74-2.95-.8-1.3-1.63-2.64-2.25-3.88l-.3-.61,5-6.78,2.82-3.48,5.26-6.25,7.33-8.93,1.05-8.96-7.02-6.43s-.09.03-.14.04c-2.09.58-2.72.75-3.29.18l-.22-.22-.97-4.06-25.3-21.96-11.6,4.7.62,13.33.83,31.58-1.31,3.27.32,8.3.66,19.2v6.09s1.61,2.33,1.61,2.33l-2.6,6.77-.94,24.85,9.52.87,5.61-2.24-.15-12.68-.49-1.47-.5-16.57-.19-20.61,3.03,3.03,6.68,13.54,1.45,3.71,5.87,11.11,2.3,1.15-.19,3.25,5.6,12.81ZM249.23,298.56l.43-8.04-.65-14.47-.3-1.65-.33-1.02-.73-3.3,1.36-3.24v-1.42l.39-15.22,16.85,16.67,1.3.98,3.83,4.79-2.35,2.99c-2.07,2.87-6,7.96-8.38,10.85l-8.33,10.33-3.09,1.77ZM250.53,272.83l.35,1.08.34,1.95.66,14.66-.19,3.52,7.24-8.98c2.36-2.87,6.25-7.9,8.33-10.78l1.29-1.64-2.64-3.3-1.16-.84-13.27-13.13-.26,11.91-1.26,3,.57,2.55Z"/>
  <path class="st0" d="M312.23,358.98l-11.46-1.11-6.62-4.16,4.6-20.78,1.68-10.62,1.71-1.71-.14-2.91,3.82-23.54.94-3.3.03-3.04,4.98-22.25,2.56-2.99-1.56-2.13,1.23-7.03,1.48-6.93,1.77-11.17,14.63-.71,3.7,1.74-.18,6.25,1.12,2.91,5.32,25.42-.96,2.48,1.64,1.23,7.98,40.17v2.15l4.09,15.23,1.71,10.8-.71.94,2.02,2.15,2.13,8.34-13.29,4.31h-2.58l-3.55-1.88-2.19-21.26-.72-5.02.86-1.07-.83-.55-1.5-6.17-1.25.18-3.19,2.24-11.1,2.65-1.38.62-2.73,1.09-1.75,11.32-1.32,1.61,1.07,4.28-2.01,12.24ZM301.5,355.72l8.88.86,1.6-9.74-1.23-4.91,1.64-2,1.85-11.97,3.87-1.55,1.63-.7,10.79-2.58,3.39-2.38h.43l3.21-.46,1.78,7.28,2.12,1.41-1.77,2.21.59,4.12,2.08,20.13,2.02,1.07h1.68l10.98-3.56-1.48-5.77-2.9-3.1,1.26-1.68-1.56-9.82-4.12-15.49v-2.19l-7.77-39.01-2.3-1.73,1.33-3.43-5.16-24.68-1.2-3.09.15-5.23-1.88-.89-12.28.6-1.5,9.45-1.49,6.95-1.06,6.06,2.04,2.79-3.35,3.9-4.83,21.59-.04,3.13-.97,3.38-.48,3.05-3.26,20.07.18,3.65-1.9,1.9-1.58,9.98-4.27,19.32,4.86,3.05ZM316.53,314.4l.41-2.88,1.45-7.86,2.45-18.3-1.03-3.29,1.98-.99,4.36-26.61,3.48,24.57.66,3.02.65,8.47,3.46,18.68-5.57,1.39-12.3,3.78ZM321.73,297.73l-2.5,13.52,9.03-2.78,3.58-.9-3.11-16.81-.65-8.45-.64-2.88-1.46-10.3-2.2,13.42-1.3.65.61,1.96-1.73,12.92.37-.36Z"/>
  <path class="st0" d="M393.16,360.13l-6.3-9.82-.33-1.97-12.67-19.67,1.24-2.78-7.1-6.63-5.99-10.82-3.91-6.11-.17-11.13,11-18.54,5.57-5.42v-3.79l4.1-6.56v-.65l9.23-15.16.18-1.41,6.59-7.73,13.97,9.32-5.16,9.2-4.72,6.57-2.56,1.66-.78,4.19-9.97,14.79-5.4,8.51-3.09,5.52-1.85,3.41,3.75,7.2,2.32,2.32,1.52,3.39,6.02,9.28,7.54,12.78,8.55,11.19,4.28,6.89-9.38,7.75-6.51,4.21ZM388.97,349.5l4.86,7.57,4.59-2.97,7.74-6.4-3.23-5.2-8.57-11.22-7.55-12.8-6.13-9.46-1.39-3.1-2.27-2.27-4.45-8.55,2.41-4.45,3.12-5.59,5.44-8.58,9.73-14.44.87-4.67,3.01-1.95,4.43-6.18,4.06-7.25-10.63-7.09-4.89,5.73-.15,1.22-9.15,15.03v.66l-4.1,6.56v4.09l-6.14,5.96-10.43,17.65.15,9.87,3.6,5.64,5.86,10.57,7.99,7.47-1.39,3.13,12.27,19.05.33,1.97Z"/>
  <path class="st0" d="M430.06,357.91l-3.64-.17-8.78-.19,2.53-16.06,1.71-2.85-1.76-2.49v-37.04s.5-5.08.5-5.08l.48-8.79-1.14-4.21-.5-33.05,1-2.25-1.1-.61-.99-9.92,8.93-.57,11.84.73-.92,13.23-.8,4.01-.49,21.39-.49,8.32.65,6.31.35,4.4-1.21,2.83,1.52.97v45.98l.32,2.39.34,3.22v.07s-.19,6.86-.19,6.86l-8.16,2.59ZM420.21,355.39l6.28.14,3.28.16,6.28-2,.14-5.21-.32-3.04-.33-2.58v-44.84l-2.09-1.33,1.74-4.06-.31-3.83-.66-6.46v-.09s.5-8.37.5-8.37l.51-21.64.81-4.03.74-10.79-9.48-.58-6.5.41.65,6.48,1.85,1.03-1.62,3.66.49,32.42,1.16,4.14-.5,9.21-.49,5.08v36.18l2.18,3.09-2.23,3.71-2.07,13.14Z"/>
  <path class="st0" d="M468.54,361.04l-15.07-9.37,2.91-7.17,3.22-2.88c1.49-2.08,2.55-3.74,3.89-5.83l.27-.42c.48-.79.93-1.58,1.38-2.36.45-.78.9-1.55,1.39-2.37l.17-.29,4.13-1.92-.25-1.4,10.46-16.09-4.89-5.9-3.21-1.44-12.76-11.77-8.22-8.05-.18-11.15,8.31-11.87,8.02-9.28-.32-1.76,4.67-6.29,3-1.95c-.02-.07-.05-.16-.07-.22-.12-.41-.28-.91-.09-1.46l.1-.22,4.3-7.16,5.94.59,10.73,8.55-5.14,7.57-4.14,4.14-1.54,3.01-9.32,10.96-1.5,2.1-.33,1.16-4.52,6.03,2.56,3.1,3.04,4.31,2.6,1.65,15.21,14.23,4.81,3.56.35,13.66-6.16,10.08-8.86,10.83-6.49,8.76c-.36.65-.68,1.36-.99,2.05-.2.46-.4.9-.59,1.28l-.17.33-1.48,4.31-1.73,2.11-1.13,2.25.31-1.26-2.63,3.22ZM456.22,350.77l11.83,7.36,3.69-4.51,1.74-5.06.12.04c.1-.23.21-.46.32-.71.32-.72.69-1.55,1.12-2.31l.07-.11,6.56-8.86,8.84-10.81,5.7-9.34-.31-11.93-4.09-3.04-15.18-14.2-2.72-1.7-3.25-4.61-3.62-4.38,5.32-7.1.32-1.14,1.81-2.53,9.26-10.89,1.5-2.99,4.32-4.32,3.8-5.63-8.62-6.87-3.9-.39-3.41,5.69c.02.05.03.11.05.17.15.49.38,1.23,0,2l-.13.27-3.37,2.19-3.86,5.2.34,1.85-8.68,10.04-7.8,11.14.15,9.52,7.55,7.39,12.48,11.5,3.35,1.51,6.26,7.55-10.87,16.72.4,2.21-5.06,2.35c-.42.7-.81,1.38-1.2,2.05-.46.79-.92,1.58-1.42,2.42l-.29.45c-1.38,2.15-2.47,3.84-4.02,6.02l-.16.18-2.93,2.62-2.01,4.97Z"/>
  <path class="st0" d="M510.22,357.92l-1.56-7.43,2.07-6.06-1.38-3.68v-7.75l.99-45.56,2.03-2.16-2.05-1.41.17-15.35-1-16.33,1.27-2.22-.04-.19-1.51-2.18-.2-2.02-.18-10.24,8.1-.57,6.79-.92,7.73,15.64,8.38,14.67,1.84-2.81,5.42-9.82,1.69-.56-1.03-2.19,9.23-15.44,9.04,1.69,5.12,2.28-1.2,25.28-1.77,3.39,1.44,2.02,1.32,53.22v.06s-.82,10.22-.82,10.22l1.13,8.91.33,5.3,1.09,11.47-15.12.73-4.71-2.94-.54-7.71v-.1s1.15-10.77,1.15-10.77v-17.83l1.63-2.44-1.42-1.29-.7-8.04v-.07s1.15-35.69,1.15-35.69l-.28-2.63-2.42,3.13v1.54l-2.23,4.12-2.49,6.41-6.63,1.29-5.21-.19-4.89-9.61-1.17-2.67-1.45-2.83-.19,6.37.16.16v23.32l-1.14,2.76,1.14,23.05.33,24.16v8.15l-17.42.37ZM555,353.69l3.17,1.98,12.11-.58-.88-9.22-.33-5.25-1.16-9.07v-.11s.82-10.28.82-10.28l-1.3-52.43-1.84-2.57,2.17-4.16,1.1-23.28-3.62-1.61-7.15-1.31-7.83,13.11,1.59,3.38-3.23,1.08-5.04,9.14-3.58,5.48-1.3-1.36-9.19-16.08-7.06-14.27-5.28.71-6.08.43.14,8.09.13,1.31,1.44,2.09.29,1.45-1.35,2.37.96,15.75-.16,14.25,3.2,2.2-3.22,3.42-.98,44.69v7.32s1.52,4.04,1.52,4.04l-2.13,6.24,1.06,5.04,13.42-.29v-5.97l-.33-24.1-1.16-23.5,1.16-2.82v-21.96l-.16-.16v-.62l.46-15.33,5.41,10.56,1.18,2.68.63,1.26,3.64,7.12,3.65.14,5.18-1.01,2.13-5.46,2-3.69v-1.74l2.97-3.84,3.13-5.57,1.04,9.58-1.15,35.77.61,7.05,2.19,1.99-2.31,3.47v17.34s-1.14,10.73-1.14,10.73l.45,6.39Z"/>
</svg>