<?xml version="1.0" encoding="UTF-8"?>
<svg id="_图层_1" xmlns="http://www.w3.org/2000/svg" version="1.1" viewBox="0 0 604 593">
  <!-- Generator: Adobe Illustrator 30.0.0, SVG Export Plug-In . SVG Version: 2.1.1 Build 123)  -->
  <defs>
    <style>
      .st0 {
        fill: #0655bc;
      }
    </style>
  </defs>
  <g id="ST0B49">
    <g>
      <g>
        <path class="st0" d="M246.65,262.28c-3.48,1.03-7.31.33-10.82.66-2.23.21-4.55,1.46-6.7,2.14-4.15,1.31-8.49,2.16-12.85,1.55-.29-1.92-1.6-4.12-3.55-4.69,2.19,2.25,2.75,4.86,2.55,7.95-.31,4.68-.82,6.43.29,11.3.26,1.14.96,2.59,1.08,3.64.05.39.01.25-.28.28-.69.08-1.66-.24-2.07.59.44.02.83-.21,1.28-.21,1.09,0,5.52,1.71,6.52,2.33.41.25.72.57,1.04.92.13.54-1.31.42-.98,1.27l52.85-17.73,1.53-.33-.77,2.66-50.74,17.15c-.19,1.32.03,2.31-1.4,2.96l-.68-1.37c.26,1.52.41,2.62-1.38,3.06-1.49.37-1.33-1.61-1.56-2.58-.08-.33.19-.57-.4-.48-.21,1.3,1.41,3.1-.25,3.78-2.12.86-2.06-.99-2.48-2.34-.1-.32.16-.55-.42-.46-.25,1.25,1.36,2.54-.01,3.42-2.15,1.4-1.9-1.54-2.93-2.44.07.77.94,2.02.49,2.75s-2.06.47-2.56,0c-.23-.22-1.02-2.8-1.3-3.42-.71-1.58-1.8-2.56-1.76-4.54.01-.63.38-1.38.34-1.94-.02-.36-.74-2.44-.91-2.98-2.37-7.24-6.38-13.13-6.68-21.2-.08-2.26-.15-3.51,1.86-4.81,2.4-1.56,5.67-3.36,8.22-4.74,5.39-2.92,10.88-5.07,17.1-5.45.68.16-.32,2.01.02,2.54.61-.87.6-1.98,1.28-2.85,2.22-2.84,8.99-4.75,12.5-5.18,1.33-.16,6.96-.31,7.84.35.72.53.92,5.55.86,6.59-.25,4.27-2.08,8.2-4.17,11.83ZM236.49,257.42c0-.44.22-.83.21-1.27,0-1.24-2.08-6.63-2.8-7.82-.15-.25-.49-.79-.75-.92.07,3.33,2.4,6.17,2.75,9.52-2.94.25-2.12-3.35-2.56-5.2-1.04.21-.85.45-.73,1.42.22,1.72,1.06,3.29.95,5.04.23.27,6.3.45,7.15.41.24,0,.73.15.68-.19l-4.91-.98Z"/>
        <path class="st0" d="M258.46,244.68c.34,2.86,1.65,5.65,3.28,8.01,1.54,2.22,5.7,6.63,8.59,6.48,1.94-.1,5.34-1.92,6.81-3.22.89-.79,1.4-1.8,2.26-2.47l5.79,2.37c.15.2-2.31,3.43-2.63,3.94-2.11,3.35-3.83,6.96-5.24,10.67-.21.24-1.61.75-2.04.91-3.65,1.36-8.2,2.9-11.93,3.97-.24.07-1.42.44-1.52.34,1.39-3.06,1.11-7.4-1.82-9.47-4.81-3.4-11.68,1.65-9.21,7.05,1.04,2.27,4.77,2.78,6.4.83.91-1.09.85-3.99-1.06-3.91.03.59.67.89.78,1.48.64,3.48-5.63,3.86-5.57-.72.07-4.54,5.8-6.2,8.91-3.02,2.31,2.37,2.05,7.51-1.12,8.89-4.05,1.76-9.59,3.1-13.91,4.55-3.55,1.19-7.07,2.49-10.6,3.73-.49-.31-.09-.76-.09-1.26.03-5.4-.68-10.92-.41-16.31.02-.47.22-2.86.3-3.04.12-.24.35-.34.6-.39,1.3-.24,3.45.08,4.9,0,.78-.05,5.13-.83,5.4-.59-.43,1.51-.97,3-.78,4.61l.39,1.67c.03-.42-.04-.85,0-1.27.56-4.89,4.07-7.31,5.65-11.83,1.51-4.32,1.3-8.37.63-12.82l7.25.81Z"/>
        <path class="st0" d="M275.36,276.07c-1.09,3.85-1.86,7.78-2.5,11.73-3.75,4.32-7.02,9.12-8.4,14.77-4.56,2.14-9.23,4.66-14.38,3-4.97-1.6-10.46-5.78-13.89-9.67-.43-.48-2.53-3.09-2.61-3.48-.13-.62.52-2.02.37-2.78l41.41-13.57Z"/>
        <path class="st0" d="M228.44,305.33c.32-.11.82-.02,1.08-.18.94-.57,2.29-2.52,3.14-3.35l3.65,3.43.1.31-16.47,26.47c-3.47-1.9-6.74-4.15-9.72-6.75l18.03-18.95-1.28.38c-5.83,4.87-11.15,10.33-16.78,15.43-.15.13-.24.08-.39,0-.37-.19-2.78-2.44-2.74-2.73l24.34-18.69c.42-.22.68.35.97.6l-3.92,4.02Z"/>
        <path class="st0" d="M242.35,309.48c.22.35-1.79,7.01-2.08,7.98-2.06,6.74-4.63,13.34-6.74,20.07-4.08-.82-7.74-2.88-11.57-4.31l14.92-27.01c.21-.17.37-.09.59.01.52.23,1.67,1.4,2.3,1.83.44.3,2.51,1.31,2.58,1.44Z"/>
        <path class="st0" d="M243.48,310.24c.3-.08,1.97.89,2.44,1.07.51.19,3.01.77,3.07,1.17l-3.1,26.3c-.07.25-.24.28-.46.32-.82.15-3.18.06-4.12,0-1.11-.08-4.97-.62-5.85-1.02-.14-.06-.24-.12-.33-.25l8.36-27.58Z"/>
        <path class="st0" d="M274.38,252.31c.55.14.9-.49,1.32-.56.2-.03,2.52,1.04,2.6,1.16.3.43-1.76,2.3-2.17,2.63-1.57,1.25-4.98,3.18-7,2.52-.93-.31-3.42-2.33-4.18-3.09-2.53-2.52-4.97-6.37-5.5-9.92,1.35-.07,2.41.44,3.64-.39,1.05-.71,1.74-3.25,2.06-3.44.62-.38,2.6.24,3.34-.39.43-.37,1.38-3.25,1.74-3.96,1.99-3.96,2.18,2.25,2.45,3.32.71,2.75,3.43,5.24,5.21,7.35-.81,1.83-2.21,3.3-3.5,4.78Z"/>
        <path class="st0" d="M258.88,335.76l-4.14-23.05,4.63-1.43,9.67,18.3c-.99,1.11-9.5,6.63-10.16,6.18Z"/>
        <g>
          <path class="st0" d="M286.95,348.52c-2.58-.04-5.79-1.05-8.33-.6-.2.03-.08.54-.21.79-.29.58-2.02.99-2.65,1.19,0,.37.82.2,1.05.17,1.96-.22,3.4-1.24,5.53-1.16.93.03,6.36,1.07,6.96,1.48.31.24.13.2,0,.39-.28.42-1.52,1.58-1.96,1.97-.55.48-2.79,2.22-3.34,2.37s-1.36-.75-1.91-1.06c-6-3.34-13.64-3.13-19.94-.78-7.79,2.91-14.1,9.06-21.63,12.5-.47-.11-1.32-2.89-1.07-3.29.08-.12,2.19-.91,2.65-1.17,8.06-4.49,12.13-13.94,22.16-14.56,2.12-.13,1.75.08,3.3.82,1.01.49,1.99.35,3.08.35l-3.13-1.68c-3.75-2.48-7.29-5.2-10.61-8.23,3.34-1.48,6.34-2.91,9.37-4.96,3.26-2.22,6.3-4.81,9.18-7.5,3.03,4,4.55,8.92,7.2,13.21.68,1.09,1.97,2.42,2.47,3.42.25.5,2.06,6.11,1.81,6.33Z"/>
          <path class="st0" d="M282.61,355.42c.36.54-.92,1.05-1.35,1.26-11.46,5.65-25.03,6.49-36.52,12.07-.23-.8-.62-1.73-1.38-2.16l1.18,2.45c-.86.93-1.7-.04-2.37-.78-.51-.56-.8-1.27-1.37-1.77l5.82-3.01c10.67-6.49,19.41-14.12,32.81-9.51.43.15,3.05,1.28,3.16,1.45Z"/>
          <path class="st0" d="M238.4,362.7c.55-.02.61,1.98.83,2.62.65,1.95,2.14,3.47,3.72,4.7-2.48,4.13-7.45,9.89-8.01,14.75-.14,1.24.64,3.33-.5,4.02-.75.45-1.45-.06-1.96-.62-.99-1.09-1.95-5.23-2.08-6.76-.23-2.69,1.71-5.45,1.96-8.25.24-2.68-.56-5.9-.15-8.39.4-2.36,2.4-1.61,4.17-1.72.61-.04,1.42-.33,2.01-.35Z"/>
          <g>
            <path class="st0" d="M237.27,339.69c.17.19-.83,1.56-1.02,1.83-2.78,4.06-6.33,8.31-9.68,11.92-1.64,1.77-3.63,3.33-5.03,5.27-.41.24-.85-.41-1.21-.6-3.27-1.76-6.74-1.81-10.15-.35l.59.49-1.57,1.47c1.19-.17,2.28-1.35,3.3-1.71.91-.31,2.7-.35,3.67-.25s4.98,1.39,5.01,2.45c.02.98-3.11,3.87-3.56,4.98-.55.32-1.2-.96-1.65-1.34-2.38-2.06-6.45-2.21-9.31-1.27-8,2.63-12.26,13.59-14.59,20.95-1.42,4.48-2.07,9.38-4.77,13.32-.38.03-2.48-1.64-2.42-2.04.05-.33,1.34-2.21,1.58-2.75,1.9-4.25,2.48-9.4,3.79-13.88,2.37-8.07,6.69-14.84,14.14-19.04.27.83-.85,1.71-.59,2.55.84-1.45,2.35-3.14,3.08-4.57.49-.96.59-2.31.94-3.38,2.43-7.54,5.29-14.9,8.66-22.07.26-.08.48.04.71.14,1.88.81,4.06,2.39,6.07,3.35,4.44,2.13,9.12,3.81,14.01,4.55Z"/>
            <path class="st0" d="M188,397.4c-.2-.29,1.99-4.48,2.29-5.24,3.83-9.42,7.37-29.43,20.74-29.09,1.17.03,3.72.88,4.62,1.67.31.27,1.18,1.25.91,1.65l-14.43,17.19c-3.78,4.78-7.72,9.5-10.2,15.13-1.4-.13-2.65-.79-3.93-1.31Z"/>
            <path class="st0" d="M191.52,399.38c-.03,2.04-.5,4.16-.6,6.18-.07,1.52-.18,4.44.05,5.85.38,2.27,3.61,3.75,3.69,4.57.04.35-.28,1.02-.6,1.17-1.49.71-6.73-.26-8.4-.83-4.62-1.57-3.1-4.16-3.37-8.01-.12-1.68-.67-3.46-1.23-5.05-.24-.67-.94-1.55-.94-2.2-.02-2.04,3.6-3.4,4.13-5.4,1.99,1.85,4.4,3.7,7.26,3.73Z"/>
          </g>
        </g>
        <path class="st0" d="M232.67,292.96c.29-.06.31.17.45.32.79.84,1.61,2.41,2.48,3.41,2.26,2.59,5.35,5.23,8.29,7.03,6.43,3.93,10.18,4.51,17.22,1.39.49-.22,3.15-1.75,3.36-1.74.14,0,.22.22.22.4-.01.65-.14,1.33-.13,2.06.01.61.37,1.31.17,1.92-.09.26-4.2,2.2-4.83,2.44-4.78,1.84-8.5,2.17-13.34.28-6.63-2.6-13.18-8.21-16.92-14.24.57-.48,2.53-3.15,3.03-3.26Z"/>
        <path class="st0" d="M253.96,312.59l3.27,23.87c-.13.82-8.49,2.82-9.75,2.64l2.16-26.7c1.49.23,2.8.66,4.32.2Z"/>
        <path class="st0" d="M264.12,309.09c.65-.09.58.45.93.77,3.32,3.08,6.73,6.11,9.74,9.5l1.07,4.42-5.11,4.52-10.48-17.01c-.08-.25.14-.32.3-.43.28-.2,3.36-1.74,3.55-1.77Z"/>
        <g>
          <path class="st0" d="M289.3,211.27l-4.31-2.25,4.9-10.51c-2.81,2.93-4.47,6.6-5.11,10.6-.3-.14-.56-.3-.89-.38-3.59-.91-8.03-.83-11.53.43-1.25.45-2.39,1.1-3.56,1.71-1.7-3.03-3.5-6.01-5.81-8.63.87,2.33,2.17,4.83,3.73,6.77.3.38,1.8,1.62,1.75,1.94-1.62,1.34-3.09,2.58-4.39,4.27-.29.38-.77,1.57-1.19,1.57-.24,0-3.44-2.2-4.15-2.54-1.46-.7-3.25-1.23-4.79-1.79l4.31,2.85c1.42.75,2.92,1.39,4.51,1.67.25.29-.93,2.35-1.12,2.89-.59,1.66-1.08,3.59-1.03,5.35-3.55-.41-6.8-.22-10.21.79-.05.34.45.18.68.19,1.58.06,3.56.11,5.12,0,.7-.04,3.61-.67,3.89-.58.53.16.26,1.32.35,1.83.1.62.59,1.73.18,2.18-.16.18-2.09.98-2.62,1.31-2.76,1.73-5.48,4.98-7.17,7.76-.14.23-.5,1.58-.82,1.24-.21-.22-1.2-5.14-1.32-5.85-1.56-9.25.29-19,5.44-26.85,8.45-12.89,25.21-17.32,39.21-10.93,1.02.47,7.34,3.97,7.13,4.84-.04.15-2.22,1.43-2.62,1.71-3.18,2.3-6.48,5.07-8.58,8.4ZM277.13,207.94v-6.18s-.78-5.4-.78-5.4c-.44,3.42-.68,6.69.25,10.05l.53,1.53Z"/>
          <path class="st0" d="M285.77,247.5c0,.08.19.94.39.88l.57-11.07c-.06-.16-2.57-1.16-3.06-1.46-1.94-1.21-2.9-2.99-3.8-5.04,2.79-.56,5.43-2.28,8.12-.47,1.51,1.02,1.87,2.63,1.69,4.37-.05.42-.36.84-.37,1.21-.02.53.42,1.2.4,2.15-.08,3.19-.49,6.43-.61,9.6-.06,1.57.18,3.43.02,4.93-.03.29-.02.49-.3.67-4.46-1.53-8.42-4.38-11.59-7.85-.93-1.02-2.58-2.92-3.15-4.12-.72-1.5-.91-5.58-2.26-6.19-2.26-1.04-2.89,4.29-4.13,4.9-1.15.56-4.42.27-5.79.12-.22-.02-.63-.06-.68-.31-.04-.21,1.49-1.83,1.73-2.19.95-1.42,1.52-3.06,1.61-4.78l10.6.98-2.9-1.12c-2.48-.46-4.99-.33-7.47-.68-2.17-6.87.29-14.18,6.66-17.72,5.33-2.96,11.18-2.26,16.22.83,1.79,1.1,3.78,3.12,4.38,5.14l-21.99,7.46,7.47-1.46c4.12-1.02,8-2.77,11.97-4.23-.2,1.76.6,2.57,1.9,3.5.28.2.88.34,1.05.52.39.44.16,4.53.19,5.51.01.46.2.89.21,1.36.08,2.53-.13,5.05.19,7.57-.16.17-2.21-.77-2.32-1.11-.29-.85.05-3.94-.09-5.22-.81-7.67-6.85-5.31-12.12-4.08,1.23,2.57,2.4,5.21,5.04,6.64.48.26,2.32.68,2.4,1.14.04.16-.17.31-.17.37,0,2.81-.3,6.55,0,9.23Z"/>
          <path class="st0" d="M287.73,214.03c-.18.15-3.62-1.7-4.27-1.91-9.71-3.16-19.22,3.89-20.07,13.79-.14,1.62.76,3.53-1.68,3.05-.96-7,1.68-13.67,7.83-17.32,4.29-2.55,10.62-3.24,15.3-1.49.52.19,3.66,1.72,3.66,2.02-.48.5-.72,1.18-.77,1.87Z"/>
          <path class="st0" d="M292.45,224.33c.02.19.34.54.2.88-1.24.16-3.16-2.61-2.16-3.44.19-.16,1.96-.94,1.96-.39,0,.94-.08,2.04,0,2.95Z"/>
        </g>
      </g>
      <g>
        <path class="st0" d="M302.03,247.27c22.19-2.07,31.94,30.34,32.64,47.55.73,17.92-5.87,53.07-27.85,56.21-22.64,3.23-32.39-30.63-33.23-47.75-.87-17.63,6.27-53.94,28.44-56.01ZM303.4,251c-8.04.45-14.34,6.96-18.06,13.55-10.77,19.15-10.68,49.54-.2,68.79,8.67,15.92,24.38,19.83,35.65,3.77,10.99-15.67,12.55-41.09,7.52-59.12-3.1-11.13-11.18-27.76-24.92-27Z"/>
        <g>
          <path class="st0" d="M321.47,264.82c-3.67-6.29-10.28-13.3-18.26-12.64-7.8.64-13.95,7.79-17.34,14.27-9.57,18.3-9.67,45.86-.52,64.34,10.43,21.08,28.22,19.85,38.1-.85,8.88-18.59,8.46-47.22-1.97-65.12ZM318.28,300.3l-3.85,8.1-3.07,6.21-4.48,11.01-.86,2.28-.63.71-3.3-.47-.16-1.57-3.3-7.39-.31-3.14h-1.18l-1.73-4.01-1.57-3.46-1.49-3.54-2.04-4.56-.47-2.75.71-.79,4.8-11.01,1.1-1.1.08-.71v-.39l.08-.24,4.95-11.32.39-.79.47-1.41.86-.16,2.83-.24,1.26,3.62,4.64,10.53.79,2.91.55.71h.55l1.49,3.85,3.14,5.66-.24,3.46Z"/>
          <polygon class="st0" points="314.03 295.58 313.4 295.03 313.09 294.25 312.3 292.83 307.19 281.04 307.66 280.02 307.35 280.02 306.88 279.94 304.44 274.75 303.97 274.36 303.89 274.51 303.81 275.06 302.63 277.66 297.68 287.01 296.66 287.72 296.74 287.72 296.5 289.92 293.59 296.84 293.51 297.15 293.51 297.55 293.44 298.18 293.59 298.49 293.91 299.2 294.85 301.56 294.93 301.79 296.89 306.9 299.25 311.85 302.08 317.99 304.13 323.25 304.28 323.17 304.91 322.78 304.83 322.78 309.32 312.48 310.57 311.46 311.12 309.42 314.82 298.8 314.5 297.86 314.03 295.58"/>
        </g>
      </g>
      <g>
        <path class="st0" d="M198.97,300.93l10.93-4.09-.94-2.52-9.39,3.52c.22,1.06.02,2.22-.6,3.1Z"/>
        <g>
          <path class="st0" d="M356.43,242.16c.09.38-.14.38-.33.55-2.74,2.49-7.54,5.59-10.72,7.74-4.99,3.37-10.53,7.71-16.75,4.49-.47-.24-1.26-2.04-1.22-2.44.02-.18,1.53-2.8,1.76-3.14,1.92-2.81,5.02-3.62,8.17-4.39,6.19-1.52,12.76-2.13,19.09-2.8ZM346.62,246.29c-3.92,1.11-7.8,2.49-11.58,4.03-1.54.63-4.19,1.58-5.51,2.34-.29.17-.66.26-.58.7,1.28-.81,2.96-.88,4.28-1.31,1.49-.49,3.01-1.32,4.55-1.73l8.84-4.02Z"/>
          <path class="st0" d="M319.91,257.98c2.41-.91,4.83-1.81,7.26-2.68l-.59-2.33c-2.56.89-5.1,1.82-7.64,2.76.57.61.9,1.42.97,2.25Z"/>
        </g>
      </g>
    </g>
  </g>
  <g id="rXRnk2">
    <g>
      <g>
        <path class="st0" d="M521.97,308.36c-.31.19-.91-.05-1.25-.15-1.82-.52-4.68-1.92-6.44-2.79-1.27-.63-6.27-3.2-7-3.99-.42-.46-.93-1.73-1.36-2.37-3.77-5.5-8.28-10.47-12.27-15.81-.34-3.05-.29-6.19-1.29-9.12.49-.28.92.66,1.28.88.15.03.13-.2.09-.29-.17-.42-1.21-1.59-1.57-2.16-3.03-4.79-5.58-8.68-9.81-12.57-.33-.31-2.41-1.71-2.16-2.06,2.54-1.15,5.13-2.34,7.95-2.55,1.53-.12,7.17.08,8.25.98.59.49,1.52,2.06,2.15,2.76,2.8,3.07,4.93,4.06,8.89,5.24,2.58.77,6.11,1.55,8.79,1.44.8-.03,3.26-.72,3.69-.57.24.08.73,1.01,1.24,1.32.83.51,2.16.8,3.01,1.4.38-1.15-1.03-3.28-.75-4.18.2-.68,3.22-2.12,3.31-2.99.07-.73-.85-3.09-.96-4.14-.1-.93.02-1.89-.02-2.82,3.43,1.05,5.18,5.17,6.63,8.2-.74,8.6,1.09,17.13,3.28,25.38.46,1.73,1.27,3.37,1.43,5.18-4.84,5.16-9.85,10.16-14.79,15.24-.15.15-.25.51-.32.55ZM505.52,290.33c7.8.49,15.31-7.86,11.43-15.45-1.9-3.72-6.47-5.55-10.23-3.28-4.85,2.93-3.16,10.87,3.23,10.1,3.01-.37,3.84-5.2.49-5.5,3.76,3.78-2.02,6.42-4.6,2.93-3.69-4.99,4.21-10.61,9.02-5.29,5.51,6.1-.69,14.17-7.21,15.96l-2.12.53Z"/>
        <path class="st0" d="M480.97,222.2c-.47.72-.29,2.12-1.13,2.5-11.21,3.1-22.69,5.34-33.87,8.55-.41.12-.84.21-1.24.33-.14.04-.43-.07-.29.29s.66.9.88,1.48c.77,2.06.63,2.7,1.99,4.69,3.49,5.1,8.74,9.01,12.41,14.1.76,1.05,1.34,2.23,2.03,3.27.39.58,2.32,2.79,2.32,3.18,0,.65-1.64,1.13-1.97,1.66,1.58-.36,2.96-1.1,4.71-.98l-1.68-.77c-.67-.64-.07-.97.5-1.28,2.49-1.37,6.34-1.68,9.13-1.47.86.06,3.96.54,4.6.9,1.49.83,4.41,3.99,5.61,5.38,1.83,2.12,3.41,4.46,5,6.78-.29.37-.22.24-.52.13-.8-.28-1.76-.99-2.56-1.18-.29-.07-.53-.16-.45.26.12.3,3.56,2.02,4.19,2.49.86.63,1.03,2.41,1.24,3.47.14.68.85,4.91.65,5.14-.45.01-.79-.48-1.08-.78-2.12-2.2-3.88-5.14-6.07-7.29-3.26-.92-6.69-.64-10.03-.97-6.35-.62-12.66-1.71-18.89-3-2.99-4.35-5.77-8.59-8.21-13.29-2.23-4.3-4.35-10.22-6.88-14.13-1.35-2.08-4.96-3-6.21-5.47l-.95.05-19.57,4.97c-1.54.13-2.01-1.56-.65-2.22l20.04-5.09c.33-.25,0-1.07.67-1.49.3-.19.65-.12.84-.24.21-.13.45-.94.98-1.08.39-.11.95.06,1.2-.08.12-.07.14-.58.57-.71.6-.19,1.08.21,1.52.16.28-.03.51-.33.81-.39,1.6-.28,1.86,1.59,2.71,1.57,12.56-3.09,25-6.65,37.63-9.42Z"/>
        <path class="st0" d="M502.28,240.07c-1.57.18-5.19,1.77-6.47,1.58-.65-.1-1.52-2.53-2.07-2.87-.41-.25-1.49.65-1.87.11-.2-.28-.64-2.75-.68-3.25-.89-10.73,8-18.53,18.5-16.14,1.53.35,1.88.23,1.53,1.91-6.84-2.23-15.85.6-17.47,8.24l1.8-3.01c3.58-5.71,13.62-6.86,18.8-2.96.5.37,1.99,1.61,1.39,2.14l-14.33,8.34c4.7-1.12,8.7-4.38,12.9-6.65.42-.03.73.97,1.17,1.32.61.48,1.56.55,2.23.92,1.44,3.53,3.02,7.05,4.13,10.7-2.58.54-2.31-1.52-3.11-3.27-1.62-3.55-3.07-5.44-7.36-3.95l-4.85,2.71c1.07.44,1.75,1.63,2.65,2.35,1.84,1.48,3.85,2,6.19,2.05l2.14,5.91.79,1.47-2.34-8.16c-3.13.35-6.22-1.17-8.25-3.52,2.74-1.16,6.14-4.41,8.84-1.38,1.01,1.14.68,1.74,1.11,2.82.29.75.76,1.46,1.05,2.29,1.4,3.94,2.64,8.05,3.73,12.08h-3.04c-.81,0-5.43-1.43-6.43-1.81-2.05-.78-5.37-2.56-6.73-4.27-.88-1.1-1.99-4.54-3.9-3.32-1.33.85-.25,4.39-1.1,5.38-.62.73-4.65,1.21-5.7,1.67.91-2.32,1.1-4.65.39-7.07l3.5-.72,6.12-1.64c-1.04.08-2.22-.11-3.24,0Z"/>
        <path class="st0" d="M486.57,235.75l-3.44.98c2.51.18,4.96-.43,7.46-.59l.53,3.05c-2.4,1.33-4.37,2.92-5.91,5.21-.24.35-1.91,3.64-2.08,3.52-3.6-7.56-4.35-15.38-1.72-23.41,5.05-15.37,22.31-22.71,37.05-16.16-2.98,3.17-5.68,6.86-6.87,11.09-1.57-.71-3.16-1.1-4.91-.98l.98-8.44c-.31.18-.43.97-.53,1.33-.65,2.31-1.01,4.5-.84,6.92-1.94-.17-3.86.5-5.71.7-.57-2.62-1.54-5.1-2.54-7.58-.37-.05-.14.39-.1.59.22,1.45.83,3.36,1.33,4.76.19.52,1.29,2.24.92,2.68-.08.09-1.81.7-2.27.97-.94.54-1.86,1.12-2.62,1.91-.14.1-.28.11-.45.07-.68-.18-3.87-4.42-5.04-4.89.21.68.81,1.43,1.27,1.97.65.77,1.79,1.89,2.55,2.55.27.24,1.33.56,1.08.98-.01.02-.23-.03-.38.15-1.31,1.59-2.34,3.02-3.08,4.97-.53.13-6.33-2.35-6.35-1.68,1.99.83,3.93,1.88,6.08,2.26-.49,2.39-.95,4.61-.58,7.06h-3.83Z"/>
        <path class="st0" d="M513.15,250.7c.29.45-.37,2.66.35,2.89.53.17,2.16.14,2.89.25,2.78.41,5.57,1.12,8.37.76,0,.67-.05,1.34.05,2.01.1.71,1.13,3.72,1.09,3.95-.18.91-3.1,1.91-3.27,2.41-.39,1.16.7,2.43.56,3.6-.17.19-2.09-1.08-2.35-1.29-.31-.24-.46-.76-.73-.85-.42-.14-2.79.35-3.49.38-3.84.15-10.34-1.46-13.9-3-.43-.19-3.89-3.74-4.07-4.17-.18-.41.29-.26.48-.3.54-.12,4.44-1.25,4.42-.29,0,.17-.93.64-.78,1.08,1.42-.41,2.8-.98,4.32-.98.05-.3-.37-.23-.59-.29-.98-.25-2-.31-2.98-.55-.31-.08-.56-.45-.87-.49-1.01-.12-3.52,1.71-4.58-.14,2.47-1.4,1.45-4.27,1.17-6.58.71-.14,2.55-.53,2.84-1.18.36-.82-.03-3.52.3-4.8.11-.44.55-.78.97-.6.71.3,1.67,2.76,2.2,3.51,1.11,1.6,2.93,2.73,4.67,3.57.5.24,2.84.97,2.93,1.1Z"/>
        <path class="st0" d="M524.76,315.86l.79,26.57c-.12.53-8.5,1.54-9.63,1.31l3.97-28.73c.03-.12.13-.29.25-.3.81-.08,3.52,1.37,4.62,1.15Z"/>
        <path class="st0" d="M519.04,314.31l-4.32,29.41c-2.99.38-6.04.12-9.02-.27l9.43-30.54,3.9,1.4Z"/>
        <path class="st0" d="M531,317.08l4.5,21.28c-.1.59-7.6,3.81-8.77,3.82l-.98-25.92,5.26.82Z"/>
        <path class="st0" d="M504.72,343.14c-.41.04-.83.02-1.24-.02-1.31-.13-5-.6-6.1-.97-.24-.08-.55-.1-.48-.45l15.19-30.34c.4.37,2.29.88,2.24,1.42l-9.61,30.36Z"/>
        <path class="st0" d="M541.44,310.96l1.97,3.63c-.02.22-2.3.92-2.7,1.02-9.52,2.38-22.02-1.64-30.48-6.12-.65-.35-4.03-2.23-4.31-2.56-.18-.21-.22-.28-.2-.57.02-.35.97-2.91,1.18-3.56.06-.2-.13-.37.3-.29.6.1,3.02,1.84,3.82,2.27,2.4,1.29,5.2,2.64,7.72,3.66,7.1,2.87,15.17,4.95,22.7,2.52Z"/>
        <path class="st0" d="M537.5,317.05l6.88,14.81c0,.36-2.19,2.07-2.65,2.44-1.12.89-3.51,2.77-4.69,3.36-.2.1-.35.23-.6.19l-4.43-20.62c1.83-.03,3.67.11,5.48-.18Z"/>
        <path class="st0" d="M538.5,316.84c1.09.3,4.19-1.22,4.9-.89l9.02,7.88c-2.04,2.71-4.5,5.02-6.96,7.33l-6.97-14.33Z"/>
        <path class="st0" d="M489.99,340l-3.32-.97.1-.59c6.83-8.72,13.34-17.68,20.05-26.49.29-.38,1.64-2.24,1.94-2.18.26.05.39.5.15.73l-18.91,29.49Z"/>
        <path class="st0" d="M523.58,253.03v.69c-.16.11-1.42.28-1.18-.2,3.7-3.4,8.57-5.58,13.65-5.79.34-.01,1.58-.13,1.67.29.03.16-1.72,2.13-2.05,2.66-1.87,3.03-2.14,5.4-2.86,8.72-.06.27.02.5-.3.68-1.52-2.66-2.85-4.76-5.31-6.67-1.38-1.07-2.01.07-3.63-.4Z"/>
        <path class="st0" d="M537.13,294.07c.17.16.74,4.12.41,4.62l-11.21,11.19c-.17.07-3.42-.75-3.52-.9-.05-.07-.03-.44.03-.55l14.29-14.36Z"/>
        <g>
          <path class="st0" d="M511.21,310.95l-15.51,31.61c1.93.27,3.85.77,5.8.98.58.06,2.91-.08,3.21.24.1.11-.09.47.15.56.54.2,3.13.35,3.9.39,3.5.17,7.92.13,11.39-.21,13.26-1.28,24.53-9.95,32.81-19.83.76.59,2.14.92,2.82,1.48,2.46,2.05,3.72,4.26,6.78,6.18,2.1,1.32,4.27,1.77,6.18,2.86,1.36.78,4.62,4.19,5.42,5.58,1.45,2.55,1.02,2.01-.83,3.3-1.42.99-2.72,2.15-4.19,3.07l-3.52,1.88c1.2.43,2.32-.08,3.38-.64,2.76-1.43,5.01-4.25,8.2-4.86.21.22-1.53,5.7-1.79,5.86-.2.12-1.03-.02-1.43.05-12.24,2.22-11.68,15.48-14.07,24.8-1.14,4.45-3.11,8.73-4.26,13.02-.05.19-.2.69.15.64,2.8-5.49,4.68-11.25,5.99-17.27.99-4.55,1.2-9.45,3.53-13.55,2.08-3.67,5.13-5.87,9.25-6.85.64-.15-.17,1.62-.28,1.88-4.72,11.54-10.51,22.56-14.77,34.32-.24.67-.76,3.03-.96,3.32-.51.72-3.73.14-4.58-.13s-3.1-1.22-3.09-2.18c.97-3.86,1.92-8.05,2.35-12.01.24-2.27-.08-3.56-.19-5.69-.35-6.86,2.83-11.87,7.26-16.69.93-1.01,3.13-2.05,1.25-3.4-2.08-1.5-10.88-3.31-13.96-4.3-3.43-1.1-6.74-2.54-10.14-3.59-5.24,2.74-10.35,4.9-16.32,5.5-2.14.21-4.35.02-6.47.2-.32.03-1.48.19-1.67.29-.21.12-2.47,3.35-2.95,3.92-3.43,4.05-7.57,8.72-11.48,12.28-.31.28-2.06,1.88-2.2,1.93-.48.17-.77-.65-1.24-1.05-2.38-2.05-6.14-1.97-9.04-1.37-15.28,3.11-21.54,21.87-30.67,32.55-.28.56-.2.49.35.68,1.5-2.12,3.24-4.08,4.77-6.17,6.19-8.44,12.34-21.38,22.56-25.15,4.13-1.52,10.75-2.59,12.91,2.31-2.06,1.81-4.25,3.49-6.41,5.18-9.96,7.79-22.72,16.05-31.19,25.16-.93,1.01-.35,1.39-2.07,1.27-1.72-.13-3.82-1.26-4.18-3.08-.24-1.22,1.49-2.75,2.2-3.8,5.18-7.67,9.65-20.26,17.02-25.39,3.16-2.2,6.24-2.72,9.41-4.33,2.84-1.44,2.82-3.62,3.79-6.23,1.94-5.21,3.82-10.45,6.25-15.44,1.43-.3,2.69.39,4.09.36l-3.93-.98.11-.58c6.12-9.86,12.75-19.43,18.56-29.45l1.56.58Z"/>
          <path class="st0" d="M451.32,396.36c.26,1.58,1.44,2.74,2.89,3.3.49.19,2.59.49,2.61.73-1.98,3.99-3.62,7.68-4.12,12.18-.11,1.03.2,2.16-.18,3.15-.93,2.38-8.38,1.94-9.93.48s.4-4.98,1.18-6.49c.99-1.92,2.54-3.93,3.28-5.95.48-1.31.51-2.77,1.06-4.04.62-1.44,1.95-2.49,3.22-3.36Z"/>
          <path class="st0" d="M550.58,388.91c1.34,1.22,3.92,2.07,5.72,2.14.62.02,1.37-.43,2.04-.08,2.43,2.62,5.81,6.25,8.97,7.92.79.42,4,1.28,4.17,1.94.28,1.06-2.33,1.39-3.02,1.44-4.45.34-6.98-1.13-10.95-2.22-2.89-.79-4.12-.16-6.74-.33-3.37-.22-3.81-1.67-2.79-4.57.73-2.09,1.88-4.12,2.6-6.23Z"/>
        </g>
        <path class="st0" d="M556.96,255.48c-2.99-2.7-7.59-5.97-11.83-5.35-5.52.81-7.54,9.17-7.81,13.79-1.03,17.75,11.4,50.05,24.93,61.85,8.44,7.36,15.05,5.48,17.39-5.59,3.96-18.77-8.48-51.87-22.68-64.71ZM573.24,316.72l-.84,1.02-1.77-1.41-1.17-2.02-.81-.23-7.95-6.92-.77-1.48-4.01-2.91-4.36-4.2-2.27-1.82-1.56-4.12,2.47-9.73,1.95-9.06.76-.82-.54-.98,1.23-7.67.61-.36-.04-1.47.43-1.38,3.28,1.09-.54,2.82-1.2,3.28-.1,2.18-3.02,10.73-.83,5.31-.33,3.25-.66,3.6,1.24,1.33,1.1,1.13,2.18,1.77,1.81,2.64.78-.09,3.28,2.9,6.13,5.61,2.07,1.64,3.15,2.28,1.66,1.53-1.35,2.59Z"/>
        <path class="st0" d="M560.6,253.61c-2.84-2.93-6.43-5.4-10.3-6.74-4.09-1.42-8.63-1.22-11.83,1.96-3.35,3.32-4.75,8.36-5.08,12.93-1.4,19.33,10.03,49.61,23.17,63.83,9.74,10.53,22.67,14.07,26.62-3.43,1.89-8.39.83-17.34-1.06-25.63-2-8.78-5.15-17.37-9.31-25.36-2.31-4.43-5.01-8.79-8.1-12.76-1.29-1.65-2.64-3.28-4.1-4.79ZM580.27,321.99c-2.88,10.88-10.43,11.76-18.49,4.86-13.28-11.36-24.76-40.99-25.63-58.21-.33-6.48,1.17-19.08,9.58-19.67,9.74-.69,20.63,15.37,24.66,22.94,7.01,13.19,13.78,35.37,9.88,50.09Z"/>
        <path class="st0" d="M539.27,307.38h0s-.65-1.89-.65-1.89h0c-.17-1.13-.6-3.22-.67-3.69-.06-.44.18-1.99-.51-1.84-.4.09-2.46,2.68-2.94,3.15-1.89,1.86-4.04,3.57-5.81,5.58-.17.19-1.32,1.53-1.17,1.67,2.9.44,5.98,1.04,8.93.78.64-.06,2.92-.46,3.44-.69.22-.09.45-.16.57-.39-.4-.39-.83-1.82-1.18-2.69Z"/>
      </g>
      <g>
        <path class="st0" d="M566.58,200.41l.39,1.96-50.85,13.16c-.2-.23.14-2.3.48-2.36.65-.12,5.86-1.56,6.98-1.86,14.3-3.74,28.57-7.66,43-10.9Z"/>
        <path class="st0" d="M590.73,195.3c-.08.31-.4.47-.65.63-2.27,1.46-5.8,3.09-8.31,4.25-4.32,2.01-8.57,4.48-13.33,2.2-.62-.3-.97-1.26-1.04-1.93s2.13-2.81,2.74-3.27c1.82-1.38,4.89-1.95,7.14-2.09,4.47-.27,8.99.3,13.46.21ZM580.91,197.66c-2.8.48-5.88.98-8.54,1.96-.3.11-.98.27-1.08.59l4.01-.8,5.61-1.75Z"/>
      </g>
    </g>
  </g>
  <g id="ud8Coh">
    <g>
      <g>
        <g>
          <path class="st0" d="M427.12,346.45c.36.37-1.3,3.98-1.4,4.69-3.94,0-7.97,1.94-10.86,4.55-7.13,6.45-6.29,16.25-7.81,24.98-.68,3.9-2.01,8.01-2.44,11.89-.02.22-.23.67.14.63,2.22-5.63,3.37-11.63,4.29-17.6.67-4.38.59-8.36,2.35-12.57,2.48-5.89,7.41-10.05,13.78-11.06.02.22,0,.43-.04.64-.39,1.63-2.19,4.91-2.94,6.69-4.75,11.38-10.16,23.48-13.91,35.17-.35,1.09-.62,2.3-.79,3.43-2.81-.4-5.52.14-8.24.79.2-2.97.6-5.96.78-8.93.91-14.67-1.47-26.14,11.3-36.42,4.34-3.5,10.13-6.7,15.8-6.88Z"/>
          <path class="st0" d="M399.1,399.91c1.26-.74,7.1-1.81,8-.93.23.23.95,2.48,1.24,3.08,1.46,3.04,5.2,9.73,7.81,11.63.84.61,3.79,1.62,4.11,1.97,1.85,2.1-4.88,1.74-5.79,1.67-4.6-.39-7.19-5.16-11.23-7.23-1.37-.7-5.29-1.68-6.06-2.39-2.06-1.9,1.29-5.79,1.92-7.81Z"/>
          <g>
            <path class="st0" d="M363.02,349.8c-1.76.05-4.13-.08-5.9-.21-4.42-.31-8.81-1.19-13.17-1.91-.3.05-.65,1.58-.74,1.94-.48,1.91-.89,4.25-1.25,6.21-.35,1.92-.48,5.81-1.05,7.35-.02.06-.08.11-.14.16l-1.42.19c-6.93.37-13.6,2.95-18.56,7.85-4.23,4.18-7.05,9.58-10.99,13.95-.93,1.03-2.17,2.24-3.43,2.76-.39.52,2.86,6.17,3.72,6.77l4.14-3.13c11.93-7.23,24.78-12.99,37.88-17.79.45-.5-2.63-2.36-3.01-2.58-6.38-3.78-13.82-3.65-20.22.07-6.87,3.99-10.68,11.67-16.04,17.24l2.39-3.99c5.22-7.93,11.59-16.1,21.76-17.22h.78s5.01,0,5.01,0c1.5,0,5.44,1.77,6.83,2.59.5.29,2.16,1.66,2.42,1.69.41.04,2.08-1.05,2.49-1.37,2.09-1.63,4.73-5.74,6.3-8.03,2.82-4.12,5.47-8.43,7.78-12.84,0-.41-5.15.29-5.59.3Z"/>
            <path class="st0" d="M309.68,395.99c-.72-1.05-1.58-1.65-2.24-2.81-.77-1.36-1.36-3.19-1.67-4.71-2.42.31-6.15-1.23-6.48,2.24-.19,2.05.14,4.39,0,6.48-.2,3.23-2.32,10.18-1.58,12.77.54,1.89,4.62,5.56,6.6,5.6,2.63.05.43-2.37-.02-3.34-1.28-2.78-.09-4.98,1.05-7.6,1.27-2.92,2.89-5.8,4.33-8.64Z"/>
          </g>
        </g>
        <g>
          <path class="st0" d="M373.67,245.18c.11.14.59,1.66.87,2.17,3.37,6.04,13.33,14.49,20.44,9.92.78-.5,1.28-1.13,1.96-1.71l6.21,2.94c-.65,2.34-1.86,4.5-2.68,6.82-2.39,6.78-3.68,14-4.37,21.15-.09.94.1,1.94-.05,2.9s-.89,2.15-1.19,3.13c-.53,1.72-1.06,3.47-1.32,5.26-.27.01-.38.06-.6-.13-.63-.55-1.3-1.72-2.05-2.43-.48-.45-2.24-1.95-2.74-2.17-1.28-.56-5.21.43-6.68.82-5.21,1.36-10.58,3.78-15.14,6.61-2.39-2.34-4.08-5.28-6.34-7.75,0-6.18-1.13-12.52-2.46-18.55-.91-4.11-2.04-8.17-3.67-12.05.05-.52.7-.55,1.08-.87,5.63-4.79,7.5-14.03,5.89-21.01-.14-.59-1.44-4.16-1.28-4.32,3.27.72,6.89,2.8,9.43,5,1.2,1.04,2.24,2.5,3.35,3.52.33.3,1.2.62,1.31.76ZM365.67,282.05c8.33,1.07,15.47-8.34,11.49-15.91-3.88-7.39-14.72-3.75-12.93,3.7,1.09,4.54,8.55,4.54,8.09-.24-.08-.87-.94-2.67-1.95-1.99-.65.43.13.51.3.69,2.17,2.24-1.07,4.85-3.7,3.32-2.38-1.39-2.21-4.65-.52-6.55,3.09-3.47,8.33-1.77,9.97,2.21,2.29,5.57-1.02,10.86-6.1,13.24-1.5.7-2.49.89-4.06,1.24-.22.05-.63,0-.59.29Z"/>
          <path class="st0" d="M352.31,180.34c.32-.17.42-.19.78-.12.83.16,2.46.93,3.34,1.3-.37-.65.32-2.78.79-3.24.7-.69,2.18-.11,2.35.79.25,1.3-.64,2.27-.98,3.43-.72-.35-1.41-.68-2.16-.98.43.75,1.95.86,2.15,2.07.17,1.04-.96,4.97-1.65,5.79-1.34,1.59-4.04,1.85-5.59,2.86-.93.61-1.94,4.4-2.24,5.61-1.31,5.22-1.74,10.68-3.42,15.83-.87,2.68-1.94,6.03-4.57,7.41.46-.06,1.88.75,1.96.69.04-.03.13-.81.6-.7.62.14,3.31,2.01,3.98,2.5,2.7,2.01,5.51,5.21,7.16,8.15.69,1.23,1.32,2.34,1.31,3.79.27.37.4-.22.96-.2,1.64.05,2.07,2.17,2.42,3.49,1.6,6.11.97,12.56-2.34,17.97-.24.39-1.59,2.37-1.83,2.49-.31.15-.49-.62-.49-.69v-6.38l-1.11.77c-5.83-4.8-11.05-10.29-15.55-16.42-2.14-2.92-4.02-6.04-6.16-8.96-.75-1.02-3.25-3.49-3.27-4.55.9-2.88,1.36-5.89,2.18-8.78,1.27-4.44,3.16-8.67,5.34-12.72,1.52-2.82,7.09-10.96,7.37-13.44.21-1.88-.3-3.76.8-5.58l6.66,2.15c.1.46-.06.31-.25.44-.72.46-2.39.81-2.01,1.92.85-.87,2.14-1.79,3.36-1.95.92-.12,2.1.31,2.74-.41.48-.96-2.46-2.18-2.77-2.95-.07-.16.07-1.08.1-1.37-.81.44-.6,2.38-.81,2.72-.05.07-1.21.45-1.41.4-.25-.06-.81-.85-.87-1.1-.27-1,.44-2.85.68-3.93.09-.42-.02-.9.09-1.28.36-1.22,2.75-1.23,3.07-.2.23.77-.62,2.36-.75,3.4Z"/>
          <path class="st0" d="M398.84,215.49c.14.19-.53,1.53-.69,1.56-3.87-2.24-7.92-2.82-12.22-1.43-3.24,1.05-6.72,3.52-7.86,6.87-.05.16-.12.66.16.35,3.26-6.06,10.68-8.61,17.13-6.33,2.78.98,5.67,2.65,7,5.38l-18.63,7.04c5.82-.49,11.16-3.09,16.59-5.01.18.57.11,1.16.49,1.68.55.75,1.98.97,2.37,1.36.36.36.86,5.84,1,6.85.25,1.8.82,3.59.76,5.43-.07.08-1.99-.66-2.07-.78-.19-.29-.24-2.25-.34-2.8-.64-3.39-1.33-6.56-5.53-6.44-2.48.07-4.58,1.72-6.98,1.97,1.47,3.25,4.24,6.22,8.05,6.28.04,3.17.83,6.31,1.38,9.42.37.04.16-.41.14-.63-.29-3.12-.44-6.26-.73-9.38-3.22-.12-6.45-2.25-7.46-5.3,2.83-.27,5.09-2.61,7.99-1.02,1.43.78,1.8,2.38,1.98,3.87.2,1.69.25,3.54.43,5.3.37,3.63.86,7.26.98,10.9-4.44.03-9.52-2.89-12.77-5.79-2.97-2.65-2.36-3.72-4.08-6.52-.12-.19-.75-1.09-1.02-.84.91,1.49,1.08,3.35,1.87,4.9,1.08,2.13,3.74,3.78,5.57,5.24l-1.45,4.4,5,3.23c-4.44,4.99-10.63,1.52-14.82-1.87-.65-.52-2.48-2.04-2.86-2.64-.16-.24-.24-.39-.19-.7.64.06,1.22-.23,1.86-.2.75.03,1.38.52,2.07.5-1.17-.92-2.64-1.54-3.44-2.85-.1.75-.88.1-1.08.59,1.48.07,2.42,1.45.43,1.53-1.13.04-1.33-1.17-2.01-1.82l.98-.29c-.69.21-2.57-1.4-2.55-1.87.02-.42,1.68-.26,2.16-.39.8-.2,1.21-1.06,1.71-1.24,1.03-.35,2.79-.22,3.83-.68,1.23-.55,1.17-4.66,2.31-5.74.04-.13-.19-.14-.29-.1-1.35.61-1.49,4.27-2.45,5.4-1.63.16-3.39.61-5.02.69-.31.01-.78.08-.98-.2-.15-.2,1.9-3.93,1.82-4.67l.05-2.41,10.21-.69c-3.36-1.35-6.92-.3-10.39-.12-.52-1.43-.72-4.02-2.77-3.51-1.36-13.12,12.52-22.81,24.34-16.48Z"/>
          <path class="st0" d="M409.84,205.86c-.08.12-2.08,1.05-2.61,1.42-3.01,2.09-5.71,4.89-7.91,7.8-.73-.27-1.32-.76-2.05-1.06-.5-.21-1.75-.17-1.76-.78l3.33-8.36c-1.3,1.47-2.26,3.55-2.95,5.4-.22.6-.59,2.9-1.09,3.01-.26.06-2.48-.52-3.12-.56-1.49-.1-2.79.16-4.24.32-.31-1.28-.37-2.6-.64-3.89-.33-1.62-.94-3.21-1.12-4.87l-.2,1.68c.08,2.55.95,4.91,1.57,7.35-2.4.38-4.56,1.6-6.54,2.94l-5.03-5.88c1.08,2.39,2.88,4.37,4.51,6.38-1.84,1.37-3.05,3.23-4.21,5.18-1.93-1.06-4-1.96-6.19-2.33l2.12,1.32,3.96,1.53c-1.15,1.84-1.52,4.06-1.76,6.18l-6.48.2c-.05.26.36.31.54.34.54.09,1.4.21,1.92.24.73.04,3.47-.25,3.7-.18.5.17.44,2.57.13,2.83-.18.15-1.07.34-1.45.52-1.68.78-3.08,1.76-4.24,3.22-.27.34-1.38,2.54-1.77,2.25-3.85-13.1,3.35-30.49,15.96-36.16,8.75-3.93,18.66-3.22,26.39,2.54.36.27,1.55.93,1.23,1.41Z"/>
          <path class="st0" d="M356.04,343.31c2.32-11.43,5.71-22.62,9.46-33.63.11-.18.18-.39.45-.33.16.04,2.13,1.8,2.59,2.12.62.44,3.14,1.79,3.21,2.3-.95,9.58-1.53,19.21-2,28.83l-.3.29-6.05.63-7.37-.21Z"/>
          <path class="st0" d="M355.06,343.11l-11.45-2c-.38-.1-.39-.45-.3-.79,2.65-7.24,5.65-14.37,9.28-21.16,1.24-2.31,3.1-5.89,4.71-7.85,1.47-1.79,3.8-3.25,5.3-5.1.56.78,2.35,1.8,2.22,2.79-3.3,8.94-6.14,18.25-8.44,27.52-.54,2.17-1.1,4.4-1.35,6.6Z"/>
          <path class="st0" d="M403.29,327.42c.48-.08,1.49,2.08,1.36,2.34-5.01,5.41-10.68,10.01-17.25,13.39-14.86,7.64-32.56,5.84-48.33,2.32-.2-.04-.4-.1-.48-.32s.84-4.13,1.08-4.18c3.07.86,6.13,1.87,9.27,2.48,17.18,3.37,36.68-.97,50.2-12.12.67-.55,3.87-3.86,4.15-3.91Z"/>
          <path class="st0" d="M380.96,317.22l2.55,21.94c-4.09,1.46-8.21,2.93-12.54,3.56l1.57-28.66c2.79,1.13,5.42,2.63,8.42,3.17Z"/>
          <path class="st0" d="M346.03,321.71l3.14-2.45c.65-.57,3.57-3.56,4.02-3.64.29-.05.35,0,.29.29-4.71,7.65-8.37,16.1-11.2,24.63-.2.17-2.16-.37-2.42-.55-.17-.11-.12-.13-.13-.31l3.11-11.99c-.62-.72-4.22-1.82-4.29-2.55-.05-.56,1.66-3.37,2.09-4,1.2-1.77,3.04-3.93,4.5-5.52,4.34-4.76,9.42-8.79,14.14-13.15.18,0,2.29,2.58,2.36,2.75.1.22.15.37,0,.58l-15.62,15.91Z"/>
          <path class="st0" d="M359.19,293.44c.38-.06.56.25.78.49,1.12,1.25,2.19,3.28,3.35,4.7,5.73,7.08,15.47,14.88,25.17,13.2.79-.14,3.64-1.21,3.96-1.11.27.09.26.26.31.48.13.54.67,3.17.51,3.43-.83.49-1.75.96-2.67,1.27-11.06,3.69-24.15-5.79-30.62-14.13-.51-.66-3.44-4.78-3.32-5.26.16-.63,2.37-2.25,2.54-3.08Z"/>
          <path class="st0" d="M391.75,309.9c-6.07,2.52-12.01.76-17.31-2.56-.94-.59-3.03-2-3.77-2.71-.19-.19-.37-.26-.3-.58,5.21-2.57,10.49-5.36,16.36-6.06.87.9,1.94,1.61,2.79,2.52.45.48,2.41,2.87,2.56,3.33.4,1.24-.74,4.51-.33,6.07Z"/>
          <path class="st0" d="M387.22,317.63c2.68,5.07,5.88,9.85,8.47,14.96l-10.88,6-2.84-21.2c1.73.35,3.51.11,5.26.24Z"/>
          <path class="st0" d="M392.56,302.47c-.35.41-2.04-2.31-2.26-2.55-.41-.45-1.66-1.55-2.16-1.96-1.62-1.32-1.73-.99-3.67-.54-5.2,1.22-10.22,3.56-14.83,6.2-.56.14-.67-.52-1.03-.86-.57-.55-1.15-1.07-1.77-1.56,6.13-3.73,13.31-6.74,20.52-7.47,2.3,1.26,3.94,3.33,5.69,5.22.34.75-.66,2.6-.5,3.53Z"/>
          <path class="st0" d="M388.25,317.39c.9.04,2.57-.84,3.33-.49.3.14.92.97,1.29,1.27,3.38,2.72,7.09,5.06,10.3,7.96-1.01.94-1.91,2.03-2.94,2.95-.66.59-2.36,2.09-3.04,2.46-.19.1-.28.27-.57.18l-8.37-14.32Z"/>
          <path class="st0" d="M394.12,315.24c.59.8,1.65,1.68,2.48,2.34,1.02.82,3.42,2.28,4.13,3.13.48.58.76,1.84,1.07,2.56-.25.23-3.08-1.76-3.52-2.08-1.99-1.43-3.88-3.09-5.82-4.59-.34-.47,1.55-1.44,1.66-1.37Z"/>
          <g>
            <path class="st0" d="M396.69,195.46l-2.55-1.27c-10.29-3.72-20.92-6.5-31.49-9.31-.23-1.42-.02-1.93,1.47-1.7,4.23.65,10.1,2.51,14.37,3.7,7.88,2.19,15.95,4.21,22.14,9.86,0,.3-2.05.48-2.44.5-6.12.35-10.61-.6-16.36-2.31-6.7-2-13.23-4.59-19.94-6.56-.14-.05-.27-.13-.31-.29-.05-.17.48-2.81,1.02-2.79l34.11,10.17Z"/>
            <path class="st0" d="M342.84,175.67c2.85-.59,2.11,2.69,1.57,4.32-.42,1.28-1.22,3.26-2.88,2.2-2.03-1.29-1.17-6,1.31-6.52Z"/>
            <path class="st0" d="M361.1,180.37c.46-.07,1.27.46,1.4.9.19.66-.3,1.21-.46,1.82-.31,1.19-1.25,6.19-1.98,6.66-.9.57-1.9-.05-2.01-1.01.94-1.73,1.05-6.73,2.32-7.91.19-.18.49-.41.74-.45Z"/>
            <path class="st0" d="M347.74,176.46c.56-.13,2-.11,2.02.63-.6,1.13-.69,5.15-2.42,4.97s-.19-3.78-.48-4.92c.1-.33.57-.61.89-.68Z"/>
            <path class="st0" d="M354.22,176.65c2.95-.9,2.44,2.85,1.32,4.28-.51-.35-2.52-.78-2.61-1.3-.02-.11.56-2.01.66-2.23.13-.29.29-.64.63-.75Z"/>
            <path class="st0" d="M346.62,182.3l-2.36-.2c.82-1.05.81-3.02,1.33-4.07.27-.53.9-.63,1-.13.17.81-1.06,3.3.02,4.4Z"/>
            <path class="st0" d="M354.47,184.66c-1.41.1-2.83-.11-4.12-.69.32-.42.89-.4,1.28-.68.29-.21.5-.8.59-.8.5-.03,2.69,1.74,2.25,2.17Z"/>
          </g>
          <path class="st0" d="M402.77,223.14c-.16.46.73,2.91.1,2.94-.16,0-1.23-.74-1.39-.96-.94-1.28-.02-1.95,1.29-1.98Z"/>
        </g>
      </g>
      <g>
        <path class="st0" d="M405.52,330.55c3.05,6.06,8.28,11.3,14.88,13.29,1.48.45,2.53.16,2.79,2.21-5.17.8-9.61,3.84-13.41,7.25-.32-.21-.62-.45-.98-.6-6.84-2.8-14.02-4.91-20.46-8.6-.16-.19-.2-.24.02-.4.68-.5,2.22-1.08,3.09-1.6,5.07-3.09,9.77-6.78,13.58-11.36l.49-.19Z"/>
        <g>
          <path class="st0" d="M423.55,243.03c10.28-.65,18.29,10.37,22.07,18.66,8.74,19.16,8.56,45.51-.26,64.61-8.03,17.4-24.34,24.27-37.05,6.47-14.37-20.13-14.83-58.83-.7-79.17,3.66-5.26,9.24-10.14,15.94-10.56ZM423.35,246.76c-6.63.52-11.87,6.34-14.92,11.79-10.44,18.66-10.2,49.47,0,68.2,8.02,14.73,21.22,18.12,31.3,2.96,12.77-19.22,12.9-57.77-2.3-75.74-3.43-4.05-8.53-7.64-14.08-7.2Z"/>
          <path class="st0" d="M435.95,254.07c-3.07-3.48-7.98-6.64-12.8-6.13-4.94.52-9.23,4.81-11.9,8.72-12.84,18.76-12.17,55.08.98,73.56,7.18,10.09,16.84,11.04,24.78,1.1,14.63-18.32,14.61-59.49-1.06-77.24ZM435.54,317.6l-2.8.63-.34-.81.47-4.75.34-1.76-.54-.85v-15.79l-.34-.99-.07-4.13-6.14,2.57-.35.05-7.38,4.21-.52.31.07.53-.45,15.44-.07.33.45,4.41.37,3.64-.15.89-1.12.41-3.18.4.08-2.06.31-9.72.76-11.88-.46-9.34.38-8.42-.53-5.13v-.31l-.3-5.08.23-1.97-.31-1.56-.31-1.56.84-.97,3.61.33-.3,4.2-.52,3.83.07,5.82-.07,3.35.52,8.79.07,2.16,6.13-2.93,1.07-.06,1.34-.69,1.19-1.05.49-.06,2.55-1.57,1.77-1.24.4-3.44-.2-7.43-.13-7.3-.27-2.5.27-.68,1.54.02,1.92.07.07,1.68-.4,4.47-.33,6.67-.27,7.12.27,3.7.13,1.52.2,14.07.13,9.98.4,2.03.07,2.1-.66.29Z"/>
        </g>
      </g>
    </g>
  </g>
  <g>
    <g>
      <path class="st0" d="M149.75,227.85c.33.29-.13.35-.26.44-.45.31-2.72,1.86-2.99,1.91-.47.08-4.57-.44-5.06-.62-.66-.24-.2-2.27-.33-2.91,1.07.24,8.31.9,8.64,1.18Z"/>
      <g>
        <path class="st0" d="M81.62,238.26c5.67-1.56,11.28-2.42,17.19-2.17,1.98.08,3.95.79,6.05.22,3.67,7.56,10.91,13.35,19.28,14.69.38,5.25.57,10.94,2.6,15.85.38.92,2.1,3.44,2.18,3.9.23,1.22-.35,4.07-.39,5.48-.08,2.84.16,5.71-.09,8.55-8.34,4.55-16.67,9.11-24.7,14.19-.52.29-.85-.15-1.22-.44-.8-.65-6.16-6.6-6.34-7.21-.36-1.27-.4-3.68-.69-5.2-1.48-7.62-4.84-13.97-6.71-21.17-.52-2.01-.69-4.09-1.14-6.12-1.57-7-3.81-13.78-6.03-20.58ZM96.54,278.51h4.22c5.57,0,12.26-7.08,12.08-12.65-.23-7.44-9.81-10.72-13.39-3.97-2.63,4.95,2.25,10.61,6.5,7.48,3.17-2.34.5-7.84-2.72-4.28l.77.86c-.05-.44.87-1.62,1.25-1.56,3.18,2.63-1,6.2-3.9,3.71-4.55-3.91,1.98-11.61,7.54-7.54,6.93,5.06-.81,15.82-7.5,16.83l-4.86,1.13Z"/>
        <path class="st0" d="M59.63,215.28c.52-.3,1.02-2.76,1.2-2.92.11-.1,1.34-.04,1.6.02,2.66.59-.39,4.2-.2,5.37.1.58,2.94,1.12.61,3.8-.8.92-3.74,1.81-5.03,2.24-1.01.33-1.32-.19-1.9,1.04-1.98,4.23-.13,7.87.71,11.81.77,3.65-.57,4.89-3.1,7.19l-1.95,1.09c2.89-.11,5.45-2.25,6.42-4.91,4.59-.65,9.04-1.44,13.72-1.18,3.01.17,5.77,1.28,8.73-.19,1.24,4,2.69,7.94,3.83,11.98.89,3.15,1.75,6.41,2.25,9.62l-4.05-5.47c-3.01-.19-6,.24-9.01.17-7.89-.16-16.42-1.36-24.09-3.21-1.56-.38-5.53-1.21-6.25-2.58-.36-.69-1.29-4.99-1.36-5.9-.66-8.04,4.42-14.36,6.67-21.69.6-.09.61.65.89.98.55.65,1.47.62,2.25.59l-1.95-.9c-1.1-.96-.92-2.95-.55-4.25.18-.61.65-1.15.82-1.73.52-1.69.76-5.81,3.45-5.01.25.07.51.43.68.44.36.02.88-.86,1.95-.72.66.09.99.72,1.22.76s1.01-.68,1.84-.48c.35.09,1.49.9,1.55,1.22.05.28-1.25,2.16-.96,2.82Z"/>
        <path class="st0" d="M132.46,200.97c.2.27-.57,1.29-.38,1.75-1.22-.42-2.37-1.04-3.63-1.38-7.33-1.97-15.54,2.36-16.99,10.02l1.72-3.09c4.59-6.59,12.25-8.48,19.28-4.26,1.27.76,3.61,2.92,4.17,4.28.09.22.28.2-.04.42l-18.45,7.86c.02.64,5.49-1.16,5.94-1.32,3.52-1.29,6.95-3.27,10.45-4.67.49.38.22,1.02.39,1.58.37,1.21,2.48,1.32,2.84,1.87l2.15,11.99.02,1.25-1.94-.61c-.68-2.74-1.02-7.86-3.62-9.44-3.29-1.99-6.82.78-9.95,1.81,1.47,3.59,4.51,6.24,8.42,6.89l1.69,13.71c-1.79-1.06-3.8-1.78-5.58-2.86-1.75-1.06-5.68-4.01-6.66-5.71-.64-1.11-1.56-4.98-2.72-5.33-2.57-.78-2.43,4.84-3.91,5.63-.8.43-5.43.93-5.96.41,1.18-1.89,2.35-4.07,2.16-6.38s-1.37-4.32-1.37-6.58c-.43.21-.39.93-.79,1.27-.34.28-.75.33-1.17.3-.84-6.51,1.33-13.9,6.69-17.95,3.8-2.87,8.66-4.11,13.34-2.96.49.12,3.78,1.3,3.91,1.49ZM122.85,223.93c-2.82-1.04-6.16-.83-9.07-.13-.41.1-.95.02-.75.62.17.52,3.75-.06,4.42-.1.85-.04,1.7.04,2.55,0l2.85-.39Z"/>
        <path class="st0" d="M133.06,200.17l-3.73-1.48,3.54-10.89c-2.3,3.11-3.54,6.97-3.93,10.8-2.16-.67-4.26-.66-6.48-.39.25-3.71-.58-7.33-.98-11-.34-.05-.18.45-.19.68-.15,3.59.04,7.03.98,10.51-2.72.03-4.89,1.7-7.26,2.75-1.16-2.61-2.81-4.98-4.52-7.26.62,2.91,2.51,5.3,4.07,7.76-2.01,1.63-3.45,3.58-4.77,5.79-2.27-1.63-4.72-2.98-7.36-3.93,2.17,1.68,4.39,3.55,7.06,4.33.19.22-1.07,3.12-1.23,3.75-.39,1.47-.65,3.17-.72,4.68-1.36-.55-2.8-.32-4.22-.61l-4.42.8c2.9.16,5.74.5,8.64,0-.28,1.07.48,2.89.17,3.8-.11.32-1.41.63-1.87.87-3.01,1.57-5.23,4.31-6.97,7.17-.27.45-.58,1.82-1.04,1.11-.24-.37-.77-3.93-.86-4.64-2.29-17.72,7.33-38.28,26.6-40.69,5.08-.63,11.24.28,15.65,2.96.34.21,1.76,1.03,1.69,1.41-3.17,3.48-6.09,7.3-7.84,11.71Z"/>
        <path class="st0" d="M99.49,337.8c-3.54,2.51-7,5.14-10.62,7.55-3.6,2.39-7.93,4.56-11.24,7.22-1.19.96-1.38,1.51-2.29,2.43-.25.26-2.13,1.99-2.27,2.05-.4.17-.28-.27-.29-.49-.18-2.42.08-4.75-.22-7.24-.11-.92-1.04-5.73-1.44-6.21-.71-.85-6.75.76-7.95,1.18-.22-.19,1.71-2.52,1.92-2.89.48-.82.71-1.73,1.18-2.55,2.91-5.07,6.03-10.08,9.77-14.59,5.25,4.18,10.88,7.89,17.03,10.63,1.77.79,4.56,1.51,6.08,2.36.25.14.4.21.33.54Z"/>
        <path class="st0" d="M129.33,291.67l2.13,15c-.07.3-2.71,1.45-3.18,1.91s-.45,1.03.2.8c1.19-.42,2.24-1.31,3.4-1.8-.28,1.23.89,1.85,1.33,2.69.71,1.36,1.23,3.83,1.86,5.4,1.96,4.9,4.43,9.53,7.22,14l-7.18,4.21-.33-.25c-1.77-5.4-4.64-10.68-6.29-16.09-.16-.53-.28-1.85-.51-2.2-.25-.36-2.28.11-2.73-.16-.1-.06-1.28-1.62-1.37-1.86-.68-1.73.38-3.44,2.31-3.3-.97-1.36-1.51-.76-2.64-.88-3.43-.37-7.7-2-10.78-3.57-.5-.25-3.73-1.95-3.86-2.14-.08-.12.02-.41.2-.48,6.7-3.82,13.22-8.03,20.21-11.3Z"/>
        <path class="st0" d="M97.12,334.85c-.27.23-3.6-1.32-4.19-1.59-2.49-1.15-5.2-2.62-7.53-4.05-.15-.09-.33.07-.25-.33l13.84-23.46c1.01.87,2,1.81,3.06,2.63.56.43,3.09,1.89,3.11,2.36l-8.05,24.45Z"/>
        <path class="st0" d="M95.56,291.86c5.22,8.09,15.36,15.89,24.93,17.78.64.13,2.62.2,2.96.38.38.2-.37.97-.49,1.28-.71,1.7.4,2.36.68,3.93-9.73-.62-18.89-5.51-25.82-12.17-.58-.56-2.51-3.11-3.13-2.95-.31.08-.34.48-.2.78.29.62,1.73,1.68,1.97,2.16.08.15.14.25,0,.4l-21.12,17.78c-.34-.35-1.63-1.56-1.35-2.05.02-.03.41-.15.57-.31,2.7-2.6,5.48-5.14,8.24-7.67,2.7-2.47,10.17-8.05,10.61-11.58.27-2.15-.76-2.03-1.1-3.24-.29-1.05,2.36-3.21,2.78-4.31l.48-.21Z"/>
        <path class="st0" d="M113.02,313.87l-3.32,24.53c-3.93-.31-7.69-1.59-11.39-2.85l7.76-24.44c.16-.27.27-.18.49-.12,1.82.47,4.25,2.76,6.45,2.88Z"/>
        <path class="st0" d="M121.87,338.39l-5.99.61-5-.42,3.14-24.15c2.13.52,4.23,1.17,6.4,1.55.5.09,1.45-.18,1.62.34l-.17,22.06Z"/>
        <g>
          <path class="st0" d="M70.2,344.31c.29.19,1.13,5.06,1.2,5.77.7,6.94-.06,13.17-3.5,19.27-5.15,9.15-16.19,14.06-20.01,24.16-.47,1.25-.59,2.61-1.13,3.78l-1.97-1.96c-2.09-2.13-4.74-2.22-7.55-1.77l2.55-3.63c5.77-12.9,4.5-27.42,14.62-38.39,1.25-1.35,2.75-2.34,3.93-3.53.41-.41,1.08-1.68,1.48-1.86.52-.24,1.22-.02,1.82-.15,2.77-.59,5.51-2.18,8.56-1.69ZM65.51,350.97c-8.32-.87-13.1,6.11-15.85,12.9-2.66,6.57-4.31,13.63-6.13,20.47l2.55-6.38c3.53-9.9,5.95-25.07,18.84-26.21.65,3.26,1.05,6.16.56,9.49-1.37,9.33-8.65,14.14-13.79,21.16-1.93,2.63-3.73,5.63-5.02,8.62,2.03-2.78,3.9-5.68,6.09-8.34,5.19-6.31,11.79-11.04,13.65-19.53.92-4.21.24-8.1-.9-12.17Z"/>
          <path class="st0" d="M36.66,394.75c.19-.19,4.85-.3,5.36-.16.27.08,4.2,3.34,4.25,3.62.02.14-.85,1.21-1.02,1.68-.57,1.56-.12,2.88-.38,4.33-.14.77-.85,1.29-.93,1.83-.15.96.68,1.77.24,2.78s-1.53,1.16-2.5,1.24c-3.24.25-8.75.25-11.99,0-2.64-.2-3.2-1.67-1.57-3.74,1.16-1.48,3.03-2.99,4.32-4.51.79-.93,3.81-4.62,4.11-5.51.16-.47.05-1.51.11-1.56Z"/>
        </g>
        <path class="st0" d="M97.7,304.05s.48.82.33.95l-13.66,23.38c-.44.33-7.21-5.1-7.96-5.88l.11-.49c4.26-3.58,8.33-7.39,12.55-11.01,2.4-2.06,5.27-4.75,7.76-6.57.19-.14.67-.51.86-.38Z"/>
        <path class="st0" d="M137.38,242.19c-4.2,7.82-7.33,17.3-8.05,26.21-.02.19.1.68-.29.49-.81-.4-2.11-5.05-2.36-6.08-.94-3.87-1.36-7.88-1.67-11.85,4.07-1.79,7.8-4.88,8.46-9.55l3.92.78Z"/>
        <path class="st0" d="M104.2,300.1c-.15-.23,3.32-2.29,3.67-2.51,6.33-3.88,13.11-7.7,19.69-11.14.25-.13.92-.61,1.09-.3.35.65.09,3.16.49,4.03l-.32.47c-7.1,3.54-13.83,7.74-20.69,11.72-.28.13-.5.11-.78-.01-.95-.43-2.09-1.87-3.15-2.26Z"/>
        <path class="st0" d="M138.17,240.22c-.57,0-2.5.13-2.72-.52l-1.62-14.57c-3.38-.39-6.29-2.34-8.02-5.23-.11-.18-.33-.14,0-.39,2.77-.82,5.99-3.45,8.71-1.05,1.81,1.6,1.23,2.86,1.51,4.77.18,1.18.41,2.29.58,3.54.6,4.47,1.34,8.94,1.57,13.45Z"/>
        <path class="st0" d="M107.54,221.96c-.56.79-.78,1.78-.79,2.75l-2.94-.39c.88-1.23,2.19-2.19,3.73-2.35Z"/>
        <path class="st0" d="M137.18,209.59l.59,3.53c-1.03.13-2.85-2.07-2.32-2.91.05-.08,1.67-.69,1.73-.62Z"/>
        <path class="st0" d="M127.95,319.16l-.5-1.92h0c-.07-.57-.28-1.15-.56-1.23-.86-.24-2.73.18-3.73,0v22.19c1.34-.18,10.82-3.18,10.87-3.83l-6.07-15.21Z"/>
        <path class="st0" d="M128.35,239.83l-.39-.69c0-.22.73-1.43.57-1.64-2.8-1.6-6.19-4.1-7.48-7.16-.37-.86-1.02-5.01-2.44-3.88-.76.61-.87,4.31-1.94,5.32-1.25,1.19-3.5.5-4,.81-.12.07-.86,1.91-1.41,2.42-1.16,1.08-3.58,1.29-5.1,1.47.32.54,1.14,2.58,1.7,2.72.3.07.76-.2,1.14-.19,1.82.08,3.12,1.13,4.81,1.59.05.36-.4.15-.6.11-.4-.08-5.11-1.61-5.1-1.19,2.71,4.1,7.49,7.54,12.04,9.36,1.42.57,3.84,1.47,5.25.86,3.19-1.39,6.86-5.06,6.84-8.73l-3.91-1.2Z"/>
      </g>
      <path class="st0" d="M183.13,232.96c1.51.26,3.7.88,5.21.8,1.81-.1,4.23-1.5,6.31-1.57,5.06-.17,18.47,5.05,23.73,7.05.75.29,2.41.86.59.99-1.08.08-2.26-.06-3.35-.02-6.12.25-18.67,1.6-23.85-1.07-1.26-.65-2.76-2.12-3.73-2.56-.87-.39-1.83-.13-2.36-.39-.16-.08-1.98-2.3-2.26-2.65-.16-.2-.38-.25-.29-.59ZM209.05,238.26c-6.14-.96-12.18-2.9-18.45-2.75l2.62.81c5.01.81,10.08,1.73,15.15,2.13.22.02.73.14.68-.19Z"/>
      <g>
        <path class="st0" d="M160.51,225.55c14.33-1.46,24.73,10.09,30.97,21.54,12.69,23.29,14.09,57.38,1.11,80.83-12.69,22.92-34.53,21.62-48.69.91-15.77-23.06-18.33-60.2-5.7-85.15,4.29-8.47,12.33-17.11,22.32-18.13ZM163.26,229.28c-19.41.55-27.48,28.37-28.63,44.03-1.37,18.66,3.86,44.12,16.59,58.41,13.11,14.73,28.91,10.5,38.03-5.57,13.46-23.71,10.92-63.04-5.65-84.74-4.77-6.24-11.99-12.38-20.34-12.14Z"/>
        <path class="st0" d="M166.44,346.25c-.06.36-.4.33-.66.42-2.18.75-4.85,1.18-7.15,1.89-.91.28-6.06,2.27-6.39,2.19-.12-.03-1.49-1.24-2.03-1.52-2.51-1.34-5.78-2.18-8.45-3.33-3.61-1.55-10.23-4.81-13.21-7.21-.23-.19-.47-.32-.4-.67,5.4-1.36,10.45-4.15,15.02-7.26,5.45,7.79,13.46,14.53,23.27,15.51Z"/>
        <g>
          <path class="st0" d="M138.56,388.07c4.93-6.19,5.81-14.75,9.06-21.67,3.73-7.96,12.75-12.54,21.48-11.91.29.02.57-.15.49.29l-20.58,27.13c-1.95,3.11-4.65,6.18-5.35,9.87-3.57-.26-6.94,1.02-10.49,1.19-.3.01-1.23.17-1.09-.3,2.12-3.33,3.66-7.05,4.91-10.8,1.54-4.61,2.52-9.31,3.66-14.01,1.23-5.05,3.21-8.9,6.64-12.8.34-.39,2.84-2.94,3.04-3.02.31-.13,2.32-.33,3.04-.52,5.21-1.38,12.43-4.22,17.68-4.31.74-.01,3.16-.03,2.75.98-.22.54-3.34,5.43-3.63,5.61-.45.28-2.15-.26-2.84-.3-5.09-.31-11.74,1.9-15.62,5.21-6.2,5.28-6.91,12.1-9.33,19.33-1.13,3.39-2.57,6.67-3.82,10.02Z"/>
          <path class="st0" d="M143.46,392.4s-.01.52.11.77c.3.59,3.49,3.07,4.23,3.63,2.13,1.58,4.58,3.16,7.06,4.13,1.27.5,4.35,1.06,5.09,1.59,1.54,1.1-.05,2.15-1.31,2.4-2.13.42-6.18.39-8.4.25-4.55-.29-8.27-2.24-13.15-1.97-2.69.15-7.24,1.71-6.98-2.84.1-1.7,1.46-3.52,1.67-4.79.07-.41-.34-1.21.09-1.51.21-.15,4.35-.2,5.19-.31.94-.12,6.17-1.58,6.4-1.34Z"/>
        </g>
        <path class="st0" d="M190.1,256.13c-4.23-10.64-14.27-26.19-27.43-25.27-13.05.91-20.34,15.7-23.57,26.69-6.26,21.25-2.66,49.2,9.4,67.87,11.68,18.08,29.17,19.01,39.78-.64,10.79-19.98,10.09-47.88,1.83-68.65ZM176.15,261.39l-.73-.19-3.39-.13-4.87.85.06,3.03.12,2.86.53,7.74.42,3.45.17.93.23,2.36.71,6.43.13,3.74-.49.57h.08s.53,1.41.53,1.41l.6,1.33,1.7,15.62,1.45,4.38-1.01.9-1.83.56-2.27.08-.42-4.25.35-6.06-.29-.51-.29-.59-.72-11.31-1.25-17.45-.94-3.99-.09-4.94-.5-1.91-.51-1.99-.16-1.65-4.17.73-.97.49-.61.19-3.56,1.34-1.04-.22.13-4.26,6.37-.8,1.71-.22h.94s.93-.17.93-.17l3.62-.71,3.93-.85,6.25-1.17.5,1.83.08,2.39-1.4.16Z"/>
      </g>
    </g>
    <g>
      <path class="st0" d="M15.4,208.47c.94-.13,1.92.07,2.87.17,10.1,1.12,20.1,3.41,30.21,4.54.37.12,1.12.07,1.1.58-.01.39-.54,2.59-.86,2.67l-31.77-4.52c-1.05.03-3.88-1.01-3.67-2.23.11-.64,1.52-1.14,2.12-1.23Z"/>
      <path class="st0" d="M95.56,220.19v2.95c-10.4-1.22-20.81-2.83-31.16-4.38-.13-.63-1.2-.92-1.25-1.41-.01-.12.36-1.59.42-1.65.1-.08.82-.04,1.06-.02l30.93,4.51Z"/>
    </g>
  </g>
</svg>