<?xml version="1.0" encoding="UTF-8"?>
<svg xmlns="http://www.w3.org/2000/svg" version="1.1" viewBox="240 540 120 53">

  <!-- Generator: Adobe Illustrator 30.0.0, SVG Export Plug-In . SVG Version: 2.1.1 Build 123)  -->
  <defs>
    <style>
      .st0 {
        fill: #0655bc;
      }

      .st1 {
        fill: #eceae7;
      }
    </style>
  </defs>
  <polygon class="st1" points="263.43 19.61 259.06 23.96 259.54 26.52 254.48 32.82 249.66 43.4 257.95 49.03 265.31 50.44 270.59 50.73 270.59 54.14 270.59 558.15 270.59 559.42 268.86 565.32 266.48 566.53 266.48 568.86 330.41 571.16 331.3 566.53 326.53 560.33 326.57 552.69 326.57 47.97 333.32 50.23 345.36 46.55 346.07 37.49 342.03 29.56 337.85 26.94 338.24 23.94 334.99 20.12 263.43 19.61"/>
  <g id="zpTJVo">
    <path class="st0" d="M339.12,15.26h-81.18l1.11,8.69,1.97-.32h74.47s2.74.31,2.74.31c.34-.8.23-1.76.35-2.57.21-1.34.59-2.81.76-4.15.05-.42.27-1.81-.22-1.96ZM345.63,29.07c-3.03-3.04-6.55-3.99-10.77-4.17-16.62-.73-33.65.85-50.28,0-7.62.39-15.63-.46-23.24,0-10,.59-17.4,12.12-13.17,21.41,3.36,7.38,11.58,10.82,19.17,7.51,4.88-2.13,8.29-9.17,6.38-14.25-.54-1.44-2.98-5.3-4.3-5.97-3.85-1.95-7.59-2.06-11.2.51-5.55,3.95-3.21,13.79,4.23,12.92,2.29-.27,3.63-1.57,3.87-3.88.07-.67-.29-2.52.57-2.58,1.2-.09.65,3.18.45,3.91-.63,2.25-2.5,3.5-4.75,3.78-9,1.14-11.82-11.35-4.28-15.66,4.17-2.39,7.71-2.09,11.9-.09,18.71-.04,37.42.03,56.14-.02.35,0,.68.15.95.14.73-.02,3.27-1.73,5.21-1.87,6.9-.49,12.68,4.74,10.97,11.92-1.36,5.72-11.08,7.56-13.35,1.67-.29-.76-.94-4.62.55-3.72.38.23.36,2.34.58,3.06,1.42,4.59,8.91,3.42,10.56-.13,3.72-8.01-6.09-14.07-12.45-10.56-9.72,5.37-6.55,20.13,4.57,21.77,15.58,2.3,21.9-15.49,11.71-25.7ZM285.3,33.76h-13.75c1.53,2.14,3.34,4.44,3.91,7.07.1.46-.12,1,.27,1.31h9.56v-8.38ZM298.1,33.76h-11.54v8.38h11.54v-8.38ZM310.75,33.76h-11.54v8.38h11.54v-8.38ZM326.08,33.76h-13.83s-.24.22-.24.24v7.9s.22.24.24.24h10.04c.17-2.28.98-4.48,2.27-6.34l1.52-2.03ZM280.87,43.4h-5.37c.05,1.45-.52,3.04-1.08,4.37-.48,1.16-1.34,2.76-2.11,3.74-.29.36-1.71,1.67-1.71,1.92v504.71h10.28V43.4ZM282.13,43.4v514.75h10.13V43.4h-10.13ZM293.52,43.4v514.75h10.13V43.4h-10.13ZM304.9,43.4v514.75h10.12V43.4h-10.12ZM322.29,43.4h-5.77l-.24,514.75h10.28c0-.52.01-.65.01-1.19,0-13.53.12-483.67-.02-497.2-.02-2.34-.3-4.75-.16-7.11-1.99-2.09-3.29-4.49-3.91-7.31-.07-.3-.13-1.87-.19-1.94ZM331.3,559.42h-64.81v7.11h64.81v-7.11ZM335.57,567.79h-73.51v9.49h73.51v-9.49Z"/>
  </g>

</svg>
