<?xml version="1.0" encoding="UTF-8"?>
<svg id="_图层_1" xmlns="http://www.w3.org/2000/svg" version="1.1" viewBox="0 0 604 593">
  <!-- Generator: Adobe Illustrator 30.0.0, SVG Export Plug-In . SVG Version: 2.1.1 Build 123)  -->
  <defs>
    <style>
      .st0 {
        fill: #0655bc;
      }
    </style>
  </defs>
  <path class="st0" d="M281.61,544.37c-62.91-4.02-121.42-31.59-164.77-77.63-43.54-46.24-67.52-106.7-67.52-170.24s23.98-123.99,67.52-170.23c43.35-46.04,101.86-73.61,164.77-77.64,3.14-.2,5.51-2.9,5.31-6.03-.2-3.14-2.9-5.51-6.03-5.31-65.79,4.22-126.98,33.05-172.31,81.19-45.53,48.35-70.6,111.57-70.6,178.02s25.07,129.68,70.6,178.03c45.33,48.14,106.52,76.97,172.31,81.18.13.01.25.01.37.01,2.97,0,5.47-2.31,5.66-5.32.2-3.13-2.18-5.83-5.31-6.03Z"/>
  <path class="st0" d="M495.42,118.46c-45.33-48.14-106.52-76.97-172.31-81.18-3.13-.18-5.83,2.18-6.03,5.31-.21,3.13,2.17,5.83,5.3,6.03,62.91,4.02,121.42,31.59,164.77,77.63,43.54,46.24,67.52,106.69,67.52,170.24s-23.98,124-67.52,170.24c-43.35,46.04-101.86,73.61-164.77,77.64-3.13.2-5.5,2.9-5.3,6.03.19,3.01,2.69,5.32,5.66,5.32h0c.12-.01.25-.02.37-.02,65.79-4.22,126.98-33.05,172.31-81.19,45.53-48.35,70.6-111.57,70.6-178.02s-25.07-129.68-70.6-178.03Z"/>
  <path class="st0" d="M299.58,55.37c1.33,1.33,3.5,1.33,4.83,0l8.6-10c1.33-1.33,1.33-3.5,0-4.83l-8.6-10c-1.33-1.33-3.5-1.33-4.83,0l-8.6,10c-1.33,1.33-1.33,3.5,0,4.83l8.6,10Z"/>
  <path class="st0" d="M304.41,537.63c-1.33-1.33-3.5-1.33-4.83,0l-8.6,10c-1.33,1.33-1.33,3.5,0,4.83l8.6,10c1.33,1.33,3.5,1.33,4.83,0l8.6-10c1.33-1.33,1.33-3.5,0-4.83l-8.6-10Z"/>
  <polygon class="st0" points="223.33 144.23 381.21 144.23 302.27 95.74 223.33 144.23"/>
  <path class="st0" d="M359.69,245.12v-81.64h9.61v-13.16h-134.05v13.16h9.61v81.64h23.14v-70.93c0-5.92,4.8-10.72,10.72-10.72s10.72,4.8,10.72,10.72v70.93h25.67v-70.93c0-5.92,4.8-10.72,10.72-10.72s10.72,4.8,10.72,10.72v70.93h23.14Z"/>
  <path class="st0" d="M132.63,426.06c12.33,12.33,19.24,19.24,31.57,31.57h275.6l31.57-31.57v-12.48H132.63v12.48Z"/>
  <rect class="st0" x="178.85" y="341.54" width="246.85" height="42.95"/>
  <rect class="st0" x="224.25" y="274.39" width="156.05" height="38.06"/>
  <path class="st0" d="M471.37,407.75h.01c0-5.64,4.57-10.21,10.21-10.21v-7.22H122.42v7.22c5.64,0,10.21,4.57,10.21,10.21h338.74Z"/>
  <path class="st0" d="M168.64,325.5c5.64,0,10.21,4.57,10.21,10.21h246.86c0-5.64,4.57-10.21,10.21-10.21v-7.22H168.64v7.22Z"/>
  <path class="st0" d="M213.31,258.36c5.64,0,10.21,4.57,10.21,10.21h157.52c0-5.64,4.57-10.21,10.21-10.21v-7.22h-177.94v7.22Z"/>
</svg>