<?xml version="1.0" encoding="UTF-8"?>
<svg id="_图层_1" xmlns="http://www.w3.org/2000/svg" version="1.1" viewBox="0 0 604 593">
  <!-- Generator: Adobe Illustrator 30.0.0, SVG Export Plug-In . SVG Version: 2.1.1 Build 123)  -->
  <defs>
    <style>
      .st0 {
        fill: #0655bc;
      }
    </style>
  </defs>
  <path class="st0" d="M47.33,325.52l-6.52-11.05-5.21-8.02-1.32-2.93-2.01-2.01-3.23-6.21,1.59-2.93,2.68-4.8,4.65-7.33,8.62-12.79.67-3.61,2.21-1.43,4.08-5.68,4.48-7.98-12.13-8.08-5.72,6.71-.15,1.22-7.98,13.1v.56l-3.55,5.67v3.27l-4.9,4.77-9.43,15.95.15,9.63,3.4,5.32,5.17,9.33,6.12,5.73-1.07,2.4,10.96,17.01.28,1.7,5.47,8.52,5.65-3.66,8.13-6.72-3.72-5.98-7.39-9.68ZM49.19,346.27l-3.94,2.55-4.18-6.51-.28-1.7-10.6-16.46,1.2-2.71-6.92-6.47-5.03-9.08-3.14-4.92-.13-8.52,9.01-15.25,5.31-5.16v-3.54l3.55-5.67v-.57l7.91-12.99.13-1.05,4.2-4.92,9.15,6.1-3.5,6.25-3.83,5.33-2.61,1.69-.75,4.05-8.41,12.47-4.68,7.37-2.73,4.88-2.09,3.86,2.37,4.58,1.49,2.83,1.96,1.96,1.2,2.67,5.3,8.18,6.52,11.06,7.41,9.7,2.78,4.47-6.67,5.51Z"/>
  <path class="st0" d="M91.75,284.02l-.58-2.65-3.03-21.39-3.8,23.18-1.72.86.89,2.86-2.12,15.8-1.26,6.81-.36,2.53,10.68-3.29,4.85-1.21-3-16.18-.56-7.32ZM89.96,306.82l-7.76,2.39,2.17-11.74-.32.32,1.48-11.08-.52-1.68,1.12-.56,1.87-11.42,1.22,8.63.57,2.56.56,7.31,2.68,14.51-3.07.77Z"/>
  <path class="st0" d="M113.61,337.49l.6-.81-1.48-9.35-3.53-13.17v-1.86l-6.9-34.74-1.4-1.05.83-2.13-4.6-21.99-.61-1.56-.36-.95.15-5.42-3.22-1.51-12.68.62-1.54,9.7-1.28,5.97-1.07,6.09,1.35,1.84-2.2,2.57-4.31,19.24-.02,2.63-.81,2.85-3.3,20.35.12,2.5-1.48,1.48-1.46,9.22-3.97,17.95,5.75,3.61,9.94.96,1.74-10.62-.92-3.69,1.13-1.38,1.52-9.78,2.35-.94,1.19-.53,9.6-2.29,2.76-1.93,1.05-.15,1.29,5.32.7.47-.73.91.62,4.36,1.9,18.39,3.09,1.64h2.24l11.53-3.74-1.85-7.24-1.73-1.85ZM105.36,348.35h-1.44l-1.73-.91-1.79-17.38-.51-3.55,1.54-1.93-1.85-1.23-1.05-4.31-.5-2-2.8.4h-.38l-2.94,2.06-9.32,2.23-1.41.61-3.36,1.34-1.61,10.36-1.42,1.74,1.06,4.25-1.38,8.39-7.64-.74-4.18-2.63,3.68-16.62,1.38-8.68,1.64-1.64-.16-3.17,2.82-17.35.42-2.63.87-3.05v-2.58l4.18-18.66,2.9-3.39-1.77-2.42.91-5.22,1.28-5.96,1.3-8.2,10.58-.52,1.6.75-.13,4.51.5,1.34.54,1.34,4.46,21.33-1.16,2.98,2,1.5,6.72,33.71v2.02l3.57,13.27,1.34,8.47-1.1,1.46,2.52,2.69,1.27,4.96-9.47,3.07Z"/>
  <path class="st0" d="M159.1,275.86l-3.41-4.26-1.04-.74-14.61-14.45-.34,13.23v1.22l-1.18,2.8.64,2.86.29.88.26,1.43.56,12.51-.38,7.01,2.73-1.56,7.2-8.93c2.06-2.5,5.46-6.9,7.25-9.38l2.04-2.6ZM155.48,277.28c-1.79,2.48-5.15,6.83-7.2,9.32l-6.2,7.69.16-2.96-.57-12.67-.3-1.69-.3-.94-.49-2.2,1.09-2.59v-1.59s.22-8.64.22-8.64l11.43,11.3,1,.73,2.26,2.83-1.1,1.4Z"/>
  <path class="st0" d="M167.35,324.24v.21l-.26-.53-.61-.3v-1.5l-5.81-9.88-.04-.07c-.71-1.02-1.36-1.69-2.04-2.41-.24-.25-.49-.52-.76-.81v-2.27l-.1-.21c-.43-.86-1.04-1.85-1.69-2.89-.55-.9-1.12-1.82-1.58-2.67l3.58-4.86,2.4-2.96,4.55-5.4,6.71-8.17,1.09-9.3-7.46-6.84h-.38c-.18,0-.3.03-.9.2-.21.06-.57.16-.9.24l-.71-2.97-23.25-20.18-12.41,5.03.6,12.87.7,26.88-1.14,2.84.29,7.58.57,16.56v5.84l1.16,1.67-2,5.2-.89,23.65,10.53.96,6.52-2.61-.15-12.6-.43-1.28-.42-14.02-.11-12.03,4.6,9.32,1.26,3.22,5.44,10.31,1.4.7-.12,2,5.06,11.56,3.96,6.46,12.8-7.11.17-5.08-4.86-5.15-4.37-9.21ZM174.46,342.5l-10.17,5.65-2.87-4.67-4.84-11.07.17-2.82-2-1-5.07-9.6-1.26-3.21-5.78-11.71-2.67-2.67.16,17.89.43,14.33.42,1.27.13,10.94-4.82,1.93-8.19-.74.81-21.45,2.26-5.86-1.4-2.02v-5.26s-.57-16.6-.57-16.6l-.28-7.17,1.13-2.83-.72-27.31-.53-11.5,10-4.05,21.85,18.97.84,3.51.2.2c.5.5,1.05.35,2.87-.15.04,0,.07-.02.1-.03l6.04,5.54-.9,7.72-6.33,7.71-4.55,5.4-2.44,3.01-4.33,5.88.27.54c.54,1.07,1.25,2.23,1.95,3.36.57.92,1.11,1.8,1.5,2.54v2.55l.25.28c.38.42.73.79,1.06,1.14.65.68,1.21,1.27,1.83,2.15l5.52,9.38v2.18l1.1.55,3.71,7.7v-.07l.74,1.57,4.5,4.78-.11,3.14Z"/>
  <path class="st0" d="M217.04,286.54l-3-2.4-13.95-22.41-2.73-3.2.48,23.15-2.18,6.54,2.32,6.82-.56,27.91-.22,12.01,2.07-4.14,6.07-9.79,3.45-1.73-1.54-1.73,5.63-10.86,4.66-7.76,2.89-4.65-2.79-4.18-.59-3.57ZM215.85,297.91l-4.68,7.8-6.3,12.14.73.82-1.65.83-4.64,7.48.64-32.26-2.22-6.52,2.08-6.23-.36-17.53,13.09,21.02,2.67,2.14.54,3.24,2.32,3.48-2.23,3.59Z"/>
  <path class="st0" d="M229.53,283.91l-.05.03-10.54-14-3.72-6.58-4.89-4.89-1.53-4.6-9.3-12.74-15.01,4.53.16,6.03.44,7.68,1.22,1.58-1.24,2.35.14,37.4.85,5.59-.84,31.53-.31,10.39,10.03,1.39,5.32,1.45,9.89-15.65,4.99-10.11,14.6-22.39,2.7-4.5-.15-10.97-2.76-3.52ZM228.07,301.85l-14.61,22.41-5,10.13-9.08,14.37-3.98-1.08-8.47-1.18.25-8.48.86-31.77v-.09s-.85-5.55-.85-5.55l-.14-36.84,1.6-3.04-1.62-2.1-.41-7.04-.12-4.49,12.22-3.69,8.29,11.37,1.58,4.76,5.03,5.03,3.62,6.41,10.85,14.43.05-.03,2.16,2.76.13,9.74-2.39,3.98Z"/>
  <path class="st0" d="M309.8,283.91l-.05.03-10.54-14-3.72-6.58-4.89-4.89-1.53-4.6-9.3-12.74-15.01,4.53.16,6.03.44,7.68,1.22,1.58-1.24,2.35.14,37.4.85,5.59-.84,31.53-.31,10.39,10.03,1.39,5.32,1.45,9.89-15.65,4.99-10.11,14.6-22.39,2.7-4.5-.15-10.97-2.76-3.52ZM308.34,301.85l-14.61,22.41-5,10.13-9.08,14.37-3.98-1.08-8.47-1.18.25-8.48.86-31.77v-.09s-.85-5.55-.85-5.55l-.14-36.84,1.6-3.04-1.62-2.1-.41-7.04-.12-4.49,12.22-3.69,8.29,11.37,1.58,4.76,5.03,5.03,3.62,6.41,10.85,14.43.05-.03,2.16,2.76.13,9.74-2.39,3.98Z"/>
  <path class="st0" d="M297.31,286.54l-3-2.4-13.95-22.41-2.73-3.2.48,23.15-2.18,6.54,2.32,6.82-.56,27.91-.22,12.01,2.07-4.14,6.07-9.79,3.45-1.73-1.54-1.73,5.63-10.86,4.66-7.76,2.89-4.65-2.79-4.18-.59-3.57ZM296.12,297.91l-4.68,7.8-6.3,12.14.73.82-1.65.83-4.64,7.48.64-32.26-2.22-6.52,2.08-6.23-.36-17.53,13.09,21.02,2.67,2.14.54,3.24,2.32,3.48-2.23,3.59Z"/>
  <path class="st0" d="M349.7,335.02l-11.07.14-1.04-.26-.52-.12-.27-13.2-.06-.12.38-1.14-.88-4.26.53-13.54h1.29l8.93.28,7.93.32.33-6.72.9-4.52-2.31-4.45-7.85.77-5.48.28-4.31-.23-.26-5.09-1.09-.87,1.21-1.97.74-4.44v-14.16s.29-3.51.29-3.51v-.65s8.17.29,8.17.29l2.38-.45.24-.07,3.24,1.08h7.78l.32-8.92-.17-6.53-15.01.15-5.35,1.08-1.89-1.08h-8.35l-7.72.98.8,11.32,1.3,1.53-1.33,2.05.15,7.5-.14,11.07v10.46l-.43,5.29,1.12,13.85-.55,1.11.15,7.88v3.59l1.12,1.49-1.54,3.34-.15,6.78.14,1.53-.85,9.66.83,6.77,11.79.16,1.14-.71h4.63l8.03.85,9.66.15,3.98-1.73.63-5.82.33-8.16-8.26-.17-3.56,1.14ZM359.47,335.98l-.24,6.05-.5,4.64-2.54,1.1-9.1-.14-8.04-.85h-5.35s-1.13.7-1.13.7l-9.48-.13-.59-4.86.85-9.63-.14-1.59.14-6.26,1.86-4.04-1.43-1.91v-2.95s-.14-7.42-.14-7.42l.58-1.16-1.15-14.23.42-5.17v-10.56s.14-11.09.14-11.09l-.14-6.93,1.79-2.77-1.82-2.16-.62-8.82,5.68-.73h7.76l2.08,1.19,5.8-1.19,12.97-.13.12,4.53-.25,6.96h-5.55l-3.56-1.19-.67.22-2.1.39-7.73-.28h-2.26v2.51l-.28,3.51v14.04s-.67,3.98-.67,3.98l-1.91,3.13,1.75,1.4.31,5.97,6.19.33,5.63-.29,6.57-.64,1.38,2.65-.78,3.91-.25,4.98-5.98-.24-8.97-.28h-3.22l-.61,15.68.82,3.97-.47,1.41.22.45.3,14.31,2.01.45,1.26.31,11.47-.14h.15s3.53-1.13,3.53-1.13l5.92.12Z"/>
  <path class="st0" d="M413.26,249.88l-.99-6.92-13.97.3-6.49.42c-1.94,0-3.78,0-5.86-.14h-.07c-.82,0-1.58.33-2.26.63-.28.12-.63.28-.86.34l-2.62-1.1-14.93-.77-.48,13.06,2.31,2.31,9.05-.3c.57,0,1.52-.17,2.54-.46l.25-.07.54-.54,1.9.26.73,4.98-.56,8.97v.09s.85,6.68.85,6.68l-.71,28.85-.72,20.4,1.2,1.33-2.03,8.54v11.88l8.52,1.29,4.29-.77,4.83-2.67-1.2-10.67v-26.89l-1.56-2.47,1.27-8.44v-.08s-.13-10.99-.13-10.99v-2.41c0-.51-.03-1.06-.07-1.65-.04-.59-.07-1.2-.07-1.75v-.16c-.1-.51-.14-2.37-.14-5.48l.28-10.49v-.1s-.55-3.06-.55-3.06l.71-4.95h3.51l4.11.27,1.45.43h7.45l.49-7.69ZM410.91,255.6h-5.31l-1.28-.38-4.47-.32h-5.32s-.99,6.96-.99,6.96l.58,3.18-.28,10.42c0,2.21.02,4.83.14,5.75,0,.59.04,1.21.08,1.8.03.56.07,1.08.07,1.53v2.42s.14,10.84.14,10.84l-1.22,8.11-.47.47,1.97,3.12v26.38l1.07,9.52-3.39,1.87-3.65.65-6.52-.98v-9.96l2.22-9.33-1.36-1.51.7-19.61.71-28.93v-.07s-.85-6.65-.85-6.65l.57-9.09-.97-6.65-4.34-.59-.87.87c-.82.22-1.48.32-1.79.32l-8.22.27-1.1-1.1.37-10.2,12.58.65,2.72,1.14h.2c.6,0,1.18-.26,1.8-.53.49-.21,1.04-.46,1.44-.47,2.14.14,4.01.14,5.98.14l6.55-.43,12.17-.26.71,4.99-.36,5.64Z"/>
  <path class="st0" d="M463.33,337.49l.6-.81-1.48-9.35-3.53-13.17v-1.95l-6.83-34.27-.07-.37-1.4-1.05.83-2.13-4.6-21.99-.61-1.56-.36-.95.15-5.42-3.22-1.51-12.68.62-1.54,9.7-1.28,5.97-1.07,6.09,1.35,1.84-2.2,2.57-4.31,19.24-.02,2.63-.81,2.85-3.29,20.25-.02.1.13,2.5-1.48,1.48-1.46,9.22-3.97,17.95,5.75,3.61,9.94.96,1.74-10.62-.92-3.69,1.13-1.38,1.52-9.78,2.35-.94,1.19-.53,9.6-2.29,2.76-1.93,1.05-.15,1.29,5.32.7.47-.73.91.62,4.36,1.9,18.39,3.09,1.64h2.24l11.52-3.74-1.85-7.24-1.73-1.85ZM455.08,348.35h-1.44l-1.73-.91-1.79-17.38-.51-3.55,1.54-1.93-1.85-1.23-1.05-4.31-.5-2-2.8.4h-.38l-2.94,2.06-9.32,2.23-1.41.61-3.36,1.34-1.61,10.36-1.42,1.74,1.06,4.25-1.38,8.39-7.64-.74-4.18-2.63,3.68-16.62,1.38-8.68,1.64-1.64-.16-3.17,2.82-17.35.42-2.63.87-3.05v-2.58l4.18-18.66,2.9-3.39-1.77-2.42.91-5.22,1.28-5.96,1.3-8.2,10.58-.52,1.6.75-.13,4.51.5,1.34.54,1.34,4.46,21.33-1.16,2.98,2,1.5,6.71,33.71v2.02l3.57,13.27,1.34,8.47-1.1,1.46,2.52,2.69,1.27,4.96-9.47,3.07Z"/>
  <path class="st0" d="M441.47,284.02l-.58-2.65-3.03-21.39-3.8,23.18-1.72.86.89,2.86-2.12,15.8-1.26,6.81-.36,2.53,10.68-3.29,4.85-1.21-3-16.18-.56-7.32ZM439.68,306.82l-7.76,2.39,2.17-11.74-.32.32,1.49-11.08-.52-1.68,1.12-.56,1.87-11.42,1.22,8.63.57,2.56.56,7.31,2.68,14.51-3.07.77Z"/>
  <path class="st0" d="M492.95,258.54l.69-3.46.79-11.47-10.27-.63-7.75.49.86,8.62.94.52-.86,1.93.43,28.58v.13s.99,3.51.99,3.51l-.41,7.6-.43,4.4v32.03s1.51,2.14,1.51,2.14l-1.47,2.45-2.19,13.93,7.63.17,3.16.15,7.08-2.25.16-6.01-.29-2.79-.27-2.06v-39.76l-1.31-.83,1.04-2.43-.31-3.81-.56-5.45.42-7.19.42-18.49ZM491.69,254.75l-.71,3.57-.43,18.63-.43,7.23v.08s.57,5.59.57,5.59l.26,3.3-1.51,3.53,1.81,1.15v38.74l.29,2.23.28,2.63-.12,4.48-5.4,1.72-2.83-.13-5.39-.12,1.78-11.32,1.93-3.22-1.89-2.68v-31.27l.42-4.39.43-7.96-1-3.58-.42-28.02,1.41-3.18-1.61-.9-.56-5.56,5.58-.36,8.17.5-.64,9.3Z"/>
  <path class="st0" d="M539.73,333.6l-3.11.99-9.63.25v-3.1l-.54-9.54.14-.14-.44-10.21-.3-9.02-1.43-1.55,1.3-2.01v-7.21l.85-15.6.42-15.84.56-4.78.3-9.77-4.42-3.91-5.07,1.23h-8.31l1.1,17.19,1.57.49-1.19,1.56.29,46.52-1,23.59,1.17,3.24-1.73,2.4.32,10.9,7.41.33,5.96-1.08,1.19.8h6.4l1.99-.14,11.23.74,2.64-3.34.59-9.24v-.1s-.56-3.96-.56-3.96l-7.69.33ZM545.46,345.84l-1.61,2.05-10.33-.68-2.02.14h-5.76l-1.36-.91-6.52,1.19-5.36-.24-.25-8.39,1.95-2.7-1.39-3.85.99-23.26-.28-45.9,2.5-3.26-2.97-.93-.88-13.73h6.44l4.29-1.04,2.95,2.61-.27,8.71-.56,4.78-.43,15.95-.85,15.6v6.71s-1.82,2.81-1.82,2.81l1.97,2.14.27,8.29.41,9.35-.15.15.59,10.34v5.1l11.93-.31,3.13-1,5.64-.24.28,1.99-.54,8.53Z"/>
  <path class="st0" d="M589.52,302.45l-4.17-3.09-13.15-12.3-2.25-1.43-2.58-3.67-2.25-2.72,3.9-5.2.29-1,1.3-1.81,8.13-9.56,1.26-2.52,3.57-3.57,4.46-6.57-9.31-7.41-5.17-.52-3.73,6.21-.09.19c-.16.48-.03.93.08,1.28.02.05.03.11.05.17l-2.58,1.68-4.05,5.45.28,1.52-6.92,8.01-7.19,10.27.15,9.66,7.12,6.97,10.92,10.07.12.11,2.77,1.25,4.21,5.08-9.04,13.9.22,1.2-3.55,1.65-.16.26c-.43.72-.82,1.39-1.22,2.07-.39.67-.77,1.34-1.18,2.01l-.24.37c-1.16,1.8-2.08,3.24-3.36,5.04l-2.78,2.49-2.53,6.23,13.07,8.13,2.2-2.69-.3,1.22,1.09-2.18,1.5-1.83,1.28-3.74.14-.28c.17-.34.34-.72.51-1.11.26-.59.54-1.21.85-1.77l5.61-7.57,7.66-9.36,5.34-8.73-.3-11.83ZM582.91,321.82l-7.64,9.34-5.67,7.66-.06.1c-.38.66-.69,1.37-.97,2-.09.21-.19.42-.28.62l-.11-.03-1.5,4.37-3.17,3.87-10.19-6.34,1.73-4.27,2.52-2.26.14-.16c1.34-1.88,2.29-3.35,3.48-5.2l.25-.39c.43-.71.82-1.39,1.21-2.06.34-.59.68-1.18,1.05-1.79l4.39-2.04-.35-1.92,9.4-14.46-5.43-6.55-2.9-1.3-10.78-9.94-6.52-6.38-.13-8.21,6.74-9.62,7.51-8.69-.29-1.6,3.33-4.48,2.91-1.89.12-.24c.34-.67.13-1.35,0-1.75-.01-.04-.03-.09-.04-.13l2.93-4.89,3.34.33,7.43,5.92-3.27,4.84-3.73,3.73-1.29,2.59-8.01,9.41-1.57,2.19-.28.98-4.61,6.15,3.17,3.83,2.79,3.96,2.36,1.47,13.12,12.27,3.53,2.62.26,10.29-4.92,8.06Z"/>
</svg>