<?xml version="1.0" encoding="UTF-8"?>
<svg id="_图层_1" xmlns="http://www.w3.org/2000/svg" version="1.1" viewBox="0 0 604 593">
  <!-- Generator: Adobe Illustrator 30.0.0, SVG Export Plug-In . SVG Version: 2.1.1 Build 123)  -->
  <defs>
    <style>
      .st0 {
        fill: #0655bc;
      }
    </style>
  </defs>
  <path class="st0" d="M281.61,544.37c-62.9-4.03-121.42-31.6-164.77-77.63-43.54-46.24-67.52-106.7-67.52-170.24s23.98-124,67.52-170.23c43.35-46.03,101.86-73.61,164.77-77.64,3.13-.2,5.51-2.9,5.31-6.03-.2-3.13-2.9-5.51-6.03-5.31-65.79,4.22-126.98,33.05-172.31,81.19-45.53,48.35-70.6,111.57-70.6,178.02s25.07,129.67,70.6,178.03c45.33,48.14,106.52,76.97,172.31,81.18.12,0,.25.01.37.01,2.97,0,5.47-2.31,5.66-5.32.2-3.13-2.17-5.83-5.31-6.03Z"/>
  <path class="st0" d="M495.42,118.47c-45.33-48.14-106.52-76.97-172.31-81.18-3.14-.19-5.83,2.18-6.03,5.31-.2,3.13,2.17,5.83,5.3,6.03,62.9,4.03,121.42,31.6,164.77,77.63,43.54,46.24,67.52,106.7,67.52,170.24s-23.98,124-67.52,170.24c-43.35,46.03-101.86,73.61-164.77,77.64-3.13.2-5.51,2.9-5.3,6.03.19,3.01,2.69,5.32,5.66,5.32.12,0,.25,0,.37-.01,65.79-4.22,126.98-33.05,172.31-81.19,45.53-48.35,70.6-111.57,70.6-178.02s-25.07-129.67-70.6-178.03Z"/>
  <path class="st0" d="M299.58,55.37c1.33,1.33,3.5,1.33,4.83,0l8.6-10c1.33-1.33,1.33-3.5,0-4.83l-8.6-10c-1.33-1.33-3.5-1.33-4.83,0l-8.6,10c-1.33,1.33-1.33,3.5,0,4.83l8.6,10Z"/>
  <path class="st0" d="M304.41,537.63c-1.33-1.33-3.5-1.33-4.83,0l-8.6,10c-1.33,1.33-1.33,3.5,0,4.83l8.6,10c1.33,1.33,3.5,1.33,4.83,0l8.6-10c1.33-1.33,1.33-3.5,0-4.83l-8.6-10Z"/>
  <path class="st0" d="M328.46,270.04l-8.99-54.8c27.48,5.96,50.76,25.68,60.67,52.8.77,2.11,2.76,3.42,4.88,3.42.59,0,1.2-.1,1.79-.32,2.7-.99,4.08-3.97,3.1-6.67-11.63-31.8-39.6-54.57-72.23-60.17l-15.67-95.48-15.67,95.48c-32.64,5.6-60.61,28.37-72.23,60.17-.99,2.7.4,5.68,3.1,6.67,2.7.98,5.68-.4,6.67-3.1,9.91-27.11,33.19-46.84,60.67-52.8l-8.99,54.8-161.22,26.46,161.22,26.46,8.99,54.8c-27.48-5.96-50.76-25.68-60.67-52.8-.99-2.7-3.97-4.09-6.67-3.1-2.7.99-4.08,3.97-3.1,6.67,11.63,31.8,39.6,54.57,72.23,60.17l15.67,95.48,15.67-95.48c32.64-5.6,60.61-28.36,72.23-60.17.99-2.7-.4-5.68-3.1-6.67-2.69-.99-5.68.4-6.67,3.1-9.91,27.11-33.19,46.84-60.67,52.8l8.99-54.8,161.22-26.46-161.22-26.46Z"/>
  <polygon class="st0" points="268.7 255.11 249.21 245.42 258.9 264.91 267.31 263.53 268.7 255.11"/>
  <polygon class="st0" points="345.1 264.91 354.79 245.42 335.3 255.11 336.69 263.53 345.1 264.91"/>
  <polygon class="st0" points="258.9 328.09 249.21 347.58 268.7 337.89 267.31 329.47 258.9 328.09"/>
  <polygon class="st0" points="335.3 337.89 354.79 347.58 345.1 328.09 336.69 329.47 335.3 337.89"/>
  <path class="st0" d="M293.26,469.21c.23-2.86-1.91-5.37-4.77-5.6-39.3-3.13-76.42-20.18-104.52-48.01-28.08-27.81-45.48-64.73-48.99-103.96-.26-2.86-2.78-4.97-5.64-4.72-2.86.26-4.97,2.78-4.72,5.64,3.73,41.66,22.21,80.88,52.03,110.42,29.84,29.56,69.26,47.67,111.01,50.99.14.01.28.02.42.02,2.68,0,4.96-2.07,5.18-4.79Z"/>
  <path class="st0" d="M479.37,312.57c.26-2.86-1.86-5.39-4.72-5.64-2.87-.25-5.39,1.86-5.64,4.72-3.51,39.22-20.91,76.14-48.99,103.96-28.1,27.83-65.21,44.88-104.52,48.01-2.86.23-5,2.73-4.77,5.6.22,2.72,2.49,4.79,5.18,4.79.14,0,.28,0,.42-.02,41.75-3.33,81.17-21.44,111.01-50.99,29.82-29.54,48.3-68.75,52.03-110.42Z"/>
  <path class="st0" d="M316.33,119.02c-2.86-.23-5.37,1.91-5.6,4.77s1.91,5.37,4.77,5.6c39.3,3.13,76.42,20.18,104.52,48.01,28.08,27.81,45.48,64.73,48.99,103.96.24,2.7,2.51,4.74,5.17,4.74.16,0,.31,0,.47-.02,2.86-.26,4.97-2.78,4.72-5.64-3.73-41.66-22.21-80.88-52.03-110.42-29.84-29.56-69.26-47.67-111.01-50.99Z"/>
  <path class="st0" d="M124.63,280.43c-.26,2.86,1.86,5.39,4.72,5.64.16.01.31.02.47.02,2.66,0,4.93-2.03,5.17-4.74,3.51-39.22,20.91-76.14,48.99-103.96,28.1-27.83,65.21-44.88,104.52-48.01,2.86-.23,5-2.73,4.77-5.6-.23-2.86-2.73-5.01-5.6-4.77-41.75,3.33-81.17,21.44-111.01,50.99-29.82,29.54-48.3,68.75-52.03,110.42Z"/>
</svg>