<?xml version="1.0" encoding="UTF-8"?>
<svg id="_图层_1" xmlns="http://www.w3.org/2000/svg" version="1.1" viewBox="0 0 604 593">
  <!-- Generator: Adobe Illustrator 30.0.0, SVG Export Plug-In . SVG Version: 2.1.1 Build 123)  -->
  <defs>
    <style>
      .st0 {
        fill: #0655bc;
      }
    </style>
  </defs>
  <path class="st0" d="M281.61,544.37c-62.9-4.03-121.42-31.6-164.77-77.63-43.54-46.24-67.52-106.7-67.52-170.24s23.98-124,67.52-170.23c43.35-46.03,101.86-73.61,164.77-77.64,3.13-.2,5.51-2.9,5.31-6.03-.2-3.13-2.9-5.51-6.03-5.31-65.79,4.22-126.98,33.05-172.31,81.19-45.53,48.35-70.6,111.57-70.6,178.02s25.07,129.67,70.6,178.03c45.33,48.14,106.52,76.97,172.31,81.18.12,0,.25.01.37.01,2.97,0,5.47-2.31,5.66-5.32.2-3.13-2.17-5.83-5.31-6.03Z"/>
  <path class="st0" d="M495.42,118.47c-45.33-48.14-106.52-76.97-172.31-81.18-3.14-.19-5.83,2.18-6.03,5.31-.2,3.13,2.17,5.83,5.3,6.03,62.9,4.03,121.42,31.6,164.77,77.63,43.54,46.24,67.52,106.7,67.52,170.24s-23.98,124-67.52,170.24c-43.35,46.03-101.86,73.61-164.77,77.64-3.13.2-5.51,2.9-5.3,6.03.19,3.01,2.69,5.32,5.66,5.32.12,0,.25,0,.37-.01,65.79-4.22,126.98-33.05,172.31-81.19,45.53-48.35,70.6-111.57,70.6-178.02s-25.07-129.67-70.6-178.03Z"/>
  <polygon class="st0" points="293.11 216.63 301.49 235.08 309.86 216.63 301.49 198.18 293.11 216.63"/>
  <path class="st0" d="M357.41,167.79c-4.84-4.34-11.11-6.75-17.61-6.75h-76.63c-6.5,0-12.77,2.4-17.61,6.75l-19.87,17.85c-5.56,5-8.74,12.12-8.74,19.6v22.39c0,7.48,3.18,14.6,8.74,19.6l19.87,17.85c4.84,4.34,11.11,6.75,17.61,6.75h76.63c6.5,0,12.77-2.4,17.61-6.75l19.87-17.85c5.56-5,8.74-12.12,8.74-19.6v-22.39c0-7.48-3.18-14.6-8.74-19.6h0l-19.87-17.85ZM318.34,216.63l-10.9,24.01h8.13v7.73h-28.18v-7.73h8.13l-10.9-24.01,3.09-6.82-8.68-11.74,6.21-4.59,6.13,8.28,4.33-9.54h-6.86v-7.73h25.28v7.73h-6.86l4.33,9.54,6.13-8.28,6.21,4.59-8.68,11.74,3.09,6.82Z"/>
  <path class="st0" d="M190.26,402.94c51.07,40.13,191.71,40.68,235.48-11.22,38.52-45.68,18.97-132.67-20.81-176.64h0v12.55c0,12.83-5.47,25.1-15.01,33.67l-19.87,17.85c-8.32,7.47-19.06,11.59-30.25,11.59h-76.63c-11.18,0-21.93-4.12-30.25-11.59l-19.87-17.85c-9.54-8.57-15.01-20.84-15.01-33.67v-12.6c-42.02,46.22-61.77,145.48-7.78,187.91ZM214.16,318.94c42.46-22.33,147.01-23.62,185.99,6.26,33.99,26.05,30.86,66.57-8.44,83.84,18.49-14.21,33.58-39.14,12.66-58.68-28.93,37.1-85.22,44.51-129.28,38.5-27.35-3.73-58.29-15.71-74.92-38.5-14.58,11.91-12.57,31.74-1.22,45.24l13.22,13.47c-44.86-22.82-41.05-67.51,1.99-90.13Z"/>
  <path class="st0" d="M299.58,55.37c1.33,1.33,3.5,1.33,4.83,0l8.6-10c1.33-1.33,1.33-3.5,0-4.83l-8.6-10c-1.33-1.33-3.5-1.33-4.83,0l-8.6,10c-1.33,1.33-1.33,3.5,0,4.83l8.6,10Z"/>
  <path class="st0" d="M304.41,537.63c-1.33-1.33-3.5-1.33-4.83,0l-8.6,10c-1.33,1.33-1.33,3.5,0,4.83l8.6,10c1.33,1.33,3.5,1.33,4.83,0l8.6-10c1.33-1.33,1.33-3.5,0-4.83l-8.6-10Z"/>
</svg>