<?xml version="1.0" encoding="UTF-8"?>
<svg id="_图层_1" xmlns="http://www.w3.org/2000/svg" version="1.1" viewBox="0 0 604 593">
  <!-- Generator: Adobe Illustrator 30.0.0, SVG Export Plug-In . SVG Version: 2.1.1 Build 123)  -->
  <defs>
    <style>
      .st0 {
        fill: #0655bc;
      }
    </style>
  </defs>
  <g>
    <path class="st0" d="M167.35,412.05l-12.7-3.93-16.64-3.02,2.42-41.14-1.21-14.22v-45.37l1.81-13.91-1.21-32.36-.3-34.79,3.33-9.07-3.02-3.02-.91-4.54-.6-17.24,25.41-7.26,39.93,35.39,20.57,16.33,1.21,6.05-2.12,17.85-17.85,19.36-15.12,17.54,2.12,1.82,4.54,3.93,3.33,3.02,31.76,30.25.3,6.35-.3,13.92-11.8,12.1-12.4,8.77-8.77,10.89-10.58,8.47-21.18,17.84ZM167.05,304.06v53.54l-2.72,2.42,3.02,3.02-.3,18.45,15.43-16.33,8.17-6.96,3.63-2.42,11.49-12.71-10.89-13.61-4.23-3.93-7.26-7.56-13.61-12.1-2.73-1.81ZM165.84,285.31l2.42-1.81,14.82-16.03,4.54-.6,1.21-7.56,10.58-11.5h.3l-9.38-8.47-1.51-3.63-2.42-.3-20.57-18.15.3,26.62-.91,15.73.6,25.71Z"/>
    <path class="st0" d="M319.5,343.38l-4.23.6h-.3l-6.05,4.24-20.27,4.84-2.72,1.21-6.05,2.42-3.33,21.47-2.72,3.33,2.12,8.47-3.33,20.27-18.75-1.81-10.59-6.65,8.17-36.9,3.02-19.06,3.33-3.33-.3-6.05,6.05-37.2.91-5.75,1.82-6.35v-5.45l9.07-40.53,5.44-6.35-3.33-4.54,2.12-12.1,2.72-12.7,3.03-19.06,24.8-1.21,5.14,2.42-.3,10.59.91,2.42,1.21,3.02,9.68,46.28-2.12,5.44,3.63,2.72,14.52,72.9v4.23l7.56,28.13,3.02,19.05-1.81,2.42,4.54,4.84,3.33,13.01-22.38,7.26h-3.93l-5.14-2.72-3.93-38.11-1.21-8.47,2.42-3.02-2.73-1.81-2.42-9.98-.6-2.42ZM288.34,305.88l.3-.3-3.63,19.66-.3,2.12,19.66-6.05,8.47-2.12-6.05-32.67-1.21-15.73-1.21-5.45-4.54-32.06-6.05,36.9-3.02,1.51,1.51,4.84-3.93,29.34Z"/>
    <path class="st0" d="M360.94,307.39l-.3-19.36,19.66-33.27,10.89-10.59v-7.26l7.56-12.1v-1.21l16.94-27.83.3-2.42,10.59-12.4,22.69,15.12-8.47,15.12-8.47,11.8-5.14,3.33-1.52,8.17-18.15,26.92-9.98,15.73-5.75,10.28-3.93,7.26,4.54,8.77,3.02,5.75,4.23,4.23,2.72,6.05,11.19,17.24,13.92,23.6,15.73,20.56,6.96,11.19-15.73,13.01-10.29,6.65-10.28-16.03-.6-3.63-22.99-35.69,2.42-5.45-13.92-13.01-10.89-19.66-6.96-10.89Z"/>
    <path class="st0" d="M491.91,183.98l11.5,3.93-3.02,75.02.6,14.52v9.07l.91-2.42,4.54-11.8,5.14-8.17,12.1-29.04,5.14-13.01,8.47-8.47-1.21-7.56,9.38-22.08,18.45,7.26,9.38,7.26-8.77,16.03-18.45,30.55-.91,1.51.91.91-21.78,41.44,1.51,2.42,17.85,40.83,10.58,23.29,10.29,17.24-1.51,4.23,4.23.91,8.77,19.66-21.78,12.1-7.56-.3-8.77-22.38-16.03-36,1.51-3.93-10.29-16.64.3-.6-12.1-25.11v49.61l1.21,14.52.3,14.82.3,3.33,1.21,5.75-.3,15.43-16.03.6-16.03-.3.3-31.46.91-.3-.3-1.21,5.14-12.1-3.63-4.23.6-4.84v-1.81l1.81-65.33-2.72-16.33-1.51-38.11.6-24.2-3.33-21.48,22.08-3.02Z"/>
  </g>
  <path class="st0" d="M29.97,311.23l41.43,47.84c4.88,5.64,14.14,2.18,14.14-5.27v-95.68c0-7.46-9.26-10.91-14.14-5.27l-41.43,47.84c-2.62,3.03-2.62,7.52,0,10.55Z"/>
</svg>