<?xml version="1.0" encoding="UTF-8"?>
<svg id="_图层_1" xmlns="http://www.w3.org/2000/svg" version="1.1" viewBox="165.43 33.75 273.16 525.49">
  <!-- Generator: Adobe Illustrator 30.0.0, SVG Export Plug-In . SVG Version: 2.1.1 Build 123)  -->
  <defs>
    <style>
      .st0 {
        fill: #0655bc;
      }
    </style>
  </defs>
  <path class="st0" d="M344.06,402.34l-9.81,1.4h-.7l-14.02,9.81-46.96,11.21-6.31,2.8-14.02,5.61-7.71,49.77-6.31,7.71,4.91,19.63-7.71,46.96-43.46-4.21-24.53-15.42,18.93-85.51,7.01-44.16,7.71-7.71-.7-14.02,14.02-86.21,2.1-13.32,4.21-14.72v-12.62l21.03-93.92,12.62-14.72-7.71-10.51,4.91-28.04,6.31-29.44,7.01-44.16,57.48-2.8,11.92,5.61-.7,24.53,2.1,5.61,2.8,7.01,22.43,107.24-4.91,12.62,8.41,6.31,33.64,168.92v9.81l17.52,65.19,7.01,44.16-4.21,5.61,10.51,11.22,7.71,30.14-51.87,16.82h-9.11l-11.92-6.31-9.11-88.32-2.8-19.63,5.61-7.01-6.31-4.21-5.61-23.13-1.4-5.61ZM271.86,315.42l.7-.7-8.41,45.56-.7,4.91,45.56-14.02,19.63-4.91-14.02-75.7-2.8-36.45-2.8-12.62-10.51-74.3-14.02,85.51-7.01,3.5,3.5,11.22-9.11,67.99Z"/>
</svg>