<?xml version="1.0" encoding="UTF-8"?>
<svg id="_图层_1" xmlns="http://www.w3.org/2000/svg" version="1.1" viewBox="205.03 25.34 193.96 542.30">
  <!-- Generator: Adobe Illustrator 30.0.0, SVG Export Plug-In . SVG Version: 2.1.1 Build 123)  -->
  <defs>
    <style>
      .st0 {
        fill: #0655bc;
      }
    </style>
  </defs>
  <path class="st0" d="M333.19,357.48l-23.83-28.74-14.02-6.31-53.97-49.77-33.64-32.94-.7-44.16,34.35-49.06,35.75-41.36-1.4-7.71,18.22-24.53,14.02-9.11c1.4-2.8-1.4-6.31-.7-8.41l16.82-28.04,21.03,2.1,41.35,32.94-18.92,28.04-18.22,18.22-6.31,12.62-39.95,46.96-7.01,9.81-1.4,4.91-21.03,28.04,13.32,16.12,13.32,18.92,11.21,7.01,65.19,60.98,18.92,14.02,1.4,54.67-25.23,41.35-37.85,46.26-28.04,37.85c-2.8,4.91-4.91,10.51-7.01,14.72l.7-2.8-7.71,22.43-18.93,23.13-57.48-35.75,10.51-25.93,13.32-11.92c7.01-9.81,11.92-17.52,18.22-27.34,4.21-7.01,7.71-13.32,11.92-20.33l19.63-9.11-1.4-7.71,45.56-70.09Z"/>
</svg>