<?xml version="1.0" encoding="UTF-8"?>
<svg id="_图层_1" xmlns="http://www.w3.org/2000/svg" version="1.1" viewBox="0 0 103.7 562">
  <!-- Generator: Adobe Illustrator 29.1.0, SVG Export Plug-In . SVG Version: 2.1.0 Build 142)  -->
  <defs>
    <style>
      .st0 {
        fill: #0655bc;
      }

      .st1 {
        fill: #eceae7;
      }
    </style>
  </defs>
  <polygon class="st1" points="16.5 4.4 12.1 8.7 12.6 11.3 7.5 17.6 2.7 28.1 11 33.8 18.4 35.2 23.6 35.5 23.6 38.9 23.6 542.9 23.6 544.2 21.9 550.1 19.5 551.3 19.5 553.6 83.5 555.9 84.3 551.3 79.6 545.1 79.6 537.4 79.6 32.7 86.4 35 98.4 31.3 99.1 22.2 95.1 14.3 90.9 11.7 91.3 8.7 88 4.9 16.5 4.4"/>
  <g id="zpTJVo">
    <path class="st0" d="M92.2,0H11l1.1,8.7,2-.3h74.5l2.7.3c.3-.8.2-1.8.4-2.6.2-1.3.6-2.8.8-4.1,0-.4.3-1.8-.2-2ZM98.7,13.8c-3-3-6.5-4-10.8-4.2-16.6-.7-33.6.9-50.3,0-7.6.4-15.6-.5-23.2,0C4.4,10.2-3,21.8,1.2,31c3.4,7.4,11.6,10.8,19.2,7.5,4.9-2.1,8.3-9.2,6.4-14.2-.5-1.4-3-5.3-4.3-6-3.9-2-7.6-2.1-11.2.5-5.6,4-3.2,13.8,4.2,12.9,2.3-.3,3.6-1.6,3.9-3.9,0-.7-.3-2.5.6-2.6,1.2,0,.6,3.2.5,3.9-.6,2.2-2.5,3.5-4.8,3.8-9,1.1-11.8-11.4-4.3-15.7,4.2-2.4,7.7-2.1,11.9,0,18.7,0,37.4,0,56.1,0,.4,0,.7.2,1,.1.7,0,3.3-1.7,5.2-1.9,6.9-.5,12.7,4.7,11,11.9-1.4,5.7-11.1,7.6-13.4,1.7-.3-.8-.9-4.6.5-3.7.4.2.4,2.3.6,3.1,1.4,4.6,8.9,3.4,10.6-.1,3.7-8-6.1-14.1-12.5-10.6-9.7,5.4-6.5,20.1,4.6,21.8,15.6,2.3,21.9-15.5,11.7-25.7h0ZM38.3,18.5h-13.8c1.5,2.1,3.3,4.4,3.9,7.1.1.5-.1,1,.3,1.3h9.6v-8.4h0ZM51.1,18.5h-11.5v8.4h11.5v-8.4ZM63.8,18.5h-11.5v8.4h11.5v-8.4ZM79.1,18.5h-13.8s-.2.2-.2.2v7.9s.2.2.2.2h10c.2-2.3,1-4.5,2.3-6.3l1.5-2h0ZM33.9,28.1h-5.4c0,1.5-.5,3-1.1,4.4-.5,1.2-1.3,2.8-2.1,3.7-.3.4-1.7,1.7-1.7,1.9v504.7h10.3V28.1h0ZM35.2,28.1v514.8h10.1V28.1h-10.1ZM46.6,28.1v514.8h10.1V28.1h-10.1ZM57.9,28.1v514.8h10.1V28.1h-10.1ZM75.3,28.1h-5.8l-.2,514.8h10.3c0-.5,0-.7,0-1.2,0-13.5.1-483.7,0-497.2,0-2.3-.3-4.8-.2-7.1-2-2.1-3.3-4.5-3.9-7.3,0-.3-.1-1.9-.2-1.9h0ZM84.3,544.2H19.5v7.1h64.8v-7.1ZM88.6,552.5H15.1v9.5h73.5v-9.5Z"/>
  </g>
</svg>