<?xml version="1.0" encoding="UTF-8"?>
<svg id="_图层_1" xmlns="http://www.w3.org/2000/svg" version="1.1" viewBox="0 0 232 515.6">
  <!-- Generator: Adobe Illustrator 29.1.0, SVG Export Plug-In . SVG Version: 2.1.0 Build 142)  -->
  <defs>
    <style>
      .st0 {
        fill: #efedea;
      }

      .st1 {
        fill: #0655bc;
      }
    </style>
  </defs>
  <g>
    <path class="st0" d="M4.7,255.1L109.6,8.4c2.4-5.6,10.4-5.6,12.7,0l104.9,246.7c.7,1.7.7,3.7,0,5.4l-104.9,246.7c-2.4,5.6-10.4,5.6-12.7,0L4.7,260.5c-.7-1.7-.7-3.7,0-5.4h0Z"/>
    <path class="st1" d="M116,515.6c-4.5,0-8.4-2.6-10.2-6.7L.9,262.1c-1.2-2.8-1.2-5.9,0-8.7L105.8,6.7c1.8-4.2,5.7-6.7,10.2-6.7s8.4,2.6,10.2,6.7l104.9,246.7c1.2,2.8,1.2,5.9,0,8.7l-104.9,246.7c-1.8,4.2-5.7,6.7-10.2,6.7ZM8.5,256.7c-.3.7-.3,1.5,0,2.2l104.9,246.7c.6,1.5,2,1.7,2.5,1.7s1.9-.2,2.5-1.7l104.9-246.7c.3-.7.3-1.5,0-2.2L118.6,10c-.6-1.5-2-1.7-2.5-1.7s-1.9.2-2.5,1.7L8.5,256.7h0Z"/>
  </g>
  <path class="st1" d="M109.6,61.4L27.3,255.1c-.7,1.7-.7,3.7,0,5.4l82.4,193.7c2.4,5.6,10.4,5.6,12.7,0l82.4-193.7c.7-1.7.7-3.7,0-5.4L122.4,61.4c-2.4-5.6-10.4-5.6-12.7,0h0Z"/>
  <circle class="st0" cx="116" cy="257.8" r="41.1"/>
</svg>