<?xml version="1.0" encoding="UTF-8"?>
<svg id="_图层_1" xmlns="http://www.w3.org/2000/svg" version="1.1" viewBox="0 0 564.9 224">
  <!-- Generator: Adobe Illustrator 29.1.0, SVG Export Plug-In . SVG Version: 2.1.0 Build 142)  -->
  <defs>
    <style>
      .st0 {
        fill: #0655bc;
      }
    </style>
  </defs>
  <path class="st0" d="M423.7,146.4c1.2-10.4,4.5-21.9,10.5-30.5,3.3-4.6,9.3-10,15.4-10,.9,0,2.4.8,1.4,1.4-.3.2-3.8.6-4.8,1-10.1,3.6-15.4,17.6-18.4,26.9-1,3-1.4,6.5-2.6,9.3-.3.7-.6,1.9-1.5,1.8h0Z"/>
  <path class="st0" d="M376.1,37.7l5.2,18.5-5.1,17.8-.7.4-4.7-18.4c1.7-5.9,3-11.9,4.7-17.8.1-.5-.2-.6.6-.5h0Z"/>
  <path class="st0" d="M374.8,35.4l-3.4,12.9c-1.8-1.9.2-4.9.2-7.2s-1-3.7-.6-4.8c.3-.9,2.9-.5,3.8-.9h0Z"/>
  <path class="st0" d="M372.2,66.6c-4.1-1.2-3.2-5.4-2.6-8.7.5,0,.4.6.5.9.8,2.5,1.3,5.2,2,7.8h0Z"/>
  <path class="st0" d="M374.8,76.3c-.3.3-1,0-1.2-.5-.8-1.5-1.6-5.3-1-6.8.5,0,.7,1.2.8,1.6.2.7,1.7,5.6,1.5,5.8h0Z"/>
  <path class="st0" d="M407.8,82.4c.6.5.2,1.7.1,2.4-.6,4.3-2.9,10.9-4.7,14.9-.6,1.5-1.4,1.5-1.1-.2.4-2,1.3-4.7,1.9-6.8,1-3.5,2.1-7.2,3.8-10.4Z"/>
  <path class="st0" d="M486.1,140c.6.4.2,8.4.3,9.8,1.1,16.8,10,37.9,21.9,49.9,2.3,2.4,6.3,4.9,8.2,7.5.3.4.6.6.5,1.3-.8.8-5.2-2.9-5.9-3.5-13.4-11.6-22.8-30-25.2-47.5-.6-4.5-1.2-11.9-.7-16.4,0-.4.4-1.6,1-1.1h0Z"/>
  <path class="st0" d="M499,107.5c-14.2,17.7-6.9,41.9,2,60.3,2.1,4.3,4.7,8.4,6.7,12.8-.4.4-1.5-1-1.7-1.3-12.4-15-23.3-50.7-11.4-67.9.6-.8,3.3-4.6,4.5-3.8h0Z"/>
  <path class="st0" d="M524.8,219.7c-11.5-3.4-21.4-11-30.3-18.8-.8-.7-5.6-4.8-5.5-5.5.3-1.2,3.3.7,3.8,1,5,3.2,9.7,8.5,14.8,12.2s10.5,6,15.5,9.2c.3.2,2.1,1.2,1.6,1.7h0Z"/>
  <path class="st0" d="M520.9,67.6l-7.7-17.2,7.9-16.9c.7,0,.8.7,1.1,1.2,2.7,5.1,4.7,10.8,7.1,16-2.3,4.9-4.3,10.3-6.8,15.1-.2.4-.9,2.3-1.6,1.8h0Z"/>
  <path class="st0" d="M292.1,89.4c-.4,3.5-2,7.3-3.5,10.5-.8,1.7-1.8,4.6-3.6,5.2-.5-.6,2.9-8.6,3.5-9.9.6-1.4,1.3-3.2,2-4.4.3-.5.8-1.6,1.5-1.5h0Z"/>
  <path class="st0" d="M271.1,89.4c0,0,.3,1.4.5,1.9,1.6,3.8,4.1,8.2,5.3,12,.1.4.9,2.3.1,2.4-.6,0-.7-.6-1-1-1-1.7-2.2-4.2-3-6-.6-1.3-3.7-8.7-2.9-9.5.3,0,.9,0,1,0h0Z"/>
  <path class="st0" d="M283.1,67.2c-.5.5-.6-.2-.7-.4-.4-.6-.8-1.7-1.2-2.4-2.3-4.9-4.3-9.9-6.7-14.8l7.9-17.9c.3-.2.8.9.9,1.2,2.7,5.3,4.9,11.2,7.4,16.7-2.5,5.4-4.8,11-7.5,16.4-.2.4-.2,1.1-.3,1.2h0Z"/>
  <path class="st0" d="M322.6,221l17-91.4c0,7.1-.8,14.3-1.6,21.4-2.6,20.7-7,45.5-12.7,65.5-.4,1.5-.8,4.6-2.7,4.5h0Z"/>
  <path class="st0" d="M326.8,114.5c.2.2-1,5.8-1.2,6.7-1.7,6.3-5.4,12.9-9.2,18.2-5,7.2-18,22.6-27.1,23.4-1.4.1-5.7.1-5-1.9,1.6.1,2.6.4,4.2.2,12.9-2,31.1-27.4,35.3-39,.7-2,1.1-4.9,2-6.7.1-.2.6-1.2,1-.8h0Z"/>
  <path class="st0" d="M325.2,165.7c.4.5-3,10.9-3.5,12.4-3.9,11-9.5,23.2-16.1,32.8-.5.7-4.9,7.2-5.8,6.3-.1-.6.2-.9.4-1.3,1.1-2.1,3.2-4.6,4.5-6.7,6.7-10.9,12.3-23,16.8-35,.9-2.3,1.5-5.7,2.6-7.6.1-.2.6-1.2,1-.8h0Z"/>
  <path class="st0" d="M259.6,168.3c.4-.4,1,.2,1.2.5,1.7,1.8,4,7.5,5.5,10,5,8.5,13.9,19.3,22.4,24.3,1.1.7,4,1.6,4.7,2.4.9,1-.3,1.1-1.2.9-13.2-3.9-25.7-22.6-31.4-34.6-.2-.5-1.5-3.2-1.2-3.4h0Z"/>
  <path class="st0" d="M353.9,197.5c-.3.3-3.3-.4-4-.4-7,0-14.7,9-17.9,14.6-1.7,3-2.6,6.9-5.1,9.2,1.2-10,9.3-21.2,18.8-24.8,2-.8,6.2-1.9,8-.1.3.3.5,1.3.3,1.5h0Z"/>
  <path class="st0" d="M330.7,203h-.6c4.1-11.5,12.1-21,16-32.4.5-1.5.6-3.4,1.3-4.8.6-1.5,1.3-1.5,1.2.2-.3,4.4-2.4,9.8-4.2,13.8-3.8,8.2-9.2,15.5-13.6,23.3h0Z"/>
  <path class="st0" d="M246,192.4l10.3,29.3c-1.4-.5-2.2-2.1-3-3.3-1.5-2.6-2.8-6.2-3.8-9.1-.7-1.9-5.1-16.3-4.5-16.9,0,0,.9,0,1,0Z"/>
  <path class="st0" d="M245,104.3c6.9-.1,5.5,9.5,0,11.5-10.6,3.9-9.6-11.4,0-11.5ZM243.4,106.3c-5,.9-6.4,10.1.4,7.8,5.1-1.7,5.9-9-.4-7.8Z"/>
  <path class="st0" d="M78.4,167.6c.1.9-.9,1.1-1.5,1.2-12.3,2.7-34.5-9.2-42.4-18.6-.3-.4-1.3-1.4-1-1.9,8.4,6.6,17.1,12.5,27.1,16.3,2,.8,7.8,3,9.6,3,0,0,8.2,0,8.2,0Z"/>
  <path class="st0" d="M114.7,158.6c-.6.1-.8-.3-1.1-.7-3.4-3.5-5.7-7.3-10.2-9.8-1.7-1-4.2-1.6-5.6-2.5-.4-.3-.9-.6-.8-1.2,7.8.6,14.7,7.2,17.7,14.1h0Z"/>
  <path class="st0" d="M46.8,101.7c1.2,0,1.7,2,1.6,3-.3,5-12.7,3.3-13.2-2.2-.2-1.9.4-2.9,2.3-3.4.3.9-.6,2-.6,2.7.4,3.8,11.7,6.4,9.9-.1h0Z"/>
  <path class="st0" d="M157.9,78.8c.2.2,1.6,5.8,1.8,6.8,1.3,5.8,2.7,12.1,2.1,18l-.9-.5c-1.1-6.9-3.3-14.5-3.6-21.5,0-.4-.2-3.6.6-2.8h0Z"/>
  <path class="st0" d="M177.2,89.1c.4,3.1-2.3,4.6-3.9,6.6-.6.7-3,4.6-3.4,4.6-1.3,0,.6-3.5.9-4,1-1.7,2.9-2.9,3.9-4.4.8-1.1.8-2.9,2.4-2.9h0Z"/>
  <path class="st0" d="M187.5,33.1c.5,0,.7,1.1.9,1.5,2,4.9,3.6,10.1,5.5,15.1l-6.2,16.2-6.8-16.2,6.6-16.6h0Z"/>
  <path class="st0" d="M206.1,110.4c.4.4-4.6,9.4-5.2,10.7-5.2,11.3-9.9,27.2-20.1,35.3-.8.6-2.7,2.4-2.6.3,7.1-7.1,12.6-16.2,16.9-25.3,2.8-5.9,5.6-15.6,9.9-20.4.3-.4.5-.8,1.1-.7h0Z"/>
  <path class="st0" d="M126.4,106c6.4-6.4,13.1,1.2,5.7,7.1-6.4,5.1-11.6-1.2-5.7-7.1ZM129.8,105.6c-3.4.7-6.7,8-1.4,7.3,4.5-.6,7.8-8.6,1.4-7.3Z"/>
  <path class="st0" d="M63.2,87.2l.2.3c0-.1,0-.2-.2-.3Z"/>
  <path class="st0" d="M564.2,152.8c-1.5-5.5-6-11.3-8.1-17-2.4-6.4-3-13-7.3-18.7-1.1-1.4-4.3-4.1-4.9-5.4-.5-1.1-.5-3.2-.9-4.6-1.1-4.2-5.5-8.7-9.4-10.5-.9-.4-1.7-.3-2.7-.8-.7-.4-3.6-2.9-3.7-3.6l.9-9.5c1-1.5,2.9-1.8,3.9-3.5,1.2-2.3,3.4-9.5,4-12.1.5-2.5.7-5.2,1.3-7.7.5-2.3,2-5.4,2.1-7.6,0-2.1-.9-4.7-1-6.7-.2-5,6-6.9,5.5-12.9,0-.9-.6-1.8-.6-2.6,0-3.1,2.6-5.3,1.2-9.7-.8-2.5-2.3-1.5-2.6-1.8,0,0,0-1.8,0-2.4-.3-1.6-2.4-8.6-4.3-8.6s-1.6,1.8-2.4,1.3c-.1-.1-1.1-2.2-1.8-2.9-1.5-1.6-8.6-6.2-10.5-4.3-.4.4-.3,1.2-.8,1.4-.6.2-3.4.4-4.2.4-1.5,0-3-.8-4.4-.9-1.8,0-3.9.8-5.7,1.2.5-1.1,1-2.2,0-3.2h-2.6c-1.3.2-4.5,1.3-5.8,1.8-.9.4-2.3,1.5-2.9,1.6-.6.1-1.1-1.2-2.9-.7-.8.2-4.3,2.6-5.1,3.3-.9.8-3,3.4-4,3.3-.3,0-.7-.5-1-.5-2.3,0-6,9.6-7.1,11.4-3.5-1.5-3.9,4.9-4,7.2,0,1.2.5,5,.4,5.4,0,.2-1,.3-1.5.8-1.7,1.8-.4,7.9.7,10,.4.7,1.7,2.2,1.8,2.5.1.6-.5,1-.6,1.6-.4,2.4,1.6,7.5,3.4,9.1.8.8,3.5,1.8,3.7,2.1.6,1,0,3.2,1.2,4.9.7,1,1.8,1.1,2.3,1.9.5.6.4,1.4.8,2.1.5.9,1.9,1.6,2.2,2.6.9,2.9.5,11.5-.3,14.5-.1.6-.5,1.7-.8,2.1-.7.9-5,2.5-6.4,3.5-1.8,1.4-4,4.1-4.7,6.3-.5,1.5-.4,3.2-1.2,4.6-.9,1.5-3.1,3-4.1,4.9-.9,1.7-1,3.7-1.6,5.4-.6,1.8-1.6,3.5-2.3,5.3-.7.1-.5,0-.7-.4-.8-1.3-1.3-3.4-2.2-4.9-.5-.9-1.6-1.7-2.1-2.7-1.9-3.8-.6-6.1-4.8-9.4-.9-.7-2-.8-2.7-1.8-1.3-1.7-1.1-3.9-3.4-6-2-1.8-5.9-2.3-6.8-3.3-.5-.5-1.1-2.4-1.7-3.3-2.9-4-8.5-4.8-13.2-4.7,0-.9-1.4-5.5-1.2-5.8.2-.3,2.5-.8,3.4-1.8,1.9-2.1.8-4.2,1.4-5.6.4-.7,3.1-1.8,4.1-3.3,2.5-3.8.2-5.3.6-7.7.1-.8,2-2.6,2.5-3.7.9-1.8.9-4.7.7-6.7-.2-1.6-1.5-2.7-1.6-4.2,0-2,.8-3.2.3-5.7-.8-3.9-3.2-4.8-5.1-7.5-2.5-3.6-2.1-6.5-7.2-8.5-1-.4-3-.6-3.7-1.1-.5-.4-.9-1.5-1.5-2.1-4.4-4.7-7.8-2-12.8-2.6-3.6-.5-9-4.7-12.3-4.1-1.1.2-1.4,1.7-.8,2.6-3.2.4-7.3-1.8-10.4-.9-2,.6.1,2.9-.2,3.4-.1.2-3.4,1.5-3.8,1.6-1.5.2-2.3-.8-3.9.2-2.5,1.6-1.7,4.5-2.5,6.5-.2.4-1.7,1.2-2.2,2-2,3,.6,4.9.1,8l9-1.3c0,.4.1,2.1,0,2.2-.2.2-3.7,0-3.8.8.9,1.6,2.9,11.4,3.5,12.1.5.5.6-.1.7-.4,1-1.6,1.9-5.4,3-6.7.5-.6,1.1.3,1.1.8.1,1.3-3.5,6.9-3.8,8.8-.2,1.5,1.3,4.3,1.5,6l-5.7,19.7v.8l4.5.3v2.3c-1.4.4-5.8-1.1-6.7-.6-.2.1-.9,2.3-.9,2.8-.3,2.4,1.5,5.3,3.8,6,2.7.8,8.8-.4,11,1.2.7.5,1.4,2.6,1.1,3.3,0,.3-4.3,2.7-4.8,2.9-3.1,1.2-5.7.6-8.3,3.6-.8.9-1.2,2.5-1.8,3.1-1,1-3.9,1.3-5.3,3-1.2,1.5-1.5,3.9-2.4,5.3-.7,1-3,2.3-4.2,3.5-5,5.4-7.3,12.2-8.9,19.1-.1.5.2.6-.6.5-1.8-8.1-5.7-19.1-13.5-23.3-1.8-1-5-1.7-6.4-2.9-1.6-1.4-1.4-3.5-4.3-5.4-3-1.9-7.6-2.1-9.5-3.3-.7-.4-1.4-2.2-2.1-3-3-3.5-9.6-4.5-14-4.5v-18.4c.9-.7,1.7-5.2,1.9-5.4,0,0,1.3.5,2.3.2,2.8-.6,6.9-7.9,7.9-10.4,1.1-2.9.7-4.7,1.2-7.2.3-1.5,1.9-3.2,2.1-4.7.3-1.9-.4-3.5-.3-5.1,0-1.6,1.4-3,1.6-4.5.2-1.5.2-6.4-.8-7.5-.5-.6-1.6-.6-1.7-.7-.2-.2,0-2.4,0-3-.3-2.5-2.3-12.2-5.8-7.6,0-1.9-.9-3.8-1.9-5.4-.9-1.4-3.8-5.4-5.6-4.9-1,.3-.8,1.6-1.5,1.9-.9-2.6-8.4-7.5-10.8-5.8-.7.5-.6,1.6-.9,2.3-5.3-2.6-11.7-2.6-17.2-.6,1-3.8-.9-3.4-3.7-2.6-3,.9-7,2.8-8.2,5.8-.9-.4-.4-1.9-1.5-2.2-2.8-.8-8.8,8-8.1,10.9-.8-.6-.6-1.5-2.1-1.3-2.2.3-3.9,6.9-4,8.9,0,.7.1,3.5,0,3.7,0,.1-1.3-1-2.2,1.2-2.3,5,1,6.9,1.6,10.6.3,1.6-.1,3.7,0,5.4.2,1.5,1,2.9,1.2,4.2.2,1.3,0,2.8,0,4.1.4,3.7,2.9,6.5,4.6,9.6.5.9.5,1.9,1.1,2.7,1.2,1.3,3.8.9,4.2,1.6.8,1.3.9,4.9,2.2,6.4v17.6c-.3.9-4,1.4-5.2,1.9-1.2.5-2.4,2-3.5,2.3-2.7.8-4.9-.2-7.7,2-.8.6-1.5,1.9-2.1,2.4-1,.7-2.7.6-4,1.5-.9.6-1.2,1.7-2.1,2.4-.9.7-2.1,1.1-3,1.8-2.6,2-3,4.5-3.6,7.5-1.2-.9-1.6-2.5-2.6-3.7-1-1.3-2.8-2.2-3.1-3.9-.2-1,0-1.8-.3-2.9-.6-2-3.6-4.6-5.6-5.4-1.5-.6-4.5-1-5.6-1.8-1.7-1.2-1.6-4-5.8-5.9-2.5-1.1-4-.5-5.8-1-.6-.2-1.1-1.1-1.7-1.5-2-1.2-4.2-1.6-6.6-1.7.4-1.1-.5-3.5-.4-4.3,0-.3.9-.4,1.3-.7,2.8-2.3,1.6-3.6,2.7-6.3.3-.8,1.1-1.5,1.4-2.4,1.5-3.6,1.3-8.1,2.2-12,.7-3.1,2.4-5.5,2.1-8.8-.2-1.6-1-3-.9-4.9,0-2.8,2-4.1,1.6-7.4-.1-.9-.7-1.6-.6-2.6.1-.7,1-1.4,1.3-2.3.4-1.1.2-2.2.4-3.1.4-1.7,1.9-1.5,1.5-4.6-.3-2.4-2.6-3.2-3.1-4.7-.7-2.4.4-5.1-1.5-7.9-1-1.5-2.4-1.3-3.7-2.4-1.3-1.2-1.7-3.1-3.4-4.4-2.7-2.1-4.4-.6-7.3-.8-1.4,0-2.7-.9-3.9-1-1.1,0-2.4.6-3.7.3.4-.5,1-2.7.1-2.9-2.4-.6-9.4,1.2-11.6,2.5-.7.4-1.5,1.6-2.2,1.7-1.1.1-.9-.8-1.5-1.1-2.5-1.1-6.5,4-8.5,4.9-.9.4-1.8.3-2.7.6-2.1.7-3,3.8-4.8,5.2-1.2.9-2.5,1.1-3.7,2.1-3.4,2.8-5.4,9.5-5.6,13.8-3.7-.7-3.4,6.2-2.7,8.6.3,1,1.7,3.1,1.7,3.8,0,.6-.8,1.1-.9,1.9-.6,3.6,1.7,8.1,4.7,10.1.4.3,1.3.3,1.4.4.2.2-.1,3.9.4,5.2.8,1.9,2.8,2.3,3.4,3.2.6.8.3,2.3.5,3.2.5,2,2.4,2.7,3.7,4l1,16.5c-2.5.3-5.6.8-7.8,2-1,.6-1.8,1.6-2.8,2-1.7.8-3.2.3-5,.8-.9.3-7.4,3.5-8.2,4.1-2.2,1.6-1.8,3.7-3.2,5.5-.9,1.1-2.7,1.6-3.7,2.8-1.7,1.9-1.5,4.2-2.5,6.2-.8,1.7-2.8,2.9-3.9,4.4-.6.8-.9,1.7-1.4,2.5-.2.2-.2.9-.7.4-.2-.2-1.5-5.7-1.9-6.7-1.4-4.4-2.9-9.6-5.6-13.4-4.7-6.7-12.8-12.2-19.2-17.2.5-2,0-4.3.7-6.3.3-1,1.1-1.4,1.2-2.6.5-3.9,0-9.6-.3-13.5,0-.5.2-.9-.5-.8l-13.9,13.1c.4,3,.2,6,.2,9,0,.8.3,1.5.3,2.2,0,1.8-.4,7.8.8,8.8.2.1,2.7,1.3,2.9,1.3h6.3c.1-2.1-2.4-1.6-3.9-1.6l.6-3.9c-1.4.5-1.7,1.8-3.5,1.3,1.1,2.5-.9,1.5-.9.8,0-.6-.6-2.4,1.5-4.6.3-.4,2.2-1.2,2.3-1.3,0,0,1.2.4,1.8.3.9,0,1.8-.8,2.8-.5,1,.3,1.1,1.2,1.6,1.6,5.8,4.4,12.2,8.3,16.9,14,3,3.7,4.8,10.9,6.4,15.5,3.2,9.7,6.2,19.6,8.6,29.5-6.3-6.4-15.1-9.7-23.8-6.1-.3-2.1.5-4.2.7-6.3.3-5.2,0-11.5-.7-16.7-.5-3.7-2.1-7.1-1.2-10.8-1.2.6-1.6,1.9-1.6,3.2-.3,0-.7-1.2-1.3-.6-.3.3.3,2.4.6,2.9l-3.2-.3c.4-.9,2.9-.2,1.9-1.9-.2-.3-3.8-.9-4.7-1.3-.9-.4-5.1-3-5.4-3.6s0-1.5-.3-2c-.2-.3-1.3-.4-1.8-.7-1.8-1.1-3.1-3-5.2-4.1-2.4-1.3-5.7-1.9-8.3-2.8,0,0-1.5.1-1.3-2.4.2-2.5,3.2-2.7,3.2-2.7,2.5-.5,4.4,1.6,6.8,1.9-.6-2.2-.2-4.6-.3-6.9,0-2.7-.2-5.4-.3-8,0-1.2-.6-2.5-.3-3.9.2-.8,3.9-3.3,4.1-4.2.2-1.1-2.8-8.8-2.5-9.1,0,0,2.2-.4,2.2-.3.3.3,1.1,6.9,2.1,7.7l9.8-8.9-5.5-2.1.7-1.9,13.5,5c.7.6-.4,1.4-.3,2.1-.8-.4-5.3-2.4-5.8-1.9-.2.4.3,1,.3,1.1v10.9c0,.2.7.8,1.1.2.4-.7,0-2,.2-2.5.4-.7,3.6-.9,4.6-2.7.8-1.5,1.1-5.1,1.6-7.1,1.5-5.1,1.8-2.1,5.1-3,.6-.1,1.9-1.3,2.3-1.9,1.5-2.3-.1-3.1.2-5,.1-.8,1.1-1.2,1.4-1.9.4-.9.4-2.8,0-3.8-.3-1-2.1-2.4-2.1-3,0-.7,1.2-1.8,1.3-2.9,0-1.1-.9-4-1.9-4.5-.8-.4-1.7,0-2.4-.5-.4-.3-3-4.2-3-4.7,0-.7.6-1.1.7-1.6.4-2.4-5.4-5-7.1-6.1-.9-.6-1.3-1.9-2.6-1.8-.6-.6,2.8-1.6,1.6-3.4-.8-1.3-4.2-1.7-5.7-1.8-.7,0-1.3.3-1.9.4-1.9,0-4.1-2.1-6.1-2.9-6.2-2.3-12.4-3.6-18.6-.9-.9.4-2.4,1.7-3.3,1.8-.8.1-1.9-.5-2.8-.5-3.7,0-7.8,2.1-10.3,4.8-.9.9-1.4,2.2-2.4,3.1-3.1,2.6-6.1,2.4-7.6,7.6-.5,1.8-.2,3.8-.7,5.1,0,.2-1.3,2.1-1.4,2.1-.5.3-1.1-.3-2,.2-3.2,1.8-1.8,10,.8,12.2-3.1,1.1-4,4.1-3.4,7.1.3,1.3,1.7,2.4,1.7,3.1,0,.7-1.3,1.9-1.5,2.9-.5,2.4,0,5.3,2.5,6.4.7.3,2.9.4,2.8,1.9,0,1-2.5,7.2-3.1,8.5-.6,1.3-2.4,5.3-3.1,6.2-1.1,1.3-5.7,2.1-7.8,3.2-2.4,1.3-6.2,4.9-7.4,7.5-.6,1.3-.5,3-1,4.1-.4.8-1.7,2-2.3,2.9-1.9,3.1-1,4.4-1.4,7.6-.3,2.7-1.6,5.5-1.9,8.1-.3,3.5.8,6.5.6,9.7-.1,3-1.1,6.2-1.3,9.2-.5,7,.3,14.5,0,21.5.3,1.1.6,2.9.6,4,1,19.2.6,41.3,5.4,59.9.2.8,1,4,1.3,4.4.2.3.9.3,1,.2.7-.6-2.3-15.8-2.6-18.2-1.8-15.4-2.1-30.9-2.6-46.3-.7-21-5.6-53.2,24-54.8,3.6-.2,2.7.3,4,3.4-26.7,10.4-24.9,43.1-18.5,66.2,2.4,8.6,7.6,23.2,14.6,28.9,1,.9,3.4,2.6,4.8,2.2,1.8-.6-.7-1.3-1.2-1.6-6.6-4.4-10-12.6-12.7-19.8-7.4-19.8-14.4-57.8,7.4-70.9,1.4-.8,5.9-3.2,7.3-2.7.9.3,2,1.8,2.9,2.2-7.4,4.9-11.3,16.9-11.9,25.4-.5,7.7,1.4,20.9,5.7,27.4.3.5,1.4,2,1.7.6-1.1-2.6-2.3-5.1-3.1-7.9-3.6-12.4-3.9-31.5,5.5-41.5,4-4.3,4.2-2.5,9-2.2,2.3.1,3.5-.6,5.9.2,9.2,3.2,15.4,13.4,22.3,19.5,3.8,3.4,7.7,4.7,11.2,7.4,6.2,4.7,3.3,11.6,4,17.9.2,1.4,1.3,6.6,2.5,7.2.4.2,1.4.5,1.3-.3-.1-1.1-1.1-2.7-1.4-4.1-1.2-5.1-.4-10.9-1.2-16,7.6,1.1,10.6,11.7,11.5,18.2.5,3.5.3,7.2,1.2,10.7,1.8,6.6,5.1.4,3-3.2-1.1-.2-.6,1.2-1.3,1.3-.5-6.4-1.8-12.9-3.9-19,.4-.4,4.2,3,4.7,3.5,1,1.1,5,7.4,5.5,7.4.8,0,0-1.9,0-2.2-2-6.5-7.1-8.3-11.4-12.4-1.6-1.5-2.7-3.6-4.3-5-1.2-.9-2.1-1.1-3.4-1.8,3.4-3.4,10.6-4.3,15.1-3.2,7.7,1.9,19.3,16.5,20.2,24.2.2,2,0,4-.3,5.9-.6-.1,0-1.7-1.3-1-.9.6.6,6.5.6,7.9.1,3.4-.8,8-3.6,10.1.1-4.2-.2-8.4-1.2-12.5-.3-1.4-.3-3.5-2-3,.6,6.9,4.7,23.8-5.7,25.1-5.8.7-14.6-1.4-20.3-2.8-13.8-3.2-27.8-8.5-40.3-15.1-6.2-3.2-12.5-6.8-17.5-11.8-.3-.1-.8.3-.8.5-.3,1.4,5.2,5.9,6.5,6.7l8.6,5.4h-6.9c-5.9,0-15.7-11.9-18.2-16.8-.7-1.4-2.1-5.8-3-6.6-.3-.3-.9-.5-1.1-.3-.3.2,2.2,6.2,2.5,7,4,8.8,12,18.2,22.4,18.8,2.5.1,4.9-.6,7.4-.3,1.9.3,3.3,1.7,5,2.2,0,.5,0,.4-.2.7-3.2,3-7,6.1-10.8,8.5-1.4.9-5.3,3.2-6.7,3.6-1,.2-4.8,0-5.2.5-1.2,1.5,3.4,1.7,4.3,1.6,7.1-.9,15.1-9.6,20.6-13.7l6,2.8c0,.4-.2.7-.4,1.1-1.4,2.5-5.1,6.7-7,9-4.3,5.2-9.4,10.7-14.7,15-3.9,3.2-8.3,5.8-12.8,8l-.2,1c13.2-3.8,23.2-14.9,31.3-25.5,1.3-1.7,3.8-6.2,5-7.2.3-.2.4-.4.8-.5,1.6-.2,5.6,2.3,7.5,2.3.4.4-1.6,4.8-2,5.6-4.4,9.8-10.2,18.7-16.1,27.5.6.5,4.2-3.3,4.7-3.9,6.8-7.7,11.3-18.8,15-28.3,1.4.9,4.8.9,4.8,3-1,9.8-2,19.5-3.9,29.1,1,.9,2-2.7,2.3-3.4,2.7-8.1,2.2-16.8,3.2-25.1,0-.3.2-1.1.5-1.2.7-.1,5.6,1,5.9,1.9l1.2,27.8c1.2.2,1.7-4.1,1.8-5,.3-3.8-.2-7.8,0-11.6l-1-11.1c.2-.1,3.4.3,3.4,1.3l3.4,26.1c1.4.4,1.6-.5,1.6-1.8,0-3.6-.6-8.6-1-12.2-.5-4-2-8-1.9-12.1l10.6,1.6,5.7,24.4c.2-.3.7-.2.8-.5.2-1-.2-4.4-.4-5.7-.7-6.2-2.5-12.2-4.1-18.2,2.3.5,5.1-.1,7.3-.9l.6.3c3.1,6.7,4.2,14.2,6.6,21.1.3.8,1.2,3.7,2.1,3.7,1.4-.1-.6-7.1-.8-8l6.4,1.3c.2.3-2,6.1-.5,7.1,1.4.3,1.9-6,2.9-6.4,6.6.2,13.6,1.3,20.1.2,1-.2,2.6-.4,2.2-1.5-10.6-.6-21.5,0-31.8-3l-2.6-8.3c9.1,2.6,19,4.1,28.5,3.5,2-.1,4.7-.3,6.6-1.1,0-1.6-12.4-1-14-1.1-2.1-.1-5-.3-7-.7-.7-.1-1.8-.2-2.4-.5-2.7-1.2-7-11.5-7.6-11.7-.4-.1-.9-.2-.8.5.4,3.3,3.3,8,5.1,10.8-2.4-.4-8.2-1-9.6-3.1-.2-.3-1.6-3.6-1.6-3.9-.1-1,1.1-2.1,1.6-3.1,1.8-3.6,3.4-6.1,5.7-9.4l1.3-5.6c1.9,5.9,5.1,13,9.2,17.7.4.5,2.8,3.1,3.4,2.6-3.2-4.7-6.3-9.5-8.6-14.7-1-2.2-4.3-10.2-4.2-12.1.1-1.7,1.3-3.9,1.5-5.9.3-3-1.1-5-1.7-7.8-1.3-5.7-1.4-11.6-4-17-.4-.8-1.8-2.4-1.9-2.9-.1-.9,1.6-7.5,1.9-8.9.9-3.5,2.3-6.8,3.3-10.2,2.5.1,1.1,1.6.8,3.1-3.1,20.3,2.3,58,20.1,70.9,1.7,1.2,3.9,2.6,5.9,3,.6-.6-3.7-3.3-4.2-3.7-15.6-13.7-21.5-40.8-20.6-60.8,0-2,.7-9.7,1.4-11.2.3-.7,2.2-1.4,2.5-1.2.3.2,1.6,5.7,1.9,6.7,1.6,4.8,3.2,9.5,6.8,13.1-.7,1.3-2.1,2.6-2.2,4.2-.1,1.7,1.3,2.9,1.3,4.1s-1.1,2.4-1.3,3.9c-.1,1.4.2,2.6.3,3.9,0,1.8-.5,2.7.4,4.8.8,1.8,6.8,7,8.7,8.4,4.7,3.4,9.3,3.6,13.3,8.5.4.5,1.7,2.2,1.8,2.8.3,1.8-2.5,9.9-3.1,12.4-1.8,7.9-3.4,17.9-3.7,25.9,0,1.7-.4,7,1.9,3.5,2.1-13,2.3-26.6,6.9-39.1,4.8,4.4,2.4,8.4,2.1,13.7-.3,4.4.3,20.7,2.3,24.1.3.5.7.5,1,.9.5.6.3,2.1,1.4.4,1.7-14.2,5.6-28.2,7.1-42.4.4-3.6,1.1-8.9.9-12.4,0-1.8-.8-4.1-2.8-4.3,9.2-1,11.4,9.6,12.8,16.5,2.2,11.2,2.5,22.7,4.3,34,.2,1.5,1.2,8.7,2.4,9.2.6.3.5-.4.4-.8-.7-9.6-2-20.3-3.2-29.9-1.1-8-2.6-15.9-4.8-23.7,5.7,1.1,9.9,4.5,13.1,9.2,1.4,2.1,4.6,7.9,4.6,10.2-.2,8.9-3.4,19.2-3.9,28.3,0,1.5-.2,4.8,0,6.1.3,1.7,1.5,1,1.9-.4,3.7-25.2,6-50.8,11.5-75.7,2.7-12.3,5.3-28.2,18.8-32.8-.2,1.8,1.6,4.2,1.3,5.9-.1,1-2.8,4-3.5,5.2-4.9,8.4-8,20.4-9.9,30-1.1,5.1-3.4,14.9-3.4,19.8s3,4.2,5.9,5.8c-.4,4.3-1.2,9.6-.7,13.8.4,3.6,6.5,6.4,8.9,8.8,2.1,2.1,2.5,4,2.7,6.9.1,2.2-.4,11.5.8,12.7.4.4.6.4,1.1.3,1.2-23.6-1.4-47.3-.7-70.9.2-4.8.5-9.7,1-14.5.5-5.2,1.7-10.4,2.2-15.6.4,0,2.2.2,2.3.5.3.9-.1,3.5,0,4.8,1.6,26.7,11.8,70.9,34.2,87.8,1,.8,2.3,1.8,3.5,2.1.8-.9-3.8-4.2-4.4-4.8-19.4-19.6-28.4-53.8-30.7-80.6-.2-2.5-.6-5.6-.6-8.1,0-.4.1-1.2.3-1.5.3-.6,2.6-.8,2.9-.5.1.1.8,3.1,1,3.7,6.5,18.4,22.5,47.3,42.6,53,1.1.3,5.4,1.3,6.2,1.1.4,0,.6-.5.5-.9-22.9-6.4-38.4-29.5-46.3-50.8-.4-1.2-2.8-7.2-2-7.8.5-.3.8.5,1,.7,1.4,1.8,2.7,4.4,4.2,6.5,6.7,9.2,18,21.1,28.5,25.6,2.9,1.2,6.3,2.4,9.5,2.3.1-.6-.3-.8-.7-1-1.5-.9-4.5-1.3-6.3-2-11.9-4.7-24.1-18.5-31.2-29-.4-.7-2.5-3.5-2.6-3.9-.1-.7,1-3,1.9-2.5,6.9,6.8,15.8,12.6,24.7,16.5,15.8,7,26.3,6.5,36.4-8.5,2.2-3.3,6.5-11.8,6.5-15.7v-6.6c6.5,1.4,10.7,3.2,11.3,10.5,1.5,18.2-11.2,49.1-22.5,63.4-7.1,9-11.8,11.5-21.4,16.9-3,1.7,3,.4,4,.1,23.1-7.6,41.6-54.4,42.2-76.8,0-1.8-.3-3.3-.4-4.8,0-.4,0-.6.5-.5,1.3.4,5.8,3,7,3.9,5.6,4.3,8.6,14.1,10.4,20.8,5.3,19.7,10,47.1,11,67.5.3,6-.4,13.2.3,19,.2,2.1,1.7.7,1.9-.7.6-3.6.5-9.5.4-13.2-.4-12.7-3.5-25.8-3.5-37.9,0-14.4,1-34.2,6.5-47.5.5-1.1,2.1-4.4,1.8-1.1-1.4,12.7-3.6,21.9-1,35,.3,1.4,2.4,8.1,2.3,8.5,0,.2-1.8,2.1-2.1,2.6-6.5,10.5-2.2,24.6,3.1,34.7.9,1.6,4.4,6.5,4.5,7.7.3,2.5-2.6,2.8-4,4-1.6,1.4-2.2,4.5-.6,6.1,4.8,5,26.5,4.9,31.7.5,2.2-1.9,2-5.1-.3-6.7-1-.7-2.5-.4-2-2,.8-2.6,5.5-6,7.4-8.1,2.4-2.7,5.2-7,6.3-10.5.3-1,1.1-5.7,1.3-5.9.4-.3,2.6,0,2.8.8.2,1.1-1.3,7.5-1.5,9.4-.5,4.5-2,22.4,0,25.4.3.4.4.6.9.5.8-11.6.6-23.3,2.7-34.7l8.8,13.4c-.1,6.1-2.3,12.9-2.5,18.9,0,1.1,0,2,1.3,1.8,1.7-9.6,4-19.2,5.4-28.9.8-5.7,3.1-19.7.5-24.5-.5-.9-2-1.9-1.6-2.9,2.6,1,5.7,1.5,7.7,3.5,6.5,6.3,7.6,29.5,7.9,38.4,0,2-.3,13.3.1,14,.2.3.6.5.8.3.2-.1.6-4,.6-4.7.7-10.4,0-20.8-1.4-31.1l-3-13.5c2.3.6,7.6,3.9,8.4,6.1.3.9-1,5.7-1.1,7.2-.4,5.7,1.3,6.3,6.1,8.4-.5,5.8-2.3,11.5-2.6,17.3-.3,5.7.9,4.8,3.9,8.4.5.6,2.6,5.1,2.9,1.9.3-3.2-4-4.6-4.4-7.2-.5-3.5,9.4-6,11.5-8.1,0,4.6-.8,9.4-.3,14,0,.7.3,2.4,1.4,2.1l.8-6.3c-1.2-13.8,2.9-27.1,2.6-40.9l1.6-11.4c.4,13.5,1.2,27,3.6,40.3.8,4.5,1.8,9.4,3.4,13.6.1.4,2,5.6,2.9,4.7-3-12.1-5.5-24.4-6.8-36.8-2.4-23.5-2.7-51.9,9-73.1,2.9-5.2,5.4-8.8,11.2-10.6,11.3-3.5,23.4,1.1,29.8,10.9,9.3,14,13.9,35.9,10,52.4-.1.5-.2,1.8-.7,2-1-14.8-2.8-31.5-10.2-44.6-.5-.8-3.8-6.5-4.9-5.6,6.7,10.1,9.8,22.1,11.5,34,.5,3.8,1.1,7.8,1.3,11.5.4,5.1-.2,11.2.7,16,1,5.8,6.2,10.8,3.8,17.2-.9.6-4-4.2-4.7-4.8-6.5-7.1-12-11.6-17.8-19.8-.9-1.2-5.1-8.4-5.5-8.6-1.4-.9-.6,1.4-.4,2,3,7.1,12,18.3,17.6,23.6,5,4.7,9.3,6.8,11.9,13.8,1.3,3.5,0,6.1-.5,9.6-2.1-1.9-8.9-11.8-11.1-12.2-1.3-.2.3,1.8.5,2.1,3.3,4.7,7.5,8,9.9,13.6.8,1.9,1.9,7.2,2.8,8.4.7,1,1.5.6,1.7-.5.2-1.3-.7-3.6-.9-4.9,1.5.4,5.6-1,6.6,0l2.6,5.5c1.7-1-.8-6.1-.5-6.4l4-.9c1.1.2,1.5,7.4,3,8.3h.6c1.4-3.1-1.1-6.1-1.3-8.9-.1-1.6.6-2.5.7-3.9,0-1.4-.8-2.9-.7-4.2,0-1.4,2.1-3.4,2.6-5.2,1.9-7-2.8-14-2.6-20.9.3-6.6,3.2-12.9,4.4-19.1.2-1.1-.1-2.3.5-3.2v-1.9c-.4-1.2-.4-2.5-.8-3.9h0ZM71.3,108c.3,2,.3,4.4-2.3,4.2-4.5-2.8-9.4-5.1-14.5-6.8-.5-.2-1.7-.2-1.8-.3,0,0-.6-2.3-.2-2.5,3.3,1,6.8,2.9,10.1,3.7,1.7.4,4.3,1.2,5.4-.7,1.2-2.1-2-1.2-2.6-1.5-.5-.3-1.4-2.7-1.9-3.2,3.1-1.1,7.3,4.6,7.7,7.1h0ZM95.9,29.3c1.4,1.5,2,5.9,5,4.8.2,1-1.3.9-1.6,1.4-.7,1.5,1.4.3,1.6.5-.7,2.6-3.2-.3-4.8.5.5,1.6,2.4,1.6,3.4,2.7,1.1,1.1.8,3,2.4,3.2,0,.6-1.4.4-1.7.3-1.1-.2-2-.9-3.1-.9.7,2,2.9,2.9,4.8,2.2.6,1.4-2.2,1.4-2.2,2.1,0,.3,2,3.5,1.2,4.7l-1.3-2.4-5.2-3.5c0-.1,2.2-1.7.8-2.1-1.1-.3-1.7,2.3-4.3.8-2.7-1.6-2.9-7-3.3-7.2,0,0-.9,0-.9,0-.2.1,0,3,.1,3.6.4,2.4,1.9,3.8,3.4,5.4-4.9.4-9.9-3.5-10.6-8.4,1.3.7,2.4,2.4,4,2.2.3,0,.2-.6.2-.8,0-.3-3.5-1.8-3.8-3.9-.1-.8.4-3.9-.8-3.7-1.8.4-1.2,5.6-1.4,5.8,0,0-2-.2-1.9.5,0,.4,2.6,1,2.2,2.1-2.7,0-6.1-.4-7.5-3-.5-.9-.8-5-2.2-4.1-.7.4,0,2.8,0,3.4,0,4.2-.8,7.9-5.1,9.5-.2-.3,1.6-4.6.6-5.5-1.1-.9-1.2,1.9-1.4,2.6-.7,2.1-2.4,3.3-4.7,2.9,0,1.1,1.1,1.4,1.9,1.3-.3.7-.7,1.3-1,2.1-.2.7-.7,3.9-1.4,2.4-.7-1.6.1-2.6.1-3.9,0-4-2,1.8-2.3,2.2-.5.6-1.1.5-1.6,1-.3,1.1,1.8-.4,1.3.6-.6,1.3-3.5,2.8-2.6,5.3-2.8-.8-1-3.5-1-5.5l-1.8,1.3-.8,2.2c-.5-1.6-.6-4.3,1-5.3.8-.5,2.5-.4,2.6-1.8-3.3.7-5.1.5-6.4-2.9,1.8-.8,5.2-2.1,3.9-4.5,3-.1,6.4-1.3,8.9-2.8,1.5-.9,3.5-1.9,3-3.9,2.2.2,11.6-2.2,12.4-3.9.2-.5,0-1.6.2-1.6.2-.2,4.4.5,5.6.3,2-.2,4-1.7,5.8-1.9,1-.1,1.8.3,2.5.3,1.7-.1,3.5-.8,5.3-.6-.2.7-1.7,0-1.6,1.1.9,1.4,2.9,1.6,4,2.7h0ZM40.2,58c.3.4.7,1.4,1,1.5.3.2.9,0,1,0,0,.2-.6,3.9-.8,4.4-2.2-.2-1.7-1.8-2.2-3.3-.5-1.4-1.2-2.7-1.5-4.1-.2-.8-.7-6.4-.4-6.5.2,0,.8.4,1.2.2.7-.2,1-2.7,2.1-1.7.1.1,1,2.8,1,2.9-.2.5-1.9.9-2.3,1.5-1.5,2.5-.3,3.3,1,4.9ZM38.5,47.2l-1.2,2.3c.5-5.2,5.1-5.8,5.4-.3-1-1.4-2.5-3.7-4.2-2ZM40.6,43.2c-.9.2-3.9,2-4.4.7.3-.6,5.6-2.4,5.2-2.7l-3.2.2c1.9-1.6,4.1-2,6.6-1.8.4,0,2.9.5,3.1.6.5.5-.2.6-.4.7-2.9,2.3-3.6,1.7-6.8,2.2h0ZM34.6,41.8v-1.9l-1,.5c-.3-2.9,1-5.4,2.7-7.6.3-.4,3.1-3.3,3.4-2.9,0,4.8-1.5,8.8-5.1,11.9ZM43.9,32.2l-1.1.6c-.6-2.7,1.4-5.2,3-7.2l5.2-3.7c-.1,3.1-1.5,6.5-3.5,8.9-1.1,1.2-4.8,3.4-4,5,.9,1.8,5.3-.9,6.9-.6,0-1.5-1.3-.8-2.2-.7-.3,0-1.1.4-1-.2,2.9-1.5,5.5-2,8.8-1.6,5.2.7,1.3,2.8-1.2,3.9-2.1.9-4.8,1.5-7.1,1.2-1.9-.2-4-1.8-6-.9,0-2.1,2.5-2.5,2.2-4.5h0ZM72.6,21.6c1.4.2,3.3-.2,4.7,0,1.8.3,4.1,2.2,5.9,2.6.7.9-4.8,1.4-5.3,1.4-3.2,0-5.9-1.3-8.8-2.4,0-.8.9,0,1.1,0h4.7c-.2-1.6-1.7-.4-2.2-1.6ZM71,27.4c.5.7-2.1,1.9-2.6,2.1-4.6,1.8-8.4,1.2-12.9-.5l4.8-.6c1.1-.9-2.8-.6-2.6-1.3,4.6-1.6,8.8-1.6,13.2.3h0ZM55.2,26.1l1.9-3.5c-.6-.5-2.7,2.5-3.1,2.9.2-3.5,3.2-6.8,6.4-8.4,1.3-.7,2.7-1,4.1-1.6-.9,4.7-4.7,9.1-9.3,10.6ZM94.1,23.5c-3.5-.2-6.9,1-10.2-.9l-3-2h3.9l-.6-.9-2.3-.7c4.6-2.1,8.9,1.7,12.2,4.5ZM77.9,13.5h7.9c-3.6,4.3-9.6,6.3-15.1,6.4l.3-1h-1c.9-1.6,2.3-3,4-3.9.5-.2,3.7-1.6,3.9-1.6h0ZM26.2,34.1c.4-.6,1.3,1.8,2.4,1.6.4,0,1-5.1,2.6-5.5,0,.4.7,3.7,1.6,2.3.8-1.2-.6-5.1.2-6.8l-1.3.5c.4-2.1,1.3-3.8,2.9-5.1.4-.3,2.6-2.2,2.5-1-.2,3.3,1.1.3,1.8-.5s4.4-3.1,3.7-3.9l-1.3-.5c1.9-2.2,5.3-4.1,8.2-4.1s1.3.3,1.9.3c4,0,5.7-2.6,9.1-3.1,1-.2,7.3-.1,7.8.2.7.5-.2.6-.5.7-1.1.6-2.3.8-2.8,2.2.5.4,8.4-2.4,9.7-1.3.6.6-.9.8-1,1.1-.2.8,1,.6,1,1.1-2.1.5-4.1,2.1-5.5,3.7-1.4,1.6-2.3,4.8-4.8,4.8.4-1.5,5-8.1,1.8-8.5-1.5-.2-9.7,4.3-10.9,5.5-.8.8-1.2,2-2,2.9-.3-1.2.1-2.1-1.6-1.9-2,.2-10.4,6.8-10.2,9.6-.7-.2-.4-1.6-1.4-1.6-2.2,0-8.4,8.1-8.5,10.6-.6-.2-.7-1.8-1.5-1.9-2.2-.4.7,4.2.8,5,.1,1-.9.2-1.3.6l1.6,2.7c-4.6-.7-5.4-6.1-5.2-10h0ZM23.3,82.8c2.3-3.9,4.3-8,5.9-12.2.5-1.3,1.1-4.7,1.6-5.4.7-1,3.3-.7,3.5-2.3.2-1.8-1.7-.1-2.9-1.6-.7-.9-.3-3.2-1.6-2.3-.8.6-.2,3.1.7,3.7-3-.4-2.6-3.6-2.3-5.8-.6.2-1.2.6-1.6,1.1-.5.7-.4,1.5-1,1.8-.2-1.6.1-3,1-4.4.3-.3,1.2,1,1.8,1.1.4,0,1-.5,1-.8,0-.5-2.8-2.7-2.5-5.4,0-.7.7-1.7.6-2.3-.2-1-1.5.3-1.6.6-.4.7,0,1.6-.6,1.8-.5-1.9.9-5.8,3.3-5.4.2,0,3.6,1.3,3.8,1.4.5.3.7,1,1.2,1.4.4.3,1.7.6,1.7.7.2.3-.9,3.2-.9,4-.1,1.4.3,2.6.3,4-1-.1-.8-4.8-1.9-3-1.1,1.8,1.1,4.4.9,4.6-.5.6-.7-.4-.8-.6-1.2-2-2.9-4.6-1.5-6.8-4.5,0-.8,7.6.8,9,1.5,1.2,3.4.3,3.7.5,1,.8.2,4.8,3.8,6.1.5.2,1.6.1,1.6.1.3.3-.8,6.7-.6,8.2.4,3.5,8.1,12.8,10.9,15.1.7.5,3.2,1.8,3.4,2.2.2.3.9,3.5.9,3.9,0,.6-.8,1.6-1,2.4-.5,2.1,0,1.2.8,1.8.7.5.4,1.9,1.5,1.4,1-.4.2-2.8.6-3.5l5,5.8c-3.3-1.5-8.6-2-11.7-3.6-3.9-2.1-5-4.9-10.7-5.4-3-.2-5.7,1.4-7,1.3-.8,0-3.3-1.4-4.5-1.7-3.8-1.1-8.3-2.1-12.1-1.2,0-.4,0-.6.2-.9,1.1-2.8,4.5-6.7,6.2-9.6h0ZM30.7,100.7c-9.3-1-17.4,2.6-23.3,9.6l-4.3,6.8c-1.1-3.9,1.5-7.7,1.9-11.5.3-2.9-.5-5.7,1.8-8.2.4.5.4,1.9,1.4,1.3.4-.3.3-3.5.4-4.2.8-5.5,6.1-10.3,11.5-11.2-.6.9-2.7,5.6-3.4,5.7-.6,0-1-.6-1.8.3-1,1.3-.4,2.9-.7,4.1,0,.3-1,0-.7.9,3.1,1.3,6.3.7,9.5,1,2.8.3,5.8,1.7,8.6,2.2-.2,1.2-1.3,1.8-1,3.2h0ZM32.5,103.3c-.5-3.5,2-5.6,5.2-6,5-.6,13.7,2.8,12.5,9-1.1,6.1-16.7,4.3-17.8-3ZM89.6,138.1c-.3,1-2.5,1.9-3,3.1-1.1-1.1-1.8-2.7-3.1-3.7-1.4-1-3.8-1.3-4.9-2.5-1.2-1.2-3.3-6.8-4.7-8.8-1.6-2.4-6.2-8.4-8.9-9.1-.4-.1-.6,0-.5.5.3.9,5,5.4,6.2,7,.9,1.3,1.9,3,2.7,4.4.5.9,1.3,2.2,1.3,3.2-1.8-1.4-4.1-2.7-5.6-4.3-1.5-1.6-2.4-3.8-3.9-5.5-2.5-3-7.5-7.1-10.8-9.2-.8-.5-4.5-2.1-4.6-2.3-.7-1,.7-1,1.2-1.3.4-.4,1-2.1,1.3-2.2,2.7-.7,11.2,4,13.7,5.5,5.4,3.2,10.4,7,13.7,12.4,2.4,4,3.6,8.9,5.8,12.8.2.4.3.9,1,.8,0-2.8-.6-5.7-1.6-8.2-.7-1.7-1.8-3-2.4-4.7-.8-1.9-1-3.9-1.6-5.8-.4-1.2-1.8-4.7-2.4-5.6-.3-.4-.5-.7-1.1-.5-1.3.4,1.2,4.7,1.1,5.8-.8-.8-3.9-3.3-4.1-4.1-.3-1,0-2.6-.1-3.8-.2-1.6-.8-3.1-.9-4.7,3.9.8,5.2,1.9,7.3,5,2.9,4.2,9.5,17.4,9.4,22.1,0,.7-.2,2.9-.4,3.5h0ZM85.2,115.9c-1-1.4-1.7-3-2.7-4.4-1.1-1.5-3.3-2.6-3.2-4.7,2.1.5,3,2.8,4.8,3.7,1.5.7,3.2.9,4.8.8,1,5.4,1.6,10.9,1.6,16.4l-5.4-11.8h0ZM112,122.4c1.4-4.5,4.2-8.9,8.5-11.1-.6,1.4,1.1,4,.9,4.9-.2.7-4.1,4-4.9,5.1-1.1,1.5-2.1,3.8-3.1,5.4l-1.5-4.3h0ZM121.5,150.9l-2.6-3.7-1.9-8.5c3.7,2.8,3.8,8,4.5,12.2ZM122.5,118c-.2,1.2-1,2.3-1.4,3.5-1.5,4.5-2.9,9.3-3.5,14-1.2,1.4-3.7-5.8-3.5-6.8.8-1.6,6.9-11.7,8.1-11.5.6.1.3.6.2.9h0ZM206.7,92.1c.9.9,1.8,3.5,2.2,3.8.5.4,1.8.3,2.6.6,3.5,1.2,7.7,2.7,8.5,6.8-1.1-.3-1.2-1.4-2.6-1.8-6.6-1.7-15.3,7.2-19.3,11.6-5.8,6.2-10.6,13.4-17,19-2.4,2.1-10.1,7.8-12.9,8.6-2.2.6-1.9-1-3.2-2.5-2.2-2.6-5.2-4.5-6.8-7.6,8.4-.7,15.9-5.7,22.1-11.2,8.8-7.9,15-19,26.5-23.4,1.1-.9-.7-1.2-1.4-1.1-8.3.5-20,17.6-26.4,23.2-4.8,4.2-15.8,11-22.2,10.9-4.1,0-4.2-4.4-7.1-4.2-1.8.1-2.9,3.2-3.2,3.2-1.4-1.2-3.9-2.1-5.2-3.3-2.1-2-3.7-6.4-5.5-8.8-.3-1.2,1-1.8,1.7-2.6,3.6,3.9,8.9,8.4,14.5,8.7,9.9.5,24.1-15.8,31.4-22,5.3-4.5,16.6-14.5,23.4-7.8h0ZM151.6,99.4c2.4-3.7-.1-17.5-.5-22.3-.3-4.8-.4-9.5-.3-14.3,4.3-.4,2.7-.1,3.7,3.2,1.6,5.2,3.6,6.6,8.4,8.6,4,1.7,8.3,2.6,12.4,4,2.4.8,4.5,2.5,7.3,2.2-1.3,1.5-3.8,1.9-4.2,4.2,1.8.1,9.1-5.3,10-4.5.5,4,.2,8,.9,12-3.1,2.5-6.4,4.8-9.3,7.5-1.9,1.7-4.3,4.9-6.3,6.2-2.9,1.9-13.9,3.4-17.6,3.6-5.5.2-10.9-2.4-15.9-4.3,0-.2,2.6-2.9,3-3.4.8-1.1,1.4-3,2.3-3.9,1.1-1.2,3.7-1.8,4.9-3.2,1,1.6.3,3.5.2,5.1.5.1.9-.3,1.1-.7h0ZM151.7,39.9c-1-1-1.7,3.2-3.2,1.4,1.4-1.2,5-6.1,5.1-7.7,0-.4-.4-1.3-.3-1.4,0-.1,1.6-.7,2.2-1.2.6-.4,2.8-3,3.2-2.7,1.3,2.8,2,5.5,0,8.2-.3.4-3.4,3.1-2.9,1.6.4-1.2,1.5-2.2-.2-3.4-1.1-.2-.7,2-.9,2.7-.2.7-1.7,1.4-1.6,2.5.4.1,2.5.5,2.6.6.1.1-.5,2.4-.3,3.4.1.8,1.4,3.3-.5,1.8-.9-.7-.7-2.4-.8-3.4,0-.3.2-1.1-.5-.8-1.3.6-1.2,5.3.8,5.5,0,.5-.4.3-.7.2-4.1-1.1-1.9-7-2.2-7.3h0ZM157,19.9c-.5.1-1.1.2-.4-.4,3.1-2.3,7.2-2.8,10.6-1,0,.5-6.1,4-6.9,4h-5.6c.6-.9,4.5-1.7,4.8-2.4.7-1.6-2-.4-2.5-.2h0ZM169.8,13.4c-.5-.3-1.4-.1-1.9-.1,0-.5,1.5-.8,1.9-.9,2.4-.3,5.5-.1,7.8.2l-3,2.3c-3.1,1.7-5.6,1.3-8.9.6,0-.4.6-.5.9-.6.4,0,5-.4,3.3-1.6h0ZM151.3,111.6c5.8,1,11.7-.7,17.5-1.5-6.6,6.8-14.2,12.7-23.7,7.1-1.2-.7-5.6-4-6.2-5.1-.9-1.6.1-3,.4-4.6,3.8,1.4,8,3.4,12,4.1h0ZM194,44.7c-.4,1.6,1.4,3.6,1.4,5.3l-6.3,17.2c0,.5,0,.5.5.5.7,0,4.5-.8,4.7-.6,0,.6.2,1.6-.5,1.9l-13.3,1.7c0-.4-.1-1.8,0-1.9.2-.2,4.5-.5,5.3-.7.4,0,.6.2.5-.5l-7.2-17.5c-.2-1.2,2.1-4.2,1.9-5.3-.1-1.4-5.4-7.1-5-8.3.1-.4,1.1-1,1.4-.6l4.5,6.5,4.7-10.9c-.8-.2-4.9-.4-5.1-.7-.1-.2,0-1.5,0-1.9,1.4.3,11.6,1.1,11.9,1.7.2.4,0,1.4,0,1.9l-4.5-.6,4,10.9c.3.5.5.2.8-.2.6-.7,2.9-5,3.4-5s.8.8.8,1.1c0,.9-3.5,4.9-3.8,6.2h0ZM199.7,22.8c-.8,0-1.4-.7-1.9.2,1.2,2.9,2.6,5.6,2.2,8.8-.6-.1-.6-.7-.6-1.1-.5-2.8-.9-4.6-2.1-7.2-.2-.4-1.9-2.4-.7-2.2,1,.1,2.6.6,3.1,1.6h0ZM175.2,7.1c1.6-.7,5.1-.9,6.8-1l-1.6.6c-.1.8,0,1.2.8,1.3,2.6.4,7.3-3.2,9.8-.5.5.6.1,1.3.4,1.7.2.4,1.9.4,1.5,1.4-.9-.5-2.2-.1-3-.3-.2,0-.5-.9-1.1-1.3-.6-.4-4.4-1.8-4-.2.1.6,2.9,1.1,3.5,1.1.2.2-1.5.9.2,1.9,1.8,1.1,5.4.5,6.2,3.3l-1.6.5,4.5,4c-.6-.1-3.7.1-3.9,0-.3-.3.5-2.2-2.3-1.6l.6-1.3c-1,0-1.8.1-2.7-.4-1.1-.6-2.3-4-3.3-2.5-.6.9,2.7,4.7,3.4,5.5-2.7.6-9.7-2.3-9.7-5.3,0-.6.4-1.3.4-1.9-.2-1.8-6.2-2-7.7-2.1.5-.4,2.2-2.7,2.5-2.9h0ZM163.1,9.2c2.7-3.6,7.5-5.4,11.9-5.7-2.7,5-7.8,7.5-12.4,10.2-.1,0-1.3-.6-1.4-.6-.2-.2,1.6-3.4,2-3.9h0ZM159.5,8.1c-.6,4.5-3.1,9.1-6.6,11.9l.2-2.6-1.6,1.9c-.6-5.1,3.5-9.8,8-11.3h0ZM153.7,25.6c.6-.2,4.1-.9,4.2,0-2.4,3.8-6.3,5.8-10.6,6.6l2.6-2.7-1.6-.3c1.3-1.9,3.3-3,5.5-3.6h0ZM144,24c.4-3.2,3.6-6.3,4.8-9.2l.7,4.3c.2,4-2.2,6.9-3.6,10.5l-.3-1.6-1.6.6c.1-1.5-.2-3.2,0-4.7h0ZM145.5,36c1.5-1.4,3.6-2.3,5.6-2.2l-3.5,6c-1,.9-2.6,1.1-3.9,1.1l1.9-3.2-2.1,1.6c-.2-.9,1.1-2.5,1.9-3.2h0ZM136,33.8c2,1.7,3.7,3.8,4.4,6.4.2.8,1.3,5.9-.5,5-1-.5-3.9-5.4-3.9-6.4v-5h0ZM136.9,46c4.2,1.5,3.1,3.9,4.2,7.4-2.9-.9-4.1-4.6-4.2-7.4ZM141.8,37.3c-.5.5-.6-.2-.7-.4-.4-.5-1.7-2.6-1.8-3-.4-1.6.8-2.4.6-3.9l-1.3,1.6c.2-3.2,1.6-6,2.6-9l1.3,7.2c0,1.2,0,6.9-.7,7.6h0ZM147.5,45.8c-1.4-1-3.5-2.6-4.6-.5l-.3,2.5c-1.2-5.1,2.9-7.2,5-2.1h0ZM147.9,67.9c-1.2-1-1-2.8-1-4.2l1.1,1.9-.2,2.3h0ZM148.5,63.7c-.6.1-.7-.4-1.2-.5-.7-.2-1.5-.5-2.3-1.2-1.7-1.5-2.5-2.9-2.3-5.3,2,1.3,3.2,3,4.7,4.8.6.7,1.5.6,1.1,2.3h0ZM147.9,57.9c-.9-1.1-2-2.2-2.8-3.4-.4-.7-2.8-5.8-2.5-6,.1-.1.9,0,1.2-.2.6-.4,0-2.9,1.4-2.3.1,0,1.9,2.3,1.9,2.5,0,.5-1.5,1.5-1.6,2.2-.6,2.8.8,3.2,2.6,4.2.5.3,1.1,1.1,1.4,1.1.3,0,.9-.3,1-.2.1.2.7,3.9.7,4.5-2.2.5-2.1-1.1-3.2-2.4h0ZM150.1,89.8c0,1,.1,2.3-.6,3.1-.7.7-1.6.3-2.5.7-2.5,1-7.1,10.6-8.6,10.4-2.3-1.8.4-3.6,1.1-5.5-1.2-1-3.1,4.4-4.5,2.4,3-6.2,8-10.5,15.1-11.1h0ZM129.4,97.6c.8-.2,1.6.1,2.3-.2,1.2-.5,2.6-3.6,4.8-3.4.7.7-3.8,5.2-3.2,6.7-2.8-.3-4.3.4-6.6,1.6-.4.2-.6.6-.9,0-1.1-1.9,1.9-4.4,3.6-4.8h0ZM127.4,116.5c-8.9-.2-3.7-13.2,4.3-13.8,5.9-.4,6.1,5.1,3.7,9.2-1.6,2.7-4.7,4.7-7.9,4.6ZM138.2,133.8c-1.8-3.9-3.6-7.8-4.7-11.9-.4-1.7-1.8-4.8.5-5.5,2,4.9,6,10.4,10.9,12.5.1.5-.4.3-.7.4-2.3.6-3.3.4-4.9,2.5-.5.6-.5,1.6-1.1,1.9h0ZM169.5,216.1c0,.5,0,1-.6,1.1-.8-3.3-.5-6.5-.6-9.8,0-.8-.3-1.5-.4-2.2-.2-5.5,0-11.4.3-16.9l4,6.3c-1.3,7.1-1.9,14.4-2.7,21.6h0ZM176.1,165.3c.5,1.9,0,6.4-.3,8.6-.5,5.6-1.6,11.2-2.9,16.6l-10.2-13.4c-.2-2.9-2-2.6-3.7-4-1.1-.9-1.6-2.3-2.9-3.2-1.5-1-3.5-1.4-5.1-2.2-2.4-1.3-10.8-7.6-11.6-10-.2-.6-.2-1.3-.1-1.9l2.2.3c-1.4-2-3.9-5.5-1.3-7.4.2,1.2,1.4,2,2.6,1.9-.4-3.2-5.2-6.9-2.5-10.4,1.2-1.5,1.8.6,2.7,1.4.6.6,1.2.6,1.7,1,.5.4.5,1.6,2,1.2.4-.4-5.3-7-5.6-8-1.1-3.8,2.6-4.9,5.6-3.9,0,.8-1.9-.2-1.6.8.7,2.4,12.4,10.3,14.5,8.9-.8-2-3.4-2.3-4.7-3.9-.6-.8-1-2.3-1.2-2.5-.4-.4-2-.5-3-1.5-1.2-1.2-2.7-5.7-1.4-6.6.5-.3,1.3,0,1.8.6,0,0,.1.1.2.2.6.7,1.4,1.1,2.1,1.7.2.2.4.4.5.6,2.6,1.3,3.3,3.2,5.3,5.3,1.4,1.5,3.6,2.8,4.6,4.4,1.1,1.6,3,7,3.5,9.1.6,2.5.6,6,1.6,8.1.7,1.5,3.4,3.3,4.6,4.7.5.6,2.5,2.9,2.6,3.5h0ZM221.3,118.3c-6.7,9.1-7.4,21.9-10.4,32.5-5.9,4.8-13.3,8.4-17.3,15,.2.5.8,0,1.1-.2,2.6-1.5,7.5-5.7,10-7.7,2.1-1.7,4-3.6,6-5.5l-2.7,15.1c-.2.3-.3.3-.6.3-1,0-2.5-.9-3.9-.9-.6,0-2.9-.2-3.1.5-.3,1.4,6.6,1.5,7.1,3,.1.5-1.1,8.2-1.3,9.2,0,.4-.1.8-.6.8-3.1-7.2-8.2-12.8-15.4-15.9,6.6-9,11.4-19.7,15.1-30.2,1-2.8,2.2-5.9,2.6-8.9-.7-.8-3.1,4.5-3.3,4.9-3.3,7-5.2,14.5-8.8,21.5-.8,1.5-7.1,12.4-7.8,12.6-2.3.5-2.7-1.7-4.1-2.9-1.1-1-4.4-2.6-5.9-2.8-1.9-.3-3.6.8-5.1-.4-3.2-2.8-2.6-7.4-3.7-11.1-.5-1.6-1.3-3-1.8-4.5,2.3-1.4,5-2.1,7.4-3.4,5.6-3.2,12.4-9.9,16.8-14.7,4.9-5.4,14.6-19.3,21.7-20.8,5.4-1.1,10.4,5.1,12.6,9.4-1.3,1.9-3.1,3.3-4.4,5.2h0ZM306.6,38.6c-1-2.6.4-4.6.6-7.1,3.6.6,5,4.6,5.5,7.7l-1.9-1c.3,2.2,2.4,4.1,1.3,6.4-1.1-.2-.3-3.2-1.8-2.6-.8.3-.2,4.5-2.1,5.1.3-.8-.6-4.6-.3-4.8.1,0,1,0,1.3,0,.1-1.4-.6-2.6-.7-4,0-.6.8-3.8-.6-2.9l-1.3,3.1h0ZM313.1,57.7c-.7,1.3-1.6,2.4-2.5,3.6-.9,1.4-.7,3-3,2.7,0-.6.2-4.3.3-4.5,0-.1.7.3,1,.1.3-.1.9-.9,1.3-1.3,1.7-1.2,3-1.7,2.2-4.5-.2-.7-1.7-1.5-1.8-2,0-.2,1.5-2.5,1.6-2.6,1.3-.8,1,1.8,1.6,2.1.4.2,1.1,0,1.2,0,.3.2-1.6,5.5-2,6.2h0ZM315,50.8l-.6-2.5c-1.3-2.1-3.3-.2-4.6.9,1.6-5.3,5.9-3.5,5.1,1.6h0ZM314.9,40.5v-7.6c0-.2,2.3-2.9,2.7-3.4,1.2,3.6.4,8.4-2.7,10.9ZM313.3,18.2c.1-.2.1-1,.7-.5.1.1,1,3.4,1.1,3.9.7,3.1.8,7.2-1.5,9.7-1.2-4.6-2.8-8.4-.4-13.1h0ZM311.4,30.9c-3.9-1.8-7.6-5.2-9-9.3,3,0,7,2.2,7.4,5.5,0,0-1.5-1.1-1.9-.5,1.3,1.4,2.9,2.5,3.5,4.3h0ZM305.3,8.7c.4-.4,2.1,1.9,2.4,2.3,2.3,3.2,2.9,7.1,2.1,10.9l-4.2-7.2c-.7-2-.8-3.9-.3-6ZM304,16.6c0,.2,0,.3,0,.4,0,0-.8,0-.6.5l2.2,2.1c-4.6-.8-9.3-3.2-11.3-7.7,3.6.8,7.1,1.8,9.6,4.7h0ZM292.9,49.9l-8.6,19.3h6.8v1.9h-17.1v-1.9h6.8c-2.2-6.5-5.5-12.6-8.3-18.9-.5-1.3,2.2-5,2-5.9-.5-1.3-5.7-7.1-5.7-7.9s1.1-1.1,1.6-1.4l5,7.1,5.6-12.2h-5.8v-2.2h14.8v2.2h-5.8l5.1,12.2c.5.4,4.6-6.3,5.1-6.6.6-.4,1.4.3,1.9.7,0,1.2-5.4,6.5-5.8,8.1-.2,1,2.2,4.2,2.1,5.6h0ZM294,3.9c3.7,1.4,8.6,3.7,8.4,8.4-1.4-.8-3.6-1-4.8-2.1-.7-.6-4-5.7-3.5-6.3h0ZM294.6,10c-.9,0-2.9-.2-3.4.6-.8,1.2,2.2,3.5,1.8,3.9-1.8,0-2.9.8-4.8.3.1-.4,1.3-.9,1.3-1.4-.1-.9-2.2.6-3.3-.2-.7-.4-1.6-3.2-2.3-3.2s-.8.8-.8,1.1c-.2,2,2.2,3.8,3.2,5.3-2.8.2-7.5-.5-8.9-3.2-.3-.5-1.2-4.5-1.9-2.3-.4,1.3-.2,2.4.5,3.6-1.7,0-3.8.2-4.5-1.7,2.1-2.1,3-2.9-.3-4.2,6.7-6.2,17.7-5.6,23.5,1.4h0ZM271.8,2.9c-1.2,3-3.9,6.7-7.3,7.4-.9.2-.3-.9-.5-1.2l-1.3,1c.8-4,5.4-6.1,9-7.1h0ZM260.2,16.6c.2-.4,0-.8.3-1.3,1.4-2.2,7.1-4.3,9.7-4.3-2.5,4.1-7.1,6.9-11.9,7.4.3-.9,1.5-1.1,2-1.8ZM256.5,10.7c.3-.5,2.6-3.2,2.9-3.2.4,0,.5.8.5,1.1.4,3.9-2.4,7.6-4.5,10.5.4-1.3-.9-.8-1-1.1-.4-1.9,1.1-5.6,2.1-7.2h0ZM250.7,16.7c2,4.1,1.5,9,0,13.1-.1.4-.2.9-.7,1-1.7-4.7-1.8-9.7.8-14.1h0ZM246,30.1c0-.4-.2-1.1.5-.8.4.2,3.1,3.9,3.1,4.3v5.6c-3-2-3.8-5.8-3.5-9.2ZM254.4,48.9c-1.3-1.1-3.3-2.9-4.6-.9l-.6,2.5c-.8-5.1,3.5-6.9,5.1-1.6h0ZM253.7,61c-.8-1.2-1.8-2.3-2.5-3.6-.4-.8-2.2-6.1-2-6.2.2-.1.9.1,1.2,0,.6-.4.3-2.9,1.6-2.1.1,0,1.7,2.5,1.6,2.6,0,.5-1.6,1.3-1.8,2-.8,2.8.5,3.2,2.2,4.5.4.3,1,1.1,1.3,1.3.3.1.9-.2,1-.1.1.2.3,3.9.3,4.5-2.2.3-2-1.3-3-2.7h0ZM257.5,33.8c-.5.7-1.3.6-1.4.7-.2.3.3,1.8-.5,2.2,0-2.2-1.2-1.3-1.4.2-.4,2.9,2.5,5.7.8,8.8-1.2-1.1-.6-2.2-.5-3.4,0-1.3-.8-1.2-1.4-.4-.5.7-.1,1.8-1.1,1.6-.6-1.9,1.3-4.1,1.3-5.6,0-.7-.9-.3-.7-.9.3-.7,1.4-1.7,1.6-2.6-.3-.5-2.6,1.3-2.2,0,.6-2,4-5,6.1-5.3-.1,1.4.3,3.7-.5,4.8h0ZM252.8,29.6c.1-1.6,1.9-2.3,2.6-3.7h-1.3c.9-3.6,4.7-5.6,8-5.9-2,4.2-5.6,7-9.3,9.6h0ZM248.6,96.5c-.3.7-1.8,4.6-2,4.8-.8.6-3.4,0-4.4.7,0-3.7,3.2-5.1,6.4-5.5ZM234.8,108.9c-.6.3-1.4,0-2,.2-.5.1-2.1,1.9-2.5,1.5.9-3.4,2.9-6.1,6.8-5.8-.6.6-1.8,3.8-2.2,4ZM225.8,179.5c2.1,0,7.6,3.5,7.4,5.6,0,.8-.7,1-1.3,1.3-1.8,1-4.6,1.7-6.4,2.7v-8.2c0-.2.5-.9.3-1.5h0ZM231.9,198c-1.1-1-6.2-4.1-6.4-5.2-.4-2.1,7.1-4.2,8.6-4.9l.3,12.9c-.9-.9-1.6-1.9-2.6-2.7ZM236.5,123.5c-3.7,19.5-2.5,40.1-2.4,59.9-.5-.1-.4-1.1-.7-1.7-1.9-3.6-12.9-5.9-13.2-8.4,3.2-17.5,4.9-36.9,14.1-52.5.3-.5,1.3-2.4,1.8-2.4,2.3.3.5,3.9.3,5.1ZM246.4,117c-3.3,1.5-9.3,1.5-10.2-2.8-1.1-5,3.3-9.9,8.2-10.5,10-1.4,8.4,10.4,2.1,13.3ZM251.5,103l-3.2-1c1.7-5,5.7-8.4,10.9-9.3.2.7-.5,2.5-1.1,2.5-.1,0-.4-.4-.6-.4-1.3-.1-6,6.5-6,8.2h0ZM253.9,102c1.3-2.5,3.3-3.5,5.5-5.1,0,1.5.2,5.8,1.5,1.9,2.4-7-.2-15.7.5-22.6.2-1.9,2.2-.5,3.3.2,2.7,1.8,2.2,4.1,3.7,6.3.4.5.4.9,1.2.7l-1.4-5.5c2.3.8,4.8,2.7,7.3,2.9,1.7.1,3.1-.6,4.8-.6s3.3.9,5.5.7c4.7-.5,11.4-4,15.6-6.1.2,1.2-.3,2.3-.3,3.4-.2,5.1-.4,12,0,17.1,0,.4.8,6.2,1.9,5l.5-3.5c3.6,2.7,5,3.2,3.9,8.1-1.1,4.6-3.4,4.9-7.6,5.9-14.5,3.3-31.4,1.5-45.2-4-2.5-1-1.7-2.5-.6-4.5h0ZM302.1,131.4c-6.2,3.4-12,2.2-18.4.1l7-2.5c.4-.2,2.9-1.8,2.4-2.3-4.2,1.5-9,3.1-13.5,2.4-5.6-.9-21.2-11.2-25.4-15.5-1.8-1.8.3-3.1,0-5.3,14.2,5.7,29.3,7.4,44.4,4.8-3.1,2.5-7.2,4.7-11,5.9-1.4.4-5.3,1.5-6.5,1.5s-5.1-.2-5.3,0c0,0,0,1,0,1.3,10.5,1.7,20-3.6,28.3-9.3,1,1.2-6,10.5-7.4,11.8-.8,1.9,2.1-.6,2.4-.8,5.2-4.5,9.5-12.8,10.7-19.6.5-3,1.5-9-3.1-8.8l.2,1.3c-1-1.1-2.9-2.2-3.4-3.7-.2-.7.4-.5.8-.5,5-.1,12.2,2.3,13.6,7.6,2.9,10.7-6.4,26.4-15.8,31.5h0ZM367.4,117.6c-.1,1.9-2.6,6.7-3.3,9-3.4,10.9-4.3,23-4.4,34.4l-5.5-25.9c2.3-3.4,3.4-7.9,5.1-11.7,1.6-3.5,3.8-7.9,7.1-10.1-.3,1.5,1,2.9,1,4.3h0ZM543.1,113.7c.6.5,2.6,3.1,3.2,3.9,2.8,3.8,4.8,8.4,5.8,13l-13.2-15.1c1.1.1,2.3-.3,3.1-1,.5-.4.3-1.4,1.1-.8ZM529.3,45.6c-.1.8,2.2,4.2,2.1,5.3-2.8,6.2-6,12.2-8.3,18.6h6.4v1.9l-17.1.3c0-.4-.1-1.8,0-1.9.4-.4,5.6-.2,6.6-.3.5,0,.6.2.5-.5l-8.6-18.1c-.6-1.5,2.3-4.6,2.1-5.6-.2-1.1-6-7.5-6-8.1.4-.5,1.3-1.4,1.9-1,.8.5,3.4,5,4.5,6.1.3.3.4.6,1,.5l5.5-11.6-6.1-.3v-1.9c1.8.1,14.3.1,14.8.6,0,0,0,1.5,0,1.9l-5.8-.3,5.2,11.9c.6.1.8-.3,1.1-.6.8-.9,3.7-5.5,4.4-5.4.1,0,1.2.7,1.2.8.2,1.2-5.2,6.4-5.4,7.8h0ZM500.5,80.8c.3.5,4.1,3.6,3.7,3.9-5.5-.2-10.8.2-16.1,1.6,1.7-7.1,1.1-14.7.3-21.9l1.9-.6c.6,3.6,2,7.1,4.7,9.7,3.6,3.4,14.6,7.6,19.5,8.8,2.5.7,4.7,1.2,7.4.5l-1,1.8c2.2,1,2.5-2.4,4.8-1.8l-.7,9c-2.9-1.6-5.9-3.3-9-4.3-2.7-.9-7-1.3-9.2-2.4-1.8-.9-4.2-5-6-5.2-.8-.1-.6.5-.3,1h0ZM484.2,42.3c0-.5,2.8-4.9,3.1-6.3.3-1.4-.4-3.1-.4-3.2.2-.5,1.9-1.8,2.4-2.4,1-1.3,1.5-2.9,2.8-4,.8,1.8-.5,2.7-1.1,4.2,2.3-.3,2.7.2,2.9,2.4.2,2.2-.8,3.6-2.1,5.3-.7.1-.4-.3-.5-.8,0-1,.2-2.3-1.3-2.4.5,1.3-1.7,5.2-.7,6,.4.2,1.2,0,1.3.1.1.1-.5,2.9-.3,4,.1.7,1,1.7,1,1.8-1.3,1-1.9-2.8-2-3.3,0-.3-.1-1.2-.7-.9-1.1.5-.3,3.4-.1,4.3.1.4.6.6-.2.6-1.6-1.8-2.1-4.8-1.5-7.1-.3-.2-2.5,3.4-2.6,1.8h0ZM489.2,20c-.4,0-2,1.6-2.7,1.1,2.7-3,6.7-4.1,10.6-3.1-2.5,4.2-7.7,5.4-12.2,5.8l2-1.3c.4-.4,2.7-1.1,2.8-1.2.2-.3-.1-1.2-.5-1.3h0ZM539.9,23.7c0-.2,1.8-2.5,2.2-2.7-.1,1.5.2,3.2,0,4.7,0,.6-.7,2.2-1,2.9-.2.5-.8,1.6-1.2,1.8v-6.6h0ZM537,10c2.6,3,3.3,7.6,1.9,11.3l-1.4-4.2c-.7-2.4-1.1-4.6-.5-7.1ZM538,30.2l-.9-2.8-3-6.2c4,1.3,4.1,5.5,3.9,9h0ZM533.8,16.9c.3.4,2.7,2.3,2.2,2.7-3.7-1.2-6.5-4.4-8.4-7.7,1.5-.5,7.5,3,6.7,4.4,0,0-.8,0-.5.6ZM534.1,12.2c-4-2-7.2-4.2-8.7-8.7,4,.7,8.7,4.4,8.7,8.7h0ZM505.8,6c3.2-1.7,11.4-1.8,14.8-.7,1.7.5,4.1,2,5.1,3.4l-1.9.8c1.9.7,1,1,1.4,2.4.5,1.5,3,3.1-.2,3.2l.3-1.3c-1-.1-2.3.2-3.3,0-1.3-.4-2-3.4-3.8-3.1-.6.6,3.1,6.8,5.2,5.8,0,.4-.3.4-.6.5-3.3.8-8.5-.5-10.5-3.4-.6-.9-.6-2.3-1.4-2.4-2-.4-.6,2.8,0,3.7-.5.3-3.5-.5-4-.9-.9-.7.7-1.8.8-2.5.4-2.5-2.8-2.5-4.5-2.4.8-.8,1.7-2.5,2.6-3h0ZM493.2,10.1c1.5-4.3,7.7-7.1,12-7.5.7.6-3.6,4.8-4.2,5.3-.9.7-6.3,4.1-7,4.2-1.1.2-1-1.3-.7-2h0ZM496.8,12.6c.7.1,2.1-1.3,2.4-1.3h6c-2.6,3.8-6.9,4.8-11.3,4-.3,0-1,0-1-.5,1.7.1,4.9.1,3.9-2.2h0ZM483.9,15.6c.3-3.3,5.3-8.1,8.4-9.2-1.4,5.4-3.7,9.8-7.6,13.8-.5,0-.9-4-.8-4.7h0ZM490,25.4c.3.3-2.4,3.8-2.7,4.2-.5.6-6.6,6.5-6.9,6.1,0-2,2.4-2.6,2.2-4.5l-1.6.6c.9-4.1,5.1-6.2,9-6.4ZM477.5,47c-2-.7-4.2-4.7-4.5-6.6-.2-1.5.3-3.2-.4-4.6.3-.4,1.8,1.3,2.1,1.6,2.7,3,3.8,5.6,2.7,9.6ZM478.1,36.5c0,.5,0,.8-.5,1.1-3.1-3.9-3.9-9.6-2.4-14.3.1-.4.1-1,.6-.5.3.3,2.5,7.1,2.5,7.9.1,1.4-.1,4.3-.3,5.8h0ZM482.3,13.5c-.9,2.2,0,4.4,0,6.6,0,2.9-1.6,5.1-1.9,7.9-3.8-4.4-1-10.4,1.9-14.5h0ZM480,40.2c.8-2.5,2.8-4.2,5.1-5.1-.9,2.7-1.4,7.2-4.8,7.4l1-2.1-1.3-.2h0ZM485.4,47.7c-1.3-1.1-3.3-2.9-4.6-.9l-.6,2.5c-.8-5.1,3.5-6.9,5.1-1.6h0ZM484.7,59.9c-.8-1.2-1.8-2.3-2.5-3.6-.4-.8-2.2-6.1-2-6.2.2-.1.9.1,1.2,0,.6-.4.3-2.9,1.6-2.1.1,0,1.7,2.5,1.6,2.6,0,.5-1.6,1.3-1.8,2-.8,2.8.5,3.2,2.2,4.5.4.3,1,1.1,1.3,1.3.3.1.9-.2,1-.1.1.2.3,3.9.3,4.5-2.2.3-2-1.3-3-2.7h0ZM410.3,16.4c2.4-.1,5.6-.3,7.2,1.6-.3,0-1.9.2-1.9.3-.9,1.1,1.6,1.1,2.3,1.4,2.7.9,7.9,2.7,9.8,4.7.2.3,1.4,1.7,1.1,1.9-1.1-.7-2.5-2.5-3.9-1.1,1.6,1.2,3.2,2.7,4.2,4.5,1,1.8,1.5,6.5,2.6,1.5,1.4.9,3.1,2.9,3.2,4.7,0,1-.6,0-1,.2,1,3.3.5,6,0,9.3,1.5.2,1.2-.2,1.8-1.3,1.5,2.4,1.4,5.5.4,8.1-.5,1.4-2.7,3.7-2.8,4.3-.3,1.9,2,5.3-.3,6.9.1-1.8.2-4-1.9-4.5.3,2,.5,3.5-.6,5.4-.4.7-1.5,1.4-1.6,1.9-.5,1.8.7,4.1-1,5.7-.4.4-2.2,1.4-1.9.3.2-1,1-1.7,1-2.9,0-.4-.6-2.3-.7-2.4-1.5-.9-1.3,1.3-1.6,2.3-.5,1.3-1,1.7-2.5,1.5,0-.7.6-1.1.6-1.8,0-.8-.5-1.6-.3-2.5,0-.5.7-.9.6-1.3,0-.3-.8-.8-1.1-1.2-1.2-2.1.6-2.8.5-3.7-.2-1.6-3.1,1.9-2.6,2.7-1.8-1.5.8-4.4,1.6-6,.2-.4.3-1.4.4-1.4.2-.2,2.2.3,2.5.5.5.3.5,1.1,1,1.6,3.2,3,8.6-3.8,7.7-5h-1c0-1.3,3.1-5.9,2.6-6.4-.1-.1-1.4.5-1.6.3-.1-.1-.8-3.1-1.1-3.9-.3-.7-2.5-5.2-2.7-5.3-.5-.3-1.1-.2-1.6,0-.6.3-.4,1.1-1,1.1.8-2.8-5-11.6-7.3-11.6-1.2,0-.4,1.4-1.1,1.6-.2-2.6-1.5-5.3-3.6-6.9-1-.8-2.4-1.2-3.2-1.9-.7-.7-1-2-1.7-2.4-1.6-.9-2-.2-2.1,1.3-2.4-2.1,1-2.2,2.7-2.3h0ZM408.8,47.2c.5,2.1-.2,5.2-2.8,5.2.6-1.5,1.6-4.7-.6-5.1,0,1.4.2,3.9-1.6,4.2,1.4-1.7-1-4.8-.9-5.9.2-1.4,2.8,0,2.8-1,0-.4-2.8-1.7-3.4-2.4-.7-.9-.9-2.1-.8-3.2-2.8.4.2,4.3,0,4.5-3-1.2-2.4-4.8-1.9-7.4-1.3.3-1.3,1.3-1.9,2.2-.2.3,0,.6-.7.4-.1-1,0-5.9,1.4-5.8.6,0,3.6,2.5,4.7,3,.7.3,4,1,4.1,1.2.2.3,0,1,0,1.4.6,2.1,3.8,4.1,5.1,5.8-2.5,3.2-2.3.8-4.8-.5-.3,1.3,1,2.4,1.2,3.4h0ZM397.6,25.1l6.1,1.3c-5,.9-10.9,1.4-14.5-2.9,3.9-.9,7.5-.9,11.3.3-.3.7-1.7.1-2.4.4-.4.1-.6.5-.5.9h0ZM418.2,42.3c.4.5,4.5,3.4,4.8,3.1.4-3.7-2.7-5.8-3.5-9.2-.5-2.3,0-4.2,0-6.5,3.6,3.1,5.3,7.3,4.8,12.1-.1,1.4-1,2.8-.6,4.3-2.8-1.3-6.5-1.8-9.2-3.2-1.8-.9-4.1-3.2-5.2-4.7,2.5-.8,9.8.9,10.6,3.6,0,.2,0,.5-.1.5l-1.8-.6c-.1.5.1.5.3.8h0ZM424.4,51.6l3.2,2.4c-4.9.8-5.4-1.6-5.1-5.8,1.5.7,2.9,1.8,3.9,3.2-.2.1-2.3-.8-1.9.2h0ZM427.5,40.9c0-.2,0-1,.6-.7.7.3,2.7,4.9,2.7,5.6v4.7c-.8-.3-.4-2.1-1.6-1.9l-.3,3.2c-1.7-3.6-2.7-6.9-1.4-10.9h0ZM419.5,51.3l-.6-2.5c-1.3-2.1-3.3-.2-4.6.9,1.6-5.3,5.9-3.5,5.1,1.6h0ZM415.5,33.1c-1-1.8-3.2-3.1-4.3-4.7-1.4-2.2-2-5.9-2-8.5l3.4,2.6c2.5,2.6,3.9,5.4,4,9l-1.3-.3.2,1.9h0ZM412.1,32.7c.9.9.6,1-.6,1.1l1.6,1.3c-5,.8-10.6-1.1-14.2-4.8,4.1-1.4,9.9-.7,13.2,2.4ZM412.4,60c0-.1.7.3,1,.1.3-.1.9-.9,1.3-1.3,1.7-1.2,3-1.7,2.2-4.5-.2-.7-1.7-1.5-1.8-2,0-.2,1.5-2.5,1.6-2.6,1.3-.8,1,1.8,1.6,2.1.4.2,1.1,0,1.2,0,.3.2-1.6,5.5-2,6.2-.7,1.3-1.6,2.4-2.5,3.6-.9,1.4-.7,3-3,2.7,0-.6.2-4.3.3-4.5h0ZM407,25.7c-5-3-9.1-7.3-10.3-13.2,6.2,1.4,10.5,6.8,10.3,13.2ZM386.1,14.2c4.2,0,8.8,1.2,10.9,5.1h-1.3l1,1.3c-2.6.2-5.2-.6-7.2-2.3-.5-.4-3.9-3.7-3.4-4.2h0ZM381.9,24.4c-.1-.1.2-1.3-.5-.9-.9.4-2.1,2.4-3.7,2.2-.2-.8,1.9-3.2,1.9-3.4,0-.8-1.4-.4-1.9,0-.9.7-.8,1.8-1.6,2.4-.6-3.7,3.2-5.5,6.1-6.6,3.8-1.4,4-.3,6.4,2.6-1.1.5-5.5,4.8-6.7,3.7h0ZM387,85.7c3.1-1.6,6.6-1.9,9.8-3.4,1.8-.9,3-2.1,4.6-3.1,1.8-1.1,4-1.7,5.6-3.1,2.7-2.4,2.8-6.5,3.2-9.8,3.2,1.1,5.2-.7,6.9-3.2.7.5.8,1.5,1.2,2.1.8,1,2,1.1,2.1,3.2,0,1.5-2.7.6-1.1,3,1.3,1.9,4,.9,4.5,1.6.4.5.4,3.4.5,4.3.2,1.1.6,2.5.9,3.6.3,1,1.8,4.5,1.8,4.9,0,.9-3.1,2.9-3.9,3.7-4.1,3.8-7.7,8.7-11.9,12.2-2.8,2.4-4.4,2.8-7.8,3.8-6.1,1.8-12.6,3.4-18.7,1,1.3-2.1,4.2-6.7,6.6-7.4.6-.2.4.1.5.5.1,1.2-.2,2.5.3,3.7,1.9-.4,2-3.2,1.6-4.8,1.7,1,1.8,3.4,1.9,5.1,2.4,0,1.7-3.2,1-4.7-.8-1.8-2.1-2-3.1-3.3-1.2-1.7-1.6-4.4-1.8-6.4.9-.2,2.1.8,2.2-.5-1.8-2-4.8-1.7-7.1-2.9h0ZM405,107.1c-5.1,5.9-14.9,14.7-21.9,6.3-2-2.4-1.1-2.8-.3-5.6,6.9,3.7,15.1,1.6,22.2-.6h0ZM389.8,94.3c1.1-.2,1.9,1.9,1.5,2.5-.4.9-1.7.5-2.6,1-1.3.7-3.6,4.7-5,6-.4.4-.7,1-1.3.7-.1,0-1.5-1.8-1.5-2-.1-1.5,7.1-7.9,8.8-8.2ZM377,106.2c1.3,2-3.8,8.1-5.5,6.9-1.8-1.3,2.5-8.4,5.5-6.9ZM371.2,107.8c-.8,1.9-3.4,5.6-.8,7,4,2.3,10.2-6.1,8.2-9.5-.1-.2-.6-.6-.9-.7-.7-.2-2,.3-2.3-.4,6.7-2.5,5.9,4.2,3,8-6,8-14.3,3.6-7.2-4.5h0ZM370,149.4c-.9-8.1-1-18.9,1.1-26.8.4-1.6.6-4,2.7-4.2-.3,4.7.4,9,1.6,13.5-3.3.7-6.3,4.1-3.4,7.1,1.9,1.9,2.8,1,4.1,4.3,1.4,3.5,2.2,11.9.3,15.2-.9,1.6-3,2.3-4.2,3.6-.5-4.3-1.7-8.5-2.2-12.8h0ZM380.3,137.2c5,1,11.6,1.1,16.6-.1,1.6-.4,3.8-.8,3.3-2.9,1.4-.1,3.6,1.7,2,2.9-1.9.5-3.1,2.3-4.9,2.8-4.5,1.4-18,1.1-22.2-1.1-3.4-1.9-2.1-4.3,1.2-4.9-2.3,2.8,1.8,3,3.9,3.4h0ZM377.2,133.5c4.8-1.4,11.5-1.5,16.4-1,.7,0,5.4.8,5.6,1,.5.5-.2.6-.4.7-2.9,2.3-16.2,1.7-19.9.7-.6-.1-3.3-1-1.8-1.5h0ZM400.6,147.3c-.2,1.2.2,2.8,0,3.7,0,.3-.7.4-.9.7-.3.5-1.3,3.5-2.3,2.7-.8-.7,0-5.4.4-6.5,1.5-5,5.7-9.2,11.1-9.2l.4,3.2c-3.2-.3-7.9,2-8.6,5.4h0ZM413.7,149.3c-1-.5-2.6-.5-3.5-1.1-.7-.4-1.1-1.7-1.9-2.2-.8-.6-1.8-.6-2.3-1.4,3.6-1.3,7.5,1.1,7.7,4.8h0ZM378,141.9c6.6,1.2,13,1.3,19.6,0-1.8,4.5-2.7,9.1-1.8,13.9.3,1.7,1,3.1,1.4,4.8-2.7,1.8-17.7,1.9-19-.3,2.6-5.9,2-12.4-.1-18.3h0ZM374.6,200.4c-6.4-12.2-12.1-30.6,2.6-39.1,4.7,3,13.8,4,18.7,1.6,1.3-.7,2.2-2.4,3.6-1.2,1.4,1.2-.6,3-.6,4.8-.1,2.3,1.1,2.7,1.3,3.9.1,1.1-.7,2.2-.5,3.7.6,4.1,5.1,4.7,5.8,6.4.8,2-.7,7.4-1.4,9.6-1,3.4-2.4,7.1-3.9,10.3-1,2.2-2.9,6.9-5.1,7.8-2.5,1-14,1.1-16.2-.4-.7-.5-3.8-6-4.4-7.2ZM408.4,181.8c.3.4.9.7,1.1,1.2.7,2.4-2.6,10.5-4.8,12.3l3.7-13.5h0ZM396.8,211.7c.7.8,1.9.5,2.4,1.3-7,2-15.5,2.7-22.2-.5l2.4-3.4c3.3,1.2,6.7,1.8,10.2,1.5,1.1,0,6.1-1.5,6.3-1.2,0,0,.2,1.6.8,2.2h0ZM402.5,214.4c1.3,1.6.3,2.5-1.2,3.3-5.3,2.9-18.9,2.5-24.6.6-3-1-4.8-2.2-2-5,.5.4.8.9,1.3,1.2,5,3,17.9,2.8,23.3.5,1.4-.6,2-2.2,3.2-.6h0ZM410.5,196c-2.4,4.1-6.6,6.5-9.3,10-1.2,1.5-1.1,4-2.9,4-.8-2.4,1.4-5.4,2.8-7.4,3-4.4,6.8-6.7,8.8-12.1.5-1.4,1.3-5.6,1.8-6.3.5-.6,2.8.1,2.7,1.4,0,1.9-2.8,8.4-3.9,10.3h0ZM433.2,170.2c.7.7.6,4.7.5,6-.3,6.9-2.1,13.8-2.6,20.7l-7.1-9.8,2.2-.2c.7-.6-3.2-2.7-3.8-2.8-1.1-.2-2.3,0-3.4-.1-.8-.1-5.8-1-6-1.2-.2-.2.4-1.1.3-1.4-.1-.4-3-.9-3.9-1.2-2.5-.9-8-4-7.7-7.2,0-.4.1-1,.5-1.1.6-.1,4.2,2.4,5.3,2.7,2.6.8,2.3-.3.6-1.6-2-1.5-7.1-3.1-7.3-5.9,0-.5.4-2.3.9-2.5,1-.6,5.7,2.4,7.1,2.9.8.3,2.9,1.3,2.9,0,0-2.4-10.3-3.5-10.3-8s.6-2.4,1.5-2.7c2.4-.7,8.9,5,12,3.5.1-.5-.2-.7-.5-1-2.1-2.3-10.6-3.1-11.1-6-.3-1.6.7-3.8,2.4-4,2-.3,9.2,3.1,12,3.8,1.7.4,3.4.9,5.2.7,1.3-1.1-6.3-3.2-6.6-3.5-.9-1-.2-3.2-.6-4.2-.2-.3-2.5-1.6-3.2-2.6-.4-.5-1.1-1.6-1.3-2.2-.3-1.2-.5-5.3,1.5-3.7,1,.8,2,2.1,3.1,3.1.9.8,2.2,1.1,2.9,1.9,1.2,1.3,2,4.7,3.2,6.4,1.1,1.5,2.9,2.3,3.9,3.8,1.9,2.9,5.1,16,6.3,17,.2.2.7.1,1,.4h0ZM439.4,164.7c-1-.2-2-1.3-3.1-1.2l8.7-18.3c-.6-.1-.9.4-1.3.8-1.1,1.2-2.5,3.6-3.4,5-2.4,3.7-4.4,7.7-6,11.8-.8.2-2,.2-2.4-.6-1.1-2.2,1.3-12.6,1.9-15.5,1.6-7.5,3.8-14.9,6.3-22.2-3.1,3-4.6,8.2-5.9,12.3-1.9,6.4-3.2,13-4.1,19.5-1.3-1.1-1.6-3.5-2.6-5-.8-1.1-2.3-1.9-3.2-2.9-2.2-2.4-2.1-6-4.8-8-.9-.6-2-.9-2.9-1.6-1.2-1-1.4-2.7-3-3.5-3-1.5-3.2,1.2-5,1.6-1.2.3-2.7,0-4,0,.6-4-2.8-4.9-6-5.8-6.6-1.7-14.5-1.2-21.2,0-.7-.1-1.7-7.5-1.8-8.5,0-1.4-.4-5.3,1.1-6,.6-.2.5.4.6.6,2.5,5.7,5.5,11.8,12.7,11.6.3-2-1.1-1.4-2.4-1.9-4-1.5-7.6-6.5-8.4-10.6-.2-1.1-.1-3.8,1.5-2.8.5.3,2,2.5,2.9,3.2,6.2,4.7,11.3,1.7,16.5-2.4,8.9-6.9,16.1-16.3,24.5-23.8,1.8-1.6,4.8-3.3,6.3-5,1-1.1.8-1.9-.8-1.8-1.2.1-1.6,1-1.8-1,3.5-.1,8.6.9,10.6,4.1,1.9,3.1-.3,2.4-2.4,3.3-5.1,2.1-11.1,8.4-14.9,12.4-7.4,8-13.7,16.9-20.6,25.3,2-.5,3.9-2.7,5.3-4.2,7.5-7.8,22.7-31.2,32.9-32.7,4.2-.6,9.4,1.6,10.4,6-2,.3-3.8.4-5.8.8-10.2,2.2-18.7,12.5-24.6,20.5-3.3,4.5-6.7,9.4-8.9,14.4l2.9-2.7c6.5-8.3,19.6-29.3,30.8-30.7,5.8-.7,11.2,1.1,13,7-.2.1-1.8-.7-1.6.5,0,.5,3.7,4.5,4.4,5.6.8,1.2,3.5,6.6,3.5,7.7,0,.5-1.9,4.8-2.3,6-2.3,8.4,1.1,13.7.7,21.3-.2,5.2-3.2,11.1-4,16.3-.4.5-.4.2-.7,0-.7-.3-1.2-1-2.2-1.4-2.5-.9-6-.8-8.6-.1-2.4.6-4.9,2.8-7.2,2.4h0ZM449.6,171.2c-2.7-1.5-5.8-1.4-7.2-4.7,4.5-2.9,10.2-3.2,15.1-1.1l-2.2,10.3c-1.9-1.5-3.6-3.3-5.7-4.4h0ZM467.7,205.3l-8,3.8,2.1-14.8c2.6,1.4,4.8,3.4,6.2,6,.6,1.1.5,2.4,1.6,3.2l-2,1.8h0ZM474,164c-1.4,11.5-1.4,23.1-2.7,34.6l-.9,3.2c-.1-1-.4-2.2-1-3.1-.9-1.4-5.4-5.8-7-6.5-1.3-.6-6.1-1.8-6.5-3.2-.2-.8-.1-3.1,0-4.1.5-4.9,2.2-11.7,3.3-16.7,4.7-22.2,9.5-42.8,27.4-58.2.3-.3,2.2-1.8,2.4-1.6-8.9,17-12.8,36.6-15.1,55.5h0ZM505.4,95.2c1.8.7,5.6.4,7.9.8,1.7.3,12.4,4,13,5.1.3.5.1,1.3.3,2,.1.5,1,2,.8,2.2-11.7-9.2-24.9-9.3-37.1-.9-13,9-20.9,23.2-26.5,37.6-.4-4.8-1.3-9.4-.3-14.2,1-4.9,3.5-8.6,5.4-13,2.9-6.8,1.8-8.3,8.2-13.4,7.3-5.8,13.1-7.5,21.9-9.6.5-.1.9.3.8-.6-1.6.1-3.4-.2-5,0-.8,0-2.7.6-3.6.9-5.1,1.3-10.2,4.2-14.5,7.2.6-6.3,7.2-9.2,12.5-10.8,13.8-4,27.9,0,39.4,7.9l-2,2.6c-6.2-3-13.2-5.5-20.2-4.8-1,0-2.4.7-.9,1.2h0ZM534.4,99.6c.5.3,4,3.1,3.6,3.7-3.4-4-10.4-5.9-6,1.9,1.1,1.9,6.7,8.6,8.1,4.2.4-1.3-.1-1.8-.4-2.9,0-.3-.4-1,.2-1,5.4,13.1-5.5,6.8-9.5.6-3-4.7-2.8-10.7,4-6.5h0ZM538.3,108.7c-1.9.3-6.7-7.1-6.1-7.7,3.5.4,6.5,4.2,6.1,7.7ZM557.5,213.4c-1.5.8-12.8,2.5-13.4,1.9,0-1.8.2-3.7.7-5.4,4.5-.6,9.2.2,13.5-1.6.4,1.5.9,4.4-.7,5.2ZM562.7,158.4c-.1,3.4-2.7,12.2-3.7,16,0,.4,0,1-.5,1-2.1-13.1-5.7-26.9-12.1-38.6-.6-1.1-1.3-2.5-2-3.5-.4-.5-1-1.7-1.7-1.6,1.5,4.4,3.7,8.5,5.4,12.8,4.8,12.5,7.9,27.5,10.5,40.6,1.1,5.4,4.2,16.5-.6,20.6-.3.2-3.3,1.9-3.5,1.9h-5.3c2.9-4,5.6-8.6,5.5-13.8-.3,0-.9,0-1,0-.2.1-.8,3.7-1.1,4.5-.8,2.1-5,9-7.1,9.6-.9.3-.2-1.3-.2-1.8.2-3.8-1.9-6.1-1.9-8.7,0-1.4.9-3.1,1-4.5,0-1.7-.6-3.2-.3-5.1.3-1.4,2-3.8,2.7-5.4,1.5-3.8,4.3-16.5,3-20-.2-.4-.5-.8-.9-.9-.2,4.6-1,9.1-2,13.6-.5,2.2-2.1,8.3-3.2,10-.1.2-.4.6-.6.5-.5-2-2.1-3.9-2.7-5.9-1.6-5.6,1.3-11.7,2.3-17.2,3.2-19.6-1.3-32.1-9.8-49.2-.2-.3-.7-.9-.2-1.1,3.1,1.7,5.4,4.5,7.7,7.1,6.9,7.6,22.7,28.9,22.3,39h0Z"/>
</svg>