<?xml version="1.0" encoding="UTF-8"?>
<svg id="_图层_1" xmlns="http://www.w3.org/2000/svg" version="1.1" viewBox="0 0 527.8 154.1">
  <!-- Generator: Adobe Illustrator 29.1.0, SVG Export Plug-In . SVG Version: 2.1.0 Build 142)  -->
  <defs>
    <style>
      .st0 {
        fill: #0655bc;
      }
    </style>
  </defs>
  <g id="PPcHVI">
    <path class="st0" d="M527.7,154.1h-155.8C248,105.6,123.9,57.5.5,7.9l-.5-.8h261.3c.3,0,4-1.9,4.9-2.2,19.4-7,39.6-6.8,58.3,2.2h190.9c14.4.9,12.2,12.9,12.2,23.6.2,33.2,0,66.9,0,100.1,0,7.8,0,15.5,0,23.3h0ZM436.9,67.2v-4.9c0-2-2.8-6.1-4.4-7.5-10.2-8.8-27.5-2.6-37.2,4.2-.2,0-.2-.3-.1-.4.3-.6,4.4-4,5.2-4.6,9.6-7.4,22.6-12.8,34.8-9.7,1.1.3,5.4,2.2,5.8,2.1,1.2-.1,1.6-1.9,1.5-2.9,0-.4-.8-1.9-.1-1.9h6.8c.8,0,3.9,1.5,4.1,1.4,2-6.7-1.8-11-8-12.8-.4-.1-4.4-.5-3.6-1.3,3.2-.7,6.5-2.8,7.8-5.9.3-.7.3-1.6.6-2.2.6-1.5,2.2-2.6,3.8-2.8-2.9-4.7-9-5.9-14.2-5-.8.1-3.1,1.1-3.5,1.1-.8,0-1.4-1.5-2-1.6-2.9-.6-7.9,4.3-9.5,6.4-1.1,1.4-1.9,3.3-2.9,4.5-.3.3-.5.7-1,.6,1.3-3.9.4-8.6-2.1-11.8-1.8-2.3-2.3-1.8-4.5,0-2.7,2.2-4.3,5.3-4.4,8.7-.4.4-3.1-2.9-4.5.2-1.2,2.8.2,8,0,11.5-.9,11.1-15,25.9-21.4,35l-8,12.5c3.2-12.9,13.5-22.5,18-34.8,6.7-18.3-2.8-35.1-23.4-31-4.9,1-10.2,4.3-14.9,1.6-.6,6.5,6.6,5.5,10.8,6.3,4.9,1,8.2,4.1,10.2,8.6,3.5-1.7,8.2-6.6,12.5-4.5,3.8,1.9.5,7.3-1.2,9.6-4.3,5.7-11.4,9.5-12.5,17.2,0,0-.6-.4-.6-.4v-4.2c0-.3-.9-2.9-1.1-3.4-1.3-3.3-3.9-7.2-7.4-8.3-1.7,6.2-5.4,11.2-5.6,17.9,0,2,.7,4.4.6,5.9,0,.4-.2.8-.6.4s-1.4-3.1-1.5-3.7c-.6-1.9-.8-4-1.3-6-8.3-31.3-40.3-49.5-71.8-46.4-17.2,1.7-46,13.9-52.7,31-1.4,3.6-2,7.4-1.3,11.3.3.3,4.9-3.4,5.2-3.9l.2,3.7c.3,2.6,2.3,5.5,5.2,5.6,2.6,0,1.1-1.1,1-2.4,0-.6,0-1.9,0-2.6.2-2.1,1.4-.1,2.2.4,2.2,1.4,4.5,1.2,5.7-1.2-5.5-2.5-1.9-10,.5-13.7,10.2-15.9,38.9-25.4,56.9-21.1.8.2,3.5.6,3.2,1.6-12.3-1.7-24.5,0-35.1,6.6-24.2,14.9-35,49.2-11,69.6.5.5,3.2,1.9,1.8,2.4-.6.2-1.8-.3-2.1.3,3.8,2,7.4,4.2,11.6,5.5,18.6,5.6,41-3.6,43.7-24.3,1.6-12.2-7.1-28.1-20.7-27.8-2.9,0-10.4,2.4-9.4,6.2,8.1-3.5,17.4,1.6,20.7,9.3,6.5,14.8-5.6,28.6-20.1,30.6-14.4,2.1-29.6-6.6-34.3-20.5-4-11.6-2-27.9,7.2-36.6-2.3,4.9-4.4,10-5.3,15.5-3.4,21.3,9.7,39.5,32.2,37.9,11.3-.8,20.5-9.8,17.6-21.6-2-8.5-12.9-16.6-20.8-10-4.9,4.1-4.4,11.9,1.4,14.9,8.8,4.5,14.9-3.7,10.5-11.7,4.4,0,7.4,4.6,7.4,8.8-.2,8.3-8.8,14.8-16.3,16.1-23.4,4.1-32.5-22.5-25.4-40.9,11.9-30.7,47.8-35.2,69.6-11.6,21.6,23.3,18.1,57.3,34.4,83.3.5,0,.2-.6.1-.9-1.3-5.2-3.1-9.8-3.8-15.4-1.1-9.7.6-23.9,6.1-32.2.3-.4.5-1,1.2-.9-6,15.4-6.9,31.8-1.8,47.6,3.9,11.8,12,20.4,23.8,24.4,4.7,1.6,9.9,2,14.3,3.5.5.2.7,0,.6.7-19.3,1.5-35.5-8.5-45.8-24.3-18.1-27.7-13.8-73-50.8-86.3-21.1-7.6-48.7,3.8-47.2,28.9.6,10.4,9,19.8,19.7,19.6l-4.1-2.3c-20.4-19.6.7-44.9,26-38.1,24.5,6.7,31.3,37.3,39.1,57.9,8.3,21.8,19.3,41.9,43.1,49.1,20.6,6.2,47.6.5,55.2-21.9,4-11.8.7-28.5-13.2-31.4-4.9-1-12.1.4-11.6,6.7,8.6-6.3,19,1.8,20,11.2,2.1,20.8-24,32.7-40.7,22.6-7.2-4.4-16.5-16.7-10.5-25,2.6-3.6,4.4.1,7,0,4.4-.3,6-6.2,3.7-9.6-1.9-2.7-4.1-2.7-7.2-2.6.5-3.5,3.9-3.2,6.6-4.3,2.3-.9,4-1.9,5.2-4.1l2.6-5.3c-1.4-.9-2.4-2.5-3.8-3.2-3.8-2-9.4-1.3-12.8,1.2-.4.3-2.3,2.1-2.4,2.4-.4.9,1.5,1.1.9,2.5-.4.9-4,3.2-5.1,4.5-10,11.6-2.6,30.8,7.5,39.9.9.8,3.2,2.2,3.8,3,.3.4.2.7-.3.6s-2.3-1-2.9-1.4c-19.6-10.3-24.1-37.6-11.2-55,6.9-9.2,21.1-16.3,31.7-8.9,3.4,2.4,6.4,8.1,11.4,4.9,3-1.9,2.7-5.2,1.6-8.1l11,1.7h0ZM246.2,11.6c-.1-.5-.5-.5-1-.6-11.5-1.3-26.2,3.8-36.3,9.2-12.7,6.8-27.2,19.7-42.7,17-3.4-.6-6.7-1.9-9-4.6-.5-.6-1.6-2.7-2.1-2.6-1.3.1-1.9,2.1-3.1-1.2s.3-5.6,2.9-7.4c1.2-.8,1.9-.2,1.6-1.9-1.1-6.1-8.9-7.2-12.1-2.1-1.4,2.1-1.7,4.8-1.1,7.2l-6.5-2.4c-3.5,9.1,2.4,19.1,10.3,23.6,5.3,3.1,11.7,4,17.8,3.3,12.4-1.5,22.3-9.5,32.3-16.3.1.6-.1.8-.4,1.1-2.4,3.2-9.4,8.4-12.8,10.9-4.7,3.5-13.6,7.6-15.9,12.8-1.4,3.1-1.7,7.1-.5,10.3,1.7-.6,3.2.1,4.9,0,3.6-.2,6.8-3.2,8.1-6.5.7-.1.4,0,.6.4.5,1.2.8,2.7,1.4,4,.1.2-.1.5.4.4,4.6-1.3,8.4-13.8,10.5-17.9,7.9-15.8,23.2-30.3,40.7-34.6,3.9-1,7.9-1.7,11.9-2.1h0ZM502.3,12.2c-4.8-1.2-11.4.1-14,4.8-.6,1.1-.8,2.3-1.4,3.4-2.9-3.2-7.7-5.6-12-3.7,2.4,3.1.9,6.6,1.1,10,.2,2.1,1,4.7,1.9,6.5,1.1,2.1,2.8,3.7,3.7,5.7-3.8-2.8-10.2-6.2-14.6-2.9-2,1.5-.6,1.9,0,3.6.5,1.5.7,3.1,1.3,4.7,2.8,7.3,14.1,13.5,19.9,18.8,9.7,8.7,19.7,24,21.6,37,2.1,14.4-3.9,30.7-17.4,37.3-.1-.5.3-.7.6-1,1.5-1.7,3.5-3.4,4.9-5.2,17.4-22.1,6.3-57-21.8-62-.2.2.9,2.9.9,3.4,0,.4.3.4-.2.8-4-2-8.5-3.2-13-2.8-1.3.1-5.9,1.4-6.1,3-.2,1.8,3.3,3.6,2.8,4.1-7,1.5-14.2,7.8-13,15.5,2.4-1.7,4.9-3.5,7.9-4-1.3,3-3.8,5.2-2.1,8.8,1.4,3,6.7,4.2,9.7,3.4-3.1-3.1,1.4-6.7,4-8.3,3.9-2.4,8.9-3.9,13.5-3.8.2.8-.2.5-.6.6-2.5,1.1-7.5,3.3-6.7,6.8.6,2.7,3.4,1.1,5.1,1,8.9-.5,16.3,6.9,18.1,15.2,3.3,14.9-9.1,30.6-24.8,27.6-8.7-1.6-16.4-11.2-11.5-19.9,3-5.4,11.1-6.3,13.6,0-6.6-2-10.4,5.4-4.8,9.7,8.9,6.8,18.6-5.9,12.2-15.5-6.4-9.7-20.7-7.4-26.4,1.9-8.2,13.3,2.5,28.5,16.2,31.7,21.1,4.9,41-11.7,45.5-31.7,3.6-15.8-2-24.6-5.1-38.9-.9-4-2-12.1,1.4-15.2,1.6-1.4,3.2,0,4.5,0,.8,0,2.6-1.8,3.1-2.5,3.9-5-1.8-10.3-7.2-7.8-6.3,3-6.4,13.6-4.8,19.3-.6.2-.9-.8-1.2-1.2-4.2-7.4-1.6-20,6.6-23.4,1.2-.5,6.2-1.3,6.4-1.5,1.9-2.5.3-13.2.5-16.6-.1-.7-1.7-1.3-2.4-1.6-8.7-2.9-17.4,2.4-20.4,10.7-4,11.2.8,24.4,6.1,34.4,1.8,3.4,4.5,6.2,4.8,10.4h-.6c-9.5-13.5-20.9-33.2-13.2-49.9,1.4-2.9,4.4-6.5,4.8-9.6.3-3.1-.8-5.3.8-8.5.2-.4,1.7-2.1,1.5-2.3h0ZM181.3,33.9h-4.6c-3.8,0-9.2-3.7-10.4-7.4-1.1-3.3.4-8.1,4.6-7,0,.9-1,1.1-1.3,2-1.6,5.1,5.8,6.3,7.8,1.6,1.5-3.5-.6-7.2-4-8.4-5.5-1.9-11.1,2.5-11.5,8.1-.7,8.8,9.1,13.4,16.7,11.9l2.8-.8h0ZM119.6,20.1c2.6-6.3-4.1-6.6-5.8-1.4-3.4,10.7,8.3,21.7,16.9,26,1.4.7,2.8,1.5,4.4,1.6-1.2-1.5-2.8-2.5-4.1-3.9-4.5-4.9-10.7-14.2-6.4-20.8.9-1.4,3-2.1.4-3.2-2.4-1-3.4.9-5.5,1.7h0ZM241.1,15c-10.3,1.3-20.3,7.1-27.9,13.9-9.4,8.4-19.8,23.6-16.8,36.9,1.6,7.1,8.3,12.5,15.7,11.8-4.9-4-4.1-10.4-4.8-16.1.4-.5,1.9,2,2.1,2.2,6.4,6.4,14.9,4.7,13.7-5.3-5.4,5.8-10.5-3-11-8-1.3-14.1,10.5-26.6,22.2-32.5l6.9-2.9h0ZM119.3,39c-8.7-8.5-15.4-25-29.9-23.1,1.4,1.5,3.3,2.6,4.2,4.5-3.3-.7-5.9-.8-9.1.4-1.1.4-2.8,1.6-3.8,1.9-.6.1-2.1-.1-2.4.2-.7,2.2,1.5,4.5,3.4,5.3.6.3,3.4.9,3.4,1.1-1.1,1.1-1.7,4.7.3,5.1.3,0,3.3-2,4.2-2.4,7.9-3.5,15.4-1.2,22.6,2.7,2.4,1.3,4.6,3.1,7.1,4.3h0ZM141.6,50.6c-5.8-1-11.7-3.6-16.8-6.4-6.1-3.3-16.7-11.6-23.8-9.5-3.4,1-5.1,3.6-3.2,6.9,1.3-.1,2.4.5,3.6.6,2.9.2,5.9-.6,9-.2,6.4.7,13.6,5,19.9,6.9,3.1,1,7.1,1.9,10.4,2.1.3,0,1.1.2,1-.3h0ZM451.7,54.3c-1.1-.7-5,.4-6.1,1.2-4.3,3-2.6,7.2-3.5,11.5-.3,1.4-1,2.5-1.3,3.9.7.6,6.9-1.8,7.9-2.4,5.9-3.1,9.5-10.1,16.9-10.6-.3-.6-1.3-.8-1.9-1-2-.8-5.7-2-7.8-2-1,0-3.4.4-3.8.1-.2-.1-.2-.5-.3-.6h0ZM255.5,83c-4.6-6.9-15.3-15.7-24.1-13.5-3.7.9-6.2,5.1-4,8.4,1.4-1.4,3.5-2.2,5.5-2-.3,1.8-1.8,3.1-1.6,5.1.1,1.6,1.4,3.5,2.9,3.9.6.1.6-1.8,1.2-2.1,3.1-3.5,8.4-3.8,12.7-2.8,2.6.6,4.9,2,7.3,3h0ZM419.4,77.6c-5.6.9-8,8-3.5,11.8,5.1,4.4,12.7-.4,11.7-6.9-.7-4.6-4.7-1.1-6.5-2-.5-.3-1.5-2.3-1.7-3h0ZM353.9,121.6l-7-11.7c-4.2-6.3-10.8-13.5-18.8-14.2-1.7-.1-3.4-.5-3.2,1.5.2,1.8,1.4,3.2,2.5,4.5.3.4,1.7.9,1.1,1.5-.1.1-3.2-.6-3.8-.6-6.2,0-14.3,3.2-16.5,9.4-1.5,4.3,1,1.9,3.4,3.1-5,7.1,2.5,14.5,9.9,13.3-6.7-1.6-5.9-8.5-.8-11.8,8.3-5.4,20.1,1,27.2,5.7,5.8,3.8,11,9.1,17.9,11.1-5.7-5.6-11.7-11.2-18.2-15.7-7.8-5.4-17.8-9.9-27.4-7.7.2-1,2.5-1.8,3.4-2.1,8-2.2,16.3,2.1,22.5,6.7,2.8,2.1,5.1,4.7,7.9,6.9h0ZM411.8,109.2c-6.7.8-8.4,8.1-6.6,13.8,2.7,8.2,12.4,11.7,20.2,8.7,4.1-1.5,8.3-5.4,8-10.1-3.7,1-6.5,4-10.5,2.3-3-1.3-3.2-4-3-6.9.3-3.3,2.3-6.4-3.1-5.4-1.9.4-3.4,1.7-5.1,2.4v-4.8h0ZM513.3,147.9c4.7,1.8,9.4-1.5,9.8-6.4.2-2.2-1-5.2-3.2-6.1-2.6-1-2.8,3.5-3.8,4.8-2.6,3.4-5.4-2.6-5.2-5-2.5,2.4-1.3,7.1,1.3,9,.4.3,2.4,1.2,2.4,1.3.2,1-1.6,2.2-1.4,2.4h0Z"/>
  </g>
</svg>